<?xml version="1.0" standalone="no"?>
<!DOCTYPE svg PUBLIC "-//W3C//DTD SVG 20010904//EN"
 "http://www.w3.org/TR/2001/REC-SVG-20010904/DTD/svg10.dtd">
<svg version="1.0" xmlns="http://www.w3.org/2000/svg"
 width="769.000000pt" height="676.000000pt" viewBox="0 0 769.000000 676.000000"
 preserveAspectRatio="xMidYMid meet">
<metadata>
Created by potrace 1.16, written by Peter Selinger 2001-2019
</metadata>
<g transform="translate(0.000000,676.000000) scale(0.100000,-0.100000)"
fill="#000000" stroke="none">
<path d="M3660 6445 c-4 -5 -1 -101 7 -213 9 -111 13 -205 10 -209 -4 -3 -96
1 -204 9 -109 9 -203 14 -208 11 -14 -5 -13 -329 0 -341 6 -5 74 -3 155 4 80
7 171 13 203 13 l58 1 -6 -117 c-10 -178 -13 -186 -83 -212 -79 -28 -167 -87
-224 -148 -118 -127 -184 -362 -147 -522 5 -24 7 -46 4 -49 -2 -3 -54 18 -113
46 -282 132 -606 259 -749 293 -296 71 -614 77 -913 18 -294 -59 -535 -184
-729 -379 -205 -205 -331 -435 -393 -718 -18 -81 -22 -129 -22 -287 0 -167 4
-205 27 -315 69 -327 174 -584 413 -1012 52 -93 112 -204 134 -248 81 -162
150 -358 150 -429 0 -44 -6 -57 -54 -126 -30 -42 -26 -107 11 -153 28 -35 53
-75 53 -86 0 -17 -37 -36 -71 -36 -31 0 -47 -7 -70 -29 -26 -27 -29 -35 -29
-99 0 -80 23 -122 66 -122 57 0 64 -12 64 -118 l0 -97 -30 -17 -31 -17 3 -108
3 -108 45 -5 c35 -4 48 -11 59 -32 14 -24 13 -29 -12 -65 -32 -46 -33 -63 -9
-93 l18 -22 334 26 c964 74 1383 90 2355 90 1065 1 1699 -24 2655 -105 l245
-20 17 21 c24 29 23 63 -2 85 -22 20 -27 74 -8 93 7 7 24 12 39 12 57 0 59 3
59 117 0 100 -1 107 -25 129 -23 21 -25 31 -25 101 0 43 4 84 9 91 4 8 27 16
50 19 24 3 45 13 51 23 5 9 10 58 12 108 4 108 -3 119 -81 131 -29 5 -57 15
-62 22 -5 9 4 36 26 77 44 79 48 145 11 189 -12 15 -28 38 -35 50 -47 90 41
333 271 749 252 453 354 706 420 1039 32 162 32 428 0 574 -43 193 -107 344
-208 496 -297 446 -763 661 -1394 642 -203 -6 -387 -34 -534 -82 -174 -57
-480 -187 -694 -294 -46 -23 -87 -39 -91 -37 -4 3 -1 31 7 63 18 70 6 199 -29
300 -54 161 -207 317 -371 378 -26 9 -50 25 -53 34 -9 21 -27 283 -20 289 5 6
348 -16 381 -24 26 -7 58 22 49 44 -12 33 -17 169 -7 221 10 58 8 77 -11 84
-7 2 -101 -3 -210 -11 -108 -8 -200 -12 -203 -9 -3 3 1 97 10 208 10 138 12
207 5 214 -13 13 -318 14 -329 0z m-1515 -1966 c99 -17 183 -34 188 -38 4 -4
-30 -22 -75 -40 -338 -137 -568 -394 -650 -728 -17 -69 -21 -118 -21 -228 0
-255 51 -432 222 -765 217 -424 250 -498 307 -693 51 -177 46 -229 -35 -363
-51 -85 -52 -117 -7 -192 42 -70 50 -96 34 -110 -20 -15 -514 -45 -538 -32
-27 14 -25 29 10 112 17 38 30 77 30 85 0 26 -31 74 -87 135 -30 33 -68 88
-83 122 -15 33 -85 230 -155 436 -70 206 -167 488 -215 625 -48 138 -97 293
-108 345 -67 309 -41 642 69 887 119 265 344 431 641 473 97 14 276 2 473 -31z
m3963 2 c344 -86 572 -339 659 -733 14 -65 18 -125 18 -278 -1 -252 -16 -317
-165 -713 -61 -164 -164 -451 -229 -640 -155 -446 -153 -442 -218 -523 -83
-103 -84 -112 -42 -239 19 -56 19 -60 3 -72 -12 -9 -39 -11 -88 -7 -371 27
-458 34 -466 39 -18 11 -10 40 26 92 34 50 36 57 32 116 -3 50 -11 74 -36 113
-70 111 -77 177 -32 334 47 166 112 319 225 535 259 491 310 623 350 909 19
137 19 169 0 261 -65 313 -326 580 -709 726 -48 18 -83 36 -79 40 8 7 265 55
338 63 96 10 331 -3 413 -23z m-2898 -405 c121 -22 161 -36 192 -66 15 -16 28
-39 28 -52 0 -14 18 -49 41 -79 55 -72 66 -100 84 -211 22 -137 41 -522 27
-553 -11 -23 -17 -25 -82 -25 -83 0 -274 19 -605 61 -213 27 -241 28 -251 15
-8 -11 -7 -39 2 -103 26 -173 27 -263 8 -422 -12 -105 -14 -155 -7 -162 7 -7
85 -1 254 20 356 45 546 63 619 59 l65 -3 -2 -85 c-1 -101 -59 -600 -75 -650
-6 -19 -27 -57 -46 -85 -42 -62 -40 -85 19 -230 36 -87 41 -108 32 -128 -10
-22 -18 -24 -110 -30 -54 -4 -218 -7 -365 -7 l-267 0 -17 31 c-15 31 -15 32
18 78 27 37 33 55 32 94 -1 57 -21 88 -90 137 -76 54 -131 114 -139 152 -31
152 -136 518 -190 662 -13 35 -61 151 -105 256 -203 480 -236 701 -134 916 32
67 119 163 195 215 122 83 310 162 449 188 30 6 64 13 75 15 49 9 277 4 345
-8z m1610 4 c239 -31 487 -141 624 -276 149 -147 188 -348 122 -619 -31 -124
-63 -213 -172 -466 -109 -256 -199 -532 -257 -789 -30 -133 -45 -160 -110
-209 -138 -101 -171 -201 -97 -292 34 -43 38 -74 12 -88 -25 -13 -751 6 -769
21 -22 18 -15 51 37 152 30 58 50 111 50 130 0 22 -15 56 -45 101 -25 38 -47
83 -50 99 -2 17 -18 148 -35 291 -30 261 -38 393 -26 414 15 23 188 10 673
-49 134 -17 245 -30 248 -30 2 0 9 8 14 18 6 12 5 50 -5 112 -20 124 -19 308
0 445 13 90 14 112 3 122 -11 11 -55 8 -247 -16 -346 -43 -547 -63 -620 -59
l-65 3 -3 90 c-6 167 33 549 63 622 8 18 29 53 48 78 19 25 38 61 41 80 9 45
42 69 123 89 139 34 304 44 443 26z m-1320 -2999 c14 -10 31 -35 38 -57 37
-109 -75 -202 -178 -149 -90 46 -73 197 24 224 40 11 84 4 116 -18z m400 14
c40 -21 60 -53 60 -98 0 -124 -142 -179 -218 -83 -66 84 -14 196 91 196 21 0
51 -7 67 -15z m421 -8 c48 -32 68 -91 48 -143 -36 -94 -167 -112 -223 -32 -34
49 -10 144 46 178 43 26 87 25 129 -3z m-1266 -1 c90 -38 100 -177 15 -221
-119 -62 -238 70 -165 182 17 25 66 52 98 53 10 0 33 -6 52 -14z m1708 -26
c49 -55 31 -162 -33 -195 -85 -44 -181 12 -182 107 -1 109 143 168 215 88z
m-2117 14 c42 -20 64 -59 64 -114 0 -59 -49 -110 -110 -116 -26 -3 -55 1 -69
8 -84 45 -84 180 1 221 42 21 71 21 114 1z m2512 -12 c70 -46 66 -162 -7 -205
-90 -53 -202 22 -188 126 12 89 115 131 195 79z m-2932 -11 c64 -29 90 -100
59 -161 -24 -46 -62 -70 -111 -70 -36 0 -51 6 -82 34 -34 32 -37 39 -37 89 0
63 26 101 79 116 44 13 46 13 92 -8z m3341 -8 c63 -30 77 -108 33 -181 -58
-94 -221 -42 -220 71 1 102 92 155 187 110z m-3775 -3 c75 -21 107 -96 74
-174 -19 -46 -52 -66 -107 -66 -57 0 -102 32 -119 85 -20 60 16 128 80 154 32
13 29 13 72 1z m4172 -14 c126 -53 87 -236 -51 -236 -92 0 -149 95 -106 177
19 36 72 73 106 73 10 0 32 -6 51 -14z m-4565 -20 c84 -44 89 -167 9 -216
-115 -70 -239 61 -168 177 29 48 105 66 159 39z m5023 -33 c97 -98 -20 -261
-143 -198 -62 33 -87 117 -52 176 39 65 140 77 195 22z m-1962 -353 c485 -10
805 -22 1230 -46 361 -19 820 -53 831 -60 13 -8 11 -48 -4 -68 -13 -17 -24
-17 -288 3 -573 43 -973 64 -1549 82 -438 13 -1790 7 -2150 -10 -402 -19 -769
-41 -1059 -62 -156 -11 -289 -18 -297 -15 -17 7 -18 60 -1 74 12 10 407 40
817 62 834 44 1662 58 2470 40z"/>
</g>
</svg>
