<?xml version="1.0" standalone="no"?>
<!DOCTYPE svg PUBLIC "-//W3C//DTD SVG 20010904//EN"
 "http://www.w3.org/TR/2001/REC-SVG-20010904/DTD/svg10.dtd">
<svg version="1.0" xmlns="http://www.w3.org/2000/svg"
 width="443.000000pt" height="385.000000pt" viewBox="0 0 443.000000 385.000000"
 preserveAspectRatio="xMidYMid meet">
<metadata>
Created by potrace 1.16, written by Peter Selinger 2001-2019
</metadata>
<g transform="translate(0.000000,385.000000) scale(0.100000,-0.100000)"
fill="#000000" stroke="none">
<path d="M1172 3670 c4 -8 92 -213 196 -455 105 -242 194 -453 197 -468 4 -15
15 -33 25 -40 10 -7 100 -109 200 -226 l182 -215 -28 -20 c-86 -62 -155 -171
-174 -275 -6 -30 -13 -57 -15 -60 -7 -6 -474 87 -527 105 -25 9 -48 10 -70 4
-56 -15 -169 -27 -174 -19 -8 14 25 183 52 265 64 197 146 332 306 502 43 46
58 68 53 80 -4 9 -10 25 -12 35 -3 10 -15 17 -31 17 -24 0 -25 1 -7 14 17 12
17 17 5 47 -21 52 -26 54 -69 20 -42 -34 -51 -51 -27 -51 8 0 18 -5 22 -12 5
-8 -2 -9 -27 -4 -31 6 -37 2 -99 -62 -197 -205 -325 -483 -363 -787 l-13 -99
-284 -37 c-157 -20 -294 -38 -305 -41 -17 -3 696 -95 810 -104 22 -2 67 -8
100 -15 88 -17 96 -16 390 44 148 30 273 53 277 51 5 -3 8 -20 9 -37 1 -55 23
-102 47 -100 19 2 20 0 10 -22 -10 -21 -6 -31 31 -79 22 -30 41 -57 41 -59 0
-11 -372 -413 -395 -426 -16 -10 -25 -25 -25 -41 0 -33 -41 -150 -53 -150 -18
0 -141 127 -203 210 -83 109 -154 248 -194 380 -18 58 -38 111 -44 117 -7 8
-51 16 -105 20 -89 6 -93 5 -88 -13 3 -10 11 -46 17 -79 19 -97 60 -216 76
-222 8 -3 13 -12 10 -20 -8 -19 71 -172 135 -263 60 -85 220 -254 280 -295 21
-15 39 -31 39 -36 0 -4 -52 -130 -116 -281 -137 -324 -130 -306 -117 -293 6 6
131 174 278 375 147 201 281 380 298 397 17 18 32 43 34 55 3 18 190 536 197
545 1 2 31 -13 67 -31 35 -19 81 -38 102 -41 l37 -7 0 421 0 421 -35 0 c-20 0
-49 -7 -64 -15 -23 -11 -31 -12 -38 -2 -15 19 -183 514 -183 537 0 12 -13 33
-28 48 -36 35 -92 107 -92 120 0 20 199 92 298 107 l44 7 -7 37 c-4 20 -13 54
-21 76 -7 22 -14 48 -14 58 0 17 -6 18 -52 12 -79 -11 -210 -51 -299 -92 -47
-21 -83 -32 -88 -27 -5 5 -91 119 -191 254 -194 260 -196 263 -188 240z"/>
<path d="M2985 3308 c-143 -192 -284 -379 -312 -416 -29 -36 -53 -72 -53 -80
0 -16 -179 -524 -189 -534 -4 -4 -33 3 -66 17 -33 13 -66 25 -72 25 -16 0 -19
-185 -3 -195 5 -3 6 -15 1 -28 -5 -12 -12 -159 -16 -326 l-8 -304 34 6 c19 4
64 22 101 41 l67 34 20 -52 c10 -28 44 -118 75 -200 31 -82 61 -155 67 -163 6
-7 9 -13 6 -13 -4 0 0 -19 8 -41 8 -23 15 -52 15 -65 0 -13 9 -28 19 -33 20
-11 111 -133 111 -149 0 -24 -340 -152 -404 -152 -21 0 -20 -9 6 -101 18 -64
26 -78 45 -82 44 -8 242 51 363 109 66 32 122 55 124 53 4 -5 171 -233 277
-380 45 -63 80 -105 76 -94 -3 11 -87 211 -187 445 -100 234 -187 441 -192
460 -5 19 -25 49 -43 65 -26 23 -200 220 -353 397 -13 16 -11 21 21 57 48 53
86 130 102 205 8 41 17 60 26 59 65 -9 538 -107 553 -115 12 -7 32 -6 60 1 22
5 65 13 94 17 l52 6 0 -30 c0 -42 -26 -163 -52 -242 -50 -156 -151 -329 -257
-442 l-61 -66 36 -86 c20 -47 41 -89 46 -92 15 -10 121 99 209 216 156 206
250 445 284 723 4 27 11 47 19 47 6 0 133 16 281 35 149 19 285 35 303 35 17
0 32 5 32 10 0 6 -14 10 -30 10 -33 0 -490 56 -790 96 -102 14 -189 25 -195
25 -5 0 -131 -25 -280 -55 -148 -30 -281 -56 -295 -58 -23 -3 -25 1 -33 52
-11 78 -58 171 -117 234 -27 29 -50 56 -50 60 0 7 280 335 351 411 21 23 51
74 69 117 17 43 36 81 41 84 11 7 73 -42 144 -115 36 -36 58 -51 78 -51 15 0
27 -4 27 -10 0 -5 -4 -10 -10 -10 -18 0 -11 -19 25 -66 85 -111 170 -293 201
-433 9 -39 20 -72 25 -72 5 -1 21 -2 37 -4 15 -1 56 -5 91 -10 l64 -8 -6 49
c-7 62 -50 207 -88 304 -84 208 -243 422 -419 561 -44 34 -80 69 -80 77 0 7
54 140 120 294 66 155 119 282 118 284 -2 1 -120 -155 -263 -348z"/>
<path d="M2214 3306 c-3 -7 -4 -51 -2 -97 l3 -84 84 -8 c89 -8 212 -36 294
-67 28 -11 52 -19 52 -17 44 62 105 159 105 166 0 15 -206 79 -307 95 -132 22
-224 26 -229 12z"/>
<path d="M1655 694 c-30 -40 -55 -77 -55 -82 0 -5 21 -19 48 -30 132 -56 320
-100 470 -109 l92 -6 0 95 0 95 -77 7 c-108 10 -211 32 -325 71 l-97 33 -56
-74z"/>
</g>
</svg>
