<?xml version="1.0" standalone="no"?>
<!DOCTYPE svg PUBLIC "-//W3C//DTD SVG 1.1//EN" "http://www.w3.org/Graphics/SVG/1.1/DTD/svg11.dtd" >
<svg xmlns="http://www.w3.org/2000/svg" xmlns:xlink="http://www.w3.org/1999/xlink" version="1.1" viewBox="-10 0 1010 1000">
   <path fill="currentColor"
d="M113.35 116.85h773.301v773.301h-773.301v-91.3008v-488.399v-193.601zM128.75 502.95v2.2002c0 60.1328 14.667 118.066 44 173.8c10.2666 20.5332 23.833 41.0664 40.7002 61.5996c21.2666 24.2002 38.8662 41.4336 52.7998 51.7002
c16.1338 12.4668 30.7998 22.7334 44 30.7998c60.1338 35.2002 121.733 52.7998 184.8 52.7998h9.90039c64.5332 0 128.333 -18.6992 191.399 -56.0996c15.4004 -9.5332 30.4336 -20.5332 45.1006 -33c17.5996 -16.1338 32.2666 -30.7998 44 -44
c57.9336 -71.8662 86.8994 -151.8 86.8994 -239.8c0 -83.6006 -27.1328 -160.233 -81.3994 -229.9c-6.60059 -10.2666 -20.9004 -25.666 -42.9004 -46.2002c-22.7334 -19.0664 -41.0664 -32.6328 -55 -40.6992c-60.1328 -35.9336 -123.566 -53.9004 -190.3 -53.9004
h-4.40039c-74.7998 0 -144.833 22 -210.1 66c-14.667 11 -29.7002 23.4668 -45.0996 37.4004c-22.7334 22 -38.5 40.333 -47.3008 55c-13.9326 19.7998 -25.666 40.333 -35.1992 61.5996c-7.33398 16.1338 -14.667 37.0332 -22 62.7002
c-5.86719 27.8662 -8.80078 48.3994 -8.80078 61.5996c0 5.86719 -0.366211 14.667 -1.09961 26.4004zM477.45 211.45v585.2c-49.1338 -49.1338 -147.033 -146.667 -293.7 -292.601c49.1338 -49.1328 147.033 -146.666 293.7 -292.6zM522.55 211.45
c49.1338 48.3994 147.033 146.3 293.7 293.7c-48.4004 48.3994 -145.934 145.566 -292.6 291.5c0 -97.5342 -0.367188 -292.601 -1.10059 -585.2z" />
</svg>
