<?xml version="1.0" standalone="no"?>
<!DOCTYPE svg PUBLIC "-//W3C//DTD SVG 1.1//EN" "http://www.w3.org/Graphics/SVG/1.1/DTD/svg11.dtd" >
<svg xmlns="http://www.w3.org/2000/svg" xmlns:xlink="http://www.w3.org/1999/xlink" version="1.1" viewBox="-10 0 1010 1000">
   <path fill="currentColor"
d="M482.5 42c0 -4.03418 4.10645 -6.32715 8 -11h16v2c6.08984 6.08984 11.0518 13.5645 17 21l2 1c0 1.16797 1.38477 3.76953 2 5c3.33301 4 8 10 14 18c0 3.10254 4.5957 7.2334 8 12c0.666992 0.666992 1 1.33301 1 2c8.05762 11.7207 27.0176 38.0361 38 60l9 15
c0.666992 1.33301 1 2.33301 1 3c3.01172 6.02344 5.13965 8.25098 10 17c0 1.7041 2 3.71875 2 6c0.666992 0 1 0.333008 1 1c1.24707 1.24707 6.1543 16 9 16c0 0.666992 0.333008 1.66699 1 3l9 18c0 3.55371 3.77539 11.7754 7 15c2.66699 6.66699 6.66699 16.333 12 29
c0.666992 0.666992 1 1.66699 1 3c1.33301 2.66699 3 6.66699 5 12c0 0.666992 0.666992 1.33301 2 2c2 5.33301 5 13.667 9 25c0 0.666992 0.333008 1.66699 1 3c0 2.51465 2.51953 6.2998 4 10v3c0.801758 1.60352 5 8.80664 5 12c0.666992 0.666992 1 1.66699 1 3
c0.666992 0.666992 1 1.33301 1 2c0.666992 2 1.66699 4.66699 3 8c0 3.97461 5 10.124 5 16c1.33301 3.33301 3 8.66699 5 16v3c0.666992 1.33301 1.66699 4 3 8c0 2.51465 2.51953 6.2998 4 10v3c0 0.666992 0.333008 1.66699 1 3v2c3.9707 7.94141 5.30664 17.3564 10 33
v2c0.666992 2 1.33301 5 2 9c0 6.64062 4.07129 15.0166 7 26v2c0.615234 1.84668 3 8.47363 3 11v4c0.666992 0 1 1 1 3v2c0 1.33301 0.333008 2.33301 1 3c1.33301 8 3.66699 19.667 7 35v2c4.66699 30 11.333 74.667 20 134v3c0 1.33301 0.333008 3.33301 1 6v4
c2 27.333 4.66699 68.333 8 123v10c0.666992 2 1 5.33301 1 10v1c0 5.33301 0.333008 16.333 1 33v44c-0.666992 0.666992 -1 1.33301 -1 2c0 0 -7.08789 9 -11 9h-206c-4 -2 -8 -5.66699 -12 -11c0.666992 -71.333 1 -178.333 1 -321c0 -3.07812 -3.73828 -6.73828 -6 -9
c-1.8623 -2.79395 -9.25488 -10.2549 -13 -14c-3.90527 0 -6.42383 -3.08496 -11 -4h-6c-0.666992 0.666992 -2.66699 1.33301 -6 2c0 0.666992 -0.666992 1 -2 1c-6.69043 4.45996 -9.97754 6.12402 -18 13c0 4.63867 -7 5.20605 -7 11v322c-2 5.33301 -6 8.66699 -12 10
h-201c-3.58398 0 -7.96484 -7.96484 -12 -12c0.666992 0 1 -0.333008 1 -1v-51c0.666992 -0.666992 1 -1.66699 1 -3v-13c0.666992 0 1 -0.333008 1 -1v-17c0 -4.66699 0.333008 -14.667 1 -30v-3c0.666992 -2 1 -6.33301 1 -13c0.666992 -7.33301 1.66699 -22.333 3 -45
c0 -1.33301 0.333008 -2.33301 1 -3c3.33301 -28.667 8.33301 -71.333 15 -128v-9c0 -1.33301 0.333008 -2.66699 1 -4l9 -54c0 -0.666992 0.333008 -1.33301 1 -2c0 -2.54688 2 -11.4707 2 -15l3 -12v-3c0.666992 -1.33301 1.33301 -4 2 -8
c0 -0.666992 0.333008 -1.66699 1 -3c0 -2.66699 0.666992 -6.33301 2 -11v-3c0.666992 -0.666992 1 -1.66699 1 -3c0 -0.666992 0.333008 -1.66699 1 -3c0 -0.666992 0.333008 -1.33301 1 -2c0 -2.0498 2 -9.47168 2 -12c3.33301 -11.333 8 -28.667 14 -52v-4l1 -2
c0 -1.62012 2 -3.86523 2 -6c3.53613 -7.07227 4.65527 -17.5176 9 -32c0 -0.666992 0.333008 -1.66699 1 -3c7.33301 -20 18.333 -50.667 33 -92l1 -1c0.666992 -1.33301 1 -2.33301 1 -3c11.0244 -29.3975 19.3086 -42.4873 36 -79c0 -2.55566 2.92383 -6.23145 5 -9
c0 -0.666992 0.333008 -1.33301 1 -2c0 -0.666992 0.333008 -1.66699 1 -3c0.666992 0 1 -0.666992 1 -2c0.666992 -0.666992 1 -1.33301 1 -2c2 -2.66699 4.66699 -7 8 -13c0 -2.70312 1.65332 -3.65332 3 -5c1.33301 -3.33301 3.66699 -8 7 -14
c0.666992 0 1 -0.333008 1 -1c0.666992 -0.666992 1 -1.66699 1 -3l2 -2c0 -0.666992 0.333008 -1.33301 1 -2c0 -0.666992 0.333008 -1.66699 1 -3l12 -18c0.666992 -0.666992 1.33301 -1.66699 2 -3c0.666992 0 1 -0.666992 1 -2c0 -0.666992 0.333008 -1.33301 1 -2
c5.06738 -6.96875 16.3164 -19.6328 24 -35c2.65137 -2.65137 4.08008 -4.10645 7 -8c0 -0.666992 0.333008 -1.33301 1 -2c0 -0.666992 0.666992 -1.33301 2 -2c0 -2.6748 5 -4.48438 5 -8l4 -4c0 -1.90234 2.89355 -3.89355 4 -5zM579.5 178
c0 -6.11816 -8 -10.8486 -8 -16c-3.04102 -4.25781 -7.83691 -16.8369 -15 -24c-10.667 -15.333 -26.333 -38.333 -47 -69c0 -0.666992 -0.666992 -1.33301 -2 -2c-1.37598 -2.75293 -6.3418 -7.68359 -9 -13l-12 16c-0.666992 0 -1 0.333008 -1 1
c-7.33301 10 -18 25 -32 45c0 0.666992 -0.333008 1.33301 -1 2c-5.33301 8 -13 20.333 -23 37c0 1.57031 -2.07617 3.07617 -3 4c-1.33301 3.33301 -4 8.33301 -8 15c0 4.58789 -4.31348 9.10156 -8 15c0 3.28711 -4.33301 8.33203 -7 13
c0 0.666992 -0.333008 1.66699 -1 3c0 0.743164 -3 4.37305 -3 6c-1.33301 2 -3 5 -5 9v2c0 1.2627 -1.20117 4 -3 4c0 0.666992 -0.333008 1.66699 -1 3c-4 9.33301 -10 23 -18 41c0 0.666992 -0.333008 1.66699 -1 3c0 0.868164 -2 4.83984 -2 6l-3 6v1
c-0.666992 1.33301 -1.66699 3 -3 5c0 1.33301 -0.333008 2.33301 -1 3v2c0 0.666992 -0.333008 1.33301 -1 2c0 1.15137 -2 3.79199 -2 5c-0.666992 1.33301 -1.33301 3 -2 5c0 3.3291 -3.89258 8.38086 -6 14v3c-1.03418 2.58398 -6 11.834 -6 17
c-0.5625 2.24902 -4 8.94531 -4 12c-1.33301 3.33301 -3 8.66699 -5 16c-0.666992 0 -1 0.666992 -1 2c-0.666992 0.666992 -1 1.33301 -1 2v3c-0.666992 0.666992 -1 1.33301 -1 2c-1.33301 4.66699 -3.66699 11.667 -7 21v2c-0.666992 3.33301 -2 7.66699 -4 13v3
c-2 7.33301 -5 18.667 -9 34c-0.666992 1.33301 -1 2.33301 -1 3c0 1.33301 -0.666992 3 -2 5v3c-0.666992 2 -1.66699 5.66699 -3 11c0 6.73828 -3.00879 15.0352 -6 27v2c-0.666992 1.33301 -1.33301 3.33301 -2 6v2c-1.33301 6 -3 14.667 -5 26v2
c-0.666992 2 -1.33301 4.66699 -2 8c0 1.33301 -0.333008 2.33301 -1 3c0 3.33301 -0.666992 8.33301 -2 15c0 1.33301 -0.666992 4 -2 8c0 1.99512 -3 13.7168 -3 20v2c0 7.16699 -1.98926 9.88379 -3 21v3c-1.33301 9.33301 -3.66699 23.667 -7 43v12
c-0.666992 4.66699 -1.66699 11 -3 19v2c-0.666992 8 -1.66699 19.333 -3 34c0 0.666992 -0.333008 1.66699 -1 3v9c-0.666992 9.33301 -2 23.333 -4 42h1c0 0.666992 -0.333008 1 -1 1v3c0 8 -0.333008 20 -1 36v2c-0.666992 4 -1 12 -1 24v1c-0.666992 2.66699 -1 8 -1 16
v16h-1v27h184v-317c3.88965 -7.77832 5.43262 -9.48047 14 -19l10 -10c6.7207 -3.36035 14.9922 -8.33105 26 -12h12c0.666992 0 1.33301 0.333008 2 1c1.33301 0 2.33301 0.333008 3 1c6.45605 0 15.0596 6.29492 20 10c4 4.66699 10 12 18 22l2 1v3
c0.666992 0 1 0.666992 1 2c0.666992 1.33301 1 2.33301 1 3v315h187v-77c0 -3.33301 -0.333008 -10.667 -1 -22v-13c-0.666992 -8 -1.66699 -23.333 -3 -46v-4c0 -2.66699 -0.333008 -7 -1 -13v-3c-0.666992 -4 -1.33301 -9.66699 -2 -17v-4
c0 -0.666992 -0.333008 -1.66699 -1 -3v-9c-0.666992 -4 -1.33301 -9.66699 -2 -17v-4c-1.33301 -6.66699 -2.66699 -16.667 -4 -30v-2c-1.33301 -6 -2.66699 -15 -4 -27v-3c-0.666992 -2.66699 -1.66699 -7 -3 -13v-7c0 -0.666992 -0.333008 -1.33301 -1 -2v-3
c-0.666992 -3.33301 -1.66699 -8 -3 -14v-3c-2.66699 -12 -6.33301 -30.333 -11 -55c0 -1.33301 -0.333008 -2.66699 -1 -4c0 -1.69629 -1.15039 -9.30078 -3 -13v-3c-0.666992 -3.33301 -2 -8.66699 -4 -16c0 -0.666992 -0.333008 -1.66699 -1 -3v-2
c-2 -7.33301 -5 -19 -9 -35v-2l-15 -51c-0.666992 -1.33301 -1 -2.33301 -1 -3c-5.06738 -13.1758 -14.5342 -41.5889 -22 -61c0 -1.33301 -0.333008 -2.33301 -1 -3v-2c-0.666992 -0.666992 -1 -1.33301 -1 -2c-0.666992 -0.666992 -1.33301 -1.66699 -2 -3
c0 -0.666992 -0.333008 -1.33301 -1 -2v-3c-1.33301 -2 -2.66699 -5 -4 -9c0 -3.21191 -2.26465 -5.66211 -4 -10v-2l-7 -14c-1.33301 -4 -4 -10 -8 -18c-0.666992 -0.666992 -1 -1.66699 -1 -3c-0.666992 -1.33301 -1.66699 -3.66699 -3 -7c-0.666992 0 -1 -0.333008 -1 -1
s-0.333008 -1.66699 -1 -3c0 -1.74219 -2 -2.60547 -2 -5c-2 -3.33301 -5 -9 -9 -17c0 -0.666992 -0.333008 -1.66699 -1 -3c-4.66699 -8.66699 -12 -22 -22 -40z" />
</svg>
