<?xml version="1.0" standalone="no"?>
<!DOCTYPE svg PUBLIC "-//W3C//DTD SVG 1.1//EN" "http://www.w3.org/Graphics/SVG/1.1/DTD/svg11.dtd" >
<svg xmlns="http://www.w3.org/2000/svg" xmlns:xlink="http://www.w3.org/1999/xlink" version="1.1" viewBox="-10 0 1010 1000">
   <path fill="currentColor"
d="M113.35 114.85h773.301v773.301h-773.301v-91.3008v-488.399v-193.601zM128.75 500.95v2.2002c0 76.2666 22.3662 147.033 67.0996 212.3c48.4004 66.7334 109.634 112.934 183.7 138.6h1.10059h1.09961v-1.09961c-4.40039 -89.1006 -4.40039 -89.1006 -17.5996 -356.4
c2.19922 -9.5332 10.6328 -21.2666 25.2998 -35.2002c16.8662 -15.3994 42.166 -26.7666 75.8994 -34.0996c13.9336 -2.2002 25.667 -4.0332 35.2002 -5.5c19.7998 2.93359 35.9336 6.59961 48.4004 11c20.5332 5.86621 38.5 14.667 53.8994 26.4004
c13.9336 11 23.834 21.2666 29.7002 30.7998c2.2002 2.2002 3.2998 4.39941 3.2998 6.59961c-3.66602 79.2002 -9.5332 198 -17.5996 356.4h1.09961c77 -26.4004 138.601 -72.6006 184.801 -138.601c45.4658 -64.5332 68.1992 -135.666 68.1992 -213.399
c0 -83.6006 -27.1328 -160.233 -81.3994 -229.9c-6.60059 -10.2666 -20.9004 -25.666 -42.9004 -46.2002c-22.7334 -19.0664 -41.0664 -32.6328 -55 -40.6992c-60.1328 -35.9336 -123.566 -53.9004 -190.3 -53.9004h-4.40039c-74.7998 0 -144.833 22 -210.1 66
c-14.667 11 -29.7002 23.4668 -45.0996 37.4004c-22.7334 22 -38.5 40.333 -47.3008 55c-13.9326 19.7998 -25.666 40.333 -35.1992 61.5996c-7.33398 16.1338 -14.667 37.0332 -22 62.7002c-5.86719 27.8662 -8.80078 48.3994 -8.80078 61.5996
c0 5.86719 -0.366211 14.667 -1.09961 26.4004zM500.55 165.45c32.2666 0 61.2334 11.7334 86.9004 35.2002c21.2666 23.4658 31.8994 49.8662 31.8994 79.1992c0 31.5342 -12.4658 59.4004 -37.3994 83.6006c-16.8672 14.666 -35.9336 24.2002 -57.2002 28.5996
c-6.59961 1.4668 -13.9336 2.2002 -22 2.2002c-40.333 0 -73.7002 -16.1338 -100.1 -48.4004c-14.667 -20.5332 -22 -42.5332 -22 -66c0 -35.1992 15.7666 -65.6328 47.2998 -91.2998c10.2666 -6.59961 19.7998 -11.7334 28.5996 -15.3994
c14.667 -5.13379 29.334 -7.7002 44 -7.7002z" />
</svg>
