<?xml version="1.0" standalone="no"?>
<!DOCTYPE svg PUBLIC "-//W3C//DTD SVG 1.1//EN" "http://www.w3.org/Graphics/SVG/1.1/DTD/svg11.dtd" >
<svg xmlns="http://www.w3.org/2000/svg" xmlns:xlink="http://www.w3.org/1999/xlink" version="1.1" viewBox="-10 0 1010 1000">
   <path fill="currentColor"
d="M285.948 522.336c0 -8.63867 10.9492 -25.8525 10.9492 -33.5771c0 -10.1475 12.5889 -34.665 16.4238 -43.4307c21.5322 -52.1895 46.7148 -101.095 75.1816 -145.985c9.67285 -16.3682 18.7236 -41.4473 27.373 -57.6641
c2.91895 -5.83887 5.10938 -14.5986 5.10938 -19.3428c0 -5.10938 2.18945 -13.5039 5.10938 -18.9785c2.55469 -5.47461 5.83887 -17.5176 7.29883 -27.0068s4.01465 -18.248 6.20508 -19.3438c1.82422 -1.45898 3.28418 -6.2041 3.28418 -10.583
c0 -13.8691 14.2334 -54.7451 20.8027 -59.4893c3.28516 -2.55469 6.93457 -4.01465 7.66406 -2.91992c3.28516 3.28418 15.3291 39.7812 15.3291 46.3506c0 12.543 12.5205 35.7119 17.1533 46.7148c9.48926 22.6279 31.0215 63.5039 41.6055 79.5625
c5.83984 8.75879 10.584 16.7881 10.584 17.8828c0 2.25684 21.8975 29.6182 21.8975 32.4814c0 1.45996 2.91992 6.20508 6.93457 10.2197c9.48926 10.584 66.0586 94.5254 79.9268 118.978c11.2236 19.8047 33.9736 65.1855 43.0664 84.6719
c2.91992 5.10938 5.10938 12.7734 5.10938 16.4229c0 3.65039 1.82422 8.75977 4.01465 10.9492c5.38281 5.38281 8.12305 42.1113 8.12305 78.6348c0 35.2871 -2.55762 70.3838 -7.75781 76.8398c-1.8252 2.55469 -4.37988 10.9492 -5.47461 18.9785
c-5.10938 40.875 -45.6211 117.518 -81.0225 153.284c-7.29883 7.2998 -21.168 18.6133 -30.292 24.8174c-33.875 23.3125 -67.4785 34.9912 -101.08 34.9912c-33.7334 0 -67.4668 -11.7705 -101.475 -35.3564c-19.3428 -13.1387 -53.2842 -47.8096 -53.6494 -54.0137
c0 -2.19043 -3.28418 -6.93457 -6.93457 -10.2197c-14.2334 -12.7734 -44.8906 -83.9414 -51.8242 -118.978c-1.45996 -9.12402 -4.74512 -22.2627 -6.56934 -29.1973c-2.79395 -9.2041 -4.1084 -36.2461 -4.1084 -64.6592c0 -34.6807 1.95703 -71.4043 5.56836 -80.2314
c2.91895 -6.93457 5.47363 -16.4238 5.47363 -20.8027zM550.547 444.599c-17.2744 -4.75098 -40.3984 -7.00293 -64.5107 -7.00293c-37.0166 0 -76.3633 5.30762 -100.452 15.0322l-15.6934 6.2041v75.1826l22.9922 -7.2998
c19.4629 -6.26367 45.3711 -9.64844 66.6289 -9.64844c13.4219 0 24.9902 1.34961 31.9111 4.1748c13.7773 5.98926 22.8848 20.0908 22.8848 33.4277c0 2.91504 -0.435547 5.79395 -1.35156 8.54297c-5.47461 16.4229 -22.2627 23.3574 -63.8691 25.9121l-37.2256 2.18945
v69.3438l30.292 2.55469c36.1309 2.91992 51.8242 7.66406 61.6787 18.6133c7.03809 7.82031 10.457 17.585 10.457 27.3398c0 13.0068 -6.07812 25.9971 -17.7568 34.3389c-8.80469 6.52246 -14.6963 8.08984 -34.8604 8.08984
c-2.40039 0 -5.00488 -0.0214844 -7.83984 -0.0605469c-27.0078 0 -52.9199 -5.10938 -78.4678 -14.5986c-0.665039 -0.285156 -1.25 -0.453125 -1.7627 -0.453125c-2.48438 0 -3.26758 3.9375 -3.26758 17.5049c0 5.12598 0.112305 11.627 0.286133 19.8096l1.09473 39.416
l20.0732 7.29883c15.3281 5.47461 33.2119 7.66406 75.1826 8.75977c14.1025 0.538086 24.9971 0.853516 34.0342 0.853516c21.6006 0 32.583 -1.80469 51.3672 -6.69336c58.8115 -14.7021 91.6113 -41.54 91.6113 -108.586c0 -39.7588 -16.8203 -64.5742 -53.29 -80.1006
l-14.2334 -5.83887l14.2334 -6.93457c30.6973 -15.1797 45.1816 -37.8428 45.1816 -72.3115c0 -2.82324 -0.0976562 -5.72559 -0.291016 -8.70996c-3.28516 -50.3652 -30.6572 -81.3867 -85.0371 -96.3506z" />
</svg>
