<?xml version="1.0" standalone="no"?>
<!DOCTYPE svg PUBLIC "-//W3C//DTD SVG 1.1//EN" "http://www.w3.org/Graphics/SVG/1.1/DTD/svg11.dtd" >
<svg xmlns="http://www.w3.org/2000/svg" xmlns:xlink="http://www.w3.org/1999/xlink" version="1.1" viewBox="-10 0 1010 1000">
   <path fill="currentColor"
d="M285.948 522.336c0 -8.63867 10.9492 -25.8525 10.9492 -33.5771c0 -10.1475 12.5889 -34.665 16.4238 -43.4307c21.5322 -52.1895 46.7148 -101.095 75.1816 -145.985c9.67285 -16.3682 18.7236 -41.4473 27.373 -57.6641
c2.91895 -5.83887 5.10938 -14.5986 5.10938 -19.3428c0 -5.10938 2.18945 -13.5039 5.10938 -18.9785c2.55469 -5.47461 5.83887 -17.5176 7.29883 -27.0068s4.01465 -18.248 6.20508 -19.3438c1.82422 -1.45898 3.28418 -6.2041 3.28418 -10.583
c0 -13.8691 14.2334 -54.7451 20.8027 -59.4893c3.28516 -2.55469 6.93457 -4.01465 7.66406 -2.91992c3.28516 3.28418 15.3291 39.7812 15.3291 46.3506c0 12.543 12.5205 35.7119 17.1533 46.7148c9.48926 22.6279 31.0215 63.5039 41.6055 79.5625
c5.83984 8.75879 10.584 16.7881 10.584 17.8828c0 2.25684 21.8975 29.6182 21.8975 32.4814c0 1.45996 2.91992 6.20508 6.93457 10.2197c9.48926 10.584 66.0586 94.5254 79.9268 118.978c11.2236 19.8047 33.9736 65.1855 43.0664 84.6719
c2.91992 5.10938 5.10938 12.7734 5.10938 16.4229c0 3.65039 1.82422 8.75977 4.01465 10.9492c5.38281 5.38281 8.12305 42.1113 8.12305 78.6348c0 35.2871 -2.55762 70.3838 -7.75781 76.8398c-1.8252 2.55469 -4.37988 10.9492 -5.47461 18.9785
c-5.10938 40.875 -45.6211 117.518 -81.0225 153.284c-7.29883 7.2998 -21.168 18.6133 -30.292 24.8174c-33.875 23.3125 -67.4785 34.9912 -101.08 34.9912c-33.7334 0 -67.4668 -11.7705 -101.475 -35.3564c-19.3428 -13.1387 -53.2842 -47.8096 -53.6494 -54.0137
c0 -2.19043 -3.28418 -6.93457 -6.93457 -10.2197c-14.2334 -12.7734 -44.8906 -83.9414 -51.8242 -118.978c-1.45996 -9.12402 -4.74512 -22.2627 -6.56934 -29.1973c-2.79395 -9.2041 -4.1084 -36.2461 -4.1084 -64.6592c0 -34.6807 1.95703 -71.4043 5.56836 -80.2314
c2.91895 -6.93457 5.47363 -16.4238 5.47363 -20.8027zM613.686 551.897l-1.09473 -106.569l-90.1455 -1.09473c-19.0312 -0.166992 -34.0918 -0.276367 -46.041 -0.276367c-40.2998 0 -45.2217 1.24707 -47.7549 5.75098
c-1.8252 3.64941 -22.9932 52.1895 -47.4453 107.664l-44.1602 101.095v87.957h160.584v76.6416h116.788v-76.6416h43.7949v-87.5918h-43.7949zM481.204 528.175c0.729492 -2.18945 5.10938 -4.37891 9.12402 -4.37891c6.93457 0 7.2998 2.18945 7.2998 67.5176v67.5186
h-33.2119c-25.2979 0 -31.25 -0.508789 -31.25 -4.07812c0 -0.704102 0.231445 -1.52832 0.592773 -2.49121c2.91992 -7.29883 44.8906 -117.153 47.4453 -124.088z" />
</svg>
