<?xml version="1.0" standalone="no"?>
<!DOCTYPE svg PUBLIC "-//W3C//DTD SVG 1.1//EN" "http://www.w3.org/Graphics/SVG/1.1/DTD/svg11.dtd" >
<svg xmlns="http://www.w3.org/2000/svg" xmlns:xlink="http://www.w3.org/1999/xlink" version="1.1" viewBox="-10 0 1010 1000">
   <path fill="currentColor"
d="M285.948 522.336c0 -8.63867 10.9492 -25.8525 10.9492 -33.5771c0 -10.1475 12.5889 -34.665 16.4238 -43.4307c21.5322 -52.1895 46.7148 -101.095 75.1816 -145.985c9.67285 -16.3682 18.7236 -41.4473 27.373 -57.6641
c2.91895 -5.83887 5.10938 -14.5986 5.10938 -19.3428c0 -5.10938 2.18945 -13.5039 5.10938 -18.9785c2.55469 -5.47461 5.83887 -17.5176 7.29883 -27.0068s4.01465 -18.248 6.20508 -19.3438c1.82422 -1.45898 3.28418 -6.2041 3.28418 -10.583
c0 -13.8691 14.2334 -54.7451 20.8027 -59.4893c3.28516 -2.55469 6.93457 -4.01465 7.66406 -2.91992c3.28516 3.28418 15.3291 39.7812 15.3291 46.3506c0 12.543 12.5205 35.7119 17.1533 46.7148c9.48926 22.6279 31.0215 63.5039 41.6055 79.5625
c5.83984 8.75879 10.584 16.7881 10.584 17.8828c0 2.25684 21.8975 29.6182 21.8975 32.4814c0 1.45996 2.91992 6.20508 6.93457 10.2197c9.48926 10.584 66.0586 94.5254 79.9268 118.978c11.2236 19.8047 33.9736 65.1855 43.0664 84.6719
c2.91992 5.10938 5.10938 12.7734 5.10938 16.4229c0 3.65039 1.82422 8.75977 4.01465 10.9492c5.38281 5.38281 8.12305 42.1113 8.12305 78.6348c0 35.2871 -2.55762 70.3838 -7.75781 76.8398c-1.8252 2.55469 -4.37988 10.9492 -5.47461 18.9785
c-5.10938 40.875 -45.6211 117.518 -81.0225 153.284c-7.29883 7.2998 -21.168 18.6133 -30.292 24.8174c-33.875 23.3125 -67.4785 34.9912 -101.08 34.9912c-33.7334 0 -67.4668 -11.7705 -101.475 -35.3564c-19.3428 -13.1387 -53.2842 -47.8096 -53.6494 -54.0137
c0 -2.19043 -3.28418 -6.93457 -6.93457 -10.2197c-14.2334 -12.7734 -44.8906 -83.9414 -51.8242 -118.978c-1.45996 -9.12402 -4.74512 -22.2627 -6.56934 -29.1973c-2.79395 -9.2041 -4.1084 -36.2461 -4.1084 -64.6592c0 -34.6807 1.95703 -71.4043 5.56836 -80.2314
c2.91895 -6.93457 5.47363 -16.4238 5.47363 -20.8027zM610.401 482.189c-27.1992 -30.5283 -74.2998 -45.5156 -130.714 -45.5156c-15.8682 0 -32.4727 1.18555 -49.5781 3.54492c-23.4893 3.4541 -57.9502 9.91406 -57.9502 16.1455
c0 11.0996 9.5 66.3076 14.1543 80.9346c1.09473 3.65039 5.10938 3.28516 16.7881 -0.729492c20.5381 -7.34668 40.3125 -10.9512 57.4707 -10.9512c20.3447 0 37.0098 5.06641 46.9092 14.9658c8.0293 8.0293 9.12402 11.3135 6.93457 25.5479
c-4.74512 36.1309 -22.9932 58.3936 -96.7158 117.883l-54.0146 43.7959l6.56934 43.0654c3.65039 23.7227 6.56934 45.2559 6.93457 47.4453c0 3.64941 28.1025 4.74414 127.737 4.74414h127.737v-94.8906h-136.861l27.3721 -17.5176
c73.0771 -47.2998 113.204 -107.299 113.204 -160.816c0 -24.5273 -8.42871 -47.6934 -25.9775 -67.6514z" />
</svg>
