<?xml version="1.0" standalone="no"?>
<!DOCTYPE svg PUBLIC "-//W3C//DTD SVG 1.1//EN" "http://www.w3.org/Graphics/SVG/1.1/DTD/svg11.dtd" >
<svg xmlns="http://www.w3.org/2000/svg" xmlns:xlink="http://www.w3.org/1999/xlink" version="1.1" viewBox="-10 0 1010 1000">
   <path fill="currentColor"
d="M113.35 114.85h773.301v773.301h-771.101l-2.2002 -2.2002v-771.101zM474.15 315.05c0 -5.7002 -5.66699 -15.9004 -7.7002 -22c0 -0.733398 -0.366211 -2.2002 -1.10059 -4.39941c0 -2.93359 -0.366211 -8.06641 -1.09961 -15.4004
c0.733398 -1.4668 1.09961 -3.66602 1.09961 -6.59961v-3.30078c0 -0.733398 0.367188 -1.83301 1.10059 -3.2998c0 -5.30566 2.26953 -9.29395 3.2998 -16.5c7.29492 -14.5908 12.6025 -30.6914 24.2002 -57.2002c0.733398 -1.46582 1.09961 -2.56641 1.09961 -3.2998
c0.733398 -0.733398 1.4668 -1.83301 2.2002 -3.2998c-0.733398 0.733398 -1.4668 1.09961 -2.2002 1.09961c-1.21387 1.21387 -3.45215 2.35254 -4.39941 3.30078h-1.10059c-1.46582 0.733398 -4.0332 2.19922 -7.7002 4.39941
c-0.733398 1.4668 -1.83301 2.56641 -3.2998 3.2998c-0.733398 0 -1.46582 0.367188 -2.2002 1.10059l-16.5 13.2002v2.19922c-0.733398 0.734375 -1.83301 1.10059 -3.2998 1.10059c-5.13379 5.86621 -12.4658 14.2998 -22 25.2998
c-0.733398 0.733398 -1.09961 1.4668 -1.09961 2.2002c-0.733398 0.733398 -1.10059 1.46582 -1.10059 2.2002c-0.733398 0 -1.09961 0.366211 -1.09961 1.09961c-0.724609 0.724609 -3.2998 3.95605 -3.2998 5.5l-3.2998 3.2998
c-2.89648 6.5166 -11 20.9102 -17.6006 34.1006c-0.733398 3.66602 -1.83301 8.7998 -3.2998 15.3994v4.40039c4.40039 13.2002 10.6338 32.6338 18.7002 58.2998c5.13379 9.5332 15.7666 29.334 31.8994 59.4004c0.734375 0 1.10059 0.366211 1.10059 1.09961v2.2002
c1.46582 2.93359 4.39941 8.06641 8.7998 15.3994c0 1.4668 0.366211 2.2002 1.09961 2.2002c2.2002 5.13379 6.23438 12.4668 12.1006 22c0 0.733398 0.366211 1.10059 1.09961 1.10059c1.0957 -2.19141 3.83887 -14.8389 7.7002 -18.7002
c0 -6.14062 4.40039 -9.91699 4.40039 -15.4004c3.43555 -3.43652 3.76562 -7.2998 7.69922 -13.2002c0 -8.73242 15.8223 -21.7734 23.1006 -24.1992c0 -3.0459 8.93945 -5.54688 12.0996 -6.60059c3.66699 -2.2002 9.16699 -5.13379 16.5 -8.7998
c0.733398 0 1.4668 -0.366211 2.2002 -1.09961c1.4668 0 2.93359 -0.734375 4.40039 -2.2002c0 -4.02051 13.1992 -5.55176 13.1992 -11c1.4668 -0.733398 3.30078 -2.2002 5.5 -4.40039c0 -1.12402 5.34668 -6.44629 7.7002 -8.7998
c2.13574 0 4.40039 -2.25684 4.40039 -4.40039c0.733398 -1.46582 1.09961 -2.93359 1.09961 -4.39941c1.4668 -11.7334 7.7002 -29.4238 7.7002 -53.9004v-39.5996c-0.733398 -2.93359 -1.09961 -8.06641 -1.09961 -15.4004v-4.39941
c-0.734375 -2.2002 -1.10059 -5.13379 -1.10059 -8.80078c0 -0.733398 -0.366211 -1.46582 -1.09961 -2.19922c0 -0.734375 -0.366211 -1.4668 -1.10059 -2.2002v-1.10059h-1.09961c-0.920898 0.920898 -3.2998 5.16699 -3.2998 7.7002
c0 0.733398 -0.366211 2.2002 -1.10059 4.40039c-2.93359 7.33301 -6.96582 19.0664 -12.0996 35.2002c-0.733398 0 -1.09961 0.366211 -1.09961 1.09961c-2.12598 4.25195 -3.16211 7.00781 -4.40039 13.2002c-0.733398 0 -1.09961 0.366211 -1.09961 1.09961
c-0.734375 2.93359 -2.93359 8.06641 -6.60059 15.4004c0 1.54395 -2.58008 4.78027 -3.2998 5.5c-1.16016 3.47852 -3.68848 7.37988 -5.5 11c0 7.07715 -9.90039 10.4883 -9.90039 18.7002c-3.65039 3.65039 -12.5586 13.6582 -17.5996 18.6992
c-1.4668 0 -2.56641 0.734375 -3.2998 2.2002c-2.2002 0.733398 -4.7666 1.4668 -7.7002 2.2002h-9.90039c-0.733398 -0.733398 -1.46582 -1.09961 -2.19922 -1.09961l-7.7002 -7.7002c0 -1.43848 -1.8623 -3.2998 -3.2998 -3.2998
c-0.734375 -1.4668 -2.2002 -3.30078 -4.40039 -5.5c0 -5.69629 -6.87207 -11.626 -12.0996 -17.6006zM361.95 339.25c-2.96289 -5.18457 -8.1709 -15.2402 -13.2002 -25.2998c0 -0.733398 -0.733398 -1.83398 -2.2002 -3.2998
c-3.66602 -6.60059 -9.89941 -16.5 -18.7002 -29.7002v-1.10059l-1.09961 1.10059c0.733398 13.9336 2.56641 41.4336 5.5 82.5v20.8994l-4.40039 30.8008v3.2998c-0.733398 0.733398 -1.09961 1.83301 -1.09961 3.2998c-0.733398 1.4668 -1.09961 2.56641 -1.09961 3.2998
c-0.749023 2.24512 -4.40039 8.36621 -4.40039 12.1006c-0.733398 1.46582 -1.83398 3.2998 -3.2998 5.5c-2.14648 0 -3.44531 2.49023 -4.40039 4.39941c-0.733398 0 -1.83301 0.366211 -3.2998 1.10059h-4.40039c0 0.733398 -0.733398 1.09961 -2.19922 1.09961
l-1.10059 -1.09961h-3.2998c-1.4668 -0.734375 -2.56641 -1.10059 -3.2998 -1.10059c-1.4668 -1.46582 -4.03418 -3.2998 -7.7002 -5.5c-2.93359 -2.93359 -8.7998 -8.43359 -17.5996 -16.5c0 -0.733398 -0.367188 -1.83301 -1.10059 -3.2998l-2.2002 -2.2002
c-2.34375 -7.02832 -7.69922 -17.6504 -7.69922 -29.7002c0 -1.46582 -0.367188 -2.93359 -1.10059 -4.39941v-13.2002c0 -0.733398 -0.366211 -1.4668 -1.09961 -2.2002v-3.2998c-0.733398 -0.733398 -1.10059 -1.83398 -1.10059 -3.2998v-8.7998
c-0.733398 -0.734375 -1.09961 -2.2002 -1.09961 -4.40039c-0.733398 -7.33398 -1.4668 -19.0664 -2.2002 -35.2002l-1.09961 1.10059c0 1.46582 -0.733398 2.56641 -2.2002 3.2998c-2.2002 8.7998 -5.86621 22 -11 39.5996c0 1.2666 -2.2002 4.16992 -2.2002 5.5
c0 1.4668 -0.366211 2.93359 -1.09961 4.40039v3.2998c-0.733398 0.733398 -1.10059 1.83398 -1.10059 3.2998c-0.733398 0.733398 -1.09961 1.4668 -1.09961 2.2002c-0.733398 1.4668 -1.09961 2.56641 -1.09961 3.2998c-1.4668 5.86621 -3.30078 14.2998 -5.5 25.2998
c0 6.33496 -3.00488 14.2188 -5.5 24.2002c0 14.8154 6.11133 34.2227 14.2998 50.6006c0 4.68652 10.3262 10.3262 14.2998 14.2998c0 0.733398 0.733398 1.83301 2.2002 3.2998c0 0.733398 0.366211 1.4668 1.09961 2.2002c0 3.63965 8.56152 18.5811 13.2002 20.8994
c0.733398 0 1.83398 0.367188 3.2998 1.10059c0.733398 -0.733398 1.4668 -1.10059 2.2002 -1.10059c0.733398 -0.733398 1.83398 -1.46582 3.2998 -2.19922c3.66699 -5.13379 9.80273 -16.7598 22 -31.9004c9.07129 -11.2607 22.3213 -21.5215 40.7002 -40.7002
c4.40039 -2.93359 12.834 -8.7998 25.2998 -17.5996h4.40039c2.93359 -2.2002 7.33398 -5.13379 13.2002 -8.7998v-6.60059c-0.734375 -0.733398 -1.10059 -1.83301 -1.10059 -3.2998v-3.2998c-0.733398 -1.4668 -1.09961 -2.93359 -1.09961 -4.40039
c-2.86035 -12.3955 -8.47168 -41.4473 -15.4004 -60.5c-0.733398 -0.733398 -1.09961 -1.83301 -1.09961 -3.2998zM715.05 459.15c0 -1.89746 -6.56738 -5.4375 -7.7002 -7.7002c-0.733398 0 -1.09961 -0.733398 -1.09961 -2.2002
c-0.733398 -0.733398 -1.46582 -1.83398 -2.2002 -3.2998c0 -1.4668 -0.733398 -4.03418 -2.2002 -7.7002v-18.7002c0 -5.86621 0.734375 -18.333 2.2002 -37.3994v-8.80078c0 -0.733398 -0.366211 -2.19922 -1.09961 -4.39941
c0 -0.733398 -0.366211 -1.4668 -1.10059 -2.2002c-3.19727 3.19824 -7.64453 6.57129 -12.0996 8.7998c0 0.733398 -0.733398 1.4668 -2.2002 2.2002c0 0.733398 -0.733398 1.83398 -2.2002 3.2998c-0.733398 0 -1.09961 0.733398 -1.09961 2.2002
c-4.40039 6.59961 -10.6338 16.5 -18.7002 29.7002c-1.46582 1.46582 -2.2002 2.56641 -2.2002 3.2998c-0.733398 0.733398 -1.46582 1.83398 -2.19922 3.2998l-7.7002 15.4004c-0.733398 1.46582 -1.10059 2.56641 -1.10059 3.2998s-0.733398 2.2002 -2.19922 4.40039
c0 0.733398 -0.367188 1.83301 -1.10059 3.2998v4.39941c-0.733398 0.734375 -1.09961 2.2002 -1.09961 4.40039v8.7998c0 10.582 9.92383 25.7295 14.2998 37.4004c0 0.733398 0.366211 2.2002 1.09961 4.39941c0 1.4668 0.367188 2.56641 1.10059 3.30078
c0 2.19922 0.366211 5.13281 1.09961 8.7998c0 28.7793 -8.33594 33.1328 -22 61.5996l-2.2002 2.2002c-2.93359 5.86621 -7.33301 14.2998 -13.1992 25.2998c0 1.4668 -0.734375 4.03418 -2.2002 7.7002v3.2998h1.09961c2.2002 0.733398 7.7002 2.2002 16.5 4.40039
c0.733398 0 1.83398 0.366211 3.2998 1.09961c1.4668 0 2.56641 0.366211 3.30078 1.10059c2.84375 0 6.00781 4.9082 7.69922 6.59961c0 2.09277 3.18359 4.2832 4.40039 5.5c6.12988 0 10.042 9.58008 17.5996 12.0996c0 0.734375 0.734375 1.10059 2.2002 1.10059
c3.84473 3.84473 7.97168 3.84863 17.6006 7.7002c0.733398 0 1.83301 0.366211 3.2998 1.09961h2.2002c-5.64648 -5.64648 -11.0645 -13.5957 -13.2002 -26.4004c0 -2.93359 -0.733398 -9.89941 -2.2002 -20.8994v-1.10059
c3.76855 -15.0703 5.02344 -34.085 12.0996 -50.5996c0 -4.15918 2.35254 -5.88086 4.40039 -11c2.06445 0 4.56445 -5.82812 5.5 -7.7002c3.11816 -1.55957 3.48145 -2.83887 6.59961 -4.39941c5.13379 -0.734375 12.834 -2.56641 23.1006 -5.5h4.39941
c5.17383 -1.29492 19.082 -2.58203 23.1006 -6.60059c4.70801 -1.88281 14.667 -7.33496 22 -11c5.19727 -5.19727 8.40332 -7.21387 16.5 -14.2998c0 -0.733398 0.366211 -1.83398 1.09961 -3.2998c1.4668 0 2.56641 -0.733398 3.2998 -2.2002
c0 -2.09277 3.18359 -4.2832 4.40039 -5.5c0 -0.733398 0.366211 -1.4668 1.09961 -2.2002c0 -0.733398 0.734375 -1.83301 2.2002 -3.2998c0 -0.733398 0.366211 -1.83398 1.10059 -3.2998c0 -3.19043 4.39941 -6.36035 4.39941 -9.90039
c0 -1.46582 0.366211 -2.93359 1.10059 -4.39941c0 -0.734375 0.366211 -2.2002 1.09961 -4.40039c0.733398 0 1.09961 -1.09961 1.09961 -3.2998s0.367188 -5.13379 1.10059 -8.7998v-18.7002c-0.733398 -1.4668 -1.4668 -5.5 -2.2002 -12.1006
c0 -1.62207 -2.2002 -5.32324 -2.2002 -7.69922c-0.924805 -1.84961 -3.2998 -7.84668 -3.2998 -11c-1.46582 -2.93359 -3.2998 -7.33398 -5.5 -13.2002c0 -4.29199 -4.40039 -6.3457 -4.40039 -9.90039l-1.09961 1.10059v4.39941
c-0.806641 1.61133 -3.2998 9.18262 -3.2998 13.2002c-0.733398 2.2002 -2.2002 5.5 -4.40039 9.90039v3.2998c-0.733398 0.733398 -1.46582 2.2002 -2.2002 4.39941c-0.733398 0 -1.09961 1.10059 -1.09961 3.30078c-4.20117 4.20117 -8.91602 14.0869 -13.2002 19.7998
c-0.733398 1.46582 -1.09961 2.56641 -1.09961 3.2998c-2.56738 1.71094 -6.59473 6.59473 -9.90039 9.90039c-7.32715 5.49414 -17.9766 12.251 -28.5996 16.5h-13.2002c-3.36523 0 -8.29004 -3.0459 -11 -4.40039h-3.2998c-1.4668 0 -2.93359 -0.366211 -4.40039 -1.09961
zM559.95 432.75c0 -5.48926 4.97363 -10.7676 9.89941 -19.7998v-2.2002c1.4668 -2.2002 3.30078 -5.13379 5.5 -8.7998c0 -1.4668 0.734375 -2.93359 2.2002 -4.40039l6.60059 -16.5h-1.10059c-2.93359 2.2002 -8.7998 5.86621 -17.5996 11
c-0.733398 0 -1.83398 0.733398 -3.2998 2.2002c-2.76953 0 -18.7002 12.6328 -18.7002 18.7002c-1.4668 2.2002 -3.2998 5.13379 -5.5 8.7998c0 0.733398 -0.733398 1.83398 -2.2002 3.2998c0 1.3125 -1.59766 5.89355 -2.2002 7.7002
c0 0.733398 -0.366211 1.4668 -1.09961 2.2002c0 2.93359 -0.733398 8.7998 -2.2002 17.5996v13.2002c0 2.93359 0.366211 8.7998 1.09961 17.5996l2.2002 4.40039c1.4668 10.2666 4.40039 26.0332 8.7998 47.2998c0 0.733398 0.367188 2.2002 1.10059 4.40039
c1.23047 0 2.51465 3.2998 4.39941 3.2998c3.4209 0 4.96582 -4.96484 7.7002 -7.7002c0 -6.64844 5.5 -12.0518 5.5 -18.7002c0 -2.69727 2.22168 -4.46387 3.2998 -7.69922c0.734375 -3.66699 2.56641 -9.53418 5.5 -17.6006v-3.2998
c2.2002 -0.733398 4.7666 -1.4668 7.7002 -2.2002c0 -0.733398 0.733398 -1.46582 2.2002 -2.2002c0.733398 0 2.2002 -0.366211 4.40039 -1.09961c2.19922 0 3.66602 0.366211 4.39941 1.09961c2.2002 0 4.7666 0.734375 7.7002 2.2002
c1.4668 0 2.93359 0.366211 4.40039 1.10059c2.7832 0 5.2373 -1.67871 6.59961 -4.40039c0.509766 0 9.90039 -15.6855 9.90039 -23.0996c0.733398 -1.4668 1.09961 -2.56641 1.09961 -3.30078c0 -3.52539 1.94141 -4.98242 3.2998 -7.69922
c0 -0.734375 0.366211 -2.2002 1.10059 -4.40039v-3.2998c0.733398 -0.733398 1.09961 -1.83398 1.09961 -3.2998v-7.7002h-1.09961c-9.39648 9.39551 -20.9414 15.8574 -36.3008 22h-13.1992c-5.85254 0 -14.3008 -8.31934 -14.3008 -15.4004
c0 -1.46582 0.367188 -2.56641 1.10059 -3.2998zM668.85 675.85c0 -2.49902 -2.69336 -3.46387 -5.5 -4.39941c0 -0.733398 -0.366211 -1.4668 -1.09961 -2.2002c-3.66602 -2.93359 -10.6338 -9.16602 -20.9004 -18.7002c-0.733398 0 -1.46582 -0.366211 -2.19922 -1.09961
c-3.66699 -3.66699 -11.7344 -11 -24.2002 -22c-0.733398 0 -1.4668 -0.366211 -2.2002 -1.10059c-22.5391 -22.5391 -33.7617 -29.4121 -70.4004 -60.5c0 -0.733398 -0.733398 -1.46582 -2.19922 -2.19922c-2.93359 -2.93359 -9.53418 -9.16699 -19.8008 -18.7002
c-0.733398 0 -1.83301 -0.366211 -3.2998 -1.10059c-3.66602 -3.66602 -11.3662 -11 -23.0996 -22c-0.733398 0 -1.83398 -0.366211 -3.2998 -1.09961c-2.67773 -2.67676 -12.2246 -10.0244 -22 -19.7998c-15.3574 -12.5654 -52.6006 -45.5898 -79.2002 -68.2002
c-20.791 20.79 -30.6006 36.1006 -52.7998 58.2998v3.2998c-30.5264 30.5264 -55.25 61.6318 -96.8008 107.801c0.734375 1.46582 1.4668 2.19922 2.2002 2.19922c24.2002 21.2666 60.5 52.8008 108.9 94.6006c0 0.733398 0.733398 1.46582 2.2002 2.2002
c3.66602 2.93359 10.6338 9.16602 20.8994 18.6992c3.76562 0 9.6875 7.4873 15.4004 13.2002c5.86621 5.13379 17.2334 15.0342 34.0996 29.7002c0.734375 0 1.4668 0.366211 2.2002 1.09961c8.06641 6.60059 23.834 20.167 47.2998 40.7002
c0 0.734375 0.366211 1.4668 1.10059 2.2002c3.66602 2.93359 10.6328 9.16602 20.8994 18.7002c0.733398 0 1.83398 0.366211 3.2998 1.09961l11 11c4.70996 0 5.76465 8.7998 11 8.7998c1.4668 -2.19922 4.03418 -5.13281 7.7002 -8.7998
c4.41309 -8.82617 15.9189 -18.7666 33 -37.3994v-2.2002c18.334 -20.5342 54.2666 -61.2334 107.8 -122.101z" />
</svg>
