<?xml version="1.0" standalone="no"?>
<!DOCTYPE svg PUBLIC "-//W3C//DTD SVG 1.1//EN" "http://www.w3.org/Graphics/SVG/1.1/DTD/svg11.dtd" >
<svg xmlns="http://www.w3.org/2000/svg" xmlns:xlink="http://www.w3.org/1999/xlink" version="1.1" viewBox="-10 0 1010 1000">
   <path fill="currentColor"
d="M113.35 114.85h773.301v773.301h-773.301v-91.3008v-488.399v-193.601zM128.75 500.95v2.2002c0 60.1328 14.667 118.066 44 173.8c10.2666 20.5332 23.833 41.0664 40.7002 61.5996c21.2666 24.2002 38.8662 41.4336 52.7998 51.7002
c16.1338 12.4668 30.7998 22.7334 44 30.7998c60.1338 35.2002 121.733 52.7998 184.8 52.7998h9.90039c64.5332 0 128.333 -18.6992 191.399 -56.0996c15.4004 -9.5332 30.4336 -20.5332 45.1006 -33c17.5996 -16.1338 32.2666 -30.7998 44 -44
c57.9336 -71.8662 86.8994 -151.8 86.8994 -239.8c0 -83.6006 -27.1328 -160.233 -81.3994 -229.9c-6.60059 -10.2666 -20.9004 -25.666 -42.9004 -46.2002c-22.7334 -19.0664 -41.0664 -32.6328 -55 -40.6992c-60.1328 -35.9336 -123.566 -53.9004 -190.3 -53.9004
h-4.40039c-74.7998 0 -144.833 22 -210.1 66c-14.667 11 -29.7002 23.4668 -45.0996 37.4004c-22.7334 22 -38.5 40.333 -47.3008 55c-13.9326 19.7998 -25.666 40.333 -35.1992 61.5996c-7.33398 16.1338 -14.667 37.0332 -22 62.7002
c-5.86719 27.8662 -8.80078 48.3994 -8.80078 61.5996c0 5.86719 -0.366211 14.667 -1.09961 26.4004zM496.15 225.95h6.59961c41.0664 0 81.7666 9.89941 122.1 29.7002v1.09961h-1.09961c0 28.5996 -0.366211 86.167 -1.09961 172.7h50.5996l-110 110h-1.09961
c-17.6006 -18.334 -53.9004 -55 -108.9 -110h50.5996v-92.4004h-4.39941c-46.2002 0 -86.9004 17.2334 -122.101 51.7002c-15.3994 18.333 -26.0332 35.2002 -31.8994 50.5996c-5.86719 12.4668 -9.90039 28.6006 -12.1006 48.4004h-111.1
c0 -20.5332 5.5 -47.2998 16.5 -80.2998c24.2002 -62.334 64.167 -110.367 119.9 -144.101c44.7334 -24.9326 90.5664 -37.3994 137.5 -37.3994zM436.75 463.55h1.09961l110 110h-51.6992v93.5h3.2998c35.2002 0 67.833 -10.6328 97.8994 -31.8994
c29.334 -22 49.5 -50.9668 60.5 -86.9004c0.733398 -3.66699 2.2002 -9.5332 4.40039 -17.5996h112.2c-2.2002 18.333 -5.13379 33.3662 -8.7998 45.0996c-5.13379 18.333 -11.7334 35.5664 -19.8008 51.7002c-2.19922 3.66602 -5.5 9.5332 -9.89941 17.5996
c-8.06641 12.4668 -18.7002 26.7666 -31.9004 42.9004c-16.8662 17.5996 -29.7002 29.333 -38.5 35.2002c-13.9336 10.2666 -30.7998 20.166 -50.5996 29.6992c-38.1338 16.1338 -75.167 24.2002 -111.101 24.2002h-9.89941c-38.8672 0 -78.1006 -9.16602 -117.7 -27.5v-176
h-49.5z" />
</svg>
