<?xml version="1.0" standalone="no"?>
<!DOCTYPE svg PUBLIC "-//W3C//DTD SVG 1.1//EN" "http://www.w3.org/Graphics/SVG/1.1/DTD/svg11.dtd" >
<svg xmlns="http://www.w3.org/2000/svg" xmlns:xlink="http://www.w3.org/1999/xlink" version="1.1" viewBox="-10 0 1010 1000">
   <path fill="currentColor"
d="M712.5 682c-3.91113 0 -13.1074 -3.18457 -18 -4c-4.66699 5.33301 -14.333 17 -29 35c-9.45898 8.10742 -28.7734 25.0459 -39 33l9 30c0 1.33301 1.5 7.16699 4.5 17.5s9.83301 34.167 20.5 71.5c-14.667 -15.333 -43.667 -45.333 -87 -90
c-42.9336 15.333 -68.6006 23 -77 23c-1.33301 0.666992 -3 1 -5 1c-4.66699 0 -8.33301 0.666992 -11 2l-2.5 10c-2.32617 9.30566 -5.22754 23.5908 -7.5 27c0 17.0957 -12.6875 49.6113 -15 61.752c-0.666992 3.49902 -2 9.58105 -4 18.248
c-0.666992 0 -1.33301 0.666992 -2 2l-5 -25c-2.09375 -4.1875 -2.38281 -9.14746 -4 -14l-12 -51c-2 -3 -3 -6 -3 -9c0 -8.15527 -2.92871 -12.7871 -5 -19c-5.33301 -2.66699 -13.333 -4 -24 -4c-10.667 -3.33301 -21.333 -6.33301 -32 -9s-16.667 -3.66699 -18 -3
c-48.1016 49.7598 -114.605 121.04 -160 168c5.06543 -15.1953 4.74512 -18.2363 8.5 -29.5l5.5 -16.5c0.666992 -1.33301 1.5 -4 2.5 -8l4 -16c3.97559 -15.9004 5.1582 -13.3564 9.5 -30l6 -23c0 -0.666992 4.67871 -10.6006 10 -31l6 -23
c0 -1.1582 7.72559 -27.2646 8 -28.5c1.11133 -5 3.11133 -11.833 6 -20.5c-6 -6.66699 -18.667 -19.333 -38 -38c-2.66699 -8 -6 -12 -10 -12c-29.333 8 -55.833 15.333 -79.5 22s-35.833 10 -36.5 10c37.333 -36 66.333 -64.333 87 -85c-4 -8 -6 -13.667 -6 -17
c-7.92969 -18.5039 -13.0615 -36.3994 -16.4316 -58.3066c-1.71191 -11.1289 -3.56836 -17.6934 -5.56836 -19.6934c-1.33301 0 -3 -0.333008 -5 -1l-46 -11c-2 0 -5.28613 -0.666992 -9.85742 -2c-6.1709 -1.7998 -51.0928 -13.3164 -56.1426 -15l43 -10
c1.33301 -1.33301 3.33301 -2.16699 6 -2.5c28.4443 -3.55566 49.4443 -8.72168 63 -15.5c4.33301 0 7 -1 8 -3l2 -12c1.89258 -11.3545 5.25977 -30.7793 9 -42l4 -14c4 -8 7.33301 -16 10 -24c-5.33301 -5.33301 -13 -13.333 -23 -24
c-1.56836 0 -45.3926 -45.1143 -56.5 -54c-1.66699 -1.33301 -4.83301 -4.33301 -9.5 -9c12.1299 4.54883 38.2939 9.34082 49.375 13.917c2.5 1.03125 25.375 7.72559 68.625 20.083c0.666992 0 2 -0.666992 4 -2c19.167 -23 30.958 -36.417 35.375 -40.25
s6.95801 -6.75 7.625 -8.75c-27.6641 -88.5264 -29.4443 -97.7158 -66 -224c26.667 27.333 60.167 62.167 100.5 104.5s61.167 63.5 62.5 63.5c9.33301 -2.66699 23 -6.66699 41 -12l15 -2c3.33301 -0.666992 8.66699 -1.33301 16 -2c0 -8 2.16699 -18.833 6.5 -32.5
s6.5 -21.5 6.5 -23.5c2.66699 -2.66699 4 -6 4 -10c0 -13.3271 4.93848 -21.75 8.60938 -36.75c2.40625 -9.83301 3.87012 -15.25 4.39062 -16.25c4.54102 9.08301 3.70996 15.6514 7.16699 26.833c5.88867 19.0527 8.83301 32.1084 8.83301 39.167c2 2 3 4.16699 3 6.5
c0 5.66699 1 9.5 3 11.5c0 1.7334 2.66699 12.7334 8 33c0.666992 1.33301 2.66699 2.16699 6 2.5c17.5 1.75 29.5 4.25 36 7.5h5c0.666992 0.666992 2.33301 1 5 1c0.666992 1.33301 5 2.66699 13 4c3.51074 3.51074 22.502 11 29 11c2 -2 5 -4.66699 9 -8
c2.31152 -4.62305 37.1816 -39.3799 40.5 -43c3.66699 -4 10.333 -10.833 20 -20.5l16.5 -16.5c-1.33301 3.33301 -2.66699 7.66699 -4 13l-2.5 10c-1.63965 6.55859 -1.06738 9.56738 -4.5 13c0 2.17773 -7.66699 29.8447 -23 83
c7.75781 3.87891 12.9043 10.7324 22.5 18.5c10.3604 8.38672 17.2002 14.7334 20.5195 19.04c15.6553 20.3066 24.6484 30.46 26.9805 30.46c0 0.333008 39 -11 117 -34c-52.333 52.333 -80 79 -83 80c-0.666992 1.33301 -2.33301 3.66699 -5 7c2 5.33301 8.33301 24 19 56
c0 7.55566 1.66699 11.8887 5 13c4.5957 0 14.0234 4.05664 16.833 4.5c7.17773 1.13379 12.5664 2.2998 16.167 3.5l79 19c31.3057 6.26074 108 27 108 27c-8.96094 0 -18.3779 4.72559 -25.875 5.625c-5.87988 0.705078 -13.5635 4.42383 -17.625 4.875
c-6 0.666992 -11.5 1.83301 -16.5 3.5l-160 39c-2.89258 0 -11.9863 37.6338 -13 40c-2 4.66699 -5.66699 15 -11 31c5.25488 6.30566 22.7617 21.6064 28 27.5c4.87793 5.4873 8.91797 10.459 15 13.5c0.666992 1.33301 2.33301 3.66699 5 7
c1.05176 0 14.3848 12.333 40 37h-1zM425.5 794c2.43555 0 24 88.4248 24 96c4 -15.333 12 -46.667 24 -94c2.17188 -4.34473 37.6846 -9 44 -9c12.667 -4.66699 31.667 -11.333 57 -20c2.03027 0 13.8711 11.333 35.5225 34s33.1445 34.667 34.4775 36
c0 -0.666992 -1.5 -6.16699 -4.5 -16.5c-2.79785 -9.63574 -19.5127 -69.5371 -22.5 -78.5c7.33301 -5.33301 18 -13.667 32 -25c4.96191 -5.51367 42 -44.6016 42 -48c16 4 47.667 12.667 95 26c-6.94434 -7.93652 -29.9219 -28.9219 -37 -36l-28 -28
c-0.666992 -0.666992 -2 -1.33301 -4 -2c0 -1.33301 -0.333008 -2.33301 -1 -3c5.16992 -15.5107 18.4033 -48.2197 21 -62.5c1.75781 -9.66699 3.4248 -14.5 5 -14.5c42.667 -10.667 85.5 -21.333 128.5 -32s65.5 -16.333 67.5 -17c-32.667 -8 -98.333 -23.667 -197 -47
c-1.56543 -1.56543 -5.89844 -17.5654 -13 -48c-6.95312 -13.9062 -8.34375 -19.0303 -12 -30l69 -66l1 -2c-15.333 4.66699 -46.333 13.667 -93 27c-5.9082 -2.9541 -9.91113 -11.042 -16 -18c-10.8848 -12.4395 -25.1758 -30.2676 -34.6406 -37.1719
c-16.2227 -11.835 -24.6758 -18.7783 -25.3594 -20.8281c6 -20 15 -50.667 27 -92h-2l-65 69c-2.57129 0 -20.5713 -6 -54 -18l-13 -3c-10.8525 -1.20605 -26.3975 -5 -36 -5l-24 -96c0 0.666992 -1.16699 5.16699 -3.5 13.5s-9.16699 35.167 -20.5 80.5
c-0.666992 1.33301 -2 2 -4 2l-31 5c-5.07031 0 -42.8301 13 -46 13c-24 -24.667 -72 -74.333 -144 -149c0.666992 0.666992 2.83301 7.5 6.5 20.5c27.0244 95.8135 28.8721 100.086 42 144.625c3.65234 12.3936 2.43262 12.7402 6 19.875c3 6 4.5 11 4.5 15
c-26.2217 26.2217 -41.2773 42.1113 -45.167 47.667c-3.88867 5.55566 -6.83301 8.33301 -8.83301 8.33301c-20 -6 -50.667 -15 -92 -27l70 68c-3.33301 10 -10 29.667 -20 59c-2.66699 21.333 -5.33301 36 -8 44c-21.333 5.33301 -53 13.333 -95 24
c15.333 3.33301 47 11 95 23c1.2627 2.52637 3.92969 17.5264 8 45c3.33301 9.33301 10 28.333 20 57c-11.333 10.667 -25.667 24.5 -43 41.5s-26.667 25.833 -28 26.5c16 -4 48 -12.667 96 -26c6 6.66699 18.333 21 37 43c2.66699 2 7.66699 6.66699 15 14
c-9.66016 31.5576 -49.6338 171.9 -59 200c0.563477 -0.615234 48.2305 -50.2822 143 -149v-2c29.3018 8.79102 55.9688 15.124 80 19zM357.5 238c16.5811 -3.31641 47.8633 -13 60.0625 -13h3.9375v4l-9 33c0 2.66699 -1 4 -3 4c-13.333 3.33301 -20.5 5 -21.5 5
c-5.28125 0 -30.5 -33 -30.5 -33zM489.5 266l-10 -38c0 -0.666992 -0.333008 -1.66699 -1 -3c41 6.83301 65.25 12.208 72.75 16.125s12.25 5.875 14.25 5.875c-2 2 -4.66699 4.33301 -8 7c0 2.27246 -21.7598 23.3799 -23 24c-9.42871 -3.42871 -24.4287 -7.42871 -45 -12z
M370.5 243c1.05566 0 7.38867 6.33301 19 19h4c1.62598 -0.8125 11.7998 -2.7998 13 -4l6 -21v-3l-40 8c-0.666992 0 -1.33301 0.333008 -2 1zM488.5 234c1.33301 4 3.33301 12 6 24c10.667 5.33301 18.833 8.16699 24.5 8.5s10.5 1.16699 14.5 2.5
c2.66699 -3.33301 8.66699 -9.66699 18 -19c-5.33301 -1.33301 -16 -5 -32 -11c-14.0674 0 -16.6367 -3.69434 -31 -5zM613.5 275c6.77051 6.77051 39.3486 34.1309 44.5 41c5.9209 7.89551 11.4062 14.9062 18.5 22l-40 12c-1.33301 0 -3.33301 -1.66699 -6 -5
s-6.83301 -7.83301 -12.5 -13.5l-13.5 -13.5c-1.33301 -0.666992 -2.33301 -1.66699 -3 -3c2.66699 -8.66699 6.66699 -22 12 -40zM617.5 289c-3.99902 7.99902 -2.78223 15.3047 -6.5 21.5c-1 1.66699 -1.5 2.83301 -1.5 3.5h1c5.33301 5.33301 9 8.33301 11 9
c2.22656 2.96875 16 16.3857 16 19c4.66699 -1.33301 13 -3.66699 25 -7c-0.666992 -1.33301 -1 -2.66699 -1 -4c-5.61621 -2.80859 -9.40625 -10.4062 -14.5 -15.5l-8.5 -8.5c-7.57715 -7.57715 -11.8594 -10.165 -21 -18zM265.5 294c0 2.45801 11.4707 39.9414 12 41
c-1 3 -5 8 -12 15c-9.81348 0 -17.376 -4.91309 -41 -12c12.5713 -15.7139 19.8809 -24.3096 21.9287 -25.7861c2.04785 -1.47559 3.4043 -3.21387 4.07129 -5.21387c6.00098 -3 7.32715 -6.28613 15 -13zM262.5 342c2.66699 -2.66699 5 -5.33301 7 -8l-8 -24v-2
c-0.666992 0.666992 -1.66699 1.33301 -3 2c0 2 -7 10 -21 24zM196.5 387c4.66699 4.66699 14.333 14 29 28c0 0.666992 0.333008 1.66699 1 3c-2.66699 9.33301 -6.66699 24 -12 44c-1.33301 1.33301 -15 5 -41 11c10.3086 -61.8516 11.3477 -55.7051 23 -86zM704.5 387
c3.7373 3.7373 10.2559 27.8936 12 34l8 28c-6.84668 -2.28223 -43.2041 -8.02246 -44.5 -14.5c-0.988281 -4.94141 -3.4668 -14.4668 -6.5 -17.5c3.42188 -3.42188 7.46777 -5.40332 9 -10c2 -0.666992 4 -2 6 -4zM208.5 457l6 -30l3 -9
c-2.66699 -2.66699 -9 -8.33301 -19 -17c-1.33301 5.33301 -4.66699 16 -10 32c-0.648438 4.54102 -6 26.0576 -6 30c4.66699 -1.33301 13.333 -3.33301 26 -6zM701.5 401c-2.0127 2.0127 -19.5088 16.7275 -18 20.5c1.38281 3.45605 2.52539 9.02539 5 11.5
c10.8379 0 14.0586 3.63184 25 5c-4.33301 -17.333 -8.33301 -29.667 -12 -37zM173.5 530c26.2959 5.25879 39.9629 8.92578 41 11c2.25098 9.00293 11 34.2324 11 42.5v3.5c-6.66699 6.66699 -16.333 16 -29 28c-11.0898 -22.1807 -17.4277 -54.3516 -23 -85zM182.5 539
c0 18.2393 11.8252 52.6504 17 63l15 -15c4.33301 -2.16699 4.33301 -6.5 0 -13c0 -2.88965 -6.08789 -27.0439 -8 -28c-5.33301 -2 -13.333 -4.33301 -24 -7zM723.5 553l-6 28c-1.16699 4.66699 -5.5 16 -13 34l-8 -8c-1.33301 -0.666992 -3.33301 -2.33301 -6 -5
s-8.33301 -8 -17 -16c1.67578 -4.18945 6.82031 -22.6064 11 -24zM713.5 563c-1.72656 0 -26.3457 7.3457 -27 8c-0.666992 3.33301 -2 7.66699 -4 13c0.666992 0 1.83301 0.833008 3.5 2.5l15.5 15.5c8 -18.667 12 -31.667 12 -39zM224.5 664
c7.5 -1.66699 21.167 -5.33301 41 -11c3.91992 1.95996 10.6807 10.5215 13 14c-2.22168 6.66602 -10.9297 36.7891 -13 43l-18 -18c-2.45508 -2.45508 -6.5459 -8.5459 -9 -11c-8.3125 -8.3125 -6.98242 -9.98242 -14 -17zM613.5 726c0 3.70898 -12 -40 -12 -40h1l33 -33
c24.167 4.83301 37.833 8.83301 41 12c-7.12305 7.91504 -22.8867 28.165 -30 33.5c-3.4668 2.60059 -5.7998 5.10059 -7 7.5c-6 4.66699 -14.667 11.333 -26 20zM269.5 670c0 -3.33301 -2.66699 -6.33301 -8 -9c-4 1.33301 -12 3.66699 -24 7c2 4 4.33301 6.66699 7 8
c0 3.58691 14.7295 16.7295 17 19c1.33301 -4 4 -12.333 8 -25zM663.5 669c-0.833008 -0.833008 -9.5 -3.5 -26 -8c-15.125 18.9062 -15.9463 18.96 -28 28c0.969727 0 2.54492 4.16699 4.72754 12.5l3.27246 12.5l20 -17l7 -7c0.666992 -1.33301 2.33301 -3.16699 5 -5.5
s7.33301 -7.5 14 -15.5zM564.5 755c-14.7402 4.60645 -65.623 22 -75.6543 22c-4.89746 0 -8.0127 0.333008 -9.3457 1h-1c2 -6.66699 5.33301 -19.667 10 -39c0 0 33.1943 -9.73145 46 -14c1.33301 0.666992 2.33301 1 3 1c10.667 12 19.667 21.667 27 29zM377.5 742
c3.19434 0 8.28027 -8.28027 10 -10c4 0.666992 11.667 2.33301 23 5c1.8291 0.915039 5.49609 14.5811 11 41c-34.2461 -4.28125 -35.7793 -7.16113 -64 -15l9 -9c2.66699 -2.66699 6.33301 -6.66699 11 -12zM532.5 734l-22 5.5c-9.33301 2.33301 -14.667 4.16699 -16 5.5
l-6 24c10.3398 -2.82031 60.2168 -14.4326 62 -18c-4 -4 -10 -9.66699 -18 -17zM381.5 749l-9 11c1.23242 0.273438 40 9.00586 40 8c-3 -12 -5.66699 -20.333 -8 -25c-3.33301 -0.666992 -8 -1.33301 -14 -2c-1.33301 1.33301 -5.10742 3.24316 -9 8z" />
</svg>
