<?xml version="1.0" standalone="no"?>
<!DOCTYPE svg PUBLIC "-//W3C//DTD SVG 1.1//EN" "http://www.w3.org/Graphics/SVG/1.1/DTD/svg11.dtd" >
<svg xmlns="http://www.w3.org/2000/svg" xmlns:xlink="http://www.w3.org/1999/xlink" version="1.1" viewBox="-10 0 1010 1000">
   <path fill="currentColor"
d="M301.5 797c14 -12.667 24.667 -27.667 32 -45s11 -36.667 11 -58v-395c0 -21.333 -3.66699 -40.667 -11 -58c-7.33301 -16.667 -18 -31.333 -32 -44h31c54.667 0 112.333 -1 173 -3c13.333 -0.666992 21.667 -1 25 -1c84.667 0 148.667 25.667 192 77s65 127 65 227
c0 98.667 -21.667 173.667 -65 225c-43.333 52 -105.667 78 -187 78c-8.66699 0 -29.667 -1 -63 -3c-33.333 -1.33301 -62.333 -2 -87 -2c-5.33301 0 -17.333 0.333008 -36 1c-19.333 0 -35.333 0.333008 -48 1zM424.5 305v384c0 17.333 5.66699 29.333 17 36
c10.667 6 33.333 9 68 9c69.333 0 119 -18.333 149 -55c30.667 -37.333 46 -98 46 -182c0 -82.667 -15 -143.333 -45 -182c-30 -38 -77.333 -57 -142 -57c-32.667 0 -56.333 3.33301 -71 10c-14.667 7.33301 -22 19.667 -22 37zM498.5 37c129.333 0 238.333 44.667 327 134
s133 197.667 133 325c0 126.667 -44.667 234.667 -134 324s-198 134 -326 134c-126 0 -233.667 -44.667 -323 -134s-134 -197.333 -134 -324c0 -127.333 44.333 -235.667 133 -325s196.667 -134 324 -134zM500.5 111c-106.667 0 -197.333 37.333 -272 112
s-112 165.667 -112 273c0 106 37.333 196.667 112 272c74.667 74.667 165.333 112 272 112c106 0 196.667 -37.333 272 -112c74.667 -75.333 112 -166 112 -272c0 -107.333 -37.333 -198.333 -112 -273c-74 -74.667 -164.667 -112 -272 -112z" />
</svg>
