<?xml version="1.0" standalone="no"?>
<!DOCTYPE svg PUBLIC "-//W3C//DTD SVG 1.1//EN" "http://www.w3.org/Graphics/SVG/1.1/DTD/svg11.dtd" >
<svg xmlns="http://www.w3.org/2000/svg" xmlns:xlink="http://www.w3.org/1999/xlink" version="1.1" viewBox="-10 0 1010 1000">
   <path fill="currentColor"
d="M113.35 114.85h773.301v773.301h-773.301v-91.3008v-488.399v-193.601zM170.55 329.35h-15.3994l-7.7002 7.7002v46.2002c-6.60059 20.5332 -11.3672 41.7998 -14.2998 63.7998c-2.2002 13.9336 -3.66699 31.9004 -4.40039 53.9004h-6.59961v1.09961
c1.46582 0 3.66602 0.367188 6.59961 1.10059c0 57.1992 13.2002 112.566 39.5996 166.1v1.09961c-5.13281 11.7334 -7.69922 24.2002 -7.69922 37.4004c0 13.9336 2.93262 30.4336 8.7998 49.5c-0.733398 12.4668 -1.10059 23.4668 -1.10059 33v5.5
c0 27.8662 9.16699 48.4004 27.5 61.5996c0 1.4668 2.93359 2.56738 8.80078 3.30078c61.5996 -28.6006 94.2334 -43.2666 97.8994 -44c19.7998 11.7334 36.667 20.5332 50.6006 26.3994c47.666 20.5332 94.9658 30.7998 141.899 30.7998h9.90039
c64.5332 0 128.333 -18.6992 191.399 -56.0996c15.4004 -9.5332 30.4336 -20.5332 45.1006 -33c17.5996 -16.1338 32.2666 -30.7998 44 -44c57.9336 -71.8662 86.8994 -151.8 86.8994 -239.8c0 -52.7998 -11.3662 -103.767 -34.0996 -152.9
c9.5332 -19.0664 14.2998 -39.9668 14.2998 -62.7002c0 -30.0664 -9.16602 -58.2998 -27.5 -84.6992c-3.66602 -11.7334 -8.43359 -28.9668 -14.2998 -51.7002c-1.4668 0 -3.2998 -1.10059 -5.5 -3.2998c-21.2666 -0.733398 -53.9004 -1.4668 -97.9004 -2.2002
c-8.7998 3.66602 -26.7666 10.2666 -53.8994 19.7998c-49.1338 -22 -99.3672 -33 -150.7 -33h-4.40039c-68.1992 0 -133.466 18.7002 -195.8 56.0996c-15.3994 10.2666 -33 23.834 -52.7998 40.7002c-18.333 17.6006 -30.4336 30.7998 -36.2998 39.6006
c-17.6006 20.5332 -29.7002 38.1328 -36.2998 52.7998zM766.75 168.75c5.86621 2.93359 8.7998 4.7666 8.7998 5.5c2.93359 18.333 4.7666 28.2334 5.5 29.7002c8.7998 2.2002 13.2002 4.0332 13.2002 5.5c2.93359 4.39941 5.5 10.6328 7.7002 18.7002
c0.733398 2.19922 1.09961 4.7666 1.09961 7.69922v1.10059c0 10.2666 -5.5 18.7002 -16.5 25.2998c-2.2002 44 -3.66602 67.833 -4.39941 71.5c-2.2002 3.66699 -4.03418 5.5 -5.5 5.5c-46.2002 19.7998 -115.867 49.8662 -209 90.2002v95.7002
c0 3.66602 -6.60059 10.6328 -19.8008 20.8994c-13.9326 11.7334 -29.6992 22.7334 -47.2998 33c-27.1328 14.667 -59.3994 29.334 -96.7998 44c0 8.7998 0.366211 27.1338 1.09961 55c2.93359 5.86719 8.06738 18.334 15.4004 37.4004
c-0.733398 5.86621 -2.93359 8.7998 -6.59961 8.7998c-44.7334 21.2666 -111.467 53.5332 -200.2 96.7998c-1.4668 -1.4668 -4.40039 -3.2998 -8.7998 -5.5c1.46582 -43.2666 2.56641 -64.8994 3.2998 -64.8994c1.4668 -2.2002 3.2998 -6.2334 5.5 -12.1006
c-3.66699 -8.7998 -6.2334 -19.0664 -7.7002 -30.7998c-2.2002 -22.7334 -3.2998 -52.7998 -3.2998 -90.2002c0 -31.5332 0.733398 -72.9668 2.2002 -124.3c-8.80078 -5.86621 -13.2002 -10.6338 -13.2002 -14.2998c-0.733398 -17.6006 -2.2002 -44 -4.40039 -79.2002
c-0.733398 0 -1.09961 -0.366211 -1.09961 -1.09961c1.4668 -0.733398 3.66602 -2.56738 6.59961 -5.5h30.7998c2.2002 0 4.7666 1.83301 7.7002 5.5c0.733398 0.733398 1.10059 2.19922 1.10059 4.39941c100.1 -44 100.1 -44 400.399 -176
c22 -9.5332 66.7334 -28.9668 134.2 -58.2998zM397.15 492.15c-1.4668 0.733398 -3.66699 2.19922 -6.60059 4.39941c-0.733398 7.33398 -1.09961 14.2998 -1.09961 20.9004v2.2002c0 13.1992 2.93359 25.666 8.7998 37.3994c2.2002 2.93359 4.0332 4.40039 5.5 4.40039
c1.4668 0.733398 2.56641 1.09961 3.2998 1.09961c25.667 -6.59961 48.0332 -14.2998 67.1006 -23.0996c16.8662 -7.33398 31.5332 -15.0332 44 -23.1006c2.93262 -4.39941 4.39941 -9.89941 4.39941 -16.5v-11c0 -15.3994 -3.2998 -29.333 -9.89941 -41.7998
c-1.4668 0 -4.03418 -0.733398 -7.7002 -2.2002c-41.7998 19.0674 -77.7334 34.834 -107.8 47.3008z" />
</svg>
