<?xml version="1.0" standalone="no"?>
<!DOCTYPE svg PUBLIC "-//W3C//DTD SVG 1.1//EN" "http://www.w3.org/Graphics/SVG/1.1/DTD/svg11.dtd" >
<svg xmlns="http://www.w3.org/2000/svg" xmlns:xlink="http://www.w3.org/1999/xlink" version="1.1" viewBox="-10 0 1010 1000">
   <path fill="currentColor"
d="M321.5 55c276.667 24 425 172 445 444c-19.333 268 -164.333 415 -435 441c-22 -3.33301 -54.667 -8 -98 -14c209.333 -67.333 321 -210.667 335 -430c-16 -223.333 -127 -366 -333 -428c23.333 -8.66699 49 -13 77 -13h9zM264.5 67c198 72.667 302 215.667 312 429
c-7.33301 208 -107 350 -299 426c20 0.666992 50 2 90 4c244.667 -41.333 374.333 -183.667 389 -427c-28 -288 -190.667 -432 -488 -432h-4z" />
</svg>
