<?xml version="1.0" standalone="no"?>
<!DOCTYPE svg PUBLIC "-//W3C//DTD SVG 1.1//EN" "http://www.w3.org/Graphics/SVG/1.1/DTD/svg11.dtd" >
<svg xmlns="http://www.w3.org/2000/svg" xmlns:xlink="http://www.w3.org/1999/xlink" version="1.1" viewBox="-10 0 1010 1000">
   <path fill="currentColor"
d="M113.35 115.85h773.301v773.301h-773.301v-216.7v-363v-193.601zM124.35 500.85h-6.59961v1.10059c1.4668 0 3.66699 0.366211 6.59961 1.09961c0 60.1338 14.667 118.066 44 173.8c10.2666 20.5342 23.834 41.0674 40.7002 61.6006
c21.2666 24.2002 38.8672 41.4336 52.7998 51.7002c16.1338 12.4658 30.8008 22.7334 44 30.7998c60.1338 35.2002 121.733 52.7998 184.801 52.7998h9.89941c64.5332 0 128.334 -18.7002 191.4 -56.0996c15.3994 -9.53418 30.4336 -20.5342 45.0996 -33
c17.6006 -16.1338 32.2666 -30.8008 44 -44c57.9336 -71.8672 86.9004 -151.801 86.9004 -239.801c0 -83.5996 -27.1338 -160.233 -81.4004 -229.899c-6.59961 -10.2666 -20.8994 -25.667 -42.8994 -46.2002c-22.7334 -19.0664 -41.0674 -32.6338 -55 -40.7002
c-60.1338 -35.9336 -123.567 -53.8994 -190.301 -53.8994h-4.39941c-74.7998 0 -144.834 22 -210.101 66c-14.666 11 -29.6992 23.4658 -45.0996 37.3994c-22.7334 22 -38.5 40.334 -47.2998 55c-13.9336 19.7998 -25.667 40.334 -35.2002 61.6006
c-7.33301 16.1328 -14.667 37.0332 -22 62.6992c-5.86621 27.8672 -8.7998 48.4004 -8.7998 61.6006c0 5.86621 -0.367188 14.666 -1.10059 26.3994zM628.15 686.75c-8.80078 -2.2002 -8.80078 -2.2002 -17.6006 -4.40039
c-5.86621 -0.733398 -12.0996 -1.83301 -18.7002 -3.2998v7.7002v6.59961c13.9336 15.4004 19.4336 31.9004 16.5 49.5c-2.93262 16.8672 -5.86621 38.1338 -8.7998 63.8008h-7.7002h-6.59961c-4.40039 -14.667 -9.5332 -24.9336 -15.4004 -30.8008
c-6.59961 -5.13281 -13.1992 -13.5664 -19.7998 -25.2998c-5.86621 2.93359 -11.3662 7.33398 -16.5 13.2002c-4.39941 6.59961 -8.43359 6.9668 -12.0996 1.09961c-2.2002 -3.66602 -4.7666 -7.33301 -7.7002 -11l-6.59961 -11
c-16.8672 13.2002 -32.6338 17.6006 -47.3008 13.2002c-15.3994 -5.13281 -28.2334 -4.7666 -38.5 1.10059c-8.06641 5.13281 -13.1992 11 -15.3994 17.5996c-2.2002 7.33301 -8.7998 13.5664 -19.7998 18.7002c-0.733398 -33 -5.13379 -59.7666 -13.2002 -80.2998
c-8.06641 -21.2666 -13.9336 -42.5342 -17.6006 -63.8008c-2.19922 -11.7334 -3.2998 -24.1992 -3.2998 -37.3994c0 -13.9336 1.83398 -29.334 5.5 -46.2002h-24.2002h-25.2998c-5.13281 7.33301 -6.9668 10.2666 -5.5 8.7998
c2.2002 -1.4668 -0.733398 0.367188 -8.7998 5.5c-2.2002 -13.2002 -2.2002 -19.0664 0 -17.5996c2.93359 1.4668 -1.83301 0 -14.2998 -4.40039l-11 4.40039c-2.93359 0.733398 -6.2334 1.83301 -9.90039 3.2998v-7.7002v-6.59961
c-6.59961 -10.2666 -9.89941 -22.7334 -9.89941 -37.4004c0 -6.59961 0.733398 -13.5664 2.19922 -20.8994c3.66699 -24.9336 8.43359 -50.2334 14.3008 -75.9004c2.93262 -14.667 5.86621 -28.5996 8.7998 -41.7998s4.7666 -25.667 5.5 -37.4004
c11 -1.4668 21.6328 -2.56641 31.8994 -3.2998c11 -1.4668 21.6338 -2.56641 31.9004 -3.2998c-3.66699 -13.2002 -6.9668 -26.4004 -9.90039 -39.6006l-11 -39.5996c27.1338 -12.4668 53.9004 -27.1338 80.3008 -44c25.666 -16.1338 60.5 -27.5 104.5 -34.0996
c16.8662 13.9326 39.5996 24.5664 68.1992 31.8994c27.8672 7.33398 45.4668 22.7334 52.8008 46.2002c-8.80078 14.2998 -8.80078 14.2998 -17.6006 28.5996c-5.86621 9.53418 -12.0996 19.0674 -18.7002 28.6006h4.40039h3.2998c8.7998 -8.7998 17.9668 -16.1338 27.5 -22
c9.5332 -5.86719 21.6338 -10.2666 36.2998 -13.2002c5.13379 17.5996 12.4668 28.9668 22 34.0996c9.53418 5.13379 16.5 15.0342 20.9004 29.7002c-2.2002 21.2666 -4.7666 42.5332 -7.7002 63.7998l-6.59961 63.8008c5.13281 22.7334 11.3662 39.2334 18.7002 49.5
c6.59961 10.2666 9.89941 29.333 9.89941 57.1992c-8.06641 0.733398 -19.4336 7.33398 -34.0996 19.8008c-13.9336 11.7334 -26.0332 25.666 -36.2998 41.7998c-6.60059 8.7998 -11.7334 17.5996 -15.4004 26.3994c-3.66699 9.53418 -5.86621 18.334 -6.59961 26.4004z
M613.85 430.45c-5.13281 1.4668 -9.89941 2.56641 -14.2998 3.2998c-5.13281 1.4668 -9.89941 2.56641 -14.2998 3.2998c-11 15.4004 -23.4668 26.4004 -37.4004 33c-13.9326 7.33398 -22.7334 17.9668 -26.3994 31.9004c13.9336 11.7334 30.4336 20.8994 49.5 27.5
c19.7998 6.59961 41.0664 11.3662 63.7998 14.2998c7.33301 -10.2666 14.667 -20.9004 22 -31.9004c6.59961 -10.2666 13.5664 -20.8994 20.9004 -31.8994c-11 -13.9336 -18.334 -25.2998 -22 -34.1006c-2.93359 -8.06641 -16.8672 -13.1992 -41.8008 -15.3994z
M328.95 437.05c-3.2998 23.1006 -3.2998 23.1006 -6.60059 46.2002c-2.19922 15.4004 -4.7666 30.7998 -7.69922 46.2002c11 2.2002 11 2.2002 22 4.39941c7.33301 0.733398 14.2998 1.83398 20.8994 3.30078c13.2002 -1.4668 26.4004 -2.56738 39.6006 -3.30078
c13.1992 -1.46582 26.0332 -2.93262 38.5 -4.39941c2.93262 -6.60059 5.5 -13.5664 7.69922 -20.9004c2.2002 -7.33301 4.40039 -14.2998 6.60059 -20.8994c-6.60059 -6.60059 -11.7334 -13.2002 -15.4004 -19.8008c-4.39941 -6.59961 -8.7998 -14.2998 -13.2002 -23.0996
c-15.3994 -1.4668 -30.7998 -2.56641 -46.1992 -3.2998c-23.1006 -2.2002 -23.1006 -2.2002 -46.2002 -4.40039zM478.55 565.75c-5.13281 11.7334 -12.0996 27.8662 -20.8994 48.4004c-5.86719 14.666 -8.80078 26.0332 -8.80078 34.0996
c0 3.66699 0.367188 6.9668 1.10059 9.90039v3.2998v3.2998l28.5996 -17.5996c14.2998 -8.80078 14.2998 -8.80078 28.6006 -17.6006c4.39941 10.2666 8.06641 17.2334 11 20.9004c3.66602 3.66602 9.5332 8.43359 17.5996 14.2998v-6.59961v-7.7002
c-5.5 -17.6006 -5.5 -17.6006 -11 -35.2002s-5.5 -17.5996 -11 -35.2002c-5.86621 -2.93359 -11.7334 -5.5 -17.5996 -7.7002c-8.80078 -3.2998 -8.80078 -3.2998 -17.6006 -6.59961z" />
</svg>
