<?xml version="1.0" standalone="no"?>
<!DOCTYPE svg PUBLIC "-//W3C//DTD SVG 1.1//EN" "http://www.w3.org/Graphics/SVG/1.1/DTD/svg11.dtd" >
<svg xmlns="http://www.w3.org/2000/svg" xmlns:xlink="http://www.w3.org/1999/xlink" version="1.1" viewBox="-10 0 1010 1000">
   <path fill="currentColor"
d="M113.35 118.85h773.301v773.301h-773.301v-91.3008v-488.399v-193.601zM128.75 504.95v2.2002c0 60.1328 14.667 118.066 44 173.8c10.2666 20.5332 23.833 41.0664 40.7002 61.5996c21.2666 24.2002 38.8662 41.4336 52.7998 51.7002
c16.1338 12.4668 30.7998 22.7334 44 30.7998c60.1338 35.2002 121.733 52.7998 184.8 52.7998h9.90039c64.5332 0 128.333 -18.6992 191.399 -56.0996c15.4004 -9.5332 30.4336 -20.5332 45.1006 -33c17.5996 -16.1338 32.2666 -30.7998 44 -44
c57.9336 -71.8662 86.8994 -151.8 86.8994 -239.8c0 -83.6006 -27.1328 -160.233 -81.3994 -229.9c-6.60059 -10.2666 -20.9004 -25.666 -42.9004 -46.2002c-22.7334 -19.0664 -41.0664 -32.6328 -55 -40.6992c-60.1328 -35.9336 -123.566 -53.9004 -190.3 -53.9004
h-4.40039c-74.7998 0 -144.833 22 -210.1 66c-14.667 11 -29.7002 23.4668 -45.0996 37.4004c-22.7334 22 -38.5 40.333 -47.3008 55c-13.9326 19.7998 -25.666 40.333 -35.1992 61.5996c-7.33398 16.1338 -14.667 37.0332 -22 62.7002
c-5.86719 27.8662 -8.80078 48.3994 -8.80078 61.5996c0 5.86719 -0.366211 14.667 -1.09961 26.4004zM503.85 139.75c6.60059 33.7334 19.8008 100.833 39.6006 201.3c-0.733398 0.733398 -2.56641 3.2998 -5.5 7.7002c-13.2002 0 -39.2334 0.366211 -78.1006 1.09961
l-7.69922 -7.69922c6.59961 -33.7334 19.4326 -101.2 38.5 -202.4h13.1992zM492.85 367.45h11c35.2002 0 70.7666 10.2666 106.7 30.7998c11.7334 6.59961 25.667 16.8662 41.7998 30.7998c15.4004 15.4004 25.3008 27.8672 29.7002 37.4004
c11 16.1328 20.167 34.833 27.5 56.0996c5.86719 20.5332 8.7998 38.8672 8.7998 55v11c-0.733398 2.2002 -1.09961 6.60059 -1.09961 13.2002h-84.7002v-52.7998h-47.2998v52.7998h-62.7002v-55h-46.2002v55h-66v-51.7002h-47.2998v51.7002h-83.5996
c-0.733398 -2.93359 -1.10059 -9.16699 -1.10059 -18.7002c0 -56.4668 21.2666 -106.7 63.8008 -150.7c17.5996 -16.8662 31.166 -27.8662 40.6992 -33c36.667 -21.2666 73.334 -31.8994 110 -31.8994zM278.35 623.75h84.7002v78.0996h47.2998v-78.0996h66v73.7002h46.2002
v-73.7002h62.7002v77h47.2998v-77h85.7998v176h-440v-176z" />
</svg>
