<?xml version="1.0" standalone="no"?>
<!DOCTYPE svg PUBLIC "-//W3C//DTD SVG 1.1//EN" "http://www.w3.org/Graphics/SVG/1.1/DTD/svg11.dtd" >
<svg xmlns="http://www.w3.org/2000/svg" xmlns:xlink="http://www.w3.org/1999/xlink" version="1.1" viewBox="-10 0 1010 1000">
   <path fill="currentColor"
d="M371.973 230.104c101.19 -185.515 123.646 -225.417 129.197 -225.417c0.37207 0 0.667969 0.178711 0.90625 0.503906c2.42188 3.11426 59.8613 107.612 127.682 232.525l123.875 226.644l-19.7227 41.8691c-115.57 246.713 -232.871 491.003 -235.641 489.965
c-3.80664 -1.38379 -251.902 -524.567 -251.902 -531.142c0 -2.07617 56.4004 -107.612 125.605 -234.948zM718.686 453.287c-23.6562 -40.8564 -212.869 -393.146 -218.34 -398.616c-2.41406 -3.10449 -225.958 405.439 -225.958 412.747
c0 17.1445 225.958 471.336 225.958 471.336c1.38477 -1.38379 52.5957 -108.65 113.842 -238.062l111.072 -235.295zM430.797 315.225c10.6328 -1.83301 26.0996 -2.67383 42.5742 -2.67383c30.1699 0 63.7197 2.81836 77.1484 7.51855
c25.6055 8.65039 49.4805 28.0273 59.8613 48.4424c7.26562 13.4951 8.99609 22.1455 8.99609 41.5225c0 21.4541 -1.73047 28.0283 -12.8027 50.5195c-15.5703 31.4883 -53.6328 69.8965 -91.3496 92.3877l-23.875 14.5322h126.297v83.0449h-110.727
c-60.8984 0 -110.727 -0.345703 -110.727 -1.03711c-0.345703 -0.34668 -3.11328 -19.0312 -6.57422 -41.5234l-6.22852 -40.8301l43.5996 -35.6396c50.8652 -41.5225 74.3945 -65.7441 83.3906 -86.1592c4.31055 -9.4043 6.35254 -17.8965 6.35254 -25.3418
c0 -22.2031 -18.1631 -35.0938 -48.5059 -35.0938c-13.3906 0 -29.1543 2.51074 -46.7744 7.83984c-8.99609 2.76855 -16.9551 4.15234 -17.6465 3.45996c-1.73047 -1.38379 -14.1875 -59.5156 -14.5332 -66.4355c0 -4.84473 14.8789 -10.0342 41.5234 -14.5332z" />
</svg>
