<?xml version="1.0" standalone="no"?>
<!DOCTYPE svg PUBLIC "-//W3C//DTD SVG 1.1//EN" "http://www.w3.org/Graphics/SVG/1.1/DTD/svg11.dtd" >
<svg xmlns="http://www.w3.org/2000/svg" xmlns:xlink="http://www.w3.org/1999/xlink" version="1.1" viewBox="-10 0 1010 1000">
   <path fill="currentColor"
d="M371.973 230.104c101.19 -185.515 123.646 -225.417 129.197 -225.417c0.37207 0 0.667969 0.178711 0.90625 0.503906c2.42188 3.11426 59.8613 107.612 127.682 232.525l123.875 226.644l-19.7227 41.8691c-115.57 246.713 -232.871 491.003 -235.641 489.965
c-3.80664 -1.38379 -251.902 -524.567 -251.902 -531.142c0 -2.07617 56.4004 -107.612 125.605 -234.948zM718.686 453.287c-23.6562 -40.8564 -212.869 -393.146 -218.34 -398.616c-2.41406 -3.10449 -225.958 405.439 -225.958 412.747
c0 17.1445 225.958 471.336 225.958 471.336c1.38477 -1.38379 52.5957 -108.65 113.842 -238.062l111.072 -235.295zM568.166 479.238c0 0.925781 80.623 131.143 80.623 131.143c0 1.05762 -14.7432 1.50879 -35.4336 1.50879
c-6.39258 0 -13.3525 -0.0429688 -20.6211 -0.125l-56.4023 -1.03809l-22.8379 -39.792c-12.5527 -21.374 -24.4014 -40.4873 -25.9824 -40.4873c-3.11719 0 -45.9248 79.9121 -48.0645 80.625c-1.31641 0.658203 -9.4502 0.899414 -20.6953 0.899414
c-6.48926 0 -14.0156 -0.0800781 -21.8652 -0.207031l-38.4082 -1.03809c23.9893 -43.4844 48.0947 -86.8535 72.3184 -130.104l-26.9902 -38.7549c-14.8789 -21.4531 -33.5645 -48.4424 -41.8691 -60.5537l-14.5332 -21.4531h113.496l21.7988 38.0625
c11.54 20.707 22.9941 39.4668 23.9482 39.4668c1.4043 0 12.2842 -16.7139 24.4951 -38.083l22.4902 -39.4463h84.4297l-34.9473 57.7861c-19.0312 32.1797 -34.9492 59.8613 -34.9492 61.5908z" />
</svg>
