<?xml version="1.0" standalone="no"?>
<!DOCTYPE svg PUBLIC "-//W3C//DTD SVG 1.1//EN" "http://www.w3.org/Graphics/SVG/1.1/DTD/svg11.dtd" >
<svg xmlns="http://www.w3.org/2000/svg" xmlns:xlink="http://www.w3.org/1999/xlink" version="1.1" viewBox="-10 0 1010 1000">
   <path fill="currentColor"
d="M371.973 230.104c101.19 -185.515 123.646 -225.417 129.197 -225.417c0.37207 0 0.667969 0.178711 0.90625 0.503906c2.42188 3.11426 59.8613 107.612 127.682 232.525l123.875 226.644l-19.7227 41.8691c-115.57 246.713 -232.871 491.003 -235.641 489.965
c-3.80664 -1.38379 -251.902 -524.567 -251.902 -531.142c0 -2.07617 56.4004 -107.612 125.605 -234.948zM718.686 453.287c-23.6562 -40.8564 -212.869 -393.146 -218.34 -398.616c-2.41406 -3.10449 -225.958 405.439 -225.958 412.747
c0 17.1445 225.958 471.336 225.958 471.336c1.38477 -1.38379 52.5957 -108.65 113.842 -238.062l111.072 -235.295zM411.072 322.146c30.9453 -10.0117 30.1152 -10.0352 73.3574 -10.0352c1.7832 -0.0273438 3.54883 -0.0410156 5.29883 -0.0410156
c86.1904 0 131.381 33.2549 131.381 96.2197c0 29.8906 -19.6113 56.7256 -47.0605 65.7598l-12.8027 4.49805l15.5703 5.88184c23.5293 8.99707 35.9863 19.0312 43.9453 35.6406c4.77637 9.9502 7.2627 24.1367 7.2627 38.6074
c0 10.6895 -1.35645 21.5342 -4.14941 30.9424c-6.22852 20.415 -31.1406 44.6367 -55.3633 53.2871c-23.7021 8.82422 -54.9297 13.2354 -85.8125 13.2354c-30.8818 0 -61.418 -4.41113 -83.7363 -13.2354c-9.68945 -3.45996 -9.68945 -3.80566 -9.68945 -35.6396v-32.1797
l20.416 6.22754c20.0908 6.35254 38.0381 9.48828 53.2744 9.48828c20.4512 0 36.0205 -5.64941 45.3408 -16.7539c6.18555 -7.19336 9.1416 -16.1807 9.1416 -24.9971c0 -12.3916 -5.83789 -24.4463 -16.7549 -30.7129
c-10.3789 -6.22852 -43.5977 -13.1484 -61.9375 -13.1484h-11.418v-58.8232h20.7617c31.1406 0 53.9785 -5.88281 62.2832 -16.2637c4.55078 -5.78027 6.74023 -12.1299 6.74023 -18.3945c0 -11.3604 -7.2002 -22.4424 -20.582 -29.3564
c-6.94824 -3.54199 -17.5439 -5.26074 -30.3086 -5.26074c-19.6553 0 -44.4541 4.07422 -68.998 11.8359c-1.68945 0.513672 -3.01953 0.90332 -4.06836 0.90332c-3.89062 0 -3.89062 -5.36328 -3.89062 -29.623v-30.7959z" />
</svg>
