<?xml version="1.0" standalone="no"?>
<!DOCTYPE svg PUBLIC "-//W3C//DTD SVG 1.1//EN" "http://www.w3.org/Graphics/SVG/1.1/DTD/svg11.dtd" >
<svg xmlns="http://www.w3.org/2000/svg" xmlns:xlink="http://www.w3.org/1999/xlink" version="1.1" viewBox="-10 0 1010 1000">
   <path fill="currentColor"
d="M371.973 230.104c101.19 -185.515 123.646 -225.417 129.197 -225.417c0.37207 0 0.667969 0.178711 0.90625 0.503906c2.42188 3.11426 59.8613 107.612 127.682 232.525l123.875 226.644l-19.7227 41.8691c-115.57 246.713 -232.871 491.003 -235.641 489.965
c-3.80664 -1.38379 -251.902 -524.567 -251.902 -531.142c0 -2.07617 56.4004 -107.612 125.605 -234.948zM718.686 453.287c-23.6562 -40.8564 -212.869 -393.146 -218.34 -398.616c-2.41406 -3.10449 -225.958 405.439 -225.958 412.747
c0 17.1445 225.958 471.336 225.958 471.336c1.38477 -1.38379 52.5957 -108.65 113.842 -238.062l111.072 -235.295zM466.436 306.229c9.22852 -2.69727 26.4375 -3.93848 45.4121 -3.93848c27.2725 0 58.1924 2.56348 74.3125 7.05273
c11.0693 3.05371 19.9053 4.66406 19.9053 8.23438c0 9.93359 -5.84473 60.7803 -7.10254 62.3535c-0.693359 0.345703 -7.95898 -1.72949 -16.2637 -4.84375s-28.7207 -6.22852 -45.3281 -7.2666c-5.06055 -0.333008 -9.82617 -0.505859 -14.3174 -0.505859
c-42.1875 0 -60.1387 15.248 -70.458 56.2148c-3.11523 12.457 -4.84375 23.876 -3.80664 24.9141c1.03906 1.03809 11.0723 -1.03809 22.1445 -4.15234c12.457 -3.80664 32.5273 -6.22852 51.5586 -6.22852c2.80664 -0.0341797 5.38184 -0.0546875 7.76465 -0.0546875
c21.9922 0 27.5146 1.76074 46.5596 11.127c37.0254 17.9932 51.2109 42.2148 51.2109 86.8516c0 51.9033 -20.4141 84.083 -64.3594 100.691c-14.8789 5.66797 -37.1025 8.52539 -59.9863 8.52539c-21.8193 0 -44.2393 -2.59766 -61.4668 -7.83301
c-62.6289 -19.377 -88.582 -65.7441 -88.9277 -158.132c-0.03125 -3.41992 -0.0488281 -6.62598 -0.0488281 -9.64258c0 -29.9531 1.68945 -41.3604 7.66211 -59.9072c16.9551 -54.3252 51.5566 -88.2354 105.535 -103.46zM527.682 500
c-6.06543 -3.125 -17.4053 -4.6875 -30.2822 -4.6875c-11.3633 0 -23.9238 1.2168 -35.1162 3.64941l-15.2246 3.45996l2.42188 20.415c2.07617 23.1836 11.7656 44.291 22.4922 50.8652c7.35938 4.29297 18.4639 6.6543 29.2441 6.6543
c7.46582 0 14.7773 -1.13281 20.582 -3.54004c17.165 -7.27637 26.1807 -24.5117 26.1807 -41.292c0 -14.3408 -6.58496 -28.3486 -20.2979 -35.5244z" />
</svg>
