<?xml version="1.0" standalone="no"?>
<!DOCTYPE svg PUBLIC "-//W3C//DTD SVG 1.1//EN" "http://www.w3.org/Graphics/SVG/1.1/DTD/svg11.dtd" >
<svg xmlns="http://www.w3.org/2000/svg" xmlns:xlink="http://www.w3.org/1999/xlink" version="1.1" viewBox="-10 0 1010 1000">
   <path fill="currentColor"
d="M371.973 230.104c101.19 -185.515 123.646 -225.417 129.197 -225.417c0.37207 0 0.667969 0.178711 0.90625 0.503906c2.42188 3.11426 59.8613 107.612 127.682 232.525l123.875 226.644l-19.7227 41.8691c-115.57 246.713 -232.871 491.003 -235.641 489.965
c-3.80664 -1.38379 -251.902 -524.567 -251.902 -531.142c0 -2.07617 56.4004 -107.612 125.605 -234.948zM718.686 453.287c-23.6562 -40.8564 -212.869 -393.146 -218.34 -398.616c-2.41406 -3.10449 -225.958 405.439 -225.958 412.747
c0 17.1445 225.958 471.336 225.958 471.336c1.38477 -1.38379 52.5957 -108.65 113.842 -238.062l111.072 -235.295zM392.734 318.339h216.262c-2.0752 21.916 -4.15137 43.8301 -6.22852 65.7441h-136.678l-5.88281 26.6436
c-4.42871 21.165 -6.61426 30.5615 -9.3418 42.5605l17.9922 -9.34277c14.5264 -7.55273 34.4717 -11.4209 54.3164 -11.4209c15.6104 0 31.1572 2.39355 43.9551 7.26855c37.9277 13.9746 69.6475 49.9004 69.6475 99.8135c0 13.1025 -2.18555 27.1689 -7.01855 42.0557
c-9.3418 27.6816 -37.7168 55.0166 -67.4746 64.7061c-20.6729 6.85059 -42.5566 10.1533 -63.9111 10.1533c-40.1221 0 -78.375 -11.6572 -103.216 -33.3369c-15.7432 -13.9941 -28.249 -42.1709 -33.5645 -66.0898h95.1562l6.57422 11.7646
c6.22852 11.7646 23.1836 22.8369 34.6016 22.8369c22.8379 0 43.9453 -22.4912 44.291 -46.3662c0.00683594 -0.416992 0.00976562 -0.832031 0.00976562 -1.24414c0 -30.2881 -17.9092 -48.0127 -43.7764 -48.0127c-10.3086 0 -21.8818 2.81543 -34.0889 8.77246
l-16.6074 7.95801l-39.4473 -7.6123c-32.5137 -6.38184 -38.3438 -7.95898 -38.3438 -12.9355c0 -12.0146 21.0654 -164.529 22.7734 -173.916z" />
</svg>
