<?xml version="1.0" standalone="no"?>
<!DOCTYPE svg PUBLIC "-//W3C//DTD SVG 1.1//EN" "http://www.w3.org/Graphics/SVG/1.1/DTD/svg11.dtd" >
<svg xmlns="http://www.w3.org/2000/svg" xmlns:xlink="http://www.w3.org/1999/xlink" version="1.1" viewBox="-10 0 1010 1000">
   <path fill="currentColor"
d="M371.973 230.104c101.19 -185.515 123.646 -225.417 129.197 -225.417c0.37207 0 0.667969 0.178711 0.90625 0.503906c2.42188 3.11426 59.8613 107.612 127.682 232.525l123.875 226.644l-19.7227 41.8691c-115.57 246.713 -232.871 491.003 -235.641 489.965
c-3.80664 -1.38379 -251.902 -524.567 -251.902 -531.142c0 -2.07617 56.4004 -107.612 125.605 -234.948zM718.686 453.287c-23.6562 -40.8564 -212.869 -393.146 -218.34 -398.616c-2.41406 -3.10449 -225.958 405.439 -225.958 412.747
c0 17.1445 225.958 471.336 225.958 471.336c1.38477 -1.38379 52.5957 -108.65 113.842 -238.062l111.072 -235.295zM579.238 249.135c8.54492 0 11.6484 20.7617 18.3398 20.7617c5.88281 0 11.7637 16.2627 14.8789 40.1377
c1.73047 14.8789 1.38477 17.9932 -3.46094 20.0693c-2.80176 1.06738 -4.16309 4.39941 -4.16309 9.25977c0 7.74609 3.45605 19.374 10.0459 31.917c3.79395 7.47363 5.79199 14.1445 5.79199 20.6729c0 13.1201 -8.07031 25.666 -25.8604 42.9951
c-15.5723 15.2246 -22.1465 24.2217 -22.1465 30.4492c0 4.84473 -1.03711 8.65137 -2.76758 8.65137c-1.38477 0 -4.49805 11.7646 -6.91992 26.2969c-3.11523 21.1074 -6.57422 29.7578 -16.9551 43.9453l-13.1484 17.9932l-1.03906 -21.7998
c-0.691406 -13.1484 -2.76758 -22.4912 -5.18945 -23.1836c-5.08496 -1.95508 -19.6738 -3.02637 -31.7119 -3.02637c-9.26367 0 -17.0176 0.633789 -17.7705 1.98828c-1.03711 1.73047 -5.18945 2.07617 -8.99609 0.692383
c-6.57422 -2.07617 -6.57422 -1.03809 -4.49805 20.7607c1.38477 12.457 1.73047 22.8379 0.691406 22.8379c-1.03711 0 -8.30469 -8.65039 -15.5703 -19.0312c-10.3809 -14.5332 -14.1875 -23.875 -16.2637 -38.7539c-1.38281 -11.0732 -5.18945 -23.876 -8.30469 -28.7197
c-7.02246 -10.2432 -12.3135 -28.1582 -12.3135 -39.5127c0 -2.07031 0.175781 -3.92285 0.549805 -5.4707c1.73047 -8.30371 1.73047 -8.30371 -3.11523 -2.07617c-2.08594 2.55078 -4.40527 3.8584 -7.16504 3.8584c-5.47949 0 -12.6982 -5.1543 -23.2842 -15.9688
c-8.22266 -8.85645 -12.334 -18.4824 -12.334 -30.29c0 -7.56836 1.68945 -16.0332 5.06836 -25.7656c4.77734 -13.8545 7.90527 -35.6221 7.90527 -50.167c0 -7.42969 -2.30762 -11.7529 -2.30762 -14.9277c0 -5.06934 16.332 -13.4521 27.2734 -13.4521h8.30469
c-4.9043 -9.16699 -9.86621 -18.2764 -14.8789 -27.335l10.0352 -10.3809c7.26562 -7.6123 12.1113 -10.0342 17.9922 -8.65039c6.37207 1.49902 7.24902 0.541992 7.24902 -4.48535c0 -6.22461 18.8154 -15.3545 44.3096 -21.8125
c6.78418 -1.82617 12.3379 -2.76758 17.46 -2.76758c8.46191 0 15.7451 2.56934 25.4463 7.95801c7.95703 4.84473 17.3008 8.65039 19.7227 8.65039c10.7266 0 32.5254 13.8408 32.5254 20.7617c0 4.49805 2.42188 6.91992 6.57422 6.91992zM541.523 233.218
c-11.1064 -2.37891 -26.9844 -10.2832 -36.332 -14.5322c-2.61621 -1.18359 -6.07324 -1.7168 -10.0234 -1.7168c-17.9971 0 -46.2402 11.0654 -51.916 22.1318c-2.76758 5.53613 -6.91992 8.30469 -13.1484 8.30469c-14.5332 0 -18.3379 5.88184 -11.7637 18.3389
c3.71094 7.14746 5.6748 12.3828 5.6748 16.2295c0 5.83594 -4.52246 8.46973 -14.3252 9.72168c-16.5469 2.25586 -17.6768 1.42871 -17.6768 15.8291c0 2.27734 0.0283203 4.93555 0.0283203 8.04688c0 10.0342 -3.11328 27.6816 -6.91992 39.0996
c-4.35742 12.9404 -6.49707 23.6133 -6.49707 31.6338c0 11.0293 4.0459 17.0439 11.9395 17.0439c1.40918 0 2.94043 -0.191406 4.59277 -0.580078c7.95898 -2.07617 8.65039 -1.38477 6.57422 5.88184c-2.07617 7.6123 -2.07617 7.95898 2.42188 2.07617
c2.76758 -3.45996 9.68945 -5.88184 16.2637 -5.88184c10.3809 0 11.0723 0.345703 8.30469 9.3418c-2.06641 6.97266 -3.07227 14.3301 -3.07227 21.4443c0 11.9512 2.83887 23.2129 8.26172 30.8047c5.18945 7.61328 8.65039 18.3398 9.68945 32.1807l2.07617 21.1074
l8.30273 -10.7275c6.57617 -8.30371 9.68945 -10.0342 13.1504 -7.26562c7.00098 5.44629 9.88672 -8.35938 19.7227 -3.11426c11.9619 6.37988 11.2832 -14.2285 20.7617 -0.692383c4.49805 6.57422 5.88086 6.9209 9.6875 2.07617
c3.80664 -4.49805 5.88281 -3.45996 17.3008 8.65039l13.1504 14.1865l3.45898 -20.0684c2.76758 -15.5713 2.42188 -22.1455 -1.38281 -29.4121c-2.5791 -5.01465 -3.6084 -7.95703 -3.6084 -9.60645c0 -1.41895 0.762695 -1.87988 1.9541 -1.87988
c2.21777 0 5.9248 1.59766 8.98242 1.59766c2.84473 0 5.12695 -1.38281 5.12695 -6.7207c0 -4.84375 5.19141 -12.4561 13.4961 -19.377c7.26562 -6.22852 15.2246 -16.2627 17.6465 -22.1455c2.76758 -6.57422 6.22852 -10.0342 8.99609 -8.99609
c0.429688 0.164062 0.831055 0.243164 1.20312 0.243164c2.45801 0 3.65625 -3.4502 3.65625 -8.67285c0 -7.3457 -2.36914 -18.1992 -6.93555 -27.9023c-4.38086 -9.80762 -6.875 -23.3887 -6.875 -33.3848c0 -6.58105 1.08105 -11.6084 3.41602 -12.9824
c2.63965 -1.58398 3.79688 -5.71191 3.79688 -10.9111c0 -11.8408 -6.00293 -29.2334 -14.1777 -34.7637c-3.80664 -2.76758 -6.91992 -7.2666 -6.91992 -10.0342c0 -3.12988 -1.29004 -4.3623 -3.35938 -4.3623c-7.64844 0 -25.9453 16.8184 -29.168 16.8184
c-1.38281 0 1.73047 -7.95801 7.26758 -17.6465c9.3418 -17.3008 9.3418 -17.6475 2.76758 -22.4912c-3.80664 -2.76855 -10.7266 -5.88281 -15.5703 -6.9209zM550.174 341.522c5.58301 -1.39551 9.83301 -2.19141 13.2686 -2.19141
c7.63379 0 11.2383 3.93262 16.4893 13.9561l7.26562 14.1865l-10.3809 12.8027c-6.6084 8.10156 -10.0654 11.3428 -17.8945 11.3428c-4.87891 0 -11.4551 -1.25879 -21.5508 -3.38379c-19.377 -3.80664 -26.9902 -9.34277 -26.9902 -19.0312
c0 -3.80664 1.03711 -6.22852 2.07617 -4.84473c1.38477 1.03809 8.65039 -3.11328 16.6094 -9.3418c7.61133 -6.57422 17.3008 -12.457 21.1074 -13.4951zM413.842 364.359l4.15234 -21.1064l15.916 -0.34668c1.39062 -0.0224609 2.71289 -0.0341797 3.9707 -0.0341797
c18.4609 0 23.2031 2.62598 30.9766 15.2598c3.39453 5.58984 4.99121 10.376 4.99121 14.4209c0 9.46875 -8.74902 14.8818 -23.6748 17.0664c-8.08105 1.29883 -15.2598 1.93555 -21.1836 1.93555c-8.28125 0 -14.1123 -1.24414 -16.5332 -3.66504
c-1.73047 -1.73047 -1.03906 -12.1113 1.38477 -23.5303zM474.74 451.211c-0.34375 -0.34375 -0.500977 -1.03418 -0.500977 -2.00098c0 -9.31543 14.5654 -44.3652 17.1104 -44.3652c7.95898 0.345703 15.918 10.3799 20.7617 26.2969
c3.32324 11.0791 4.66992 17.0732 4.66992 19.833c0 1.37305 -0.333008 1.94531 -0.921875 1.94531c-2.95898 0 -12.3711 -14.4648 -18.377 -14.4648c-1.00098 0 -1.90625 0.401367 -2.67188 1.33691c-4.8457 6.22852 -17.6484 13.4951 -20.0703 11.4189z" />
</svg>
