<?xml version="1.0" standalone="no"?>
<!DOCTYPE svg PUBLIC "-//W3C//DTD SVG 1.1//EN" "http://www.w3.org/Graphics/SVG/1.1/DTD/svg11.dtd" >
<svg xmlns="http://www.w3.org/2000/svg" xmlns:xlink="http://www.w3.org/1999/xlink" version="1.1" viewBox="-10 0 1010 1000">
   <path fill="currentColor"
d="M371.973 230.104c101.19 -185.515 123.646 -225.417 129.197 -225.417c0.37207 0 0.667969 0.178711 0.90625 0.503906c2.42188 3.11426 59.8613 107.612 127.682 232.525l123.875 226.644l-19.7227 41.8691c-115.57 246.713 -232.871 491.003 -235.641 489.965
c-3.80664 -1.38379 -251.902 -524.567 -251.902 -531.142c0 -2.07617 56.4004 -107.612 125.605 -234.948zM718.686 453.287c-23.6562 -40.8564 -212.869 -393.146 -218.34 -398.616c-2.41406 -3.10449 -225.958 405.439 -225.958 412.747
c0 17.1445 225.958 471.336 225.958 471.336c1.38477 -1.38379 52.5957 -108.65 113.842 -238.062l111.072 -235.295zM436.332 321.453c1.03906 -1.72949 36.6777 -3.11426 79.2383 -3.11426h77.8555l0.691406 94.1182l1.03906 94.4639
c13.2734 0.682617 26.5381 1.37402 39.793 2.0752v71.9727c-13.2549 0.701172 -26.5195 1.39258 -39.793 2.07617c-0.698242 22.4844 -1.39062 44.9756 -2.07617 67.4736h-93.0801v-69.2041h-145.328v-74.3936l39.791 -91.3496
c22.1465 -50.1738 40.832 -92.7344 41.8691 -94.1182zM498.27 506.921v-121.107l-8.65039 -1.03809c-0.483398 -0.0556641 -0.947266 -0.0917969 -1.40039 -0.0917969c0 0 -53.373 11.8389 -53.373 120.456c0 2.20508 4.20312 3.05957 16.5713 3.05957
c3.91602 0 8.64941 -0.0859375 14.3271 -0.241211z" />
</svg>
