<?xml version="1.0" standalone="no"?>
<!DOCTYPE svg PUBLIC "-//W3C//DTD SVG 1.1//EN" "http://www.w3.org/Graphics/SVG/1.1/DTD/svg11.dtd" >
<svg xmlns="http://www.w3.org/2000/svg" xmlns:xlink="http://www.w3.org/1999/xlink" version="1.1" viewBox="-10 0 1010 1000">
   <path fill="currentColor"
d="M371.973 230.104c101.19 -185.515 123.646 -225.417 129.197 -225.417c0.37207 0 0.667969 0.178711 0.90625 0.503906c2.42188 3.11426 59.8613 107.612 127.682 232.525l123.875 226.644l-19.7227 41.8691c-115.57 246.713 -232.871 491.003 -235.641 489.965
c-3.80664 -1.38379 -251.902 -524.567 -251.902 -531.142c0 -2.07617 56.4004 -107.612 125.605 -234.948zM718.686 453.287c-23.6562 -40.8564 -212.869 -393.146 -218.34 -398.616c-2.41406 -3.10449 -225.958 405.439 -225.958 412.747
c0 17.1445 225.958 471.336 225.958 471.336c1.38477 -1.38379 52.5957 -108.65 113.842 -238.062l111.072 -235.295zM466.09 329.065c17.3008 -10.0342 20.0703 -10.7266 57.4395 -10.7266h38.7539v332.18h-100.346v-243.252l-11.0723 2.42188
c-6.22852 1.38379 -17.9922 3.11426 -25.9512 4.49805l-14.8789 2.07617v-62.2832l18.6855 -7.2666c10.3789 -3.80664 26.9883 -11.7646 37.3691 -17.6475z" />
</svg>
