<?xml version="1.0" standalone="no"?>
<!DOCTYPE svg PUBLIC "-//W3C//DTD SVG 1.1//EN" "http://www.w3.org/Graphics/SVG/1.1/DTD/svg11.dtd" >
<svg xmlns="http://www.w3.org/2000/svg" xmlns:xlink="http://www.w3.org/1999/xlink" version="1.1" viewBox="-10 0 1010 1000">
   <path fill="currentColor"
d="M82.5078 914.191v-831.684h834.984v831.684h-834.984zM556.436 109.241c-17.334 -2.47656 -35.5605 -3.6748 -54.0176 -3.6748c-43.041 0 -87.3418 6.51465 -124.53 18.5264c-135.974 44.5537 -237.624 157.756 -267.656 298.35
c-4.16797 19.1709 -6.23047 48.6982 -6.23047 78.0342c0 28.7441 1.98047 57.3047 5.90039 75.7607c34.3232 162.047 151.154 279.208 313.861 313.861c18.1299 3.91992 46.6064 5.90039 75.3086 5.90039c29.2939 0 58.8223 -2.0625 77.8262 -6.23047
c120.462 -25.7422 218.812 -99.6699 273.928 -206.601c29.583 -56.8184 44.9688 -120.652 44.9688 -183.896c0 -25.6562 -2.53223 -51.2148 -7.6748 -76.1689c-33.9941 -163.696 -168.647 -291.089 -331.684 -313.861zM471.947 224.753
c10.6221 -2.02344 18.0576 -3.01367 25.5176 -3.01367c7.14258 0 14.3086 0.907227 24.3174 2.68359c67.9219 12.6934 110.299 72.1191 110.299 132.55c0 29.127 -9.8457 58.4873 -31.4209 82.9609l-9.90137 11.5518c22.2842 37.1221 44.3984 74.4131 66.3369 111.881
l13.8613 -4.62012c11.2207 -3.96094 17.1621 -4.29102 30.0332 -1.32031c32.2334 7.4707 51.0742 33.168 51.0742 60.2119c0 14.7676 -5.61816 29.9365 -17.7412 42.7588c-12.3076 13.1758 -28.4893 19.5547 -44.6455 19.5547c-20.668 0 -41.293 -10.4404 -53.7041 -30.4463
l-9.90137 -15.8418h-128.053c-125.082 0 -128.053 0 -130.033 6.60059c-6.5791 21.7148 -34.0654 38.8867 -61.7734 38.8867c-14.1533 0 -28.3643 -4.48047 -39.876 -15.124c-11.792 -10.6582 -18.5977 -29.5732 -18.5977 -47.6475
c0 -8.23047 1.41113 -16.2871 4.40625 -23.3096c5.94043 -14.5215 25.4121 -31.0234 42.2441 -35.6436c4.94043 -1.30762 8.92188 -1.97656 13.0977 -1.97656c5.30859 0 10.9326 1.08008 19.2451 3.29688c9.90137 2.96973 18.1523 4.9502 18.4824 4.62012
s15.1816 -24.752 32.6729 -54.4551l31.6836 -53.4658l-11.5518 -14.1914c-6.60059 -7.9209 -15.8418 -23.1025 -20.792 -33.9932c-8.25098 -17.1621 -9.24121 -23.4326 -9.24121 -52.4756c0 -30.6924 0.990234 -34.6533 10.8916 -55.4453
c18.8115 -38.2842 54.7852 -66.9971 93.0693 -74.5869zM615.512 354.785c0 -52.7324 -32.8945 -89.6494 -69.3066 -105.94c-15.583 -7.1416 -31.5742 -10.4268 -47.1621 -10.4268c-61.0137 0 -115.855 50.3193 -115.855 116.603
c0 2.86328 0.101562 5.75586 0.310547 8.67578c1.98047 23.7627 15.8418 58.416 28.7129 69.9668c1.63379 1.46191 2.88574 2.47559 4.25391 2.47559c3.88281 0 8.69434 -8.1709 25.7793 -37.459c50.4951 -85.8086 51.1553 -86.7988 59.4062 -86.7988
c6.27051 0 13.2012 9.57129 43.8945 62.0469l36.3037 62.0459l7.26074 -6.93066c14.8525 -13.7129 25.958 -44.917 26.4023 -74.2578zM536.964 390.429c-18.4824 -31.3525 -34.3232 -57.0957 -35.3135 -57.0957c-2.31055 0 -69.3076 113.201 -69.3076 116.832
c0 5.61035 38.2842 19.4717 57.7559 21.1221c1.78711 0.129883 3.66113 0.192383 5.60449 0.192383c22.8252 0 55.1934 -8.6123 67.6631 -18.3438l6.93066 -5.94141zM638.944 565.017c-2.64062 -4.9502 -17.1621 -29.7031 -32.3438 -55.4453l-27.3926 -46.5352
l-19.1416 9.57129c-19.5586 9.94727 -40.4082 14.8994 -61.1865 14.8994c-19.8936 0 -39.7217 -4.53906 -58.2861 -13.5791c-8.91016 -4.62109 -17.4912 -7.26074 -19.1416 -5.61133c-1.32031 1.32031 -16.1719 26.0732 -33.333 55.1162l-31.0234 52.4746l5.94043 11.5518
c3.30078 6.27051 6.93066 16.501 8.25098 22.4424l2.31055 10.5605l125.412 -0.660156l125.743 -0.990234l3.95996 -14.1914c2.31055 -7.59082 6.60059 -17.8213 9.57129 -22.1123c4.9502 -7.26074 4.9502 -9.24023 0.660156 -17.4912z" />
</svg>
