<?xml version="1.0" standalone="no"?>
<!DOCTYPE svg PUBLIC "-//W3C//DTD SVG 1.1//EN" "http://www.w3.org/Graphics/SVG/1.1/DTD/svg11.dtd" >
<svg xmlns="http://www.w3.org/2000/svg" xmlns:xlink="http://www.w3.org/1999/xlink" version="1.1" viewBox="-10 0 1010 1000">
   <path fill="currentColor"
d="M113.35 114.85h773.301v773.301h-773.301v-91.3008v-488.399v-193.601zM128.75 500.95h-6.59961v1.09961c1.46582 0 3.66602 0.367188 6.59961 1.10059c0 60.1328 14.667 118.066 44 173.8c10.2666 20.5332 23.833 41.0664 40.7002 61.5996
c21.2666 24.2002 38.8662 41.4336 52.7998 51.7002c16.1338 12.4668 30.7998 22.7334 44 30.7998c60.1338 35.2002 121.733 52.7998 184.8 52.7998h9.90039c64.5332 0 128.333 -18.6992 191.399 -56.0996c15.4004 -9.5332 30.4336 -20.5332 45.1006 -33
c17.5996 -16.1338 32.2666 -30.7998 44 -44c57.9336 -71.8662 86.8994 -151.8 86.8994 -239.8c0 -83.6006 -27.1328 -160.233 -81.3994 -229.9c-6.60059 -10.2666 -20.9004 -25.666 -42.9004 -46.2002c-22.7334 -19.0664 -41.0664 -32.6328 -55 -40.6992
c-60.1328 -35.9336 -123.566 -53.9004 -190.3 -53.9004h-4.40039c-74.7998 0 -144.833 22 -210.1 66c-14.667 11 -29.7002 23.4668 -45.0996 37.4004c-22.7334 22 -38.5 40.333 -47.3008 55c-13.9326 19.7998 -25.666 40.333 -35.1992 61.5996
c-7.33398 16.1338 -14.667 37.0332 -22 62.7002c-5.86719 27.8662 -8.80078 48.3994 -8.80078 61.5996c0 5.86719 -0.366211 14.667 -1.09961 26.4004zM376.25 213.85v88h177.1h22h16.5h7.7002c0 1.4668 0.367188 2.2002 1.10059 2.2002
c16.8662 2.2002 33 5.86719 48.3994 11c55 19.7998 97.167 52.0664 126.5 96.7998c27.1338 41.0674 40.7002 85.4336 40.7002 133.101c0 61.5996 -21.6338 116.967 -64.9004 166.1c-18.333 17.6006 -32.2666 29.334 -41.7998 35.2002
c-14.666 10.2666 -28.5996 17.9668 -41.7998 23.0996c-12.4668 5.13379 -27.8662 10.2666 -46.2002 15.4004c-5.13281 0.733398 -13.2002 1.83301 -24.2002 3.2998v1.10059c-4.39941 0 -12.833 0.366211 -25.2998 1.09961
c-4.39941 -0.733398 -13.5664 -1.09961 -27.5 -1.09961h-151.8v-181.5h172.7c0 -1.4668 1.83301 -2.2002 5.5 -2.2002c9.5332 -2.2002 19.0664 -7.7002 28.5996 -16.5c10.2666 -12.4668 15.4004 -25.2998 15.4004 -38.5v-2.2002c0 -20.5332 -8.7998 -37.0332 -26.4004 -49.5
c-8.7998 -5.13379 -16.5 -7.7002 -23.0996 -7.7002v-1.09961h-189.2v116.6c-33 -33 -98.6338 -98.2666 -196.9 -195.8z" />
</svg>
