<?xml version="1.0" standalone="no"?>
<!DOCTYPE svg PUBLIC "-//W3C//DTD SVG 1.1//EN" "http://www.w3.org/Graphics/SVG/1.1/DTD/svg11.dtd" >
<svg xmlns="http://www.w3.org/2000/svg" xmlns:xlink="http://www.w3.org/1999/xlink" version="1.1" viewBox="-10 0 1010 1000">
   <path fill="currentColor"
d="M113.35 114.85h773.301v773.301h-773.301v-91.3008v-488.399v-193.601zM128.75 500.95h-6.59961v1.09961c1.46582 0 3.66602 0.367188 6.59961 1.10059c0 60.1328 14.667 118.066 44 173.8c10.2666 20.5332 23.833 41.0664 40.7002 61.5996
c21.2666 24.2002 38.8662 41.4336 52.7998 51.7002c16.1338 12.4668 30.7998 22.7334 44 30.7998c60.1338 35.2002 121.733 52.7998 184.8 52.7998h9.90039c64.5332 0 128.333 -18.6992 191.399 -56.0996c15.4004 -9.5332 30.4336 -20.5332 45.1006 -33
c17.5996 -16.1338 32.2666 -30.7998 44 -44c57.9336 -71.8662 86.8994 -151.8 86.8994 -239.8c0 -83.6006 -27.1328 -160.233 -81.3994 -229.9c-6.60059 -10.2666 -20.9004 -25.666 -42.9004 -46.2002c-22.7334 -19.0664 -41.0664 -32.6328 -55 -40.6992
c-60.1328 -35.9336 -123.566 -53.9004 -190.3 -53.9004h-4.40039c-74.7998 0 -144.833 22 -210.1 66c-14.667 11 -29.7002 23.4668 -45.0996 37.4004c-22.7334 22 -38.5 40.333 -47.3008 55c-13.9326 19.7998 -25.666 40.333 -35.1992 61.5996
c-7.33398 16.1338 -14.667 37.0332 -22 62.7002c-5.86719 27.8662 -8.80078 48.3994 -8.80078 61.5996c0 5.86719 -0.366211 14.667 -1.09961 26.4004zM722.75 240.25c3.66699 2.93359 5.5 4.7666 5.5 5.5c8.7998 82.1338 13.2002 144.833 13.2002 188.1v19.8008
c0 66.7334 -10.6338 122.1 -31.9004 166.1c-19.0664 31.5332 -37.7666 60.1338 -56.0996 85.7998c-8.7998 12.4668 -22.7334 28.6006 -41.7998 48.4004c-29.334 27.8662 -57.9336 53.166 -85.8008 75.8994c-5.13281 3.66699 -12.0996 9.16699 -20.8994 16.5h-6.60059
c-30.7998 -23.4658 -61.2334 -48.3994 -91.2998 -74.7998c-21.2666 -21.2666 -35.5664 -36.2998 -42.8994 -45.0996c-20.5342 -25.667 -38.1338 -50.9668 -52.8008 -75.9004c-15.3994 -22 -26.0332 -41.0664 -31.8994 -57.2002
c-13.9336 -40.333 -20.9004 -89.4658 -20.9004 -147.399v-19.7998c0 -34.4668 3.2998 -94.6006 9.90039 -180.4c1.4668 -1.4668 3.66602 -3.2998 6.59961 -5.5h447.7z" />
</svg>
