<?xml version="1.0" standalone="no"?>
<!DOCTYPE svg PUBLIC "-//W3C//DTD SVG 1.1//EN" "http://www.w3.org/Graphics/SVG/1.1/DTD/svg11.dtd" >
<svg xmlns="http://www.w3.org/2000/svg" xmlns:xlink="http://www.w3.org/1999/xlink" version="1.1" viewBox="-10 0 1010 1000">
   <path fill="currentColor"
d="M113.35 114.85h773.301v773.301h-773.301v-91.3008v-488.399v-193.601zM128.75 500.95h-6.59961v1.09961c1.46582 0 3.66602 0.367188 6.59961 1.10059c0 63.0664 16.1338 123.566 48.4004 181.5c9.5332 16.8662 21.6328 34.4658 36.2998 52.7998
c16.8662 20.5332 34.4668 38.1328 52.7998 52.7998s28.5996 22 30.7998 22h1.10059c0 -11.7334 4.0332 -19.4336 12.0996 -23.0996c5.86621 -2.2002 11.3662 -4.7666 16.5 -7.7002c3.66699 -5.13379 10.6338 -16.5 20.9004 -34.1006
c10.2666 -15.3994 19.7998 -23.0996 28.5996 -23.0996c0.733398 0.733398 1.83301 1.09961 3.2998 1.09961h2.2002c6.59961 0 13.5664 -9.89941 20.9004 -29.6992c3.66602 -8.06738 8.06641 -12.1006 13.1992 -12.1006h4.40039c9.5332 0 16.1338 1.83398 19.7998 5.5
c-1.4668 0.733398 -6.2334 3.66699 -14.2998 8.7998c-5.86621 3.66699 -8.7998 8.06738 -8.7998 13.2002v3.2998c0 5.86719 1.4668 8.80078 4.39941 8.80078c0 0.733398 4.40039 1.09961 13.2002 1.09961h15.4004c1.4668 -2.93359 4.7666 -6.2334 9.89941 -9.90039
c11 -15.3994 18.334 -28.2334 22 -38.5c2.2002 -1.46582 4.7666 -3.66602 7.7002 -6.59961v-1.09961c0 -3.66699 -12.833 -15.4004 -38.5 -35.2002c-9.5332 -5.86719 -24.5664 -17.9668 -45.0996 -36.2998c-16.8672 -13.9336 -31.9004 -27.5 -45.1006 -40.7002
c-15.3994 -18.334 -27.8662 -37.4004 -37.3994 -57.2002c-9.5332 -18.333 -19.4336 -41.7998 -29.7002 -70.4004c-10.2666 -17.5996 -15.4004 -30.0664 -15.4004 -37.3994v-2.2002c0.733398 -4.40039 1.83398 -13.5664 3.30078 -27.5
c0 -0.733398 0.366211 -2.56641 1.09961 -5.5c0 -2.2002 -2.56641 -9.5332 -7.7002 -22v-5.5s2.56641 -8.7998 7.7002 -13.2002c1.4668 -6.59961 4.40039 -22.7334 8.7998 -48.3994c2.2002 -10.2666 4.7666 -17.6006 7.7002 -22
c6.59961 -5.86719 12.4668 -12.4668 17.5996 -19.8008c7.33398 -8.7998 12.834 -13.9326 16.5 -15.3994c7.33398 -2.93359 16.5 -4.40039 27.5 -4.40039c24.9336 0 39.2334 1.10059 42.9004 3.2998c5.86621 2.2002 15.0332 6.9668 27.5 14.3008
c12.4668 3.66602 23.0996 9.16602 31.9004 16.5c13.1992 10.2666 28.9658 26.3994 47.2998 48.3994c0.733398 0.733398 1.83301 1.4668 3.2998 2.2002c-1.4668 2.93359 -16.1338 4.7666 -44 5.5c-21.2666 0 -34.0996 5.13379 -38.5 15.4004
c-1.4668 3.66602 -2.2002 6.96582 -2.2002 9.89941v14.2998c0 10.2666 4.40039 18.7002 13.2002 25.3008c11.7334 11 33.3662 21.2666 64.9004 30.7998c2.93262 0 13.5664 5.13281 31.8994 15.3994c7.33398 3.66699 16.1338 10.2666 26.4004 19.8008
c14.666 15.3994 29.333 33.7334 44 55c11 16.8662 24.5664 33.7334 40.7002 50.5996c21.2666 20.5332 40.6992 37.4004 58.2998 50.5996c16.1328 11.7334 34.4668 27.5 55 47.3008c20.5332 16.1328 35.2002 24.1992 44 24.1992c-11.7334 11 -30.0664 16.5 -55 16.5h-5.5
c-10.2666 0 -34.4668 -1.83301 -72.6006 -5.5c-31.5332 0 -55.7334 -2.93262 -72.5996 -8.7998c-2.93359 -2.2002 -5.86621 -3.2998 -8.7998 -3.2998c-3.66699 0.733398 -5.5 6.9668 -5.5 18.7002c0 8.06641 -2.56641 20.5332 -7.7002 37.3994
c-1.4668 6.60059 -2.2002 11.3672 -2.2002 14.3008c19.0664 -0.733398 57.2002 -1.4668 114.4 -2.2002c11 0 17.2334 1.83301 18.7002 5.5c0.733398 1.4668 1.09961 3.2998 1.09961 5.5s-2.2002 3.2998 -6.59961 3.2998c-2.93359 0 -8.80078 5.13379 -17.6006 15.4004
c-2.93359 2.19922 -6.9668 3.2998 -12.0996 3.2998c-10.2666 0 -26.0332 0.366211 -47.2998 1.09961h-51.7002c0 5.86719 -5.13379 10.6338 -15.4004 14.2998h-3.2998c-7.33301 0 -15.7666 -4.7666 -25.2998 -14.2998h-45.1006c0 9.5332 -1.46582 14.2998 -4.39941 14.2998
c-3.66699 0.733398 -9.90039 1.4668 -18.7002 2.2002c-6.59961 0 -12.4668 -5.5 -17.5996 -16.5h-26.4004s-33.7334 13.2002 -48.4004 39.6006c-8.7998 11 -14.2998 21.2666 -16.5 30.7998c-3.66602 8.7998 -6.96582 13.2002 -9.89941 13.2002v1.09961
c50.5996 22.7334 100.467 34.0996 149.6 34.0996h9.90039c64.5332 0 128.333 -18.6992 191.399 -56.0996c15.4004 -9.5332 30.4336 -20.5332 45.1006 -33c17.5996 -16.1338 32.2666 -30.7998 44 -44c57.9336 -71.8662 86.8994 -151.8 86.8994 -239.8
c0 -83.6006 -27.1328 -160.233 -81.3994 -229.9c-6.60059 -10.2666 -20.9004 -25.666 -42.9004 -46.2002c-22.7334 -19.0664 -41.0664 -32.6328 -55 -40.6992c-60.1328 -35.9336 -123.566 -53.9004 -190.3 -53.9004h-4.40039c-74.7998 0 -144.833 22 -210.1 66
c-14.667 11 -29.7002 23.4668 -45.0996 37.4004c-22.7334 22 -38.5 40.333 -47.3008 55c-13.9326 19.7998 -25.666 40.333 -35.1992 61.5996c-7.33398 16.1338 -14.667 37.0332 -22 62.7002c-5.86719 27.8662 -8.80078 48.3994 -8.80078 61.5996
c0 5.86719 -0.366211 14.667 -1.09961 26.4004zM503.85 664.85c0.733398 3.66699 1.10059 10.2666 1.10059 19.8008c0 10.2666 -1.4668 23.0996 -4.40039 38.5h33c3.66699 -9.53418 8.43359 -20.9004 14.2998 -34.1006c4.40039 -8.06641 6.60059 -16.1328 6.60059 -24.2002
v-2.19922c0 -5.86719 -8.06641 -8.80078 -24.2002 -8.80078c-0.733398 -0.733398 -1.83301 -1.09961 -3.2998 -1.09961c-9.5332 0 -16.5 1.83301 -20.9004 5.5c0 1.4668 -0.733398 3.66699 -2.2002 6.59961z" />
</svg>
