<?xml version="1.0" standalone="no"?>
<!DOCTYPE svg PUBLIC "-//W3C//DTD SVG 20010904//EN"
 "http://www.w3.org/TR/2001/REC-SVG-20010904/DTD/svg10.dtd">
<svg version="1.0" xmlns="http://www.w3.org/2000/svg"
 width="169.000000pt" height="300.000000pt" viewBox="0 0 169.000000 300.000000"
 preserveAspectRatio="xMidYMid meet">
<metadata>
Created by potrace 1.16, written by Peter Selinger 2001-2019
</metadata>
<g transform="translate(0.000000,300.000000) scale(0.100000,-0.100000)"
fill="#000000" stroke="none">
<path d="M794 2821 c-32 -20 -64 -74 -64 -110 0 -39 27 -88 64 -116 l36 -27 0
-142 0 -142 -30 -22 c-17 -13 -38 -39 -48 -59 l-17 -37 -157 -39 -156 -39 -38
26 c-64 44 -159 31 -196 -26 -73 -111 31 -250 156 -208 40 13 82 61 88 100 3
23 13 28 123 58 186 51 199 51 241 11 l34 -33 0 -792 0 -793 -30 -21 c-111
-79 -59 -250 77 -250 133 0 181 180 67 251 l-34 21 0 789 0 789 28 17 c15 9
37 25 48 35 21 19 24 18 125 -7 139 -34 149 -39 149 -71 0 -38 43 -90 86 -104
125 -42 229 97 156 208 -35 54 -128 69 -189 31 l-34 -21 -112 27 c-62 15 -119
31 -127 36 -8 4 -24 25 -35 46 -11 21 -37 49 -58 62 l-37 24 0 138 0 138 30
21 c41 29 60 69 60 126 0 41 -5 51 -39 85 -34 35 -44 39 -87 39 -30 0 -61 -7
-80 -19z"/>
</g>
</svg>
