<?xml version="1.0" standalone="no"?>
<!DOCTYPE svg PUBLIC "-//W3C//DTD SVG 20010904//EN"
 "http://www.w3.org/TR/2001/REC-SVG-20010904/DTD/svg10.dtd">
<svg version="1.0" xmlns="http://www.w3.org/2000/svg"
 width="300.000000pt" height="300.000000pt" viewBox="0 0 300.000000 300.000000"
 preserveAspectRatio="xMidYMid meet">
<metadata>
Created by potrace 1.16, written by Peter Selinger 2001-2019
</metadata>
<g transform="translate(0.000000,300.000000) scale(0.100000,-0.100000)"
fill="#000000" stroke="none">
<path d="M1447 2826 c-72 -26 -107 -76 -107 -151 0 -62 25 -111 72 -142 l39
-26 -3 -126 -3 -126 -82 -17 c-163 -34 -281 -96 -393 -209 -113 -114 -175
-230 -208 -392 l-17 -82 -126 -3 -126 -3 -26 39 c-31 48 -80 72 -145 72 -158
0 -215 -208 -81 -298 28 -20 44 -23 95 -20 71 4 106 26 139 84 l22 39 122 3
c92 2 122 0 125 -10 2 -7 11 -49 19 -93 29 -158 94 -281 207 -395 113 -112
230 -175 393 -208 l82 -17 3 -126 3 -126 -39 -26 c-48 -31 -72 -80 -72 -145 0
-158 208 -215 298 -81 20 28 23 44 20 95 -4 71 -26 106 -84 139 l-39 22 0 124
0 123 73 13 c339 56 579 296 635 635 l13 73 123 0 124 0 22 -39 c33 -58 68
-80 139 -84 51 -3 67 0 95 20 134 90 77 298 -81 298 -65 0 -114 -24 -145 -72
l-26 -39 -126 3 -126 3 -17 82 c-33 163 -95 279 -209 392 -114 115 -236 179
-394 208 -44 8 -86 17 -93 19 -10 3 -12 33 -10 125 l3 122 39 22 c58 33 80 68
84 139 3 51 0 67 -20 95 -43 64 -122 92 -191 67z m-2 -795 l0 -133 -66 -23
c-127 -42 -211 -127 -254 -253 l-22 -67 -132 -3 c-101 -2 -133 0 -136 10 -9
24 34 171 72 248 52 104 179 231 283 283 73 36 210 78 240 74 12 -2 15 -25 15
-136z m254 107 c160 -49 321 -182 394 -328 38 -77 81 -224 72 -248 -3 -10 -35
-12 -136 -10 l-132 3 -22 67 c-48 141 -143 228 -290 263 l-50 11 -3 124 c-1
68 0 130 3 138 6 17 66 10 164 -20z m-61 -358 c87 -44 168 -147 160 -203 -3
-20 -10 -22 -69 -25 l-67 -3 -22 36 c-12 19 -42 47 -66 61 l-44 26 0 62 c0 35
3 66 7 69 13 13 40 7 101 -23z m-190 -51 c3 -67 3 -67 -32 -88 -19 -12 -45
-38 -57 -57 -21 -35 -21 -35 -88 -32 -59 3 -66 5 -69 25 -4 25 26 87 64 132
35 42 122 92 154 89 24 -3 25 -7 28 -69z m-333 -314 c35 -147 122 -242 263
-290 l67 -22 3 -132 c2 -101 0 -133 -10 -136 -24 -9 -171 34 -248 72 -104 52
-231 179 -283 283 -40 80 -84 238 -74 264 6 14 25 16 139 14 l132 -3 11 -50z
m239 11 c14 -24 42 -54 61 -66 l36 -22 -3 -67 c-3 -62 -4 -66 -28 -69 -35 -4
-128 54 -166 105 -38 49 -69 126 -61 148 5 11 22 15 71 15 l64 0 26 -44z m454
22 c5 -26 -40 -118 -77 -161 -36 -40 -148 -101 -178 -95 -15 3 -18 14 -21 69
l-3 67 45 26 c28 16 56 44 72 72 l26 45 67 -3 c53 -2 66 -6 69 -20z m359 6
c10 -26 -34 -184 -74 -264 -52 -104 -179 -231 -283 -283 -80 -40 -238 -84
-264 -74 -14 6 -16 25 -14 138 l3 131 67 17 c83 21 165 76 214 142 35 48 74
141 74 177 0 10 3 22 7 25 3 4 64 7 135 7 108 0 130 -3 135 -16z"/>
</g>
</svg>
