<?xml version="1.0" standalone="no"?>
<!DOCTYPE svg PUBLIC "-//W3C//DTD SVG 20010904//EN"
 "http://www.w3.org/TR/2001/REC-SVG-20010904/DTD/svg10.dtd">
<svg version="1.0" xmlns="http://www.w3.org/2000/svg"
 width="246.000000pt" height="300.000000pt" viewBox="0 0 246.000000 300.000000"
 preserveAspectRatio="xMidYMid meet">
<metadata>
Created by potrace 1.16, written by Peter Selinger 2001-2019
</metadata>
<g transform="translate(0.000000,300.000000) scale(0.100000,-0.100000)"
fill="#000000" stroke="none">
<path d="M1100 2719 c-99 -165 -109 -201 -58 -207 24 -3 32 5 63 53 24 38 42
55 53 53 15 -3 17 -30 20 -286 2 -230 0 -283 -11 -288 -8 -3 -49 8 -93 23 -72
25 -91 27 -224 27 -133 0 -152 -2 -225 -27 -293 -102 -478 -346 -493 -648 -6
-136 14 -231 75 -359 39 -81 59 -107 137 -185 73 -73 108 -99 176 -133 186
-92 370 -105 568 -41 34 12 69 18 77 15 12 -4 15 -53 17 -293 l3 -288 23 -3
c51 -7 52 -1 52 305 0 236 2 285 14 289 8 3 45 -6 83 -19 196 -71 393 -59 583
35 68 34 103 60 176 133 78 78 98 104 137 185 61 128 81 223 74 359 -13 285
-189 530 -452 632 -159 62 -341 65 -504 9 -55 -19 -97 -28 -102 -23 -5 5 -8
132 -7 289 3 254 5 279 20 282 12 2 27 -13 49 -47 22 -37 37 -51 53 -51 26 0
46 18 45 40 0 8 -42 83 -92 165 -125 203 -117 203 -237 4z m-125 -714 c89 -19
144 -40 151 -60 4 -9 -15 -38 -46 -72 -117 -131 -179 -279 -187 -449 -11 -209
46 -371 188 -535 27 -31 49 -62 49 -68 0 -14 -66 -43 -140 -62 -30 -7 -98 -13
-150 -12 -173 2 -327 70 -449 198 -121 128 -175 263 -175 440 0 94 4 122 28
190 109 316 414 495 731 430z m831 -19 c193 -62 340 -209 410 -411 24 -68 28
-96 28 -190 0 -77 -5 -128 -18 -170 -82 -275 -329 -465 -606 -468 -132 -1
-290 41 -290 78 0 8 19 34 41 57 55 57 93 114 135 201 50 105 67 199 61 332
-7 177 -68 325 -187 458 -31 34 -50 63 -46 72 7 19 61 41 144 60 95 21 226 13
328 -19z m-461 -203 c88 -110 145 -270 145 -405 0 -82 -26 -185 -68 -273 -46
-94 -120 -182 -145 -172 -16 6 -17 44 -17 450 0 244 3 447 7 450 15 16 34 4
78 -50z m-167 -396 c2 -394 1 -428 -15 -434 -34 -13 -115 106 -161 237 -22 63
-26 93 -26 190 -1 157 27 245 121 378 79 112 78 120 81 -371z"/>
</g>
</svg>
