<?xml version="1.0" standalone="no"?>
<!DOCTYPE svg PUBLIC "-//W3C//DTD SVG 20010904//EN"
 "http://www.w3.org/TR/2001/REC-SVG-20010904/DTD/svg10.dtd">
<svg version="1.0" xmlns="http://www.w3.org/2000/svg"
 width="300.000000pt" height="225.000000pt" viewBox="0 0 300.000000 225.000000"
 preserveAspectRatio="xMidYMid meet">
<metadata>
Created by potrace 1.16, written by Peter Selinger 2001-2019
</metadata>
<g transform="translate(0.000000,225.000000) scale(0.100000,-0.100000)"
fill="#000000" stroke="none">
<path d="M1397 2040 l-34 -40 -384 0 c-405 0 -409 0 -409 -45 0 -32 -359 -947
-381 -971 -23 -24 -25 -67 -5 -84 8 -6 25 -31 36 -55 55 -113 193 -175 387
-175 111 0 192 17 266 57 86 47 147 136 147 214 0 13 -74 230 -166 482 -91
251 -162 462 -159 467 4 6 135 10 352 10 333 0 346 -1 374 -21 l29 -20 0 -848
c0 -809 1 -849 18 -864 22 -20 67 -22 79 -4 4 6 10 404 13 882 l5 870 373 3
c306 2 373 0 378 -11 4 -12 -299 -870 -327 -924 -10 -18 -8 -32 10 -77 60
-146 192 -216 406 -216 203 0 330 62 396 191 30 60 36 98 20 115 -5 5 -89 212
-185 460 -126 323 -176 463 -176 492 0 74 11 72 -457 72 l-412 0 -12 23 c-20
39 -51 57 -101 57 -42 0 -50 -4 -81 -40z m1165 -639 c82 -211 147 -390 144
-397 -8 -21 -594 -20 -602 0 -4 11 254 748 273 779 19 31 45 -23 185 -382z
m-1924 367 c20 -25 274 -747 269 -762 -6 -14 -43 -16 -301 -16 -190 0 -297 4
-301 10 -5 8 195 540 281 748 13 33 34 41 52 20z m280 -879 c5 -26 -64 -86
-127 -110 -87 -35 -250 -38 -342 -9 -82 27 -167 94 -156 123 6 16 33 17 314
15 277 -3 308 -5 311 -19z m1799 5 c11 -30 -74 -99 -152 -123 -91 -28 -228
-29 -318 -1 -77 24 -165 95 -154 123 6 15 35 17 312 17 275 0 306 -2 312 -16z"/>
</g>
</svg>
