<?xml version="1.0" standalone="no"?>
<!DOCTYPE svg PUBLIC "-//W3C//DTD SVG 20010904//EN"
 "http://www.w3.org/TR/2001/REC-SVG-20010904/DTD/svg10.dtd">
<svg version="1.0" xmlns="http://www.w3.org/2000/svg"
 width="300.000000pt" height="225.000000pt" viewBox="0 0 300.000000 225.000000"
 preserveAspectRatio="xMidYMid meet">
<metadata>
Created by potrace 1.16, written by Peter Selinger 2001-2019
</metadata>
<g transform="translate(0.000000,225.000000) scale(0.100000,-0.100000)"
fill="#000000" stroke="none">
<path d="M2392 2090 c-32 -14 -155 -132 -440 -420 l-397 -400 -62 6 -62 7
-315 317 c-315 316 -316 317 -316 359 0 36 -6 49 -34 77 -29 29 -41 34 -81 34
-40 0 -52 -5 -81 -34 -29 -29 -34 -41 -34 -81 0 -40 5 -52 34 -81 31 -31 39
-34 93 -34 l58 0 301 -302 302 -303 5 -76 5 -76 -386 -385 c-213 -212 -397
-391 -409 -397 -36 -18 -104 -13 -160 14 -130 60 -227 230 -182 318 6 12 119
130 250 262 132 133 239 248 239 256 0 24 -36 52 -57 45 -11 -3 -127 -115
-260 -249 -262 -263 -268 -272 -266 -379 3 -153 156 -327 316 -359 45 -9 71
-9 115 1 l57 12 415 414 416 414 44 0 45 0 344 -344 343 -343 -7 -41 c-13 -80
40 -142 122 -142 86 0 139 91 98 170 -21 41 -53 60 -100 60 -39 0 -46 6 -398
358 -311 311 -357 361 -357 387 0 27 52 82 418 447 461 459 439 443 539 413
56 -17 138 -76 172 -124 55 -76 75 -165 50 -214 -6 -12 -119 -130 -250 -262
-132 -133 -239 -248 -239 -256 0 -24 36 -52 57 -45 28 9 478 465 498 506 58
112 28 241 -82 361 -104 112 -257 158 -361 109z"/>
</g>
</svg>
