<?xml version="1.0" standalone="no"?>
<!DOCTYPE svg PUBLIC "-//W3C//DTD SVG 1.1//EN" "http://www.w3.org/Graphics/SVG/1.1/DTD/svg11.dtd" >
<svg xmlns="http://www.w3.org/2000/svg" xmlns:xlink="http://www.w3.org/1999/xlink" version="1.1" viewBox="-10 0 1010 1000">
   <path fill="currentColor"
d="M113.35 114.85h773.301v773.301h-773.301v-91.3008v-488.399v-193.601zM231.05 271.05c0 29.334 8.7998 55.7334 26.4004 79.2002c7.33301 9.5332 13.2002 21.2666 17.5996 35.2002v11c0 12.4668 -5.13281 23.833 -15.3994 34.0996
c-9.53418 16.8672 -14.3008 37.0332 -14.3008 60.5c0 16.8672 4.03418 30.7998 12.1006 41.7998c23.4668 47.667 42.5332 82.1338 57.2002 103.4c3.66602 7.33301 7.69922 13.2002 12.0996 17.5996c9.5332 -23.4658 25.667 -56.4658 48.4004 -99
c21.2666 -39.5996 31.8994 -60.5 31.8994 -62.6992c5.86719 -16.1338 8.7998 -30.8008 8.7998 -44v-6.60059c-8.06641 5.86719 -19.0664 8.7998 -33 8.7998c-13.1992 0 -24.1992 -4.7666 -33 -14.2998c-11.7334 -11.7334 -19.0664 -22.3662 -22 -31.8994v-3.30078
c2.2002 -7.33301 6.2334 -12.4658 12.1006 -15.3994c5.86621 -2.2002 11 -3.2998 15.3994 -3.2998c14.667 0 31.167 5.86621 49.5 17.5996c6.60059 6.59961 6.60059 6.59961 14.3008 14.2998c7.33301 8.06641 11 18.7002 11 31.9004v4.39941
c0 21.2666 -6.60059 44 -19.8008 68.2002c-4.39941 7.33398 -12.833 22.3672 -25.2998 45.1006c-20.5332 38.1328 -36.2998 71.1328 -47.2998 99c-0.733398 1.46582 -1.4668 4.0332 -2.2002 7.69922c0 0.733398 0.367188 3.30078 1.10059 7.7002
c-2.2002 15.4004 -3.30078 24.9336 -3.30078 28.6006c0 14.666 7.33398 29.6992 22 45.0996c5.13379 8.06641 26.7666 31.167 64.9004 69.2998c15.4004 15.4004 26.0332 23.1006 31.9004 23.1006c0 0.733398 4.0332 1.46582 12.0996 2.19922
c4.40039 0 13.2002 -2.19922 26.4004 -6.59961h1.09961c0.733398 0 2.93359 0.366211 6.59961 1.09961c1.4668 0 4.7666 -0.366211 9.90039 -1.09961c3.66699 0.733398 11.3662 2.93359 23.0996 6.59961h6.60059c11.7334 0 21.2666 -4.0332 28.5996 -12.0996
c5.13379 -3.66699 19.4336 -17.5996 42.9004 -41.7998c35.2002 -37.4004 53.166 -59.0332 53.8994 -64.9004c2.93359 -5.86621 4.40039 -12.833 4.40039 -20.8994c-0.733398 -6.60059 -1.4668 -16.1338 -2.2002 -28.6006c0 -4.39941 0.367188 -8.06641 1.10059 -11
c-9.53418 -24.2002 -21.2666 -50.2334 -35.2002 -78.0996c-9.5332 -18.334 -22.7334 -42.167 -39.6006 -71.5c-4.39941 -6.60059 -8.43262 -15.4004 -12.0996 -26.4004c-4.40039 -15.3994 -6.59961 -30.0664 -6.59961 -44s3.66602 -25.2998 11 -34.0996v1.09961
c0 -1.4668 4.7666 -6.2334 14.2998 -14.2998c17.5996 -11.7334 34.0996 -17.5996 49.5 -17.5996c13.2002 0 22 5.5 26.3994 16.5c0 0.733398 0.367188 1.83301 1.10059 3.2998c0 5.86621 -5.86719 16.1328 -17.6006 30.7998
c-9.5332 8.7998 -17.9658 13.9336 -25.2998 15.4004c-4.39941 1.46582 -9.16602 2.19922 -14.2998 2.19922c-13.2002 0 -23.4668 -2.93262 -30.7998 -8.7998c-0.733398 1.4668 -1.10059 3.66699 -1.10059 6.60059c0 24.9326 9.53418 52.4326 28.6006 82.5
c30.7998 55.7334 50.9668 96.7998 60.5 123.199c8.7998 -11.7334 19.4336 -28.5996 31.8994 -50.5996c26.4004 -49.8662 41.0674 -78.4668 44 -85.7998c2.2002 -7.33398 3.30078 -16.5 3.30078 -27.5c0 -22 -4.40039 -41.0664 -13.2002 -57.2002
c-5.86719 -8.06641 -9.90039 -13.9336 -12.1006 -17.5996c-2.93262 -6.60059 -4.39941 -13.2002 -4.39941 -19.8008c0 -13.9326 9.89941 -34.4658 29.7002 -61.5996c9.5332 -19.0664 14.2998 -40.333 14.2998 -63.7998c0 -24.2002 -4.7666 -47.2998 -14.2998 -69.2998
c-8.80078 -16.8672 -21.2666 -30.4336 -37.4004 -40.7002c-1.4668 -1.4668 -4.40039 -2.56641 -8.7998 -3.2998c-18.334 0 -36.667 7.33301 -55 22c-48.4004 28.5996 -83.6006 43.6328 -105.601 45.0996c-3.66602 0 -16.1328 -1.83301 -37.3994 -5.5h-12.1006
c-8.06641 0 -20.8994 1.4668 -38.5 4.40039h-4.39941h-3.2998c-15.4004 0 -46.5674 -12.834 -93.5 -38.5c-6.60059 -3.66699 -16.5 -9.90039 -29.7002 -18.7002c-12.4668 -5.86719 -24.2002 -8.7998 -35.2002 -8.7998h-1.09961
c-6.60059 0 -15.4004 5.86621 -26.4004 17.5996c-9.5332 8.7998 -16.8662 19.0664 -22 30.7998c-8.7998 20.5332 -13.2002 42.5332 -13.2002 66zM588.55 609.85c8.7998 0 13.9336 2.93359 15.4004 8.80078v7.69922c0 15.4004 -5.13379 24.9336 -15.4004 28.6006
c-3.66602 1.4668 -8.43359 2.2002 -14.2998 2.2002h-8.7998c-4.40039 0 -6.60059 2.56641 -6.60059 7.69922c0 8.06738 -2.93262 17.6006 -8.7998 28.6006c-5.13281 8.06641 -10.6328 12.0996 -16.5 12.0996c-2.2002 1.4668 -3.2998 4.0332 -3.2998 7.7002
c0 2.93359 0.366211 6.9668 1.09961 12.0996v2.2002c0 6.60059 8.80078 13.9336 26.4004 22c11.7334 4.40039 22.7334 6.60059 33 6.60059v27.5c-20.5332 0 -41.7998 -6.60059 -63.7998 -19.8008c-8.7998 -5.86621 -14.2998 -11.7334 -16.5 -17.5996
c-1.4668 -2.93359 -3.2998 -4.7666 -5.5 -5.5c-0.733398 -0.733398 -2.2002 -1.83301 -4.40039 -3.2998c-2.2002 2.93359 -5.13281 4.7666 -8.7998 5.5c-4.40039 13.2002 -17.9668 24.5664 -40.7002 34.0996c-15.3994 5.13379 -28.5996 7.7002 -39.5996 7.7002v-28.5996
c15.3994 0 31.5332 -5.13379 48.3994 -15.4004c6.60059 -5.13379 9.90039 -9.90039 9.90039 -14.2998c0.733398 -2.2002 1.09961 -5.86719 1.09961 -11c0 -6.60059 -1.83301 -9.90039 -5.5 -9.90039c-3.66602 0 -7.33301 -2.2002 -11 -6.59961
c-5.13281 -6.60059 -8.7998 -14.667 -11 -24.2002c-0.733398 -11 -1.83301 -16.5 -3.2998 -16.5h-5.5h-5.5c-15.3994 0 -24.5664 -4.0332 -27.5 -12.0996c-2.93359 -5.86719 -4.39941 -12.1006 -4.39941 -18.7002v-6.60059c0 -6.59961 5.13281 -9.89941 15.3994 -9.89941
c11.7334 0 28.6006 4.0332 50.6006 12.0996c1.46582 2.2002 2.19922 6.60059 2.19922 13.2002c2.93359 5.13379 8.43359 7.7002 16.5 7.7002h8.80078c2.93262 0 6.2334 0.733398 9.89941 2.2002c2.2002 -2.93359 5.86719 -4.40039 11 -4.40039
c1.4668 0.733398 4.0332 1.09961 7.7002 1.09961c7.33301 0 12.4668 -2.19922 15.4004 -6.59961c0.733398 -6.59961 1.83301 -11 3.2998 -13.2002c2.2002 -2.93359 12.833 -6.59961 31.8994 -11c4.40039 0 10.6338 -0.733398 18.7002 -2.2002z" />
</svg>
