<?xml version="1.0" standalone="no"?>
<!DOCTYPE svg PUBLIC "-//W3C//DTD SVG 1.1//EN" "http://www.w3.org/Graphics/SVG/1.1/DTD/svg11.dtd" >
<svg xmlns="http://www.w3.org/2000/svg" xmlns:xlink="http://www.w3.org/1999/xlink" version="1.1" viewBox="-10 0 1010 1000">
   <path fill="currentColor"
d="M113.35 114.85h773.301v773.301h-773.301v-91.3008v-488.399v-193.601zM116.65 502.05c0 54.2666 11.3662 106.334 34.0996 156.2c9.5332 21.2666 21.6338 42.5332 36.2998 63.7998c8.06641 12.4668 20.9004 27.8672 38.5 46.2002
c24.2002 23.4668 42.167 39.2334 53.9004 47.2998c67.4668 46.9336 140.8 70.4004 220 70.4004h1.09961c91.667 0 174.533 -30.4336 248.601 -91.2998c24.1992 -22 40.6992 -39.2334 49.5 -51.7002c22 -27.8672 37.0332 -51.334 45.0996 -70.4004
c27.1338 -53.5332 40.7002 -110.366 40.7002 -170.5v-1.09961c0 -85.7998 -27.1338 -164.267 -81.4004 -235.4c-7.33301 -10.2666 -22.3662 -26.7666 -45.0996 -49.5c-4.40039 -3.66602 -11.3672 -9.16602 -20.9004 -16.5c-71.1328 -55 -150.333 -82.5 -237.6 -82.5
c-84.334 0 -162.066 26.4004 -233.2 79.2002c-11.7334 10.2666 -25.2998 23.0996 -40.7002 38.5c-24.2002 24.9336 -39.5996 44.3662 -46.2002 58.2998c-11 15.4004 -21.6328 34.1006 -31.8994 56.1006c-20.5332 49.8662 -30.7998 100.833 -30.7998 152.899zM569.85 219.35
c5.13379 0 11 4.03418 17.6006 12.1006c0.733398 2.93359 1.83301 9.89941 3.2998 20.8994c0.733398 1.4668 3.66699 5.5 8.7998 12.1006c14.667 19.0664 22.7334 33 24.2002 41.7998c2.2002 2.93359 5.5 6.9668 9.90039 12.0996
c5.13281 7.33398 9.89941 17.6006 14.2998 30.8008c5.86621 19.7998 8.7998 38.1328 8.7998 55v7.69922c-1.4668 44 -13.2002 71.5 -35.2002 82.5c-4.39941 0.733398 -8.43359 1.10059 -12.0996 1.10059c-15.4004 0 -34.1006 -11.7334 -56.1006 -35.2002
c-12.4658 -13.9336 -19.0664 -23.833 -19.7998 -29.7002c-5.13281 -12.4668 -7.7002 -30.0664 -7.7002 -52.7998c0 -27.8662 3.30078 -56.4668 9.90039 -85.7998c4.40039 -8.7998 11.3662 -20.5332 20.9004 -35.2002c2.19922 -2.2002 3.66602 -9.16699 4.39941 -20.9004
c0.733398 -9.5332 3.2998 -15.0332 7.7002 -16.5h1.09961zM411.45 246.85c6.59961 0 11 9.53418 13.2002 28.6006c0 0.733398 2.93262 7.7002 8.7998 20.8994c3.66602 8.06738 9.5332 20.167 17.5996 36.3008c4.40039 17.5996 6.60059 38.8662 6.60059 63.7998
c0 37.3994 -5.13379 63.4336 -15.4004 78.0996c-2.2002 2.93359 -8.06641 7.33398 -17.5996 13.2002c-15.4004 11.7334 -27.8672 17.5996 -37.4004 17.5996h-2.2002c-5.13281 0 -12.4668 -2.19922 -22 -6.59961c-5.86621 -2.2002 -10.2666 -5.86621 -13.2002 -11
c-2.93262 -6.59961 -4.39941 -16.8662 -4.39941 -30.7998c0.733398 -20.5332 1.09961 -49.5 1.09961 -86.9004c1.4668 -15.3994 2.93359 -28.2334 4.40039 -38.5c2.2002 -8.06641 4.7666 -14.2998 7.7002 -18.7002c8.7998 -12.4658 22 -31.8994 39.5996 -58.2998
c2.93359 -5.13281 5.86621 -7.7002 8.7998 -7.7002h4.40039zM754.65 375.55c6.59961 0 11.3662 2.2002 14.2998 6.60059c1.4668 2.19922 2.2002 4.7666 2.2002 7.69922v4.40039c-0.733398 4.40039 -1.83398 13.2002 -3.30078 26.4004v4.39941
c0.733398 4.40039 2.2002 13.5664 4.40039 27.5c0 1.4668 1.09961 4.0332 3.2998 7.7002c0.733398 0 1.4668 15.0332 2.2002 45.0996v22v4.40039c0 15.4004 -2.93359 31.167 -8.7998 47.2998c-2.2002 4.40039 -5.86719 12.834 -11 25.2998
c-7.33398 10.2666 -18.334 15.4004 -33 15.4004c-15.4004 0 -28.9668 -11.3662 -40.7002 -34.0996c-2.93359 -3.66699 -6.59961 -10.2666 -11 -19.8008c-1.4668 -2.93262 -5.13379 -5.5 -11 -7.69922c-8.7998 -5.86719 -13.2002 -14.667 -13.2002 -26.4004
c0 -17.5996 6.2334 -34.833 18.7002 -51.7002c16.1338 -18.333 24.2002 -30.4336 24.2002 -36.2998c3.66602 -15.4004 7.7002 -24.2002 12.0996 -26.4004c7.33398 -5.86621 15.7666 -8.7998 25.2998 -8.7998c4.40039 0 9.53418 -7.33301 15.4004 -22
c0 -2.93359 1.83301 -6.2334 5.5 -9.89941c0.733398 0 2.2002 -0.367188 4.40039 -1.10059zM256.35 376.65h1.10059c5.13281 0 9.5332 6.59961 13.2002 19.7998c2.93262 4.39941 6.96582 6.59961 12.0996 6.59961c14.667 0 28.2334 23.1006 40.7002 69.2998
c3.66602 18.334 5.5 33 5.5 44c0 4.40039 -3.2998 22 -9.90039 52.8008c-2.2002 8.7998 -5.5 13.1992 -9.89941 13.1992c-11 2.93359 -22.7334 8.06738 -35.2002 15.4004c-4.40039 1.4668 -8.06641 2.2002 -11 2.2002c-12.4668 0 -23.1006 -6.9668 -31.9004 -20.9004
c-5.13281 -6.59961 -7.7002 -24.2002 -7.7002 -52.7998c0 -18.333 1.10059 -35.5664 3.30078 -51.7002c-2.93359 -6.59961 -4.40039 -11.3662 -4.40039 -14.2998c0 -12.4668 3.2998 -23.0996 9.90039 -31.9004c5.86621 -9.5332 9.89941 -17.9658 12.0996 -25.2998
c2.2002 -15.3994 4.0332 -23.0996 5.5 -23.0996c1.4668 -2.2002 3.66699 -3.2998 6.59961 -3.2998zM490.65 483.35c27.1328 3.66699 40.6992 6.2334 40.6992 7.7002c1.4668 0 5.86719 4.0332 13.2002 12.1006c14.667 7.33301 23.4668 15.7666 26.4004 25.2998
c0.733398 2.2002 1.83301 5.86621 3.2998 11c5.13379 5.86621 19.7998 13.2002 44 22c5.13379 2.2002 15.7666 9.89941 31.9004 23.0996c8.7998 7.33398 16.5 11.7334 23.0996 13.2002c5.86621 5.13379 8.7998 19.7998 8.7998 44c0 30.7998 -3.66602 58.667 -11 83.5996
c-3.66602 9.53418 -14.666 23.834 -33 42.9004c-10.2666 8.7998 -18.7002 13.2002 -25.2998 13.2002c-5.13379 1.4668 -11 2.2002 -17.5996 2.2002c-24.9336 0 -41.0674 -6.9668 -48.4004 -20.9004c-2.2002 -6.59961 -3.2998 -12.4668 -3.2998 -17.5996
c0 -14.667 3.2998 -30.0674 9.89941 -46.2002c2.2002 -6.60059 3.30078 -11.7334 3.30078 -15.4004v-3.2998c0 -11 -4.7666 -23.0996 -14.3008 -36.2998c-13.1992 -16.1338 -28.9658 -24.2002 -47.2998 -24.2002c-2.2002 0 -3.2998 2.2002 -3.2998 6.59961
c0 2.93359 3.66699 8.80078 11 17.6006c2.2002 4.39941 3.2998 8.43359 3.2998 12.0996v3.2998c0 3.66699 -2.56641 13.5674 -7.7002 29.7002c-19.7998 19.7998 -34.0996 33.3672 -42.8994 40.7002c-11.7334 8.7998 -24.5664 16.8662 -38.5 24.2002
c-7.33398 6.59961 -13.9336 10.2666 -19.7998 11c-5.13379 1.4668 -9.53418 2.2002 -13.2002 2.2002c-23.4668 0 -45.4668 -8.80078 -66 -26.4004c-5.13379 -5.13379 -12.1006 -17.9668 -20.9004 -38.5c-2.93359 -4.40039 -6.9668 -10.6338 -12.0996 -18.7002
c-1.4668 -7.33301 -2.2002 -14.2998 -2.2002 -20.8994v-4.40039c0 -13.9336 4.40039 -25.667 13.2002 -35.2002c1.4668 -4.39941 10.6328 -14.2998 27.5 -29.7002c16.8662 -15.3994 31.166 -26.0332 42.8994 -31.8994c13.2002 -8.7998 37.0342 -23.4668 71.5 -44
c14.667 -8.7998 31.9004 -20.167 51.7002 -34.1006h1.10059z" />
</svg>
