<?xml version="1.0" standalone="no"?>
<!DOCTYPE svg PUBLIC "-//W3C//DTD SVG 1.1//EN" "http://www.w3.org/Graphics/SVG/1.1/DTD/svg11.dtd" >
<svg xmlns="http://www.w3.org/2000/svg" xmlns:xlink="http://www.w3.org/1999/xlink" version="1.1" viewBox="-10 0 1010 1000">
   <path fill="currentColor"
d="M113.35 114.85h773.301v773.301h-773.301v-91.3008v-488.399v-193.601zM375.15 451.45v4.39941c0 38.8672 13.5664 74.8008 40.6992 107.801c11 11.7334 21.2666 20.8994 30.8008 27.5c29.333 18.333 60.5 27.5 93.5 27.5c40.333 0 77.7334 -14.667 112.199 -44
c15.4004 -15.4004 26.4004 -30.0674 33 -44c13.2002 -24.9336 19.8008 -49.8672 19.8008 -74.8008v-4.39941c0 -22 -5.5 -44.3672 -16.5 -67.1006c-4.40039 -10.2666 -10.2666 -20.8994 -17.6006 -31.8994c-13.9336 -16.1338 -26.0332 -27.5 -36.2998 -34.1006
c-29.333 -19.7998 -61.2334 -29.6992 -95.7002 -29.6992c-35.2002 0 -67.4668 10.2666 -96.7998 30.7998c-18.333 14.666 -33 30.7998 -44 48.3994c-15.4004 27.1338 -23.0996 55 -23.0996 83.6006zM182.65 517.45v3.2998v4.40039
c18.333 25.666 42.8994 55.3662 73.6992 89.0996c27.8672 29.333 46.2002 47.667 55 55c20.5342 18.333 38.1338 32.2666 52.8008 41.7998c46.1992 30.0664 87.2666 45.1006 123.199 45.1006h9.90039c21.2666 0 50.2334 -5.86719 86.9004 -17.6006
c27.1328 -9.5332 49.8662 -20.166 68.1992 -31.8994c16.1338 -10.2666 32.6338 -22.7334 49.5 -37.4004c2.93359 -1.4668 13.5674 -12.0996 31.9004 -31.9004c31.5332 -35.9326 57.5664 -68.5664 78.0996 -97.8994c3.66699 -5.86719 5.5 -9.5332 5.5 -11
c0.733398 -1.4668 1.10059 -3.2998 1.10059 -5.5c-4.40039 -13.9336 -14.667 -31.9004 -30.7998 -53.9004c-7.33398 -9.5332 -17.2334 -21.2666 -29.7002 -35.2002c-5.86719 -4.39941 -10.6338 -7.69922 -14.2998 -9.89941c1.46582 9.5332 2.19922 19.0664 2.19922 28.5996
v3.2998c0 53.5342 -20.5332 101.567 -61.5996 144.101c-41.7998 39.5996 -90.2002 59.3994 -145.2 59.3994c-47.666 0 -91.666 -15.3994 -132 -46.1992c-16.1328 -14.667 -26.3994 -26.0342 -30.7998 -34.1006c-29.333 -38.1328 -44 -78.833 -44 -122.1v-7.7002
c0 -37.4004 11.7334 -74.4336 35.2002 -111.1c5.86621 -7.33398 11.7334 -14.3008 17.5996 -20.9004v-1.09961c-16.8662 8.06641 -34.4668 17.9658 -52.7998 29.6992c-12.4668 8.80078 -28.9668 22.3672 -49.5 40.7002c-19.7998 20.5332 -35.5664 38.1338 -47.2998 52.7998
c-19.7998 25.667 -37.4004 51.7002 -52.7998 78.1006zM531.35 332.65h11c29.334 0 55.7334 10.6328 79.2002 31.8994c24.2002 25.667 36.2998 54.2666 36.2998 85.7998c0 33 -12.833 61.9668 -38.5 86.9004c-23.4658 20.5332 -49.8662 30.7998 -79.1992 30.7998
c-33 0 -61.6006 -12.4668 -85.8008 -37.3994c-11 -11.7334 -18.333 -23.1006 -22 -34.1006c-5.86621 -15.3994 -8.7998 -28.5996 -8.7998 -39.5996c18.334 22.7334 40.334 34.0996 66 34.0996h2.2002c28.5996 0 52.0664 -12.4668 70.4004 -37.3994
c8.7998 -15.4004 13.1992 -29.7002 13.1992 -42.9004v-6.59961c0 -18.334 -6.2334 -35.5674 -18.6992 -51.7002c-10.2666 -10.2666 -17.9668 -16.8672 -23.1006 -19.7998h-2.2002z" />
</svg>
