<?xml version="1.0" standalone="no"?>
<!DOCTYPE svg PUBLIC "-//W3C//DTD SVG 1.1//EN" "http://www.w3.org/Graphics/SVG/1.1/DTD/svg11.dtd" >
<svg xmlns="http://www.w3.org/2000/svg" xmlns:xlink="http://www.w3.org/1999/xlink" version="1.1" viewBox="-10 0 1010 1000">
   <path fill="currentColor"
d="M113.35 114.85h773.301v773.301h-773.301v-91.3008v-488.399v-193.601zM314.65 385.45c2.93262 5.13281 5.13281 8.43359 6.59961 9.89941c35.9336 0 89.4668 0.367188 160.6 1.10059c-22 27.8662 -67.0996 84.333 -135.3 169.399
c0.733398 1.4668 2.2002 4.7666 4.40039 9.90039h127.6v1.09961c-29.333 41.0674 -87.2666 123.567 -173.8 247.5c0.733398 2.2002 2.56641 5.86719 5.5 11h8.7998c13.9336 0 41.7998 -0.366211 83.6006 -1.09961c2.93262 0 8.7998 -5.5 17.5996 -16.5
c45.4668 -53.5332 113.667 -134.2 204.6 -242c12.4668 -13.9336 37.0342 -42.5332 73.7002 -85.7998c-0.733398 -2.2002 -2.56641 -6.2334 -5.5 -12.1006h-110c24.2002 -26.3994 72.6006 -80.2998 145.2 -161.699c1.4668 -2.2002 4.40039 -6.2334 8.7998 -12.1006
c-0.733398 -1.4668 -2.2002 -5.13281 -4.39941 -11h-150.7c17.5996 -19.0664 53.5332 -57.2002 107.8 -114.399c-2.93359 -6.60059 -4.7666 -10.2666 -5.5 -11h-243.1c-5.86719 1.46582 -8.80078 3.2998 -8.80078 5.5c-25.666 46.9326 -64.8994 117.699 -117.699 212.3z" />
</svg>
