<?xml version="1.0" standalone="no"?>
<!DOCTYPE svg PUBLIC "-//W3C//DTD SVG 1.1//EN" "http://www.w3.org/Graphics/SVG/1.1/DTD/svg11.dtd" >
<svg xmlns="http://www.w3.org/2000/svg" xmlns:xlink="http://www.w3.org/1999/xlink" version="1.1" viewBox="-10 0 1010 1000">
   <path fill="currentColor"
d="M113.35 114.85h773.301v773.301h-773.301v-91.3008v-488.399v-193.601zM451.05 201.75v1.09961c0 9.53418 2.93359 18.334 8.7998 26.4004c0.733398 0 2.2002 0.366211 4.40039 1.09961c56.4668 0 110.733 17.9668 162.8 53.9004
c11.7334 8.06641 23.4668 17.5996 35.2002 28.5996c22 23.4668 35.2002 39.6006 39.5996 48.4004c11.7334 16.1338 21.2666 33.7334 28.6006 52.7998c12.4668 31.5332 18.7002 61.9668 18.7002 91.2998v5.5c0 60.8672 -17.2334 115.867 -51.7002 165
c-6.60059 8.80078 -16.5 19.4336 -29.7002 31.9004c-27.1338 23.4668 -56.833 40.333 -89.0996 50.5996c-31.5342 9.53418 -62.7002 14.3008 -93.5 14.3008h-7.7002c-44 0 -85.7998 -13.9336 -125.4 -41.8008c-22 -16.1328 -41.4336 -35.5664 -58.2998 -58.2998
c-27.8662 -41.7998 -41.7998 -84.333 -41.7998 -127.6c0 -52.7998 15.0332 -97.9004 45.0996 -135.3c11.7334 -12.4668 20.5332 -20.9004 26.4004 -25.3008c41.0664 -31.5332 90.5664 -47.2998 148.5 -47.2998h8.7998c36.667 0 70.0332 11.7334 100.1 35.2002
c13.9336 13.2002 23.4668 23.4668 28.6006 30.7998c24.2002 34.4668 36.2998 75.9004 36.2998 124.3c0 30.8008 -10.2666 59.4004 -30.7998 85.8008c-13.2002 15.3994 -22.7334 24.5664 -28.6006 27.5c-7.33301 5.13281 -16.5 10.2666 -27.5 15.3994
c-24.9326 11 -50.5996 16.5 -77 16.5c-26.3994 0 -53.166 -13.2002 -80.2998 -39.5996c-14.666 -15.4004 -24.5664 -28.9668 -29.7002 -40.7002c-7.33301 -14.667 -11 -27.5 -11 -38.5v-2.2002c0 -51.333 18.7002 -85.4336 56.1006 -102.3
c16.8662 -7.33301 35.5664 -11 56.0996 -11h12.1006c17.5996 0 33 10.2666 46.1992 30.7998c8.80078 14.667 13.2002 30.4336 13.2002 47.2998v3.30078v1.09961c0 12.4668 -4.39941 24.2002 -13.2002 35.2002c-8.06641 8.7998 -16.1328 13.9336 -24.1992 15.3994
c-2.2002 0.733398 -5.13379 1.4668 -8.80078 2.2002h-2.19922c-18.334 0 -30.0674 -3.2998 -35.2002 -9.89941c-0.733398 -4.40039 -1.10059 -8.80078 -1.10059 -13.2002c0 -10.2666 1.4668 -15.4004 4.40039 -15.4004c3.66699 -0.733398 8.43359 -1.09961 14.2998 -1.09961
c4.40039 0 10.2666 0.366211 17.6006 1.09961c3.66602 0 7.69922 -6.2334 12.0996 -18.7002c0.733398 -2.93262 1.4668 -6.96582 2.2002 -12.0996c0 -8.7998 -2.2002 -19.0664 -6.60059 -30.7998c-1.46582 0 -2.93262 -0.733398 -4.39941 -2.2002
c-2.93359 0 -8.7998 -0.366211 -17.6006 -1.09961h-3.2998c-38.8662 0 -64.166 14.666 -75.8994 44c-3.66699 11 -5.5 23.4658 -5.5 37.3994c0 30.7998 12.0996 54.6338 36.2998 71.5c16.8662 8.7998 37.7666 13.2002 62.7002 13.2002
c33 0 61.9658 -14.2998 86.8994 -42.9004c16.8672 -23.4658 25.2998 -48.7666 25.2998 -75.8994c0 -33 -11 -64.9004 -33 -95.7002c-23.4658 -30.7998 -54.6328 -46.2002 -93.5 -46.2002c-79.1992 0 -133.833 28.2334 -163.899 84.7002
c-13.9336 28.5996 -20.9004 59.4004 -20.9004 92.4004h3.2998v1.09961h-3.2998c0 14.667 4.40039 33.3662 13.2002 56.0996c5.86621 13.2002 13.9336 27.1338 24.2002 41.8008c5.86621 8.06641 16.8662 20.5332 33 37.3994c38.1328 31.5332 76.6328 47.2998 115.5 47.2998
c41.0664 0 81.7666 -11.3662 122.1 -34.0996c11.7334 -5.86621 23.4668 -13.5664 35.2002 -23.0996c16.1338 -16.1338 26.0332 -27.5 29.7002 -34.1006c25.666 -35.2002 38.5 -74.7998 38.5 -118.8c0 -58.667 -15.4004 -111.1 -46.2002 -157.3
c-5.86621 -9.5332 -16.1338 -21.6338 -30.7998 -36.2998l-7.7002 -7.7002c-41.7998 -33.7334 -90.9336 -50.6006 -147.4 -50.6006c-89.4658 0 -162.066 27.8672 -217.8 83.6006c0 0.733398 -3.2998 4.0332 -9.89941 9.89941c-26.4004 33 -44 69.667 -52.8008 110
c-5.13281 23.4668 -7.69922 45.4668 -7.69922 66v6.60059c0 43.2666 13.9326 89.0996 41.7998 137.5c7.33301 13.2002 19.7998 30.0664 37.3994 50.5996c13.9336 15.4004 26.4004 27.1338 37.4004 35.2002c13.2002 11 27.1338 20.5332 41.7998 28.5996
c43.2666 22 85.4336 33 126.5 33h14.2998c57.9336 0 112.934 -13.1992 165 -39.5996c63.0674 -35.2002 108.534 -87.6338 136.4 -157.3c15.4004 -42.5332 23.0996 -83.2334 23.0996 -122.101v-13.1992c0 -48.4004 -13.9326 -99 -41.7998 -151.801
c-8.7998 -16.1328 -20.5332 -33.7334 -35.2002 -52.7998c-10.2666 -11.7334 -22.7334 -24.5664 -37.3994 -38.5c-19.0664 -17.5996 -35.2002 -30.0664 -48.4004 -37.3994c-16.1328 -11 -34.833 -21.2666 -56.0996 -30.8008
c-43.2666 -16.8662 -86.167 -25.2998 -128.7 -25.2998c-3.66699 0 -6.59961 4.7666 -8.7998 14.2998c-2.93359 6.60059 -4.40039 13.5674 -4.40039 20.9004z" />
</svg>
