<?xml version="1.0" standalone="no"?>
<!DOCTYPE svg PUBLIC "-//W3C//DTD SVG 1.1//EN" "http://www.w3.org/Graphics/SVG/1.1/DTD/svg11.dtd" >
<svg xmlns="http://www.w3.org/2000/svg" xmlns:xlink="http://www.w3.org/1999/xlink" version="1.1" viewBox="-10 0 1010 1000">
   <path fill="currentColor"
d="M113.35 114.85h773.301v773.301h-773.301v-91.3008v-488.399v-193.601zM713.95 161.05c-14.2998 17.6006 -14.2998 17.6006 -57.2002 70.4004l1.09961 3.2998h25.3008v133.1c-0.733398 0.733398 -50.2334 24.9336 -148.5 72.6006v-191.4h24.1992
c0 -0.733398 0.733398 -1.4668 2.2002 -2.2002c-35.2002 -43.2666 -54.6328 -67.0996 -58.2998 -71.5h-2.2002c-37.3994 45.4668 -56.833 69.3008 -58.2998 71.5c0 0.733398 0.366211 1.4668 1.09961 2.2002h25.3008v192.5h-1.10059
c-24.9336 -11.7334 -74.4336 -35.9336 -148.5 -72.5996v-134.2h25.2998l1.10059 -2.2002c-9.5332 -11.7334 -28.2334 -34.4668 -56.1006 -68.2002c-0.733398 -0.733398 -1.46582 -1.83301 -2.19922 -3.2998h-2.2002c-9.5332 11 -27.8672 33.7334 -55 68.2002
c-2.2002 1.4668 -3.2998 2.56641 -3.2998 3.2998c0 1.4668 0.366211 2.2002 1.09961 2.2002h25.2998v167.2c0.733398 0.733398 16.8672 8.7998 48.4004 24.2002c0 0.733398 29.7002 16.1328 89.0996 46.1992c17.6006 8.80078 43.6338 22.3672 78.1006 40.7002v328.9
l1.09961 1.09961c0.733398 -0.733398 1.83301 -1.09961 3.2998 -1.09961h60.5c0 -0.733398 0.367188 -1.4668 1.10059 -2.2002v-327.8c0 -1.4668 13.1992 -8.7998 39.5996 -22c38.1338 -19.7998 95.7002 -49.1338 172.7 -88l2.2002 -2.2002v-165h23.0996
c0.733398 0 1.4668 -0.733398 2.2002 -2.2002c-9.5332 -11.7334 -23.4668 -28.9668 -41.7998 -51.7002c-2.2002 -3.66602 -7.7002 -10.2666 -16.5 -19.7998h-2.2002z" />
</svg>
