<?xml version="1.0" standalone="no"?>
<!DOCTYPE svg PUBLIC "-//W3C//DTD SVG 1.1//EN" "http://www.w3.org/Graphics/SVG/1.1/DTD/svg11.dtd" >
<svg xmlns="http://www.w3.org/2000/svg" xmlns:xlink="http://www.w3.org/1999/xlink" version="1.1" viewBox="-10 0 1010 1000">
   <path fill="currentColor"
d="M462.875 54.9336c19.5 -2.40039 88.1992 0.899414 117 5.69922c50.0996 8.40039 114.9 33.6006 161.4 63.3008l15.5996 10.2002v54v54h54h53.6992l8.70117 12.5996c27.5996 40.2002 56.4004 113.699 65.4004 165.899c6.89844 40.5 6.89844 115.501 0 156.001
c-9.60156 57.2988 -34.8008 119.1 -69.9004 171.6l-16.2012 24.9004h-48h-47.6992v45v45l-15.5996 10.1992c-43.5 27.6006 -100.801 51 -153.301 62.4004c-44.0996 9.59961 -131.1 9.59961 -175.199 0c-57.3008 -12.2998 -112.5 -35.7002 -162 -68.7002l-24.9004 -16.2002
v-39v-38.6992h-38.6992h-39l-16.2012 -24.9004c-33.5996 -50.7002 -55.1992 -102.3 -68.4004 -164.1c-9.89844 -45.2998 -9.89844 -125.701 0 -171c12 -55.8008 34.2012 -111.601 62.1016 -155.4l10.1992 -15.5996h45h45v-47.7002v-48l24.9004 -16.2002
c65.3984 -43.5 125.4 -64.7998 212.1 -75.2998zM619.775 106.533l-29.4004 -9.59961l-84 -0.900391c-74.0996 -0.599609 -86.7012 0 -106.5 5.09961c-40.8008 10.2012 -90.9004 32.4004 -123.6 54.6006l-17.4004 11.7002v53.7002v54h-52.1992h-51.9004l-18.3008 35.0996
c-20.0996 39.2998 -34.1992 80.4004 -41.4004 120c-6 34.7998 -6 102.3 0 137.4c9.59961 53.0996 33.3008 113.699 61.8008 156.6l10.5 15.8994h45.5996h45.9004v46.2012v46.1992l18.9004 12c69 43.5 141 64.5 222.6 64.5c73.8008 0 138 -16.7998 201.9 -52.7998
l21.5996 -12.2998v-51.9004v-51.9004l54.5996 -0.599609l54.9004 -0.899414l9.90039 -15c24 -36 46.7988 -89.1006 56.0996 -130.8c4.19922 -19.2012 4.80078 -36 3.90039 -103.5l-1.20117 -80.7002l-9.59961 -29.4004c-12 -35.7002 -24.2988 -63.5996 -38.4004 -86.7002
l-10.5 -17.3994h-60h-59.6992v-59.7012v-59.999l-17.4004 -10.5c-23.0996 -14.1006 -51 -26.4004 -86.6992 -38.4004zM482.975 165.634c27.9004 -9.90039 57 13.2002 54 42.2998c-1.5 15.9004 -9.59961 26.7002 -23.6992 33.2998l-11.4004 5.10059v32.0986v32.4004
l14.4004 1.7998c22.7988 3.00098 60.2988 15.9004 79.7988 27.6006c24 14.6992 49.5 40.7998 64.2012 65.7002c12 20.7002 24.5996 55.5 24.5996 68.6992c0 15.9004 1.19922 16.501 36.2988 16.501h32.4004l5.40039 -9c6.90039 -12.001 28.2012 -22.2002 41.4004 -20.1006
c47.0996 7.5 47.0996 74.7002 0 82.2002c-15.5996 2.39941 -36 -8.7002 -42.5996 -23.3994l-5.10156 -11.7002h-32.0996h-32.3984l-1.80078 14.0996c-7.80078 59.3994 -42 113.399 -90.3008 142.8c-19.5 11.7002 -57 24.5996 -79.7988 27.6006l-14.4004 1.7998v32.4004
v32.0986l11.4004 5.10059c39.5996 18 26.6992 78 -17.1016 78c-21.2988 0 -38.0996 -14.3994 -41.3984 -35.4004c-2.09961 -13.1992 8.09961 -34.499 20.0996 -41.3994l9 -5.40039v-32.4004c0 -35.0996 -0.599609 -36.2988 -17.0996 -36.2988
c-12.3008 0 -52.2012 -14.7002 -71.0996 -26.4004c-48.3008 -29.1006 -82.5 -83.1006 -90.3008 -142.5l-1.80078 -14.0996h-32.4004h-32.0996l-5.09961 11.7002c-3.90039 8.69922 -8.69922 13.5 -18.2988 18c-15.3008 7.49902 -23.1016 7.79883 -36.9004 1.49902
c-35.4004 -16.7998 -27.5996 -71.0996 11.0996 -77.6992c15.3008 -2.7002 35.4004 6.59961 42.9004 19.5l5.40039 9h32.6992h33l1.5 -8.40039c8.40039 -45 17.6992 -67.7998 39.3008 -96.5996c29.6992 -39.6006 69.8984 -61.8008 131.1 -73.501l8.09961 -1.49902v-33
v-32.7002l-9 -5.40039c-9.90039 -5.7002 -21 -25.5 -21 -36.5996c0 -8.10059 7.80078 -25.5 13.8008 -30.6006c2.39844 -1.7998 9.29883 -5.09961 15.2988 -7.19922zM483.875 367.233c0 -31.5 -0.599609 -35.0996 -5.09961 -34.8008
c-13.2012 0.300781 -49.8008 12.001 -65.7012 21.001c-22.5 12.5996 -54.2988 44.0996 -66.8984 66.8994c-8.40039 15.3008 -21.3008 55.2002 -21.3008 66.9004c0 3 7.80078 3.90039 35.4004 3.90039h35.0996l5.09961 -17.4004c9.59961 -32.4004 33.5996 -56.3994 66 -66
l17.4004 -5.10059v-35.3994zM538.475 337.833c-38.6992 -9.90039 -36.5996 -11.3994 -36.5996 28.7998c0 25.2002 0.900391 35.1006 3.90039 35.7002c40.1992 11.0996 55.7988 20.0996 71.0996 41.4004c5.09961 6.90039 11.6992 20.4004 14.4004 30l5.09961 17.4004h35.4004
c27.2988 0 35.0996 -0.900391 35.0996 -3.90039c0 -11.7002 -12.9004 -51.5996 -21.3008 -66.9004c-12.5996 -22.5 -44.3984 -54.2998 -66.8984 -66.8994c-9.60156 -5.40039 -27.6016 -12.2998 -40.2012 -15.6006zM533.676 432.033
c-10.8008 -5.69922 -27.9004 -9.89941 -30 -7.5c-1.20117 0.900391 -1.80078 9.2998 -1.80078 18.9004c0 16.7998 0.300781 17.3994 11.4004 22.7998c6 3 13.7988 9.60059 17.0996 15c5.69922 9.2998 6.90039 9.59961 24.9004 9.90039
c16.7988 0 18.5996 -0.600586 18.5996 -6c0 -15.3008 -21 -43.2002 -40.1992 -53.1006zM483.875 443.733c0 -17.3994 -0.599609 -18.6006 -6.59961 -18.6006c-22.5 0.600586 -59.4004 37.7998 -59.4004 60.001c0 5.39941 1.79883 6 18.9004 6
c17.6992 0 18.8984 -0.600586 23.6992 -9c3 -5.10059 9.30078 -11.4004 14.4004 -14.4004c8.40039 -4.80078 9 -6 9 -24zM395.074 512.733c-0.599609 -2.7002 -10.5 -3.59961 -35.6992 -3.59961c-34.2012 0 -34.5 0 -34.5 6.89941
c0 14.1006 11.6992 52.7998 21.3008 69.9004c12.5996 22.5 44.3984 54.2998 66.8984 66.8994c15.3008 8.40039 55.2012 21.3008 66.9004 21.3008c3 0 3.90039 -7.80078 3.90039 -35.4004v-35.0996l-17.4004 -5.10059c-9.59961 -2.7002 -23.0996 -9.2998 -30 -14.3994
c-21.3008 -15.3008 -30.3008 -30.9004 -41.4004 -71.4004zM458.975 520.233c-5.40039 -11.0996 -5.69922 -11.0996 -23.4004 -11.0996c-9.59961 0 -17.6992 0.899414 -18 2.09961c-2.09961 13.5 7.20117 34.5 21.6016 48.5996
c10.7988 11.0996 29.6992 21.3008 38.6992 21.3008c5.40039 0 6 -1.7998 6 -18.9004c-0.300781 -17.7002 -0.599609 -18.8994 -9.90039 -24.6006c-5.40039 -3.29883 -12 -11.0996 -15 -17.3994zM574.176 519.633l1.19922 -9l-18.5996 -0.899414
c-18.5996 -0.900391 -18.5996 -0.900391 -22.8008 9c-5.09961 11.6992 -12.2988 18.5996 -24 23.0996c-8.09961 3.30078 -8.40039 3.90039 -7.5 21.9004l0.900391 18.8994l9 -1.19922c27.5996 -3 58.8008 -34.2002 61.8008 -61.8008zM666.875 516.033
c0 -6.89941 -0.300781 -6.89941 -34.5 -6.89941c-25.1992 0 -35.0996 0.899414 -35.6992 3.59961c-11.1016 40.5 -20.1016 56.0996 -41.1016 71.4004c-10.5 7.49902 -22.7988 12.2998 -49.7988 19.7998c-3 0.599609 -3.90039 10.5 -3.90039 35.7002
c0 34.2002 0 34.5 6.90039 34.5c14.0996 0 52.7988 -11.7002 69.9004 -21.3008c22.5 -12.5996 54.2988 -44.3994 66.8984 -66.8994c9.60156 -17.1006 21.3008 -55.7998 21.3008 -69.9004z" />
</svg>
