<?xml version="1.0" standalone="no"?>
<!DOCTYPE svg PUBLIC "-//W3C//DTD SVG 1.1//EN" "http://www.w3.org/Graphics/SVG/1.1/DTD/svg11.dtd" >
<svg xmlns="http://www.w3.org/2000/svg" xmlns:xlink="http://www.w3.org/1999/xlink" version="1.1" viewBox="-10 0 1010 1000">
   <path fill="currentColor"
d="M113.35 114.85h773.301v773.301h-773.301v-91.3008v-488.399v-193.601zM375.15 188.55h5.5c6.59961 0 19.7998 0.733398 39.5996 2.2002h1.09961v26.4004c-6.59961 -0.733398 -20.166 -1.4668 -40.6992 -2.2002c0 5.86621 -1.4668 12.4668 -4.40039 19.7998
c-2.93359 2.93359 -6.9668 5.86621 -12.0996 8.7998v2.2002c0 4.40039 6.96582 6.9668 20.8994 7.7002h4.40039c10.2666 0 19.7998 -1.83398 28.5996 -5.5c8.06641 14.666 12.1006 22.3662 12.1006 23.0996c-13.9336 5.86719 -27.1338 8.7998 -39.6006 8.7998
c-0.733398 5.86719 -2.2002 10.6338 -4.39941 14.3008c14.666 12.4658 27.5 21.2666 38.5 26.3994c6.59961 2.93359 12.4658 4.40039 17.5996 4.40039v26.3994c-3.66699 0 -9.5332 -0.733398 -17.5996 -2.19922c-16.8672 14.666 -25.3008 24.1992 -25.3008 28.5996h-26.3994
c0 -12.4668 8.43359 -26.0332 25.2998 -40.7002c-5.13379 -2.93359 -14.2998 -9.89941 -27.5 -20.8994c-8.06641 5.13281 -19.4336 11 -34.0996 17.5996c-6.60059 3.66699 -13.2002 8.06641 -19.8008 13.2002c-4.39941 -3.66699 -10.6328 -9.90039 -18.6992 -18.7002
c10.2666 -8.7998 22 -16.1338 35.1992 -22c10.2666 -3.66699 18.7002 -8.43359 25.3008 -14.2998c3.66602 -6.60059 5.5 -12.1006 5.5 -16.5c-9.53418 -2.2002 -16.5 -6.60059 -20.9004 -13.2002c-3.66699 -5.13379 -5.5 -10.6338 -5.5 -16.5v-1.09961
c0 -11.7334 5.5 -20.5342 16.5 -26.4004c1.4668 -11.7334 4.0332 -19.0664 7.7002 -22l1.09961 -1.09961h-1.09961c-8.06641 5.13281 -13.9336 9.5332 -17.6006 13.1992c-4.39941 1.4668 -13.5664 9.90039 -27.5 25.3008c-21.2666 23.4658 -38.1328 49.1328 -50.5996 77
c-7.33301 16.8662 -11 26.0332 -11 27.5c0 53.5332 0.366211 133.833 1.09961 240.899h1.10059c5.13281 -4.39941 16.5 -8.06641 34.0996 -11l5.5 -2.2002c1.4668 -11.7334 6.9668 -17.5996 16.5 -17.5996h2.2002c8.7998 0 20.5332 3.2998 35.2002 9.90039v-14.3008
c0 -0.733398 -0.367188 -1.83301 -1.10059 -3.2998c1.4668 -0.733398 2.93359 -1.83301 4.40039 -3.2998c-11.7334 -4.40039 -20.9004 -12.4668 -27.5 -24.2002c-5.13379 -11 -7.7002 -22 -7.7002 -33v-3.2998h26.4004v3.2998c0 15.4004 5.5 26.4004 16.5 33
c4.39941 1.4668 9.16602 2.2002 14.2998 2.2002c1.4668 -0.733398 4.40039 -1.83301 8.7998 -3.2998c15.4004 -7.33398 24.5664 -12.4668 27.5 -15.4004c2.93359 -4.39941 9.16699 -15.0332 18.7002 -31.8994c1.4668 -2.2002 3.66699 -5.13379 6.59961 -8.80078h1.10059
c13.9336 8.80078 20.8994 13.5674 20.8994 14.3008c-5.86621 8.06641 -12.833 19.4326 -20.8994 34.0996c4.39941 0 9.89941 3.66699 16.5 11c2.93359 4.40039 5.86621 11.3662 8.7998 20.9004h3.2998v7.69922c1.4668 0 4.7666 -1.09961 9.90039 -3.2998
c0 0.733398 0.366211 1.83398 1.09961 3.2998c-1.4668 2.93359 -5.13281 9.16699 -11 18.7002c-15.3994 0 -25.666 -7.7002 -30.7998 -23.0996c-1.4668 -7.33398 -4.0332 -11 -7.7002 -11h-3.2998c-2.93359 0 -10.2666 2.56641 -22 7.7002
c-3.66699 1.46582 -9.5332 2.93262 -17.5996 4.39941c-2.93359 3.66699 -6.9668 8.43359 -12.1006 14.2998c-7.33301 7.33398 -12.4668 11 -15.3994 11c8.7998 6.60059 22 14.3008 39.5996 23.1006c5.86621 5.13281 12.833 11 20.9004 17.5996
c5.13281 5.86719 7.69922 11.7334 7.69922 17.6006v3.2998c0 11 -5.86621 21.2666 -17.5996 30.7998c-16.1338 17.5996 -27.5 36.667 -34.0996 57.2002c-10.2666 10.2666 -19.8008 15.3994 -28.6006 15.3994c13.2002 13.9336 25.2998 25.3008 36.2998 34.1006
c24.9336 22 49.1338 39.5996 72.6006 52.7998c12.4668 6.59961 25.2998 13.2002 38.5 19.7998c0.733398 0 1.09961 0.367188 1.09961 1.10059v-1.10059c2.2002 -117.333 3.2998 -247.866 3.2998 -391.6v-47.2998c0 -101.2 -0.733398 -174.9 -2.19922 -221.101
c-18.334 -4.39941 -33.3672 -6.59961 -45.1006 -6.59961c-26.3994 0 -51.7002 5.86621 -75.8994 17.5996zM522.55 178.65c1.4668 57.9326 2.2002 125.767 2.2002 203.5c6.59961 -2.2002 6.59961 -2.2002 19.7998 -6.60059c1.4668 0 4.7666 -0.733398 9.90039 -2.2002h3.2998
c16.8662 0 31.5332 12.834 44 38.5c5.86621 11 10.2666 17.6006 13.2002 19.8008c0.733398 0 2.2002 0.366211 4.39941 1.09961h3.30078c11 0 18.6992 -5.5 23.0996 -16.5c3.66699 -5.13379 8.43359 -12.833 14.2998 -23.0996
c-5.13281 -2.2002 -17.2334 -4.40039 -36.2998 -6.60059c-9.5332 -2.93359 -16.8662 -7.33301 -22 -13.2002c-8.7998 -11.7334 -14.667 -17.5996 -17.5996 -17.5996c-15.4004 -3.66699 -24.2002 -7.33301 -26.4004 -11v-8.7998
c11.7334 -8.06641 18.7002 -12.4668 20.9004 -13.2002c0 -3.66699 0.366211 -7.7002 1.09961 -12.0996c0 -8.06738 -4.7666 -21.2666 -14.2998 -39.6006c-2.2002 -5.86621 -3.2998 -10.2666 -3.2998 -13.2002v-4.39941c0 -11 8.43262 -24.9336 25.2998 -41.7998
c10.2666 -12.4668 16.1328 -23.1006 17.5996 -31.9004c0.733398 -0.733398 1.83398 -2.56641 3.2998 -5.5c-8.7998 -0.733398 -20.5332 -1.83301 -35.1992 -3.2998c-14.667 0 -31.5342 2.56641 -50.6006 7.7002zM732.65 266.65
c-3.66699 2.93262 -9.53418 5.86621 -17.6006 8.7998c-7.33301 2.2002 -17.9668 4.7666 -31.8994 7.7002c-2.2002 0.733398 -3.30078 3.2998 -3.30078 7.69922v2.2002c0 5.86719 3.30078 20.9004 9.90039 45.1006c2.2002 5.13281 3.66699 13.9326 4.40039 26.3994
c0.733398 2.93359 1.46582 7.33398 2.19922 13.2002c11.7334 0 20.9004 5.13379 27.5 15.4004c3.66699 6.59961 5.5 14.2998 5.5 23.0996v22h-26.3994v-23.0996c0 -6.60059 -1.4668 -9.90039 -4.40039 -9.90039c-2.2002 0 -5.13281 -0.366211 -8.7998 -1.09961
c-4.40039 0 -7.33301 1.09961 -8.7998 3.2998c-5.5 9.89941 -5.5 9.89941 -16.5 29.7002c-10.2666 14.666 -24.2002 22 -41.7998 22c-15.4004 0 -25.667 -5.13379 -30.8008 -15.4004c-2.93262 -2.93359 -9.16602 -13.2002 -18.6992 -30.7998
c-5.86719 -8.7998 -11.3672 -13.2002 -16.5 -13.2002c-2.2002 0 -9.16699 2.2002 -20.9004 6.59961c-2.93359 0.733398 -6.59961 1.4668 -11 2.2002v5.5c0 168.667 -1.09961 308.733 -3.2998 420.2c1.4668 0.733398 3.66602 2.2002 6.59961 4.40039
c13.2002 -8.80078 25.667 -17.2334 37.4004 -25.3008c19.7998 -13.1992 42.5332 -31.5332 68.2002 -55c27.8662 -27.8662 45.0996 -46.5664 51.6992 -56.0996c25.667 -31.5332 47.3008 -62.333 64.9004 -92.4004c11 -17.5996 16.8662 -28.2334 17.5996 -31.8994v-239.8
c-8.7998 -24.9336 -20.5332 -48.7666 -35.1992 -71.5zM466.45 370.05c5.13281 0 12.833 1.4668 23.0996 4.40039l1.10059 1.09961v26.4004c-2.93359 0 -10.2666 -1.83398 -22 -5.5h-2.2002c-10.2666 0 -18.7002 8.43359 -25.2998 25.2998
c-7.33398 17.5996 -15.7666 28.9668 -25.3008 34.0996c-8.06641 3.66699 -16.5 5.5 -25.2998 5.5c-18.333 0 -31.8994 -6.59961 -40.7002 -19.7998c-2.93262 -7.33301 -4.39941 -19.7998 -4.39941 -37.3994c0 -0.733398 -3.2998 -1.4668 -9.90039 -2.2002h-1.09961
c-5.13379 0 -9.16699 1.83301 -12.1006 5.5c-10.2666 7.33301 -16.1328 13.2002 -17.5996 17.5996c-1.4668 4.40039 -2.2002 8.7998 -2.2002 13.2002v3.2998h-26.3994v-2.2002c0 -21.2666 7.69922 -36.666 23.0996 -46.1992c11 -11 19.4336 -16.5 25.2998 -16.5
c0 -0.733398 3.2998 -1.10059 9.90039 -1.10059c13.9336 0 24.9336 5.13379 33 15.4004c2.93359 5.13281 4.39941 16.5 4.39941 34.0996c1.4668 5.13379 3.30078 7.7002 5.5 7.7002c2.93359 2.2002 7.33398 3.2998 13.2002 3.2998h1.10059
c9.5332 0 16.1328 -4.7666 19.7998 -14.2998c8.06641 -15.4004 13.2002 -24.9336 15.3994 -28.5996c11 -15.4004 24.2002 -23.1006 39.6006 -23.1006zM575.35 447.05c14.667 8.7998 23.4668 17.6006 26.4004 26.4004c2.2002 5.13281 3.2998 9.5332 3.2998 13.2002
c0 2.19922 -0.366211 5.13281 -1.09961 8.7998c5.86621 0.733398 14.2998 5.13281 25.2998 13.2002c12.4668 9.5332 20.9004 14.2998 25.2998 14.2998c5.13379 -7.33398 10.2666 -13.2002 15.4004 -17.6006c0 -2.93262 1.09961 -9.16602 3.2998 -18.6992
c0 -0.733398 0.366211 -2.2002 1.09961 -4.40039v-4.40039h26.4004v4.40039c0 5.13379 -1.83301 13.5664 -5.5 25.2998c0 5.13379 -2.2002 10.2666 -6.59961 15.4004c-3.66699 2.2002 -8.06738 7.7002 -13.2002 16.5c-5.86719 5.86621 -11.7334 8.7998 -17.6006 8.7998h-5.5
c-8.7998 0 -20.5332 -5.5 -35.1992 -16.5c-8.80078 -6.59961 -15.7666 -9.90039 -20.9004 -9.90039s-8.06641 1.83398 -8.7998 5.5c-1.4668 4.40039 -3.66699 10.6338 -6.60059 18.7002h-1.09961c-15.4004 -5.86621 -23.0996 -9.16602 -23.0996 -9.89941
c5.86621 -20.5342 11.7334 -31.5342 17.5996 -33c2.93359 -10.2666 4.40039 -15.7666 4.40039 -16.5c0 -5.13379 -5.5 -11 -16.5 -17.6006c0 -0.733398 -0.367188 -1.09961 -1.10059 -1.09961v-1.10059c2.2002 -3.66602 6.9668 -10.2666 14.2998 -19.7998zM701.85 560.35
c3.66699 15.4004 9.90039 26.4004 18.7002 33c5.5 4.40039 5.5 4.40039 16.5 13.2002c-1.4668 1.4668 -3.2998 4.0332 -5.5 7.7002c1.10059 1.09961 1.10059 1.09961 4.40039 4.40039c-3.66699 3.66602 -10.6338 7.33301 -20.9004 11
c-4.39941 2.19922 -11.3662 5.5 -20.8994 9.89941c-11.7334 5.13379 -21.2666 7.7002 -28.6006 7.7002h-3.2998c-5.86621 0 -11.3662 -1.09961 -16.5 -3.2998c-0.733398 5.86621 -5.86621 13.5664 -15.4004 23.0996c-11 8.7998 -19.7998 14.667 -26.3994 17.6006
c2.93359 7.33301 4.39941 14.2998 4.39941 20.8994v1.10059c0 20.5332 -12.833 37.3994 -38.5 50.5996c-7.33301 -15.4004 -11 -23.4668 -11 -24.2002c15.4004 -6.59961 23.1006 -15.7666 23.1006 -27.5c0 -10.2666 -5.5 -20.8994 -16.5 -31.8994
c3.66602 -4.40039 9.5332 -10.6338 17.5996 -18.7002l7.7002 7.7002c21.2666 -9.53418 31.9004 -22 31.9004 -37.4004c-0.733398 -5.86621 -2.2002 -15.0332 -4.40039 -27.5v-4.40039h26.4004v3.30078v-1.10059h1.09961c4.40039 17.6006 10.2666 26.4004 17.5996 26.4004
c6.60059 0 17.9668 -4.40039 34.1006 -13.2002c-8.7998 -9.5332 -14.667 -19.0664 -17.6006 -28.5996c-0.733398 -2.93359 -2.19922 -7.33398 -4.39941 -13.2002c4.39941 -1.4668 13.2002 -3.66699 26.3994 -6.60059zM442.25 654.95
c2.2002 3.66602 6.2334 11.7334 12.0996 24.2002c-8.06641 3.66602 -12.0996 9.89941 -12.0996 18.6992v1.10059c0 12.4668 4.7666 24.9336 14.2998 37.3994c-3.66602 4.40039 -9.89941 10.6338 -18.7002 18.7002c-14.666 -17.5996 -22 -36.2998 -22 -56.0996v-1.10059
c0 -16.8662 6.9668 -30.4326 20.9004 -40.6992c1.4668 -0.733398 3.2998 -1.4668 5.5 -2.2002v-1.10059v1.10059z" />
</svg>
