<?xml version="1.0" standalone="no"?>
<!DOCTYPE svg PUBLIC "-//W3C//DTD SVG 1.1//EN" "http://www.w3.org/Graphics/SVG/1.1/DTD/svg11.dtd" >
<svg xmlns="http://www.w3.org/2000/svg" xmlns:xlink="http://www.w3.org/1999/xlink" version="1.1" viewBox="-10 0 1010 1000">
   <path fill="currentColor"
d="M113.35 114.85h773.301v773.301h-773.301v-91.3008v-488.399v-193.601zM149.65 235.85v8.80078c38.1328 38.8662 115.133 116.6 231 233.199c11.7334 4.40039 23.4658 6.60059 35.1992 6.60059h4.40039c14.667 0 29.333 -4.7666 44 -14.2998
c5.86621 -6.60059 10.2666 -18.7002 13.2002 -36.3008c0.733398 -1.46582 1.09961 -5.86621 1.09961 -13.1992c0 -13.9336 -3.2998 -28.9668 -9.89941 -45.1006c-24.2002 -24.2002 -60.5 -60.8662 -108.9 -110c-18.333 -19.7998 -56.0996 -59.0332 -113.3 -117.7h-9.90039
c-13.9336 14.667 -42.8994 44 -86.8994 88zM440.05 274.35h1.10059v1.10059c0 6.59961 0.733398 9.89941 2.19922 9.89941c63.0674 60.8672 158.034 152.534 284.9 275h5.5h3.2998c41.7998 -32.2666 62.7002 -61.2334 62.7002 -86.8994
c0 -13.9336 -8.06641 -27.5 -24.2002 -40.7002c-39.5996 -39.5996 -99.3662 -98.2666 -179.3 -176c-30.0664 -29.333 -45.833 -44 -47.2998 -44c-6.60059 -4.40039 -13.9336 -6.59961 -22 -6.59961c-22.7334 0 -51.334 22.3662 -85.7998 67.0996
c-0.733398 0 -1.10059 0.366211 -1.10059 1.09961zM279.45 441.55c-41.7998 33 -62.7002 61.2334 -62.7002 84.7002c0 15.4004 7.7002 29.7002 23.0996 42.9004c48.4004 47.666 121.733 118.8 220 213.399c8.80078 8.06641 18.7002 12.1006 29.7002 12.1006
c22.7334 0 51.334 -22 85.7998 -66c0 -8.06738 -0.733398 -12.1006 -2.19922 -12.1006c-46.9336 -45.4668 -117.334 -113.3 -211.2 -203.5c-48.4004 -46.9336 -72.9668 -70.7666 -73.7002 -71.5h-8.7998zM521.45 582.35c0 14.667 4.0332 29.7002 12.0996 45.1006
c23.4668 24.2002 59.0332 60.8662 106.7 110c19.0664 19.7998 57.2002 59.0332 114.4 117.7h8.7998c14.666 -14.667 44 -43.6338 88 -86.9004v-9.90039c-38.1338 -38.8662 -114.767 -116.6 -229.9 -233.199c-2.2002 -2.2002 -13.2002 -4.40039 -33 -6.60059h-5.5
c-17.5996 0 -33.3662 5.13379 -47.2998 15.4004c-9.5332 15.3994 -14.2998 31.5332 -14.2998 48.3994z" />
</svg>
