<?xml version="1.0" standalone="no"?>
<!DOCTYPE svg PUBLIC "-//W3C//DTD SVG 1.1//EN" "http://www.w3.org/Graphics/SVG/1.1/DTD/svg11.dtd" >
<svg xmlns="http://www.w3.org/2000/svg" xmlns:xlink="http://www.w3.org/1999/xlink" version="1.1" viewBox="-10 0 1010 1000">
   <path fill="currentColor"
d="M28.8945 186.982h941.355c0.569336 102.03 0.855469 306.375 0.855469 613.035h-942.211v-613.035zM59.6748 216.907v553.186h881.506v-553.186h-881.506zM128.075 282.743c-0.835938 -1.6748 -2.81934 -4.53027 -4.27539 -5.98633h-1.70996
c0 -0.569336 -0.28418 -1.13867 -0.855469 -1.70996v-0.853516c-0.569336 -0.571289 -1.13965 -0.855469 -1.70898 -0.855469l-7.69531 -7.69531c-0.570312 0 -0.855469 -0.285156 -0.855469 -0.855469c-0.569336 0 -0.855469 -0.28418 -0.855469 -0.855469
c-2.84961 -2.2793 -8.26367 -6.83887 -16.2441 -13.6787h-0.855469l0.855469 -0.855469c0 -0.569336 0.285156 -1.4248 0.855469 -2.56543l0.854492 -0.854492c0.570312 -1.13965 1.13965 -2.56543 1.70996 -4.27441c16.5303 4.55957 49.5898 13.1094 99.1797 25.6494
h1.70996c26.79 8.5498 80.085 25.0791 159.885 49.5908c10.2607 1.13867 30.4961 3.98828 60.7061 8.5498h6.83984c9.69043 0 28.5 -0.571289 56.4297 -1.71094c0.570312 0.570312 2.28027 1.99512 5.12988 4.27441v2.56543c0 19.9502 -0.569336 50.1602 -1.70996 90.6309
c0 0.569336 -0.28418 1.13965 -0.855469 1.70996c0 0.569336 -0.28418 0.855469 -0.853516 0.855469v1.70898l-0.855469 0.854492c-3.53125 0 -15.0908 12.9082 -23.9404 18.8115c0 0.989258 -1.06543 1.91895 -1.70996 2.56348
c-0.569336 0 -0.855469 0.286133 -0.855469 0.855469c-2.51953 2.52246 -4.7959 4.99316 -9.4043 10.2598c0 0.571289 -0.285156 1.4248 -0.855469 2.56543c-0.569336 0 -0.854492 0.285156 -0.854492 0.855469c-0.855469 0.854492 -0.855469 0.854492 -1.71094 1.70996
c0 0.569336 -0.28418 0.854492 -0.854492 0.854492v0.855469c-1.13965 1.70898 -2.56445 4.27441 -4.27441 7.69434c-1.04785 0 -2.02344 2.33789 -2.56543 3.4209c0 0.569336 -0.285156 1.13965 -0.855469 1.70898v0.855469c-2.66211 0 -4.14648 5.96875 -5.98438 10.2598
v1.70996c-0.570312 0.569336 -0.854492 1.70996 -0.854492 3.41992c-0.571289 0 -1.14062 0.286133 -1.71094 0.855469c0 0.569336 -0.285156 1.70996 -0.854492 3.41895v0.855469c-3.99023 17.1006 -9.97461 43.0352 -17.9551 77.8057
c-0.570312 9.12012 -5.12988 27.499 -5.12988 55.5752v82.0791c0 0.571289 -0.286133 0.855469 -0.855469 0.855469c-2.28027 0.569336 -5.12988 1.14062 -8.5498 1.70996c0 -0.569336 -0.285156 -0.855469 -0.855469 -0.855469
c-2.84961 -7.41016 -7.97949 -21.9443 -15.3887 -43.6045c-0.571289 -0.570312 -1.42578 -1.70996 -2.56543 -3.4209v-0.853516c-0.571289 -0.571289 -0.855469 -1.14062 -0.855469 -1.70996l-0.854492 -0.855469c0 -0.970703 -1.25391 -2.50586 -1.71094 -3.41992
v-0.855469c-0.569336 -0.569336 -1.70996 -2.28027 -3.41992 -5.12988v-0.854492c-0.569336 0 -0.855469 -0.285156 -0.855469 -0.855469c-2.32031 -2.32324 -2.57715 -3.43262 -5.98438 -6.84082v-1.70898c-1.62402 -1.62402 -7.16406 -7.27148 -11.9697 -11.1152
c0 -0.570312 -0.570312 -0.854492 -1.70996 -0.854492v-0.855469c-0.97168 0 -2.50586 -1.25195 -3.41992 -1.70996h-0.854492c0 -0.569336 -0.571289 -0.855469 -1.71094 -0.855469c0 -0.569336 -0.285156 -1.13867 -0.854492 -1.70996
c-4.9707 0 -10.4443 -2.48145 -17.9551 -3.41895c-10.2051 3.39746 -15.4443 4.29395 -29.9258 9.4043h-1.70898c0 0.570312 -0.570312 0.855469 -1.70996 0.855469c0 2.47168 -12.4268 8.40527 -18.8096 12.8242h-0.855469
c0 0.570312 -0.285156 0.855469 -0.855469 0.855469c-0.570312 0.570312 -0.854492 1.13965 -0.854492 1.70996h-1.70996c-1.14062 -0.570312 -3.4209 -2.28027 -6.83984 -5.12988c0 -0.570312 -0.285156 -0.854492 -0.855469 -0.854492
c1.13965 -2.28027 2.56445 -5.7002 4.27441 -10.2607c0.571289 0 0.855469 -0.285156 0.855469 -0.854492c0 -0.571289 0.569336 -1.4248 1.70996 -2.56543v-1.70996c3.30859 -9.09766 9.24805 -24.7051 11.9697 -41.04c0 -1.14062 0.286133 -3.41992 0.855469 -6.83984
v-5.98535c-0.569336 -1.13965 -0.855469 -3.41895 -0.855469 -6.83984c-1.34961 -2.70312 -2.26855 -7.25195 -4.27539 -10.2598c0 -1.64941 -1.85938 -3.71875 -2.56348 -5.13086c-2.01855 0 -9.2002 -5.88086 -12.8252 -7.69434
c-2.28027 -0.569336 -6.55566 -1.70996 -12.8252 -3.41992h-16.2461c-6.79102 1.13184 -34.3838 6.02246 -51.2998 9.4043l-0.854492 -0.853516c-0.548828 -1.09766 -2.95898 -5.06348 -4.27441 -7.69629c0.771484 0 1.81738 -1.81738 2.56348 -2.56543
c0 -0.569336 0.571289 -1.13867 1.71094 -1.70898c0 -0.972656 1.25195 -2.50488 1.70996 -3.41992h0.854492c0 -0.97168 1.25391 -2.50586 1.71094 -3.4209h0.854492c0 -0.634766 2.56543 -3.73926 2.56543 -5.12891c1.13965 -1.70996 3.13477 -4.55957 5.98438 -8.5498
v-0.855469c1.71387 -1.71387 2.52441 -3.26172 3.4209 -6.84082c0.569336 0 0.854492 -0.569336 0.854492 -1.70996c1.13965 -2.2793 3.13477 -7.40918 5.98438 -15.3896c0 -2.2793 0.286133 -6.83887 0.855469 -13.6797c0 -1.70996 -0.285156 -4.55957 -0.855469 -8.5498
c0 -6.18359 -3.2373 -10.4141 -5.98438 -14.5352h-0.854492v-1.71094c-0.571289 0 -0.855469 -0.28418 -0.855469 -0.853516c-0.569336 0 -0.855469 -0.285156 -0.855469 -0.855469c0 -1.3418 -1.77051 -2.62598 -2.56445 -3.41992
c-0.570312 0 -1.13965 -0.285156 -1.71094 -0.855469l-0.854492 -1.70996c-2.55859 -1.2793 -10.1621 -8.07227 -16.2451 -11.1152h-0.854492c-1.13379 -1.13184 -3.63867 -2.4248 -5.13086 -3.41895h-0.853516c-6.84082 -2.28125 -19.9502 -6.84082 -39.3311 -13.6807
c-0.569336 -0.569336 -1.4248 -0.854492 -2.56543 -0.854492c-0.569336 -0.570312 -0.853516 -1.14062 -0.853516 -1.71094c-0.571289 -1.70996 -1.14062 -3.98926 -1.71094 -6.83887c1.52734 -1.52734 2.875 -2.02051 5.12988 -4.27539
c0.569336 0 0.855469 -0.286133 0.855469 -0.855469c0.645508 -0.646484 1.57324 -1.70996 2.56445 -1.70996c1.54102 -1.54102 7.90039 -6.39648 10.2607 -11.1152h0.854492c1.41504 -1.8877 7.82031 -7.94824 11.1152 -14.5342
c0 -0.571289 0.28418 -1.14062 0.855469 -1.70996c0 -0.570312 0.569336 -1.4248 1.70996 -2.56543v-1.70996c0.569336 0 0.853516 -0.285156 0.853516 -0.855469c0 -0.569336 0.571289 -1.4248 1.71094 -2.56445v-0.854492
c1.94336 -5.83496 3.35742 -10.3633 4.27539 -21.375c0 -16.6553 -4.76855 -28.4697 -12.8252 -41.8955c0 -0.570312 -0.286133 -0.854492 -0.855469 -0.854492v-0.855469c-0.569336 -0.569336 -0.855469 -1.14062 -0.855469 -1.70996
c-3.41895 -3.99023 -7.97949 -9.97461 -13.6787 -17.9551h-1.70996c0 -0.570312 -0.286133 -0.854492 -0.855469 -0.854492zM751.369 280.178h2.56543c31.3506 -8.5498 77.8057 -21.375 139.365 -38.4746h0.855469v0.853516
c0.569336 0.571289 0.854492 1.14062 0.854492 1.71094c1.08691 2.17285 1.67383 2.41406 2.56543 5.98535c-0.244141 0.243164 -3.69824 3.69824 -5.13086 5.12891c-3.44922 0 -11.624 9.05957 -14.5342 11.9707c0 0.569336 -0.285156 1.14062 -0.854492 1.70996
c-4.3125 0 -10.5938 9.74414 -17.1006 16.2441v0.855469c-0.570312 0 -0.855469 0.285156 -0.855469 0.855469c-0.855469 0.854492 -0.855469 0.854492 -1.70898 1.70996c0 0.569336 -0.285156 0.854492 -0.855469 0.854492
c-4.08594 4.09082 -12.5049 17.0205 -17.1006 27.3613c0 0.569336 -0.28418 0.853516 -0.854492 0.853516c-1.84668 7.3877 -4.0293 12.1982 -5.98535 23.9404v8.5498c1.85547 5.56445 2.45801 12.5361 5.12988 19.666c1.14062 2.2793 3.70605 6.55371 7.69531 12.8242
c0 0.570312 0.285156 1.42578 0.855469 2.56543c0.569336 0 0.855469 0.285156 0.855469 0.854492c2.23926 0 4.05664 4.26953 5.98438 6.83984h0.854492c0 1.33496 1.77441 2.62891 2.56543 3.41992c2.88574 2.88574 10.4971 9.84863 16.2451 13.6807v0.855469
c0 0.959961 -0.280273 5.41016 -1.71094 6.83887c0 2.55078 -4.71289 2.82324 -7.69434 3.4209h-1.70996c-16.4609 6.58203 -40.1807 15.1787 -56.4307 27.3594c0 1.11914 -1.44727 2.56543 -2.56445 2.56543c-1.79297 2.69043 -5.16699 6.46875 -7.69531 10.2598v0.855469
c-2.00977 4.01758 -4.27441 9.875 -4.27441 18.8096c0 9.90625 2.38672 20.1631 6.83984 29.0693c0 1.91309 1.76562 2.78906 2.56543 5.98535c0 0.570312 0.569336 1.4248 1.70996 2.56543v0.855469c3.41895 5.12891 3.41895 5.12891 13.6787 20.5195h0.855469
c0 1.61914 2.47754 3.33203 3.41992 4.27441c-1.35742 2.7168 -1.875 3.69727 -4.27539 7.69629c0 0.569336 -0.28418 0.853516 -0.853516 0.853516c-8.55078 -1.70898 -20.8057 -4.55957 -36.7656 -8.5498c-2.28027 0 -6.83984 -0.28418 -13.6807 -0.854492h-17.0996
c-2.6709 1.33691 -12.5547 4.27539 -17.1006 4.27539c0 0.569336 -0.853516 1.4248 -2.56348 2.56445h-0.855469c0 0.570312 -0.285156 0.855469 -0.855469 0.855469c-0.569336 0 -1.13965 0.28418 -1.70996 0.855469c0 0.569336 -0.285156 1.13867 -0.854492 1.70898
h-0.855469c0 0.570312 -0.28418 0.854492 -0.855469 0.854492c-0.854492 1.71094 -0.854492 1.71094 -2.56348 5.13086c-0.571289 0 -1.14062 0.28418 -1.71094 0.855469v1.70996c-0.570312 0.569336 -0.854492 1.4248 -0.854492 2.56445
c-0.571289 1.70996 -1.14062 4.56055 -1.70996 8.55078c0 27.1426 7.99707 45.6436 18.8096 72.6748c-0.570312 0 -0.855469 0.28418 -0.855469 0.854492c-0.569336 0.570312 -1.4248 1.13965 -2.56543 1.70898c0 0.571289 -0.28418 0.855469 -0.853516 0.855469
c-1.46289 0.731445 -2.3457 1.49121 -3.4209 2.56543h-1.70996c0 -0.990234 -1.06543 -1.9209 -1.70996 -2.56543h-0.855469c0 -0.569336 -0.569336 -0.855469 -1.70996 -0.855469c0 -0.569336 -0.28418 -1.13867 -0.853516 -1.70898
c-0.571289 0 -2.28125 -0.854492 -5.13086 -2.56543c0 -0.569336 -0.285156 -0.854492 -0.855469 -0.854492c-2.28809 -2.29004 -5.44434 -3.78027 -11.9697 -7.69531h-1.70996c-1.55371 -1.55176 -3.22949 -1.97461 -6.83984 -3.41992h-0.855469
c-2.94238 0 -7.125 -2.37598 -12.8252 -4.27539c-1.70996 0 -4.84473 -0.569336 -9.4043 -1.70898c-1.13965 0.569336 -3.70508 0.853516 -7.69531 0.853516c-1.13965 0.571289 -3.98926 1.42578 -8.5498 2.56543h-1.70996c0 0.571289 -0.285156 1.14062 -0.854492 1.70996
c-0.570312 0 -1.14062 0.286133 -1.71094 0.855469h-0.854492c-0.970703 0 -2.50586 1.25293 -3.4209 1.70996v0.855469c-2.55566 0 -5.00781 3.07031 -9.4043 6.83984c-3.67969 5.51953 -13.8623 18.4082 -18.8096 30.7793
c-0.570312 0 -1.13965 0.285156 -1.71094 0.855469v2.56543c-0.569336 0 -0.854492 0.285156 -0.854492 0.854492v0.855469c-3.41992 9.11914 -8.26465 22.5146 -14.5342 40.1846c-0.828125 -0.275391 -8.28711 -0.591797 -10.2607 -2.56543v-4.27441l0.855469 -0.854492
v-19.665c-0.570312 -9.12109 -0.855469 -27.0752 -0.855469 -53.8652v-0.855469c-1.13965 -13.1104 -3.98926 -39.9004 -8.55078 -80.3701c-3.85938 -15.4443 -14.0498 -55.0068 -23.084 -76.0947c-0.570312 -0.570312 -1.13965 -1.14062 -1.70996 -1.71094v-1.70898
c-0.569336 0 -0.855469 -0.285156 -0.855469 -0.854492c-1.6123 -2.68848 -6.77539 -9.28125 -10.2598 -16.2461c-0.569336 0 -0.854492 -0.28418 -0.854492 -0.854492c-1.44141 -1.44141 -3.87109 -7.69531 -7.69531 -7.69531
c0 -0.569336 -0.285156 -1.4248 -0.854492 -2.56543c-0.571289 0 -1.14062 -0.28418 -1.71094 -0.854492l-0.854492 -1.70898c-2.28027 -1.71094 -6.27051 -5.13086 -11.9707 -10.2617c-1.86523 0 -5.62207 -3.91211 -6.83887 -5.12891
c-1.56445 0 -4.42578 -2.7168 -5.98633 -4.27539v-1.70898c-0.569336 0 -0.854492 -0.286133 -0.854492 -0.855469c-0.570312 -0.570312 -0.855469 -1.14062 -0.855469 -1.70996c-0.569336 -15.3906 -1.13965 -45.6006 -1.70898 -90.6309v-2.56543
c1.13965 -0.569336 2.84961 -1.99414 5.12988 -4.27441c9.12012 0.570312 27.9297 1.13965 56.4297 1.71094h0.855469c10.6816 -1.52637 57.002 -7.10449 85.5 -13.6807l1.70996 -0.855469h0.855469c6.26953 -1.70996 15.3887 -4.27539 27.3594 -7.69434
c0.569336 -0.569336 1.14062 -0.855469 1.70996 -0.855469s1.13965 -0.285156 1.70996 -0.854492c14.25 -4.55957 36.1953 -11.6846 65.834 -21.375z" />
</svg>
