<?xml version="1.0" standalone="no"?>
<!DOCTYPE svg PUBLIC "-//W3C//DTD SVG 1.1//EN" "http://www.w3.org/Graphics/SVG/1.1/DTD/svg11.dtd" >
<svg xmlns="http://www.w3.org/2000/svg" xmlns:xlink="http://www.w3.org/1999/xlink" version="1.1" viewBox="-10 0 1010 1000">
   <path fill="currentColor"
d="M113.35 114.85h773.301v773.301h-773.301v-91.3008v-488.399v-193.601zM470.85 167.65c-18.333 34.4658 -55.3662 103.399 -111.1 206.8v6.59961c0 0.733398 10.2666 17.9668 30.7998 51.7002c25.667 42.5332 64.5332 106.333 116.601 191.4
c5.86621 9.5332 17.5996 28.2334 35.1992 56.0996c1.4668 0.733398 4.7666 1.09961 9.90039 1.09961c2.2002 -1.46582 34.4668 -35.1992 96.7998 -101.199c9.5332 -10.2666 24.5664 -26.4004 45.1006 -48.4004c0.733398 -1.4668 1.46582 -4.0332 2.19922 -7.7002
c-35.9326 -59.3994 -107.066 -178.566 -213.399 -357.5h-5.5c-1.4668 0.733398 -3.66699 1.10059 -6.60059 1.10059zM289.35 363.45c-17.5996 22.7334 -53.166 68.5664 -106.699 137.5c-3.66699 5.13281 -5.5 9.16602 -5.5 12.0996v116.601v199.1
c1.46582 0.733398 3.66602 2.56641 6.59961 5.5c105.6 0.733398 316.8 1.09961 633.6 1.09961c1.4668 -0.733398 4.03418 -2.56641 7.7002 -5.5c-0.733398 -23.4658 -1.09961 -70.0332 -1.09961 -139.699v-94.6006c0 -3.66602 -3.66699 -8.7998 -11 -15.3994
c-4.40039 -5.13379 -11.3672 -12.834 -20.9004 -23.1006c-8.06641 -9.5332 -12.4668 -14.2998 -13.2002 -14.2998h-9.89941c-27.8672 27.8662 -83.9668 83.2334 -168.3 166.1c-9.53418 9.53418 -28.6006 27.8672 -57.2002 55
c-24.9336 -41.0664 -74.7998 -123.566 -149.601 -247.5c-15.3994 -25.666 -46.1992 -76.6328 -92.3994 -152.899h-12.1006z" />
</svg>
