<?xml version="1.0" standalone="no"?>
<!DOCTYPE svg PUBLIC "-//W3C//DTD SVG 1.1//EN" "http://www.w3.org/Graphics/SVG/1.1/DTD/svg11.dtd" >
<svg xmlns="http://www.w3.org/2000/svg" xmlns:xlink="http://www.w3.org/1999/xlink" version="1.1" viewBox="-10 0 1010 1000">
   <path fill="currentColor"
d="M462.875 55.2891c4.48633 -0.551758 11.5762 -0.802734 20.1846 -0.802734c28.8125 0 74.6406 2.80664 96.8154 6.50195c50.0996 8.40039 114.9 33.6006 161.4 63.3008l15.5996 10.1992v108h107.699l8.70117 12.6006c27.5996 40.2002 56.4004 113.699 65.4004 165.899
c3.44922 20.25 5.17383 49.125 5.17383 78c0 28.876 -1.72461 57.751 -5.17383 78.001c-9.60156 57.2988 -34.8008 119.1 -69.9004 171.6l-16.2012 24.8994h-95.6992v90l-15.5996 10.2002c-43.5 27.6006 -100.801 51 -153.301 62.4004
c-22.0498 4.7998 -54.8242 7.2002 -87.5996 7.2002s-65.5498 -2.40039 -87.5996 -7.2002c-57.3008 -12.2998 -112.5 -35.7002 -162 -68.7002l-24.9004 -16.2002v-77.7002h-77.6992l-16.2012 -24.8994c-33.5996 -50.7002 -55.1992 -102.3 -68.4004 -164.101
c-4.94922 -22.6494 -7.42383 -54.0742 -7.42383 -85.5c0 -31.4248 2.47461 -62.8496 7.42383 -85.5c12 -55.7998 34.2012 -111.6 62.1016 -155.399l10.1992 -15.6006h90v-95.6992l24.9004 -16.2002c65.3984 -43.5 125.4 -64.7998 212.1 -75.2998zM619.775 106.889
l-29.4004 -9.59961l-84 -0.900391c-14.5781 -0.118164 -26.7754 -0.189453 -37.1162 -0.189453c-42.2207 0 -53.4805 1.19238 -69.3838 5.28906c-40.8008 10.2012 -90.9004 32.4004 -123.6 54.6006l-17.4004 11.7002v107.7h-104.1l-18.3008 35.0996
c-20.0996 39.2998 -34.1992 80.3994 -41.4004 120c-3 17.3994 -4.5 42.9746 -4.5 68.5869c0 25.6133 1.5 51.2637 4.5 68.8135c9.59961 53.0996 33.3008 113.699 61.8008 156.6l10.5 15.8994h91.5v92.4004l18.9004 12c69 43.5 141 64.5 222.6 64.5
c73.8008 0 138 -16.7998 201.9 -52.7998l21.5996 -12.2998v-103.801l54.5996 -0.599609l54.9004 -0.899414l9.90039 -15.001c24 -36 46.7988 -89.0996 56.0996 -130.799c3.12988 -14.3135 4.26172 -27.292 4.26172 -60.9346
c0 -11.4873 -0.131836 -25.3838 -0.361328 -42.5654l-1.20117 -80.7012l-9.59961 -29.3994c-12 -35.7002 -24.2988 -63.5996 -38.4004 -86.7002l-10.5 -17.3994h-119.699v-119.7l-17.4004 -10.5c-23.0996 -14.1006 -51 -26.4004 -86.6992 -38.4004zM461.975 194.789
c16.4961 -27.4932 24.3926 -39.2549 31.3164 -39.2549c4.78613 0 9.10742 5.62207 15.4844 15.5547c24.8213 39.3174 35.5791 59.1816 35.5791 68.1201c0 4.56445 -2.80664 6.2793 -7.97949 6.2793c-5.09961 0 -9.59961 -4.5 -18.3008 -19.499
c-6.59961 -10.501 -12.5996 -19.501 -13.7988 -19.501c-1.5 0 -2.40039 37.2002 -2.40039 82.8008c0 69.9131 0.243164 81.0488 4.00781 81.0488c0.418945 0 0.881836 -0.138672 1.39258 -0.348633c29.3984 -11.4004 53.4004 -17.4004 75.9004 -18.9004
c3.54688 -0.201172 7.0791 -0.301758 10.5918 -0.301758c74.9209 0 141.378 45.415 170.607 118.202c7.5 18.2998 8.69922 26.0996 9.90039 58.7998c0.306641 9.05566 0.515625 16.0303 0.515625 21.7979c0 16.7783 -1.76562 23.3408 -8.01562 41.2021
c-23.4482 68.2109 -84.9678 125.27 -174.506 125.27c-4.65625 0 -9.38867 -0.154297 -14.1953 -0.469727c-24.8984 -1.7998 -37.1992 -4.80078 -70.7988 -18.6006c-0.481445 -0.210938 -0.920898 -0.345703 -1.32227 -0.345703
c-3.59863 0 -4.13867 10.8691 -4.67773 75.6465l-0.900391 77.6992c-5.48438 0.616211 -10.9854 1.21582 -16.5 1.80078v-77.1006c0 -65.9141 -0.251953 -75.5088 -3.97656 -75.5088c-0.34375 0 -0.717773 0.0820312 -1.12305 0.208984
c-3 1.2002 -13.5 4.7998 -23.1016 8.10059c-15.3721 5.46094 -38.791 8.46777 -60.7852 8.46777c-10.627 0 -20.9209 -0.702148 -29.8145 -2.16797c-65.3223 -11.2188 -120.129 -64.7559 -140.1 -123c-6.25098 -17.8584 -8.01562 -24.4219 -8.01562 -41.1953
c0 -5.76855 0.208984 -12.7451 0.515625 -21.8047c1.20117 -32.7002 2.40039 -40.5 9.90039 -58.7998c29.7861 -73.7549 97.3848 -118.266 170.653 -118.266c19.7139 0 39.8379 3.22266 59.7471 9.96484c12.5996 4.2002 24 7.7998 24.5996 7.7998
c0.900391 0 1.5 -36.5996 1.5 -81c0 -44.7002 -1.20117 -81 -2.40039 -81s-7.5 8.70117 -13.7988 19.8008c-10.2012 17.0996 -12.6016 19.5 -19.5 18.5996c-4.23633 -0.564453 -8.72656 -3.05859 -8.72656 -6.26758c0 -3.54492 9.9873 -22.8389 22.5254 -43.832z
M454.475 380.188c-13.6514 -5.16504 -37.9658 -8.06152 -59.9697 -8.06152c-13.7783 0 -26.6504 1.13574 -35.4307 3.56152c-62.3984 17.7002 -106.5 64.501 -119.699 126.9c-2.79492 12.8574 -4.22266 22.5898 -4.22266 32.1084c0 10.915 1.87695 21.5488 5.72266 36.291
c14.6992 57 54.3008 99.6006 109.5 117.3c16.0459 5.22461 32.4717 7.57227 48.5029 7.57227c28.0117 0 54.8203 -7.16699 76.2979 -18.6719l-15.002 -16.499c-33.6777 -36.8643 -50.5566 -82.7812 -50.5566 -128.246c0 -44.4434 16.1289 -88.4541 48.457 -123.155
c9.31836 -10.25 14.8291 -19.1201 14.8291 -22.6211c0 -3.51855 -5.56738 -1.6543 -18.4287 -6.47852zM651.275 382.288c-18 -7.19922 -27.3008 -9 -53.4004 -9.59863c-4.7041 -0.196289 -9.0957 -0.292969 -13.1982 -0.292969c-14.7363 0 -25.7539 1.24512 -34.2021 3.5918
c-13.8008 3.90039 -33.5996 12.3008 -33.5996 14.4004c0 0.300781 7.5 8.7002 16.8008 18.5996c32.5273 34.916 47.9082 78.9316 47.9082 122.87c0 46.7031 -17.377 93.3203 -50.0098 128.831l-15 16.499c21.4727 11.5029 48.2812 18.6719 76.2979 18.6719
c16.0303 0 32.4551 -2.34668 48.5029 -7.57227c55.1992 -17.6992 94.8008 -60.2998 109.5 -117.3c3.8457 -14.7422 5.72266 -25.376 5.72266 -36.291c0 -9.51855 -1.42773 -19.251 -4.22266 -32.1084c-11.6992 -55.5 -48.9004 -99.6006 -101.1 -120.301zM521.074 426.089
c-7.5 -8.7002 -15 -15.5996 -16.5 -15.5996s-2.69922 49.7998 -2.69922 122.999c0 71.7002 1.19922 123 2.69922 123s8.70117 -6.59961 15.9004 -14.6992c27.5635 -30.5752 41.3633 -69.0908 41.3633 -107.763c0 -38.3555 -13.5752 -76.8662 -40.7637 -107.938z
M483.875 533.488c0 -74.0996 -1.20117 -117 -3 -117c-1.5 0 -8.40039 6.90039 -15.3008 15.6006c-23.7598 30.2402 -35.9639 65.7725 -35.9639 101.542c0 23.8467 5.42383 47.7979 16.4639 70.3584c10.2012 20.7002 29.7012 46.499 35.1016 46.499
c1.49805 0 2.69922 -47.7002 2.69922 -117z" />
</svg>
