<?xml version="1.0" standalone="no"?>
<!DOCTYPE svg PUBLIC "-//W3C//DTD SVG 1.1//EN" "http://www.w3.org/Graphics/SVG/1.1/DTD/svg11.dtd" >
<svg xmlns="http://www.w3.org/2000/svg" xmlns:xlink="http://www.w3.org/1999/xlink" version="1.1" viewBox="-10 0 1010 1000">
   <path fill="currentColor"
d="M462.875 55.2891c4.48633 -0.551758 11.5762 -0.802734 20.1846 -0.802734c28.8125 0 74.6406 2.80664 96.8154 6.50195c50.0996 8.40039 114.9 33.6006 161.4 63.3008l15.5996 10.1992v108h107.699l8.70117 12.6006c27.5996 40.2002 56.4004 113.699 65.4004 165.899
c3.44922 20.25 5.17383 49.125 5.17383 78c0 28.876 -1.72461 57.751 -5.17383 78.001c-9.60156 57.2988 -34.8008 119.1 -69.9004 171.6l-16.2012 24.8994h-95.6992v90l-15.5996 10.2002c-43.5 27.6006 -100.801 51 -153.301 62.4004
c-22.0498 4.7998 -54.8242 7.2002 -87.5996 7.2002s-65.5498 -2.40039 -87.5996 -7.2002c-57.3008 -12.2998 -112.5 -35.7002 -162 -68.7002l-24.9004 -16.2002v-77.7002h-77.6992l-16.2012 -24.8994c-33.5996 -50.7002 -55.1992 -102.3 -68.4004 -164.101
c-4.94922 -22.6494 -7.42383 -54.0742 -7.42383 -85.5c0 -31.4248 2.47461 -62.8496 7.42383 -85.5c12 -55.7998 34.2012 -111.6 62.1016 -155.399l10.1992 -15.6006h90v-95.6992l24.9004 -16.2002c65.3984 -43.5 125.4 -64.7998 212.1 -75.2998zM619.775 106.889
l-29.4004 -9.59961l-84 -0.900391c-14.5781 -0.118164 -26.7754 -0.189453 -37.1162 -0.189453c-42.2207 0 -53.4805 1.19238 -69.3838 5.28906c-40.8008 10.2012 -90.9004 32.4004 -123.6 54.6006l-17.4004 11.7002v107.7h-104.1l-18.3008 35.0996
c-20.0996 39.2998 -34.1992 80.3994 -41.4004 120c-3 17.3994 -4.5 42.9746 -4.5 68.5869c0 25.6133 1.5 51.2637 4.5 68.8135c9.59961 53.0996 33.3008 113.699 61.8008 156.6l10.5 15.8994h91.5v92.4004l18.9004 12c69 43.5 141 64.5 222.6 64.5
c73.8008 0 138 -16.7998 201.9 -52.7998l21.5996 -12.2998v-103.801l54.5996 -0.599609l54.9004 -0.899414l9.90039 -15.001c24 -36 46.7988 -89.0996 56.0996 -130.799c3.12988 -14.3135 4.26172 -27.292 4.26172 -60.9346
c0 -11.4873 -0.131836 -25.3838 -0.361328 -42.5654l-1.20117 -80.7012l-9.59961 -29.3994c-12 -35.7002 -24.2988 -63.5996 -38.4004 -86.7002l-10.5 -17.3994h-119.699v-119.7l-17.4004 -10.5c-23.0996 -14.1006 -51 -26.4004 -86.6992 -38.4004zM483.875 333.089
c-13.5195 -8.6543 -14.9668 -9.71094 -53.8584 -9.71094c-12.5742 0 -29.0635 0.110352 -51.1416 0.110352c-55.5 0 -90 1.2002 -90 3c0 1.5 4.79883 15.9004 10.8008 32.1006c11.9824 34.0596 51.5283 143.825 63.8984 177.3
c5.98047 15.9473 8.74121 25.4551 8.74121 33.5674c0 6.53809 -1.79297 12.1689 -5.13965 19.5322c-13.5996 30.0225 -52.001 48.4121 -97.5566 48.4121c-7.70508 0 -15.6152 -0.526367 -23.6445 -1.61133c-39.9004 -5.40039 -61.7988 -19.501 -82.1992 -52.8008
c-8.40039 -13.1992 -8.70117 -18.5996 -1.20117 -26.6992c3 -3.59961 18 -38.7002 33.3008 -78.2998c15.3008 -39.6006 35.6992 -92.1006 45.3008 -116.7c9.89844 -24.5996 17.6992 -47.7002 17.6992 -51.5996c0 -3.90137 2.69922 -8.40137 5.69922 -10.2012
c3.90039 -1.7998 42 -3 103.5 -3c63.3008 0 97.8008 -1.19922 97.8008 -2.99902s2.69922 -5.70117 6 -9c4.19922 -4.2002 9.90039 -6.00098 19.1992 -6.00098c11.1016 0 14.4004 1.50098 20.7012 9l7.79883 9h102.301c101.4 0 111.301 0.900391 117.9 10.2002
c1.66406 2.49805 0.514648 6.72363 0.514648 10.8301c0 19.1211 74.1904 199.643 78.6846 211.47c5.69922 14.7012 11.7012 28.2012 13.2012 29.7002c4.5 4.80078 3 13.2002 -4.5 28.5c-14.1016 27.9004 -39.6016 43.2002 -80.1016 48.6006
c-8.24219 1.13965 -16.2852 1.69629 -24.0693 1.69629c-45.4805 0 -82.1045 -19.0088 -97.7295 -51.7969l-7.5 -15.8994l11.0996 -29.4004c18.3008 -48.2998 76.5 -211.8 76.5 -214.5c0 -1.2002 -43.8008 -2.40039 -97.5 -2.40039h-97.5v221.4
c0 168.3 -0.900391 222.3 -3.59961 225c-4.5 4.5 -15.3008 4.5 -19.8008 0c-2.69922 -2.7002 -3.59961 -55.7998 -3.59961 -220.2v-216.6zM277.775 357.089c-6.09961 -15.5791 -7.60449 -20.3711 -13.5 -1.2002c-4.6582 13.4531 -71.5225 185.262 -75 198.601h80.0996
c67.4092 0 78.3516 -0.243164 78.3516 -3.99512c0 -6.67578 -67.7119 -187.433 -69.9512 -193.405zM746.375 396.389c-11.7012 -30.2998 -21.5996 -54.9004 -22.5 -54.9004s-5.40039 11.1006 -10.1992 24.6006c-1.15723 3.12988 -68.5615 186.517 -66.6016 187.5
c0.352539 0.351562 12.8516 0.49707 31.9502 0.49707c13.5039 0 30.3086 -0.0732422 48.4502 -0.197266l79.8008 -0.900391l-20.0996 -51c-11.1016 -28.1992 -29.4004 -75.5996 -40.8008 -105.6zM348.875 579.689c0 -3.60059 -13.1992 -4.20117 -82.5 -4.20117h-82.8008
l4.80078 9c10.2344 19.9346 46.4336 32.9404 82.5137 32.9404c16.6797 0 33.334 -2.78027 47.3867 -8.93945c15.8984 -6.90039 30.5996 -20.7002 30.5996 -28.7998zM806.375 584.488l4.79883 -9h-84.2988c-46.2012 0 -84 0.900391 -84 2.10059
c0 6.2998 17.4004 22.5 32.0996 29.6992c14.2656 7.13281 31.874 10.3516 49.5928 10.3516c35.4873 0 71.417 -12.9121 81.8076 -33.1514z" />
</svg>
