<?xml version="1.0" standalone="no"?>
<!DOCTYPE svg PUBLIC "-//W3C//DTD SVG 1.1//EN" "http://www.w3.org/Graphics/SVG/1.1/DTD/svg11.dtd" >
<svg xmlns="http://www.w3.org/2000/svg" xmlns:xlink="http://www.w3.org/1999/xlink" version="1.1" viewBox="-10 0 1010 1000">
   <path fill="currentColor"
d="M116.1 112.85h773.301v773.301h-773.301v-90.2002v-489.5v-193.601zM648.5 414.25l13.2002 -45.0996c9.5332 -29.334 20.5332 -63.4336 33 -102.301c12.0996 -38.5 12.0996 -38.5 24.2002 -77c8.06641 -25.666 15.0332 -48.3994 20.8994 -68.1992l-36.2998 27.5
c-24.9336 17.5996 -53.167 38.1328 -84.7002 61.5996c-21.2666 15.4004 -42.166 30.7998 -62.7002 46.2002c-21.2666 15.3994 -39.9658 28.9668 -56.0996 40.7002l-36.2998 -26.4004c-24.9336 -18.333 -53.167 -39.2334 -84.7002 -62.7002
c-22 -16.1328 -43.6338 -31.8994 -64.9004 -47.2998c-20.5332 -15.4004 -38.8662 -28.9668 -55 -40.7002l13.2002 44c9.5332 30.0664 20.5332 64.167 33 102.3c12.1006 38.5 12.1006 38.5 24.2002 77c8.06641 24.9336 15.0332 47.3008 20.9004 67.1006l-36.3008 27.5
c-24.9326 18.333 -53.166 39.5996 -84.6992 63.7998l-63.8008 48.4004c-21.2666 15.3994 -39.9658 29.333 -56.0996 41.7998l46.2002 1.09961c30.7998 0 65.6328 0.367188 104.5 1.10059c27.1328 0.733398 53.8994 1.46582 80.2998 2.19922
c26.4004 0 49.5 0.367188 69.2998 1.10059l13.2002 44c9.5332 28.5996 20.167 61.9668 31.9004 100.1c8.06641 25.667 16.1328 50.9668 24.1992 75.9004c8.06738 25.666 15.0342 48.0332 20.9004 67.0996l14.2998 -44c8.7998 -28.5996 19.0664 -61.5996 30.7998 -99
c8.06738 -24.9336 15.7666 -49.8662 23.1006 -74.7998c8.06641 -25.667 15.0332 -48.0332 20.8994 -67.0996l46.2002 1.09961c30.7998 0.733398 66.3672 1.4668 106.7 2.2002c26.4004 0 52.7998 0.366211 79.2002 1.09961c26.3994 0.733398 49.5 1.10059 69.2998 1.10059
l-36.2998 -28.6006c-24.9336 -19.7998 -53.5332 -42.5332 -85.7998 -68.2002c-21.2666 -16.1328 -42.5342 -32.6328 -63.8008 -49.5c-21.2666 -16.8662 -39.9658 -31.8994 -56.0996 -45.0996zM780.5 567.15c-9.5332 -7.33398 -20.5332 -16.1338 -33 -26.4004
c-11.7334 -9.5332 -23.833 -19.0664 -36.2998 -28.5996c-19.0664 -14.667 -35.5664 -27.8672 -49.5 -39.6006l-22 -16.5v5.5c0.733398 1.4668 1.09961 2.93359 1.09961 4.40039c0 19.0664 -3.2998 37.0332 -9.89941 53.8994c-6.60059 16.1338 -15.4004 30.8008 -26.4004 44
c26.4004 0 49.1338 0.367188 68.2002 1.10059c19.0664 0 34.833 0.366211 47.2998 1.09961c30.0664 0 47.667 0.367188 52.7998 1.10059h7.7002zM496.7 757.45c2.93359 -10.2666 6.59961 -22 11 -35.2002c4.39941 -13.2002 8.7998 -26.7666 13.2002 -40.7002
c6.59961 -19.7998 12.4658 -37.7666 17.5996 -53.8994l6.59961 -23.1006c-7.33301 2.93359 -14.666 4.7666 -22 5.5c-8.06641 1.4668 -16.1328 2.2002 -24.1992 2.2002c-8.80078 0 -17.6006 -0.733398 -26.4004 -2.2002c-8.06641 -1.4668 -16.1338 -4.0332 -24.2002 -7.7002
c7.33398 23.4668 13.5664 43.6338 18.7002 60.5c5.13379 16.1338 9.5332 30.0674 13.2002 41.8008c8.06641 26.3994 12.833 41.7998 14.2998 46.1992zM232.7 557.25c11 0 23.4668 0.366211 37.3994 1.09961h40.7002c21.2666 0.733398 39.9668 1.10059 56.1006 1.10059
h24.1992c-10.2666 -12.4668 -18.333 -26.7666 -24.1992 -42.9004c-5.86719 -15.3994 -8.80078 -32.2666 -8.80078 -50.5996v-2.2002v-3.2998c-18.333 14.666 -34.4658 27.1328 -48.3994 37.3994c-13.2002 10.2666 -24.5664 19.0674 -34.1006 26.4004
c-21.2666 16.1338 -33.7334 25.667 -37.3994 28.5996zM330.6 225.05c3.66699 10.2666 7.7002 22.7334 12.1006 37.4004c4.39941 13.9336 8.7998 28.2334 13.2002 42.8994c6.59961 21.2666 12.4658 39.9668 17.5996 56.1006l7.7002 25.2998
c9.5332 -15.4004 21.6328 -28.5996 36.2998 -39.5996c15.4004 -11 31.9004 -18.7002 49.5 -23.1006c-20.5332 -15.3994 -38.1338 -28.2334 -52.7998 -38.5c-14.667 -11 -26.7666 -19.7998 -36.2998 -26.3994c-23.4668 -17.6006 -37.4004 -27.8672 -41.8008 -30.8008z
M498.9 363.65c-27.1338 0 -50.2334 9.89941 -69.3008 29.6992c-19.0664 19.8008 -28.5996 44 -28.5996 72.6006c0 13.2002 2.2002 25.666 6.59961 37.3994c4.40039 11.7334 10.6338 22 18.7002 30.8008c28.6006 -41.8008 45.4668 -66.3672 50.6006 -73.7002
l6.59961 -9.90039c5.86621 4.40039 13.5664 9.90039 23.0996 16.5l14.3008 9.90039c-9.53418 13.9336 -21.2666 31.5332 -35.2002 52.7998l-20.9004 30.7998c5.13379 2.2002 10.6338 3.66699 16.5 4.40039c5.13379 1.4668 11 2.2002 17.6006 2.2002
c26.3994 0 49.1328 -9.90039 68.1992 -29.7002c19.0674 -19.7998 28.6006 -43.6338 28.6006 -71.5c0 -28.6006 -9.5332 -52.7998 -28.6006 -72.6006c-19.0664 -19.7998 -41.7998 -29.6992 -68.1992 -29.6992zM666.1 226.15
c-8.7998 6.59961 -18.6992 14.2998 -29.6992 23.0996c-11.7334 8.7998 -23.1006 17.5996 -34.1006 26.4004c-17.5996 13.1992 -33 24.9326 -46.2002 35.1992l-18.6992 14.3008c16.1328 5.13281 30.7998 12.4658 44 22c13.9326 10.2666 25.2998 22.7334 34.0996 37.3994
c8.06641 -24.2002 14.667 -44.7334 19.7998 -61.5996c5.13379 -16.8672 9.5332 -31.167 13.2002 -42.9004c8.7998 -26.3994 13.9336 -42.166 15.4004 -47.2998z" />
</svg>
