<?xml version="1.0" standalone="no"?>
<!DOCTYPE svg PUBLIC "-//W3C//DTD SVG 1.1//EN" "http://www.w3.org/Graphics/SVG/1.1/DTD/svg11.dtd" >
<svg xmlns="http://www.w3.org/2000/svg" xmlns:xlink="http://www.w3.org/1999/xlink" version="1.1" viewBox="-10 0 1010 1000">
   <path fill="currentColor"
d="M462.875 55.2891c4.48633 -0.551758 11.5762 -0.802734 20.1846 -0.802734c28.8125 0 74.6406 2.80664 96.8154 6.50195c50.0996 8.40039 114.9 33.6006 161.4 63.3008l15.5996 10.1992v108h107.699l8.70117 12.6006c27.5996 40.2002 56.4004 113.699 65.4004 165.899
c3.44922 20.25 5.17383 49.125 5.17383 78c0 28.876 -1.72461 57.751 -5.17383 78.001c-9.60156 57.2988 -34.8008 119.1 -69.9004 171.6l-16.2012 24.8994h-95.6992v90l-15.5996 10.2002c-43.5 27.6006 -100.801 51 -153.301 62.4004
c-22.0498 4.7998 -54.8242 7.2002 -87.5996 7.2002s-65.5498 -2.40039 -87.5996 -7.2002c-57.3008 -12.2998 -112.5 -35.7002 -162 -68.7002l-24.9004 -16.2002v-77.7002h-77.6992l-16.2012 -24.8994c-33.5996 -50.7002 -55.1992 -102.3 -68.4004 -164.101
c-4.94922 -22.6494 -7.42383 -54.0742 -7.42383 -85.5c0 -31.4248 2.47461 -62.8496 7.42383 -85.5c12 -55.7998 34.2012 -111.6 62.1016 -155.399l10.1992 -15.6006h90v-95.6992l24.9004 -16.2002c65.3984 -43.5 125.4 -64.7998 212.1 -75.2998zM619.775 106.889
l-29.4004 -9.59961l-84 -0.900391c-14.5781 -0.118164 -26.7754 -0.189453 -37.1162 -0.189453c-42.2207 0 -53.4805 1.19238 -69.3838 5.28906c-40.8008 10.2012 -90.9004 32.4004 -123.6 54.6006l-17.4004 11.7002v107.7h-104.1l-18.3008 35.0996
c-20.0996 39.2998 -34.1992 80.3994 -41.4004 120c-3 17.3994 -4.5 42.9746 -4.5 68.5869c0 25.6133 1.5 51.2637 4.5 68.8135c9.59961 53.0996 33.3008 113.699 61.8008 156.6l10.5 15.8994h91.5v92.4004l18.9004 12c69 43.5 141 64.5 222.6 64.5
c73.8008 0 138 -16.7998 201.9 -52.7998l21.5996 -12.2998v-103.801l54.5996 -0.599609l54.9004 -0.899414l9.90039 -15.001c24 -36 46.7988 -89.0996 56.0996 -130.799c3.12988 -14.3135 4.26172 -27.292 4.26172 -60.9346
c0 -11.4873 -0.131836 -25.3838 -0.361328 -42.5654l-1.20117 -80.7012l-9.59961 -29.3994c-12 -35.7002 -24.2988 -63.5996 -38.4004 -86.7002l-10.5 -17.3994h-119.699v-119.7l-17.4004 -10.5c-23.0996 -14.1006 -51 -26.4004 -86.6992 -38.4004zM701.375 291.089
c5.92773 -2.10742 11.2773 -3.17383 16.7852 -3.17383c7.03516 0 14.3281 1.74023 23.4141 5.27344c35.6875 13.4121 61.2383 49.1963 61.2383 79.7207c0 7.71094 -1.62988 15.0859 -5.13867 21.6797c-2.39844 4.5 -29.0996 33 -59.3984 63.2998
c-39.333 39.0479 -54.8369 52.9131 -59.6318 52.9131c-0.251953 0 -0.474609 -0.0380859 -0.668945 -0.113281c-2.69922 -0.899414 -5.09961 -3.89941 -5.09961 -6.59961s24.3008 -29.1006 53.6992 -59.1006c33.6016 -33.5996 54.6016 -57.2998 55.8008 -62.3994
c0.984375 -3.66699 1.44336 -7.33105 1.44336 -10.959c0 -34.1494 -40.6758 -65.1016 -67.0566 -65.1016c-2.35645 0 -4.59863 0.24707 -6.6875 0.760742c-11.3555 2.91113 -192.647 185.341 -192.647 196.006c0 6.84766 12.9229 21.1689 79.5479 87.7939
c65.0996 65.1006 81.9004 80.4004 88.5 80.4004c15.4443 0 25.3418 11.6162 25.3418 24.2471c0 6.18945 -2.37695 12.623 -7.64258 18.0527c-5.83105 5.67383 -12.0762 8.53223 -18.3867 8.53223c-5.70215 0 -11.459 -2.33398 -17.0117 -7.0332
c-6.90039 -5.99902 -8.09961 -9.2998 -7.80078 -20.3994l0.300781 -12.9004l-78.3008 -78.8994c-66.9336 -67.2031 -77.5352 -77.1045 -85.1055 -77.1045c-0.844727 0 -1.65137 0.123047 -2.49414 0.303711c-6.59961 1.20117 -32.4004 25.2002 -99 91.2012
c-49.5 49.1992 -94.5 91.7998 -100.199 94.5c-5.35156 2.6748 -13.1904 3.94434 -21.5879 3.94434c-11.3779 0 -23.7822 -2.3291 -32.4121 -6.64453c-30.541 -16.0342 -51.583 -48.4785 -51.583 -76.8154c0 -5.06543 0.672852 -9.99902 2.08301 -14.6846
c3.29883 -11.7002 11.998 -21.6006 59.0996 -69.001c38.2334 -37.9424 56.0244 -53.7363 60.5508 -53.7363c4.25391 0 6.88379 2.57129 6.88379 4.95703c0 7.02148 -14.835 23.3516 -54.835 63.7803l-56.4004 56.4004l1.5 15.2998
c2.98926 31.5166 36.7373 62.543 64.9189 62.543c2.93457 0 5.80859 -0.336914 8.58105 -1.04395c5.40039 -1.19922 39.3008 -32.6992 97.5 -90.5996c74.3779 -74.1123 86.6357 -86.8066 86.6357 -93.9189c0 -0.948242 -0.217773 -1.79785 -0.536133 -2.68066
c-2.30078 -5.37109 -0.979492 -11.4199 -0.979492 -16.6045c0 -6.71094 -11.3164 -18.792 -68.3193 -75.7959c-69.5996 -69.5996 -69.9004 -69.8994 -82.8008 -69.8994c-17.0918 0 -27.6006 -10.666 -27.6006 -23.0986c0 -6.33398 2.72656 -13.126 8.7002 -19.2012
c5.70312 -5.70312 12.5166 -8.28809 18.9922 -8.28809c12.2598 0 23.3086 9.26758 23.3086 24.1875c0 8.7002 7.5 17.0996 71.0996 81c52.5 52.5 73.2012 71.4004 78.3008 71.4004c3.90039 0 9.89844 1.49902 13.1992 3.29883
c0.582031 0.306641 1.20117 0.494141 1.93457 0.494141c6.44922 0 21.7041 -14.502 97.665 -90.1934c57 -56.7002 96.9004 -94.2002 102.301 -96z" />
</svg>
