<?xml version="1.0" standalone="no"?>
<!DOCTYPE svg PUBLIC "-//W3C//DTD SVG 1.1//EN" "http://www.w3.org/Graphics/SVG/1.1/DTD/svg11.dtd" >
<svg xmlns="http://www.w3.org/2000/svg" xmlns:xlink="http://www.w3.org/1999/xlink" version="1.1" viewBox="-10 0 1010 1000">
   <path fill="currentColor"
d="M113.35 114.85h773.301v773.301h-773.301v-91.3008v-488.399v-193.601zM445.55 134.65v12.0996c19.0664 8.7998 41.0664 20.9004 66 36.2998c26.4004 15.4004 59.0332 38.8672 97.9004 70.4004c55.7334 46.9336 105.233 96.7998 148.5 149.6
c35.2002 43.2666 61.9668 80.2998 80.2998 111.101c9.5332 15.3994 17.9668 29.6992 25.2998 42.8994h4.40039v-101.2c0 -0.733398 -5.13379 -8.06641 -15.4004 -22c-21.2666 -30.0664 -49.1328 -64.8994 -83.5996 -104.5c-33 -35.9326 -61.2334 -64.166 -84.7002 -84.6992
c-42.5332 -37.4004 -76.2666 -64.167 -101.2 -80.3008c-18.333 -13.1992 -33.7334 -23.0996 -46.2002 -29.6992h-91.2998zM376.25 328.25v2.2002c0.733398 11 2.56641 16.5 5.5 16.5c22.7334 11 47.2998 25.2998 73.7002 42.8994
c16.8662 11.7334 37.0332 27.8672 60.5 48.4004c24.9336 22.7334 44.3662 41.7998 58.2998 57.2002c19.7998 23.4668 36.2998 44.3662 49.5 62.7002c16.8662 25.666 31.167 48.7666 42.9004 69.2998h7.69922c17.6006 0 31.167 -9.16699 40.7002 -27.5
c-5.13281 -8.7998 -12.833 -21.6338 -23.0996 -38.5c-77.7334 -120.267 -173.8 -208.267 -288.2 -264c-18.333 5.86621 -27.5 16.1328 -27.5 30.7998zM320.15 480.05c-8.80078 5.13379 -15.4004 14.2998 -19.8008 27.5c-2.19922 8.06641 -3.2998 15.4004 -3.2998 22
c17.6006 8.7998 35.9336 20.5332 55 35.2002c12.4668 8.06641 30.7998 24.2002 55 48.4004c28.6006 30.0664 47.667 52.7998 57.2002 68.1992c7.33301 8.80078 14.667 18.7002 22 29.7002h3.2998c19.0664 0 33 -10.2666 41.7998 -30.7998
c-12.4658 -19.7998 -26.7666 -38.8662 -42.8994 -57.2002c-7.33398 -11.7334 -25.667 -32.2666 -55 -61.5996c-30.0664 -28.6006 -55 -48.4004 -74.7998 -59.4004c-23.4668 -14.666 -36.3008 -22 -38.5 -22zM209.05 708.85c8.7998 4.40039 22.3672 15.4004 40.7002 33
c23.4668 25.667 38.8662 44.7334 46.2002 57.2002c2.2002 0 5.5 0.367188 9.89941 1.10059c16.1338 0 28.2334 -10.2666 36.3008 -30.8008c-7.33398 -13.1992 -23.4668 -33 -48.4004 -59.3994c-19.0664 -19.7998 -32.6338 -32.2666 -40.7002 -37.4004
c-2.2002 -1.4668 -7.7002 -4.7666 -16.5 -9.89941c-18.333 8.7998 -27.5 24.1992 -27.5 46.1992z" />
</svg>
