<?xml version="1.0" standalone="no"?>
<!DOCTYPE svg PUBLIC "-//W3C//DTD SVG 1.1//EN" "http://www.w3.org/Graphics/SVG/1.1/DTD/svg11.dtd" >
<svg xmlns="http://www.w3.org/2000/svg" xmlns:xlink="http://www.w3.org/1999/xlink" version="1.1" viewBox="-10 0 1010 1000">
   <path fill="currentColor"
d="M113.35 114.85h773.301v773.301h-773.301v-91.3008v-488.399v-193.601zM205.75 222.65v61.5996c19.7998 22 59.0332 64.9004 117.7 128.7c3.66602 -15.4004 8.43359 -28.6006 14.2998 -39.6006s13.2002 -22 22 -33c11.7334 -13.9326 22 -23.833 30.7998 -29.6992
c33.7334 -24.2002 70.4004 -36.3008 110 -36.3008c42.5332 0 81.0332 13.5674 115.5 40.7002c13.9336 12.4668 23.4668 22.7334 28.6006 30.7998c17.5996 21.2666 29.333 45.834 35.1992 73.7002c25.667 -30.0664 64.9004 -75.166 117.7 -135.3v-61.5996h-591.8z
M376.25 328.25v1.09961c5.13379 2.2002 15.0332 6.60059 29.7002 13.2002c12.4668 -9.5332 23.0996 -16.1328 31.8994 -19.7998v-19.7998c0 0.733398 4.40039 5.86621 13.2002 15.3994c8.7998 -4.39941 20.9004 -7.33301 36.2998 -8.7998
c2.93359 -7.33301 6.60059 -17.9668 11 -31.8994h1.10059h-1.10059c-34.4658 0 -67.833 11 -100.1 33c-8.06641 5.86621 -15.4004 11.7334 -22 17.5996zM502.75 277.65c1.4668 5.13281 4.7666 15.7666 9.90039 31.8994c8.7998 0 21.6328 2.93359 38.5 8.7998
c6.59961 -8.06641 11 -13.1992 13.1992 -15.3994v1.09961c-0.733398 2.93359 -1.46582 9.16699 -2.19922 18.7002c9.5332 3.66699 19.7998 9.90039 30.7998 18.7002c0.733398 0.733398 1.83301 1.4668 3.2998 2.2002c6.59961 -3.30078 6.59961 -3.30078 28.5996 -14.3008
v-1.09961c-12.4658 -11 -23.4658 -19.4336 -33 -25.2998c-29.333 -16.8672 -59.0332 -25.2998 -89.0996 -25.2998zM491.75 309.55h16.5c-0.733398 -3.66602 -3.2998 -11 -7.7002 -22c-0.733398 0.733398 -3.66602 8.06641 -8.7998 22zM490.65 313.95
c-2.2002 5.86621 -6.2334 17.5996 -12.1006 35.2002c3.66699 4.39941 11 12.4658 22 24.1992c3.66699 -4.39941 10.6338 -12.4658 20.9004 -24.1992c-1.4668 -5.86719 -5.13379 -17.6006 -11 -35.2002c-1.4668 -0.733398 -4.40039 -1.10059 -8.7998 -1.10059h-2.2002
c-1.4668 0 -4.40039 0.367188 -8.7998 1.10059zM454.35 320.55v1.10059c2.93359 3.66602 9.90039 11.7334 20.9004 24.1992c2.2002 -5.86621 5.86621 -16.5 11 -31.8994c-5.86621 0 -16.5 2.2002 -31.9004 6.59961zM514.85 313.95v1.09961
c2.2002 5.13379 5.86719 15.4004 11 30.7998c2.93359 -2.93262 10.2666 -11 22 -24.1992v-1.10059c-14.666 -4.39941 -24.9326 -6.59961 -30.7998 -6.59961h-1.09961h-1.10059zM442.25 316.15v4.39941c1.4668 0 2.56641 -0.366211 3.2998 -1.09961
c-1.09961 -1.10059 -1.09961 -1.10059 -3.2998 -3.2998zM556.65 319.45l2.19922 1.09961v-4.39941c-0.733398 0.733398 -1.46582 1.09961 -2.19922 1.09961l-1.10059 1.09961v1.10059h1.10059zM442.25 324.95c1.4668 24.9336 2.56641 37.3994 3.2998 37.3994
c2.2002 0.733398 5.13379 1.83398 8.7998 3.30078v1.09961v-1.09961c0 -2.2002 -1.46582 -4.40039 -4.39941 -6.60059c-2.2002 -0.733398 -3.2998 -2.56641 -3.2998 -5.5c0 -5.13281 4.7666 -9.16602 14.2998 -12.0996h2.2002c2.93262 0 6.2334 2.93359 9.89941 8.7998
v1.09961v-1.09961c0 -0.733398 -4.0332 -5.13379 -12.0996 -13.2002c-2.93359 -2.93359 -6.60059 -7.7002 -11 -14.2998c-1.4668 0.733398 -4.0332 1.4668 -7.7002 2.2002zM552.25 322.75c-2.93359 2.93359 -8.43359 9.16699 -16.5 18.7002
c5.86621 0 10.6338 3.2998 14.2998 9.89941v3.30078c0 2.19922 -1.83301 4.39941 -5.5 6.59961c0 1.4668 -0.366211 3.66699 -1.09961 6.59961c2.2002 -0.733398 6.59961 -2.56641 13.2002 -5.5c0 -6.59961 0.366211 -19.4326 1.09961 -38.5
c-0.733398 0 -2.56641 -0.366211 -5.5 -1.09961zM562.15 327.15c0 5.13281 -0.367188 15.7666 -1.10059 31.8994c7.7002 -3.2998 7.7002 -3.2998 30.7998 -13.2002c-11.7334 -8.7998 -21.2666 -15.0332 -28.5996 -18.6992h-1.09961zM410.35 345.85
c5.13379 2.2002 15.0342 6.60059 29.7002 13.2002h1.10059c-0.733398 -5.13281 -1.83398 -15.7666 -3.30078 -31.8994c-1.46582 0 -10.2666 5.86621 -26.3994 17.5996zM323.45 450.35v1.10059l-1.10059 1.09961v1.10059v1.09961h1.10059
c5.13281 -2.2002 15.3994 -6.2334 30.7998 -12.0996c0 -6.60059 2.56641 -19.4336 7.7002 -38.5c-2.93359 -2.2002 -7.33398 -5.86719 -13.2002 -11c2.93359 0 9.16699 0.366211 18.7002 1.09961c0 -1.4668 0.733398 -3.66699 2.2002 -6.59961v-2.2002
c0 -3.66699 -0.733398 -9.90039 -2.2002 -18.7002v-2.2002c0 -3.66602 1.4668 -5.5 4.39941 -5.5h2.2002c4.40039 0 9.16699 0.367188 14.2998 1.10059c-2.93262 -6.60059 -7.33301 -16.1338 -13.1992 -28.6006c-22.7334 21.2666 -38.5 49.1338 -47.3008 83.6006
c-2.93262 13.1992 -4.39941 24.9326 -4.39941 35.1992zM627.05 331.55c-2.2002 5.13379 -6.59961 14.667 -13.2002 28.6006c3.66699 -0.733398 8.80078 -1.10059 15.4004 -1.10059c2.93359 0 4.40039 2.2002 4.40039 6.60059
c-1.4668 9.5332 -2.2002 16.1328 -2.2002 19.7998v1.09961c0 1.4668 0.733398 4.0332 2.2002 7.7002c2.93262 -0.733398 9.16602 -1.09961 18.6992 -1.09961c-2.19922 1.46582 -6.59961 5.5 -13.1992 12.0996c3.66602 10.2666 6.59961 22.7334 8.7998 37.4004
c6.59961 2.93262 16.8662 6.59961 30.7998 11v1.09961v-1.09961c0 -39.6006 -13.9336 -76.6338 -41.7998 -111.101c-5.13379 -6.59961 -8.43359 -10.2666 -9.90039 -11zM380.65 337.05c2.19922 2.93359 5.5 9.90039 9.89941 20.9004l12.1006 -12.1006
c-5.5 -2.19922 -5.5 -2.19922 -22 -8.7998zM598.45 345.85c2.2002 2.2002 5.86621 6.2334 11 12.1006c2.2002 -3.66699 5.5 -10.6338 9.89941 -20.9004c-2.93262 1.4668 -9.89941 4.40039 -20.8994 8.7998zM531.35 352.45c1.4668 1.4668 3.66699 4.0332 6.60059 7.7002
v1.09961h1.09961c0 -2.2002 1.4668 -4.7666 4.40039 -7.7002c-2.2002 -4.39941 -5.13379 -6.59961 -8.7998 -6.59961zM453.25 353.55c0 0.733398 0.366211 1.4668 1.09961 2.2002h2.2002l3.2998 4.40039c0 -0.733398 1.4668 -2.56738 4.40039 -5.5
c0.733398 -0.733398 1.09961 -1.83398 1.09961 -3.30078l-3.2998 -3.2998c-2.2002 0 -5.13281 1.83398 -8.7998 5.5zM405.95 349.15c-2.2002 2.19922 -6.2334 6.59961 -12.1006 13.1992c7.33398 3.66699 18.334 8.06738 33 13.2002
c3.66699 1.4668 8.80078 3.66699 15.4004 6.60059c-0.733398 -2.2002 -1.09961 -7.7002 -1.09961 -16.5c0 -1.4668 -4.03418 -3.66699 -12.1006 -6.60059c-7.7002 -3.2998 -7.7002 -3.2998 -23.0996 -9.89941zM561.05 364.55
c-0.733398 2.93359 -1.09961 8.7998 -1.09961 17.6006c9.5332 -5.13379 23.0996 -11 40.7002 -17.6006c3.66602 -1.4668 6.2334 -2.2002 7.69922 -2.2002c-1.46582 -2.19922 -5.86621 -6.59961 -13.1992 -13.1992c-7.33398 2.93262 -18.7002 8.06641 -34.1006 15.3994z
M477.45 353.55c-2.2002 5.5 -2.2002 5.5 -8.7998 22c8.06641 9.5332 18.333 16.1338 30.7998 19.7998c11.7334 -3.66602 22 -11.7334 30.7998 -24.1992c-0.733398 -3.66699 -2.56641 -9.53418 -5.5 -17.6006c-4.40039 4.40039 -12.4668 13.2002 -24.2002 26.4004
c-3.66602 -4.40039 -11.3662 -13.2002 -23.0996 -26.4004zM469.75 357.95c-3.66699 3.66602 -5.5 5.86621 -5.5 6.59961c0.733398 1.4668 1.4668 3.2998 2.2002 5.5c0.733398 -2.2002 1.83301 -5.86621 3.2998 -11c0.733398 0 1.09961 -0.366211 1.09961 -1.09961h-1.09961z
M528.05 425.05c4.40039 0 7.33398 2.93359 8.7998 8.7998c0.733398 5.86719 1.83398 8.80078 3.30078 8.80078c11 -13.9336 25.2998 -20.9004 42.8994 -20.9004v12.0996h-1.09961c-13.9336 0 -24.9336 6.2334 -33 18.7002v1.10059
c10.2666 10.2666 20.166 15.3994 29.7002 15.3994c8.06641 0 14.2998 -3.2998 18.6992 -9.89941c8.06738 -8.06738 14.667 -19.0674 19.8008 -33c5.13281 -14.667 7.69922 -31.167 7.69922 -49.5c0.733398 -2.2002 1.4668 -5.5 2.2002 -9.90039v-2.2002
c-9.5332 0 -18.7002 2.56641 -27.5 7.7002c-13.9336 5.13379 -26.3994 10.6338 -37.3994 16.5c-6.60059 3.66699 -13.2002 8.43359 -19.8008 14.2998c-9.5332 9.5332 -14.2998 16.5 -14.2998 20.9004v1.09961zM374.05 365.65v1.09961
c1.4668 6.59961 2.2002 16.5 2.2002 29.7002c2.2002 16.8662 8.7998 34.833 19.7998 53.8994c8.7998 11.7334 16.1338 17.6006 22 17.6006c0.733398 0 1.83398 0.366211 3.2998 1.09961h3.30078c8.7998 0 17.9658 -5.5 27.5 -16.5
c-7.33398 -12.4668 -19.0674 -18.7002 -35.2002 -18.7002v-12.0996h2.2002c17.5996 0 31.5332 6.9668 41.7998 20.9004c1.4668 0 2.93359 -4.40039 4.39941 -13.2002c2.2002 -2.93359 4.40039 -4.40039 6.60059 -4.40039h1.09961
c-0.733398 -5.13281 -3.2998 -9.5332 -7.7002 -13.2002c-12.4658 -13.1992 -21.6328 -20.8994 -27.5 -23.0996c-8.7998 -5.13379 -22 -10.6338 -39.5996 -16.5c-6.59961 -4.40039 -13.5664 -6.59961 -20.9004 -6.59961h-3.2998zM445.55 366.75v1.09961
c0 11.7334 0.367188 17.6006 1.10059 17.6006c4.39941 2.93359 9.16602 7.33301 14.2998 13.2002c11 10.2666 16.5 16.1328 16.5 17.5996c1.4668 4.40039 2.2002 8.06641 2.2002 11h1.09961c3.66699 -7.33301 10.6338 -11 20.9004 -11
c8.06641 0 13.5664 2.56641 16.5 7.7002c0.733398 0.733398 1.83301 1.4668 3.2998 2.2002c0 -7.33398 3.2998 -13.9336 9.89941 -19.8008c0 -0.733398 3.66699 -4.39941 11 -11c4.40039 -3.2998 4.40039 -3.2998 13.2002 -9.89941v-17.6006
c0 -0.733398 0.367188 -1.09961 1.10059 -1.09961h-1.10059c-2.2002 1.4668 -6.59961 3.66699 -13.2002 6.59961c0 8.80078 -7.33301 19.8008 -22 33c-5.13281 4.40039 -11.7334 6.60059 -19.7998 6.60059h-1.09961c-11.7334 0 -22 -4.7666 -30.7998 -14.2998
c-9.53418 -8.06738 -14.3008 -16.8672 -14.3008 -26.4004v-1.09961c-2.19922 -1.10059 -2.19922 -1.10059 -8.7998 -4.40039zM460.95 375.55c0 6.60059 8.06641 15.7666 24.2002 27.5c3.66602 2.2002 7.33301 3.2998 11 3.2998h7.69922
c6.60059 0 13.9336 -5.13281 22 -15.3994c6.60059 -6.60059 9.90039 -11.7334 9.90039 -15.4004c-6.59961 8.06641 -13.5664 14.667 -20.9004 19.7998c-8.06641 5.13379 -13.1992 7.7002 -15.3994 7.7002c-8.7998 -0.733398 -18.7002 -6.59961 -29.7002 -17.5996
c-4.40039 -5.86719 -7.33301 -9.90039 -8.7998 -12.1006v2.2002zM359.75 398.65c0.733398 0 2.2002 1.09961 4.40039 3.2998c0 -0.733398 0.366211 -1.83398 1.09961 -3.2998h-5.5zM635.85 398.65l1.10059 2.19922c0.733398 -0.733398 1.83301 -1.46582 3.2998 -2.19922
h-4.40039zM367.45 404.15c0.733398 0.733398 2.2002 1.83301 4.39941 3.2998c0 -1.4668 -0.366211 -4.40039 -1.09961 -8.7998c-0.733398 0 -1.83301 1.83301 -3.2998 5.5zM630.35 398.65c0 1.46582 -0.733398 4.39941 -2.19922 8.7998
c1.46582 0 3.2998 -1.10059 5.5 -3.2998c-0.733398 -0.733398 -1.4668 -2.56738 -2.2002 -5.5h-1.10059zM621.55 433.85c3.66699 1.4668 10.6338 4.03418 20.9004 7.7002c0 -5.86621 -2.2002 -17.2334 -6.60059 -34.0996c-5.86621 5.86621 -8.7998 9.16602 -8.7998 9.89941
c-1.4668 3.66699 -3.2998 8.80078 -5.5 15.4004v1.09961zM358.65 433.85v7.7002c3.66602 -1.4668 11 -4.0332 22 -7.7002c-2.93359 -4.39941 -5.13379 -10.6328 -6.60059 -18.6992c-1.4668 -1.4668 -4.0332 -3.66699 -7.7002 -6.60059
c-1.46582 4.40039 -4.0332 12.834 -7.69922 25.2998zM481.85 469.05v13.2002c0 11 1.4668 16.5 4.40039 16.5c8.06641 3.66699 12.833 5.5 14.2998 5.5c1.4668 -0.733398 4.7666 -1.83301 9.90039 -3.2998c5.13281 -2.2002 7.7002 -4.7666 7.7002 -7.7002
c2.19922 -4.40039 3.2998 -11.3662 3.2998 -20.9004c-1.10059 -13.1992 -1.10059 -13.1992 -3.2998 -39.5996c-4.40039 -5.86621 -7.7002 -8.7998 -9.90039 -8.7998c-1.4668 -0.733398 -3.66699 -1.4668 -6.59961 -2.2002c-8.06738 0 -13.2002 2.56641 -15.4004 7.7002
c-2.93359 1.4668 -4.40039 7.33301 -4.40039 17.5996v22zM471.95 431.65c-2.2002 10.2666 -4.40039 15.3994 -6.60059 15.3994c-14.666 18.334 -28.5996 27.5 -41.7998 27.5c-5.13281 0 -10.6328 -1.09961 -16.5 -3.2998l-8.7998 8.7998
c4.40039 1.4668 12.833 4.0332 25.2998 7.7002c-2.2002 3.66699 -6.2334 11.7334 -12.0996 24.2002c2.93359 -0.733398 8.7998 -1.10059 17.5996 -1.10059c0 -4.39941 1.10059 -9.5332 3.2998 -15.3994c3.66699 -5.13379 9.90039 -9.5332 18.7002 -13.2002
c2.93359 -3.66699 7.7002 -9.5332 14.2998 -17.5996c4.40039 0.733398 6.60059 1.83301 6.60059 3.2998c0.733398 6.59961 1.09961 14.2998 1.09961 23.0996v36.2998h-6.59961c0 -5.13281 0.366211 -15.7666 1.09961 -31.8994
c-0.733398 -3.66699 -1.4668 -10.6338 -2.2002 -20.9004c-9.5332 10.2666 -16.1328 16.1338 -19.7998 17.6006c-6.59961 4.39941 -9.89941 8.7998 -9.89941 13.1992c0 1.4668 -0.367188 3.66699 -1.10059 6.60059c0 8.06641 1.10059 20.5332 3.2998 37.3994
c0.733398 2.2002 1.10059 5.86719 1.10059 11c2.2002 -1.46582 7.33301 -6.96582 15.3994 -16.5c8.06738 -6.59961 12.1006 -11.7334 12.1006 -15.3994h6.59961c0 2.2002 -1.09961 5.5 -3.2998 9.89941c1.4668 4.40039 4.0332 11 7.7002 19.8008
c3.66602 -4.40039 11.3662 -13.2002 23.0996 -26.4004c3.66699 4.40039 11.7334 13.2002 24.2002 26.4004c0.733398 -3.66699 2.93359 -11 6.59961 -22c-1.46582 -2.93359 -2.19922 -6.60059 -2.19922 -11v-34.1006c0.733398 -16.1328 2.19922 -24.2002 4.39941 -24.2002
c0.733398 0 2.2002 -0.366211 4.40039 -1.09961c10.2666 12.4668 17.9668 19.7998 23.0996 22c8.7998 5.13379 13.2002 12.833 13.2002 23.0996c3.66699 0 8.7998 0.367188 15.4004 1.10059c-2.2002 -4.40039 -5.86719 -12.4668 -11 -24.2002
c6.59961 -2.2002 6.59961 -2.2002 23.0996 -7.7002c-0.733398 -1.4668 -3.2998 -4.7666 -7.7002 -9.89941c-4.39941 2.93262 -9.5332 4.39941 -15.3994 4.39941h-2.2002c-13.2002 0 -27.1338 -9.16602 -41.7998 -27.5c-1.4668 0 -3.30078 -5.13281 -5.5 -15.3994v-1.10059
h-3.30078v2.2002c0 5.86621 0.367188 17.9668 1.10059 36.2998v7.7002c0 12.4668 -2.56641 21.6338 -7.7002 27.5c-5.86621 2.93359 -11 4.7666 -15.4004 5.5c0 0.733398 -1.09961 1.4668 -3.2998 2.2002c-2.93359 0 -9.5332 -3.2998 -19.7998 -9.90039
c-4.40039 -5.13281 -6.59961 -13.2002 -6.59961 -24.2002v-1.09961c0 -22.7334 1.09961 -38.1338 3.2998 -46.2002l-1.10059 1.10059h-4.39941zM618.25 438.25c-2.2002 6.59961 -6.9668 14.2998 -14.2998 23.0996c-1.4668 1.4668 -3.66699 4.03418 -6.60059 7.7002
c1.4668 1.4668 5.13379 4.40039 11 8.7998c19.0674 -6.59961 30.8008 -11 35.2002 -13.1992v-4.40039v-8.7998c0 -3.66699 -0.733398 -5.5 -2.2002 -5.5c-5.13281 -1.4668 -12.833 -4.0332 -23.0996 -7.7002zM358.65 447.05
c-0.733398 1.4668 -1.10059 4.40039 -1.10059 8.7998c0 1.4668 0.367188 4.40039 1.10059 8.80078l35.1992 13.1992c2.2002 -1.46582 5.5 -4.39941 9.90039 -8.7998c-11.7334 -12.4668 -19.0664 -22.7334 -22 -30.7998c-3.66699 1.4668 -11.3662 4.40039 -23.0996 8.7998z
M332.25 455.85l20.9004 7.7002v-15.3994c-3.66699 1.46582 -10.6338 4.0332 -20.9004 7.69922zM647.95 448.15v15.3994c3.66602 -1.4668 10.6328 -4.0332 20.8994 -7.7002c-3.66602 -1.46582 -10.6328 -4.0332 -20.8994 -7.69922zM322.35 456.95
c0 0.733398 0.367188 1.83301 1.10059 3.2998v1.09961c0 27.8672 8.43359 56.4668 25.2998 85.8008c4.40039 9.5332 12.833 20.5332 25.2998 33h1.10059c2.19922 -5.13379 6.59961 -15.0342 13.1992 -29.7002c-10.2666 -13.2002 -16.8662 -23.4668 -19.7998 -30.7998
c-0.733398 -0.733398 -1.09961 -1.4668 -1.09961 -2.2002c-3.66699 0.733398 -9.90039 1.09961 -18.7002 1.09961l13.2002 -13.2002c-5.13379 -16.1328 -7.7002 -28.5996 -7.7002 -37.3994c-7.33301 -2.2002 -17.9668 -5.86719 -31.9004 -11zM647.95 469.05
c0 8.06641 -2.93359 20.5332 -8.7998 37.4004c6.59961 5.13281 11 9.16602 13.1992 12.0996c-2.93262 0 -9.16602 -0.366211 -18.6992 -1.09961c-4.40039 10.2666 -10.2666 20.5332 -17.6006 30.7998c-1.4668 0.733398 -2.2002 1.83301 -2.2002 3.2998
c2.93359 5.86719 7.33398 15.4004 13.2002 28.6006c13.9336 -13.9336 23.1006 -26.4004 27.5 -37.4004c16.1338 -27.1338 24.2002 -55.7334 24.2002 -85.7998c-6.59961 2.93359 -16.8662 6.9668 -30.7998 12.0996zM358.65 469.05v1.10059
c0 5.13281 2.56641 16.1328 7.69922 33c5.13379 -5.13379 12.834 -12.4668 23.1006 -22c-5.13379 -2.2002 -15.4004 -5.86719 -30.7998 -11v-1.10059zM610.55 481.15c4.40039 3.66602 12.834 11 25.2998 22c4.40039 -16.1338 6.60059 -27.5 6.60059 -34.1006
c-7.33398 2.93359 -17.9668 6.9668 -31.9004 12.1006zM536.85 474.55c0 3.66699 -0.366211 10.6338 -1.09961 20.9004v34.0996c0 2.93359 6.59961 10.2666 19.7998 22c0 1.4668 2.56641 4.40039 7.7002 8.7998h1.09961c0 -5.86621 1.10059 -18.333 3.30078 -37.3994
c0 -2.2002 0.366211 -5.5 1.09961 -9.90039c-1.4668 -9.5332 -2.93359 -14.2998 -4.40039 -14.2998c-2.93262 -2.93359 -8.43262 -6.9668 -16.5 -12.0996c-2.19922 -2.2002 -5.86621 -6.2334 -11 -12.1006zM367.45 507.55c0.733398 0.733398 1.83301 2.56641 3.2998 5.5
c5.86621 0 17.5996 -0.366211 35.2002 -1.09961c0.733398 0 2.93359 -4.40039 6.59961 -13.2002c0.733398 -2.2002 1.83398 -5.13379 3.2998 -8.7998c-3.66602 -0.733398 -10.6328 -2.93359 -20.8994 -6.60059c-15.4004 13.2002 -24.5664 21.2666 -27.5 24.2002z
M584.15 489.95c2.19922 3.66602 5.86621 11 11 22h1.09961c5.86621 0 17.5996 0.366211 35.2002 1.09961c0 -0.733398 0.733398 -2.56641 2.2002 -5.5c-3.66699 -3.66602 -10.6338 -10.2666 -20.9004 -19.7998c-0.733398 -0.733398 -2.93359 -2.2002 -6.59961 -4.40039
c-3.66699 0.733398 -11 2.93359 -22 6.60059zM359.75 514.15h5.5c0 -0.733398 -0.366211 -1.83398 -1.09961 -3.30078c-0.733398 0.733398 -2.2002 1.83398 -4.40039 3.30078zM636.95 511.95l-1.10059 2.2002h4.40039c0 -0.733398 -1.09961 -1.4668 -3.2998 -2.2002z
M393.85 549.35c1.4668 2.93359 5.5 7.7002 12.1006 14.3008c4.39941 -2.2002 13.2002 -6.2334 26.3994 -12.1006c-2.19922 -11.7334 -3.2998 -24.2002 -3.2998 -37.3994c-13.9336 0.733398 -20.8994 1.46582 -20.8994 2.19922c-2.93359 7.33398 -7.7002 18.334 -14.3008 33z
M574.25 515.25c0 5.86621 -1.4668 17.9668 -4.40039 36.2998c0.733398 0 9.16699 4.0332 25.3008 12.1006c2.93262 -2.93359 7.33301 -7.7002 13.1992 -14.3008c-2.93262 -5.13281 -8.43262 -16.1328 -16.5 -33c-2.93262 -0.733398 -8.7998 -1.09961 -17.5996 -1.09961z
M371.85 517.45c2.93359 7.33301 8.43359 16.1328 16.5 26.3994c0.733398 0 1.10059 0.367188 1.10059 1.10059c2.93359 -4.40039 7.7002 -13.9336 14.2998 -28.6006c-5.13379 0 -15.7666 0.367188 -31.9004 1.10059zM597.35 516.35
c2.2002 4.40039 6.60059 14.3008 13.2002 29.7002c8.7998 -10.2666 15.0332 -19.0664 18.7002 -26.3994v-1.10059v-1.09961h-1.09961c-5.13379 0 -15.4004 -0.367188 -30.8008 -1.10059zM478.55 562.55c2.2002 5.86719 6.2334 17.6006 12.1006 35.2002h11h8.7998
c2.2002 -5.86621 6.2334 -17.5996 12.0996 -35.2002c-3.66602 -3.66602 -11 -11.3662 -22 -23.0996c-14.666 14.666 -22 22.3662 -22 23.0996zM526.95 561.45l25.2998 27.5c1.4668 -0.733398 3.2998 -1.4668 5.5 -2.2002c0 -16.1338 -0.733398 -24.2002 -2.2002 -24.2002
c-0.733398 -0.733398 -4.39941 -5.13281 -11 -13.2002c-5.86621 -4.39941 -8.7998 -7.33301 -8.7998 -8.7998c-0.733398 0 -3.66699 6.9668 -8.7998 20.9004zM442.25 586.75c1.4668 0 4.0332 0.733398 7.7002 2.2002c15.3994 -17.6006 23.0996 -26.7666 23.0996 -27.5
c-1.4668 -4.40039 -3.66602 -10.6338 -6.59961 -18.7002c-8.7998 7.33301 -13.9336 12.833 -15.4004 16.5c-2.2002 1.4668 -4.7666 3.66699 -7.7002 6.59961c0 2.93359 -0.366211 9.90039 -1.09961 20.9004zM390.55 553.75
c-1.4668 3.66699 -4.7666 10.6338 -9.89941 20.9004l22 -8.80078c-3.30078 -3.2998 -3.30078 -3.2998 -12.1006 -12.0996zM609.45 553.75c0 1.4668 -3.66699 5.5 -11 12.0996c4.39941 2.2002 11.3662 5.13379 20.8994 8.80078
c-5.86621 -12.4668 -9.16602 -19.4336 -9.89941 -20.9004zM410.35 566.95c16.1338 11 25.3008 16.5 27.5 16.5c0.733398 -2.93359 1.10059 -7.33398 1.10059 -13.2002h-2.2002c-2.2002 0 -3.2998 -3.66699 -3.2998 -11
c-0.733398 -0.733398 -1.10059 -1.83301 -1.10059 -3.2998zM569.85 557.05c0 8.7998 -1.09961 13.2002 -3.2998 13.2002h-1.09961h-3.2998v14.2998c10.2666 -5.13281 19.7998 -11 28.5996 -17.5996v-1.10059c-3.66699 -1.46582 -10.6338 -4.39941 -20.9004 -8.7998z
M454.35 591.15c15.4004 4.39941 26.0342 6.59961 31.9004 6.59961c-2.2002 -6.59961 -5.86621 -16.8662 -11 -30.7998c-3.66699 3.66602 -10.6338 11.7334 -20.9004 24.2002zM514.85 597.75c5.86719 0 16.8672 -2.2002 33 -6.59961
c-3.66602 -4.40039 -11 -12.4668 -22 -24.2002c-1.46582 5.13281 -5.13281 15.3994 -11 30.7998zM376.25 582.35c17.5996 17.6006 35.9336 30.0674 55 37.4004c22.7334 8.7998 45.4668 13.2002 68.2002 13.2002c-2.93359 -6.60059 -6.9668 -16.8672 -12.1006 -30.7998
c-7.33301 0 -19.7998 -2.56738 -37.3994 -7.7002c-5.86719 6.59961 -9.90039 11 -12.1006 13.2002v-1.10059v-17.5996c-8.06641 -3.66699 -18.6992 -10.2666 -31.8994 -19.7998c-9.90039 4.39941 -9.90039 4.39941 -29.7002 13.1992zM596.25 569.15
c-8.06641 5.86621 -16.5 11 -25.2998 15.3994c-2.2002 1.10059 -2.2002 1.10059 -8.7998 4.40039c0.733398 3.66602 1.46582 9.89941 2.19922 18.7002c-3.2998 -3.30078 -3.2998 -3.30078 -13.1992 -13.2002c-16.1338 4.39941 -27.8672 6.59961 -35.2002 6.59961
c-0.733398 0.733398 -1.83398 1.10059 -3.2998 1.10059c-1.4668 5.13281 -4.7666 15.3994 -9.90039 30.7998c33.7334 0 66.3662 -10.2666 97.9004 -30.7998c8.06641 -4.40039 16.1328 -11 24.1992 -19.8008c-6.59961 -2.93262 -16.1328 -7.33301 -28.5996 -13.1992z
M442.25 591.15v5.5c2.2002 -1.4668 3.2998 -2.93359 3.2998 -4.40039c-0.733398 0 -1.83301 -0.366211 -3.2998 -1.09961zM555.55 592.25c0.733398 0.733398 1.83398 2.2002 3.2998 4.40039v-5.5c-0.733398 0 -1.83301 0.366211 -3.2998 1.09961zM491.75 602.15
c2.2002 5.5 2.2002 5.5 8.7998 22c1.4668 -3.66699 4.0332 -11 7.7002 -22h-16.5zM499.45 637.35c-24.9336 0 -49.5 -5.13281 -73.7002 -15.3994v136.399c-17.5996 10.2666 -53.167 31.167 -106.7 62.7002h374c-26.3994 -15.3994 -26.3994 -15.3994 -105.6 -61.5996v-143
h-1.10059c-27.1328 13.9336 -56.0996 20.8994 -86.8994 20.8994z" />
</svg>
