<?xml version="1.0" standalone="no"?>
<!DOCTYPE svg PUBLIC "-//W3C//DTD SVG 1.1//EN" "http://www.w3.org/Graphics/SVG/1.1/DTD/svg11.dtd" >
<svg xmlns="http://www.w3.org/2000/svg" xmlns:xlink="http://www.w3.org/1999/xlink" version="1.1" viewBox="-10 0 1010 1000">
   <path fill="currentColor"
d="M113.35 114.85h773.301v773.301h-773.301v-91.3008v-488.399v-193.601zM212.35 385.45c0 46.2002 19.4336 85.7998 58.3008 118.8c13.9326 11 25.666 19.4336 35.1992 25.2998h-117.699c-0.733398 2.2002 -2.56738 5.86719 -5.5 11
c8.7998 13.2002 20.166 37.0332 34.0996 71.5c5.13379 11 10.6338 21.2666 16.5 30.7998c1.4668 0.733398 3.66699 1.4668 6.59961 2.2002c9.53418 -0.733398 19.0674 -1.09961 28.6006 -1.09961h11c38.8662 0 64.8994 10.6328 78.0996 31.8994
c5.86719 9.53418 8.7998 22.7334 8.7998 39.6006c0 10.2666 -2.19922 33.7334 -6.59961 70.3994c-0.733398 5.13379 -1.09961 11.3672 -1.09961 18.7002v3.2998c0 7.33398 0.366211 11 1.09961 11c1.4668 1.4668 4.0332 3.30078 7.7002 5.5h3.2998l1.09961 1.10059h39.6006
c0.733398 -14.667 1.09961 -45.1006 1.09961 -91.2998h27.5c0 14.666 -0.366211 44.7334 -1.09961 90.1992v1.10059h42.8994v-91.2998h27.5c0 15.3994 -0.366211 45.833 -1.09961 91.2998h34.0996h1.10059v-91.2998h27.5c0 15.3994 -0.367188 45.833 -1.10059 91.2998
h51.7002c1.4668 0.733398 4.40039 1.09961 8.7998 1.09961c0.733398 -0.733398 2.2002 -1.4668 4.40039 -2.2002c1.4668 -0.733398 3.66699 -2.93262 6.59961 -6.59961c0.733398 -1.4668 1.10059 -4.7666 1.10059 -9.90039v-4.39941
c0 -9.5332 -2.2002 -34.4668 -6.60059 -74.7998c-0.733398 -2.93359 -1.09961 -7.33398 -1.09961 -13.2002c0 -30.0664 9.90039 -50.2334 29.7002 -60.5c15.3994 -7.33398 36.666 -11 63.7998 -11c7.33301 0 18.7002 0.366211 34.0996 1.09961
c3.66699 -1.4668 6.2334 -3.2998 7.7002 -5.5c9.5332 -16.1328 20.167 -39.2334 31.9004 -69.2998c5.86621 -11 11 -21.2666 15.3994 -30.7998l-5.5 -9.90039h-105.6c14.667 -13.2002 23.833 -23.0996 27.5 -29.7002c8.06641 -9.5332 13.5664 -19.0664 16.5 -28.5996
c8.06641 -19.0664 12.0996 -31.5332 12.0996 -37.4004c2.2002 -8.06641 3.30078 -31.8994 3.30078 -71.5c0 -29.333 -7.7002 -58.666 -23.1006 -88c-5.86621 -13.1992 -16.5 -27.5 -31.8994 -42.8994c-16.1338 -14.667 -31.167 -26.4004 -45.1006 -35.2002
c-19.0664 -9.5332 -37.7666 -17.9668 -56.0996 -25.2998c-3.66699 -0.733398 -9.5332 -2.56641 -17.6006 -5.5h-215.6c-21.2666 7.33301 -38.8662 14.666 -52.7998 22c-46.2002 23.4668 -77.7334 58.666 -94.6006 105.6c-6.59961 16.8672 -11.3662 35.2002 -14.2998 55
c-0.733398 11.7334 -1.4668 24.2002 -2.2002 37.4004zM402.65 417.35h1.09961c23.4668 0 42.9004 11 58.2998 33c7.33398 11.7334 11 23.834 11 36.3008v3.2998c0 21.2666 -9.5332 39.2334 -28.5996 53.8994c-13.2002 9.53418 -26.4004 14.3008 -39.6006 14.3008h-6.59961
c-16.8662 0 -33 -7.7002 -48.4004 -23.1006c-1.46582 -2.2002 -4.0332 -5.5 -7.69922 -9.89941c-6.60059 -11.7334 -9.90039 -23.4668 -9.90039 -35.2002v-4.40039c0 -16.8662 6.9668 -33 20.9004 -48.3994c12.4658 -11 24.9326 -17.2334 37.3994 -18.7002
c2.2002 0 6.2334 -0.367188 12.1006 -1.10059zM597.35 428.35c22 0 39.2334 9.90039 51.7002 29.7002c5.86719 9.5332 8.7998 19.4336 8.7998 29.7002c0 19.0664 -8.7998 34.833 -26.3994 47.2998c-10.2666 7.33398 -21.6338 11 -34.1006 11
c-19.7998 0 -36.2998 -9.16602 -49.5 -27.5c-5.86621 -9.5332 -8.7998 -19.0664 -8.7998 -28.5996c0 -23.4668 10.2666 -42.167 30.7998 -56.1006c8.80078 -3.66602 17.9668 -5.5 27.5 -5.5zM357.55 486.65v3.2998c0 14.666 7.33398 26.7666 22 36.2998
c7.33398 4.40039 14.2998 6.59961 20.9004 6.59961h3.2998c16.8662 0 29.7002 -8.06641 38.5 -24.1992c2.93359 -6.60059 4.40039 -13.5674 4.40039 -20.9004c0 -13.9336 -5.5 -25.667 -16.5 -35.2002c-8.80078 -6.59961 -17.9668 -9.89941 -27.5 -9.89941
c-17.6006 0 -31.167 8.43262 -40.7002 25.2998c-2.93359 6.59961 -4.40039 12.833 -4.40039 18.7002zM486.25 561.45h35.2002v3.2998s-1.10059 5.86621 -3.2998 11c2.93262 5.86621 14.2998 19.0664 34.0996 39.5996c1.4668 2.2002 4.40039 5.13379 8.7998 8.80078
c-3.66602 3.66602 -9.89941 10.2666 -18.7002 19.7998c-21.2666 -20.5332 -34.0996 -34.4668 -38.5 -41.7998c-0.733398 2.93262 -13.1992 16.8662 -37.3994 41.7998l-19.7998 -19.7998c24.1992 -24.2002 37.3994 -39.2334 39.5996 -45.1006
c0.733398 -0.733398 1.4668 -1.83301 2.2002 -3.2998c-1.4668 -5.86621 -2.2002 -10.6338 -2.2002 -14.2998z" />
</svg>
