<?xml version="1.0" standalone="no"?>
<!DOCTYPE svg PUBLIC "-//W3C//DTD SVG 1.1//EN" "http://www.w3.org/Graphics/SVG/1.1/DTD/svg11.dtd" >
<svg xmlns="http://www.w3.org/2000/svg" xmlns:xlink="http://www.w3.org/1999/xlink" version="1.1" viewBox="-10 0 1010 1000">
   <path fill="currentColor"
d="M113.35 114.85h773.301v773.301h-773.301v-91.3008v-488.399v-193.601zM473.05 220.45c2.2002 0 6.9668 -0.367188 14.2998 -1.10059c5.13379 0 7.7002 2.56738 7.7002 7.7002v8.7998v210.101c2.2002 0 5.5 -0.367188 9.90039 -1.10059v-182.6v-30.7998
c4.39941 -0.733398 6.59961 -1.4668 6.59961 -2.2002c0.733398 -3.66699 1.10059 -7.7002 1.10059 -12.0996c0 -11.7334 -1.83398 -18.334 -5.5 -19.8008c-13.2002 0 -22 4.40039 -26.4004 13.2002c-1.4668 2.2002 -4.0332 5.5 -7.7002 9.90039zM182.65 345.85
c46.9326 61.6006 118.433 92.4004 214.5 92.4004c26.3994 0 57.1992 -2.56641 92.3994 -7.7002v-144.1c-8.7998 0 -25.666 -0.733398 -50.5996 -2.2002c0 -0.733398 -0.367188 -2.2002 -1.10059 -4.40039c-0.733398 -35.1992 -1.09961 -55.3662 -1.09961 -60.5
c-84.7002 41.8008 -84.7002 41.8008 -254.1 125.4v1.09961zM564.35 219.35c0 11 -0.733398 31.9004 -2.19922 62.7002c0 1.4668 -0.367188 2.2002 -1.10059 2.2002c-11 0.733398 -27.1328 1.4668 -48.3994 2.2002v144.1c34.4658 5.13379 65.2666 7.7002 92.3994 7.7002
c96.0664 0 166.834 -31.167 212.3 -93.5c-55.7334 -27.8662 -140.066 -69.667 -253 -125.4zM421.35 529.55c0 28.6006 17.2334 52.4336 51.7002 71.5c11 7.33398 29.7002 17.6006 56.1006 30.7998c10.2666 5.86719 15.3994 12.834 15.3994 20.9004v4.40039
c0 12.4658 -4.39941 21.6328 -13.2002 27.5c-6.59961 5.86621 -15.7666 11.3662 -27.5 16.5c-3.66602 0.733398 -12.4658 5.86621 -26.3994 15.3994v1.10059c2.93359 0 8.43359 -0.367188 16.5 -1.10059h8.7998s11.3662 0.367188 14.2998 1.10059
c13.2002 -5.86719 25.2998 -13.9336 36.2998 -24.2002c8.06738 -9.5332 12.1006 -22.3672 12.1006 -38.5c0 -19.0664 -9.5332 -33 -28.6006 -41.7998c-24.1992 -12.4668 -43.2666 -22.7334 -57.1992 -30.8008c-19.8008 -12.4658 -31.9004 -25.666 -36.3008 -39.5996
c-0.733398 -5.13379 -1.09961 -9.5332 -1.09961 -13.2002v-2.2002c0 -19.0664 9.16699 -34.0996 27.5 -45.0996c11 -5.86621 23.4668 -8.7998 37.4004 -8.7998h2.19922c13.9336 0 26.4004 4.7666 37.4004 14.2998c8.06641 10.2666 12.0996 23.833 12.0996 40.7002
c0 22.7334 -15.3994 42.5332 -46.1992 59.3994v4.40039c4.39941 2.2002 4.39941 2.2002 17.5996 8.7998c33 -19.7998 49.5 -44 49.5 -72.5996c0 -26.4004 -8.7998 -46.5664 -26.4004 -60.5c-9.5332 -8.06641 -21.6328 -13.2002 -36.2998 -15.4004h-1.09961v-1.09961h-7.7002
c-27.1338 0 -49.5 7.33301 -67.0996 22c-13.2002 13.2002 -19.8008 31.8994 -19.8008 56.0996zM495.05 481.15v102.3c2.2002 1.4668 5.5 3.2998 9.90039 5.5v-108.9c-1.4668 0 -4.7666 0.367188 -9.90039 1.10059zM434.55 653.85v3.30078
c0 22 9.90039 38.8662 29.7002 50.5996c2.2002 0.733398 5.13379 1.83301 8.7998 3.2998c2.93359 -1.4668 8.43359 -4.7666 16.5 -9.89941v-3.30078c-11 -5.13281 -20.5332 -11.3662 -28.5996 -18.6992c-3.66699 -5.13379 -5.5 -12.1006 -5.5 -20.9004v-4.40039
c0 -9.5332 4.7666 -16.5 14.2998 -20.8994c2.2002 -1.4668 8.43359 -4.7666 18.7002 -9.90039h1.09961v-4.39941c-0.733398 0 -7.33301 -3.30078 -19.7998 -9.90039c-17.5996 8.7998 -28.2334 18.333 -31.9004 28.5996c-2.19922 5.13379 -3.2998 10.6338 -3.2998 16.5z
M495.05 623.05v74.7998c5.13379 -2.93262 8.43359 -4.7666 9.90039 -5.5v-64.8994c-1.4668 -0.733398 -4.7666 -2.2002 -9.90039 -4.40039zM452.15 728.65c2.93262 8.06641 9.89941 20.8994 20.8994 38.5c8.7998 13.1992 17.9668 25.666 27.5 37.3994
c11 -11.7334 20.5332 -24.2002 28.6006 -37.3994c8.7998 -14.667 14.666 -27.5 17.5996 -38.5c-16.8662 -2.93359 -33 -4.40039 -48.4004 -4.40039c-13.9326 0 -29.333 1.4668 -46.1992 4.40039z" />
</svg>
