<?xml version="1.0" standalone="no"?>
<!DOCTYPE svg PUBLIC "-//W3C//DTD SVG 1.1//EN" "http://www.w3.org/Graphics/SVG/1.1/DTD/svg11.dtd" >
<svg xmlns="http://www.w3.org/2000/svg" xmlns:xlink="http://www.w3.org/1999/xlink" version="1.1" viewBox="-10 0 1010 1000">
   <path fill="currentColor"
d="M96.8184 209.446c14.1914 -35.1367 33.4521 -74.6152 48.3242 -88.752h60.9824c-11.8086 23.6826 -1.89746 78.4092 9.67188 60.4473c33.2148 -51.5674 33.2148 -51.5674 39.499 -60.4443h42.3887c-41.3945 39.376 -99.4473 94.5986 -119.449 200.909
c-1.36621 7.25977 -17.6123 109.02 19.7578 140.634c4.95605 4.19043 12.6387 10.6865 20.6289 -54.8779c1.41113 -11.5811 13.2803 -98.9492 56.8545 -160.029c26.7266 -37.4688 69.5498 -80.9141 119.7 -126.634h103.428
c-2.9668 1.16406 -5.08105 2.02441 -13.5186 3.7334c-81.1416 16.4434 -199.63 91.3389 -229.464 209.076c-10.1777 40.1836 -17.083 74.501 -1.11816 133.79c5.00684 18.6113 24.6807 59.0264 31.3135 60.0195c0.564453 -2.04688 -44.0176 -111.735 22.1641 -211.188
c10.5068 -15.792 0 6.85254 2.85156 31.7764c2.55371 22.2842 15.4854 34.5488 20.2705 27.8301c4.41406 -6.19531 14.5215 -55.2812 57.6514 -101.439c25.0293 -26.7832 88.9229 -79.9609 217.833 -104.752c69.0664 -13.2881 72.5928 -24.9551 43.0654 -42.3408
c-9.90527 -5.83105 -7.73535 -1.40039 -16.25 -6.50586h229.746c2.85352 1.66309 32.7373 18.3604 33.0625 18.5557v150.881c-49.9238 -50.5654 -170.323 -98.4355 -262.527 -98.4355c-71.4307 0 -204.973 38.4746 -212.158 82.042
c-0.910156 5.50391 2.05664 6.74414 8.2793 6.74414c25.0508 0 67.9912 -28.2715 158.102 -28.2715c39.916 0 194.545 9.92969 300.546 156.664c2.67188 3.69824 5.20898 6.31934 6.91016 6.31934l0.849609 1.58398v375.992
c-21.1797 44.9795 -31.1797 66.2158 -50.0186 89.5586h-60.1934c0.670898 -0.981445 8.52832 -25.127 8.52832 -43.9082c0 -0.273438 -0.0908203 -25.4766 -9.88281 -25.4766c-5.55469 0 -5.93652 10.1152 -28.7939 41.459
c-6.67969 9.16113 -12.6133 18.2363 -18.126 27.9287h-44.084c28.3916 -22.5654 125.469 -110.538 125.469 -258.524c0 -70.2744 -25.582 -90.0029 -30.6416 -90.0029c-7.00195 0 -9.87207 16.3486 -10.9014 25.0137v8.87305
c-24.4287 178.761 -104.611 256.79 -180.574 314.672h-105.971c118.307 -25.334 255.178 -123.945 255.178 -280.488c0 -80.1689 -39.3809 -133.258 -40.4805 -125.326c-0.703125 5.07812 12.5049 18.9883 12.5049 76.1523c0 27.6113 0 93.9121 -37.3018 136.792
c0 -6.45996 0.432617 -15.3418 0.942383 -20.3643c3.53711 -34.8652 -13.54 -43.7617 -16.834 -44.3867c-3.18066 -0.602539 -3.25488 0.894531 -4.74121 5.73828c-47.8682 155.927 -218.76 191.936 -280.199 204.882c-61.8594 13.0303 -78.2158 27.25 -28.9746 42.6289
c5.96582 1.86426 9.56738 3.35352 11.8975 4.36816h-233.134c-12.1367 -3.8418 -18.71 -8.31641 -33.0625 -18.5566v-150.882c59.7275 43.042 86.0869 62.0371 171.831 86.7119c33.751 9.71387 62.9971 13.3379 88.207 13.3379c78.9102 0 208.505 -34.3291 213.342 -86.3291
c0.518555 -5.58691 -0.958008 -6.03418 -9.83691 -4.39258c-54.7129 10.1191 -62.751 28.625 -136.671 28.625c-232.005 0 -324.246 -158.388 -326.872 -174.277v-367.154zM602.225 268.002c-42.1641 0 -63.3525 5.0459 -40.083 6.02051
c31.833 1.33301 139.517 13.0957 227.022 108.547c22.8945 24.9717 38.8408 40.2744 55.54 55.2207c10.8535 9.71484 1.3418 -9.19238 1.0127 -9.84375c-51.1699 -101.167 -116.406 -130.352 -171.613 -146.623c-29.6289 -8.72559 -45.7363 -11.9521 -60.9971 -13.1582
v0.172852c-3.17871 -0.257812 -6.80078 -0.257812 -10.8818 -0.335938zM708.058 360.327c-4.66309 0 -9.1123 1.17773 -13.5645 3.22754c0 7.99414 34.5498 15.3477 76.4307 63.0049c37.0752 42.1885 68.0732 98.9072 80.4766 98.1963
c6.98535 -0.40332 -12.4531 -124.033 -117.976 -158.908c-12.4385 -4.10547 -19.2217 -5.51758 -25.3672 -5.52051zM142.672 501.858c3.08887 7.65234 49.958 120.131 143.246 138.583c17.2266 3.40625 10.1641 -2.89453 -1.16895 -12.2002
c-36.4814 -29.9502 -90.6719 -91.6572 -136.214 -148.493c-0.700195 -0.859375 -21.7422 -17.2334 -5.86328 22.1104zM141.685 558.117c5.98828 44.0303 88.5303 175.894 255.177 175.894h18.6484c18.3008 0 30.8213 -3.94141 15.9004 -5.01953
c-91.7314 -6.64258 -165.111 -29.6963 -287.186 -170.003v-0.171875c-0.633789 -0.378906 -1.47461 -0.775391 -2.54004 -0.699219z" />
</svg>
