<?xml version="1.0" standalone="no"?>
<!DOCTYPE svg PUBLIC "-//W3C//DTD SVG 1.1//EN" "http://www.w3.org/Graphics/SVG/1.1/DTD/svg11.dtd" >
<svg xmlns="http://www.w3.org/2000/svg" xmlns:xlink="http://www.w3.org/1999/xlink" version="1.1" viewBox="-10 0 1010 1000">
   <path fill="currentColor"
d="M113.35 55.9004h773.301v275c0 -0.733398 -0.733398 -1.4668 -2.2002 -2.2002c-24.9336 -31.5332 -60.5 -57.9336 -106.7 -79.2002c-41.7998 -19.0664 -86.167 -28.5996 -133.1 -28.5996h-8.80078c44 31.5332 76.2666 64.166 96.8008 97.8994
c28.5996 42.5332 42.8994 89.4668 42.8994 140.8c0 28.6006 -5.13281 60.1338 -15.3994 94.6006c0 -0.733398 -0.367188 -2.56641 -1.10059 -5.5c-3.66602 -52.0664 -21.2666 -97.167 -52.7998 -135.3c-17.5996 -17.6006 -29.333 -28.2334 -35.2002 -31.9004
c-13.9336 -10.2666 -27.1328 -17.9668 -39.5996 -23.0996c-16.1338 -7.33398 -27.1338 -11 -33 -11c40.333 68.9326 61.9668 122.1 64.8994 159.5c1.4668 8.7998 2.2002 17.2334 2.2002 25.2998v5.5c0 8.06641 -1.09961 19.4336 -3.2998 34.0996
c-11.7334 -34.4668 -23.0996 -63.4336 -34.0996 -86.8994c-9.53418 -24.2002 -22.7334 -48.0342 -39.6006 -71.5c-7.33301 -9.53418 -13.9336 -18.334 -19.7998 -26.4004c-49.1338 -52.7998 -108.9 -79.2002 -179.3 -79.2002c-21.2666 0 -31.9004 1.10059 -31.9004 3.2998
c11 6.60059 25.2998 18.7002 42.9004 36.3008c18.333 20.5332 31.166 37.0332 38.5 49.5c32.2666 49.1328 48.3994 100.466 48.3994 154v8.7998c0 20.5332 -1.83301 42.166 -5.5 64.8994c-0.733398 0 -1.09961 0.367188 -1.09961 1.10059
c-14.667 -33.7334 -29.333 -63.4336 -44 -89.1006c-8.7998 -16.1328 -20.5332 -32.6328 -35.2002 -49.5c-28.5996 -31.5332 -58.666 -47.2998 -90.2002 -47.2998h-1.09961c-11.7334 0 -22 1.83398 -30.7998 5.5c52.0664 46.2002 78.0996 100.101 78.0996 161.7v6.59961
c0 22 -2.93359 48.7666 -8.7998 80.3008v1.09961c-11.7334 -25.667 -22.3662 -47.667 -31.9004 -66c-2.93262 -3.66699 -6.96582 -9.5332 -12.0996 -17.5996c-20.5332 -27.8672 -42.167 -41.8008 -64.9004 -41.8008h-4.39941c-7.33398 0 -14.667 1.4668 -22 4.40039v1.09961
c30.0664 47.667 45.0996 89.1006 45.0996 124.301c0 52.7998 -32.6328 95.6992 -97.8994 128.699h-47.3008v-91.2998v-488.399v-192.5z" />
</svg>
