<?xml version="1.0" standalone="no"?>
<!DOCTYPE svg PUBLIC "-//W3C//DTD SVG 1.1//EN" "http://www.w3.org/Graphics/SVG/1.1/DTD/svg11.dtd" >
<svg xmlns="http://www.w3.org/2000/svg" xmlns:xlink="http://www.w3.org/1999/xlink" version="1.1" viewBox="-10 0 1010 1000">
   <path fill="currentColor"
d="M113.35 114.85h773.301v773.301h-773.301v-91.3008v-488.399v-193.601zM525.85 275.45c-5.86621 0.733398 -17.2334 2.2002 -34.0996 4.39941v-1.09961c0 -6.59961 -2.2002 -15.0332 -6.59961 -25.2998c-8.06738 -13.9336 -22 -20.9004 -41.8008 -20.9004
c-24.9326 0 -41.0664 5.86719 -48.3994 17.6006c-3.66699 5.13281 -6.60059 12.0996 -8.7998 20.8994c-1.10059 7.7002 -1.10059 7.7002 -3.30078 23.1006c-4.39941 0.733398 -12.4658 1.83301 -24.1992 3.2998c-6.60059 -29.334 -19.8008 -44 -39.6006 -44
c-3.66602 0 -5.5 0.366211 -5.5 1.09961h-11c-26.3994 0 -47.2998 20.5332 -62.7002 61.6006l30.8008 233.199c5.13281 33.7334 9.16602 64.5342 12.0996 92.4004h35.2002h30.7998c1.4668 0.733398 4.40039 1.09961 8.7998 1.09961
c-0.733398 -36.666 -2.2002 -109.267 -4.39941 -217.8c4.39941 -2.93359 8.7998 -4.39941 13.1992 -4.39941c6.60059 0.733398 10.2666 2.19922 11 4.39941c8.80078 72.6006 8.80078 72.6006 26.4004 217.8c12.4668 0 37.0332 0.367188 73.7002 1.10059
c1.4668 -35.9336 4.39941 -107.434 8.7998 -214.5c5.86621 -2.2002 11.3662 -3.2998 16.5 -3.2998h1.09961c3.66699 0 7.7002 1.09961 12.1006 3.2998c1.4668 47.666 3.66602 118.8 6.59961 213.399h84.7002c1.4668 -35.1992 5.13379 -104.866 11 -209
c5.86621 -8.7998 11 -13.1992 15.4004 -13.1992h1.09961c4.40039 0 9.90039 5.13281 16.5 15.3994v4.40039c-0.733398 33.7334 -1.4668 101.2 -2.2002 202.399h35.2002c11 0 31.9004 0.367188 62.7002 1.10059c2.2002 -57.9336 6.9668 -173.8 14.2998 -347.601
c-12.4668 -38.1328 -31.167 -57.1992 -56.0996 -57.1992c-11 0 -21.2666 4.7666 -30.8008 14.2998c-5.13281 5.13281 -13.1992 12.833 -24.1992 23.0996c-2.93359 0 -9.16699 -0.366211 -18.7002 -1.09961c-11 -27.8672 -19.4336 -45.1006 -25.2998 -51.7002
c-4.40039 -5.86621 -15.0342 -8.7998 -31.9004 -8.7998h-12.0996c-12.4668 0 -21.2666 8.06641 -26.4004 24.2002c-2.93359 5.86621 -6.2334 17.5996 -9.90039 35.1992v1.10059zM481.85 723.15v5.5c0 17.5996 10.6338 36.666 31.9004 57.1992
c7.33301 0.733398 18.7002 1.10059 34.0996 1.10059h181.5v-121h-216.699c-20.5342 20.5332 -30.8008 39.5996 -30.8008 57.2002z" />
</svg>
