<?xml version="1.0" standalone="no"?>
<!DOCTYPE svg PUBLIC "-//W3C//DTD SVG 1.1//EN" "http://www.w3.org/Graphics/SVG/1.1/DTD/svg11.dtd" >
<svg xmlns="http://www.w3.org/2000/svg" xmlns:xlink="http://www.w3.org/1999/xlink" version="1.1" viewBox="-10 0 1010 1000">
   <path fill="currentColor"
d="M113.35 114.85h773.301v773.301h-773.301v-91.3008v-488.399v-193.601zM500.55 161.05c-6.59961 41.0664 -19.4336 123.2 -38.5 246.4h-1.09961c-33 -24.2002 -99.7334 -72.9668 -200.2 -146.3c24.2002 33.7334 72.9668 100.833 146.3 201.3v1.09961
c-41.0664 5.86719 -123.2 18.334 -246.399 37.4004c41.0664 6.59961 123.199 19.4336 246.399 38.5c-24.2002 33.7334 -72.9668 101.2 -146.3 202.399c33 -24.1992 99.7334 -72.9658 200.2 -146.3h1.09961c6.60059 41.0664 19.0664 123.2 37.4004 246.4h1.09961
c6.60059 -41.0664 19.4336 -123.2 38.5 -246.4c33.7334 24.2002 101.2 72.9668 202.4 146.3c-24.9336 -33.7334 -74.0664 -101.199 -147.4 -202.399c41.0664 -5.86719 123.566 -18.334 247.5 -37.4004v-1.09961c-41.7998 -5.86719 -124.3 -18.334 -247.5 -37.4004
c24.9336 -33.7334 74.0664 -101.2 147.4 -202.399c-33.7334 24.1992 -101.2 72.9658 -202.4 146.3c-6.59961 -41.0664 -19.4336 -123.2 -38.5 -246.4z" />
</svg>
