<?xml version="1.0" standalone="no"?>
<!DOCTYPE svg PUBLIC "-//W3C//DTD SVG 1.1//EN" "http://www.w3.org/Graphics/SVG/1.1/DTD/svg11.dtd" >
<svg xmlns="http://www.w3.org/2000/svg" xmlns:xlink="http://www.w3.org/1999/xlink" version="1.1" viewBox="-10 0 1010 1000">
   <path fill="currentColor"
d="M113.35 114.85h773.301v773.301h-773.301v-91.3008v-488.399v-193.601zM143.05 496.55v8.7998c0 48.4004 10.6338 96.8008 31.9004 145.2c9.5332 20.5332 22 41.0664 37.3994 61.6006c7.33398 11 19.8008 25.666 37.4004 44c22 20.5332 40.333 35.1992 55 44
c60.1338 39.5996 125.4 59.3994 195.8 59.3994c80.667 0 154 -25.666 220 -77c11 -7.33301 24.9336 -19.4336 41.7998 -36.2998c23.4668 -26.4004 41.0674 -50.9668 52.8008 -73.7002c7.33301 -12.4668 15.0332 -30.4336 23.0996 -53.8994
c13.9336 -38.1338 20.9004 -75.167 20.9004 -111.101v-12.0996c0 -64.5332 -19.4336 -127.601 -58.3008 -189.2c-7.33301 -11 -15.0332 -21.2666 -23.0996 -30.7998c-12.4668 -16.8672 -28.9668 -33.3672 -49.5 -49.5c-26.4004 -22 -48.0332 -36.2998 -64.9004 -42.9004
c-4.39941 -2.93359 -11.3662 -6.2334 -20.8994 -9.89941c-0.733398 5.86621 -1.4668 16.8662 -2.2002 33c0 1.46582 -1.4668 27.5 -4.40039 78.0996c0 21.2666 -2.93262 55 -8.7998 101.2c-5.86621 29.333 -12.0996 53.8994 -18.7002 73.7002
c-11 29.333 -25.666 57.1992 -44 83.5996c-8.7998 14.667 -24.5664 33.7334 -47.2998 57.2002c-18.333 16.8662 -33 28.9668 -44 36.2998c1.4668 -106.333 2.93359 -266.2 4.40039 -479.6v-13.2002c-9.5332 0 -28.2334 2.93359 -56.1006 8.7998
c-21.2666 5.13379 -41.0664 11.3662 -59.3994 18.7002c-23.4668 9.5332 -46.9336 22.7334 -70.4004 39.5996c-13.2002 8.7998 -30.4336 23.4668 -51.7002 44c-2.93262 2.93359 -7.33301 8.06641 -13.1992 15.4004c-1.4668 2.2002 -5.5 6.9668 -12.1006 14.2998
c-19.0664 27.8662 -32.6328 51.333 -40.7002 70.4004c-20.5332 46.9326 -30.7998 94.2334 -30.7998 141.899z" />
</svg>
