<?xml version="1.0" standalone="no"?>
<!DOCTYPE svg PUBLIC "-//W3C//DTD SVG 1.1//EN" "http://www.w3.org/Graphics/SVG/1.1/DTD/svg11.dtd" >
<svg xmlns="http://www.w3.org/2000/svg" xmlns:xlink="http://www.w3.org/1999/xlink" version="1.1" viewBox="-10 0 1010 1000">
   <path fill="currentColor"
d="M113.35 114.85h773.301v773.301h-773.301v-91.3008v-488.399v-193.601zM283.85 460.25v18.7002c0 44 7.33398 106.333 22 187c11 45.4668 22.3672 79.9336 34.1006 103.399c22 47.667 51.333 71.5 88 71.5c0.733398 0 2.2002 -0.366211 4.39941 -1.09961
c30.0674 1.4668 54.6338 2.2002 73.7002 2.2002h15.4004c32.2666 0 48.3994 -1.10059 48.3994 -3.2998c19.0674 -13.9336 34.834 -26.7666 47.3008 -38.5c12.4658 -13.2002 21.6328 -29.334 27.5 -48.4004c3.66602 -10.2666 10.2666 -32.2666 19.7998 -66
c15.3994 -47.667 33.3662 -100.1 53.8994 -157.3c-2.19922 -6.60059 -4.39941 -9.90039 -6.59961 -9.90039c-3.66699 -0.733398 -9.5332 -1.4668 -17.5996 -2.2002c-33.7334 0 -60.8672 28.9668 -81.4004 86.9004c-5.5 -1.09961 -5.5 -1.09961 -16.5 -3.2998
c2.93359 -63.0664 9.16699 -189.566 18.7002 -379.5c-6.60059 -16.8672 -12.4668 -28.2334 -17.6006 -34.1006c-3.66602 -2.93262 -7.33301 -4.39941 -11 -4.39941c-8.06641 0.733398 -17.9658 5.5 -29.6992 14.2998c-0.733398 2.2002 -2.2002 8.7998 -4.40039 19.7998
c-10.2666 69.667 -25.667 174.533 -46.2002 314.601h-1.09961c-16.1338 -49.8672 -24.2002 -131.634 -24.2002 -245.301c0 -36.666 0.733398 -75.5332 2.2002 -116.6c-1.4668 -2.2002 -3.66699 -4.7666 -6.60059 -7.7002h-7.69922c-29.334 0 -58.3008 11 -86.9004 33
c-15.4004 13.2002 -26.4004 24.5664 -33 34.1006c-11.7334 16.8662 -21.2666 33 -28.5996 48.3994c-6.60059 14.667 -13.2002 33 -19.8008 55c-11 42.5332 -16.5 85.4336 -16.5 128.7zM473.05 536.15h1.10059c0 19.0664 11.3662 46.5664 34.0996 82.5
c8.06641 13.9326 15.0332 27.5 20.9004 40.6992c8.7998 20.5342 13.1992 39.2334 13.1992 56.1006c0 17.5996 -5.86621 35.2002 -17.5996 52.7998c-11 11 -19.7998 17.2334 -26.4004 18.7002c-12.4658 5.86621 -20.5332 8.7998 -24.1992 8.7998
c-8.80078 -0.733398 -20.5342 -5.5 -35.2002 -14.2998c-22 -15.4004 -33 -37.0332 -33 -64.9004c0 -24.2002 10.2666 -52.4336 30.7998 -84.7002c24.2002 -40.333 36.2998 -70.0332 36.2998 -89.0996v-6.59961z" />
</svg>
