<?xml version="1.0" standalone="no"?>
<!DOCTYPE svg PUBLIC "-//W3C//DTD SVG 1.1//EN" "http://www.w3.org/Graphics/SVG/1.1/DTD/svg11.dtd" >
<svg xmlns="http://www.w3.org/2000/svg" xmlns:xlink="http://www.w3.org/1999/xlink" version="1.1" viewBox="-10 0 1010 1000">
   <path fill="currentColor"
d="M462.875 55.2891c4.48633 -0.551758 11.5762 -0.802734 20.1846 -0.802734c28.8125 0 74.6406 2.80664 96.8154 6.50195c50.0996 8.40039 114.9 33.6006 161.4 63.3008l15.5996 10.1992v108h107.699l8.70117 12.6006c27.5996 40.2002 56.4004 113.699 65.4004 165.899
c3.44922 20.25 5.17383 49.125 5.17383 78c0 28.876 -1.72461 57.751 -5.17383 78.001c-9.60156 57.2988 -34.8008 119.1 -69.9004 171.6l-16.2012 24.8994h-95.6992v90l-15.5996 10.2002c-43.5 27.6006 -100.801 51 -153.301 62.4004
c-22.0498 4.7998 -54.8242 7.2002 -87.5996 7.2002s-65.5498 -2.40039 -87.5996 -7.2002c-57.3008 -12.2998 -112.5 -35.7002 -162 -68.7002l-24.9004 -16.2002v-77.7002h-77.6992l-16.2012 -24.8994c-33.5996 -50.7002 -55.1992 -102.3 -68.4004 -164.101
c-4.94922 -22.6494 -7.42383 -54.0742 -7.42383 -85.5c0 -31.4248 2.47461 -62.8496 7.42383 -85.5c12 -55.7998 34.2012 -111.6 62.1016 -155.399l10.1992 -15.6006h90v-95.6992l24.9004 -16.2002c65.3984 -43.5 125.4 -64.7998 212.1 -75.2998zM619.775 106.889
l-29.4004 -9.59961l-84 -0.900391c-14.5781 -0.118164 -26.7754 -0.189453 -37.1162 -0.189453c-42.2207 0 -53.4805 1.19238 -69.3838 5.28906c-40.8008 10.2012 -90.9004 32.4004 -123.6 54.6006l-17.4004 11.7002v107.7h-104.1l-18.3008 35.0996
c-20.0996 39.2998 -34.1992 80.3994 -41.4004 120c-3 17.3994 -4.5 42.9746 -4.5 68.5869c0 25.6133 1.5 51.2637 4.5 68.8135c9.59961 53.0996 33.3008 113.699 61.8008 156.6l10.5 15.8994h91.5v92.4004l18.9004 12c69 43.5 141 64.5 222.6 64.5
c73.8008 0 138 -16.7998 201.9 -52.7998l21.5996 -12.2998v-103.801l54.5996 -0.599609l54.9004 -0.899414l9.90039 -15.001c24 -36 46.7988 -89.0996 56.0996 -130.799c3.12988 -14.3135 4.26172 -27.292 4.26172 -60.9346
c0 -11.4873 -0.131836 -25.3838 -0.361328 -42.5654l-1.20117 -80.7012l-9.59961 -29.3994c-12 -35.7002 -24.2988 -63.5996 -38.4004 -86.7002l-10.5 -17.3994h-119.699v-119.7l-17.4004 -10.5c-23.0996 -14.1006 -51 -26.4004 -86.6992 -38.4004zM162.875 426.689
c0 -2.67969 18 -26.0703 18 -28.2012c0 -3 36 -39 39 -39c1.5 0 6.59961 -3.2998 11.4004 -7.49902c16.8223 -13.6729 52.9521 -26.2256 83.0996 -27.9004l27 -1.2002l13.5 -15.8994c15.3672 -17.877 47.6143 -42.9541 87 -52.8008
c14.167 -3.62012 29.5508 -5.34082 45.2119 -5.34082c44.0332 0 90.2471 13.6045 117.688 36.8408c11.832 10.1445 16.7744 13.3145 27.9004 26.4004l9.29883 10.7998l31.2012 1.2002c39.8262 1.83105 70.1104 14.4834 93.5996 32.0996
c16.5 12.2998 44.0996 38.4004 44.0996 41.7002c0 0.900391 3.30078 6.59961 7.19922 12.2998c4.20117 6 11.7012 21.2998 16.8008 34.501c7.09277 17.2891 8.94531 22.1309 8.94531 41.6318c0 6.89258 -0.231445 15.6152 -0.544922 27.3672
c-1.20117 44.4004 -1.20117 45.6006 -11.4004 66.2998c-29.748 61.8789 -74.5127 100.989 -150 112.8c-8.28613 1.24316 -18.1455 1.91406 -25.7256 1.91406c-3.39844 0 -6.33887 -0.134766 -8.47363 -0.413086c-11.7012 -1.80078 -13.5 -1.2002 -21.9004 7.7998
c-21.6016 23.4004 -55.2012 42.8994 -87 50.7002c-15.0898 3.69531 -31.5137 5.45898 -47.8301 5.45898c-31.3701 0 -62.3428 -6.51855 -82.6699 -18.3594c-7.80078 -4.7998 -15 -8.40039 -15.9004 -8.40039c-3 0 -19.1992 -13.1992 -32.0996 -26.0996
c-9.59961 -9.59961 -12.6016 -11.0996 -22.8008 -10.2002c-1.12891 0.0693359 -2.34766 0.102539 -3.64648 0.102539c-15.6123 0 -42.7344 -4.87891 -62.9531 -11.8027c-25.8008 -8.7002 -48 -22.2002 -67.5 -40.7988c-15.5996 -15.3008 -40.5 -48.6006 -40.5 -54.6006
c0 -1.5 -3 -8.39941 -6.59961 -15.9004c-6 -11.3994 -6.90039 -18.9004 -7.80078 -58.5c-0.299805 -10.7979 -0.487305 -19.085 -0.487305 -25.7314c0 -19.9434 1.6875 -25.1182 7.08691 -39.0684c4.20117 -10.5 7.80078 -20.7002 7.80078 -22.1992zM548.074 359.488
c2.66602 0 25.0459 -18 27.6016 -18c1.49805 0 11.0996 -3.59961 21.2988 -7.7998l18.5996 -7.7998l-6.29883 -8.7002c-3.59961 -4.7998 -8.09961 -8.7002 -10.2012 -8.7002c-2.09961 0 -5.69922 -2.7002 -8.09961 -5.99902
c-5.69922 -8.40039 -43.1992 -26.4004 -62.0996 -30.001c-8.7002 -1.64941 -23.1758 -2.47461 -37.8008 -2.47461s-29.3994 0.825195 -38.6992 2.47461c-19.8008 3.30078 -51.9004 20.7002 -69.9004 37.7998c-14.0996 13.2002 -15.9004 15.9004 -10.7988 16.2002
c9 0 48.5996 17.1006 60.2988 25.8008c5.09961 3.89941 10.5 7.19922 11.7012 7.19922c1.5 0 8.69922 6.60059 16.498 15.001l14.1016 14.999h42.2988l14.7012 -14.999c8.09961 -8.40039 15.5996 -15.001 16.7988 -15.001zM327.875 342.688
c0 -0.836914 -1.27539 -1.22168 -3.52734 -1.22168c-9.04395 0 -33.835 6.19629 -54.9727 14.1221c-58.1992 21.2998 -103.5 87.8994 -103.5 151.5c0 36.5586 16.6611 76.6963 25.8008 88.5c3.89844 5.09961 7.19922 10.5 7.19922 11.3994
c0 3.30078 36.9004 37.2002 45 41.7002c4.19922 2.10059 12.9004 6.60059 19.5 10.2002c11.415 5.83984 54.541 15.2041 66.6064 15.2041c1.56934 0 2.61328 -0.158203 2.99316 -0.503906c0.900391 -1.2002 -0.298828 -4.5 -2.69922 -7.2002
c-13.252 -15.5234 -24.8506 -55.9053 -24.8506 -92.9023c0 -10.8623 1 -21.4336 3.25098 -30.998c3.2998 -14.25 4.94922 -26.625 4.94922 -39s-1.64941 -24.75 -4.94922 -38.999c-2.34766 -9.84277 -3.47266 -20.7725 -3.47266 -32.1016
c0 -26.3115 6.06738 -54.7803 16.9727 -76.7988c2.99805 -6.60059 5.69922 -12.2998 5.69922 -12.9004zM716.074 353.789c-11.7441 -5.59473 -36.3799 -12.3008 -52.1992 -12.3008c-4.87695 0 -7.35156 0.145508 -7.35156 3.0918c0 3.0332 2.62402 9.03711 7.95117 20.9092
c7.02344 15.3848 10.6914 44.2871 10.6914 71.585c0 21.6719 -2.31152 42.333 -7.0918 54.415c-4.5 11.0996 -4.5 12.8994 0.900391 26.0996c3.71777 9.85938 5.69336 35.8271 5.69336 60.3125c0 20.9629 -1.44824 40.8389 -4.49219 48.5879
c-8.70117 21.8994 -12.9004 31.7998 -17.1016 39.5996c-4.5 8.39941 -4.5 8.39941 5.40039 8.39941c18.9004 0 60.9004 -10.7998 78.3008 -20.0996c15.5996 -8.09961 56.0996 -42.6006 56.0996 -47.4004c0 -0.899414 3.30078 -6.2998 7.19922 -11.3994
c7.20117 -9.2998 12 -21 21.3008 -50.0996c3.64648 -11.377 5.24609 -23.1162 5.24609 -34.8584c0 -48.2734 -27.0312 -96.5879 -49.9453 -119.941c-10.2012 -10.2012 -40.2012 -31.2012 -44.7012 -31.2012c-2.09961 0 -9.29883 -2.39941 -15.9004 -5.69922z
M420.875 369.989c-5.08594 -4.57715 -52.5869 -25.501 -62.0996 -25.501c-7.5 0 -21.5996 22.2002 -25.5 40.5c-5.29297 25.8965 -7.48926 38.4541 -7.48926 49.6787c0 6.58984 0.756836 12.7207 2.08887 20.8223c2.09961 11.999 4.80078 20.0996 6 18.2998
c8.40039 -13.7998 30.9004 -37.8008 45.9004 -49.2002c11.4004 -8.40039 58.7988 -32.0996 64.5 -32.0996c1.79883 0 -0.900391 -4.2002 -5.40039 -9c-4.5 -5.10059 -9.30078 -9 -10.8008 -9c-1.19922 0 -4.5 -2.10059 -7.19922 -4.5zM545.074 395.488
c3.17285 0 33.0547 15.001 35.7012 15.001c7.5 0 51.5996 39.5996 61.5 55.499l7.79883 12.001l4.20117 -13.5c1.96191 -6.5 2.87109 -17.6621 2.87109 -29.5312c0 -17.166 -1.90234 -35.8105 -5.27148 -43.9697c-4.58301 -11.1309 -10.4307 -27.041 -15.9004 -37.1992
c-2.05664 -4.11328 -4.83789 -8.45215 -7.07129 -8.45215c-6.46484 0 -51.9111 19.1162 -58.0283 24.6523c-2.70117 2.39941 -6 4.5 -7.20117 4.5c-3.59961 0 -22.1992 20.999 -18.5996 20.999zM342.875 503.488c0 6.55664 9 11.0869 9 16.8008
c0 2.39941 2.40039 6.59961 5.40039 9.90039c2.45703 2.72949 28.6514 33.2998 33.2988 33.2998c1.20117 0 4.80078 2.7002 8.40039 5.69922c8.09961 7.5 47.4004 24.5996 60.5996 26.4004c10.2012 1.2002 11.1016 0.599609 18.5996 -13.2002
c7.20117 -13.7998 7.50195 -15 3.30078 -26.4004c-3.78711 -10.0371 -6.02051 -33.4629 -6.02051 -53.6768c0 -11.8066 0.761719 -22.5166 2.4209 -28.8223c3.37793 -12.9248 5.10254 -20.6016 5.10254 -26.3721c0 -6.0166 -1.87402 -9.96289 -5.70215 -15.6289
c-3.90039 -5.69922 -8.10156 -12.8994 -9.30078 -15.8994c-0.900391 -2.7002 -4.19922 -5.09961 -7.19922 -5.09961c-8.70117 0 -53.7012 19.7998 -61.2012 26.6992c-3.89844 3.2998 -7.79883 6.2998 -9 6.2998c-4.17578 0 -30.8496 30.2236 -33.2988 32.4004
c-3 2.7002 -5.40039 7.2002 -5.40039 9.89941c0 6.71777 -9 10.7373 -9 17.7002zM495.875 419.489c2.77051 0 8.4707 -9 0 -9c-8.44727 0 -2.79297 9 0 9zM563.975 425.488c-11.75 0 -12.916 -5.09277 -25.1992 -9.89941
c-4.70801 -1.84277 -7.74023 -3.09082 -10.1445 -3.09082c-4.64355 0 -6.94629 4.65723 -14.457 18.6914l-6.89844 12.8994l5.09961 22.2002c2.66016 11.4375 3.96387 26.5312 3.96387 41.4902c0 18.7832 -2.05566 37.3545 -6.06348 48.209
c-3.90039 11.4004 -3.90039 12.6006 3.29883 26.4004c4.46094 8.32617 6.78418 12.5264 12.5225 12.5264c5.83887 0 15.2148 -4.34961 33.9775 -13.126c24 -11.0996 61.8008 -41.7002 61.8008 -50.1006c0 -1.7998 1.80078 -4.19922 3.90039 -5.09961
c1.79883 -0.899414 6.29883 -6.2998 9.29883 -12.2998c5.70117 -10.501 5.70117 -11.0996 0 -21.9004c-6.89844 -13.5 -48.9004 -56.4004 -57.5996 -59.3994c-3.59961 -0.900391 -6.59961 -3.30078 -6.59961 -4.80078c0 -1.49902 -3 -2.7002 -6.90039 -2.7002z
M380.975 582.988c-17.6777 -14.0615 -37.1865 -32.4443 -47.0996 -49.7998c-0.21582 -0.342773 -0.442383 -0.504883 -0.675781 -0.504883c-3.05371 0 -7.35547 27.8906 -7.35547 45.4189c0 3.41699 0.163086 6.44043 0.53125 8.78613
c4.80078 33.3008 15.3008 62.1006 29.0996 80.4004c0.629883 0.881836 2.59766 1.27441 5.41504 1.27441c10.5957 0 33.2178 -5.5498 41.9854 -11.4746c4.19922 -2.40039 10.5 -6.2998 14.4004 -8.40039c9 -4.5 36.5996 -28.499 36.5996 -31.7998
c0 -1.19922 -2.70117 -2.40039 -6.30078 -2.40039c-8.39844 0 -54.5996 -21.8994 -66.5996 -31.5zM580.775 596.488c-2.84668 0 -32.4609 15 -36 15c-4.10254 0.12793 -5.77637 1.43262 -5.77637 3.47559c0 9.03711 32.75 32.5244 32.7764 32.5244
c1.19922 0 7.19922 3.30078 13.5 7.5c9.87207 6.3291 27.6484 12.0166 37.1055 12.0166c1.75 0 3.21582 -0.194336 4.29297 -0.616211c5.29199 -1.92285 18.1084 -34.1855 25.2012 -50.4004c3.19922 -7.76953 5.02344 -27.1846 5.02344 -44.7266
c0 -11.8203 -0.828125 -22.79 -2.62305 -28.7734l-4.20117 -13.5l-7.79883 12.001c-10.8008 16.499 -53.7012 55.499 -61.5 55.499zM525.275 634.889c-15.6016 -15.9004 -18 -17.3994 -30 -17.3994c-11.7012 0.299805 -14.4004 1.7998 -29.4004 17.3994
c-26.0996 27.2998 -47.6992 41.1006 -75.5996 48.5996c-8.09961 2.10059 -14.4004 4.7998 -14.4004 6.30078c0 4.5 25.5 24 42 31.7998c18.4482 8.83398 48.0781 15.501 77.4072 15.501c12.2266 0 24.4014 -1.1582 35.6924 -3.80176
c22.8008 -5.09863 54 -20.3994 60.3008 -29.0996c2.09961 -2.99902 5.69922 -5.69922 8.09961 -5.69922s5.69922 -2.7002 7.5 -6.00098c2.69922 -5.09961 2.09961 -6.59961 -4.5 -9c-4.5 -1.7998 -9.30078 -2.99902 -11.0996 -2.99902
c-3.90039 0 -31.5 -15.001 -41.1016 -22.5c-4.19922 -3.30078 -15.5996 -13.8008 -24.8984 -23.1006z" />
</svg>
