<?xml version="1.0" standalone="no"?>
<!DOCTYPE svg PUBLIC "-//W3C//DTD SVG 1.1//EN" "http://www.w3.org/Graphics/SVG/1.1/DTD/svg11.dtd" >
<svg xmlns="http://www.w3.org/2000/svg" xmlns:xlink="http://www.w3.org/1999/xlink" version="1.1" viewBox="-10 0 1010 1000">
   <path fill="currentColor"
d="M113.35 114.85h773.301v773.301h-773.301v-91.3008v-488.399v-193.601zM284.95 288.65v5.5c0 26.3994 11.3662 50.9658 34.0996 73.6992l8.7998 7.7002c20.5342 13.9336 42.9004 20.9004 67.1006 20.9004c22 0 43.2666 -6.60059 63.7998 -19.7998
c18.333 -14.667 31.5332 -33.7334 39.5996 -57.2002c0.733398 -5.86719 1.4668 -8.7998 2.2002 -8.7998c1.4668 12.4658 8.43359 27.5 20.9004 45.0996c23.4668 27.1338 52.7998 40.7002 88 40.7002c19.7998 0 39.5996 -6.2334 59.3994 -18.7002
c6.60059 -3.66699 14.3008 -10.2666 23.1006 -19.7998c15.3994 -20.5332 23.0996 -41.7998 23.0996 -63.7998v-5.5c0 -25.667 -10.2666 -49.5 -30.7998 -71.5c-22.7334 -19.8008 -47.667 -29.7002 -74.7998 -29.7002h-3.2998c-33 0 -61.2334 13.2002 -84.7002 39.5996
c-11.7334 17.6006 -18.7002 32.6338 -20.9004 45.1006v1.09961c-0.733398 0 -1.83301 -4.0332 -3.2998 -12.0996c-10.2666 -28.6006 -27.1338 -48.7666 -50.5996 -60.5c-5.13379 -2.93359 -12.1006 -5.86719 -20.9004 -8.80078
c-10.2666 -2.93262 -20.5332 -4.39941 -30.7998 -4.39941h-2.2002c-34.4668 0 -63.4336 14.666 -86.9004 44c-13.9326 19.0664 -20.8994 38.1328 -20.8994 57.2002zM276.15 491.05c0 5.86719 4.39941 30.4336 13.1992 73.7002c10.2666 55 25.3008 137.134 45.1006 246.4
c0.733398 0.733398 2.93359 2.56641 6.59961 5.5h13.2002c15.4004 -0.733398 46.9336 -1.10059 94.5996 -1.10059c4.40039 -3.66602 6.60059 -5.86621 6.60059 -6.59961c9.5332 -56.4668 24.2002 -140.8 44 -253h1.09961c29.334 167.934 44.7334 253 46.2002 255.2
l5.5 4.39941c18.333 0 45.4668 0.367188 81.4004 1.10059h25.2998c1.4668 0 4.0332 -2.2002 7.7002 -6.60059c12.4658 -69.666 31.5332 -173.8 57.1992 -312.399v-6.60059c0 -25.666 -14.666 -45.833 -44 -60.5c-20.5332 -9.5332 -43.6328 -14.2998 -69.2998 -14.2998
c-36.666 0 -67.833 8.7998 -93.5 26.4004c-10.2666 11 -15.3994 17.2334 -15.3994 18.6992h-1.10059h-1.09961c-8.7998 -15.3994 -26.7666 -27.8662 -53.9004 -37.3994c-19.0664 -5.13379 -37.3994 -7.7002 -55 -7.7002c-35.9336 0 -65.6328 8.7998 -89.0996 26.4004
c-16.8672 13.9326 -25.2998 30.0664 -25.2998 48.3994z" />
</svg>
