<?xml version="1.0" standalone="no"?>
<!DOCTYPE svg PUBLIC "-//W3C//DTD SVG 1.1//EN" "http://www.w3.org/Graphics/SVG/1.1/DTD/svg11.dtd" >
<svg xmlns="http://www.w3.org/2000/svg" xmlns:xlink="http://www.w3.org/1999/xlink" version="1.1" viewBox="-10 0 1010 1000">
   <path fill="currentColor"
d="M113.35 114.85h773.301v773.301h-773.301v-91.3008v-488.399v-193.601zM385.05 283.15c0 -13.9336 -5.86621 -30.0674 -17.5996 -48.4004c-9.5332 -13.2002 -18.7002 -19.7998 -27.5 -19.7998c-23.4668 0 -53.9004 8.06641 -91.2998 24.2002
c-20.5342 8.06641 -41.0674 19.4326 -61.6006 34.0996c-8.06641 7.33301 -14.666 13.5664 -19.7998 18.7002c16.8662 30.0664 46.9336 52.4336 90.2002 67.0996c23.4668 8.7998 43.2666 13.2002 59.3994 13.2002c11 -0.733398 19.8008 -2.2002 26.4004 -4.40039
c13.2002 -4.39941 26.0332 -18.6992 38.5 -42.8994c1.4668 -1.4668 4.0332 -2.2002 7.7002 -2.2002c68.9336 -13.9336 128.7 -20.9004 179.3 -20.9004c58.667 0 100.1 10.2666 124.3 30.8008c9.5332 11 14.667 18.6992 15.4004 23.0996
c1.4668 1.4668 2.56641 4.7666 3.2998 9.90039c0 7.33301 -3.2998 16.8662 -9.90039 28.5996c-11.7334 11 -20.8994 17.9668 -27.5 20.9004c-9.5332 5.86621 -22 11.3662 -37.3994 16.5c-30.0664 10.2666 -71.8672 19.7998 -125.4 28.5996
c-46.9336 13.2002 -81.7666 24.9336 -104.5 35.2002c-14.666 5.86621 -27.8662 13.9336 -39.5996 24.2002c-11.7334 11 -18.334 20.166 -19.7998 27.5c-6.60059 12.4658 -9.90039 24.9326 -9.90039 37.3994c0 25.667 17.9668 49.5 53.9004 71.5
c9.5332 6.60059 20.5332 12.1006 33 16.5c2.93262 0 11.7334 4.0332 26.3994 12.1006c13.9336 8.06641 27.1338 16.1328 39.6006 24.1992c12.4658 11 18.6992 23.4668 18.6992 37.4004c0 18.333 -15.0332 31.167 -45.0996 38.5c-11 2.2002 -19.4336 3.2998 -25.2998 3.2998
c9.5332 2.93359 17.9668 4.40039 25.2998 4.40039h6.59961c23.4668 0 45.1006 -7.33398 64.9004 -22c12.4668 -10.2666 18.7002 -22.3672 18.7002 -36.2998v-5.5c0 -24.9336 -23.4668 -52.0674 -70.4004 -81.4004c-11 -7.33301 -27.1328 -17.9668 -48.3994 -31.9004
c-8.06738 -5.86621 -15.0342 -12.0996 -20.9004 -18.6992c-2.2002 -2.93359 -3.2998 -5.86719 -3.2998 -8.80078c0 -13.9326 39.9668 -25.2998 119.899 -34.0996c86.5342 -10.2666 147.4 -19.0664 182.601 -26.4004c41.7998 -10.2666 70.3994 -24.5664 85.7998 -42.8994
c11 -11.7334 19.0664 -24.5664 24.2002 -38.5c6.59961 -19.7998 9.89941 -38.8672 9.89941 -57.2002v-3.2998c-2.93262 -24.2002 -5.86621 -41.7998 -8.7998 -52.7998c0 -4.40039 -4.39941 -16.8672 -13.2002 -37.4004c-6.59961 -13.2002 -14.2998 -24.2002 -23.0996 -33
c-11 -11 -21.2666 -18.7002 -30.7998 -23.0996c-42.5332 -19.0674 -86.167 -28.6006 -130.9 -28.6006h-3.2998c-74.7998 0 -154.366 24.2002 -238.7 72.6006z" />
</svg>
