<?xml version="1.0" standalone="no"?>
<!DOCTYPE svg PUBLIC "-//W3C//DTD SVG 1.1//EN" "http://www.w3.org/Graphics/SVG/1.1/DTD/svg11.dtd" >
<svg xmlns="http://www.w3.org/2000/svg" xmlns:xlink="http://www.w3.org/1999/xlink" version="1.1" viewBox="-10 0 1010 1000">
   <path fill="currentColor"
d="M113.35 114.85h773.301v773.301h-773.301v-91.3008v-488.399v-193.601zM357.55 279.85c8.7998 8.06738 22 13.9336 39.6006 17.6006c31.5332 2.2002 48.0332 3.2998 49.5 3.2998c2.19922 9.5332 3.2998 17.2334 3.2998 23.0996c0 22 -7.7002 44.3672 -23.1006 67.1006
c-12.4658 -14.667 -31.166 -37.4004 -56.0996 -68.2002h-253c102.667 99.7334 169.4 166.467 200.2 200.2c32.2666 34.4668 57.5664 64.166 75.8994 89.0996c35.2002 46.2002 56.4668 82.1338 63.8008 107.8c-18.334 23.4668 -45.834 59.0342 -82.5 106.7v0
c2.19922 0.733398 6.59961 1.10059 13.1992 1.10059c35.2002 0 105.967 0.366211 212.301 1.09961h39.5996c-13.9336 -18.333 -42.9004 -54.2666 -86.9004 -107.8c13.2002 -26.4004 30.4336 -55.7334 51.7002 -88c13.2002 -19.0664 27.1338 -38.1338 41.7998 -57.2002
c18.334 -24.2002 48.4004 -59.7666 90.2002 -106.7c14.667 -15.3994 53.9004 -55 117.7 -118.8c6.59961 -5.86621 15.7666 -15.0332 27.5 -27.5h-250.8c-2.2002 1.4668 -15.0332 20.9004 -38.5 58.2998c-4.40039 6.60059 -4.40039 6.60059 -13.2002 19.7998h-1.09961
c-4.40039 -13.1992 -13.2002 -40.333 -26.4004 -81.3994c-5.13379 -18.334 -9.90039 -39.9668 -14.2998 -64.9004c-1.4668 -13.2002 -2.56641 -26.3994 -3.2998 -39.5996h-64.9004c-0.733398 0 -6.9668 4.7666 -18.7002 14.2998
c-29.333 18.333 -54.2666 32.2666 -74.7998 41.7998c-10.2666 4.40039 -16.5 7.33398 -18.7002 8.7998z" />
</svg>
