<?xml version="1.0" standalone="no"?>
<!DOCTYPE svg PUBLIC "-//W3C//DTD SVG 1.1//EN" "http://www.w3.org/Graphics/SVG/1.1/DTD/svg11.dtd" >
<svg xmlns="http://www.w3.org/2000/svg" xmlns:xlink="http://www.w3.org/1999/xlink" version="1.1" viewBox="-10 0 1010 1000">
   <path fill="currentColor"
d="M113.35 116.85h773.301v773.301h-773.301v-91.3008v-488.399v-193.601zM854.75 575.55c-4.40039 -4.39941 -12.833 7.33398 -25.2998 35.2002c-12.4668 28.5996 -31.167 54.6338 -56.1006 78.0996c-10.2666 10.2666 -22.3662 19.0674 -36.2998 26.4004
c-13.2002 6.59961 -27.8662 10.6338 -44 12.0996c-15.3994 0.733398 -14.2998 -16.1328 3.2998 -50.5996c17.6006 -34.4668 37.4004 -72.9668 59.4004 -115.5c14.667 -27.8662 27.5 -55.3662 38.5 -82.5c11.7334 -27.1338 17.2334 -49.5 16.5 -67.0996
c-0.733398 -38.1338 -6.9668 -62.334 -18.7002 -72.6006s-26.7666 -16.5 -45.0996 -18.7002c-3.66699 -0.733398 -7.7002 -1.09961 -12.1006 -1.09961c-12.4658 0 -23.4658 2.93359 -33 8.7998c-13.1992 8.7998 -18.333 19.4336 -15.3994 31.9004l15.3994 14.2998
c11 9.5332 16.1338 23.4668 15.4004 41.7998c-1.4668 16.1338 -9.5332 39.9668 -24.2002 71.5c-13.9336 32.2666 -26.3994 60.1338 -37.3994 83.6006c-13.2002 30.0664 -22.7334 56.0996 -28.6006 78.0996c-5.86621 21.2666 -9.16602 39.5996 -9.89941 55
c-0.733398 5.13379 -1.10059 9.90039 -1.10059 14.2998c0 19.7998 4.0332 34.1006 12.1006 42.9004c8.7998 9.5332 15.7666 16.5 20.8994 20.8994c2.93359 2.93359 8.06641 4.40039 15.4004 4.40039h1.09961c7.33398 0 16.1338 -1.4668 26.4004 -4.40039
c19.7998 -5.13281 42.5332 -16.8662 68.2002 -35.1992c25.666 -17.6006 48.3994 -44.3672 68.1992 -80.3008c22 -38.8662 33 -62.6992 33 -71.5v-2.19922c0 -7.33398 -2.19922 -13.2002 -6.59961 -17.6006zM790.95 252.15c-11 -14.667 -33 -26.4004 -66 -35.2002
c-16.1338 -5.13379 -31.9004 -7.7002 -47.2998 -7.7002c-15.4004 0 -30.4336 2.2002 -45.1006 6.59961c-44 13.9336 -75.166 41.0674 -93.5 81.4004c-14.666 33.7334 -22 63.4336 -22 89.0996c0 5.86719 0.367188 11.7334 1.10059 17.6006
c4.39941 30.0664 12.0996 44.7334 23.0996 44c11 0 21.2666 -2.93359 30.7998 -8.7998c2.93359 -1.4668 6.60059 -5.5 11 -12.1006c4.40039 -7.33301 9.16699 -15.3994 14.2998 -24.2002c10.2666 -17.5996 23.1006 -37.0332 38.5 -58.2998
c14.667 -20.5332 32.6338 -35.2002 53.9004 -44c11.7334 -5.13281 22.7334 -8.43359 33 -9.89941c10.2666 -0.733398 19.7998 -0.367188 28.5996 1.09961c16.1338 2.93359 28.9668 7.7002 38.5 14.2998l14.3008 9.90039c6.59961 2.2002 9.89941 -0.367188 9.89941 -7.7002
c0 -2.93359 -0.733398 -6.9668 -2.2002 -12.0996c-4.39941 -16.1338 -11.3662 -30.8008 -20.8994 -44zM482.95 405.05c0.733398 -5.86621 1.09961 -11.3662 1.09961 -16.5c0 -26.3994 -7.33301 -56.0996 -22 -89.0996c-18.333 -41.0664 -49.5 -68.2002 -93.5 -81.4004
c-13.9336 -4.39941 -28.5996 -6.59961 -44 -6.59961c-15.3994 0 -31.5332 2.2002 -48.3994 6.59961c-32.2666 8.7998 -53.9004 20.9004 -64.9004 36.2998c-9.5332 12.4668 -16.5 26.7666 -20.9004 42.9004c-1.46582 5.13379 -2.19922 9.5332 -2.19922 13.2002
c0 6.59961 3.2998 8.7998 9.89941 6.59961l31.9004 -18.7002c22 -12.4658 49.1328 -11.3662 81.3994 3.30078c21.2666 9.5332 39.6006 24.5664 55 45.0996c14.667 20.5332 27.1338 39.5996 37.4004 57.2002c5.13379 9.5332 9.90039 17.5996 14.2998 24.2002
c4.40039 6.59961 8.06641 10.6328 11 12.0996c9.5332 5.86621 19.7998 8.7998 30.7998 8.7998c11 0.733398 18.7002 -13.9336 23.1006 -44zM147.45 575.55c-4.40039 5.13379 -6.60059 11 -6.60059 17.6006v3.2998c0.733398 8.06641 11.7334 31.5332 33 70.3994
c19.8008 35.9336 42.5342 62.7002 68.2002 80.3008c24.9336 18.333 47.2998 30.0664 67.1006 35.1992c10.2666 2.93359 19.0664 4.40039 26.3994 4.40039h1.10059c7.33301 0 12.4658 -1.4668 15.3994 -4.40039c2.93359 -2.19922 6.60059 -5.13281 11 -8.7998
c4.40039 -3.66602 8.43359 -8.7998 12.1006 -15.3994c5.86621 -10.2666 8.7998 -26.4004 8.7998 -48.4004v-12.0996c-1.4668 -27.8672 -14.2998 -69.667 -38.5 -125.4c-10.2666 -23.4668 -22.7334 -51.333 -37.4004 -83.5996
c-14.666 -31.5342 -22.3662 -55.3672 -23.0996 -71.5c-0.733398 -18.334 4.0332 -32.2666 14.2998 -41.8008l15.4004 -14.2998c2.93262 -12.4668 -1.83398 -22.7334 -14.3008 -30.7998c-9.5332 -6.59961 -20.8994 -9.90039 -34.0996 -9.90039
c-3.66699 0 -7.33301 0.367188 -11 1.10059c-18.333 2.93359 -33.3662 9.5332 -45.0996 19.7998c-12.4668 10.2666 -18.7002 34.0996 -18.7002 71.5c-0.733398 17.5996 4.7666 39.9668 16.5 67.0996c11 27.1338 23.833 54.6338 38.5 82.5
c22 42.5342 41.4336 80.667 58.2998 114.4c17.5996 34.4668 18.7002 51.333 3.2998 50.5996c-15.3994 -0.733398 -29.7002 -4.7666 -42.8994 -12.0996c-13.2002 -6.59961 -25.3008 -15.0332 -36.3008 -25.2998c-24.9326 -23.4668 -43.6328 -49.5 -56.0996 -78.1006
c-12.4668 -28.5996 -20.9004 -40.6992 -25.2998 -36.2998z" />
</svg>
