<?xml version="1.0" standalone="no"?>
<!DOCTYPE svg PUBLIC "-//W3C//DTD SVG 1.1//EN" "http://www.w3.org/Graphics/SVG/1.1/DTD/svg11.dtd" >
<svg xmlns="http://www.w3.org/2000/svg" xmlns:xlink="http://www.w3.org/1999/xlink" version="1.1" viewBox="-10 0 1010 1000">
   <path fill="currentColor"
d="M113.35 114.85h773.301v773.301h-773.301v-91.3008v-488.399v-193.601zM336.65 245.75v4.40039c-8.80078 13.1992 -13.2002 27.1328 -13.2002 41.7998v1.09961c3.66602 5.13379 6.2334 7.7002 7.7002 7.7002c17.5996 3.66699 33.3662 5.5 47.2998 5.5
c22 0 46.5664 -5.5 73.7002 -16.5c3.66602 -2.93359 5.5 -6.2334 5.5 -9.90039c0.733398 -3.66602 1.83301 -9.89941 3.2998 -18.6992c13.2002 -1.4668 23.0996 -2.2002 29.7002 -2.2002h8.7998c47.666 0 94.2334 15.7666 139.7 47.2998
c7.33301 5.86621 16.8662 14.2998 28.5996 25.2998c18.333 19.7998 31.167 36.667 38.5 50.6006c20.5332 37.3994 30.7998 76.6328 30.7998 117.699c0 52.0674 -16.1328 100.467 -48.3994 145.2c-5.86719 8.7998 -16.5 20.5332 -31.9004 35.2002
c-16.8662 13.9336 -31.167 24.2002 -42.9004 30.7998c-38.1328 19.7998 -75.8994 29.7002 -113.3 29.7002h-9.89941c-40.334 0 -80.667 -11.3662 -121 -34.0996c-48.4004 -30.0674 -82.1338 -71.5 -101.2 -124.301c-9.5332 -26.3994 -14.2998 -53.8994 -14.2998 -82.5
c0 -60.8662 21.2666 -115.133 63.7998 -162.8c2.93359 -3.66602 8.06641 -8.7998 15.3994 -15.3994h-33v-47.3008c-20.5332 19.0674 -33 32.2666 -37.3994 39.6006c-9.5332 11 -18.334 24.2002 -26.4004 39.5996c-25.666 46.2002 -38.5 96.0664 -38.5 149.601
c0 71.8662 24.2002 137.866 72.6006 198c15.3994 16.1328 28.5996 28.5996 39.5996 37.3994c23.4668 17.6006 42.9004 30.0664 58.2998 37.4004c43.2666 21.2666 86.9004 31.8994 130.9 31.8994h8.7998c59.4004 0 116.6 -19.0664 171.6 -57.1992
c12.4668 -8.80078 23.1006 -17.6006 31.9004 -26.4004c16.8662 -15.4004 29.7002 -28.9668 38.5 -40.7002c38.8662 -55.7334 58.2998 -116.6 58.2998 -182.6c0 -73.334 -24.2002 -139.7 -72.5996 -199.101c-16.1338 -16.8662 -28.9668 -28.9658 -38.5 -36.2998
c-24.2002 -19.0664 -44 -31.8994 -59.4004 -38.5c-43.2666 -20.5332 -88 -30.7998 -134.2 -30.7998c-21.2666 0 -44.3662 2.56641 -69.2998 7.7002c-14.666 -5.13379 -24.2002 -7.7002 -28.5996 -7.7002c-2.93359 0 -6.9668 1.4668 -12.1006 4.40039
c-12.4658 7.33301 -26.0332 17.2334 -40.6992 29.6992l-12.1006 12.1006c-0.733398 0.733398 -2.2002 1.83301 -4.39941 3.2998z" />
</svg>
