<?xml version="1.0" standalone="no"?>
<!DOCTYPE svg PUBLIC "-//W3C//DTD SVG 1.1//EN" "http://www.w3.org/Graphics/SVG/1.1/DTD/svg11.dtd" >
<svg xmlns="http://www.w3.org/2000/svg" xmlns:xlink="http://www.w3.org/1999/xlink" version="1.1" viewBox="-10 0 1010 1000">
   <path fill="currentColor"
d="M113.35 114.85h773.301v773.301h-773.301v-91.3008v-488.399v-193.601zM178.25 183.05v636.9h644.6v-636.9h-644.6zM508.25 222.65h1.09961c5.86719 35.1992 13.2002 68.9326 22 101.199c5.86719 25.667 15.0342 63.4336 27.5 113.301
c24.9336 -19.8008 74.4336 -60.1338 148.5 -121c-15.3994 -16.1338 -25.666 -26.0342 -30.7998 -29.7002c-21.2666 -16.1338 -38.8662 -27.1338 -52.7998 -33c-15.4004 -8.06641 -30.4336 -14.2998 -45.0996 -18.7002c-24.9336 -6.59961 -44 -9.90039 -57.2002 -9.90039
v-1.09961h259.6v554.4h-258.5c16.1338 0 39.2334 -4.7666 69.2998 -14.3008c11 -3.66602 21.6338 -8.06641 31.9004 -13.1992c-13.9336 -15.4004 -42.5332 -45.1006 -85.7998 -89.1006c-13.9336 -14.666 -41.4336 -44 -82.5 -88
c-101.2 80.667 -152.167 121.733 -152.9 123.2c19.7998 18.333 34.4668 30.4336 44 36.2998c12.4668 8.7998 26.0332 16.1338 40.7002 22c18.333 8.7998 39.2334 15.0332 62.7002 18.7002c12.4668 2.93359 21.6328 4.40039 27.5 4.40039h-258.5v-138.601v-40.7002v-375.1
h259.6v1.09961c-16.1328 0 -39.9668 4.7666 -71.5 14.3008c-20.5332 8.7998 -40.333 19.0664 -59.3994 30.7998c-12.4668 8.06641 -25.667 18.7002 -39.6006 31.8994c-11 11 -20.166 20.9004 -27.5 29.7002c21.2666 22.7334 53.5332 56.4668 96.7998 101.2
c22 -34.4668 65.6338 -104.134 130.9 -209v-1.09961zM490.65 330.45c-13.9336 22 -41.8008 66.7334 -83.6006 134.2l51.7002 52.7998c11 -8.06641 32.2666 -25.2998 63.7998 -51.7002v-1.09961c-5.13281 -22 -15.7666 -66.7334 -31.8994 -134.2zM632.55 746.25
c16.1338 -8.06641 34.834 -21.6338 56.1006 -40.7002c20.5332 -19.7998 33 -34.0996 37.3994 -42.8994c34.4668 -49.1338 51.7002 -103.034 51.7002 -161.7c0 -53.5332 -15.0332 -103.767 -45.0996 -150.7v-1.09961c-27.1338 22 -81.4004 66.3662 -162.801 133.1
c10.2666 44 31.167 132 62.7002 264zM222.25 432.75v68.2002c0 45.4668 10.6338 88.7334 31.9004 129.8h1.09961c16.8662 -27.1338 49.8662 -81.0332 99 -161.7c-24.2002 -25.2998 -24.2002 -25.2998 -96.7998 -101.2c-5.86719 10.2666 -17.6006 31.9004 -35.2002 64.9004z
M385.05 499.85c-16.8662 26.4004 -49.5 78.834 -97.8994 157.301c0.733398 -1.4668 37.7666 -31.5342 111.1 -90.2002c13.9336 -11.7334 23.4668 -19.4336 28.5996 -23.1006c-0.733398 -0.733398 -14.666 -15.3994 -41.7998 -44zM486.25 548.25
c13.2002 13.2002 38.5 39.5996 75.9004 79.2002c-4.40039 -19.7998 -13.5674 -59.0332 -27.5 -117.7c-8.06738 6.59961 -24.2002 19.4336 -48.4004 38.5z" />
</svg>
