<?xml version="1.0" standalone="no"?>
<!DOCTYPE svg PUBLIC "-//W3C//DTD SVG 1.1//EN" "http://www.w3.org/Graphics/SVG/1.1/DTD/svg11.dtd" >
<svg xmlns="http://www.w3.org/2000/svg" xmlns:xlink="http://www.w3.org/1999/xlink" version="1.1" viewBox="-10 0 1010 1000">
   <path fill="currentColor"
d="M113.35 114.85h773.301v773.301h-773.301v-91.3008v-488.399v-193.601zM355.35 258.95c2.2002 8.7998 2.2002 8.7998 8.80078 35.2002c5.86621 30.7998 15.3994 85.0664 28.5996 162.8c2.2002 10.2666 5.5 25.2998 9.90039 45.0996h-9.90039
c-5.86621 -23.4668 -18.333 -69.666 -37.4004 -138.6c-5.13281 -11 -14.666 -33.3672 -28.5996 -67.1006c-13.9336 -8.06641 -25.667 -12.0996 -35.2002 -12.0996c-14.666 0 -26.0332 8.7998 -34.0996 26.4004c22 52.0664 46.5664 134.199 73.7002 246.399
c0.733398 0.733398 1.09961 3.66699 1.09961 8.7998c0 12.4668 -5.13379 18.7002 -15.4004 18.7002c-11 0 -23.833 -8.06641 -38.5 -24.2002c-11.7334 -16.1328 -21.6328 -33.3662 -29.6992 -51.6992c-9.53418 -22.7334 -15.4004 -35.2002 -17.6006 -37.4004
c-12.4668 -4.40039 -23.4668 -6.59961 -33 -6.59961c-11.7334 0 -19.7998 4.7666 -24.2002 14.2998c-2.19922 5.13281 -3.2998 9.5332 -3.2998 13.2002v5.5c0 4.39941 3.66699 13.5664 11 27.5c5.13379 12.4658 13.2002 27.8662 24.2002 46.1992
c11 17.6006 17.9668 27.5 20.9004 29.7002c19.7998 18.334 34.0996 33.3672 42.8994 45.1006c10.2666 11.7334 16.1338 20.5332 17.6006 26.3994c10.2666 24.2002 23.833 64.9004 40.6992 122.101c2.93359 9.5332 7.33398 24.1992 13.2002 44
c0.733398 0 1.10059 0.366211 1.10059 1.09961c2.93262 0 7.69922 -0.366211 14.2998 -1.09961h138.6c19.0664 0.733398 58.2998 1.09961 117.7 1.09961c0.733398 0 4.40039 -7.33301 11 -22c11.7334 -32.2666 21.2666 -53.9004 28.5996 -64.9004
c16.8672 -15.3994 42.5342 -39.2334 77 -71.5c11 -5.86621 32.6338 -17.9658 64.9004 -36.2998c11.7334 -6.59961 21.6338 -13.5664 29.7002 -20.8994c3.66602 -6.60059 5.5 -13.9336 5.5 -22c0 -13.2002 -5.86719 -23.834 -17.6006 -31.9004
c-4.39941 -2.2002 -9.16602 -3.2998 -14.2998 -3.2998h-3.2998c-2.93359 0 -13.2002 4.39941 -30.7998 13.2002c-39.6006 19.7998 -68.2002 32.2666 -85.7998 37.3994c-16.1338 5.13379 -31.5342 7.7002 -46.2002 7.7002h-3.2998
c-12.4668 0 -21.6338 -2.2002 -27.5 -6.59961c-12.4668 -8.80078 -18.7002 -25.3008 -18.7002 -49.5v-3.30078c0 -30.0664 8.7998 -71.5 26.3994 -124.3v-1.09961c0 -33.7334 8.80078 -71.8672 26.4004 -114.4c0.733398 -2.2002 1.4668 -5.5 2.2002 -9.89941v-2.2002
c0 -14.667 -6.60059 -28.2334 -19.7998 -40.7002c-8.80078 -4.40039 -15.7666 -6.59961 -20.9004 -6.59961c-12.4668 0 -25.2998 5.5 -38.5 16.5c-1.4668 0 -2.56641 3.66602 -3.2998 11c-13.2002 73.333 -23.834 127.966 -31.9004 163.899
c0 12.4668 -5.13281 26.0332 -15.3994 40.7002c-5.13379 5.13379 -10.6338 7.7002 -16.5 7.7002c-2.2002 0 -6.2334 -8.06641 -12.1006 -24.2002c-5.13281 -14.667 -11.3662 -39.5996 -18.7002 -74.7998c-8.7998 -63.7998 -16.8662 -112.934 -24.1992 -147.4
c-3.66699 -7.33301 -8.80078 -14.2998 -15.4004 -20.8994c-8.7998 -5.86719 -19.4336 -8.80078 -31.9004 -8.80078c-8.06641 0 -15.3994 2.93359 -22 8.80078c-5.86621 6.59961 -9.5332 13.1992 -11 19.7998zM389.45 277.65v1.09961h4.39941h3.30078v1.09961
c-0.733398 0 -1.10059 1.10059 -1.10059 3.30078c2.93359 7.33301 8.43359 13.1992 16.5 17.5996c0.733398 0 1.83398 0.366211 3.2998 1.09961v3.30078c-2.93262 0.733398 -9.16602 2.56641 -18.6992 5.5h-1.10059c-5.13281 -5.86719 -7.7002 -15.7666 -7.7002 -29.7002
v-1.10059c0 -0.733398 0.367188 -1.46582 1.10059 -2.19922zM586.35 302.95c0.733398 0.733398 2.2002 1.09961 4.40039 1.09961h1.09961v2.2002c-0.733398 5.13379 -1.09961 9.16699 -1.09961 12.0996v3.30078c0 2.19922 0.366211 5.13281 1.09961 8.7998v1.09961h-19.7998
l-2.2002 -2.2002c2.2002 -5.86621 7.7002 -14.666 16.5 -26.3994zM398.25 327.15c12.4668 0.733398 18.7002 1.46582 18.7002 2.19922c4.39941 17.6006 4.39941 17.6006 13.2002 52.8008c-0.733398 0 -1.10059 0.733398 -1.10059 2.19922h-23.0996
c-1.4668 0 -2.56641 -5.86621 -3.2998 -17.5996c-3.66699 -22.7334 -5.5 -35.5664 -5.5 -38.5zM297.05 332.65c0.733398 0 9.5332 7.33301 26.4004 22c-0.733398 0 -1.10059 0.366211 -1.10059 1.09961c-1.46582 0.733398 -5.13281 1.09961 -11 1.09961h-8.7998
c-1.4668 0 -2.56641 -1.46582 -3.2998 -4.39941c-4.40039 -10.2666 -6.59961 -16.1338 -6.59961 -17.6006c0 -1.46582 1.46582 -2.19922 4.39941 -2.19922zM585.25 354.65l1.09961 1.09961c-5.86621 31.5332 -9.5332 47.2998 -11 47.2998
c-9.5332 -0.733398 -14.2998 -1.4668 -14.2998 -2.2002c-0.733398 0 -1.09961 -0.366211 -1.09961 -1.09961c0.733398 -7.33301 2.56641 -22.3662 5.5 -45.0996h19.7998zM327.85 379.95c0.733398 0 2.2002 3.66602 4.40039 11
c2.93359 8.06641 7.7002 20.5332 14.2998 37.3994l-1.09961 1.10059c-5.13379 0.733398 -12.4668 1.4668 -22 2.2002c-0.733398 -0.733398 -5.13379 -16.8672 -13.2002 -48.4004c0 -1.4668 2.2002 -2.2002 6.59961 -2.2002zM407.05 409.65h6.60059
c2.93262 0 8.43262 0.366211 16.5 1.09961c2.19922 0 3.2998 2.93359 3.2998 8.7998c4.39941 30.0664 11.7334 74.7998 22 134.2c-0.733398 0 -1.10059 0.733398 -1.10059 2.2002h-22c-1.46582 0 -2.56641 -5.86719 -3.2998 -17.6006
c-13.2002 -71.1328 -20.5332 -113.666 -22 -127.6v-1.09961zM554.45 429.45c11 0 16.5 0.366211 16.5 1.09961c-8.7998 40.7002 -8.7998 40.7002 -26.4004 122.101c-2.2002 0 -6.9668 0.733398 -14.2998 2.19922l-1.09961 -2.19922
c4.39941 -20.5342 12.4658 -61.6006 24.1992 -123.2h1.10059zM345.45 461.35c0.733398 0 2.2002 3.66699 4.39941 11c8.06738 22 20.5342 55.3672 37.4004 100.101l-1.09961 2.2002h-14.3008h-13.1992c-0.733398 0 -2.56738 -7.7002 -5.5 -23.1006
c-4.40039 -19.0664 -11 -47.2998 -19.8008 -84.7002c0 -0.733398 4.03418 -2.56641 12.1006 -5.5zM209.05 495.45c0.733398 0 5.13379 6.59961 13.2002 19.7998c2.2002 2.2002 4.7666 5.86621 7.7002 11c0 1.4668 -1.10059 2.2002 -3.2998 2.2002
c0 0.733398 -4.40039 1.4668 -13.2002 2.2002c-1.4668 0 -2.93359 -4.40039 -4.40039 -13.2002c-0.733398 -3.66699 -2.2002 -9.5332 -4.39941 -17.6006c0 -1.46582 1.46582 -2.93262 4.39941 -4.39941zM236.55 543.85c1.4668 0 2.93359 2.93359 4.40039 8.80078
c2.2002 5.86621 7.7002 12.0996 16.5 18.6992v2.2002c-6.60059 4.40039 -10.6338 6.60059 -12.1006 6.60059h-1.09961c-3.66699 -4.40039 -11 -14.3008 -22 -29.7002v-1.10059c0 -0.733398 4.0332 -2.19922 12.0996 -4.39941l1.10059 -1.10059h1.09961zM432.35 587.85
c14.667 0.733398 22 1.83398 22 3.30078c24.9336 148.133 37.4004 223.3 37.4004 225.5c0 0.733398 -6.59961 1.83301 -19.7998 3.2998c-1.4668 0 -3.66699 -11.3672 -6.60059 -34.1006c-7.33301 -43.2666 -18.6992 -108.899 -34.0996 -196.899zM524.75 588.95
c16.8662 0.733398 25.2998 1.4668 25.2998 2.2002v1.09961c-3.66602 37.4004 -11.7334 112.2 -24.2002 224.4h-1.09961c-13.9336 -0.733398 -20.9004 -1.83398 -20.9004 -3.30078c3.66699 -37.3994 9.90039 -112.199 18.7002 -224.399h2.2002zM276.15 596.65
c5.86621 2.93262 17.2334 9.16602 34.0996 18.6992v2.2002c-3.66699 2.2002 -11 5.86719 -22 11h-1.09961c-4.40039 -3.66602 -13.5674 -11 -27.5 -22v-1.09961c7.33301 -5.13379 12.833 -8.06641 16.5 -8.7998zM789.85 597.75v2.2002
c-2.93262 3.66602 -9.16602 12.0996 -18.6992 25.2998c-8.80078 4.40039 -25.3008 12.833 -49.5 25.2998c-0.733398 0 -1.4668 -0.366211 -2.2002 -1.09961v-13.2002v-3.2998c24.2002 -18.334 37.0332 -27.5 38.5 -27.5c7.33301 -1.4668 17.9668 -3.66699 31.8994 -6.60059
v-1.09961zM394.95 601.05c2.2002 0 3.2998 2.93359 3.2998 8.7998c33 137.134 49.5 206.434 49.5 207.9c0 0.733398 -5.13379 1.4668 -15.4004 2.2002c-1.46582 0 -4.0332 0.366211 -7.69922 1.09961l-9.90039 -31.8994c-38.1338 -110 -58.2998 -167.934 -60.5 -173.801
c0 -0.733398 2.93359 -1.83301 8.7998 -3.2998c2.2002 -1.4668 12.834 -5.13281 31.9004 -11zM689.75 649.45h3.2998c1.4668 2.2002 5.5 6.9668 12.1006 14.2998v2.2002c-40.334 27.1328 -64.5342 42.5332 -72.6006 46.2002
c-6.59961 -3.30078 -6.59961 -3.30078 -19.7998 -9.90039v-2.2002c9.5332 -6.59961 28.5996 -19.4336 57.2002 -38.5c3.66602 -2.2002 10.2666 -6.2334 19.7998 -12.0996zM322.35 650.55c0.733398 1.4668 6.60059 17.6006 17.6006 48.4004
c10.2666 26.3994 25.2998 66.7334 45.0996 121c0 1.4668 -4.7666 2.2002 -14.2998 2.2002c0 0.733398 -1.83301 1.46582 -5.5 2.19922c-1.4668 0 -3.2998 -4.0332 -5.5 -12.0996c-12.4668 -34.4668 -31.5332 -86.9004 -57.2002 -157.3
c0 -0.733398 4.0332 -1.4668 12.1006 -2.2002c2.19922 -0.733398 4.7666 -1.4668 7.69922 -2.2002zM581.95 727.55c4.39941 0 13.5664 0.367188 27.5 1.10059v3.2998c-2.93359 2.93359 -19.4336 31.5332 -49.5 85.7998c-0.733398 0 -1.10059 0.366211 -1.10059 1.09961
h-2.19922c-9.53418 -3.66602 -14.667 -5.86621 -15.4004 -6.59961h-1.09961c7.33301 -14.667 20.8994 -42.9004 40.6992 -84.7002h1.10059z" />
</svg>
