<?xml version="1.0" standalone="no"?>
<!DOCTYPE svg PUBLIC "-//W3C//DTD SVG 1.1//EN" "http://www.w3.org/Graphics/SVG/1.1/DTD/svg11.dtd" >
<svg xmlns="http://www.w3.org/2000/svg" xmlns:xlink="http://www.w3.org/1999/xlink" version="1.1" viewBox="-10 0 1010 1000">
   <path fill="currentColor"
d="M462.875 55.2891c4.48633 -0.551758 11.5762 -0.802734 20.1846 -0.802734c28.8125 0 74.6406 2.80664 96.8154 6.50195c50.0996 8.40039 114.9 33.6006 161.4 63.3008l15.5996 10.1992v108h107.699l8.70117 12.6006c27.5996 40.2002 56.4004 113.699 65.4004 165.899
c3.44922 20.25 5.17383 49.125 5.17383 78c0 28.876 -1.72461 57.751 -5.17383 78.001c-9.60156 57.2988 -34.8008 119.1 -69.9004 171.6l-16.2012 24.8994h-95.6992v90l-15.5996 10.2002c-43.5 27.6006 -100.801 51 -153.301 62.4004
c-22.0498 4.7998 -54.8242 7.2002 -87.5996 7.2002s-65.5498 -2.40039 -87.5996 -7.2002c-57.3008 -12.2998 -112.5 -35.7002 -162 -68.7002l-24.9004 -16.2002v-77.7002h-77.6992l-16.2012 -24.8994c-33.5996 -50.7002 -55.1992 -102.3 -68.4004 -164.101
c-4.94922 -22.6494 -7.42383 -54.0742 -7.42383 -85.5c0 -31.4248 2.47461 -62.8496 7.42383 -85.5c12 -55.7998 34.2012 -111.6 62.1016 -155.399l10.1992 -15.6006h90v-95.6992l24.9004 -16.2002c65.3984 -43.5 125.4 -64.7998 212.1 -75.2998zM619.775 106.889
l-29.4004 -9.59961l-84 -0.900391c-14.5781 -0.118164 -26.7754 -0.189453 -37.1162 -0.189453c-42.2207 0 -53.4805 1.19238 -69.3838 5.28906c-40.8008 10.2012 -90.9004 32.4004 -123.6 54.6006l-17.4004 11.7002v107.7h-104.1l-18.3008 35.0996
c-20.0996 39.2998 -34.1992 80.3994 -41.4004 120c-3 17.3994 -4.5 42.9746 -4.5 68.5869c0 25.6133 1.5 51.2637 4.5 68.8135c9.59961 53.0996 33.3008 113.699 61.8008 156.6l10.5 15.8994h91.5v92.4004l18.9004 12c69 43.5 141 64.5 222.6 64.5
c73.8008 0 138 -16.7998 201.9 -52.7998l21.5996 -12.2998v-103.801l54.5996 -0.599609l54.9004 -0.899414l9.90039 -15.001c24 -36 46.7988 -89.0996 56.0996 -130.799c3.12988 -14.3135 4.26172 -27.292 4.26172 -60.9346
c0 -11.4873 -0.131836 -25.3838 -0.361328 -42.5654l-1.20117 -80.7012l-9.59961 -29.3994c-12 -35.7002 -24.2988 -63.5996 -38.4004 -86.7002l-10.5 -17.3994h-119.699v-119.7l-17.4004 -10.5c-23.0996 -14.1006 -51 -26.4004 -86.6992 -38.4004zM501.875 843.988
c-20.5215 0 -33 -13.5742 -33 -33.2998c0 -11.7002 1.5 -15.2998 10.5 -24.2998l10.5 -10.5v-405.899c-5.97461 -5.52539 -11.8779 -11.1221 -17.6992 -16.8008l-26.1016 6.2998c-51.5996 12.3008 -58.1992 14.7002 -58.1992 22.5
c0 3.90039 -4.20117 11.1006 -9.30078 16.2002c-6.60059 6.60059 -14.8857 9.70508 -23.1172 9.70508c-13.4688 0 -26.7969 -8.30859 -32.3828 -23.2051c-4.5 -11.7002 -4.5 -13.5 0.601562 -23.6992c2.69922 -6.00098 8.39844 -12.9004 12.2988 -15.6006
c4.43555 -2.95703 10.9795 -4.4082 17.7949 -4.4082c8.39844 0 17.21 2.20312 23.0059 6.50879l8.69922 6.59961l40.8008 -10.2002c41.0996 -9.89941 41.0996 -9.89941 46.1992 -21c3 -6.2998 8.09961 -12.6006 11.4004 -14.4004c5.40039 -3 6 -6.2998 6 -41.999
c0 -36.3008 -0.300781 -38.7002 -6.30078 -40.5c-7.79883 -2.7002 -17.6992 -18.6006 -17.6992 -29.4004c0 -11.7002 7.5 -25.2002 17.4004 -30.3008c5.69922 -3.12891 11.502 -4.51953 17.0586 -4.51953c18.5488 0 34.3477 15.499 34.3477 33.5928
c0 5.58887 -1.50781 11.4248 -4.90625 17.1279c-2.70117 4.7998 -8.09961 10.1992 -12 12.2988c-6.59961 3.60059 -6.90039 5.10059 -6.90039 40.5v36.6006l10.1992 6c6.30078 3.60059 11.7012 10.2002 14.1016 16.5c3.59961 10.5 4.19922 10.7998 36.5996 18.9004
c17.6514 4.37109 25.9766 6.29199 31.3105 6.29199c4.18359 0 6.52734 -1.18262 10.0879 -3.29297c5.81445 -3.45703 13.9346 -5.18555 21.6416 -5.18555c7.00684 0 13.6738 1.42871 17.96 4.28613c7.18262 4.97266 15.2998 16.6445 15.2998 28.8008
c0 2.59766 -0.371094 5.21777 -1.2002 7.79883c-5.36523 16.2871 -19.665 25.7207 -33.9873 25.7207c-8.10059 0 -16.209 -3.01758 -22.7119 -9.52051c-6.00195 -6 -9.30078 -11.999 -9.30078 -17.7002c0 -8.09961 -1.5 -9.2998 -15.5996 -13.1992
c-28.6475 -8.12988 -41.1846 -11.3887 -47.4414 -11.3887c-3.44043 0 -4.98242 0.985352 -6.25977 2.68848c-4.0127 4.58691 -14.1387 9.68555 -20.6992 13.2002v203.699c0 173.7 0.599609 204.001 4.19922 204.001c2.40039 0 7.80078 4.19922 12 9.2998
c5.51562 6.38574 8.22266 14.1064 8.22266 21.8701c0 8.2832 -3.08203 16.6152 -9.12109 23.4297c-7.80078 8.7002 -10.5 9.89941 -24.3008 9.89941z" />
</svg>
