<?xml version="1.0" standalone="no"?>
<!DOCTYPE svg PUBLIC "-//W3C//DTD SVG 1.1//EN" "http://www.w3.org/Graphics/SVG/1.1/DTD/svg11.dtd" >
<svg xmlns="http://www.w3.org/2000/svg" xmlns:xlink="http://www.w3.org/1999/xlink" version="1.1" viewBox="-10 0 1010 1000">
   <path fill="currentColor"
d="M113.35 114.85h408.101c-16.1338 53.5342 -24.2002 85.0674 -24.2002 94.6006c-3.66699 14.666 -7.7002 27.1328 -12.0996 37.3994c-2.93359 6.60059 -8.06738 16.5 -15.4004 29.7002c-2.93359 6.60059 -6.2334 23.4668 -9.90039 50.6006
c-14.666 50.5996 -22 88 -22 112.199v6.60059c0 18.333 2.56738 36.2998 7.7002 53.8994c3.66699 5.86719 9.90039 14.667 18.7002 26.4004c1.4668 2.93359 2.2002 5.5 2.2002 7.7002c0 8.7998 -1.83398 14.2998 -5.5 16.5c-3.66699 1.4668 -7.33398 2.56641 -11 3.2998
c-5.13379 5.13379 -7.7002 11.7334 -7.7002 19.7998c0 13.2002 5.86621 22.3672 17.5996 27.5l12.1006 5.5c5.13281 2.93359 7.7002 6.60059 7.7002 11l1.09961 2.2002v3.2998c0 2.93359 -3.66699 7.33398 -11 13.2002c-2.2002 3.66699 -3.2998 10.6338 -3.2998 20.9004
c-1.4668 7.33301 -3.2998 11 -5.5 11c-5.13379 5.86621 -7.7002 9.89941 -7.7002 12.0996v2.2002c0 4.39941 7.7002 12.0996 23.0996 23.0996c7.33398 7.33398 11 13.2002 11 17.6006v1.09961c0 3.66699 -3.66602 5.5 -11 5.5
c-19.0664 0 -36.2998 -11.7334 -51.6992 -35.2002c-7.33398 -11.7334 -11.3672 -22.7334 -12.1006 -33c-0.733398 -3.66602 -5.5 -11.7334 -14.2998 -24.2002c-2.2002 -3.66602 -4.7666 -9.16602 -7.7002 -16.5c-5.86621 -12.4658 -15.0332 -18.6992 -27.5 -18.6992
c-3.66602 0.733398 -9.5332 1.46582 -17.5996 2.19922c-5.13379 0 -12.1006 -19.0664 -20.9004 -57.1992c-4.39941 -16.8672 -8.7998 -27.1338 -13.2002 -30.8008c-4.39941 -2.93262 -9.89941 -4.39941 -16.5 -4.39941c-13.1992 0.733398 -19.7998 3.2998 -19.7998 7.7002
c0.733398 0.733398 1.4668 2.56641 2.2002 5.5h-1.09961c-2.93359 -2.93359 -8.06738 -8.80078 -15.4004 -17.6006c-52.0664 -58.666 -85.7998 -88 -101.2 -88c-0.733398 0 -2.2002 0.367188 -4.39941 1.10059c-11 -3.66699 -24.9336 -9.16699 -41.8008 -16.5v-55v-234.301z
M749.15 114.85h137.5v173.801c-15.4004 5.13281 -23.1006 8.43262 -23.1006 9.89941c-19.7998 16.8672 -35.5664 26.0332 -47.2998 27.5c-38.1338 11 -79.5664 35.2002 -124.3 72.6006c-22 20.5332 -36.2998 35.1992 -42.9004 44
c-29.333 34.4658 -54.2666 67.833 -74.7998 100.1c-29.333 46.9336 -44 78.0996 -44 93.5c-3.66699 17.5996 -6.59961 26.4004 -8.7998 26.4004c-1.4668 0 -2.56641 -4.40039 -3.2998 -13.2002v-8.7998c0 -4.40039 -0.367188 -12.834 -1.10059 -25.3008
c-0.733398 -2.19922 -1.09961 -5.86621 -1.09961 -11c0 -34.4658 6.9668 -78.4658 20.8994 -132c5.13379 -17.5996 10.2666 -29.6992 15.4004 -36.2998c12.4668 -13.2002 27.5 -43.6328 45.0996 -91.2998c8.80078 -17.5996 20.167 -38.5 34.1006 -62.7002
c20.5332 -36.666 46.5664 -76.6328 78.0996 -119.899c14.667 -18.334 27.8672 -34.1006 39.6006 -47.3008zM886.65 437.15v451h-773.301v-64.9004v-18.7002v-173.8h1.10059c13.9336 4.40039 23.833 8.06641 29.7002 11c7.33301 -1.4668 14.666 -2.2002 22 -2.2002h4.39941
c20.5332 0 49.8672 6.60059 88 19.7998c8.06641 2.2002 14.2998 3.30078 18.7002 3.30078c2.2002 0 4.40039 -1.10059 6.59961 -3.30078c2.2002 0 11.7334 9.16699 28.6006 27.5c5.13281 4.40039 11.7334 8.06738 19.7998 11c14.667 3.66699 28.9668 5.5 42.9004 5.5
h9.89941c8.7998 1.4668 18.334 6.2334 28.6006 14.3008c9.5332 8.7998 14.2998 17.5996 14.2998 26.3994c0.733398 0 1.4668 0.367188 2.2002 1.10059c0.733398 0 2.93262 -0.367188 6.59961 -1.10059c2.93359 0 9.16699 5.5 18.7002 16.5
c3.66602 2.93359 8.06641 5.5 13.2002 7.7002c21.2666 15.4004 36.2998 23.0996 45.0996 23.0996h2.2002c3.66602 0 5.5 -0.733398 5.5 -2.19922c1.4668 0 3.2998 -8.43359 5.5 -25.3008c7.33301 -27.8662 13.5664 -49.5 18.7002 -64.8994
c8.06641 -21.2666 17.9658 -43.6338 29.6992 -67.1006c2.2002 -3.66602 5.86719 -8.7998 11 -15.3994c9.53418 -13.9336 23.1006 -30.4336 40.7002 -49.5c38.1338 -27.1338 79.5664 -52.0664 124.3 -74.7998c31.5342 -16.1338 63.4336 -30.0674 95.7002 -41.8008
c13.2002 -4.39941 13.2002 -4.39941 39.6006 -13.1992z" />
</svg>
