<?xml version="1.0" standalone="no"?>
<!DOCTYPE svg PUBLIC "-//W3C//DTD SVG 1.1//EN" "http://www.w3.org/Graphics/SVG/1.1/DTD/svg11.dtd" >
<svg xmlns="http://www.w3.org/2000/svg" xmlns:xlink="http://www.w3.org/1999/xlink" version="1.1" viewBox="-10 0 1010 1000">
   <path fill="currentColor"
d="M462.875 55.2891c4.48633 -0.551758 11.5762 -0.802734 20.1846 -0.802734c28.8125 0 74.6406 2.80664 96.8154 6.50195c50.0996 8.40039 114.9 33.6006 161.4 63.3008l15.5996 10.1992v108h107.699l8.70117 12.6006c27.5996 40.2002 56.4004 113.699 65.4004 165.899
c3.44922 20.25 5.17383 49.125 5.17383 78c0 28.876 -1.72461 57.751 -5.17383 78.001c-9.60156 57.2988 -34.8008 119.1 -69.9004 171.6l-16.2012 24.8994h-95.6992v90l-15.5996 10.2002c-43.5 27.6006 -100.801 51 -153.301 62.4004
c-22.0498 4.7998 -54.8242 7.2002 -87.5996 7.2002s-65.5498 -2.40039 -87.5996 -7.2002c-57.3008 -12.2998 -112.5 -35.7002 -162 -68.7002l-24.9004 -16.2002v-77.7002h-77.6992l-16.2012 -24.8994c-33.5996 -50.7002 -55.1992 -102.3 -68.4004 -164.101
c-4.94922 -22.6494 -7.42383 -54.0742 -7.42383 -85.5c0 -31.4248 2.47461 -62.8496 7.42383 -85.5c12 -55.7998 34.2012 -111.6 62.1016 -155.399l10.1992 -15.6006h90v-95.6992l24.9004 -16.2002c65.3984 -43.5 125.4 -64.7998 212.1 -75.2998zM619.775 106.889
l-29.4004 -9.59961l-84 -0.900391c-14.5781 -0.118164 -26.7754 -0.189453 -37.1162 -0.189453c-42.2207 0 -53.4805 1.19238 -69.3838 5.28906c-40.8008 10.2012 -90.9004 32.4004 -123.6 54.6006l-17.4004 11.7002v107.7h-104.1l-18.3008 35.0996
c-20.0996 39.2998 -34.1992 80.3994 -41.4004 120c-3 17.3994 -4.5 42.9746 -4.5 68.5869c0 25.6133 1.5 51.2637 4.5 68.8135c9.59961 53.0996 33.3008 113.699 61.8008 156.6l10.5 15.8994h91.5v92.4004l18.9004 12c69 43.5 141 64.5 222.6 64.5
c73.8008 0 138 -16.7998 201.9 -52.7998l21.5996 -12.2998v-103.801l54.5996 -0.599609l54.9004 -0.899414l9.90039 -15.001c24 -36 46.7988 -89.0996 56.0996 -130.799c3.12988 -14.3135 4.26172 -27.292 4.26172 -60.9346
c0 -11.4873 -0.131836 -25.3838 -0.361328 -42.5654l-1.20117 -80.7012l-9.59961 -29.3994c-12 -35.7002 -24.2988 -63.5996 -38.4004 -86.7002l-10.5 -17.3994h-119.699v-119.7l-17.4004 -10.5c-23.0996 -14.1006 -51 -26.4004 -86.6992 -38.4004zM397.174 178.289
c6.94922 -1.90918 13.957 -2.84668 20.874 -2.84668c20.2588 0 39.7441 8.03906 54.7275 23.2461c14.3984 14.4004 22.5 30.9004 27.8984 56.7002c3.30078 15.9004 6.30078 22.5 12.3008 27c7.96973 6.45117 5.67285 9.30078 5.67285 20.6699
c0 8.75684 8.96387 17.8623 86.4268 94.5303c48 48 91.5 89.4004 96.6016 92.3994c4.49512 2.48047 7.22754 3.67871 11.7988 3.67871c4.27637 0 10.1602 -1.04883 20.5996 -3.07812c35.7256 -7.54199 68.4893 -26.75 68.4893 -63.292
c0 -10.1299 -2.51758 -21.5928 -8.18848 -34.5078c-15 -33.3008 -56.6992 -63.6006 -93 -68.1006c-23.6992 -2.7002 -27.5996 -3.89941 -29.7012 -9c-0.508789 -1.34863 -0.75293 -2.58984 -0.75293 -3.72461c0 -6.13379 7.14648 -9.14355 18.3447 -9.14355
c14.8291 0 36.7607 5.27734 58.6094 15.5684c43.4209 20.2627 75.7607 68.6875 75.7607 108.423c0 5.5625 -0.633789 10.9561 -1.95996 16.0771c-10.2012 38.3994 -36.6016 59.0996 -85.8008 67.7998c-16.5 2.7002 -26.6992 6.2998 -31.1992 10.501
c-3.60156 3.59961 -9.30078 6.2998 -12.6016 6.2998c-7.19922 0 -175.199 167.399 -175.199 174.899c0 2.7002 -2.70117 7.80078 -6 11.0996c-5.70117 5.70117 -6 6.90039 -1.5 27.3008c9.09082 43.8389 32.875 67.4072 63.5645 67.4072
c14.8828 0 31.3916 -5.54395 48.6348 -17.0068c30.3008 -20.4004 50.0996 -52.8008 53.4004 -88.501c1.70508 -18.0273 5.19141 -26.5596 11.4219 -26.5596c1.44238 0 3.03125 0.457031 4.7793 1.35938c3.7998 2.05859 5.67676 7.87695 5.67676 16.5303
c0 7.74219 -1.50293 17.7529 -4.47754 29.3701c-13.8008 52.7998 -55.1992 93.5996 -105 104.1c-4.94824 1.02832 -9.85547 1.52637 -14.6836 1.52637c-40.2568 0 -75.0811 -34.6309 -83.1172 -85.5254c-1.79883 -12.3008 -5.69922 -27.3008 -8.09961 -33.001
c-2.69922 -6 -42.9004 -48.5996 -91.7988 -97.7998l-86.7012 -87.5996l-11.0996 1.5c-9 1.2002 -12.3008 0.299805 -17.6992 -5.39941c-6 -6.60059 -7.20117 -6.60059 -23.1016 -3.30078c-21.2988 4.2002 -40.5 15.5996 -51.2988 29.4004
c-6.79785 8.95508 -10.0635 20.2002 -10.0635 32.3535c0 21.6367 10.3535 46.1523 29.5635 65.7461c22.7988 23.4004 54.5996 38.0996 81.9004 38.0996c10.1992 0 20.6992 6.00098 20.6992 11.7002c0 6.09277 -7.59473 8.875 -18.9062 8.875
c-18.7676 0 -47.7676 -7.66016 -69.293 -20.5752c-38.9697 -23.3818 -65.5654 -67.0117 -65.5654 -103.224c0 -5.60352 0.637695 -11.0303 1.96387 -16.1758c9.90039 -37.2002 36.6016 -58.7998 81.6016 -66.9004c11.3984 -2.09961 23.3984 -5.69922 26.6992 -7.7998
c3.30078 -2.09961 9.30078 -3.90039 13.5 -3.90039c6 0 26.6992 -19.1992 96.5996 -89.3994c88.0127 -88.2871 93.0664 -92.6074 93.0664 -118.375c0 -2.33887 -0.0410156 -4.85449 -0.0664062 -7.625c0 -36.332 -26.8145 -74.0928 -64.1221 -74.0928
c-4.20117 0 -8.53418 0.478516 -12.9775 1.49219c-45.5996 10.2002 -80.4004 51.001 -89.4004 104.101c-3.59961 20.7002 -4.79883 23.4004 -11.0996 24.2998c-9 1.5 -11.6992 -3.2998 -9.90039 -18.5996c7.5 -66 45.3008 -113.4 103.199 -129zM584.375 407.488
c-47.7012 -48 -87.5996 -86.999 -88.5 -86.999s-42.5996 41.0996 -93 91.499l-91.5 91.5l87 87.001c81 81 87.5996 86.999 97.5 86.999s16.1992 -5.69922 92.0996 -81.8994c69.7529 -69.7529 82.5801 -82.4287 82.5801 -92.9629
c0 -8.39062 -9.05176 -17.7256 -86.1797 -95.1377zM478.475 470.488c6.42578 -3.87109 13.4111 -5.64355 20.2969 -5.64355c19.793 0 38.7539 14.6533 41.2031 36.2441c0.225586 2.05078 0.335938 4.05957 0.335938 6.02344c0 24.1816 -16.7188 41.376 -41.1348 41.376
c-26.2129 0 -41.9326 -20.3223 -41.9326 -41.3984c0 -13.6592 6.60352 -27.6357 21.2314 -36.6016z" />
</svg>
