<?xml version="1.0" standalone="no"?>
<!DOCTYPE svg PUBLIC "-//W3C//DTD SVG 1.1//EN" "http://www.w3.org/Graphics/SVG/1.1/DTD/svg11.dtd" >
<svg xmlns="http://www.w3.org/2000/svg" xmlns:xlink="http://www.w3.org/1999/xlink" version="1.1" viewBox="-10 0 1010 1000">
   <path fill="currentColor"
d="M113.35 114.85h773.301v773.301h-773.301v-91.3008v-488.399v-193.601zM510.45 307.35c-13.2002 13.9336 -22 24.9336 -26.4004 33v1.10059c22 13.9336 66.3672 41.7998 133.101 83.5996c-2.93359 -2.93359 -18.7002 -20.5332 -47.3008 -52.7998
c-13.1992 -14.667 -33 -36.2998 -59.3994 -64.9004zM427.95 313.95c-69.667 68.2002 -104.867 102.3 -105.601 102.3h-2.19922c-8.80078 0 -27.5 -0.366211 -56.1006 -1.09961c-4.39941 -1.4668 -6.9668 -7.33398 -7.7002 -17.6006v-3.2998
c0 -13.9336 1.83398 -22 5.5 -24.2002c5.13379 -9.5332 13.5674 -23.4668 25.3008 -41.7998h-2.2002c-13.2002 0 -35.5664 14.2998 -67.1006 42.9004c-18.333 19.0664 -30.7998 34.833 -37.3994 47.2998c-9.5332 16.1328 -14.667 28.2334 -15.4004 36.2998v75.9004h45.1006
c0.733398 0 2.19922 1.09961 4.39941 3.2998c1.10059 46.2002 1.10059 46.2002 4.40039 184.8c-0.733398 0.733398 -2.2002 1.83301 -4.40039 3.2998h-15.3994v53.9004h457.6c-8.06641 -17.6006 -13.2002 -27.1338 -15.4004 -28.6006
c-21.2666 -4.39941 -38.8662 -8.7998 -52.7998 -13.1992c-15.3994 -6.60059 -30.0664 -13.9336 -44 -22c-10.2666 -6.60059 -22.7334 -16.1338 -37.3994 -28.6006c-22 -21.2666 -37.7666 -39.9668 -47.3008 -56.0996c-16.8662 -26.4004 -30.7998 -54.2666 -41.7998 -83.6006
c0.733398 -1.46582 1.83398 -2.93262 3.2998 -4.39941c70.4004 5.86621 210.467 17.5996 420.2 35.2002c-83.5996 -52.8008 -83.5996 -52.8008 -334.399 -211.2c-13.2002 -8.06641 -39.6006 -24.5664 -79.2002 -49.5zM262.95 395.35
c0 8.06738 1.09961 12.4668 3.2998 13.2002h22c14.667 -22.7334 22 -41.4336 22 -56.0996v-1.10059c-8.06641 5.13379 -22.7334 15.0342 -44 29.7002c-2.2002 0 -3.2998 4.7666 -3.2998 14.2998zM548.95 557.05c9.5332 5.86719 28.2334 16.8672 56.0996 33
c51.334 30.0664 109.634 58.2998 174.9 84.7002c28.5996 11 59.3994 21.6338 92.3994 31.9004h1.10059c-29.7002 -33 -29.7002 -33 -118.8 -132c-0.733398 -0.733398 -5.5 -1.10059 -14.3008 -1.10059c-42.5332 -3.66602 -105.966 -9.16602 -190.3 -16.5h-1.09961z
M148.55 802.35v1.10059c5.13379 10.2666 15.0332 31.166 29.7002 62.7002c5.86621 0 16.8662 -0.367188 33 -1.10059h644.6v-62.7002h-707.3z" />
</svg>
