<?xml version="1.0" standalone="no"?>
<!DOCTYPE svg PUBLIC "-//W3C//DTD SVG 1.1//EN" "http://www.w3.org/Graphics/SVG/1.1/DTD/svg11.dtd" >
<svg xmlns="http://www.w3.org/2000/svg" xmlns:xlink="http://www.w3.org/1999/xlink" version="1.1" viewBox="-10 0 1010 1000">
   <path fill="currentColor"
d="M500 9.7002l487.3 487.3l-487.3 487.3c-81.4004 -80.666 -243.833 -243.1 -487.3 -487.3c80.666 -81.4004 243.1 -243.833 487.3 -487.3zM250.3 346.3c0 26.4004 7.33398 49.5 22 69.2998c11.7334 17.6006 17.9668 32.6338 18.7002 45.1006v4.39941
c0 9.53418 -4.7666 19.8008 -14.2998 30.8008c-8.06641 13.9326 -12.1006 31.8994 -12.1006 53.8994v2.2002c0 15.4004 3.30078 27.8662 9.90039 37.4004c22 44 41.7998 79.5664 59.4004 106.699c0.733398 1.4668 2.19922 3.66699 4.39941 6.60059
c16.1338 -39.6006 38.8672 -84.7002 68.2002 -135.3c3.66699 -6.60059 7.7002 -16.1338 12.0996 -28.6006c2.2002 -11.7334 3.30078 -20.8994 3.30078 -27.5v-2.2002v-4.39941h-1.10059c-7.33301 5.86621 -16.5 8.7998 -27.5 8.7998h-4.39941
c-16.8672 0 -31.5342 -10.6338 -44 -31.9004c-3.66699 -5.86621 -5.5 -10.6328 -5.5 -14.2998c3.66602 -11 12.4658 -16.5 26.3994 -16.5c14.667 0 30.7998 6.2334 48.4004 18.7002c2.2002 2.93359 5.5 6.9668 9.89941 12.0996
c6.60059 6.60059 9.90039 15.7666 9.90039 27.5v5.5c0 19.8008 -6.59961 41.8008 -19.7998 66c-26.4004 46.2002 -48.4004 88.7334 -66 127.601c0 2.2002 -0.733398 4.7666 -2.2002 7.7002c0 0.733398 0.366211 2.19922 1.09961 4.39941v4.40039
c-0.733398 4.39941 -1.46582 12.833 -2.19922 25.2998v3.2998c0 11.7334 6.96582 25.667 20.8994 41.7998c5.86719 8.06738 26.4004 29.334 61.6006 63.8008c13.9326 13.1992 23.0996 19.7998 27.5 19.7998h7.69922h4.40039c3.66699 0 11.7334 -1.4668 24.2002 -4.40039
h1.09961h5.5h8.7998c1.4668 0 8.43359 1.4668 20.9004 4.40039c1.4668 0.733398 4.0332 1.09961 7.7002 1.09961c10.2666 0 18.7002 -3.66602 25.2998 -11c27.8662 -24.9336 50.5996 -47.666 68.2002 -68.2002c16.8662 -19.0664 25.2998 -34.4658 25.2998 -46.1992v-4.40039
c0 -4.40039 -0.733398 -12.833 -2.2002 -25.2998c0.733398 -2.2002 1.10059 -5.5 1.10059 -9.90039c-7.33398 -22.7334 -19.0674 -48.7666 -35.2002 -78.0996c-8.06641 -14.667 -20.167 -37.0332 -36.2998 -67.1006c-10.2666 -22 -15.4004 -41.4326 -15.4004 -58.2998
c0 -13.9336 4.0332 -24.9336 12.0996 -33c8.80078 -11.7334 24.2002 -20.5332 46.2002 -26.3994c2.2002 -0.733398 5.86719 -1.10059 11 -1.10059c13.2002 0 21.6338 4.7666 25.2998 14.2998v2.2002c0 7.33398 -6.59961 18.334 -19.7998 33
c-1.4668 0.733398 -3.2998 2.2002 -5.5 4.40039c-7.33301 5.86621 -15.0332 8.7998 -23.0996 8.7998h-5.5c-11 0 -19.7998 -2.93359 -26.4004 -8.7998h-1.09961v5.5c0 22.7334 7.7002 46.9336 23.0996 72.5996c24.2002 42.5332 44 81.7666 59.4004 117.7v2.2002
c19.0664 -27.8672 37.7666 -61.2334 56.0996 -100.101c11.7334 -18.333 17.6006 -31.5332 17.6006 -39.5996v-12.0996c0 -24.9336 -4.7666 -44.3672 -14.3008 -58.3008c-8.7998 -8.7998 -13.1992 -17.9658 -13.1992 -27.5v-3.2998
c0 -12.4668 7.69922 -30.0664 23.0996 -52.7998c11.7334 -17.5996 17.5996 -37.0332 17.5996 -58.2998v-8.7998c0 -20.5342 -5.5 -42.167 -16.5 -64.9004c-2.93262 -5.86621 -9.5332 -13.9336 -19.7998 -24.2002c-8.06641 -7.33301 -14.666 -11 -19.7998 -11
c-17.5996 0 -34.4668 6.60059 -50.5996 19.7998c-47.667 27.1338 -80.667 41.0674 -99 41.8008c-8.06738 -0.733398 -19.8008 -2.2002 -35.2002 -4.40039c-1.4668 0 -5.13379 -0.366211 -11 -1.09961c-8.7998 1.09961 -8.7998 1.09961 -35.2002 4.39941h-6.59961
c-18.334 -0.733398 -49.5 -13.9336 -93.5 -39.5996c-13.2002 -8.7998 -23.1006 -14.2998 -29.7002 -16.5c-9.5332 -2.93359 -17.9668 -4.40039 -25.2998 -4.40039c-7.33398 0 -17.6006 7.7002 -30.8008 23.1006c-13.1992 16.8662 -21.2666 36.2998 -24.1992 58.2998
c-0.733398 8.7998 -1.10059 16.5 -1.10059 23.0996zM581.4 662c9.5332 0 14.2998 3.2998 14.2998 9.90039v4.39941c0 19.0664 -8.7998 28.6006 -26.4004 28.6006h-8.7998c-4.40039 0 -6.59961 1.46582 -6.59961 4.39941c-1.4668 12.4668 -3.66699 21.6338 -6.60059 27.5
c-2.93359 5.86719 -6.59961 9.5332 -11 11c-5.86621 1.4668 -8.7998 2.93359 -8.7998 4.40039v16.5c0.733398 0 1.4668 1.4668 2.2002 4.39941c5.13281 8.80078 16.8662 16.1338 35.2002 22c6.59961 0.733398 12.0996 1.10059 16.5 1.10059h1.09961v25.2998h-2.2002
c-15.3994 0 -32.2666 -4.7666 -50.5996 -14.2998c-11 -5.86719 -18.7002 -13.9336 -23.1006 -24.2002c-1.46582 0 -3.2998 -0.733398 -5.5 -2.2002h-1.09961c-1.4668 0.733398 -3.66699 2.2002 -6.59961 4.40039c-6.60059 12.4668 -18.7002 22 -36.3008 28.5996
c-14.666 5.86719 -27.8662 8.7998 -39.5996 8.7998v-24.1992c14.667 0 29.333 -5.13379 44 -15.4004c6.59961 -4.40039 9.90039 -9.16699 9.90039 -14.2998v-9.90039c0 -5.86621 -1.10059 -8.7998 -3.30078 -8.7998c-3.66602 0 -7.33301 -2.2002 -11 -6.59961
c-5.13281 -5.13379 -8.43262 -12.4668 -9.89941 -22c-1.4668 -9.53418 -2.56641 -14.3008 -3.2998 -14.3008c-0.733398 -0.733398 -1.83398 -1.09961 -3.30078 -1.09961h-8.7998c-9.5332 0 -16.5 -2.2002 -20.8994 -6.59961c-5.13379 -4.40039 -7.7002 -11.7334 -7.7002 -22
v-5.5c0 -5.86719 4.39941 -8.80078 13.2002 -8.80078h3.2998c11 0 25.666 3.30078 44 9.90039c2.2002 0 3.66602 4.40039 4.39941 13.2002c2.2002 4.39941 6.60059 6.59961 13.2002 6.59961h9.90039c3.66602 0 6.2334 0.733398 7.7002 2.2002
c2.19922 -2.2002 5.86621 -3.2998 11 -3.2998h9.89941c8.7998 0 13.2002 -4.40039 13.2002 -13.2002c0 -3.66699 1.4668 -6.2334 4.40039 -7.7002c19.0664 -5.86621 33.7334 -8.7998 44 -8.7998z" />
</svg>
