<?xml version="1.0" standalone="no"?>
<!DOCTYPE svg PUBLIC "-//W3C//DTD SVG 1.1//EN" "http://www.w3.org/Graphics/SVG/1.1/DTD/svg11.dtd" >
<svg xmlns="http://www.w3.org/2000/svg" xmlns:xlink="http://www.w3.org/1999/xlink" version="1.1" viewBox="-10 0 1010 1000">
   <path fill="currentColor"
d="M500 9.7002l487.3 487.3l-487.3 487.3c-81.4004 -80.666 -243.833 -243.1 -487.3 -487.3c80.666 -81.4004 243.1 -243.833 487.3 -487.3zM525.3 350.7c0 37.3994 7.33398 62.333 22 74.7998c25.667 30.0664 47.667 45.0996 66 45.0996
c15.4004 0 28.2334 -11.7334 38.5 -35.1992c5.86719 -16.1338 8.7998 -33.7334 8.7998 -52.8008v-3.2998c0 -34.4668 -7.33301 -64.5332 -22 -90.2002c-8.7998 -8.7998 -13.5664 -16.5 -14.2998 -23.0996c-2.93359 -5.86621 -9.89941 -16.8662 -20.8994 -33
c-2.2002 -2.2002 -5.5 -6.2334 -9.90039 -12.0996c-0.733398 -3.66699 -1.83301 -10.6338 -3.2998 -20.9004c-0.733398 -2.93359 -3.2998 -5.86621 -7.7002 -8.7998c-4.40039 -3.66699 -8.06641 -5.5 -11 -5.5c-8.06641 0 -12.0996 10.2666 -12.0996 30.7998
c0 3.66699 -5.13379 13.2002 -15.4004 28.5996c-7.33301 11.7334 -11.3662 23.1006 -12.0996 34.1006c-4.40039 22 -6.60059 45.833 -6.60059 71.5zM339.4 428.8v5.5c0 20.5332 5.86621 33.3672 17.5996 38.5c11.7334 5.13379 19.0664 7.7002 22 7.7002h4.40039
c8.7998 0 21.2666 -6.2334 37.3994 -18.7002c3.66699 -2.2002 9.16699 -5.86621 16.5 -11c5.86719 -4.39941 9.90039 -14.2998 12.1006 -29.7002c2.93262 -13.9326 4.39941 -29.6992 4.39941 -47.2998v-11c0 -35.2002 -4.39941 -59.7666 -13.2002 -73.7002
c-7.33301 -18.333 -13.1992 -31.8994 -17.5996 -40.6992c-3.66699 -16.1338 -6.2334 -24.9336 -7.7002 -26.4004c-1.4668 -5.13379 -4.39941 -7.7002 -8.7998 -7.7002h-2.2002c-4.39941 0 -6.9668 2.56641 -7.7002 7.7002
c-23.4658 32.2666 -39.2334 54.6338 -47.2998 67.0996c-5.86621 11.7334 -8.7998 41.4336 -8.7998 89.1006c0 11.7334 -0.366211 28.5996 -1.09961 50.5996zM652.9 505.8v2.2002c0 15.4004 7.33301 25.667 22 30.7998c2.19922 2.2002 5.86621 8.7998 11 19.7998
c5.86621 10.2666 12.0996 19.4336 18.6992 27.5c8.06738 8.06738 17.6006 12.1006 28.6006 12.1006c13.2002 0 23.0996 -5.13379 29.7002 -15.4004c3.66602 -7.33301 9.16602 -17.5996 16.5 -30.7998c4.39941 -16.1338 6.59961 -31.9004 6.59961 -47.2998
c-1.4668 -46.9336 -2.56641 -70.4004 -3.2998 -70.4004c-0.733398 -2.2002 -1.83398 -4.7666 -3.2998 -7.7002v-1.09961c0 -2.93359 -1.4668 -13.2002 -4.40039 -30.7998c0.733398 -5.13379 1.83301 -15.7666 3.2998 -31.9004c0 -8.7998 -3.66602 -14.2998 -11 -16.5h-5.5
c-5.86621 0 -10.2666 5.86719 -13.2002 17.6006c-2.93262 7.33301 -6.59961 12.833 -11 16.5c-13.9326 0 -24.9326 4.7666 -33 14.2998c-2.93262 5.13281 -5.86621 13.9336 -8.7998 26.3994c-2.2002 5.86719 -11 17.9668 -26.3994 36.3008
c-11 16.8662 -16.5 33 -16.5 48.3994zM212.9 432.1v2.2002c0 2.93359 1.46582 7.33398 4.39941 13.2002v2.2002c-1.4668 12.4668 -2.2002 29.333 -2.2002 50.5996v3.2998c0 30.0674 3.30078 48.0342 9.90039 53.9004c8.7998 12.4668 19.0664 18.7002 30.7998 18.7002
c5.86719 0 13.2002 -2.56641 22 -7.7002c8.7998 -4.40039 17.9668 -8.06641 27.5 -11c2.2002 -2.2002 4.40039 -5.5 6.60059 -9.90039c7.33301 -31.5332 11 -49.1328 11 -52.7998v-6.59961c0 -21.2666 -6.2334 -47.667 -18.7002 -79.2002
c-2.93359 -9.5332 -8.06641 -18.7002 -15.4004 -27.5c-4.39941 -5.13379 -11 -7.7002 -19.7998 -7.7002c-2.93359 -1.4668 -6.2334 -7.33301 -9.90039 -17.5996c-2.93262 -5.86719 -6.59961 -8.7998 -11 -8.7998h-1.09961c-5.13379 0 -8.43359 5.5 -9.90039 16.5
c0 8.06641 -3.66602 18.6992 -11 31.8994c-8.7998 11 -13.1992 23.1006 -13.1992 36.2998zM274.5 640c0 15.4004 3.66699 27.1338 11 35.2002c2.93359 3.66602 8.43359 15.3994 16.5 35.2002c5.86621 11.7334 19.7998 22.3662 41.7998 31.8994
c11.7334 5.13379 23.4668 7.7002 35.2002 7.7002c14.667 0 24.9336 -4.0332 30.7998 -12.0996c6.60059 -3.66699 15.4004 -8.43359 26.4004 -14.3008c10.2666 -7.33301 26.7666 -21.6328 49.5 -42.8994c8.7998 -8.7998 13.2002 -14.2998 13.2002 -16.5
c4.39941 -14.667 6.59961 -23.834 6.59961 -27.5c0 -8.06641 -4.0332 -16.5 -12.0996 -25.2998c-1.4668 -2.93359 -2.2002 -5.13379 -2.2002 -6.60059v-2.2002c0.733398 -2.93262 1.83301 -4.39941 3.2998 -4.39941c16.8662 0 31.167 6.59961 42.9004 19.7998
c12.4658 15.4004 18.6992 30.0664 18.6992 44c0 8.06641 -2.93262 20.5332 -8.7998 37.4004c-1.4668 8.7998 -2.2002 17.9658 -2.2002 27.5c0 16.1328 4.7666 26.0332 14.3008 29.6992c8.7998 6.60059 21.2666 9.90039 37.3994 9.90039c19.0664 0 31.9004 -3.66699 38.5 -11
c11.7334 -11 20.5332 -20.5332 26.4004 -28.5996c10.2666 -13.2002 16.1328 -24.5674 17.5996 -34.1006c5.13379 -25.666 7.7002 -50.2334 7.7002 -73.7002c0 -23.4658 -2.93359 -38.1328 -8.7998 -44c-7.33398 -2.19922 -15.7666 -6.59961 -25.2998 -13.1992
c-18.334 -16.1338 -30.8008 -24.9336 -37.4004 -26.4004c-27.1338 -11 -40.7002 -18.7002 -40.7002 -23.0996c-2.2002 -8.80078 -5.5 -15.4004 -9.89941 -19.8008c-5.86719 -6.59961 -13.5674 -12.833 -23.1006 -18.6992c-5.13281 -5.86719 -12.4668 -9.90039 -22 -12.1006
c-6.59961 -0.733398 -16.8662 -2.2002 -30.7998 -4.39941c-2.93359 2.19922 -9.90039 6.96582 -20.9004 14.2998c-18.333 13.2002 -53.5332 34.4668 -105.6 63.7998c-12.4668 8.7998 -24.2002 17.2334 -35.2002 25.2998c-22 19.0664 -35.9336 33.7334 -41.7998 44
c-7.33301 9.5332 -11 21.2666 -11 35.2002z" />
</svg>
