<?xml version="1.0" standalone="no"?>
<!DOCTYPE svg PUBLIC "-//W3C//DTD SVG 1.1//EN" "http://www.w3.org/Graphics/SVG/1.1/DTD/svg11.dtd" >
<svg xmlns="http://www.w3.org/2000/svg" xmlns:xlink="http://www.w3.org/1999/xlink" version="1.1" viewBox="-10 0 1010 1000">
   <path fill="currentColor"
d="M500 11.7002l487.3 487.3l-487.3 487.3c-81.4004 -80.666 -243.833 -243.1 -487.3 -487.3c80.666 -81.4004 243.1 -243.833 487.3 -487.3zM365.8 467.1c0 43.2666 16.5 81.4004 49.5 114.4c31.5332 27.1338 67.1006 40.7002 106.7 40.7002
c35.9336 0 68.9336 -11.7334 99 -35.2002c37.4004 -33 56.0996 -72.9668 56.0996 -119.9v-1.09961c0 -41.0664 -15.3994 -77.7334 -46.1992 -110c-32.2666 -29.333 -68.9336 -44 -110 -44c-35.9336 0 -68.9336 11.7334 -99 35.2002
c-13.9336 12.4668 -22.7334 21.6328 -26.4004 27.5c-19.7998 29.333 -29.7002 60.1328 -29.7002 92.3994zM159 504.5v6.59961c0 1.4668 5.5 10.2666 16.5 26.4004c10.2666 15.4004 26.0332 34.4668 47.2998 57.2002c24.9336 23.4668 43.2666 39.2334 55 47.2998
c11 7.33301 24.9336 15.7666 41.7998 25.2998c19.8008 11 44.3672 21.6338 73.7002 31.9004c17.6006 5.13281 41.7998 10.2666 72.6006 15.3994c18.333 2.2002 30.4326 3.30078 36.2998 3.30078c62.333 0 119.899 -15.0342 172.7 -45.1006
c19.0664 -11 39.5996 -25.2998 61.5996 -42.8994c10.2666 -8.06738 27.8662 -24.5674 52.7998 -49.5c13.2002 -13.9336 26.7666 -29.334 40.7002 -46.2002c6.59961 -7.33398 9.90039 -11.7334 9.90039 -13.2002v-6.59961c-40.334 -78.4668 -100.467 -136.4 -180.4 -173.801
c22 27.1338 35.9336 52.8008 41.7998 77c4.40039 16.1338 6.60059 31.167 6.60059 45.1006v8.7998c0 35.2002 -11.3672 70.0332 -34.1006 104.5c-13.9336 17.5996 -28.9668 32.2666 -45.0996 44c-33.7334 22 -68.5664 33 -104.5 33h-4.40039
c-49.8662 0 -94.5996 -19.4336 -134.2 -58.2998c-2.19922 -2.2002 -5.86621 -6.2334 -11 -12.1006c-26.3994 -35.9326 -39.5996 -74.4326 -39.5996 -115.5c0 -55.7334 22 -103.399 66 -143c1.4668 -1.46582 4.40039 -3.66602 8.7998 -6.59961
c0.733398 0 1.83398 -0.733398 3.2998 -2.2002v-1.09961c-87.2666 27.8662 -156.199 70.3994 -206.8 127.6c-19.7998 22.7334 -35.5664 43.6338 -47.2998 62.7002zM518.7 375.8h1.09961c23.4668 0 44.3672 8.43359 62.7002 25.2998
c19.7998 19.8008 29.7002 41.8008 29.7002 66v2.2002c0 30.0664 -12.834 55.3672 -38.5 75.9004c-16.8672 11 -35.2002 16.5 -55 16.5c-28.6006 0 -53.167 -12.4668 -73.7002 -37.4004c-12.4668 -17.5996 -18.7002 -35.2002 -18.7002 -52.7998
c14.667 14.667 31.167 22 49.5 22h4.40039c19.7998 0 37.3994 -8.43359 52.7998 -25.2998c9.5332 -12.4668 14.2998 -25.667 14.2998 -39.6006c0 -20.5332 -8.7998 -37.0332 -26.3994 -49.5c-0.733398 -0.733398 -1.4668 -1.83301 -2.2002 -3.2998z" />
</svg>
