<?xml version="1.0" standalone="no"?>
<!DOCTYPE svg PUBLIC "-//W3C//DTD SVG 1.1//EN" "http://www.w3.org/Graphics/SVG/1.1/DTD/svg11.dtd" >
<svg xmlns="http://www.w3.org/2000/svg" xmlns:xlink="http://www.w3.org/1999/xlink" version="1.1" viewBox="-10 0 1010 1000">
   <path fill="currentColor"
d="M500 9.7002l487.3 487.3l-487.3 487.3c-81.4004 -80.666 -243.833 -243.1 -487.3 -487.3c80.666 -81.4004 243.1 -243.833 487.3 -487.3zM340.5 395.8c0.733398 1.4668 2.2002 4.0332 4.40039 7.7002h143c-20.5342 24.9336 -60.5 74.7998 -119.9 149.6
c1.09961 2.2002 1.09961 2.2002 4.40039 8.80078h111.1c-24.9336 36.666 -75.5332 109.633 -151.8 218.899c0.733398 1.4668 2.56641 4.40039 5.5 8.7998h81.3994c0.733398 -1.46582 3.30078 -4.0332 7.7002 -7.69922c41.0664 -49.1338 124.3 -147.4 249.7 -294.801
c-0.733398 -1.46582 -2.2002 -4.7666 -4.40039 -9.89941h-95.6992c22 -25.667 66.3662 -76.6338 133.1 -152.9c0 -1.4668 -1.09961 -4.39941 -3.2998 -8.7998h-132c15.3994 -16.8662 46.9336 -50.5996 94.5996 -101.2c-0.733398 -1.4668 -1.83301 -4.39941 -3.2998 -8.7998
h-215.6c-1.10059 1.09961 -1.10059 1.09961 -5.5 5.5c-17.6006 30.7998 -52.0674 92.4004 -103.4 184.8z" />
</svg>
