<?xml version="1.0" standalone="no"?>
<!DOCTYPE svg PUBLIC "-//W3C//DTD SVG 1.1//EN" "http://www.w3.org/Graphics/SVG/1.1/DTD/svg11.dtd" >
<svg xmlns="http://www.w3.org/2000/svg" xmlns:xlink="http://www.w3.org/1999/xlink" version="1.1" viewBox="-10 0 1010 1000">
   <path fill="currentColor"
d="M500 9.7002l487.3 487.3l-487.3 487.3c-81.4004 -80.666 -243.833 -243.1 -487.3 -487.3c80.666 -81.4004 243.1 -243.833 487.3 -487.3zM445 167c0 10.2666 2.93359 19.4336 8.7998 27.5c1.4668 0 2.93359 0.733398 4.40039 2.2002
c62.333 0 121.366 20.5332 177.1 61.5996c9.5332 6.60059 20.9004 16.5 34.1006 29.7002c25.666 27.8662 45.4658 57.2002 59.3994 88c16.1338 36.667 24.2002 72.2334 24.2002 106.7c0 49.1328 -11 94.9668 -33 137.5c-28.5996 55 -71.8662 93.5 -129.8 115.5
c-35.2002 13.2002 -72.2334 19.7998 -111.101 19.7998h-7.69922c-52.0674 0 -100.834 -19.4336 -146.301 -58.2998c-16.8662 -16.1338 -28.2334 -28.6006 -34.0996 -37.4004c-13.9336 -18.333 -24.5664 -35.5664 -31.9004 -51.7002
c-13.1992 -30.7998 -19.7998 -59.0332 -19.7998 -84.6992c0 -68.2002 22.7334 -122.834 68.2002 -163.9c1.4668 -1.4668 4.0332 -3.2998 7.7002 -5.5c41.7998 -31.5332 92.3994 -47.2998 151.8 -47.2998h7.7002c45.4668 0 85.0664 16.5 118.8 49.5
c34.4668 38.1328 51.7002 86.166 51.7002 144.1v1.10059c0 32.2666 -10.2666 61.5996 -30.7998 88c-9.53418 11.7334 -18.7002 20.8994 -27.5 27.5c-33 23.4658 -69.667 35.1992 -110 35.1992c-27.8672 0 -56.1006 -14.2998 -84.7002 -42.8994
c-26.4004 -30.0664 -39.6006 -56.834 -39.6006 -80.2998c0 -36.667 9.16699 -65.2666 27.5 -85.8008c20.5342 -22 50.6006 -33 90.2002 -33h9.90039c16.1328 0 30.7998 9.53418 44 28.6006c11.7334 16.8662 17.5996 34.4668 17.5996 52.7998
c0 24.2002 -10.2666 42.167 -30.7998 53.9004c-7.33301 2.93262 -13.5664 4.39941 -18.7002 4.39941c-19.7998 0 -31.8994 -3.2998 -36.2998 -9.89941c-1.4668 -3.66699 -2.2002 -7.7002 -2.2002 -12.1006v-4.39941c0 -8.80078 1.83398 -13.2002 5.5 -13.2002
c0 -0.733398 4.7666 -1.10059 14.2998 -1.10059h18.7002c4.40039 0 8.43359 -6.96582 12.1006 -20.8994c1.46582 -2.93359 2.19922 -6.2334 2.19922 -9.90039c0 -9.5332 -2.56641 -19.7998 -7.69922 -30.7998c-0.733398 -0.733398 -2.2002 -1.83301 -4.40039 -3.2998h-22
c-38.8662 0 -64.5332 14.666 -77 44c-4.40039 13.2002 -6.59961 25.666 -6.59961 37.3994c0 34.4668 13.5664 59.7666 40.6992 75.9004c16.1338 8.7998 37.4004 13.2002 63.8008 13.2002c27.8662 0 53.8994 -11.3672 78.0996 -34.1006
c23.4668 -24.1992 35.2002 -53.8994 35.2002 -89.0996c0 -26.4004 -6.9668 -53.167 -20.9004 -80.2998c-25.666 -44 -62.333 -66 -110 -66c-72.5996 0 -125.767 24.2002 -159.5 72.5996c-19.0664 31.5332 -28.5996 67.834 -28.5996 108.9v2.2002
c0 37.3994 16.8662 76.6328 50.5996 117.699c16.8672 18.334 29.334 29.7002 37.4004 34.1006c33.7334 24.2002 67.4668 36.2998 101.2 36.2998c53.5332 0 103.399 -16.5 149.6 -49.5c7.33301 -5.13379 17.5996 -14.2998 30.7998 -27.5
c16.8672 -19.7998 28.6006 -37.7666 35.2002 -53.9004c11 -27.8662 16.5 -55 16.5 -81.3994v-8.7998c0 -44 -10.2666 -87.6338 -30.7998 -130.9c-5.86719 -11.7334 -13.5664 -23.833 -23.1006 -36.2998c-46.9326 -58.667 -108.166 -88 -183.699 -88
c-90.2002 0 -163.534 27.5 -220 82.5c-17.6006 19.0664 -29.7002 35.2002 -36.3008 48.3994c-26.3994 44.7334 -39.5996 94.9668 -39.5996 150.7c0 58.667 20.9004 117.334 62.7002 176c8.7998 11.7334 18.7002 23.1006 29.7002 34.1006c59.3994 58.666 129.066 88 209 88
c61.5996 0 118.8 -13.2002 171.6 -39.6006c0.733398 -0.733398 5.13379 -3.2998 13.2002 -7.7002c60.8662 -36.666 104.866 -89.833 132 -159.5c16.1328 -43.2666 24.2002 -86.8994 24.2002 -130.899c0 -46.9336 -11.3672 -94.2334 -34.1006 -141.9
c-8.06641 -16.1328 -16.1328 -30.4336 -24.2002 -42.8994c-9.5332 -14.667 -22 -30.8008 -37.3994 -48.4004c-24.9336 -25.667 -41.7998 -40.7002 -50.6006 -45.0996c-16.8662 -13.2002 -35.5664 -24.9336 -56.0996 -35.2002
c-51.333 -24.9336 -102.667 -37.4004 -154 -37.4004h-4.40039c-2.93262 1.4668 -4.39941 3.66699 -4.39941 6.60059c-5.13379 9.5332 -7.7002 19.0664 -7.7002 28.5996z" />
</svg>
