<?xml version="1.0" standalone="no"?>
<!DOCTYPE svg PUBLIC "-//W3C//DTD SVG 1.1//EN" "http://www.w3.org/Graphics/SVG/1.1/DTD/svg11.dtd" >
<svg xmlns="http://www.w3.org/2000/svg" xmlns:xlink="http://www.w3.org/1999/xlink" version="1.1" viewBox="-10 0 1010 1000">
   <path fill="currentColor"
d="M500 9.7002l487.3 487.3l-487.3 487.3c-81.4004 -80.666 -243.833 -243.1 -487.3 -487.3c80.666 -81.4004 243.1 -243.833 487.3 -487.3zM698 266c-2.2002 3.66699 -20.167 26.0332 -53.9004 67.0996c0.733398 0 1.10059 0.367188 1.10059 1.10059h23.0996v125.399
c-34.0996 16.5 -34.0996 16.5 -136.399 66v-178.199h22c0.733398 0 1.09961 -0.733398 1.09961 -2.2002c-12.4668 -14.667 -30.4336 -36.2998 -53.9004 -64.9004h-1.09961c-34.4668 41.0664 -52.4336 63.0664 -53.9004 66l1.10059 1.10059h23.0996v179.3
c-23.4668 -11 -69.666 -33.3672 -138.6 -67.1006v-124.3h22c0.733398 -0.733398 1.09961 -1.4668 1.09961 -2.2002c-8.7998 -11 -26.7666 -33 -53.8994 -66h-1.10059c-8.7998 11 -26.7666 33 -53.8994 66l1.09961 2.2002h22c0.733398 16.8672 1.09961 50.9668 1.09961 102.3
v50.6006c0 1.4668 66.7334 35.9336 200.2 103.399v304.7l1.10059 1.10059c9.5332 0 28.9658 -0.367188 58.2998 -1.10059l2.2002 -1.09961v-303.601c0 -0.733398 65.2666 -34.4658 195.8 -101.199c0 -0.733398 0.733398 -1.4668 2.2002 -2.2002v-154h23.0996
c0 -0.733398 0.366211 -1.10059 1.09961 -1.10059c-34.4658 -43.2666 -52.4326 -65.6328 -53.8994 -67.0996h-2.2002z" />
</svg>
