<?xml version="1.0" standalone="no"?>
<!DOCTYPE svg PUBLIC "-//W3C//DTD SVG 1.1//EN" "http://www.w3.org/Graphics/SVG/1.1/DTD/svg11.dtd" >
<svg xmlns="http://www.w3.org/2000/svg" xmlns:xlink="http://www.w3.org/1999/xlink" version="1.1" viewBox="-10 0 1010 1000">
   <path fill="currentColor"
d="M500 9.7002l487.3 487.3l-487.3 487.3c-81.4004 -80.666 -243.833 -243.1 -487.3 -487.3c80.666 -81.4004 243.1 -243.833 487.3 -487.3zM360.3 197.8h1.10059h3.2998c7.33301 0 22 0.733398 44 2.2002h1.09961v27.5c-6.59961 0 -19.7998 -0.366211 -39.5996 -1.09961
c0 -0.733398 -0.733398 -1.10059 -2.2002 -1.10059c0 5.13379 -1.4668 11 -4.40039 17.6006c-2.93262 4.39941 -6.96582 8.06641 -12.0996 11v3.2998c0 3.66602 6.59961 5.86621 19.7998 6.59961h3.2998c11.7334 0 22 -1.83301 30.8008 -5.5
c2.93262 5.86719 7.33301 14.2998 13.1992 25.2998c-6.59961 3.66699 -15.7666 5.86719 -27.5 6.60059c0 0.733398 -4.39941 1.4668 -13.1992 2.2002c-1.4668 3.66602 -2.93359 8.43262 -4.40039 14.2998c24.9336 21.2666 44 31.8994 57.2002 31.8994v26.4004h-3.2998
c-5.13379 0 -9.90039 -0.733398 -14.3008 -2.2002c-16.8662 15.4004 -25.2998 25.667 -25.2998 30.7998h-27.5c0 -13.1992 8.7998 -27.5 26.4004 -42.8994c-7.33398 -5.13379 -17.2334 -12.4668 -29.7002 -22c-7.33301 5.86621 -19.0664 12.0996 -35.2002 18.7002
c-8.06641 4.39941 -15.0332 9.16602 -20.8994 14.2998l-18.7002 -18.7002c9.5332 -9.5332 23.4668 -18.333 41.7998 -26.4004c12.4668 -5.13281 19.7998 -10.6328 22 -16.5c2.93359 -5.13281 4.40039 -8.7998 4.40039 -11h-1.10059
c-16.8662 -6.59961 -25.2998 -17.2334 -25.2998 -31.8994v-2.2002c0 -11.7334 5.5 -20.5332 16.5 -26.4004c1.4668 -10.2666 3.2998 -17.2334 5.5 -20.8994c1.09961 -1.10059 1.09961 -1.10059 2.2002 -2.2002c-11 5.86621 -24.9336 16.8662 -41.7998 33
c-16.1338 17.5996 -28.9668 35.2002 -38.5 52.7998c-11.7334 19.0664 -21.6338 38.5 -29.7002 58.2998v1.10059c0 41.7998 0.366211 125.033 1.09961 249.7c4.40039 -3.66699 12.834 -6.9668 25.2998 -9.90039c11.7334 -1.4668 17.6006 -2.93359 17.6006 -4.40039
c1.4668 -9.5332 3.2998 -14.2998 5.5 -14.2998c0 -0.733398 2.93359 -1.4668 8.7998 -2.2002h4.40039c9.5332 0 21.2666 3.30078 35.1992 9.90039v-16.5v-3.2998c1.4668 0 2.56738 -0.733398 3.30078 -2.2002c-11.7334 -5.13379 -21.2666 -13.9336 -28.6006 -26.4004
c-5.13281 -11 -7.7002 -22 -7.7002 -33v-3.2998h27.5c0 19.0664 6.2334 31.5332 18.7002 37.4004c5.13379 1.4668 10.2666 2.2002 15.4004 2.2002c6.59961 -3.66699 16.1328 -8.06738 28.5996 -13.2002c7.33398 -5.86719 12.1006 -11.7334 14.2998 -17.6006
c7.33398 -13.9326 13.9336 -24.1992 19.8008 -30.7998c5.13281 3.66699 12.4658 8.7998 22 15.4004c-5.86719 8.06641 -13.2002 19.4336 -22 34.0996c8.7998 2.93359 15.0332 8.06641 18.6992 15.4004c2.2002 4.39941 4.7666 10.6328 7.7002 18.7002h3.2998v8.7998
c1.4668 -1.4668 4.7666 -3.2998 9.90039 -5.5c0 0.733398 0.366211 1.83301 1.09961 3.2998c0 0.733398 -3.66602 7.7002 -11 20.9004c-15.3994 0 -25.666 -7.7002 -30.7998 -23.1006c-2.2002 -8.06641 -4.7666 -12.0996 -7.7002 -12.0996h-4.39941
c-3.66699 0 -12.1006 2.56641 -25.2998 7.7002c-2.93359 0.733398 -8.06738 2.19922 -15.4004 4.39941l-15.4004 15.4004c-5.86621 5.86621 -10.2666 9.16602 -13.1992 9.89941c8.7998 7.33398 21.2666 15.0342 37.3994 23.1006c9.5332 5.13281 18.7002 12.833 27.5 23.0996
c2.93359 5.13379 4.40039 10.6338 4.40039 16.5c0 9.5332 -3.2998 17.9668 -9.90039 25.2998c-0.733398 -0.733398 -2.2002 -2.56641 -4.39941 -5.5v1.10059c0.733398 0.733398 2.19922 2.56641 4.39941 5.5c-15.3994 16.1328 -25.2998 28.2334 -29.7002 36.2998
c-2.93262 5.13379 -7.69922 15.0332 -14.2998 29.7002c-9.5332 9.5332 -18.7002 14.2998 -27.5 14.2998c11 13.2002 23.4668 25.2998 37.4004 36.2998c26.3994 22.7334 48.3994 38.5 66 47.2998c14.666 9.53418 30.4336 18.7002 47.2998 27.5h1.09961h1.10059v-1.09961
c1.4668 -132.733 2.2002 -275.366 2.2002 -427.9c0 -110 -0.367188 -193.966 -1.10059 -251.899c-19.0664 -3.66699 -34.833 -5.5 -47.2998 -5.5c-28.5996 0 -54.6338 5.86621 -78.0996 17.5996h-1.10059zM514.3 187.9c0 34.4658 0.367188 104.133 1.10059 209
c3.66602 -1.4668 11 -3.66699 22 -6.60059c1.46582 0 5.13281 -0.366211 11 -1.09961c19.0664 0 35.9326 14.666 50.5996 44c4.40039 8.7998 7.7002 13.5664 9.90039 14.2998h6.59961c11 0 18.7002 -4.40039 23.0996 -13.2002
c2.2002 -2.93359 5.13379 -7.33301 8.80078 -13.2002c0.733398 -2.19922 3.2998 -6.59961 7.69922 -13.1992c-3.66602 -1.4668 -16.1328 -3.30078 -37.3994 -5.5c-8.7998 -2.2002 -15.7666 -6.2334 -20.9004 -12.1006c-9.5332 -12.4668 -15.7666 -18.7002 -18.7002 -18.7002
c-12.4658 -4.39941 -20.166 -6.96582 -23.0996 -7.69922c-2.2002 -0.733398 -3.66699 -2.56738 -4.40039 -5.5v-8.80078c2.93359 -2.93262 9.16699 -7.33301 18.7002 -13.1992c2.2002 -4.40039 3.2998 -8.06738 3.2998 -11v-3.30078
c0 -7.33301 -4.7666 -19.7998 -14.2998 -37.3994c-2.93359 -5.86719 -4.39941 -11.7334 -4.39941 -17.6006v-3.2998c0 -10.2666 7.69922 -22.7334 23.0996 -37.3994c11.7334 -13.2002 18.7002 -24.5674 20.9004 -34.1006c0 -2.2002 1.09961 -5.13281 3.2998 -8.7998
c-13.2002 -2.2002 -25.2998 -3.2998 -36.2998 -3.2998c-15.4004 0 -32.2666 2.56641 -50.6006 7.7002zM673.8 303.4c0 7.33301 4.40039 24.1992 13.2002 50.5996c1.4668 5.86621 3.2998 19.4336 5.5 40.7002c11.7334 0 21.2666 4.39941 28.5996 13.2002
c3.66699 5.86621 5.5 14.666 5.5 26.3994v1.10059v20.8994h-26.3994v-13.2002v-8.7998c0 -8.7998 -1.4668 -13.2002 -4.40039 -13.2002h-9.89941c-5.13379 0 -7.7002 0.733398 -7.7002 2.2002c-3.66699 4.40039 -9.16699 13.5664 -16.5 27.5
c-10.2666 16.1338 -25.2998 24.2002 -45.1006 24.2002c-16.1328 0 -26.7666 -4.7666 -31.8994 -14.2998c-3.66699 -4.40039 -10.2666 -14.667 -19.7998 -30.7998c-5.86719 -9.53418 -11 -14.3008 -15.4004 -14.3008c-2.93359 0 -9.16699 1.83398 -18.7002 5.5
c-3.66602 0.733398 -8.7998 2.2002 -15.3994 4.40039c0 157.667 -1.10059 303.233 -3.30078 436.7c1.4668 1.4668 4.03418 2.93359 7.7002 4.39941c21.2666 -13.1992 45.834 -30.7998 73.7002 -52.7998c35.9336 -29.333 68.2002 -61.5996 96.7998 -96.7998
c22 -29.333 42.167 -59.0332 60.5 -89.0996c10.2666 -17.6006 15.4004 -27.1338 15.4004 -28.6006v-1.09961v-246.4c-8.7998 -25.666 -20.5332 -48.7666 -35.2002 -69.2998c-5.86621 5.13379 -11 7.7002 -15.4004 7.7002c-4.39941 1.4668 -15.0332 2.56641 -31.8994 3.2998
c-6.60059 0.733398 -9.90039 3.2998 -9.90039 7.7002v2.2002zM453.8 384.8h3.2998c4.40039 0 11.7334 1.4668 22 4.40039c0.733398 0 1.4668 0.366211 2.2002 1.09961v26.4004h-1.09961c-3.66699 0 -10.6338 -1.4668 -20.9004 -4.40039h-4.39941
c-10.2666 0 -19.4336 10.2666 -27.5 30.7998c-8.06738 17.6006 -18.334 28.9668 -30.8008 34.1006c-6.59961 1.4668 -12.833 2.2002 -18.6992 2.2002c-19.0674 0 -33 -6.60059 -41.8008 -19.8008c-3.66602 -7.33301 -5.5 -20.166 -5.5 -38.5
c0 -2.19922 -3.2998 -3.66602 -9.89941 -4.39941h-2.2002c-4.40039 0 -8.7998 2.56641 -13.2002 7.7002c-10.2666 8.7998 -15.3994 14.2998 -15.3994 16.5c-1.4668 3.66602 -2.2002 8.06641 -2.2002 13.1992v3.30078h-27.5v-3.30078
c0 -20.5332 8.06641 -36.2998 24.2002 -47.2998c9.5332 -8.7998 16.1328 -13.9336 19.7998 -15.3994c5.13281 -0.733398 10.6328 -1.10059 16.5 -1.10059c13.9336 0 24.5664 4.7666 31.8994 14.2998c3.66699 4.40039 5.5 15.7666 5.5 34.1006
c1.4668 6.59961 2.93359 9.89941 4.40039 9.89941c4.40039 2.2002 9.5332 3.30078 15.4004 3.30078c11.7334 0 19.4326 -5.86719 23.0996 -17.6006c7.33301 -14.666 12.833 -24.9336 16.5 -30.7998c11.7334 -12.4668 23.833 -18.7002 36.2998 -18.7002zM568.2 464
c20.5332 11.7334 30.7998 24.2002 30.7998 37.4004v4.39941c-0.733398 1.4668 -1.09961 4.40039 -1.09961 8.7998c4.39941 0 12.4658 4.03418 24.1992 12.1006c13.9336 10.2666 22.7334 15.3994 26.4004 15.3994h1.09961c0.733398 -0.733398 4.40039 -5.86621 11 -15.3994
c2.93359 -0.733398 4.40039 -3.66699 4.40039 -8.7998c2.93359 -8.80078 4.40039 -15.0342 4.40039 -18.7002v-3.2998h26.3994v2.19922c0 7.33398 -1.4668 15.7666 -4.39941 25.3008c0 6.59961 -2.2002 13.1992 -6.60059 19.7998
c-4.39941 2.93359 -8.06641 7.33301 -11 13.2002c-6.59961 8.7998 -13.9336 13.1992 -22 13.1992h-3.2998c-10.2666 0 -23.833 -6.96582 -40.7002 -20.8994c-8.06641 -5.13379 -14.2998 -7.7002 -18.7002 -7.7002c-5.13281 0 -8.06641 1.4668 -8.7998 4.40039
c-4.39941 13.9326 -6.9668 20.8994 -7.7002 20.8994l-24.1992 -9.89941c5.13281 -19.8008 10.6328 -31.5342 16.5 -35.2002c4.39941 -8.7998 6.59961 -14.2998 6.59961 -16.5c0 -5.13379 -6.59961 -11.3672 -19.7998 -18.7002v-1.09961
c2.93359 -3.66699 8.43359 -10.6338 16.5 -20.9004zM698 580.6c4.40039 16.8672 11 28.2334 19.7998 34.1006c3.66699 2.93359 9.16699 7.7002 16.5 14.2998c-1.4668 0.733398 -3.66602 2.93359 -6.59961 6.59961c1.4668 0.733398 3.2998 2.56738 5.5 5.5
c-3.66699 3.66699 -13.5664 8.43359 -29.7002 14.3008c-19.0664 10.2666 -33.3662 15.3994 -42.9004 15.3994h-4.39941c-4.40039 0 -9.90039 -1.4668 -16.5 -4.39941c-3.66699 13.1992 -13.9336 25.2998 -30.7998 36.2998c-7.33398 3.66602 -11 5.86621 -11 6.59961
c2.19922 7.33398 3.2998 14.2998 3.2998 20.9004c0 22 -12.834 39.5996 -38.5 52.7998c-3.2998 -6.59961 -3.2998 -6.59961 -12.1006 -24.2002c15.4004 -8.06641 23.1006 -17.5996 23.1006 -28.5996v-1.10059c0 -9.5332 -5.86719 -20.166 -17.6006 -31.8994
c4.40039 -4.40039 11 -10.6338 19.8008 -18.7002c2.19922 2.2002 2.19922 2.2002 6.59961 6.59961c22.7334 -9.5332 34.0996 -21.6328 34.0996 -36.2998c-1.46582 -7.33301 -2.93262 -17.9668 -4.39941 -31.8994v-2.2002h26.3994c0.733398 0 1.4668 0.733398 2.2002 2.2002
c4.40039 17.5996 9.5332 26.3994 15.4004 26.3994h4.39941c4.40039 0 13.2002 -2.93359 26.4004 -8.7998c5.13379 -2.2002 7.7002 -3.66699 7.7002 -4.40039c-10.2666 -8.7998 -17.9668 -22.7334 -23.1006 -41.7998v-1.09961
c4.40039 -0.733398 13.2002 -2.93359 26.4004 -6.60059zM430.7 678.5c2.2002 3.66699 6.2334 11.7334 12.0996 24.2002c-8.06641 3.66602 -12.0996 9.5332 -12.0996 17.5996v4.40039c0 11.7334 5.13281 23.833 15.3994 36.2998
c-4.39941 4.40039 -10.6328 11 -18.6992 19.7998c-8.80078 -8.7998 -14.3008 -16.8662 -16.5 -24.2002c-5.86719 -10.2666 -8.80078 -20.8994 -8.80078 -31.8994v-4.40039c0 -17.5996 8.43359 -31.166 25.3008 -40.7002
c0.733398 -0.733398 1.46582 -1.09961 2.19922 -1.09961s1.10059 -0.366211 1.10059 -1.09961v1.09961z" />
</svg>
