<?xml version="1.0" standalone="no"?>
<!DOCTYPE svg PUBLIC "-//W3C//DTD SVG 1.1//EN" "http://www.w3.org/Graphics/SVG/1.1/DTD/svg11.dtd" >
<svg xmlns="http://www.w3.org/2000/svg" xmlns:xlink="http://www.w3.org/1999/xlink" version="1.1" viewBox="-10 0 1010 1000">
   <path fill="currentColor"
d="M500 9.7002l487.3 487.3l-487.3 487.3c-81.4004 -80.666 -243.833 -243.1 -487.3 -487.3c80.666 -81.4004 243.1 -243.833 487.3 -487.3zM348.2 277c-9.5332 2.2002 -19.0664 8.43359 -28.6006 18.7002c-7.33301 11.7334 -11 27.5 -11 47.2998
s2.93359 35.9336 8.80078 48.4004h369.6c5.86621 -16.8672 8.7998 -31.9004 8.7998 -45.1006c0 -38.1328 -12.0996 -60.5 -36.2998 -67.0996c-2.2002 -0.733398 -5.86621 -1.4668 -11 -2.2002h-300.3zM101.8 437.6c-2.2002 2.2002 -2.2002 2.2002 -6.59961 6.60059v113.3
c0.733398 1.4668 2.93359 3.66699 6.59961 6.59961h303.601c5.86621 0 16.1328 -6.59961 30.7998 -19.7998c11.7334 -13.9336 17.9668 -27.1328 18.7002 -39.5996c-1.4668 -11.7334 -8.80078 -24.9336 -22 -39.6006c-12.4668 -11.7334 -25.3008 -20.8994 -38.5 -27.5
h-292.601zM544 498.1c1.4668 9.53418 6.2334 20.9004 14.2998 34.1006c9.5332 11 17.2334 17.9668 23.1006 20.8994c11.7334 7.33398 20.8994 11 27.5 11h289.3c0.733398 -0.733398 2.56641 -1.46582 5.5 -2.19922v-114.4c-0.733398 -2.2002 -2.56641 -5.5 -5.5 -9.90039
h-302.5c-3.66699 1.4668 -12.1006 7.33398 -25.2998 17.6006c-13.2002 10.2666 -22 24.5664 -26.4004 42.8994zM321.8 602.6c-4.39941 2.93359 -6.59961 5.5 -6.59961 7.7002c-1.4668 15.4004 -2.2002 27.1338 -2.2002 35.2002c0 35.2002 8.7998 57.2002 26.4004 66
c6.59961 3.66699 12.833 5.5 18.6992 5.5h302.5c8.80078 -2.2002 17.6006 -7.33301 26.4004 -15.4004c8.7998 -11.7334 13.2002 -28.5996 13.2002 -50.5996v-9.90039c0 -12.4658 -2.93359 -25.2998 -8.7998 -38.5h-369.601z" />
</svg>
