<?xml version="1.0" standalone="no"?>
<!DOCTYPE svg PUBLIC "-//W3C//DTD SVG 1.1//EN" "http://www.w3.org/Graphics/SVG/1.1/DTD/svg11.dtd" >
<svg xmlns="http://www.w3.org/2000/svg" xmlns:xlink="http://www.w3.org/1999/xlink" version="1.1" viewBox="-10 0 1010 1000">
   <path fill="currentColor"
d="M500 9.7002l487.3 487.3l-487.3 487.3c-81.4004 -80.666 -243.833 -243.1 -487.3 -487.3c80.666 -81.4004 243.1 -243.833 487.3 -487.3zM511 69.0996c-19.0664 33.7334 -56.833 100.101 -113.3 199.101h-1.10059c28.6006 46.9336 85.8008 140.434 171.601 280.5
c24.2002 -23.4668 72.2334 -70.4004 144.1 -140.8c-33.7334 -56.4668 -100.833 -169.4 -201.3 -338.801zM69.9004 497c71.1328 71.1338 213.767 214.134 427.899 429l390.5 -390.5c-1.4668 -0.733398 -19.0664 -21.6338 -52.7998 -62.7002
c-34.4668 -41.0664 -52.7998 -63.7998 -55 -68.2002c-49.1338 49.1338 -122.833 122.101 -221.1 218.9c-22.7334 -37.4004 -68.5674 -112.934 -137.5 -226.6c-16.1338 -26.4004 -48.0342 -78.4668 -95.7002 -156.2c-43.2666 42.5332 -128.7 127.967 -256.3 256.3z" />
</svg>
