<?xml version="1.0" standalone="no"?>
<!DOCTYPE svg PUBLIC "-//W3C//DTD SVG 1.1//EN" "http://www.w3.org/Graphics/SVG/1.1/DTD/svg11.dtd" >
<svg xmlns="http://www.w3.org/2000/svg" xmlns:xlink="http://www.w3.org/1999/xlink" version="1.1" viewBox="-10 0 1010 1000">
   <path fill="currentColor"
d="M500 15.7002l487.3 487.3l-487.3 487.3c-81.4004 -80.666 -243.833 -243.1 -487.3 -487.3c80.666 -81.4004 243.1 -243.833 487.3 -487.3zM630.9 489.8l13.1992 -41.7998c8.06738 -27.8662 17.9668 -59.7666 29.7002 -95.7002c7.33398 -24.2002 14.667 -48.0332 22 -71.5
c7.33398 -24.2002 13.9336 -45.4668 19.7998 -63.7998l-34.0996 25.2998c-22.7334 16.8672 -48.4004 35.9336 -77 57.2002c-19.7998 14.667 -39.2334 29.333 -58.2998 44c-19.7998 13.9336 -37.0332 26.4004 -51.7002 37.4004l-34.0996 -25.3008
c-22.7334 -16.8662 -48.7666 -36.2998 -78.1006 -58.2998c-19.7998 -14.666 -39.2334 -29.333 -58.2998 -44c-19.7998 -13.9336 -37.0332 -26.3994 -51.7002 -37.3994l13.2002 40.6992c8.06641 27.8672 17.9668 59.7666 29.7002 95.7002
c7.33301 23.4668 14.666 47.2998 22 71.5c7.33301 23.4668 13.9336 44.3672 19.7998 62.7002l-34.0996 26.4004c-22.7334 16.8662 -48.7666 36.666 -78.1006 59.3994c-19.7998 14.667 -39.2334 29.334 -58.2998 44c-19.7998 15.4004 -37.0332 28.6006 -51.7002 39.6006
l41.7998 1.09961c28.6006 0 60.8672 0.366211 96.8008 1.09961c24.9326 0.733398 49.5 1.10059 73.6992 1.10059c24.2002 0.733398 45.4668 1.09961 63.8008 1.09961l13.1992 41.7998c8.06738 27.1338 17.6006 58.3008 28.6006 93.5l22 70.4004
c7.33301 24.2002 13.9336 45.0996 19.7998 62.7002l13.2002 -40.7002c8.06641 -27.1338 17.5996 -57.9336 28.5996 -92.4004c11 -35.1992 11 -35.1992 22 -70.3994c6.60059 -23.4668 12.834 -44 18.7002 -61.6006l42.9004 1.10059
c27.8662 0 60.1328 0.366211 96.7998 1.09961c24.9336 0.733398 49.5 1.10059 73.7002 1.10059c24.1992 0.733398 45.4658 1.09961 63.7998 1.09961l-34.1006 -26.4004c-22.7334 -18.333 -48.7666 -39.2334 -78.0996 -62.6992
c-19.7998 -16.1338 -39.5996 -31.9004 -59.4004 -47.3008c-19.7998 -16.1328 -37.0332 -30.0664 -51.6992 -41.7998zM647.4 305c-8.06738 5.86621 -17.2334 12.833 -27.5 20.9004c-10.2666 8.06641 -20.9004 16.1328 -31.9004 24.1992
c-15.4004 12.4668 -29.333 23.4668 -41.7998 33l-17.6006 14.3008c14.667 4.39941 28.2334 11.3662 40.7002 20.8994c12.4668 8.7998 23.1006 19.7998 31.9004 33c6.59961 -22 12.4668 -40.7002 17.5996 -56.0996c5.13379 -16.1338 9.5332 -29.334 13.2002 -39.6006
c7.33301 -25.666 11.7334 -40.6992 13.2002 -45.0996zM493.4 433.7c-24.9336 0 -46.2002 9.16602 -63.8008 27.5c-17.5996 18.333 -26.3994 40.333 -26.3994 66c0 12.4668 1.83301 24.2002 5.5 35.2002c4.39941 11 10.2666 20.8994 17.5996 29.6992
c39.6006 -59.3994 39.6006 -59.3994 46.2002 -69.2998l6.59961 -8.7998c5.86719 3.66699 12.834 8.7998 20.9004 15.4004l13.2002 8.7998c-8.7998 13.2002 -19.4336 29.7002 -31.9004 49.5l-19.7998 28.5996c5.13379 2.2002 10.2666 3.66699 15.4004 4.40039
c5.13281 0.733398 10.6328 1.09961 16.5 1.09961c24.1992 0 45.0996 -9.16602 62.6992 -27.5c17.6006 -18.333 26.4004 -40.7002 26.4004 -67.0996c0 -25.667 -8.7998 -47.667 -26.4004 -66c-17.5996 -18.334 -38.5 -27.5 -62.6992 -27.5zM753 621.8
c-13.2002 -9.89941 -13.2002 -9.89941 -30.7998 -23.0996c-11 -9.5332 -22.3672 -18.7002 -34.1006 -27.5c-16.8662 -13.9336 -31.8994 -26.0332 -45.0996 -36.2998l-19.7998 -16.5v5.5v4.39941c0 17.6006 -2.93359 34.1006 -8.7998 49.5
c-5.86719 15.4004 -13.9336 29.334 -24.2002 41.7998c24.9336 0 45.833 0.367188 62.7002 1.10059c17.5996 0 32.2666 0.366211 44 1.09961h48.3994h7.7002zM491.2 801.1c2.93359 -9.5332 6.2334 -20.5332 9.89941 -33c4.40039 -13.1992 8.43359 -26.0332 12.1006 -38.5
c5.86621 -19.0664 11.3662 -35.9326 16.5 -50.5996l6.59961 -20.9004c-6.59961 2.2002 -13.5664 4.03418 -20.8994 5.5c-7.33398 0.733398 -14.667 1.10059 -22 1.10059c-8.06738 0 -16.1338 -0.733398 -24.2002 -2.2002s-15.4004 -3.66699 -22 -6.59961
c6.59961 21.2666 12.0996 39.9658 16.5 56.0996c5.13281 15.4004 9.16602 28.2334 12.0996 38.5c7.33398 24.9336 11.7334 39.5996 13.2002 44zM338.3 302.8c2.93359 10.2666 6.60059 22 11 35.2002c3.66699 13.2002 7.7002 26.4004 12.1006 39.5996
c5.86621 20.5342 11.3662 38.5 16.5 53.9004l6.59961 23.0996c9.5332 -14.666 20.9004 -27.1328 34.0996 -37.3994c13.9336 -10.2666 28.9668 -17.6006 45.1006 -22c-18.334 -13.2002 -34.1006 -24.9336 -47.2998 -35.2002
c-13.9336 -9.5332 -25.667 -17.9668 -35.2002 -25.2998c-21.2666 -16.1338 -33.7334 -25.2998 -37.4004 -27.5zM248.1 613c10.2666 0.733398 21.6338 1.09961 34.1006 1.09961h38.5c19.0664 0.733398 35.9336 1.10059 50.5996 1.10059l23.1006 1.09961
c-9.53418 -11.7334 -17.2334 -25.2998 -23.1006 -40.7002c-5.13281 -14.666 -7.7002 -30.4326 -7.7002 -47.2998v-2.2002v-3.2998c-16.8662 13.9336 -31.5332 25.667 -44 35.2002c-12.4658 9.5332 -23.0996 17.5996 -31.8994 24.2002
c-19.7998 15.3994 -31.167 24.5664 -34.1006 27.5z" />
</svg>
