<?xml version="1.0" standalone="no"?>
<!DOCTYPE svg PUBLIC "-//W3C//DTD SVG 1.1//EN" "http://www.w3.org/Graphics/SVG/1.1/DTD/svg11.dtd" >
<svg xmlns="http://www.w3.org/2000/svg" xmlns:xlink="http://www.w3.org/1999/xlink" version="1.1" viewBox="-10 0 1010 1000">
   <path fill="currentColor"
d="M500 9.7002l487.3 487.3l-487.3 487.3c-81.4004 -80.666 -243.833 -243.1 -487.3 -487.3c80.666 -81.4004 243.1 -243.833 487.3 -487.3zM453.8 138.4c1.4668 10.2666 2.93359 15.3994 4.40039 15.3994c18.333 8.06641 47.666 27.5 88 58.2998
c26.3994 21.2666 54.2666 45.1006 83.5996 71.5c42.5332 39.6006 77.7334 75.167 105.601 106.7c37.3994 41.7998 64.8994 75.9004 82.5 102.3c8.7998 13.2002 17.9658 27.5 27.5 42.9004h7.69922c16.1338 0 28.2334 -8.7998 36.3008 -26.4004
c-4.40039 -6.59961 -11 -16.8662 -19.8008 -30.7998c-16.8662 -26.3994 -43.6328 -60.5 -80.2998 -102.3c-15.3994 -19.0664 -38.1328 -44 -68.2002 -74.7998c-45.4658 -44.7334 -78.0996 -75.167 -97.8994 -91.2998c-52.0664 -44.7334 -92.7666 -75.167 -122.101 -91.3008
c-4.39941 -2.19922 -11 -5.86621 -19.7998 -11c-18.333 6.60059 -27.5 16.8672 -27.5 30.8008zM393.3 324.3c1.4668 11 3.66699 16.5 6.60059 16.5c23.4658 11.7334 49.1328 27.1338 77 46.2002c16.8662 11.7334 36.2998 27.5 58.2998 47.2998
c27.8662 28.6006 46.2002 48.4004 55 59.4004c26.3994 32.2666 48.3994 63.7998 66 94.5996c3.66602 8.06641 6.2334 12.1006 7.7002 12.1006c21.2666 0 35.1992 -8.43359 41.7998 -25.3008c-17.6006 -33 -41.4336 -68.5664 -71.5 -106.699
c-10.2666 -13.9336 -29.334 -35.2002 -57.2002 -63.8008c-35.2002 -33 -63.7998 -56.0996 -85.7998 -69.2998c-24.9336 -16.8662 -49.1338 -30.7998 -72.6006 -41.7998c-16.8662 5.86621 -25.2998 16.1338 -25.2998 30.7998zM320.7 509.1
c13.2002 6.60059 27.5 15.4004 42.8994 26.4004c13.2002 8.7998 32.2666 25.2998 57.2002 49.5c25.667 27.8662 44.3672 50.5996 56.1006 68.2002c4.39941 5.13281 10.2666 12.833 17.5996 23.0996h4.40039c14.666 0 26.3994 -6.9668 35.1992 -20.8994
c0.733398 -1.4668 1.83398 -3.30078 3.30078 -5.5c-15.4004 -24.2002 -35.9336 -50.9668 -61.6006 -80.3008c-23.4668 -24.9326 -40.333 -41.7998 -50.5996 -50.5996c-22 -18.333 -41.0664 -31.9004 -57.2002 -40.7002
c-5.86621 -3.66602 -14.2998 -8.43359 -25.2998 -14.2998c-8.06641 3.66699 -14.2998 11 -18.7002 22c-2.93359 7.33301 -4.40039 14.2998 -4.40039 20.9004v1.09961v1.09961h1.10059zM238.2 673v2.2002c11 7.33301 21.6328 16.1328 31.8994 26.3994
c18.334 17.6006 30.0674 30.8008 35.2002 39.6006c5.13379 5.13281 9.5332 11.3662 13.2002 18.7002h8.7998c16.1338 0 27.5 -9.53418 34.1006 -28.6006c-29.334 -44.7334 -61.6006 -77.7334 -96.8008 -99c-17.5996 8.7998 -26.3994 22.3672 -26.3994 40.7002z" />
</svg>
