<?xml version="1.0" standalone="no"?>
<!DOCTYPE svg PUBLIC "-//W3C//DTD SVG 1.1//EN" "http://www.w3.org/Graphics/SVG/1.1/DTD/svg11.dtd" >
<svg xmlns="http://www.w3.org/2000/svg" xmlns:xlink="http://www.w3.org/1999/xlink" version="1.1" viewBox="-10 0 1010 1000">
   <path fill="currentColor"
d="M500 9.7002l487.3 487.3l-487.3 487.3c-81.4004 -80.666 -243.833 -243.1 -487.3 -487.3c80.666 -81.4004 243.1 -243.833 487.3 -487.3zM241.5 281.4v55c16.8662 19.0664 50.9668 56.4658 102.3 112.199c6.60059 -27.8662 19.4336 -51.6992 38.5 -71.5
c33 -33 71.8672 -49.5 116.601 -49.5c43.2666 0 81.0332 16.1338 113.3 48.4004c15.3994 16.1338 26.7666 32.6338 34.0996 49.5c5.13379 14.667 7.7002 24.2002 7.7002 28.5996c22.7334 -25.666 57.2002 -64.5332 103.4 -116.6v-56.0996h-515.9zM388.9 376
c4.39941 1.4668 12.833 5.13379 25.2998 11c11.7334 -8.06641 21.6328 -13.9336 29.7002 -17.5996v-1.10059v-16.5c1.46582 2.2002 4.7666 6.60059 9.89941 13.2002c8.7998 -3.66699 20.167 -6.2334 34.1006 -7.7002l9.89941 -26.3994h-4.39941
c-29.334 0 -58.3008 9.5332 -86.9004 28.5996c-6.59961 5.86621 -12.4668 11.3662 -17.5996 16.5zM500 330.9c5.13379 17.5996 8.43359 26.7666 9.90039 27.5c6.59961 0 17.5996 2.19922 33 6.59961c2.19922 -2.93359 5.86621 -7.33301 11 -13.2002
c-0.733398 2.93359 -1.4668 8.7998 -2.2002 17.6006c10.2666 4.39941 20.166 10.2666 29.7002 17.5996c5.86621 -2.2002 14.2998 -5.86621 25.2998 -11v-1.09961c-16.8672 -16.1338 -34.1006 -27.1338 -51.7002 -33c-19.0664 -7.33398 -36.667 -11 -52.7998 -11h-2.2002z
M497.8 338.6c-0.733398 2.93359 -2.56641 9.16699 -5.5 18.7002h12.1006c-0.733398 -2.93359 -2.56738 -9.16602 -5.5 -18.7002h-1.10059zM490.1 360.6c-2.19922 5.86719 -5.86621 16.8672 -11 33c3.66699 2.93359 10.2666 9.53418 19.8008 19.8008
c2.93262 -2.93359 9.16602 -9.53418 18.6992 -19.8008c-2.19922 -5.86621 -5.86621 -16.8662 -11 -33h-16.5zM457.1 368.3c2.93359 2.93359 9.16699 9.90039 18.7002 20.9004c2.2002 -4.40039 5.5 -13.5664 9.90039 -27.5c-4.40039 0 -13.9336 2.2002 -28.6006 6.59961z
M511 361.7c1.4668 4.39941 4.40039 13.5664 8.7998 27.5c2.93359 -3.66699 9.5332 -10.6338 19.7998 -20.9004c-13.9326 -4.39941 -23.4658 -6.59961 -28.5996 -6.59961zM447.2 363.9c0 0.733398 0.366211 2.19922 1.09961 4.39941
c0 -0.733398 0.367188 -1.09961 1.10059 -1.09961v-1.10059c0 -0.733398 -0.733398 -1.46582 -2.2002 -2.19922zM546.2 367.2c0.733398 0 1.83301 0.366211 3.2998 1.09961v-4.39941zM448.3 371.6v1.10059c0.733398 18.333 1.10059 28.5996 1.10059 30.7998
c1.46582 0.733398 4.0332 1.83301 7.69922 3.2998v1.10059v-1.10059c0 -2.2002 -1.09961 -3.66602 -3.2998 -4.39941c-2.2002 -2.2002 -3.2998 -4.40039 -3.2998 -6.60059c0 -2.93359 3.2998 -5.86621 9.90039 -8.7998c0.733398 0 2.19922 -0.366211 4.39941 -1.09961
c2.93359 0 6.2334 2.93262 9.90039 8.7998v-1.10059c-3.66699 -4.39941 -11 -12.4658 -22 -24.1992c-0.733398 0 -2.2002 0.733398 -4.40039 2.19922zM542.9 369.4c-2.2002 2.93262 -6.60059 8.43262 -13.2002 16.5h-1.10059c5.86719 0 10.2666 2.93262 13.2002 8.7998
v2.2002c0 2.19922 -1.4668 4.39941 -4.39941 6.59961c0 1.4668 -0.367188 3.2998 -1.10059 5.5l11 -5.5c0 -7.33301 0.367188 -17.9668 1.10059 -31.9004c-0.733398 0 -2.56738 -0.733398 -5.5 -2.19922zM418.6 390.3c4.40039 1.4668 13.2002 5.13379 26.4004 11v1.10059
v-1.10059v-28.5996h-1.09961c-8.06738 4.39941 -16.5 9.89941 -25.3008 16.5v1.09961zM551.7 372.7v1.09961c0 4.40039 -0.367188 13.9336 -1.10059 28.6006c4.40039 -2.2002 13.2002 -6.2334 26.4004 -12.1006c-9.5332 -8.06641 -17.5996 -13.5664 -24.2002 -16.5z
M387.8 377.1c-14.666 15.4004 -23.833 27.8672 -27.5 37.4004c-11.7334 22.7334 -17.5996 45.4668 -17.5996 68.2002v1.09961v1.10059h1.09961c4.40039 -1.4668 13.2002 -4.7666 26.4004 -9.90039c0 -7.33301 2.56641 -18.333 7.7002 -33
c-2.93359 -2.2002 -7.33398 -5.86621 -13.2002 -11h17.5996c0 -0.733398 0.367188 -2.2002 1.10059 -4.40039v-1.09961c0 -3.66699 -0.367188 -9.5332 -1.10059 -17.5996v-2.2002c0 -2.93359 0.733398 -4.40039 2.2002 -4.40039h5.5
c1.4668 0 4.40039 0.367188 8.7998 1.10059c-2.2002 -4.40039 -5.86621 -12.834 -11 -25.3008zM607.8 377.1c-1.4668 4.40039 -4.7666 12.4668 -9.89941 24.2002v1.10059c0 -0.733398 4.39941 -1.4668 13.1992 -2.2002c2.2002 0.733398 3.30078 1.83301 3.30078 3.2998v5.5
c0 2.2002 -0.733398 6.2334 -2.2002 12.0996v5.5c0.733398 0.733398 1.4668 2.2002 2.2002 4.40039h16.5c-0.733398 0 -4.40039 4.0332 -11 12.0996c4.39941 13.9336 6.59961 24.5674 6.59961 31.9004c8.7998 3.2998 8.7998 3.2998 26.4004 9.90039v-3.30078
c0 -30.0664 -10.2666 -59.3994 -30.8008 -88c-5.86621 -8.06641 -10.2666 -13.5664 -13.1992 -16.5h-1.10059zM393.3 381.5l8.7998 17.5996c1.4668 -1.46582 4.7666 -4.39941 9.90039 -8.7998c-2.93359 -1.4668 -9.16699 -4.39941 -18.7002 -8.7998zM584.7 390.3
c2.2002 2.2002 2.2002 2.2002 9.89941 9.90039c1.4668 -2.93359 4.03418 -9.16699 7.7002 -18.7002c-4.39941 2.2002 -4.39941 2.2002 -17.5996 8.7998zM528.6 391.4c-2.19922 2.19922 -3.2998 3.66602 -3.2998 4.39941c4.40039 4.40039 6.60059 6.9668 6.60059 7.7002
c0.733398 -3.66699 2.19922 -5.5 4.39941 -5.5v-1.09961c0 -2.2002 -2.56641 -4.03418 -7.7002 -5.5zM457.1 395.8c0 0.733398 0.367188 1.4668 1.10059 2.2002h1.09961c0.733398 0 1.83398 1.83301 3.2998 5.5c0 -0.733398 1.4668 -3.2998 4.40039 -7.7002
c0.733398 0 1.09961 -0.366211 1.09961 -1.09961c-0.733398 -0.733398 -2.19922 -1.83398 -4.39941 -3.2998c-4.40039 2.19922 -6.60059 3.66602 -6.60059 4.39941zM415.3 392.5l-11 11c3.66699 2.2002 9.5332 4.7666 17.6006 7.7002
c8.06641 2.93359 15.7666 6.2334 23.0996 9.89941l1.09961 1.10059v-1.10059c0 -10.2666 -0.366211 -15.3994 -1.09961 -15.3994c-9.90039 -4.40039 -9.90039 -4.40039 -29.7002 -13.2002zM550.6 405.7v15.3994c9.53418 -5.13281 21.6338 -10.2666 36.3008 -15.3994
c2.19922 -1.4668 4.0332 -2.2002 5.5 -2.2002c0 -0.733398 -3.66699 -4.40039 -11 -11h-1.10059c-5.13281 2.2002 -15.0332 6.59961 -29.7002 13.2002zM476.9 395.8c-0.733398 3.66699 -2.56738 10.2666 -5.5 19.7998c5.13281 8.06738 13.9326 14.3008 26.3994 18.7002
c11.7334 -5.13281 20.5332 -12.4668 26.4004 -22c-0.733398 -3.66602 -2.2002 -9.16602 -4.40039 -16.5h-1.09961c-3.66699 4.40039 -10.6338 12.4668 -20.9004 24.2002c-3.66602 -4.40039 -10.6328 -12.4668 -20.8994 -24.2002zM467 405.7v2.2002l1.09961 2.19922
c0.733398 -1.46582 1.83398 -4.7666 3.30078 -9.89941v-1.10059c-0.733398 1.4668 -2.2002 3.66699 -4.40039 6.60059zM603.4 406.8c-3.66699 0 -10.6338 2.2002 -20.9004 6.60059c-4.40039 0.733398 -15.0332 5.86621 -31.9004 15.3994
c-19.0664 13.2002 -28.5996 23.1006 -28.5996 29.7002c2.93359 0 5.13379 1.83301 6.59961 5.5c1.4668 7.33301 2.93359 11 4.40039 11c4.40039 -7.33301 12.0996 -13.2002 23.0996 -17.5996c4.40039 -0.733398 9.53418 -1.10059 15.4004 -1.10059v11h-2.2002
c-12.4668 0 -22 5.5 -28.5996 16.5c8.7998 8.7998 16.8662 13.2002 24.2002 13.2002c8.06641 0 15.0332 -3.2998 20.8994 -9.90039c8.7998 -9.5332 15.7666 -26.0332 20.9004 -49.5c0.733398 -15.3994 1.4668 -24.9326 2.2002 -28.5996v-2.2002h-1.10059h-4.39941z
M387.8 406.8c0.733398 7.33398 1.4668 17.6006 2.2002 30.7998c2.2002 10.2666 4.7666 19.4336 7.7002 27.5c4.39941 9.53418 11.3662 19.4336 20.8994 29.7002c2.93359 1.4668 7.33398 2.2002 13.2002 2.2002c8.06641 0 15.7666 -4.40039 23.1006 -13.2002
c-5.86719 -11 -15.7666 -16.5 -29.7002 -16.5v-11c16.1328 0 28.5996 5.86719 37.3994 17.6006v1.09961h1.10059c1.4668 0 2.56641 -3.66699 3.2998 -11c1.4668 -2.93359 3.66699 -4.40039 6.59961 -4.40039v-1.09961c0 -2.93359 -1.83301 -6.59961 -5.5 -11
c-11.7334 -12.4668 -23.0996 -20.9004 -34.0996 -25.2998c-5.86621 -2.93359 -15.4004 -6.60059 -28.5996 -11c-4.40039 -2.93359 -9.90039 -4.40039 -16.5 -4.40039h-1.10059zM449.4 407.9c0 2.93262 0.366211 8.7998 1.09961 17.5996
c3.66699 0.733398 10.6338 6.59961 20.9004 17.5996c5.86621 5.86719 8.7998 11.7334 8.7998 17.6006c3.66602 -6.60059 9.89941 -9.90039 18.7002 -9.90039c7.33301 0 12.833 2.93359 16.5 8.7998c2.19922 -7.33301 4.39941 -11.7334 6.59961 -13.1992
c11 -12.4668 19.0664 -19.4336 24.2002 -20.9004v-17.5996c-7.33398 2.93262 -11 5.13281 -11 6.59961c0 7.33301 -7.33398 17.2334 -22 29.7002c-4.40039 2.2002 -9.16699 3.2998 -14.2998 3.2998h-2.2002c-11 0 -22 -5.86621 -33 -17.5996
c-3.66699 -5.13379 -5.5 -11 -5.5 -17.6006c-2.2002 -1.4668 -5.13379 -2.93359 -8.7998 -4.39941zM463.7 413.4v2.19922c0 6.60059 6.9668 15.0342 20.8994 25.3008c5.13379 1.46582 9.53418 2.19922 13.2002 2.19922h1.10059c7.33301 0 14.666 -4.7666 22 -14.2998
c5.13281 -5.13281 7.69922 -9.5332 7.69922 -13.2002c-8.7998 12.4668 -19.0664 20.167 -30.7998 23.1006c-6.59961 0 -15.0332 -4.40039 -25.2998 -13.2002c-5.86621 -5.86621 -8.7998 -9.90039 -8.7998 -12.0996zM375.7 434.3
c0.733398 0.733398 1.83301 2.2002 3.2998 4.40039c0 -0.733398 0.366211 -1.83398 1.09961 -3.2998c-0.733398 0 -2.19922 -0.367188 -4.39941 -1.10059zM616.6 435.4c0 0.733398 0.367188 1.83301 1.10059 3.2998c1.4668 -0.733398 2.56641 -2.2002 3.2998 -4.40039
c-0.733398 0.733398 -2.2002 1.10059 -4.40039 1.10059zM382.3 440.9c0 0.733398 1.10059 1.83301 3.2998 3.2998c0 -1.4668 -0.366211 -4.40039 -1.09961 -8.7998c-0.733398 0 -1.4668 1.83301 -2.2002 5.5zM612.2 435.4c-0.733398 1.46582 -1.4668 4.39941 -2.2002 8.7998
c2.2002 -1.4668 3.66699 -2.2002 4.40039 -2.2002zM380.1 444.2c-3.66602 13.9336 -5.5 23.833 -5.5 29.7002c3.66699 -2.2002 9.90039 -4.7666 18.7002 -7.7002c-0.733398 -2.2002 -2.56641 -7.33398 -5.5 -15.4004c-1.4668 -1.4668 -4.0332 -3.66602 -7.7002 -6.59961z
M603.4 467.3c3.66602 0.733398 9.89941 2.93359 18.6992 6.60059c0 -5.13379 -1.83301 -15.0342 -5.5 -29.7002c-5.86621 4.39941 -8.7998 6.9668 -8.7998 7.7002c-0.733398 3.66602 -2.2002 8.43262 -4.39941 14.2998v1.09961zM481.3 500.3v5.5
c0 11.7334 2.2002 18.334 6.60059 19.7998c5.13281 1.4668 8.7998 2.56738 11 3.30078c1.46582 -0.733398 3.66602 -1.4668 6.59961 -2.2002c5.13379 -2.93359 7.7002 -5.13379 7.7002 -6.60059c1.4668 -4.39941 2.2002 -9.16602 2.2002 -14.2998v-8.7998
c0 -5.13379 -0.367188 -15.4004 -1.10059 -30.7998c-5.13281 -5.86719 -8.7998 -8.7998 -11 -8.7998c-0.733398 0 -1.83301 -0.367188 -3.2998 -1.10059h-2.2002c-5.86621 0 -9.89941 2.56641 -12.0996 7.7002c-2.93359 0.733398 -4.40039 3.66699 -4.40039 8.7998v27.5z
M519.8 465.1c0 5.86719 0.733398 17.6006 2.2002 35.2002c0 13.2002 -2.2002 22 -6.59961 26.4004c-3.66699 2.93359 -9.16699 5.5 -16.5 7.7002h-1.10059c-2.2002 0 -8.06641 -2.56738 -17.5996 -7.7002c-2.93359 -3.66699 -4.40039 -9.90039 -4.40039 -18.7002v-11
c0 -15.4004 0.367188 -26.0332 1.10059 -31.9004h-3.30078c-0.733398 0 -1.83301 3.30078 -3.2998 9.90039c-14.666 18.333 -27.5 27.5 -38.5 27.5h-2.2002c-4.39941 0 -8.7998 -0.733398 -13.1992 -2.2002c-1.4668 0.733398 -4.03418 2.56641 -7.7002 5.5v1.10059
c13.9336 4.39941 20.8994 6.96582 20.8994 7.69922c-2.19922 4.40039 -5.5 11.3672 -9.89941 20.9004h1.09961c10.2666 -0.733398 15.4004 -1.83301 15.4004 -3.2998c0 -8.7998 4.0332 -15.0332 12.0996 -18.7002c3.66699 -2.2002 9.90039 -8.43359 18.7002 -18.7002
l5.5 1.10059c1.4668 6.59961 2.2002 13.1992 2.2002 19.7998v33c0 2.2002 -1.10059 5.13281 -3.2998 8.7998c1.46582 3.66699 3.2998 9.5332 5.5 17.5996c3.66602 -3.66602 11 -11.3662 22 -23.0996c2.93262 3.66699 9.5332 11.3662 19.7998 23.0996h1.09961
c0.733398 -2.93262 2.56641 -9.16602 5.5 -18.6992c-0.733398 -2.2002 -1.09961 -4.7666 -1.09961 -7.7002v-4.40039c-0.733398 -3.66602 -1.10059 -11 -1.10059 -22c0.733398 -16.8662 1.4668 -25.666 2.2002 -26.3994c1.4668 0 2.93359 -0.367188 4.40039 -1.10059
c9.5332 10.2666 16.8662 16.8672 22 19.7998c7.33301 4.40039 11 11 11 19.8008h1.09961c2.2002 0 6.2334 0.366211 12.1006 1.09961l-8.80078 -22c2.93359 -0.733398 9.53418 -2.93359 19.8008 -6.59961c-0.733398 -1.4668 -3.30078 -4.03418 -7.7002 -7.7002
c-3.66699 2.2002 -8.43359 3.2998 -14.2998 3.2998c-11 0 -23.4668 -8.06641 -37.4004 -24.2002c-1.4668 -2.93359 -2.93359 -7.33301 -4.40039 -13.2002v-1.09961c-0.733398 0 -1.83301 0.366211 -3.2998 1.09961zM373.5 478.3v16.5
c5.13379 1.4668 15.4004 4.7666 30.7998 9.90039c1.4668 -0.733398 4.7666 -3.2998 9.90039 -7.7002c-8.7998 -6.59961 -15.0332 -14.667 -18.7002 -24.2002c0 -1.4668 -0.366211 -2.2002 -1.09961 -2.2002c-4.40039 1.4668 -11.3672 4.03418 -20.9004 7.7002zM602.3 470.6
c-2.93359 7.33398 -9.5332 16.1338 -19.7998 26.4004c2.2002 1.4668 5.13379 4.0332 8.7998 7.7002c5.86719 -1.4668 16.5 -4.7666 31.9004 -9.90039v-16.5c-3.66699 -1.4668 -10.6338 -4.0332 -20.9004 -7.7002zM350.4 486v1.09961
c2.93262 0.733398 9.5332 2.56738 19.7998 5.5v-14.2998c-3.66699 1.4668 -10.2666 4.0332 -19.7998 7.7002zM626.5 479.4v13.1992c3.66699 -0.733398 10.2666 -2.56641 19.7998 -5.5v-1.09961c-2.93359 -0.733398 -9.5332 -2.93359 -19.7998 -6.59961zM342.7 487.1
c0 35.2002 11.7334 67.834 35.2002 97.9004c3.2998 3.2998 3.2998 3.2998 9.89941 9.90039c2.2002 -4.40039 6.2334 -13.2002 12.1006 -26.4004c-7.33398 -7.33301 -12.834 -15.7666 -16.5 -25.2998c-0.733398 -2.2002 -1.4668 -3.2998 -2.2002 -3.2998
c-3.66699 0.733398 -9.16699 1.09961 -16.5 1.09961c2.2002 -1.4668 6.59961 -5.13379 13.2002 -11c-5.13379 -13.9336 -7.7002 -24.9336 -7.7002 -33c-5.13379 -1.4668 -14.2998 -4.7666 -27.5 -9.90039zM626.5 497c0 7.33301 -2.2002 18.7002 -6.59961 34.0996
c2.19922 2.2002 5.86621 5.5 11 9.90039c-2.2002 0 -7.7002 -0.366211 -16.5 -1.09961v1.09961c-2.2002 5.86621 -8.06738 15.4004 -17.6006 28.5996c2.93359 5.13379 6.60059 13.5674 11 25.3008h1.10059c11 -10.2666 18.333 -19.8008 22 -28.6006
c14.666 -25.666 22 -50.5996 22 -74.7998v-4.40039c-4.40039 2.2002 -13.2002 5.5 -26.4004 9.90039zM374.6 498.1c0 5.86719 1.83398 15.4004 5.5 28.6006c3.66699 -2.93359 10.6338 -9.16699 20.9004 -18.7002c-4.40039 -2.2002 -13.2002 -5.5 -26.4004 -9.90039z
M594.6 508v1.09961c5.5 4.40039 5.5 4.40039 22 17.6006c3.66699 -14.667 5.5 -24.5664 5.5 -29.7002c-5.86621 2.2002 -15.0332 5.86621 -27.5 11zM440.6 535.5c0 5.86621 1.4668 17.2334 4.40039 34.0996v6.60059c2.2002 -0.733398 6.2334 -5.13379 12.0996 -13.2002
c7.33398 -5.86621 11 -11 11 -15.4004v-27.5v-18.6992c-6.59961 8.06641 -11.7334 13.1992 -15.3994 15.3994c-5.86719 3.66699 -9.5332 6.9668 -11 9.90039c0 2.2002 -0.367188 5.13281 -1.10059 8.7998zM529.7 502.5c0 2.2002 -0.367188 7.33301 -1.10059 15.4004v30.7998
c0 3.66602 4.03418 8.43359 12.1006 14.2998c6.59961 8.7998 10.6328 13.5664 12.0996 14.2998c0.733398 -6.59961 1.83398 -17.5996 3.2998 -33c0.733398 -1.4668 1.10059 -4.39941 1.10059 -8.7998c-0.733398 -5.86621 -1.83398 -10.2666 -3.2998 -13.2002
c-8.06738 -5.13281 -13.5674 -9.5332 -16.5 -13.2002c-2.2002 -1.46582 -4.7666 -3.66602 -7.7002 -6.59961zM405.4 509.1c-4.40039 3.66699 -12.1006 11 -23.1006 22c0 0.733398 0.367188 2.56738 1.10059 5.5c5.86621 0 16.5 -0.366211 31.8994 -1.09961
c1.4668 -3.66699 4.40039 -9.90039 8.7998 -18.7002c-2.93262 -1.4668 -9.16602 -4.0332 -18.6992 -7.7002zM571.5 516.8c1.4668 2.93359 4.40039 9.16699 8.7998 18.7002h31.9004c0.733398 -0.733398 1.4668 -2.2002 2.2002 -4.40039
c-3.66699 -3.66602 -11.3672 -11 -23.1006 -22c-3.66602 1.4668 -10.2666 4.03418 -19.7998 7.7002zM375.7 536.6h4.39941c0 -0.733398 -0.366211 -1.46582 -1.09961 -2.19922c-0.733398 0 -1.83301 0.733398 -3.2998 2.19922zM616.6 536.6h4.40039
c-0.733398 -0.733398 -1.83301 -1.46582 -3.2998 -2.19922c0 0.733398 -0.367188 1.46582 -1.10059 2.19922zM418.6 538.8c-2.93262 5.13379 -7.69922 15.4004 -14.2998 30.7998c2.2002 1.4668 5.86719 4.7666 11 9.90039c4.40039 -1.4668 12.4668 -4.7666 24.2002 -9.90039
c-2.93359 -14.666 -4.40039 -25.2998 -4.40039 -31.8994c-3.66602 0 -9.16602 0.366211 -16.5 1.09961zM562.7 537.7c0 6.59961 -1.10059 17.2334 -3.2998 31.8994c4.39941 2.2002 11.7334 5.5 22 9.90039c2.19922 -2.2002 2.19922 -2.2002 11 -11
c-2.2002 -5.13379 -6.9668 -15.0332 -14.3008 -29.7002h-14.2998zM385.6 539.9c4.40039 8.7998 9.53418 17.2334 15.4004 25.2998c3.2998 -6.60059 3.2998 -6.60059 13.2002 -26.4004c-5.13379 0 -14.667 0.367188 -28.6006 1.10059zM582.5 538.8
c2.2002 4.40039 6.2334 13.2002 12.0996 26.4004c6.60059 -8.7998 12.1006 -17.2334 16.5 -25.2998c-6.59961 0 -16.1328 -0.367188 -28.5996 -1.10059zM497.8 557.5c-2.93359 3.66699 -9.16602 11 -18.7002 22c2.2002 5.13379 5.86719 15.4004 11 30.7998h16.5
c1.4668 -5.13281 5.13379 -15.3994 11 -30.7998c-2.93262 -3.66699 -9.5332 -11 -19.7998 -22zM528.6 560.8c-1.46582 2.93359 -3.66602 8.7998 -6.59961 17.6006c3.66699 3.66602 10.6338 11.3662 20.9004 23.0996c1.46582 0 3.66602 -0.366211 6.59961 -1.09961
c-0.733398 -3.66699 -1.4668 -10.6338 -2.2002 -20.9004c-0.733398 0 -4.7666 -4.0332 -12.0996 -12.0996c-4.40039 -3.66699 -6.60059 -5.86719 -6.60059 -6.60059zM468.1 561.9c-6.59961 5.86621 -11.7334 11.7334 -15.3994 17.5996
c-2.93359 0 -4.40039 1.4668 -4.40039 4.40039v16.5c0.733398 0 2.2002 0.366211 4.40039 1.09961c14.666 -14.667 22 -22.3662 22 -23.0996zM402.1 571.8c-1.46582 3.66699 -4.39941 9.90039 -8.7998 18.7002c3.66699 -1.4668 9.90039 -4.0332 18.7002 -7.7002
c-1.4668 -2.2002 -4.7666 -5.86621 -9.90039 -11zM584.7 580.6v2.2002c2.93359 0.733398 8.7998 3.2998 17.5996 7.7002c-1.4668 -2.93359 -4.0332 -9.16699 -7.7002 -18.7002c-5.86621 5.86719 -9.16602 8.7998 -9.89941 8.7998zM418.6 582.8
c8.80078 6.60059 17.6006 11.7334 26.4004 15.4004v-11h-1.09961c-2.93359 0 -4.40039 -2.2002 -4.40039 -6.60059c0 -1.46582 -0.366211 -3.66602 -1.09961 -6.59961c-2.93359 1.4668 -9.53418 4.40039 -19.8008 8.7998zM559.4 574
c-0.733398 8.7998 -2.2002 13.2002 -4.40039 13.2002c-0.733398 -0.733398 -1.83301 -1.4668 -3.2998 -2.2002v2.2002v11c8.06641 -2.93359 16.5 -8.06641 25.2998 -15.4004c-3.66699 -2.2002 -9.5332 -5.13281 -17.5996 -8.7998zM457.1 603.7
c14.667 4.39941 24.2002 6.59961 28.6006 6.59961c-2.2002 -5.86621 -5.5 -15.0332 -9.90039 -27.5c-2.93359 3.66699 -9.16602 10.6338 -18.7002 20.9004zM519.8 582.8c-1.4668 4.40039 -4.39941 13.5664 -8.7998 27.5c4.40039 0 13.9336 -2.2002 28.5996 -6.59961
c-4.39941 -4.40039 -11 -11.3672 -19.7998 -20.9004zM388.9 597.1c8.7998 8.80078 17.5996 15.7666 26.3994 20.9004c26.4004 16.1338 53.167 24.2002 80.2998 24.2002h2.2002v-1.10059c-2.2002 -4.39941 -5.5 -13.1992 -9.89941 -26.3994
c-8.06738 0 -19.4336 -2.56641 -34.1006 -7.7002c-2.2002 2.93359 -5.5 6.9668 -9.89941 12.0996v-16.5c-8.80078 -3.66602 -17.9668 -9.5332 -27.5 -17.5996h-2.2002c-5.13379 2.2002 -13.5664 6.2334 -25.2998 12.0996zM581.4 585
c-11.7334 9.5332 -21.6338 15.0332 -29.7002 16.5c0.733398 4.40039 1.4668 10.2666 2.2002 17.5996c-3.30078 -3.2998 -3.30078 -3.2998 -12.1006 -12.0996c-14.666 5.13379 -25.666 7.7002 -33 7.7002c-2.2002 5.86621 -5.5 15.0332 -9.89941 27.5
c19.7998 0 40.6992 -4.7666 62.6992 -14.2998c7.33398 -2.93359 15.4004 -7.33398 24.2002 -13.2002c6.60059 -5.13379 13.5664 -11 20.9004 -17.6006c-4.40039 -2.19922 -12.834 -6.2334 -25.2998 -12.0996zM447.2 609.2
c0.733398 -0.733398 1.4668 -1.83398 2.2002 -3.2998c0 -0.733398 -0.367188 -1.10059 -1.10059 -1.10059c-0.733398 0.733398 -1.09961 2.2002 -1.09961 4.40039zM546.2 605.9c0.733398 0 1.83301 0.733398 3.2998 2.19922v-3.2998
c-0.733398 0 -1.83301 0.367188 -3.2998 1.10059zM492.3 614.7c0.733398 3.66602 2.56641 9.89941 5.5 18.7002h1.10059c0.733398 -2.93359 2.56641 -9.16699 5.5 -18.7002h-12.1006zM498.9 645.5h-1.10059c-22.7334 0 -44.7334 -4.7666 -66 -14.2998v118.8
c-15.3994 9.5332 -46.2002 27.8662 -92.3994 55h327.8c0 0.733398 0.366211 1.09961 1.09961 1.09961v-1.09961c-16.1328 -8.7998 -47.666 -27.1338 -94.5996 -55v-123.2h-1.10059c-23.4658 12.4668 -48.0332 18.7002 -73.6992 18.7002z" />
</svg>
