<?xml version="1.0" standalone="no"?>
<!DOCTYPE svg PUBLIC "-//W3C//DTD SVG 1.1//EN" "http://www.w3.org/Graphics/SVG/1.1/DTD/svg11.dtd" >
<svg xmlns="http://www.w3.org/2000/svg" xmlns:xlink="http://www.w3.org/1999/xlink" version="1.1" viewBox="-10 0 1010 1000">
   <path fill="currentColor"
d="M500 9.7002l487.3 487.3l-487.3 487.3c-81.4004 -80.666 -243.833 -243.1 -487.3 -487.3c80.666 -81.4004 243.1 -243.833 487.3 -487.3zM232.7 403.5v1.09961c0 27.8672 4.7666 50.9668 14.2998 69.3008c13.9336 25.666 38.1338 49.1328 72.5996 70.3994h-107.8
c-3.66602 5.86719 -5.5 9.16699 -5.5 9.90039c7.33398 13.2002 17.6006 35.2002 30.7998 66c5.86719 13.2002 10.6338 23.0996 14.3008 29.7002c1.46582 0 3.2998 0.366211 5.5 1.09961c10.2666 -0.733398 21.6328 -1.09961 34.0996 -1.09961
c41.0664 0 66.7334 10.2666 77 30.7998c5.13379 11 7.7002 22.7334 7.7002 35.2002c0 8.06641 -2.2002 31.8994 -6.60059 71.5c-0.733398 2.93262 -1.09961 7.33301 -1.09961 13.1992c0 8.80078 1.09961 13.2002 3.2998 13.2002
c1.4668 0.733398 2.93359 1.83398 4.40039 3.2998h3.2998c0.733398 0.733398 1.09961 1.4668 1.09961 2.2002h37.4004c0 -2.93359 0.366211 -8.7998 1.09961 -17.5996v-68.2002h25.3008v1.09961v83.6006h37.3994c0.733398 -13.9336 1.4668 -42.167 2.2002 -84.7002h24.2002
c0 14.667 -0.367188 42.9004 -1.10059 84.7002h31.9004c0.733398 -13.9336 1.4668 -42.167 2.2002 -84.7002h24.2002v1.09961c0 13.9336 -0.367188 42.167 -1.10059 84.7002c9.5332 0 28.2334 0.367188 56.1006 1.10059
c0.733398 -0.733398 2.19922 -1.83398 4.39941 -3.30078c4.40039 -2.93262 6.60059 -5.86621 6.60059 -8.7998v-7.7002c0 -8.7998 -1.83398 -31.5332 -5.5 -68.1992c-0.733398 -3.66699 -1.10059 -9.16699 -1.10059 -16.5c0 -29.334 10.2666 -48.4004 30.7998 -57.2002
c14.667 -5.86719 31.167 -8.7998 49.5 -8.7998h8.80078c5.13281 0.733398 15.0332 1.09961 29.6992 1.09961c4.40039 -1.4668 6.60059 -3.2998 6.60059 -5.5c6.59961 -11 16.5 -32.2666 29.7002 -63.7998c5.13281 -11 9.89941 -20.5332 14.2998 -28.6006
c-0.733398 -1.46582 -2.56641 -4.39941 -5.5 -8.7998h-97.9004c11 -9.5332 19.0664 -17.9668 24.2002 -25.2998c13.2002 -15.4004 22.7334 -37.7666 28.5996 -67.0996c1.4668 -13.2002 2.2002 -33.3672 2.2002 -60.5c0 -32.2666 -8.7998 -63.4336 -26.3994 -93.5
c-24.2002 -37.4004 -62.334 -65.2666 -114.4 -83.6006c-11.7334 -4.39941 -19.4336 -6.59961 -23.0996 -6.59961h-194.7c-5.86719 0 -21.6338 6.2334 -47.2998 18.7002c-44.7334 22 -75.5342 55 -92.4004 99c-8.7998 29.333 -13.5664 55.3662 -14.2998 78.0996zM408.7 440.9
c22 0 39.9668 9.5332 53.8994 28.5996c8.06738 11.7334 12.1006 23.833 12.1006 36.2998c0 21.2666 -9.16699 38.8672 -27.5 52.7998c-13.2002 8.06738 -25.667 12.1006 -37.4004 12.1006c-24.2002 0 -43.2666 -10.2666 -57.2002 -30.7998
c-5.86621 -11.7334 -8.7998 -23.1006 -8.7998 -34.1006c0 -16.1328 5.86719 -31.166 17.6006 -45.0996c14.666 -13.2002 30.4326 -19.7998 47.2998 -19.7998zM590.2 449.7c14.666 0 27.8662 5.86621 39.5996 17.5996c10.2666 11 15.4004 23.4668 15.4004 37.4004
c0 16.1328 -6.60059 30.0664 -19.7998 41.7998c-11 8.7998 -22.7334 13.2002 -35.2002 13.2002c-16.8672 0 -30.7998 -6.60059 -41.7998 -19.7998c-8.80078 -10.2666 -13.2002 -22 -13.2002 -35.2002c0 -20.5332 9.89941 -36.667 29.7002 -48.4004
c9.5332 -4.39941 17.9658 -6.59961 25.2998 -6.59961zM366.9 505.8c0 16.8672 8.43262 29.7002 25.2998 38.5c5.86621 2.93359 11.3662 4.40039 16.5 4.40039c13.2002 0 24.9336 -6.2334 35.2002 -18.7002c4.39941 -8.06641 6.59961 -16.1338 6.59961 -24.2002
c0 -13.2002 -5.86621 -24.5664 -17.5996 -34.0996c-7.33398 -5.13379 -15.4004 -7.7002 -24.2002 -7.7002c-16.1338 0 -28.6006 8.06641 -37.4004 24.2002c-2.93359 5.86621 -4.39941 11.7334 -4.39941 17.5996zM485.7 574h34.0996
c0 5.13379 -1.09961 9.90039 -3.2998 14.2998c1.4668 5.13379 14.2998 19.7998 38.5 44c-5.5 5.5 -5.5 5.5 -17.5996 17.6006c-17.6006 -17.6006 -29.334 -30.0674 -35.2002 -37.4004c-5.86719 8.7998 -17.6006 21.2666 -35.2002 37.4004
c-5.5 -5.5 -5.5 -5.5 -17.5996 -17.6006c22.7334 -22.7334 35.9326 -37.3994 39.5996 -44c-2.2002 -5.13281 -3.2998 -9.5332 -3.2998 -13.2002v-1.09961z" />
</svg>
