<?xml version="1.0" standalone="no"?>
<!DOCTYPE svg PUBLIC "-//W3C//DTD SVG 1.1//EN" "http://www.w3.org/Graphics/SVG/1.1/DTD/svg11.dtd" >
<svg xmlns="http://www.w3.org/2000/svg" xmlns:xlink="http://www.w3.org/1999/xlink" version="1.1" viewBox="-10 0 1010 1000">
   <path fill="currentColor"
d="M987.3 497c-81.3994 81.4004 -244.2 243.833 -488.399 487.3c-80.667 -80.666 -242.733 -243.1 -486.2 -487.3c80.666 -81.4004 242.733 -243.833 486.2 -487.3c81.3994 81.3994 244.199 243.833 488.399 487.3zM471.4 249.5v1.09961
c2.19922 0 6.59961 -0.366211 13.1992 -1.09961h1.10059c5.86621 0 8.7998 2.56641 8.7998 7.7002v5.5v2.2002v2.19922v215.601h3.2998c0.733398 -0.733398 2.93359 -1.10059 6.60059 -1.10059v-222.199h5.5c1.46582 -3.66699 2.19922 -8.06738 2.19922 -13.2002
c-0.733398 -12.4668 -2.56641 -19.0664 -5.5 -19.7998c-13.1992 0 -23.0996 5.13281 -29.6992 15.3994c-1.4668 2.2002 -3.30078 4.7666 -5.5 7.7002zM172.2 378.2c7.33301 9.5332 17.5996 20.8994 30.7998 34.0996c2.93359 2.2002 7.33301 5.86719 13.2002 11
c19.0664 13.2002 35.2002 22.3672 48.3994 27.5c37.4004 16.1338 81.0342 24.2002 130.9 24.2002c24.9336 0 55.7334 -2.56641 92.4004 -7.7002v-149.6c-8.06738 -0.733398 -25.3008 -1.4668 -51.7002 -2.2002c0 -11 -0.733398 -33 -2.2002 -66
c-44 21.2666 -131.267 64.167 -261.8 128.7zM564.9 249.5c0 11 -0.367188 33 -1.10059 66c-8.7998 0.733398 -26.3994 1.4668 -52.7998 2.2002v149.6h1.09961c36.667 5.13379 67.1006 7.7002 91.3008 7.7002h6.59961c99.7334 0 171.967 -32.2666 216.7 -96.7998
c-86.9004 -42.9004 -86.9004 -42.9004 -260.7 -128.7h-1.09961zM418.6 567.4c0 33 20.9004 60.5 62.7002 82.5c5.13379 2.93262 16.5 8.7998 34.1006 17.5996c15.3994 6.59961 24.1992 12.0996 26.3994 16.5c2.93359 2.93359 4.40039 7.7002 4.40039 14.2998v1.10059
c0 13.9326 -4.7666 23.833 -14.2998 29.6992c-8.06738 5.86719 -18.334 11.7334 -30.8008 17.6006c-0.733398 0 -9.16602 5.13281 -25.2998 15.3994c3.66699 0 9.16699 -0.366211 16.5 -1.09961h7.7002h16.5c11 -4.40039 21.2666 -10.2666 30.7998 -17.5996
c13.2002 -10.2666 19.7998 -25.3008 19.7998 -45.1006c0 -20.5332 -9.89941 -35.2002 -29.6992 -44c-27.8672 -14.666 -47.667 -24.9336 -59.4004 -30.7998c-22 -14.667 -34.4668 -28.5996 -37.4004 -41.7998c-0.733398 -4.40039 -1.09961 -9.5332 -1.09961 -15.4004
c0 -20.5332 9.5332 -36.2998 28.5996 -47.2998c11 -5.86621 23.4668 -8.7998 37.4004 -8.7998h3.2998c15.4004 0 28.9668 6.2334 40.7002 18.7002c6.59961 10.2666 9.90039 23.0996 9.90039 38.5c0 22.7334 -16.1338 42.8994 -48.4004 60.5v5.5
c3.66699 1.46582 9.90039 4.39941 18.7002 8.7998c34.4668 -20.5332 51.7002 -45.4668 51.7002 -74.7998c0 -21.2666 -5.86719 -39.2334 -17.6006 -53.9004c-8.7998 -8.7998 -16.1328 -14.667 -22 -17.5996c-5.86621 -2.2002 -14.666 -4.40039 -26.3994 -6.60059
c-2.2002 0 -5.5 -0.366211 -9.90039 -1.09961c-22.7334 0 -43.2666 5.86621 -61.5996 17.5996c-16.8672 13.9336 -25.3008 34.4668 -25.3008 61.6006zM494.5 517.9v105.6c0 0.733398 3.2998 2.56641 9.90039 5.5c1.46582 -13.2002 2.19922 -26.0332 2.19922 -38.5
c0 -6.59961 -0.366211 -12.833 -1.09961 -18.7002c-0.733398 -17.5996 -1.09961 -35.5664 -1.09961 -53.8994h-9.90039zM431.8 697.2v4.39941c0 24.2002 13.2002 42.167 39.6006 53.9004c11 -5.86621 16.5 -9.16699 16.5 -9.90039v-4.39941
c-7.33398 -2.93359 -14.3008 -6.9668 -20.9004 -12.1006c-9.5332 -7.33301 -14.2998 -16.1328 -14.2998 -26.3994v-4.40039c0 -10.2666 4.39941 -17.5996 13.2002 -22c2.93262 -2.2002 10.2666 -6.2334 22 -12.0996v-3.2998c0 -0.733398 -5.86719 -4.40039 -17.6006 -11
c-10.2666 3.66602 -19.4336 9.5332 -27.5 17.5996c-7.33301 8.06641 -11 17.9668 -11 29.7002zM494.5 664.2v77l9.90039 -4.40039v-68.2002c-1.4668 -0.733398 -4.7666 -2.19922 -9.90039 -4.39941zM449.4 773.1c9.5332 20.5342 22.3662 41.4336 38.5 62.7002
c2.19922 3.66699 6.2334 9.16699 12.0996 16.5c16.1338 -18.333 28.9668 -37.3994 38.5 -57.2002c2.2002 -5.13281 5.13379 -12.0996 8.7998 -20.8994c-17.5996 -3.66699 -34.0996 -5.5 -49.5 -5.5c-14.666 0 -30.7998 1.4668 -48.3994 4.39941z" />
</svg>
