<?xml version="1.0" standalone="no"?>
<!DOCTYPE svg PUBLIC "-//W3C//DTD SVG 1.1//EN" "http://www.w3.org/Graphics/SVG/1.1/DTD/svg11.dtd" >
<svg xmlns="http://www.w3.org/2000/svg" xmlns:xlink="http://www.w3.org/1999/xlink" version="1.1" viewBox="-10 0 1019 1000">
   <path fill="currentColor"
d="M401.539 699.013c-0.921875 -0.9375 -2.42578 -2.46777 -4.13477 -2.46777c-15.6982 -10.2119 -33.29 -19.7832 -52.7568 -28.9375c-19.0615 -8.93359 -36.6377 -22.3428 -52.7578 -40.002c-34.1162 -35.1367 -135.97 -140.037 -103.833 -315.769
c0.411133 -7.86328 0.804688 -11.9199 0.804688 -11.9199l252.063 -257.935c14.2461 -5.35742 18.4873 -8.70898 43.5527 -17.0264c3.76367 -1.35742 31.2656 -11.0566 48.5713 -11.0566l38.5205 39.1484c-13.8047 5.17969 -38.877 26.4316 -42.7119 46.8232
c6.28516 5.43262 44.2373 -10.1562 56.0996 -10.1562c5.79492 0 17.3789 -4.9502 18.4121 -3.39648c4.17188 5.05664 16.4004 14.1846 20.0938 20.4229c3.03125 3.08301 3.03125 3.08301 4.9668 5.95117h-2.51074c-157.601 -15.5547 -296.234 117.186 -288.908 169.345
c7.44824 23.3877 77.2803 -71.9971 191.758 -97.0703c40.2559 -9.54297 98.7881 -11.0469 162.456 -9.31836c0.674805 0.53418 0.674805 0.53418 15.0713 17.0254c12.4404 11.2119 21.8984 21.8809 30.9717 30.6348c6.01562 4.65039 9.59766 7.41895 20.1143 19.5781
c-1.70605 0 -73.0781 -49.3555 -163.286 -49.3555c-22.6035 0 -71.4668 0 -148.223 46.8057c-25.1211 15.3154 -46.8945 36.1719 -65.3184 62.1309c-15.0723 27.1289 -24.293 45.4521 -32.6504 76.6006c0 1.65234 0.410156 2.55371 1.625 2.55371
c4.58203 0 11.1123 -57.9873 113.894 -113.19c28.1045 -14.666 61.9551 -25.7822 40.2041 -10.2139c-14.2266 10.833 -28.4795 26.7051 -28.4795 46.8174c0 14.3691 41.8223 -29.7812 118.91 -29.7812c52.873 0 110.319 20.2041 165.806 49.3623
c50.0479 33.6064 85.0752 57.127 91.2822 43.4082c3.39453 -9.0127 -2.87988 -27.0742 -7.53711 -38.3057c8.56738 13.0879 145.082 147.456 146.547 148.946c1.625 4.67383 3.3418 10.8506 5.02344 18.7139c0 1.65332 1.01758 7.22656 3.3418 16.1826l-101.326 103.839
c2.6875 -46.8154 -29.4463 -231.479 -200.146 -306.405c-15.8574 -7.31445 -69.458 -32.0391 -92.9561 -12.7646c-19.0596 24.6201 96.0879 11.1885 185.059 183.83c28.8926 63.6201 37.0557 133.201 24.2842 208.525v11.0557l-252.059 256.189
c-6.10645 3.20508 -48.0166 24.4746 -92.9521 28.9463l-36.8457 -38.3008c1.2207 0 5.14844 -5.10547 8.36523 -5.10547c3.94043 -1.79395 47.0166 -30.1543 35.2119 -42.5566c-2.89258 -2.94141 -9.93652 -0.989258 -17.583 2.58008
c-17.3799 3.39648 -36.6367 7.65918 -57.7793 12.7646l-27.6348 -28.0859c7.7373 1.03418 15.292 1.65234 22.6094 1.65234h24.2852c135.547 -10.0674 240.625 -106.771 247.877 -171.077c0 -3.61133 -1.11719 -15.9482 -17.5811 -1.70703
c-7.88086 6.75 -71.1924 59.8457 -144.037 87.6562c-43.127 17.0254 -91.9053 25.5322 -146.546 25.5322c-23.0293 -1.23535 -39.3594 -2.98535 -49.4082 -5.10645l-66.9932 -68.9385c20.3594 12.9102 88.2559 51.8994 165.809 51.8994
c30.4443 0 118.247 -6.60938 185.064 -77.459c50.8994 -50.4062 60.2998 -106.854 60.2998 -108.091c0 -16.2627 -8.04199 26.0098 -69.4492 80.8643c-26.2822 22.3525 -57.3838 41.3047 -90.4385 45.9561c4.39551 -4.46875 10.4717 -10.418 18.4111 -17.8701
c8.36621 -7.86426 13.6133 -17.0264 15.9209 -27.2354v-4.26172c0.0292969 -0.118164 2.26074 -10.3232 -11.6729 -3.45508c-10.0859 4.19922 -20.5449 8.55371 -25.9688 11.9004c-27.4229 11.4883 -56.1025 17.0264 -86.249 17.0264
c-55.498 0 -122.696 -19.2158 -202.66 -72.3281c-20.6826 -16.3467 -39.9229 -26.5244 -51.9131 -21.2676c-7.0332 2.92578 1.67285 22.2158 10.8496 42.5479l-148.221 -152.352c-3.77246 -9.04297 -4.90234 -14.0557 -9.2168 -33.1895l101.325 -102.986
c14.1201 91.9072 30.0605 187.511 142.362 274.062c26.4473 20.0049 73.8535 50.2227 118.913 50.2227c13.3896 0 25.332 -3.62598 36.0088 -11.0566zM281.798 462.422c-4.23145 -59.2812 0.983398 -123.304 12.5801 -202.555
c0 -0.152344 -1.80566 -17.4512 -15.0928 1.68848c-14.1523 34.1689 -53.0254 128.025 -2.51172 203.419h2.51172c1.62598 2.34766 2.5127 1.43359 2.5127 -2.55273zM234.161 356.938c0 -19.0732 3.2168 -25.5869 3.27246 -45.1504v-2.55273
c-20.2803 26.0088 -53.291 135.984 5.02148 234.058c31.832 54.5234 68.6768 79.1807 68.6768 74.8975l-1.62598 -0.816406c0 -10.0117 -69.4688 -61.8721 -75.3447 -188.939c-1.21484 -22.5576 -1.21484 -46.3867 0 -71.4961zM692.058 381.704
c-0.835938 0 -1.35547 0.530273 -1.56738 1.58984c62.0918 61.8682 86.1572 168.96 76.9893 229.803c-2.93652 22.7676 -3.3418 47.2383 -1.625 73.1982c0.870117 3.49609 5.02441 -2.20801 5.02441 -5.10742c10.6348 -23.8926 35.0869 -93.6367 7.53418 -182.991
c-36.0264 -69.7871 -36.0264 -69.7871 -61.9795 -97.0322c-2.41504 -2.375 -20.9893 -19.46 -24.376 -19.46zM720.648 535.65c-3.4043 3.46191 8.88281 35.624 6.70508 89.3604c-1.39453 16.0527 -1.39453 16.0527 -19.2637 117.456
c0 1.65234 1.21582 4.03711 4.19336 6.81445c3.34277 0 5.44824 -1.03613 6.7041 -3.39746c10.5039 -17.124 42.0166 -73.6875 39.3164 -131.949c0 -10.0859 -16.4658 -78.2842 -37.6553 -78.2842z" />
</svg>
