<?xml version="1.0" standalone="no"?>
<!DOCTYPE svg PUBLIC "-//W3C//DTD SVG 1.1//EN" "http://www.w3.org/Graphics/SVG/1.1/DTD/svg11.dtd" >
<svg xmlns="http://www.w3.org/2000/svg" xmlns:xlink="http://www.w3.org/1999/xlink" version="1.1" viewBox="-10 0 1010 1000">
   <path fill="currentColor"
d="M499 39.25c55.7334 56.4668 167.2 168.3 334.4 335.5c-77.7344 -39.5996 -147.767 -59.4004 -210.101 -59.4004h-1.09961c15.3994 7.33398 36.2998 23.1006 62.7002 47.3008c48.3994 46.1992 72.5996 99.3662 72.5996 159.5c0 23.4658 -4.0332 49.8662 -12.0996 79.1992
h-1.10059l-2.2002 -3.2998v-1.09961c0 -74.7998 -35.1992 -126.134 -105.6 -154c-20.5332 -8.06641 -33 -12.1006 -37.4004 -12.1006c22.7344 35.2002 37.7666 61.2344 45.1006 78.1006c8.7998 20.5332 13.2002 44.3662 13.2002 71.5v4.39941
c0 11 -0.734375 21.6338 -2.2002 31.9004c-0.733398 0 -1.83398 0.733398 -3.2998 2.2002c-5.13379 -24.2002 -11.3672 -45.4668 -18.7002 -63.7998c-8.7998 -19.8008 -19.4336 -39.6006 -31.9004 -59.4004c-45.4658 -63.7998 -108.166 -95.7002 -188.1 -95.7002
c-11.7334 0 -24.5664 0.733398 -38.5 2.2002c56.4658 43.2666 92.7666 88.7334 108.899 136.4c6.60059 22 9.90039 43.2656 9.90039 63.7998c0 19.0664 -2.56641 40.333 -7.7002 63.7998c-0.733398 0 -1.83301 0.366211 -3.2998 1.09961
c-37.4004 -107.8 -85.7998 -161.699 -145.2 -161.699c-11 0 -22.3662 2.19922 -34.0996 6.59961v1.09961c19.7998 17.6006 33.7334 31.167 41.7998 40.7002c30.0664 38.1338 45.0996 77.7334 45.0996 118.8v12.1006c0 12.4658 -1.46582 27.5 -4.39941 45.0996h-4.40039
c-8.06641 -28.5996 -22 -54.2666 -41.7998 -77c-22 -22 -44.7334 -33 -68.2002 -33c-8.7998 0 -17.5996 1.83398 -26.3994 5.5c13.1992 17.6006 20.5332 31.9004 22 42.9004c2.93359 13.2002 4.39941 24.9336 4.39941 35.2002c0 22.7334 -3.2998 37.7656 -9.89941 45.0996
c-11.7344 7.33398 -18.334 11 -19.8008 11c-51.333 -51.334 -128.333 -128.7 -231 -232.1z" />
</svg>
