<?xml version="1.0" standalone="no"?>
<!DOCTYPE svg PUBLIC "-//W3C//DTD SVG 1.1//EN" "http://www.w3.org/Graphics/SVG/1.1/DTD/svg11.dtd" >
<svg xmlns="http://www.w3.org/2000/svg" xmlns:xlink="http://www.w3.org/1999/xlink" version="1.1" viewBox="-10 0 1010 1000">
   <path fill="currentColor"
d="M500 9.7002l487.3 487.3l-487.3 487.3c-81.4004 -80.666 -243.833 -243.1 -487.3 -487.3c80.666 -81.4004 243.1 -243.833 487.3 -487.3zM492.3 279.2c-2.2002 -2.93359 -5.86621 -8.43359 -11 -16.5c-7.33301 -9.5332 -18.7002 -14.2998 -34.0996 -14.2998h-2.2002
h-1.09961c-24.9336 0 -40.334 7.69922 -46.2002 23.0996c-3.66699 11.7334 -5.86719 22.3662 -6.60059 31.9004c0 1.46582 -4.0332 2.56641 -12.0996 3.2998c-2.2002 0 -5.86621 0.366211 -11 1.09961c0 -2.93359 -2.93359 -10.6328 -8.7998 -23.0996
c-7.33398 -11.7334 -15.4004 -17.6006 -24.2002 -17.6006c-21.2666 0 -34.0996 1.83398 -38.5 5.5c-4.40039 2.2002 -10.6338 7.7002 -18.7002 16.5c-8.7998 11.7334 -14.666 22.3672 -17.5996 31.9004c0 0.733398 -0.367188 2.2002 -1.10059 4.40039
c0 3.66602 9.16699 72.2334 27.5 205.699c3.66699 29.334 6.9668 61.6006 9.90039 96.8008h49.5h20.9004c-1.10059 -50.6006 -1.10059 -50.6006 -4.40039 -202.4c5.13379 -1.4668 9.16699 -2.2002 12.0996 -2.2002h1.10059c2.93359 0 6.2334 0.733398 9.89941 2.2002
c5.13379 44.7334 13.2002 112.2 24.2002 202.4h12.1006c9.5332 0.733398 28.5996 1.09961 57.1992 1.09961c0.733398 -33 3.30078 -99 7.7002 -198c5.13379 -2.2002 10.2666 -3.2998 15.4004 -3.2998c3.66602 0 7.7002 0.733398 12.0996 2.2002v4.39941
c0.733398 32.2666 2.56641 96.7998 5.5 193.601h79.2002c2.2002 -48.4004 2.2002 -48.4004 8.7998 -193.601c5.86719 -8.06641 11.3672 -12.0996 16.5 -12.0996c4.40039 0 9.16699 5.13281 14.2998 15.3994c0 39.6006 -0.366211 99 -1.09961 178.2v12.1006h39.5996h50.6006
c3.2998 -80.3008 3.2998 -80.3008 13.2002 -321.2c-11.7334 -35.2002 -28.6006 -52.7998 -50.6006 -52.7998h-2.2002c-11.7334 0 -24.5664 8.43262 -38.5 25.2998c-2.19922 2.2002 -5.86621 5.5 -11 9.89941c-2.93262 0 -8.7998 -0.366211 -17.5996 -1.09961
c-11 -30.7998 -19.7998 -47.667 -26.4004 -50.5996c-3.66602 -3.66699 -16.5 -5.5 -38.5 -5.5c-13.1992 0 -22.3662 11.3662 -27.5 34.0996c-1.46582 2.93359 -3.66602 10.2666 -6.59961 22c-9.90039 1.09961 -9.90039 1.09961 -29.7002 3.2998v-12.0996zM481.3 706
c0 17.5996 9.90039 35.9336 29.7002 55c44.7334 0 111.833 0.366211 201.3 1.09961v-112.199h-201.3c-19.7998 17.5996 -29.7002 36.2998 -29.7002 56.0996zM500 9.7002l487.3 487.3l-487.3 487.3c-81.4004 -80.666 -243.833 -243.1 -487.3 -487.3
c80.666 -81.4004 243.1 -243.833 487.3 -487.3zM492.3 279.2c-2.2002 -2.93359 -5.86621 -8.43359 -11 -16.5c-7.33301 -9.5332 -18.7002 -14.2998 -34.0996 -14.2998h-2.2002h-1.09961c-24.9336 0 -40.334 7.69922 -46.2002 23.0996
c-3.66699 11.7334 -5.86719 22.3662 -6.60059 31.9004c0 1.46582 -4.0332 2.56641 -12.0996 3.2998c-2.2002 0 -5.86621 0.366211 -11 1.09961c0 -2.93359 -2.93359 -10.6328 -8.7998 -23.0996c-7.33398 -11.7334 -15.4004 -17.6006 -24.2002 -17.6006
c-21.2666 0 -34.0996 1.83398 -38.5 5.5c-4.40039 2.2002 -10.6338 7.7002 -18.7002 16.5c-8.7998 11.7334 -14.666 22.3672 -17.5996 31.9004c0 0.733398 -0.367188 2.2002 -1.10059 4.40039c0 3.66602 9.16699 72.2334 27.5 205.699
c3.66699 29.334 6.9668 61.6006 9.90039 96.8008h49.5h20.9004c-1.10059 -50.6006 -1.10059 -50.6006 -4.40039 -202.4c5.13379 -1.4668 9.16699 -2.2002 12.0996 -2.2002h1.10059c2.93359 0 6.2334 0.733398 9.89941 2.2002c5.13379 44.7334 13.2002 112.2 24.2002 202.4
h12.1006c9.5332 0.733398 28.5996 1.09961 57.1992 1.09961c0.733398 -33 3.30078 -99 7.7002 -198c5.13379 -2.2002 10.2666 -3.2998 15.4004 -3.2998c3.66602 0 7.7002 0.733398 12.0996 2.2002v4.39941c0.733398 32.2666 2.56641 96.7998 5.5 193.601h79.2002
c2.2002 -48.4004 2.2002 -48.4004 8.7998 -193.601c5.86719 -8.06641 11.3672 -12.0996 16.5 -12.0996c4.40039 0 9.16699 5.13281 14.2998 15.3994c0 39.6006 -0.366211 99 -1.09961 178.2v12.1006h39.5996h50.6006c3.2998 -80.3008 3.2998 -80.3008 13.2002 -321.2
c-11.7334 -35.2002 -28.6006 -52.7998 -50.6006 -52.7998h-2.2002c-11.7334 0 -24.5664 8.43262 -38.5 25.2998c-2.19922 2.2002 -5.86621 5.5 -11 9.89941c-2.93262 0 -8.7998 -0.366211 -17.5996 -1.09961c-11 -30.7998 -19.7998 -47.667 -26.4004 -50.5996
c-3.66602 -3.66699 -16.5 -5.5 -38.5 -5.5c-13.1992 0 -22.3662 11.3662 -27.5 34.0996c-1.46582 2.93359 -3.66602 10.2666 -6.59961 22c-9.90039 1.09961 -9.90039 1.09961 -29.7002 3.2998v-12.0996zM481.3 706c0 17.5996 9.90039 35.9336 29.7002 55
c44.7334 0 111.833 0.366211 201.3 1.09961v-112.199h-201.3c-19.7998 17.5996 -29.7002 36.2998 -29.7002 56.0996zM500 9.7002l487.3 487.3l-487.3 487.3c-81.4004 -80.666 -243.833 -243.1 -487.3 -487.3c80.666 -81.4004 243.1 -243.833 487.3 -487.3zM492.3 279.2
c-2.2002 -2.93359 -5.86621 -8.43359 -11 -16.5c-7.33301 -9.5332 -18.7002 -14.2998 -34.0996 -14.2998h-2.2002h-1.09961c-24.9336 0 -40.334 7.69922 -46.2002 23.0996c-3.66699 11.7334 -5.86719 22.3662 -6.60059 31.9004c0 1.46582 -4.0332 2.56641 -12.0996 3.2998
c-2.2002 0 -5.86621 0.366211 -11 1.09961c0 -2.93359 -2.93359 -10.6328 -8.7998 -23.0996c-7.33398 -11.7334 -15.4004 -17.6006 -24.2002 -17.6006c-21.2666 0 -34.0996 1.83398 -38.5 5.5c-4.40039 2.2002 -10.6338 7.7002 -18.7002 16.5
c-8.7998 11.7334 -14.666 22.3672 -17.5996 31.9004c0 0.733398 -0.367188 2.2002 -1.10059 4.40039c0 3.66602 9.16699 72.2334 27.5 205.699c3.66699 29.334 6.9668 61.6006 9.90039 96.8008h49.5h20.9004c-1.10059 -50.6006 -1.10059 -50.6006 -4.40039 -202.4
c5.13379 -1.4668 9.16699 -2.2002 12.0996 -2.2002h1.10059c2.93359 0 6.2334 0.733398 9.89941 2.2002c5.13379 44.7334 13.2002 112.2 24.2002 202.4h12.1006c9.5332 0.733398 28.5996 1.09961 57.1992 1.09961c0.733398 -33 3.30078 -99 7.7002 -198
c5.13379 -2.2002 10.2666 -3.2998 15.4004 -3.2998c3.66602 0 7.7002 0.733398 12.0996 2.2002v4.39941c0.733398 32.2666 2.56641 96.7998 5.5 193.601h79.2002c2.2002 -48.4004 2.2002 -48.4004 8.7998 -193.601c5.86719 -8.06641 11.3672 -12.0996 16.5 -12.0996
c4.40039 0 9.16699 5.13281 14.2998 15.3994c0 39.6006 -0.366211 99 -1.09961 178.2v12.1006h39.5996h50.6006c3.2998 -80.3008 3.2998 -80.3008 13.2002 -321.2c-11.7334 -35.2002 -28.6006 -52.7998 -50.6006 -52.7998h-2.2002
c-11.7334 0 -24.5664 8.43262 -38.5 25.2998c-2.19922 2.2002 -5.86621 5.5 -11 9.89941c-2.93262 0 -8.7998 -0.366211 -17.5996 -1.09961c-11 -30.7998 -19.7998 -47.667 -26.4004 -50.5996c-3.66602 -3.66699 -16.5 -5.5 -38.5 -5.5
c-13.1992 0 -22.3662 11.3662 -27.5 34.0996c-1.46582 2.93359 -3.66602 10.2666 -6.59961 22c-9.90039 1.09961 -9.90039 1.09961 -29.7002 3.2998v-12.0996zM481.3 706c0 17.5996 9.90039 35.9336 29.7002 55c44.7334 0 111.833 0.366211 201.3 1.09961v-112.199h-201.3
c-19.7998 17.5996 -29.7002 36.2998 -29.7002 56.0996z" />
</svg>
