<?xml version="1.0" standalone="no"?>
<!DOCTYPE svg PUBLIC "-//W3C//DTD SVG 1.1//EN" "http://www.w3.org/Graphics/SVG/1.1/DTD/svg11.dtd" >
<svg xmlns="http://www.w3.org/2000/svg" xmlns:xlink="http://www.w3.org/1999/xlink" version="1.1" viewBox="-10 0 1010 1000">
   <path fill="currentColor"
d="M500 9.7002l487.3 487.3l-487.3 487.3c-81.4004 -80.666 -243.833 -243.1 -487.3 -487.3c80.666 -81.4004 243.1 -243.833 487.3 -487.3zM500 164.8c-6.59961 39.6006 -19.0664 119.9 -37.4004 240.9c-33 -24.2002 -99 -72.2334 -198 -144.101v1.10059
c24.2002 32.2666 72.2334 97.8994 144.101 196.899c-40.334 6.60059 -121 19.0674 -242 37.4004c40.333 6.59961 121 19.4336 242 38.5c-24.2002 32.2666 -72.2334 97.9004 -144.101 196.9c33 -24.2002 99 -72.2334 198 -144.101c5.86719 40.334 17.9668 121 36.3008 242
h1.09961c6.59961 -40.333 19.0664 -121 37.4004 -242c49.5 36.2998 49.5 36.2998 198 145.2v-1.09961c-24.2002 -33 -72.6006 -98.6338 -145.2 -196.9c40.333 -6.59961 121 -19.4336 242 -38.5c-40.334 -6.59961 -120.634 -19.0664 -240.9 -37.4004
c24.2002 -33 72.2334 -99 144.101 -198c-5.86719 4.40039 -71.8672 52.4336 -198 144.101c-8.06738 -53.5332 -20.5342 -133.834 -37.4004 -240.9z" />
</svg>
