<?xml version="1.0" standalone="no"?>
<!DOCTYPE svg PUBLIC "-//W3C//DTD SVG 1.1//EN" "http://www.w3.org/Graphics/SVG/1.1/DTD/svg11.dtd" >
<svg xmlns="http://www.w3.org/2000/svg" xmlns:xlink="http://www.w3.org/1999/xlink" version="1.1" viewBox="-10 0 1010 1000">
   <path fill="currentColor"
d="M500 9.7002l487.3 487.3l-487.3 487.3c-81.4004 -80.666 -243.833 -243.1 -487.3 -487.3c80.666 -81.4004 243.1 -243.833 487.3 -487.3zM167.8 494.8c0 68.2002 19.0664 130.533 57.2002 187c8.7998 13.9336 22.3662 31.167 40.7002 51.7002
c22 19.7998 40.333 34.0996 55 42.9004c55 35.1992 114.767 52.7998 179.3 52.7998c74.0664 0 141.533 -23.1006 202.4 -69.2998c9.5332 -6.60059 23.833 -19.8008 42.8994 -39.6006c19.0664 -22.7334 31.9004 -40.333 38.5 -52.7998
c11.7334 -17.5996 23.1006 -42.5332 34.1006 -74.7998c8.7998 -32.2666 13.1992 -61.9668 13.1992 -89.1006v-12.0996c0 -49.1338 -12.4658 -98.6338 -37.3994 -148.5c-36.667 -68.9336 -90.9336 -119.167 -162.8 -150.7c-1.4668 18.334 -3.30078 59.4004 -5.5 123.2
c-2.93359 33 -6.2334 59.7666 -9.90039 80.2998c-5.13379 24.9336 -11 46.9336 -17.5996 66c-11 26.4004 -24.2002 51.334 -39.6006 74.7998c-8.06641 11.7334 -21.2666 27.5 -39.5996 47.3008c-17.6006 17.5996 -31.9004 30.4326 -42.9004 38.5h-1.09961
c0.733398 -76.2666 2.2002 -228.434 4.39941 -456.5c-11 0 -30.7998 2.93262 -59.3994 8.7998c-24.2002 6.59961 -45.1006 13.9336 -62.7002 22c-18.333 8.7998 -38.5 20.8994 -60.5 36.2998c-10.2666 9.5332 -20.9004 19.4336 -31.9004 29.7002
c-22 23.4668 -37.7666 43.2666 -47.2998 59.3994c-9.5332 15.4004 -19.0664 35.2002 -28.5996 59.4004c-13.9336 39.5996 -20.9004 77.3662 -20.9004 113.3z" />
</svg>
