<?xml version="1.0" standalone="no"?>
<!DOCTYPE svg PUBLIC "-//W3C//DTD SVG 1.1//EN" "http://www.w3.org/Graphics/SVG/1.1/DTD/svg11.dtd" >
<svg xmlns="http://www.w3.org/2000/svg" xmlns:xlink="http://www.w3.org/1999/xlink" version="1.1" viewBox="-10 0 1010 1000">
   <path fill="currentColor"
d="M500 9.7002l487.3 487.3l-487.3 487.3c-81.4004 -80.666 -243.833 -243.1 -487.3 -487.3c80.666 -81.4004 243.1 -243.833 487.3 -487.3zM275.6 466.2c0 49.1328 7.7002 114.767 23.1006 196.899c9.5332 43.2666 20.166 77.3672 31.8994 102.301
c23.4668 54.2666 54.6338 81.3994 93.5 81.3994h3.30078l1.09961 -1.09961c0.733398 0 1.4668 0.366211 2.2002 1.09961c13.9336 0 41.0664 0.367188 81.3994 1.10059c38.1338 -0.733398 57.2002 -1.83398 57.2002 -3.30078c21.2666 -14.666 38.5 -27.8662 51.7002 -39.5996
c1.4668 -2.93359 4.40039 -6.59961 8.7998 -11c8.06641 -12.4668 14.667 -26.4004 19.7998 -41.7998c3.66699 -13.2002 9.16699 -32.6338 16.5 -58.2998c17.6006 -55 36.667 -111.101 57.2002 -168.301c-2.93359 -6.59961 -4.7666 -9.89941 -5.5 -9.89941
c-5.86621 -1.4668 -11.7334 -2.2002 -17.5996 -2.2002h-2.2002c-33.7334 0 -61.2334 29.333 -82.5 88c-3.66699 -0.733398 -9.5332 -1.4668 -17.5996 -2.2002c2.93262 -65.2666 9.16602 -195.434 18.6992 -390.5c0 -2.2002 -4.39941 -12.4668 -13.1992 -30.7998
c-3.66699 -6.59961 -8.80078 -9.90039 -15.4004 -9.90039c-7.33301 0 -17.2334 5.13379 -29.7002 15.4004c-2.2002 2.2002 -3.66602 9.16699 -4.39941 20.9004c-11 71.8662 -27.1338 179.3 -48.4004 322.3h-1.09961c-16.8672 -50.6006 -25.3008 -134.566 -25.3008 -251.9
c0 -40.333 0.733398 -80.666 2.2002 -121l-6.59961 -6.59961h-7.7002c-33 0 -64.9004 12.833 -95.7002 38.5c-16.8662 16.1328 -26.7666 27.5 -29.7002 34.0996c-12.4658 16.8672 -23.0996 35.2002 -31.8994 55c-22.7334 55.7334 -34.1006 119.533 -34.1006 191.4z
M471.4 533.3h1.09961c0 19.0664 11.3662 46.5664 34.0996 82.5c14.667 27.8672 24.9336 49.1338 30.8008 63.7998c3.66602 13.9336 5.5 24.9336 5.5 33v7.7002c0 17.6006 -6.2334 34.834 -18.7002 51.7002c-11.7334 13.2002 -28.6006 22.7334 -50.6006 28.5996
c-7.33301 -0.733398 -18.333 -4.7666 -33 -12.0996c-15.3994 -9.5332 -26.3994 -22.3662 -33 -38.5c-3.66602 -10.2666 -5.5 -20.5332 -5.5 -30.7998c0 -26.4004 12.4668 -59.0332 37.4004 -97.9004c21.2666 -35.9336 31.9004 -64.166 31.9004 -84.7002v-3.2998z" />
</svg>
