<?xml version="1.0" standalone="no"?>
<!DOCTYPE svg PUBLIC "-//W3C//DTD SVG 1.1//EN" "http://www.w3.org/Graphics/SVG/1.1/DTD/svg11.dtd" >
<svg xmlns="http://www.w3.org/2000/svg" xmlns:xlink="http://www.w3.org/1999/xlink" version="1.1" viewBox="-10 0 1010 1000">
   <path fill="currentColor"
d="M500 9.7002l487.3 487.3l-487.3 487.3c-81.4004 -80.666 -243.833 -243.1 -487.3 -487.3c80.666 -81.4004 243.1 -243.833 487.3 -487.3zM305.3 302.3c-0.733398 0.733398 -2.56641 1.10059 -5.5 1.10059c0 30.7998 14.2998 56.833 42.9004 78.0996
c17.5996 11.7334 37.0332 17.5996 58.2998 17.5996c32.2666 0 59.4004 -13.1992 81.4004 -39.5996c10.2666 -13.9336 15.7666 -27.1338 16.5 -39.5996h1.09961c1.4668 10.2666 6.59961 22.3662 15.4004 36.2998c8.06641 11 17.2334 20.166 27.5 27.5
c17.5996 10.2666 36.2998 15.3994 56.0996 15.3994h1.09961c30.8008 0 57.2002 -12.4658 79.2002 -37.3994c13.9336 -18.334 20.9004 -38.1338 20.9004 -59.4004c0 -26.3994 -11.3672 -49.8662 -34.1006 -70.3994c-19.7998 -17.6006 -42.166 -26.4004 -67.0996 -26.4004
c-27.1338 0 -51.7002 10.2666 -73.7002 30.7998c-12.4668 13.9336 -20.166 26.7666 -23.0996 38.5c-0.733398 2.2002 -1.4668 5.86719 -2.2002 11h-1.09961c-0.733398 -12.4668 -5.86719 -25.2998 -15.4004 -38.5c-22 -27.8662 -49.8662 -41.7998 -83.5996 -41.7998
c-28.6006 0 -53.5342 11.3662 -74.8008 34.0996c-13.9326 15.4004 -22 30.8008 -24.1992 46.2002c-0.733398 5.86719 -1.10059 11.3672 -1.10059 16.5h5.5zM292.1 488.2c0 4.39941 4.40039 29.7002 13.2002 75.8994c8.7998 48.4004 22.3672 121.367 40.7002 218.9
c0.733398 1.4668 2.93359 3.2998 6.59961 5.5c16.1338 0 49.1338 -0.366211 99 -1.09961c0.733398 -0.733398 2.93359 -2.56738 6.60059 -5.5c6.59961 -38.8672 20.166 -116.601 40.7002 -233.2h1.09961c22 126.866 35.9336 204.967 41.7998 234.3
c2.2002 1.4668 4.7666 2.93359 7.7002 4.40039c16.1338 0.733398 48.7666 1.09961 97.9004 1.09961c4.39941 -3.66699 6.59961 -6.2334 6.59961 -7.7002c33.7334 -178.934 50.9668 -275 51.7002 -288.2v-6.59961c0 -19.7998 -10.6338 -36.667 -31.9004 -50.5996
c-20.5332 -11.7334 -44.7334 -17.6006 -72.5996 -17.6006c-33 0 -61.2334 8.43359 -84.7002 25.2998c-11 9.53418 -16.5 15.4004 -16.5 17.6006h-1.09961c-8.06738 -14.667 -24.5674 -26.4004 -49.5 -35.2002c-16.1338 -5.13379 -33.3672 -7.7002 -51.7002 -7.7002
c-38.1338 0 -67.834 10.2666 -89.1006 30.7998c-1.46582 1.4668 -3.2998 4.03418 -5.5 7.7002c-7.33301 11 -11 21.6338 -11 31.9004z" />
</svg>
