<?xml version="1.0" standalone="no"?>
<!DOCTYPE svg PUBLIC "-//W3C//DTD SVG 1.1//EN" "http://www.w3.org/Graphics/SVG/1.1/DTD/svg11.dtd" >
<svg xmlns="http://www.w3.org/2000/svg" xmlns:xlink="http://www.w3.org/1999/xlink" version="1.1" viewBox="-10 0 1010 1000">
   <path fill="currentColor"
d="M500 9.7002l487.3 487.3l-487.3 487.3c-81.4004 -80.666 -243.833 -243.1 -487.3 -487.3c80.666 -81.4004 243.1 -243.833 487.3 -487.3zM381.2 378.2v-1.10059c0 -14.666 -6.9668 -31.8994 -20.9004 -51.6992c-8.7998 -11 -17.5996 -16.5 -26.3994 -16.5
c-22 0 -50.9668 6.59961 -86.9004 19.7998c-19.7998 8.7998 -40.333 20.166 -61.5996 34.0996c-10.2666 7.33398 -19.8008 15.4004 -28.6006 24.2002c17.6006 31.5332 50.2334 55.7334 97.9004 72.5996c23.4668 6.60059 41.7998 9.90039 55 9.90039
c16.1328 -0.733398 26.3994 -2.2002 30.7998 -4.40039c13.9336 -5.86621 26.7666 -20.5332 38.5 -44c0 -1.46582 5.86621 -2.93262 17.5996 -4.39941c67.4668 -12.4668 123.567 -18.7002 168.301 -18.7002h6.59961c77 0.733398 124.3 18.333 141.9 52.7998
c1.46582 2.93359 2.93262 7.33398 4.39941 13.2002c-0.733398 7.33301 -3.66602 15.0332 -8.7998 23.0996c-8.7998 12.4668 -19.0664 21.2666 -30.7998 26.4004c-15.4004 10.2666 -41.4336 20.5332 -78.1006 30.7998c-21.2666 5.13379 -52.0664 11 -92.3994 17.6006
c-42.5332 11.7334 -75.9004 22.7334 -100.101 33c-15.3994 6.59961 -28.5996 14.2998 -39.5996 23.0996c-14.667 11.7334 -24.2002 24.2002 -28.5996 37.4004c-4.40039 12.4658 -6.60059 23.833 -6.60059 34.0996c0 23.4668 15.4004 45.833 46.2002 67.0996
c13.9336 10.2666 26.7666 17.2334 38.5 20.9004c10.2666 3.66699 17.5996 6.9668 22 9.90039c21.2666 11 37.7666 20.5332 49.5 28.5996c13.2002 11.7334 19.7998 24.5664 19.7998 38.5c0 21.2666 -19.0664 35.2002 -57.2002 41.7998
c-2.93262 0 -7.69922 0.367188 -14.2998 1.10059c8.7998 3.66602 17.6006 5.5 26.4004 5.5h4.39941c22.7334 0 44.3672 -6.60059 64.9004 -19.8008c14.667 -11 22 -24.5664 22 -40.6992v-4.40039c0 -24.9336 -20.5332 -50.5996 -61.5996 -77
c-14.667 -10.2666 -36.667 -25.2998 -66 -45.0996c-13.2002 -8.80078 -19.8008 -16.5 -19.8008 -23.1006c0 -13.9336 35.5674 -25.2998 106.7 -34.0996c75.5332 -8.7998 131.634 -16.1338 168.3 -22c25.667 -3.66699 48.0342 -8.7998 67.1006 -15.4004
c34.4668 -12.4668 59.0332 -30.7998 73.7002 -55c12.4658 -23.4668 18.6992 -49.8662 18.6992 -79.2002c0.733398 -0.733398 1.10059 -1.46582 1.10059 -2.19922c-2.2002 -23.4668 -5.13379 -41.8008 -8.7998 -55c-6.60059 -22 -13.2002 -38.1338 -19.8008 -48.4004
c-2.93262 -8.06641 -11.3662 -18.333 -25.2998 -30.7998c-1.4668 -2.2002 -4.39941 -4.7666 -8.7998 -7.7002c-11.7334 -7.33301 -23.0996 -13.2002 -34.0996 -17.5996c-38.8672 -14.667 -77.3672 -22 -115.5 -22h-8.80078c-60.8662 0 -128.333 17.9658 -202.399 53.8994
c-8.7998 4.40039 -21.6338 11.3672 -38.5 20.9004z" />
</svg>
