<?xml version="1.0" standalone="no"?>
<!DOCTYPE svg PUBLIC "-//W3C//DTD SVG 1.1//EN" "http://www.w3.org/Graphics/SVG/1.1/DTD/svg11.dtd" >
<svg xmlns="http://www.w3.org/2000/svg" xmlns:xlink="http://www.w3.org/1999/xlink" version="1.1" viewBox="-10 0 1010 1000">
   <path fill="currentColor"
d="M500 9.7002l487.3 487.3l-487.3 487.3c-81.4004 -80.666 -243.833 -243.1 -487.3 -487.3c80.666 -81.4004 243.1 -243.833 487.3 -487.3zM365.8 336.4c14.667 11 32.2666 16.5 52.7998 16.5c6.60059 0.733398 16.8672 1.46582 30.8008 2.19922
c1.46582 5.86719 2.19922 12.834 2.19922 20.9004v2.2002c0 19.7998 -6.59961 40.333 -19.7998 61.5996h-1.09961c-3.66699 -5.13281 -11.7334 -15.3994 -24.2002 -30.7998c-4.40039 -5.13379 -13.5664 -15.7666 -27.5 -31.9004h-233.2
c17.6006 17.6006 53.167 52.8008 106.7 105.601c55.7334 55.7334 92.7666 94.5996 111.1 116.6c24.2002 27.8672 41.8008 49.8672 52.8008 66c18.333 25.667 30.7998 47.2998 37.3994 64.9004c3.66699 8.06641 5.5 12.4668 5.5 13.2002
c-16.8662 22.7334 -42.166 56.0996 -75.8994 100.1h246.399c-13.9336 -16.1338 -40.7002 -48.7666 -80.2998 -97.9004c13.2002 -28.5996 30.7998 -59.0332 52.7998 -91.2998c21.2666 -29.333 48.0332 -63.0664 80.2998 -101.2
c19.8008 -22.7334 55.7334 -60.8662 107.801 -114.399c13.9326 -13.9336 35.1992 -34.4668 63.7998 -61.6006h-233.2c-2.93359 2.93359 -14.2998 20.167 -34.0996 51.7002c-2.93359 4.40039 -7.7002 10.6338 -14.3008 18.7002
c-0.733398 0 -2.93262 -5.86621 -6.59961 -17.5996c-9.5332 -24.2002 -17.5996 -51.334 -24.2002 -81.4004c-6.59961 -31.5332 -9.89941 -55.3662 -9.89941 -71.5h-61.6006c-22.7334 16.8662 -45.4668 31.167 -68.2002 42.9004
c-14.666 6.59961 -26.7666 12.0996 -36.2998 16.5z" />
</svg>
