<?xml version="1.0" standalone="no"?>
<!DOCTYPE svg PUBLIC "-//W3C//DTD SVG 1.1//EN" "http://www.w3.org/Graphics/SVG/1.1/DTD/svg11.dtd" >
<svg xmlns="http://www.w3.org/2000/svg" xmlns:xlink="http://www.w3.org/1999/xlink" version="1.1" viewBox="-10 0 1010 1000">
   <path fill="currentColor"
d="M500 11.7002l487.3 487.3l-487.3 487.3c-81.4004 -80.666 -243.833 -243.1 -487.3 -487.3c80.666 -81.4004 243.1 -243.833 487.3 -487.3zM757.4 290c-9.53418 -13.2002 -28.9668 -23.833 -58.3008 -31.9004c-14.666 -3.66602 -28.9658 -5.5 -42.8994 -5.5
s-27.1338 1.83398 -39.6006 5.5c-39.5996 11.7334 -67.4658 35.9336 -83.5996 72.6006c-13.2002 30.0664 -19.7998 56.833 -19.7998 80.2998c0 5.13379 0.366211 9.90039 1.09961 14.2998c3.66699 27.1338 10.2666 40.334 19.7998 39.6006
c10.2666 0 19.4336 -2.56738 27.5 -7.7002c5.86719 -2.93359 13.2002 -12.834 22 -29.7002c8.06738 -16.8662 18.7002 -33.7334 31.9004 -50.5996c7.33301 -8.80078 15.4004 -17.2334 24.2002 -25.3008c8.06641 -8.06641 17.2334 -14.2998 27.5 -18.6992
c29.333 -12.4668 53.8994 -13.2002 73.7002 -2.2002l28.5996 16.5c5.86621 1.4668 8.7998 -0.733398 8.7998 -6.60059c0 -2.93262 -0.733398 -6.59961 -2.2002 -11c-3.66602 -14.666 -9.89941 -27.8662 -18.6992 -39.5996zM814.6 578.2
c-3.66602 -3.66699 -11 6.9668 -22 31.8994c-11.7334 25.667 -28.5996 49.1338 -50.5996 70.4004c-9.5332 8.7998 -20.167 16.5 -31.9004 23.0996c-11.7334 5.86719 -24.9326 9.16699 -39.5996 9.90039c-13.9336 0.733398 -13.2002 -13.9336 2.2002 -44
c16.1328 -30.7998 34.0996 -65.2666 53.8994 -103.4c12.4668 -24.9326 23.834 -49.5 34.1006 -73.6992c10.2666 -24.2002 15.3994 -44 15.3994 -59.4004c-0.733398 -33.7334 -6.59961 -55.3662 -17.5996 -64.9004c-11 -9.5332 -24.2002 -15.3994 -39.5996 -17.5996
c-4.40039 -0.733398 -8.06738 -1.09961 -11 -1.09961c-11.7334 0 -22 2.93262 -30.8008 8.7998c-11 7.33301 -15.3994 16.8662 -13.1992 28.5996l14.2998 12.1006c9.5332 8.7998 13.9336 21.2666 13.2002 37.3994c-0.733398 14.667 -7.7002 35.9336 -20.9004 63.7998
c-13.2002 28.6006 -24.2002 53.5342 -33 74.8008c-11.7334 27.1328 -20.5332 50.2334 -26.4004 69.2998c-5.13281 19.7998 -8.06641 36.2998 -8.7998 49.5c-0.733398 4.39941 -1.09961 8.43359 -1.09961 12.0996c0 18.334 3.66602 31.167 11 38.5
c8.06641 8.7998 14.2998 15.4004 18.7002 19.7998c2.93262 2.2002 7.69922 3.30078 14.2998 3.30078h1.09961c6.60059 0 14.2998 -1.10059 23.1006 -3.30078c17.5996 -5.13281 37.7666 -15.7666 60.5 -31.8994c22.7334 -16.1338 42.8994 -39.9668 60.5 -71.5
c19.7998 -35.2002 30.0664 -56.4668 30.7998 -63.7998v-2.2002c0 -6.60059 -2.2002 -12.1006 -6.60059 -16.5zM482.4 426.4c0.733398 -4.40039 1.09961 -9.16699 1.09961 -14.3008c0 -23.4658 -6.59961 -50.2334 -19.7998 -80.2998
c-16.1338 -35.9336 -43.6338 -59.7666 -82.5 -71.5c-13.2002 -4.39941 -26.7666 -6.59961 -40.7002 -6.59961s-27.8662 2.2002 -41.7998 6.59961c-29.334 8.06641 -48.7666 18.7002 -58.2998 31.9004c-8.80078 11 -15.4004 23.833 -19.8008 38.5
c-0.733398 4.39941 -1.09961 8.06641 -1.09961 11c0 5.86621 2.93359 8.06641 8.7998 6.59961l28.6006 -16.5c19.7998 -11 44 -10.2666 72.5996 2.2002c10.2666 4.40039 19.7998 10.6338 28.5996 18.7002c8.06738 8.06641 15.7666 16.5 23.1006 25.2998
c13.2002 16.8662 23.833 33.7334 31.8994 50.5996c8.80078 16.8672 16.1338 26.7666 22 29.7002c8.06738 5.13379 17.2334 7.7002 27.5 7.7002c9.53418 0.733398 16.1338 -12.4668 19.8008 -39.5996zM183.2 579.3c-4.40039 4.40039 -6.60059 9.5332 -6.60059 15.4004v2.2002
c0.733398 8.06641 11 29.333 30.8008 63.7998c27.1328 49.1328 58.2998 79.9336 93.5 92.3994c24.9326 8.80078 42.8994 13.2002 53.8994 13.2002c5.13379 0 8.7998 -0.733398 11 -2.2002c2.2002 -2.19922 5.5 -5.13281 9.90039 -8.7998
c3.66602 -2.93359 7.33301 -7.33301 11 -13.2002c5.13281 -9.5332 7.7002 -24.1992 7.7002 -44v-9.89941c-1.4668 -24.9336 -12.834 -62.334 -34.1006 -112.2c-9.5332 -21.2666 -20.8994 -46.2002 -34.0996 -74.7998c-12.4668 -28.6006 -19.0664 -49.8672 -19.7998 -63.7998
c-1.4668 -16.1338 2.56641 -28.6006 12.0996 -37.4004l14.2998 -12.0996c2.2002 -11 -2.2002 -20.5342 -13.2002 -28.6006c-8.7998 -5.13281 -18.6992 -7.7002 -29.6992 -7.7002h-11c-16.1338 2.93359 -29.334 8.80078 -39.6006 17.6006
c-11 9.5332 -16.8662 31.166 -17.5996 64.8994c0 15.4004 5.13281 35.2002 15.3994 59.4004c9.53418 24.2002 20.9004 48.7666 34.1006 73.7002c19.7998 37.3994 37.3994 71.5 52.7998 102.3c15.4004 30.0664 16.5 45.0996 3.2998 45.0996
c-14.666 -0.733398 -27.8662 -4.39941 -39.5996 -11c-11.7334 -5.86621 -22.3672 -13.5664 -31.9004 -23.0996c-22.7334 -21.2666 -39.5996 -44.3662 -50.5996 -69.2998s-18.334 -35.5664 -22 -31.9004z" />
</svg>
