<?xml version="1.0" standalone="no"?>
<!DOCTYPE svg PUBLIC "-//W3C//DTD SVG 1.1//EN" "http://www.w3.org/Graphics/SVG/1.1/DTD/svg11.dtd" >
<svg xmlns="http://www.w3.org/2000/svg" xmlns:xlink="http://www.w3.org/1999/xlink" version="1.1" viewBox="-10 0 1010 1000">
   <path fill="currentColor"
d="M500 14.7002l487.3 487.3l-487.3 487.3c-81.4004 -80.666 -243.833 -243.1 -487.3 -487.3c80.666 -81.4004 243.1 -243.833 487.3 -487.3zM327.3 239.1v3.30078c-1.09961 2.19922 -1.09961 2.19922 -4.39941 8.7998c-5.13379 12.4668 -7.7002 24.2002 -7.7002 35.2002
v2.19922c3.66602 4.40039 5.86621 6.60059 6.59961 6.60059c17.6006 3.66602 33.7334 5.5 48.4004 5.5c23.4668 0 49.1328 -5.13379 77 -15.4004c2.93359 -2.93359 4.39941 -5.86621 4.39941 -8.7998c0.733398 -2.93359 2.2002 -10.2666 4.40039 -22
c10.2666 -1.4668 21.2666 -2.2002 33 -2.2002h5.5c51.333 0 100.1 16.5 146.3 49.5c9.5332 7.33398 20.9004 17.9668 34.1006 31.9004c43.2666 49.1328 64.8994 104.866 64.8994 167.2c0 60.8662 -20.5332 115.5 -61.5996 163.899
c-17.6006 19.0664 -28.9668 30.0664 -34.1006 33c-8.06641 6.60059 -19.0664 13.5664 -33 20.9004c-38.8662 19.7998 -76.6328 29.7002 -113.3 29.7002h-12.0996c-44 0 -87.2666 -13.2002 -129.8 -39.6006c-11 -6.59961 -25.3008 -18.7002 -42.9004 -36.2998
c-23.4668 -25.667 -39.5996 -49.1338 -48.4004 -70.4004c-14.666 -32.2666 -22 -64.5332 -22 -96.7998v-8.7998c0 -46.9336 14.667 -92.4004 44 -136.4c7.33398 -10.2666 16.8672 -22 28.6006 -35.1992c2.2002 -1.4668 5.5 -4.40039 9.89941 -8.80078h-34.0996v-48.3994
c-5.86621 4.39941 -16.1338 14.666 -30.7998 30.7998c-1.4668 1.4668 -3.66699 4.0332 -6.60059 7.7002c-45.4658 59.3994 -68.1992 125.033 -68.1992 196.899c0 78.4668 27.5 149.233 82.5 212.301c21.2666 22 35.9326 35.1992 44 39.5996
c18.333 13.2002 37.0332 24.5664 56.0996 34.0996c43.2666 19.0674 85.0664 28.6006 125.4 28.6006h13.1992c46.9336 0 95.334 -13.2002 145.2 -39.6006c15.4004 -8.7998 33 -20.8994 52.7998 -36.2998c22 -20.5332 34.834 -33.3662 38.5 -38.5
c13.2002 -17.5996 23.4668 -33.3662 30.8008 -47.2998c27.1328 -47.667 40.6992 -99 40.6992 -154c0 -63.7998 -18.6992 -122.833 -56.0996 -177.1c-6.59961 -11.7334 -20.167 -27.8672 -40.7002 -48.4004c-23.4668 -21.2666 -43.6328 -36.2998 -60.5 -45.0996
c-15.3994 -9.53418 -30.4336 -17.2334 -45.0996 -23.1006c-37.4004 -13.2002 -72.6006 -19.7998 -105.601 -19.7998h-13.1992c-17.6006 0 -39.6006 2.56641 -66 7.7002c-12.4668 -5.13379 -21.6338 -8.06641 -27.5 -8.7998c-2.93359 0 -6.60059 1.46582 -11 4.39941
c-13.9336 6.60059 -28.9668 17.2334 -45.1006 31.9004c-2.2002 2.93359 -5.86621 7.33301 -11 13.2002c-0.733398 0 -2.56641 0.733398 -5.5 2.19922z" />
</svg>
