<?xml version="1.0" standalone="no"?>
<!DOCTYPE svg PUBLIC "-//W3C//DTD SVG 1.1//EN" "http://www.w3.org/Graphics/SVG/1.1/DTD/svg11.dtd" >
<svg xmlns="http://www.w3.org/2000/svg" xmlns:xlink="http://www.w3.org/1999/xlink" version="1.1" viewBox="-10 0 1010 1000">
   <path fill="currentColor"
d="M500 9.7002l487.3 487.3l-487.3 487.3c-81.4004 -80.666 -243.833 -243.1 -487.3 -487.3c80.666 -81.4004 243.1 -243.833 487.3 -487.3zM498.9 42.7002c-113.301 113.3 -113.301 113.3 -454.301 454.3l455.4 455.4c75.5332 -76.2666 227.333 -228.067 455.4 -455.4
c-76.2666 -75.5332 -228.434 -226.967 -456.5 -454.3zM500 82.2998c68.9336 69.667 207.167 207.9 414.7 414.7c-69.667 68.9336 -207.9 207.167 -414.7 414.7l-414.7 -414.7zM274.5 324.3c5.13379 4.40039 32.2666 32.2666 81.4004 83.6006
c3.66602 4.39941 9.89941 11 18.6992 19.7998c22.7334 -35.9336 67.4668 -107.8 134.2 -215.601h-7.7002c-69.666 0 -132 23.1006 -187 69.3008c-18.333 16.8662 -30.0664 28.9658 -35.1992 36.2998c-0.733398 1.4668 -2.2002 3.66602 -4.40039 6.59961zM509.9 212.1
c6.59961 35.9336 13.9326 69.3008 22 100.101c6.59961 26.3994 16.1328 66 28.5996 118.8c25.667 -20.5332 76.6338 -61.5996 152.9 -123.2c0 -0.733398 -5.5 -6.9668 -16.5 -18.7002c-22.7334 -20.5332 -43.6338 -35.1992 -62.7002 -44
c-12.4668 -6.59961 -25.667 -12.4658 -39.6006 -17.5996c-28.5996 -8.7998 -47.666 -13.2002 -57.1992 -13.2002c-5.86719 -0.733398 -15.0342 -1.4668 -27.5 -2.2002zM490.1 322.1c-13.9326 22.7334 -42.5332 68.5674 -85.7998 137.5
c8.7998 9.53418 26.7666 27.8672 53.9004 55c11 -8.7998 33 -26.7666 66 -53.8994c-5.13379 -22.7334 -16.1338 -68.9336 -33 -138.601h-1.10059zM572.6 477.2c10.2666 45.4668 31.9004 136.399 64.9004 272.8c10.2666 -5.13379 24.9336 -15.0332 44 -29.7002
c20.5332 -17.5996 35.5664 -32.6328 45.0996 -45.0996c40.334 -54.2666 60.5 -113.3 60.5 -177.101c0 -55.7334 -15.3994 -107.8 -46.1992 -156.199c-111.467 88.7334 -167.567 133.833 -168.301 135.3zM215.1 494.8v6.60059c0 43.2666 10.6338 86.5332 31.9004 129.8
h1.09961c16.8672 -27.8672 51.334 -83.2334 103.4 -166.101c-16.8662 -17.5996 -50.2334 -52.7998 -100.1 -105.6c-7.33398 11.7334 -14.667 27.8662 -22 48.4004c-9.53418 29.333 -14.3008 58.2998 -14.3008 86.8994zM382.3 497
c-16.8662 26.4004 -50.2334 79.9336 -100.1 160.6c5.86621 -5.13281 53.166 -44 141.899 -116.6c-9.5332 -9.5332 -23.4658 -24.2002 -41.7998 -44zM487.9 546.5c12.4658 13.2002 37.7666 39.9668 75.8994 80.2998h1.10059
c-5.13379 -19.7998 -14.667 -60.1328 -28.6006 -121c-8.06641 7.33398 -24.2002 20.9004 -48.3994 40.7002zM325.1 724.7c2.93359 2.2002 8.06738 5.5 15.4004 9.89941c49.1338 33 102.667 49.5 160.6 49.5c44 0 86.5342 -9.89941 127.601 -29.6992
c-33.7334 -34.4668 -91.667 -94.6006 -173.8 -180.4l-1.10059 -1.09961c-26.3994 20.5332 -78.833 62.333 -157.3 125.399c5.13379 4.40039 14.667 13.2002 28.5996 26.4004z" />
</svg>
