<?xml version="1.0" standalone="no"?>
<!DOCTYPE svg PUBLIC "-//W3C//DTD SVG 1.1//EN" "http://www.w3.org/Graphics/SVG/1.1/DTD/svg11.dtd" >
<svg xmlns="http://www.w3.org/2000/svg" xmlns:xlink="http://www.w3.org/1999/xlink" version="1.1" viewBox="-10 0 1010 1000">
   <path fill="currentColor"
d="M500 9.7002l487.3 487.3l-487.3 487.3c-81.4004 -80.666 -243.833 -243.1 -487.3 -487.3c80.666 -81.4004 243.1 -243.833 487.3 -487.3zM371.3 214.3c10.2666 37.4004 21.2666 96.0664 33 176c4.40039 24.2002 9.16699 48.7666 14.2998 73.7002h-8.7998
c-6.59961 -24.2002 -19.4336 -71.8662 -38.5 -143c-4.39941 -11.7334 -13.9336 -34.833 -28.5996 -69.2998c-14.667 -8.06641 -26.7666 -12.1006 -36.2998 -12.1006h-3.30078c-13.1992 0 -24.1992 8.80078 -33 26.4004v1.09961c23.4668 56.4668 46.9336 133.467 70.4004 231
c4.40039 13.2002 6.59961 23.4668 6.59961 30.8008c0 9.5332 -2.56641 16.1328 -7.69922 19.7998h-7.7002c-11.7334 0 -25.2998 -9.16699 -40.7002 -27.5c-8.7998 -10.2666 -24.5664 -39.9668 -47.2998 -89.1006c-13.2002 -4.39941 -24.2002 -6.59961 -33 -6.59961h-2.2002
c-14.667 0 -23.4668 7.33301 -26.4004 22v12.0996c0 5.13379 7.33398 22.7334 22 52.8008c8.80078 16.1328 19.4336 33 31.9004 50.5996c25.667 24.9336 41.0664 40.333 46.2002 46.2002c11 13.2002 16.8662 23.0996 17.5996 29.7002
c16.8672 37.3994 35.2002 92.7666 55 166.1c0.733398 0 1.10059 1.09961 1.10059 3.2998v1.10059c0.733398 0 1.09961 0.733398 1.09961 2.19922h279.4c1.46582 0 5.13281 -6.96582 11 -20.8994c9.5332 -28.6006 18.333 -50.6006 26.3994 -66
c2.2002 -2.93359 17.2334 -17.2334 45.1006 -42.9004c24.1992 -20.5332 37.3994 -31.5332 39.5996 -33c11.7334 -6.59961 28.9668 -16.5 51.7002 -29.7002c16.8662 -9.5332 31.5332 -19.7998 44 -30.7998c3.66602 -6.59961 5.5 -13.5664 5.5 -20.8994
c0 -15.4004 -6.9668 -27.1338 -20.9004 -35.2002c-4.39941 -1.4668 -8.06641 -2.2002 -11 -2.2002h-4.39941c-2.93359 0 -11.3672 3.2998 -25.3008 9.90039c-35.1992 17.5996 -61.9658 30.0664 -80.2998 37.3994c-21.2666 8.7998 -42.166 13.2002 -62.7002 13.2002h-2.19922
c-16.8672 0 -28.6006 -4.0332 -35.2002 -12.0996c-9.5332 -10.2666 -14.2998 -24.9336 -14.2998 -44v-7.7002c0 -29.334 9.16602 -71.5 27.5 -126.5v-1.10059c0 -35.1992 9.89941 -74.7998 29.6992 -118.8c0 -2.2002 0.367188 -5.13281 1.10059 -8.7998v-1.09961
c0 -16.1338 -7.33398 -30.4336 -22 -42.9004c-7.33398 -3.66699 -14.667 -5.5 -22 -5.5c-12.4668 0 -25.667 5.86621 -39.6006 17.5996c-13.1992 74.0674 -24.1992 133.467 -33 178.2c0 11.7334 -5.86621 25.667 -17.5996 41.7998
c-5.86621 5.86719 -11.3662 8.80078 -16.5 8.80078c-2.2002 0 -6.59961 -8.80078 -13.2002 -26.4004c-5.86621 -16.1338 -11.7334 -42.167 -17.5996 -78.0996c-9.5332 -60.8672 -18.334 -110.733 -26.4004 -149.601c-2.93359 -5.86621 -6.9668 -11.7334 -12.0996 -17.5996
c-8.7998 -8.7998 -21.2666 -13.2002 -37.4004 -13.2002c-16.1328 0 -27.1328 9.16699 -33 27.5v3.2998zM406.5 233c5.13379 0 7.7002 0.366211 7.7002 1.09961c-0.733398 0.733398 -1.10059 1.83398 -1.10059 3.30078c2.93359 8.06641 9.16699 14.666 18.7002 19.7998
l2.2002 1.09961v1.10059c-3.66699 1.46582 -10.2666 3.66602 -19.7998 6.59961h-1.10059c-2.19922 -1.4668 -4.0332 -5.5 -5.5 -12.0996c-1.46582 -2.93359 -2.19922 -9.53418 -2.19922 -19.8008zM608.9 259.4h5.5c0 0.733398 0.366211 1.46582 1.09961 2.19922
c-1.4668 3.66699 -2.56641 8.43359 -3.2998 14.3008c0.733398 5.86621 1.83301 9.89941 3.2998 12.0996c-0.733398 0 -1.09961 0.366211 -1.09961 1.09961h-19.8008c-0.733398 -0.733398 -1.09961 -1.46582 -1.09961 -2.19922c2.2002 -7.33398 6.9668 -16.5 14.2998 -27.5
h1.10059zM414.2 283.6h1.09961c13.2002 0.733398 19.7998 1.4668 19.7998 2.2002c2.93359 12.4668 7.33398 30.7998 13.2002 55v1.10059h-25.2998c-0.733398 0 -1.83301 -4.7666 -3.2998 -14.3008l-6.60059 -42.8994zM311.9 289.1
c4.39941 3.66699 13.1992 11.3672 26.3994 23.1006c0 1.4668 -0.366211 2.2002 -1.09961 2.2002h-20.9004c-1.4668 -1.4668 -5.13281 -9.16699 -11 -23.1006c0 -1.4668 2.2002 -2.2002 6.60059 -2.2002zM607.8 311.1v1.10059
c-5.13281 30.0664 -8.06641 45.833 -8.7998 47.2998v1.09961c-2.93359 0 -8.43359 -0.366211 -16.5 -1.09961l-1.09961 -1.09961c1.46582 -8.06738 3.2998 -23.4668 5.5 -46.2002c0 -0.733398 6.2334 -1.10059 18.6992 -1.10059h2.2002zM343.8 337.5l18.7002 49.5
c0 2.2002 -3.66699 3.2998 -11 3.2998h-12.0996c-0.733398 0 -5.86719 -16.5 -15.4004 -49.5c1.4668 -0.733398 8.06641 -1.83301 19.7998 -3.2998zM424.1 368.3c16.8672 0 25.3008 0.367188 25.3008 1.10059c5.86621 33 13.9326 82.5 24.1992 148.5h-2.19922h-19.8008
c-1.46582 0 -10.6328 -49.5 -27.5 -148.5v-1.10059zM577 389.2h12.0996c2.93359 0 4.7666 0.366211 5.5 1.09961c-6.59961 27.8672 -15.7666 69.2998 -27.5 124.3c0 0.733398 -4.7666 1.83398 -14.2998 3.30078h-2.2002v-1.10059
c4.40039 -21.2666 12.834 -63.7998 25.3008 -127.6h1.09961zM360.3 422.2c1.4668 0 4.0332 5.86621 7.7002 17.5996c8.06641 21.2666 20.167 53.5332 36.2998 96.7998c-0.733398 0 -1.09961 0.733398 -1.09961 2.2002h-27.5c-0.733398 0 -2.56641 -7.7002 -5.5 -23.0996
c-5.13379 -19.7998 -12.4668 -49.1338 -22 -88c0 -1.4668 4.0332 -3.2998 12.0996 -5.5zM220.6 457.4h1.10059c0.733398 0 7.7002 10.2666 20.8994 30.7998c0 2.2002 -2.93262 3.2998 -8.7998 3.2998c0 0.733398 -2.93359 1.4668 -8.7998 2.2002
c-0.733398 0 -1.83301 -3.66699 -3.2998 -11c-1.4668 -5.13379 -3.2998 -12.4668 -5.5 -22c0 -0.733398 1.4668 -1.83398 4.39941 -3.2998zM248.1 505.8c1.4668 0 2.93359 2.93359 4.40039 8.7998c3.66699 5.86719 9.5332 12.834 17.5996 20.9004v1.09961
c0 0.733398 -3.66602 3.30078 -11 7.7002h-1.09961c-1.4668 -0.733398 -7.33301 -8.43359 -17.5996 -23.0996c-3.66699 -5.13379 -5.5 -8.06641 -5.5 -8.7998c0 -1.4668 4.39941 -3.30078 13.1992 -5.5v-1.10059zM472.5 553.1
c6.59961 39.6006 19.7998 117.7 39.5996 234.301c0 1.46582 -6.96582 2.56641 -20.8994 3.2998c-0.733398 0 -14.667 -79.2002 -41.7998 -237.601h11h12.0996zM545.1 553.1c4.40039 0 13.2002 0.367188 26.4004 1.10059c0 0.733398 0.366211 1.09961 1.09961 1.09961
v1.10059c-4.39941 38.1328 -13.1992 114.767 -26.3994 229.899v1.10059c-13.2002 -0.733398 -20.5332 -1.83398 -22 -3.30078c6.59961 -77 6.59961 -77 19.7998 -231h1.09961zM291 560.8c20.5332 11.7334 31.9004 18.334 34.0996 19.7998v2.2002
c-4.39941 2.2002 -12.4658 5.86719 -24.1992 11c-16.1338 -12.4668 -25.3008 -19.7998 -27.5 -22v-1.09961c10.2666 -6.60059 16.1328 -9.90039 17.5996 -9.90039zM819 561.9v1.09961c-11.7334 16.8662 -18.7002 26.0332 -20.9004 27.5l-49.5 25.2998
c-2.19922 0 -3.2998 -5.5 -3.2998 -16.5c1.4668 -1.4668 8.43359 -6.9668 20.9004 -16.5c11.7334 -8.7998 19.0664 -13.2002 22 -13.2002c6.59961 -2.19922 16.1328 -4.7666 28.5996 -7.69922h1.10059h1.09961zM414.2 564.1c13.2002 56.1006 13.2002 56.1006 52.7998 224.4
c0 1.4668 -7.33301 2.2002 -22 2.2002v1.09961c-2.2002 0 -26.7666 -70.3994 -73.7002 -211.2c0 -0.733398 14.2998 -6.2334 42.9004 -16.5zM717.8 614.7c2.2002 2.2002 6.60059 7.7002 13.2002 16.5c0 1.4668 -11 9.5332 -33 24.2002
c-22.7334 13.9326 -36.2998 22.3662 -40.7002 25.2998h-1.09961c-12.4668 -8.06641 -19.0664 -12.4668 -19.7998 -13.2002v-1.09961c13.1992 -8.80078 39.9658 -26.0342 80.2998 -51.7002h1.09961zM337.2 616.9c1.4668 1.46582 23.0996 59.3994 64.8994 173.8
c0 1.4668 -6.2334 2.93359 -18.6992 4.39941h-1.10059c-2.2002 0 -23.833 -57.9326 -64.8994 -173.8c0.733398 -1.4668 7.33301 -2.93359 19.7998 -4.39941zM604.5 695c19.0664 1.4668 28.5996 2.56641 28.5996 3.2998c-13.1992 23.1006 -13.1992 23.1006 -52.7998 92.4004
c-11.7334 -3.66699 -17.5996 -6.60059 -17.5996 -8.7998c8.7998 -19.0674 22.7334 -48.0342 41.7998 -86.9004z" />
</svg>
