<?xml version="1.0" standalone="no"?>
<!DOCTYPE svg PUBLIC "-//W3C//DTD SVG 1.1//EN" "http://www.w3.org/Graphics/SVG/1.1/DTD/svg11.dtd" >
<svg xmlns="http://www.w3.org/2000/svg" xmlns:xlink="http://www.w3.org/1999/xlink" version="1.1" viewBox="-10 0 1010 1000">
   <path fill="currentColor"
d="M452.15 9.7002c7.69922 7.7002 7.69922 7.7002 33 33c-2.2002 10.2666 -6.9668 30.7998 -14.3008 61.5996c-7.33301 22.7334 -14.666 50.2334 -22 82.5c-0.733398 12.4668 -5.17676 33.2275 -18.6992 59.4004c-9.21094 17.8271 -16.8672 31.8994 -17.6006 45.0996
c-3.52246 27.0039 -26.3994 106.73 -26.3994 143v4.40039c0 19.7998 2.56641 38.8662 7.69922 57.2002c4.40039 5.86621 10.6338 14.666 18.7002 26.3994c2.2002 2.93359 3.2998 5.5 3.2998 7.7002v1.09961c0 17.248 -7.19336 17.0645 -18.6992 20.9004
c-3.66699 4.40039 -5.5 10.2666 -5.5 17.5996v5.5c0 9.53418 4.39941 17.2334 13.1992 23.1006c16.1338 6.59961 24.2002 11.7334 24.2002 15.3994c0.733398 0.733398 1.10059 2.56738 1.10059 5.5v3.30078c0 3.66602 -3.66699 8.43262 -11 14.2998
c-2.2002 3.66602 -3.30078 10.6328 -3.30078 20.8994c-1.46582 8.06738 -3.2998 12.1006 -5.5 12.1006c-5.86621 5.86621 -8.7998 10.2666 -8.7998 13.2002c0 5.13281 7.33398 12.833 22 23.0996c10.2666 8.06641 15.4004 14.2998 15.4004 18.7002v2.2002
c0 4.39941 -4.7666 6.59961 -14.2998 6.59961c-19.0674 0 -37.0342 -13.2002 -53.9004 -39.5996c-5.13379 -8.80078 -8.7998 -20.5342 -11 -35.2002l-16.5 -23.1006c-7.08496 -22.2627 -13.2051 -34.0996 -34.0996 -34.0996
c-4.40039 0.733398 -10.6338 1.4668 -18.7002 2.2002c-5.13379 0 -12.1006 -19.7998 -20.9004 -59.4004c-7.27637 -24.9492 -9.38867 -36.2998 -30.7998 -36.2998c-13.2002 0.733398 -19.7998 3.2998 -19.7998 7.7002v1.09961
c0.733398 1.4668 1.09961 2.93359 1.09961 4.40039c-2.2002 -1.4668 -7.7002 -7.33398 -16.5 -17.6006c-52.7998 -60.8662 -87.2666 -91.2998 -103.399 -91.2998c-1.4668 0 -2.93359 0.367188 -4.40039 1.10059c-8.06641 -1.4668 -18.7002 -5.13379 -31.9004 -11
c-2.19922 -0.733398 -3.2998 -1.4668 -3.2998 -2.2002c87.2666 -86.5332 217.8 -216.7 391.601 -390.5zM634.75 193.4c1.4668 0 33.3662 31.8994 95.7002 95.6992c21.2666 20.5342 31.8994 31.167 31.8994 31.9004v2.2002c-24.1992 8.7998 -40.6992 16.1328 -49.5 22
c-15.3994 7.33301 -37.3994 23.0996 -66 47.2998c-36.9365 34.2979 -56.5293 55.458 -80.2998 90.2002c-28.5996 38.8662 -49.8662 71.1328 -63.7998 96.7998c-13.2002 24.9336 -20.5332 44 -22 57.2002c-3.66699 17.5996 -6.59961 26.3994 -8.7998 26.3994
c-1.4668 0 -2.2002 -11.3662 -2.2002 -34.0996c-2.2002 -6.59961 -3.2998 -15.0332 -3.2998 -25.2998c0 -32.2666 6.2334 -74.0664 18.7002 -125.4c7.33301 -26.3994 13.9326 -42.5332 19.7998 -48.3994c8.7998 -11.7334 17.9668 -26.4004 27.5 -44
c33.9834 -91.1406 52.2812 -121.509 101.2 -190.301zM376.25 747.8h8.7998c2.2002 0 8.43359 5.5 18.7002 16.5c3.66699 2.93359 8.7998 5.86719 15.4004 8.7998c21.2666 16.1338 37.0332 24.2002 47.2998 24.2002c5.13281 0 8.06641 -3.66602 8.7998 -11
c0 -5.86621 4.7666 -26.0332 14.2998 -60.5c15.5068 -50.3965 29.1797 -84.585 59.4004 -123.2c19.0664 -26.3994 35.2002 -42.8994 48.3994 -49.5c39.6006 -26.3994 83.6006 -51.333 132 -74.7998c48.4004 -22.7334 75.167 -34.0996 80.3008 -34.0996
c7.33301 -2.2002 27.5 -8.06641 60.5 -17.6006c11 11.7334 34.0996 35.2002 69.2998 70.4004c-122.101 122.1 -122.101 122.1 -487.3 487.3c-57.9336 -57.2002 -173.434 -172.333 -346.5 -345.399h7.69922c18.334 0 49.1338 7.33301 92.4004 22
c6.59961 1.46582 11.7334 2.19922 15.4004 2.19922c2.19922 0 4.7666 -0.733398 7.69922 -2.19922c0.733398 0 11 9.89941 30.8008 29.6992c17.5996 10.2666 38.1328 15.4004 61.5996 15.4004h11c7.33301 0 17.9668 5.5 31.9004 16.5
c8.06641 8.06641 12.0996 16.1338 12.0996 24.2002v1.09961z" />
</svg>
