<?xml version="1.0" standalone="no"?>
<!DOCTYPE svg PUBLIC "-//W3C//DTD SVG 1.1//EN" "http://www.w3.org/Graphics/SVG/1.1/DTD/svg11.dtd" >
<svg xmlns="http://www.w3.org/2000/svg" xmlns:xlink="http://www.w3.org/1999/xlink" version="1.1" viewBox="-10 0 1010 1000">
   <path fill="currentColor"
d="M500 9.7002l487.3 487.3l-487.3 487.3c-81.4004 -80.666 -243.833 -243.1 -487.3 -487.3c80.666 -81.4004 243.1 -243.833 487.3 -487.3zM471.4 255c18.333 11.7334 55 34.833 110 69.2998c-14.667 -16.1328 -43.6338 -48.0332 -86.9004 -95.7002v-1.09961
c-12.4668 12.4668 -20.167 21.6338 -23.0996 27.5zM426.3 233c-57.9336 55.7334 -87.2666 83.5996 -88 83.5996c0 0.733398 -0.366211 1.10059 -1.09961 1.10059c-8.06641 0 -23.834 -0.367188 -47.2998 -1.10059c-4.40039 -3.66602 -6.60059 -9.16602 -6.60059 -16.5
c1.4668 -13.1992 2.93359 -19.7998 4.40039 -19.7998c5.13281 -8.06641 12.4668 -19.7998 22 -35.2002h-2.2002c-11 0 -28.9668 11.7334 -53.9004 35.2002c-15.3994 15.4004 -24.9326 26.7666 -28.5996 34.1006c-6.59961 9.5332 -12.0996 21.2666 -16.5 35.1992v61.6006
h38.5c0.733398 0.733398 1.83301 1.4668 3.2998 2.2002c0.733398 25.666 1.4668 76.6328 2.2002 152.899c0 0.733398 -0.733398 1.83398 -2.2002 3.2998h-13.2002v44h377.301c-7.33398 -13.1992 -11.3672 -20.8994 -12.1006 -23.0996
c-16.8662 -3.66699 -31.166 -7.33301 -42.8994 -11c-17.6006 -6.59961 -34.1006 -15.4004 -49.5 -26.4004c-37.4004 -26.3994 -67.834 -70.0332 -91.3008 -130.899c0 -0.733398 0.733398 -1.83398 2.2002 -3.2998c57.2002 5.13281 172.334 14.666 345.4 28.5996
c-57.2002 -35.2002 -170.5 -106.7 -339.9 -214.5zM289.9 300.1c0 3.66699 0.733398 7.33398 2.19922 11h17.6006c13.2002 -17.5996 19.7998 -33.3662 19.7998 -47.2998c-8.7998 5.13379 -21.6338 13.5664 -38.5 25.2998c-0.733398 2.2002 -1.09961 5.86719 -1.09961 11z
M525.3 433.2c57.2002 35.2002 112.566 64.166 166.101 86.8994c30.7998 13.2002 64.166 25.3008 100.1 36.3008c0.733398 0 1.09961 0.366211 1.09961 1.09961v-1.09961c-16.1328 -18.334 -49.1328 -54.6338 -99 -108.9c-27.8662 -2.2002 -83.9658 -6.9668 -168.3 -14.2998z
M195.3 635.6c15.4004 32.2666 23.834 49.8672 25.2998 52.8008c123.934 -0.733398 310.2 -1.4668 558.801 -2.2002v-50.6006h-584.101z" />
</svg>
