<?xml version="1.0" standalone="no"?>
<!DOCTYPE svg PUBLIC "-//W3C//DTD SVG 1.1//EN" "http://www.w3.org/Graphics/SVG/1.1/DTD/svg11.dtd" >
<svg xmlns="http://www.w3.org/2000/svg" xmlns:xlink="http://www.w3.org/1999/xlink" version="1.1" viewBox="-10 0 1510 1000">
   <path fill="currentColor"
d="M986.062 164.25c0.5 -8.50098 1.5 -2 2.5 13.999c3 45.501 -15.5 78 -80 143.501c-36 36 -57 61.999 -67 82c-16.5 32.499 -32 76.5 -32.5 90.999c0 18.501 16 87 24 99c4.5 7.00098 22 19.001 39 27c26 12.501 38.5 15.501 88 18c62 3.50098 105.5 -1.5 141.5 -16.999
c16 -7.00098 26 -16.5 40.5 -38.501c18.5 -27.999 111.5 -125.499 115.5 -120.999c1.38867 1.3877 -50.0361 109.197 -48.5 111.5c6.5 6 25.5 1.5 34 -8c5 -6 17 -25.5 25.5 -44.001l16.5 -33v25.001c-3.5 27.499 -6.5 55.999 -2 63c4.5 7.5 44 4.99902 56 -3.5
c21.5 -15 9 -61.5 -34.5 -127c-23 -35.501 -27 -43.5 -16.5 -35.501c43 34.001 89.5 110.001 99 161.001c3 16.5 2 18.5 -10.5 23.499c-8 3.50098 -31.5 9.50098 -53.5 13.5c-36.5 7.5 -39.5 7.5 -48.5 -0.499023c-5 -4.5 -9.5 -12 -9.5 -16.001
c0 -4.5 -6 -1.99902 -17.5 8.50098c-14.5 12.499 -21.5 15 -37.5 13.999c-11 -0.499023 -22 -3.49902 -24.5 -6c-7 -7.99902 -11 -31.5 -5.5 -34.999c2.5 -1.5 5 -7.5 5 -13.5c0 -16.001 -11.5 -3.5 -37 40c-43 74.499 -57.5 83 -135 80c-41.5 -2 -63 -5.50098 -85.5 -14
c-61.5 -23.5 -125 -73.5 -130.5 -103c-6.20117 -35.4404 -22.8906 -13.2656 -48 -9.5c-14.5 2.49902 -19.5 5.49902 -22 15c-8.05273 32.2148 -33.3027 -14.7627 -46 -10c-6 1.99902 -6.5 1.5 -1 -5c5 -6 4.5 -8.00098 -2.5 -11.001c-11.5 -3.99902 -22.5 10.5 -22.5 31.001
c0 16.999 -12 37.5 -18 31c-7.5 -7.5 -11 -65.5 -4.5 -73.5c18.2383 -20.8418 -1.21289 -38.0039 51.5 -22.5c20 6 28.5 6.5 36.5 2.49902c14 -7.5 32.5 -2.49902 47 12.501v-38.5c3.99805 -76.001 22 -84.5 74.5 -134c126 -118.5 141 -138 144 -187zM913.562 166.75
c2.5 -9.50098 4 -10.5 5.5 -4.5c3.5 17.499 -14.5 63.5 -35.5 90.999c-11.5 15 -46 48 -77 73.001c-77.5 62.5 -106.5 100 -106.5 137.5c0 24.5 -11.5 20.499 -16 -5.5c-7 -40.5 29.5 -90.5 126 -172.001c56 -48 97 -94.999 103.5 -119.499zM1426.06 193.75
c11.5 -18 22 -32.5 22.5 -32.5c4.5 0 -32.5 66 -51 92.5c-11.5 16.5 -54 60.999 -94 99c-58.5 54.999 -76 75 -88 99.5c-8.5 16.999 -15.5 33.499 -15.5 37.5c0 4 -2 6 -4.5 4.5c-6 -4.00098 0.5 -31.001 13.5 -56.501c14.5 -27.999 14 -36 -2 -21
c-16.5 15.501 -47 66.501 -67.5 114.501c-18 42 -38 71.499 -45 67.5c-2.5 -2.00098 -1.5 -9 3 -17.5c14 -26.501 9.5 -31.5 -13.5 -15c-15 10.999 -26 15 -42 15c-19.5 0 -22 -1.5 -30 -17.501c-9 -19.5 -10.5 -19.999 -24 -9.99902c-14 10.5 -28 9.5 -41.5 -3
c-17 -16.5 -19.5 -2.5 -7 38c15 48.499 7 51 -12.5 3.49902c-34.5 -82.999 -39 -123 -19.5 -165c25.5 -54.999 86 -103.999 158.5 -127.999c59.5 -20 61.5 -15 5 12c-86 40.999 -130.5 94.5 -139 166.5c-4 35.5 1.5 43.5 31 43.5h21.5l35.5 -52.5c36 -52.5 46.5 -63 80 -80
c14.5 -7 10.5 -2.00098 -20.5 27.999c-46 45.501 -59.5 73.5 -50 104.501c5.5 19.5 6.5 19.999 27.5 19.999c20.5 0 21.5 -0.999023 27.5 -19.5c7.5 -24.999 43 -73.5 68 -93c11 -8.49902 46 -33 78.5 -54.999c71 -48.501 166 -136 195 -180zM655.062 234.75
c20 -38 25.5 -34.001 10 7c-21.5 57 -76.5 116 -166 176.499c-43.5 29.501 -49.5 38.001 -26 38.001c18.5 0 45.5 12.999 51.5 24.5c3 5.5 8 22 11 36.499c7.5 40.5 -1.5 69.501 -29.5 96.501l-22.5 21.999v-12c-22.5 -18.499 -60.5 -24 -105.5 -21.499
c-114 7.5 -244.5 94.999 -299.5 201.499c-16 30.501 -17 27 -3 -10.999c48 -129 188 -226.001 326 -226.5c29.5 0 44 2.5 59 10.5c29.9688 14.335 26.5 10.1982 26.5 -31.001c0.5 -31.999 -0.5 -36.499 -12 -45.499c-11 -9 -18 -10.001 -55 -8
c-26.5 0.999023 -49 5 -59.5 10.5c-23 11.499 -24.5 11 -10 -4.5c18.5 -20.001 85 -70.5 154.5 -117.501c76 -51 126.5 -100.5 150 -145.999zM511.562 325.75c17 -16 31.5 -29.001 32.5 -29.5c1 0 -3 6.49902 -8 13.999c-18 25.001 -57.5 58.001 -123 103.5
c-75 52.001 -124 98.001 -147 138c-22 38.501 -28.5 43.5 -41.5 31.5c-10.5 -9.49902 -11 -9.49902 -24 8.00098c-7 9.5 -20.5 25.5 -30 35l-16.5 16.999v-21.999c-10.001 -19 -23 -27.501 -20.5 -53.001c4.5 -51 -1.5 -52.999 -39 -13.5
c-18 18.501 -37.5 40.5 -43.5 49.001v-7.5c18 -37.001 57.5 -93 77.5 -109.5c16 -13.5 65.5 -40.5 73.5 -40.5c1.5 0 -3.5 13 -11 28.5c-14 30.499 -22.5 96 -12 89.5c3.5 -2.00098 20 -27 37 -56.5c40 -67.001 59 -86.501 110 -112.001c45.5 -22.5 45.5 -21.999 2.5 10.5
c-16 12 -37 31.001 -47 42c-17.5 20.001 -51.5 84 -51.5 96.501c0 13.5 14.5 5.49902 26.5 -15c35.5 -60.501 68 -88 172.5 -146.001c30.5 -16.999 64.5 -40.5 82.5 -57.999zM597.062 374.749c11.5 -9.99902 23.5 -18.499 27 -18.499s15.5 9 27.5 19.5l21 19.5v37.999
c-1.5 28.5 -5 38.001 -10.5 38.001c-7.5 0 -11 -12 -13 -44.5c-2.5 -40.001 -30.5 -41.501 -42.5 -2.50098c-6.5 21.501 -8.5 118.5 -3 161.001c2.5 24 4.5 27.5 19.5 35c15.5 7 17.5 7 26 -0.5c27 -24.501 99.5 -32.001 138.5 -14.001c24 10.5 52.5 34.001 52.5 42.501
c0 3.5 -11 9 -25 12.5c-52.5 13.5 -104.5 43.5 -145.5 85c-38.5 38.499 -39.5 39 -48 29c-14.5 -16.001 -62 -51 -91.5 -67.5c-103 -57 -217 -46.001 -325.5 31.5c-20 14.5 -25.5 16.999 -14.5 7.5c130 -116.501 305.5 -132 414 -37.001c14 12 27.5 22.001 30.5 22.001
s17 -11.501 31 -25.5c17 -17 38 -31.001 65 -43.001c21.5 -9.99902 39.5 -21 39.5 -24.499c0 -3.5 -7 -10.5 -15.5 -15c-23.5 -12 -74.5 -5.50098 -106 13.5c-13 7.99902 -25 14.5 -26.5 14.5c-4.5 0 -59 -43 -67 -52.5c-4 -4.5 -6.5 -16.5 -6 -26.5
c1 -10.5 3.5 -46.5 5.5 -81c4.5 -71 10.5 -87 42.5 -116.501z" />
</svg>
