<?xml version="1.0" standalone="no"?>
<!DOCTYPE svg PUBLIC "-//W3C//DTD SVG 1.1//EN" "http://www.w3.org/Graphics/SVG/1.1/DTD/svg11.dtd" >
<svg xmlns="http://www.w3.org/2000/svg" xmlns:xlink="http://www.w3.org/1999/xlink" version="1.1" viewBox="-10 0 1010 1000">
   <path fill="currentColor"
d="M905.883 98.9619c8.30371 -10.7266 16.2627 -18.6855 18.3389 -17.6475c1.08789 0.871094 1.56738 1.99219 1.56738 3.34473c0 5.39648 -7.63477 14.4785 -14.7168 26.0674c-13.1484 22.1455 -43.252 83.0449 -41.1758 83.0449
c0.691406 0 4.49805 -5.19043 8.65039 -11.4189c5.53613 -8.65039 7.2666 -9.68848 7.2666 -4.49805c0 3.80664 -2.07617 9.34277 -4.49902 12.1113c-9.65723 11.2139 -29.1299 47.9502 -29.1299 53.6504c0 0.485352 0.141602 0.746094 0.442383 0.746094
c0.429688 0 1.01367 -0.294922 1.36133 -0.294922c0.763672 0 1.14258 0.506836 1.14258 1.50781c0 4.83789 -8.85059 21.2217 -26.0654 47.8506c-17.7754 27.4521 -24.2852 37.9297 -24.2852 45.8018c0 4.23438 1.88281 7.71387 4.9082 12.6758
c3.34863 5.74023 4.83691 10.2402 4.83691 13.1152c0 2.31934 -0.96875 3.58105 -2.71191 3.58105c-2.34766 0 -6.09766 -2.28613 -10.7754 -7.35352c-7.2666 -7.95898 -9.68848 -8.65137 -12.1104 -4.84473c-2.14453 3.43066 0.967773 18.708 0.967773 19.5674
c0 6.49121 9.91113 28.3623 14.2568 29.9141c2.42188 1.03809 7.95801 11.418 12.1104 23.1826v21.4531h20.415c14.1875 -2.07617 30.4502 0.692383 21.4541 3.80664c-2.76855 1.38379 -8.99707 2.76855 -13.8408 3.80664c-4.84473 1.03809 3.11426 1.03809 17.3008 0
c2.9668 -0.134766 5.8291 -0.199219 8.55273 -0.199219c15.7676 0 26.8926 2.1709 26.8926 5.48242c0 0.519531 -0.272461 1.06641 -0.84375 1.63672c-2.07617 1.73047 -39.0996 12.457 -52.9404 14.8789c-7.96582 1.44824 -11.8906 6.43359 -11.8906 16.2471
c0 4.25391 0.737305 9.41406 2.20215 15.5869c1.03223 4.57129 1.56152 8.89062 1.56152 13.334c0 5.9834 -0.959961 12.1914 -2.94629 19.5381c-4.93359 20.0742 -7.44141 34.2109 -7.44141 40.0225c0 1.9375 0.27832 2.94922 0.838867 2.94922
c1.17676 0 3.59961 -4.47656 7.29492 -14.252c2.10938 -6.3291 4.1582 -8.7627 4.1582 -5.33887c0 6.61035 -16.1182 50.4424 -34.6084 94.6123c-10.0342 23.5293 -12.4561 28.374 -23.1836 46.7129c-3.45996 6.22852 -2.0752 5.53613 5.53711 -3.11426
c5.88184 -6.22852 14.1865 -18.3389 18.6846 -26.6436s8.99707 -15.2256 10.7266 -15.2256c1.38477 0 -3.80566 12.1113 -11.418 26.9902c-15.2256 29.0654 -61.5918 80.623 -82.3535 91.6953c-6.57422 3.11426 -12.457 8.99707 -13.4941 12.457
c-2.48242 9.10156 -19.0996 10.1797 -25.2598 15.5703c-7.2666 5.88281 -68.166 29.0664 -84.083 31.834c-32.5264 5.53711 -52.5957 14.1875 -57.4395 24.2217c-6.13867 12.2744 -8.85156 9.52246 -12.457 22.1455c-2.42188 7.6123 -3.11426 7.95801 -4.84473 2.42188
c-1.72949 -4.49805 -4.84375 1.03809 -10.3799 18.3389c-4.15234 13.4951 -10.0352 25.6064 -12.8027 26.6436c-2.76855 1.03809 -4.84473 3.80664 -4.84473 6.5752c0 2.76758 -1.73047 4.84375 -3.80566 4.84375c-4.65918 0 1.13574 -17.4785 2.0752 -22.4912v-1.73047
h-12.8027v-1.72949c1.60352 -9.08691 6.13086 -14.835 6.13086 -21.1719c0 -3.41016 -1.31055 -6.99121 -5.09277 -11.3545c-4.15137 -4.84375 -8.99609 -14.8789 -11.418 -22.4912c-4.84473 -17.3008 -8.65039 -22.8369 -16.2637 -22.8369
c-3.11426 0 -15.5703 -4.84473 -28.0273 -10.3809l-22.4912 -10.3809c9.13477 8.5127 18.3584 16.9355 27.6816 25.2598l-26.9893 -14.1865c-14.8789 -7.95898 -34.2568 -20.416 -43.2529 -28.0283c-8.99707 -7.2666 -19.377 -14.5322 -23.1836 -15.5703
c-16.9551 -4.84473 -64.0137 -61.9385 -64.0137 -76.8174c0 -3.45996 -2.07617 -4.84375 -4.84473 -3.80566c-1.08594 0.43457 -2.06934 0.698242 -3.01367 0.698242c-5.07324 0 -9.00879 -7.62012 -21.5537 -37.377l-13.1484 -30.4492h-13.1484
c-17.6475 3.11426 -17.3018 -0.692383 0.345703 -7.6123c7.6123 -2.76855 13.8408 -6.9209 13.8408 -8.99707c0 -5.19043 -4.15234 -4.84473 -19.7236 1.03809c-29.4775 11.2324 -58.5137 16.8975 -95.8477 28.7197c-19.7266 6.01855 -37.8369 10.7441 -40.5977 10.7441
c-2.93848 0 11.8574 -7.41113 30.2178 -14.5508c26.3574 -10.4033 37.7285 -15.5557 37.7285 -17.8291c0 -1.12891 -2.80371 -1.54785 -7.9707 -1.54785c-6.22852 0 -11.0732 -1.72949 -11.0732 -3.45996c0 -2.07617 2.76855 -3.45996 6.22852 -3.45996
c11.4189 0 37.7158 -11.4189 41.8682 -18.3398c4.15234 -6.22754 3.80664 -6.57422 -3.80566 -4.84375c-14.3027 3.22949 -23.1836 4.72852 -26.875 4.72852c-1.32227 0 -1.97852 -0.192383 -1.97852 -0.566406c0 -1.71582 13.7637 -7.25 40.2715 -15.5811l33.5645 -10.3809
v-30.4492c-0.0576172 -2.77148 -0.0869141 -5.61914 -0.0869141 -8.47559c0 -14.2627 0.72168 -28.7227 2.16309 -34.7773c1.73047 -9.34277 1.38379 -12.8027 -1.03809 -11.0723c-4.84473 2.76758 -4.84473 -7.2666 0 -15.917
c1.73047 -3.80664 4.84473 -15.2256 6.57422 -25.6055c1.73047 -10.0352 8.65039 -30.4502 15.5713 -45.3291c6.40234 -13.8281 9.39258 -22.3506 9.39258 -26.5479c0 -1.47363 -0.368164 -2.41406 -1.08789 -2.86426
c-1.40625 -0.827148 -2.08105 -2.44434 -2.08105 -4.73926c0 -7.30664 6.84082 -21.4795 18.6895 -38.8594c6.9209 -10.0342 13.1494 -18.3389 13.4951 -18.3389c0.734375 0 -7.66113 30.4248 -7.66113 33.6494c0 1.2959 5.11914 -4.93066 9.3916 -11.5039v-35.6396
c0 -42.626 -33.9717 -121.413 -33.9717 -126.734c0 -2.6084 9.92871 19.0381 14.9404 36.0762c0.958008 2.55371 3.23828 5.0127 3.23828 2.44727c0 -5.5957 -9.91211 -43.7217 -22.2695 -83.0693c-3.62988 -12.209 -6.94434 -26.9346 -6.94434 -33.6768
c0 -9.98926 1.91113 -6.62012 10.4043 16.0293c5.88281 15.2246 14.1865 38.4082 18.6855 51.9033c6.22754 19.0312 8.30371 22.1455 8.65039 13.8408c0.345703 -8.30469 2.42188 -4.84473 12.1104 18.6846c8.56641 20.8672 13.2285 30.8584 14.6953 30.8584
c0.344727 0 0.512695 -0.553711 0.512695 -1.65039c0 -1.54395 -1.13965 -5.66309 -1.13965 -9.28125c0 -0.387695 0.0722656 -0.576172 0.211914 -0.576172c1.10059 0 6.37988 11.5869 13.7471 29.4385c13.8369 34.4512 16.8428 41.709 18.9854 41.709
c0.482422 0 0.921875 -0.369141 1.43066 -0.87793c1.03809 -1.03809 -0.692383 -8.30469 -3.80664 -16.2637c-2.74609 -7.06055 -3.95996 -12.0459 -3.95996 -14.5635c0 -1.2373 0.292969 -1.87891 0.84082 -1.87891c1.29004 0 3.99219 3.54883 7.61719 11.252
c2.94629 7.20215 6.33594 14.5684 6.66211 14.5684c1.33691 0 16.8184 -9.45215 35.207 -21.4883c23.792 -15.9434 34.7178 -22.498 37.4609 -22.498c0.483398 0 0.712891 0.205078 0.712891 0.597656c0 0.521484 -0.40332 1.37402 -1.15039 2.52344
c-1.03809 1.72949 0.34668 3.45996 3.11426 3.45996c10.1484 0 20.8516 -7.63086 20.8516 -11.25c0 -6.30664 37.9873 -15.0869 58.1523 -15.0869c5.41309 0 9.54199 0.631836 11.3076 2.11523c2.76855 2.42188 8.99707 3.45996 13.8408 2.42188
c4.84473 -0.691406 15.5713 -0.345703 23.5293 1.38477c19.0488 3.31152 70.0117 12.5127 85.1211 20.0693c16.9551 8.65039 28.0283 11.7646 28.0283 7.95801c0 -2.4834 -18.2529 -11.7441 -15.917 -13.4951c1.68359 -2.24414 12.4404 5.88281 15.917 5.88281
c2.76758 0 24.5674 12.8027 48.4424 28.374c27.2666 17.9951 37.3438 25.4629 37.3438 28.3291c0 0.770508 -0.729492 1.20898 -2.0498 1.42871c-4.93262 0.757812 -19.3428 -6.10645 -19.7227 -5.53711c-2.42188 2.42285 15.917 18.3398 26.6436 22.8379
c2.22656 0.907227 3.94141 1.57812 5.55859 1.57812c5.16699 0 9.32422 -6.8584 25.9297 -34.7959c12.1104 -20.416 31.833 -53.6338 43.5986 -74.0488c14.1865 -24.2217 24.9131 -38.7539 30.7949 -41.5225c4.84473 -2.42188 16.2637 -15.5713 24.9141 -29.4121
c8.65039 -13.4941 22.1455 -33.5635 30.4502 -43.9443zM478.893 232.18c8.9209 -0.810547 3.53809 4.48242 -2.07617 2.07617c-2.76758 -1.03809 -1.72949 -2.07617 2.07617 -2.07617zM564.359 280.969c-2.08789 -3.01562 -32.4902 -5.25488 -56.5742 -5.25488
c-11.834 0 -22.1426 0.541016 -26.8164 1.79492c-6.57422 2.07617 -17.9932 2.76758 -25.2598 1.72949c-1.21191 -0.172852 -2.48633 -0.259766 -3.82324 -0.259766c-14.6865 0 -36.8359 10.4404 -65.3809 31.0557c-8.11523 6.0127 -28.373 14.8789 -28.373 14.8789
c1.36035 0.907227 -11.5098 14.3018 -15.2256 7.61328c-2.07617 -3.11426 -3.80566 -2.76855 -6.57422 0.691406c-0.922852 1.02539 -1.41992 2.44531 -1.41992 4.5127c0 4.91016 2.80469 13.4688 9.37891 29.0518c13.1484 31.1416 32.1797 83.0449 35.2939 96.8857v8.65039
v-8.65039c-8.99707 -10.7266 -14.8789 -7.2666 -6.22852 9.68848c4.77246 9.54395 8.45703 29.3701 12.8936 29.3701c2.32715 0 4.86133 -5.45801 7.86719 -20.7197c2.07617 -11.0723 5.53711 -22.4912 7.2666 -25.2598c2.76855 -4.15234 3.46094 -3.11426 2.07617 3.46094
c-2.75488 14.835 -4.21191 27.0742 -4.21191 34.332c0 4.5918 0.583008 7.19043 1.79004 7.19043c1.73047 0 6.57422 -4.15234 10.3809 -9.34277c9.34277 -11.7646 14.1865 -7.2666 6.57422 6.22852c-2.87891 4.97266 -4.08594 7.81543 -4.08594 9.12012
c0 0.608398 0.262695 0.882812 0.739258 0.882812c4.36719 0 26.7383 -22.9551 31.0137 -22.9551c0.457031 0 0.707031 0.261719 0.707031 0.84082c0 3.11426 -17.3018 26.2979 -22.1455 29.7578c-1.7373 1.25488 -2.52246 2.13477 -2.52246 2.70312
c0 0.583984 0.827148 0.84082 2.2998 0.84082c10.7041 0 55.5117 -13.5557 64.7559 -13.5557c0.800781 0 1.33496 0.101562 1.55664 0.323242c0.68457 0.68457 0.995117 1.36426 0.995117 2.03906c0 6.01367 -24.6699 11.5928 -28.3311 16.2998
c-3.80566 4.84473 -3.45996 5.19043 2.42188 3.46094c6.69336 -2.43457 28.9531 -2.49316 34.6025 -5.88281c2.07617 -1.38379 9.34277 -3.80566 16.9551 -4.84375c18.2129 -3.37305 56.4795 -15.293 56.4795 -17.8164c0 -0.415039 -0.702148 -0.462891 -1.63281 -0.462891
c-6.71094 0 -32.6348 5.16211 -37.0801 5.16211c-5.27441 0 20.1865 -7.35352 52.8213 -14.9111c52.9414 -12.1104 59.5156 -14.1865 59.5156 -20.7607c0.34668 -6.9209 0.34668 -6.9209 5.19043 -0.34668c4.84473 6.5752 5.19043 6.5752 5.19043 -2.76758
c0 -5.19043 -2.42188 -14.1875 -5.53613 -19.7236c-6.89551 -14.6484 -2.82129 -17.1436 4.15234 -2.42188v-5.88281c1.38379 -9.68848 11.418 -25.2588 12.1104 -34.6016v1.73047c1.38477 10.3799 7.2666 24.9131 8.65039 32.1797v13.4941l14.8789 -23.875
c7.2666 -12.8027 14.1875 -22.8369 15.917 -22.4912c0.19043 0.0820312 0.390625 0.121094 0.600586 0.121094c4.49512 0 13.0791 -18.1387 13.0791 -26.1611c0 -1.11328 -0.166016 -2.03125 -0.530273 -2.67969c-1.73047 -2.76855 -15.917 -18.3389 -32.1807 -34.9482
c-23.5293 -24.2217 -34.9482 -32.8721 -56.7471 -43.2529c-15.2246 -7.6123 -29.7578 -13.4941 -32.1797 -13.4941c-8.99707 0 -4.15234 6.22852 8.65039 11.418c13.3516 5.22461 20.1289 11.1797 20.1289 17.4561c0 1.20605 -0.25 2.4248 -0.751953 3.65137
c-2.07617 5.53613 -2.76855 5.19043 -9.68848 -0.691406c-9.08398 -8.32812 -41.2129 -9.72852 -49.4814 -18.6855c-6.22754 -6.91992 -6.22754 -6.91992 8.65137 -4.49805c12.4561 2.07617 14.1865 1.38379 12.4561 -3.11426
c-1.72949 -4.84473 -11.0723 -7.6123 -20.0693 -5.88281c-1.72949 0.34668 -4.15234 -0.691406 -5.19043 -2.42188zM733.564 371.973c5.66113 -3.77637 -3.46094 -14.7354 -3.46094 -3.11426c0 2.76758 1.73047 4.15234 3.46094 3.11426zM322.146 427.336
c-3.71582 -20.4346 -6.18066 -40.168 -15.5713 -51.9033c-4.49805 -6.22852 -5.53613 -5.53613 -15.5703 10.3809c-11.0732 17.3008 -13.4951 24.5674 -7.2666 20.7607c5.19043 -3.45996 4.15234 0.34668 -6.57422 21.7998
c-5.19043 10.7266 -10.7275 25.9512 -12.1113 33.5635v-2.42188c4.49902 -9.34277 14.5332 -16.6094 15.917 -16.6094c0.876953 0 1.26562 1.3125 1.26562 3.45801c0 6.31738 -3.36133 19.8535 -7.49414 28.376c-3.13379 5.87598 -4.82617 27.7188 -4.82617 47.0127
c0 14.7891 0.994141 28.0811 3.09668 31.5342c0.78418 1.23145 2.67188 1.73828 5.21777 1.73828c10.9336 0 34.0088 -9.32812 34.0088 -10.6152c0 -1.70312 -11.1055 0.458984 -15.3516 1.95703c-23.4424 8.41406 -17.1631 -3.11426 -4.15234 -3.11426
c4.49805 0 11.4189 -3.11426 14.8789 -6.5752c3.45996 -3.45996 11.4189 -7.6123 17.6475 -8.99609c10.0342 -2.07617 10.3809 -2.76855 5.53613 -8.30469c-3.11426 -3.45996 -5.53613 -7.95801 -5.53613 -10.0342c0 -5.19043 9.34277 -5.19043 12.4561 0
c1.73047 2.42188 3.46094 1.38379 5.19043 -3.45996c0.483398 -1.12793 0.722656 -2.55664 0.722656 -4.30273c0 -5.75195 -2.59961 -14.9521 -7.64258 -28.2236c-5.53613 -13.8408 -11.7646 -34.6025 -13.8408 -46.0205zM802.769 411.765
c0 -2.07617 -1.38477 -3.45996 -3.46094 -3.45996c-1.72949 0 -3.45996 1.38379 -3.45996 3.45996c0 1.73047 1.73047 3.45996 3.45996 3.45996c2.07617 0 3.46094 -1.72949 3.46094 -3.45996zM771.626 439.101c0 -2.87402 -9.57129 -23.876 -11.7646 -23.876
c-2.21582 0 -11.6758 23.4697 -11.6758 28.7812c0 5.29688 23.4404 -1.36816 23.4404 -4.90527zM769.896 453.287c8.65039 -3.80566 -0.34668 -3.80566 -12.1113 0c-6.91992 2.07617 -7.2666 2.76855 -1.72949 2.76855c3.80566 0 10.0342 -1.03809 13.8408 -2.76855z
M596.54 495.155c8.91895 -0.810547 3.53809 4.48242 -2.07617 2.07617c-2.76855 -1.03809 -1.73047 -2.07617 2.07617 -2.07617zM777.854 528.374c-2.42188 -17.6475 -5.19043 -26.6436 -8.30469 -26.6436c-2.42188 0 -5.19043 1.38379 -6.22754 3.11426
c-1.03809 1.38379 -11.7656 4.15137 -23.5303 5.53613c-12.1104 1.72949 -18.3389 3.45996 -13.8408 4.15234c5.55078 1.00879 8.06543 3.35156 8.06543 6.12207c0 4.83008 -7.64258 10.9619 -20.1758 13.6006c-10.0342 2.42188 -11.0723 3.80664 -13.1484 19.377
c-1.73047 11.4189 -4.15234 16.9551 -8.30469 18.3398c-4.84473 1.03809 -61.5918 88.9268 -57.4395 88.9268c2.07617 0 50.8652 -65.3975 56.7471 -76.124c2.8252 -4.94434 6.36035 -7.67773 6.36035 -3.54785c0 7.06836 -14.7021 36.0674 -28.1592 55.1045
c-6.61719 9.34082 -9.62598 17.8936 -9.62598 23.4736c0 8.12012 -11.375 25.3154 -17.0176 25.3154c-5.19043 0 -3.46094 -7.95801 3.80566 -17.3008c4.88477 -6.19922 6.67676 -9.50293 6.67676 -10.8594c0 -0.521484 -0.264648 -0.754883 -0.720703 -0.754883
c-2.80859 0 -12.876 8.89062 -12.876 14.0361c0 2.42188 -3.80664 6.22852 -8.30469 7.95898c-10.5479 3.51465 -14.0508 27.0625 -18.6855 36.332c-1.03809 1.72949 1.38477 0.345703 5.53711 -3.11426c3.5293 -3.11426 5.75098 -4.76465 6.57129 -4.76465
c1.91309 0 -3.80371 8.98633 -18.3359 29.332c-24.9141 34.6016 -34.6025 51.9033 -37.7168 65.7441v11.0723h12.1104c10.7275 -4.15234 13.1494 -12.1104 8.65137 -13.4951c-3.80664 -1.38379 1.72949 -5.19043 17.9922 -12.1104
c54.3262 -23.5293 85.4678 -41.5225 93.4258 -53.2871c8.99707 -13.4951 10.3809 -20.415 2.76855 -14.1865c-4.15234 3.45996 -5.19043 3.45996 -5.19043 0c0 -2.42285 11.4189 -16.2637 25.6055 -30.7959c23.876 -24.5684 32.1797 -36.6787 40.1387 -57.4395
c4.84375 -13.1494 -1.03809 -10.3809 -9.68848 4.15234c-3.43457 6.04004 -5.61328 8.79688 -6.5625 8.79688c-0.367188 0 -0.550781 -0.415039 -0.550781 -1.21289c0 -3.15723 2.86621 -12.3164 8.49707 -25.5771c18.0889 -42.9629 23.2266 -55.46 23.2266 -70.0771
c0 -5.51465 -0.730469 -11.3301 -1.77344 -19.1963zM256.747 529.412c0 16.3477 2.97168 -0.0283203 1.73047 -6.22852c-1.03809 -3.11426 -1.73047 -0.34668 -1.73047 6.22852zM506.921 536.332c22.1445 -7.2666 25.9512 -9.34277 19.0303 -10.7266
c-4.84375 -1.03809 -11.0723 -1.03809 -13.8408 -0.345703c-7.6123 2.42188 -35.2939 14.1865 -42.2139 17.9932c-3.46094 2.07617 -9.34277 3.45996 -12.8027 3.45996c-3.80664 0 -7.95898 1.73047 -8.99707 3.80566c-2.42188 3.80664 20.415 1.03809 27.6816 -3.45996
c2.07617 -1.03809 15.917 -5.88184 31.1426 -10.7266zM528.72 538.408c3.92188 -2.21289 5.79883 -3.66504 5.79883 -4.38281c0 -0.354492 -0.456055 -0.529297 -1.34863 -0.529297c-3.52246 0 -13.8447 2.73828 -29.71 8.02637
c-19.377 6.22852 -25.6055 11.4189 -11.0723 8.99609c1.38379 0 2.42188 1.03809 2.42188 2.42285c0 3.0918 -67.0127 18.9121 -67.0127 22.1445c0 10.0547 26.874 84.1006 33.4492 91.0039c2.42188 2.42188 2.76758 2.42188 1.38379 0
c-1.38379 -3.11426 -6.9209 -28.0273 -14.8789 -67.4736c-1.38379 -6.9209 -0.345703 -5.88281 5.19043 4.15234c7.7168 13.6328 13.1387 39.6953 13.1387 58.1436c0 6.36816 -0.645508 11.8291 -2.06641 15.5586c-2.07617 6.22852 -2.76758 13.8408 -1.38379 17.3008
c1.72949 4.84473 1.03809 5.53613 -2.42188 3.45996c-7.21289 -4.32715 0 9.55469 0 10.7266c0 1.03809 1.38379 1.03809 3.11426 0c1.72949 -1.03711 5.88184 8.65137 9.3418 21.4541c7.09375 27.3623 27.709 75.1719 32.5479 75.1719
c1.66113 0 9.50195 -18.5352 17.2793 -38.1484c7.6123 -20.0684 19.377 -45.3281 25.9521 -56.0547c6.57422 -10.7266 10.3799 -20.7617 8.99609 -21.7998c-1.73047 -1.03809 -1.03809 -5.53613 1.73047 -10.3799v-8.65137v8.65137
c-2.8125 11.8105 6.40137 -0.62793 6.40137 -7.7627c0 -8.48535 29.5605 -63.2666 52.7676 -97.082c10.0352 -14.8789 18.3389 -29.0654 18.3389 -31.4883c0 -1.12012 -1.9082 -1.60352 -5.23047 -1.60352c-20.8672 0 -97.499 19.0684 -106.995 19.0684
c-0.499023 0 -0.8125 -0.0527344 -0.922852 -0.163086c-1.03809 -1.03809 0.345703 -2.07617 3.45996 -2.07617c3.46094 0 5.88281 -1.73047 5.88281 -3.46094c0 -2.07617 2.42188 -3.45996 5.53613 -3.45996c2.76855 0 4.15234 -1.38379 3.11426 -3.45996
c-0.625 -1.04199 -2.93457 -1.34375 -5.83887 -1.34375c-4.00586 0 -9.14355 0.575195 -12.5508 0.575195c-2.18945 0 -3.66504 -0.238281 -3.66504 -1.01758c0 -1.01953 2.51855 -2.96484 9.25195 -6.51855zM676.816 572.318
c4.15137 -4.15234 8.30469 -9.68848 7.6123 -12.1104c-1.03809 -3.11426 -4.15234 0 -7.6123 7.26562v4.84473zM303.114 614.187c3.45996 -2.76758 4.84375 -5.19043 2.76855 -5.19043c-1.73047 0 -6.5752 2.42285 -10.3809 5.19043
c-3.45996 2.76855 -4.84473 5.19043 -2.76855 5.19043c1.73047 0 6.57422 -2.42188 10.3809 -5.19043zM359.861 614.187c0 -1.00293 -1.14551 -1.43359 -3.14648 -1.43359c-12.1982 0 -56.1904 16.0117 -66.2754 16.0117
c-0.305664 0 -0.579102 -0.0146484 -0.820312 -0.0449219c-10.0342 -1.38379 -10.0342 -0.692383 -2.07617 20.7617c3.46094 9.3418 7.2666 10.7266 4.15234 1.72949c-0.943359 -2.64062 -1.36035 -4.23047 -1.36035 -4.93945c0 -3.19141 8.46875 11.4805 15.5479 28.4688
c13.1045 29.9531 24.2393 49.4971 28.585 49.4971c0.473633 0 0.867188 -0.231445 1.17285 -0.708008c0.146484 -0.272461 0.444336 -0.401367 0.875 -0.401367c6.67969 0 45.376 31.0703 48.9512 39.8477c1.03809 2.76855 5.53711 5.19043 10.0352 5.19043
c10.7686 0 31.3213 23.8418 40.3105 23.8418c0.969727 0 2.72754 -0.351562 2.72754 -1.60938c0 -3.34473 -4.96387 -19.042 -12.2422 -36.7656c-7.6123 -19.7227 -15.917 -42.5605 -17.9932 -51.2109c-12.0449 -43.6221 -27.7656 -81.4258 -33.6182 -81.4258
c-0.368164 0 -0.697266 0.149414 -0.984375 0.457031c-1.16113 1.45215 -27.7295 50.9121 -29.4111 52.5957c-0.34668 0.345703 -0.34668 -5.88281 0 -13.8408c0.345703 -8.30469 3.80566 -21.4541 7.95801 -29.4121c4.15234 -7.95898 7.6123 -15.5713 7.6123 -16.6094z
M449.827 681.661c0 -2.76855 -1.73047 -7.6123 -3.45996 -10.3809c-3.11426 -4.49805 -3.46094 -4.49805 -3.46094 0c0 2.76855 1.73047 7.6123 3.46094 10.3809c3.11426 4.49805 3.45996 4.49805 3.45996 0z" />
</svg>
