<?xml version="1.0" standalone="no"?>
<!DOCTYPE svg PUBLIC "-//W3C//DTD SVG 1.1//EN" "http://www.w3.org/Graphics/SVG/1.1/DTD/svg11.dtd" >
<svg xmlns="http://www.w3.org/2000/svg" xmlns:xlink="http://www.w3.org/1999/xlink" version="1.1" viewBox="-10 0 1010 1000">
   <path fill="currentColor"
d="M449.787 72.0693c16.4199 -0.566406 31.7197 -5.74023 44.7256 -5.74023c7.85156 0 14.8682 1.88574 20.791 7.80859c27.751 27.751 37.1133 260.345 49.3105 260.345c7.24121 0 25.5176 -24.1377 32.7588 -43.793c6.89648 -18.2754 13.793 -76.8965 14.1377 -118.275
c0.344727 -22.0693 0.344727 -22.4141 15.8623 -36.5518c10 -9.31055 20 -15.1729 28.2764 -16.5518c8.22266 -1.32617 16.752 -1.98926 24.8418 -1.98926c12.9424 0 24.7598 1.69727 32.3994 5.09277h12.0684v24.8271c-7.24121 69.6553 -35.8613 123.104 -94.4824 185.862
c-12.2832 13.3672 -18.2266 20.6787 -18.2266 24.6104c0 3.57324 4.91016 4.35547 14.4336 4.35547c15.5166 0 62.0684 17.2412 80.3447 29.3096c10 6.89648 23.793 18.6211 31.0342 26.5518c6.89648 7.93164 16.5518 17.5869 21.0352 21.3799
c28.9648 25.1719 54.8271 51.3789 68.2754 68.2754c15.8623 20.6895 48.9658 75.1729 64.8271 106.207c8.62109 16.8965 8.62109 18.6211 3.44922 23.793c-3.55762 3.85449 -9.4082 4.9043 -25.875 4.9043c-2.68945 0 -5.66113 -0.0273438 -8.95312 -0.0761719
c-29.6553 -1.03516 -29.6553 -1.03516 -46.8965 -16.207c-22.4141 -19.3105 -50.3447 -33.1035 -73.1035 -35.5176c-4.59961 -0.442383 -8.04102 -0.770508 -10.8271 -0.770508c-8.07422 0 -10.6328 2.76172 -19.8623 13.5293
c-6.55176 7.93066 -21.3799 31.7246 -32.4141 53.1035c-22.4141 42.7588 -38.9658 62.0693 -58.6201 67.2412c-7.24219 2.06934 -28.2764 3.79297 -46.5518 3.79297h-33.4482v-14.8271c-1.03418 -7.93164 -4.4834 -23.793 -5.51758 -35.1729
c-3.17285 -33.3145 -5.17773 -44.7334 -8.43262 -44.7334c-0.283203 0 -0.575195 0.0859375 -0.87793 0.250977c-1.59473 0.99707 -2.29688 7.46777 -2.29688 16.9062c0 23.2148 4.24414 64.3789 9.88281 86.1973c7.58691 29.6553 23.7939 63.1035 40 83.4482
c15.8623 19.3105 53.1035 43.4482 97.5869 63.4482c30.3447 13.4482 36.5518 17.5859 37.5859 24.4824c0.689453 4.82812 -1.72461 10.6895 -5.17285 13.793c-5.5166 4.82812 -8.96484 4.82812 -28.6201 0.69043c-78.2764 -16.207 -167.932 -81.7246 -196.552 -144.483
c-17.2412 -36.5518 -29.6553 -71.7236 -41.3799 -115.517v-36.207l-10 24.1377c-0.344727 13.1035 2.06934 44.1377 4.82812 68.2754c2.41699 19.0664 3.78809 36.249 3.78809 43.7344c0 5.50781 -2.35352 6.8457 -7.14062 6.8457
c-5.53516 0 -13.624 -3.15137 -23.5439 -9.54492c-13.793 -8.27637 -15.8623 -11.0352 -17.5859 -24.8281c-3.79395 -28.6201 -12.0693 -142.413 -14.4834 -197.931c-1.27344 -28.0312 -3.13672 -48.7061 -4.5 -48.7061c-4.04004 0 -5.51172 54.1924 -5.51172 90.3281
c0 57.752 2.95703 126.35 8.28809 154.585v15.5166l-19.3105 12.4141c-12.4141 6.89648 -23.1035 11.3799 -24.1377 10.3447c-3.76367 -3.52832 -6.08301 -39.9473 -6.08301 -81.459c0 -19.3457 0.503906 -39.7969 1.59961 -58.541
c2.06934 -35.1719 4.4834 -84.1377 5.17285 -108.62c0.644531 -16.123 1.04785 -26.3594 1.04785 -32.082c0 -4.06543 -0.203125 -5.85254 -0.668945 -5.85254c-0.630859 0 -1.74414 3.2832 -3.48242 8.62402c-10.3447 30.6895 -15.8623 84.1377 -19.6553 183.448
c-2.41406 66.8965 -4.82715 103.104 -7.58594 106.896c-6.55176 8.62109 -93.1035 102.759 -108.966 118.276l-14.1377 13.4482v-10c0 -15.5176 8.96484 -49.6553 27.2412 -106.897c17.8389 -54.7891 27.4385 -93.6895 27.4385 -110.446
c0 -2.16797 -0.130859 -6.57812 -1.52637 -6.57812c-9.46191 0 -62.7041 178.829 -74.5332 208.749l-10.3447 27.2412h-20.3447c-11.0342 0 -20.3447 -1.37891 -20.3447 -3.10352c0 -1.72363 5.51758 -18.2754 12.4141 -36.8965
c6.89648 -18.9658 27.2412 -78.2754 45.1719 -132.414c48.9658 -147.241 75.5176 -210.689 115.862 -278.62c16.207 -27.5859 23.793 -37.2412 32.4141 -40.6895c13.291 -6.25488 109.957 -21.9307 124.482 -26.5518c22.4141 -7.93164 44.4834 -22.4141 56.207 -36.8965
c8.62109 -10.6904 12.0693 -12.7588 15.8623 -10c1.20703 1.0293 2.16211 1.52539 2.875 1.52539c1.08887 0 1.61426 -1.15625 1.61426 -3.33398c0 -10.252 -11.6504 -43.1553 -31.041 -84.7432c-24.3613 -54.2246 -16.5762 -55.165 -40 -104.828
c-12.1553 -24.9619 -17.8887 -42.4092 -17.8887 -56.125c0 -8.07422 1.98633 -14.8555 5.81934 -21.1162c6.55176 -10 8.62109 -11.0342 25.1729 -11.3789zM706.684 447.586c-15.7568 -7.65332 -26.5186 -11.1924 -35.6406 -11.1924
c-4.85156 0 -9.24023 1.00098 -13.6699 2.91699c-14.4824 6.20703 -18.9658 13.4482 -6.89648 10.3447c11.0342 -2.75879 19.3105 3.44824 19.3105 14.1377c0 9.65527 -5.51758 14.4824 -18.9658 16.5518c-8.62109 1.03418 -7.93066 1.37988 3.79297 2.06934
c0.584961 0.0185547 1.15918 0.0283203 1.72461 0.0283203c9.76953 0 16.8291 -2.85742 27.5859 -10.0283c8.27539 -5.51758 18.9658 -10.3447 23.793 -10.3447c8.79688 -0.168945 13.1943 -1.5 13.1943 -3.87109c0 -2.46191 -4.74316 -6.04492 -14.2285 -10.6123z" />
</svg>
