<?xml version="1.0" standalone="no"?>
<!DOCTYPE svg PUBLIC "-//W3C//DTD SVG 1.1//EN" "http://www.w3.org/Graphics/SVG/1.1/DTD/svg11.dtd" >
<svg xmlns="http://www.w3.org/2000/svg" xmlns:xlink="http://www.w3.org/1999/xlink" version="1.1" viewBox="-10 0 1010 1000">
   <path fill="currentColor"
d="M410.956 130.236c-15.0049 -9.03516 -22.4375 -14.0215 -22.4375 -14.9258c0 -0.0996094 0.0908203 -0.149414 0.272461 -0.149414c1.70996 0 11.4658 4.43359 29.1094 13.3389c14.123 7.0625 22.3848 10.46 25.8486 10.46c1.30469 0 1.92871 -0.482422 1.92871 -1.43262
c0 -4.04199 -9.53418 -8.65234 -9.53418 -10.9854c0 -0.169922 0.0507812 -0.328125 0.15918 -0.472656c0.166016 -0.147461 0.453125 -0.21875 0.851562 -0.21875c7.10938 0 49.6523 22.6318 71.0234 38.4131c30.3008 22.2188 71.0713 65.0479 103.819 88.542
c25 18.75 34.7227 23.2637 73.2646 35.417c42.2363 13.2744 49.3477 16.3252 49.3477 33.0674c0 2.52734 -0.162109 5.36621 -0.389648 8.59863v12.1533h26.3887c14.9307 0.347656 41.3193 4.16602 58.334 7.29102c18.7949 3.22754 38.835 4.89844 56.3174 4.89844
c14.4941 0 27.2295 -1.14844 36.043 -3.50879c4.69238 -1.2793 8.76172 -1.9043 12.1484 -1.9043c7.64258 0 11.8105 3.18066 11.8105 9.19531c0 10.417 -12.1533 39.584 -22.2227 52.4307c-6.25 8.33301 -9.02734 16.3193 -9.02734 25.6943
c0 14.584 -13.1943 55.5557 -22.2227 69.0977c-3.125 4.86133 -10.417 9.375 -17.708 10.7637c-9.375 1.73633 -13.8887 5.20801 -20.4863 16.667c-8.11328 13.6182 -27.832 34.248 -31.5146 34.248c-0.387695 0 -0.597656 -0.229492 -0.597656 -0.71875
c0 -0.432617 0.164062 -1.06934 0.514648 -1.93262c1.35547 -3.09766 2.0625 -15.2598 2.0625 -25.7178c0 -8.30078 -0.445312 -15.5273 -1.36719 -16.2959c-0.347656 -0.347656 -12.1533 -1.38867 -26.3896 -2.08301h-25.6943l-10.0693 15.2773
c-8.55273 13.8174 -31.1338 36.6738 -35.8447 36.6738c-0.260742 0 -0.467773 -0.0703125 -0.613281 -0.21582c-0.0449219 -0.0898438 -0.0664062 -0.266602 -0.0664062 -0.520508c0 -1.71094 0.985352 -6.92871 2.49707 -12.6738
c1.01074 -3.84375 1.55078 -9.69043 1.55078 -15.5508c0 -4.19727 -0.276367 -8.40137 -0.856445 -11.8799v-15.625h-21.5283c-10.416 -2.08301 -26.7354 -10.416 -35.7637 -13.541c-9.86621 -3.3916 -16.0361 -5.20898 -20.6982 -5.20898
c-5.83887 0 -9.3125 2.85059 -14.7188 9.02832c-9.72168 11.1113 -43.4023 58.6807 -43.4023 61.458c0 1.04199 12.5 8.33398 28.125 16.3193c18.0557 9.375 31.9443 19.4443 38.8887 28.4727c23.667 29.501 37.6475 43.2637 43.918 43.2637
c0.446289 0 0.852539 -0.0703125 1.2207 -0.208008c3.47266 -1.38867 11.1113 -9.375 17.0146 -18.4033l11.458 -15.9717v47.5693h20.833c10.8496 2.6123 21.583 4.75879 29.7109 4.75879c5.91895 0 10.4561 -1.13867 12.6504 -4.06445
c2.08301 -2.08301 7.29199 -13.1943 11.8057 -24.3057c4.875 -12.3018 6.95605 -17.001 9.14844 -17.001c1.08789 0 2.20215 1.15527 3.69922 3.1123c2.26172 2.94043 3.34473 7.35547 3.34473 14.6836c0 3.9209 -0.30957 8.6748 -0.915039 14.4834
c-0.636719 5.60254 -0.946289 10.5508 -0.946289 14.8115c0 7.3584 0.923828 12.665 2.68262 15.7432c1.32227 2.64453 2.02344 4.97852 2.02344 7.71289c0 3.72559 -1.30273 8.19434 -4.10645 15.2041c-8.68066 23.2637 -11.1113 24.3057 -56.5977 24.6533
c-22.2217 0 -44.4443 1.38867 -49.3057 2.77734c-1.52637 0.458008 -3.01953 0.714844 -4.60352 0.714844c-5.625 0 -12.4062 -3.2334 -25.9512 -12.1729c-18.623 -11.8242 -37.749 -20.6279 -45.167 -20.6279c-1.2959 0 -2.2334 0.268555 -2.75 0.835938
c-0.704102 0.704102 -1.02246 1.75195 -1.02246 3.08301c0 12.4102 27.7393 49.3916 29.4941 60.8057c0.140625 1.54785 0.25293 2.78223 0.25293 3.71484c0 1.48242 -0.28418 2.20117 -1.19043 2.20117c-1.33496 0 -4.01953 -1.55859 -9.13184 -4.52734
c-5.90234 -3.47168 -17.0137 -14.583 -25 -25c-10.6582 -14.1279 -20.9629 -22.7715 -25.9863 -22.7715c-2.01465 0 -3.17969 1.38867 -3.17969 4.36914c0 13.542 15.625 36.458 40.2773 58.6807c11.5342 10.127 24.0537 21.5391 24.0537 24.6074
c0 0.514648 -0.351562 0.794922 -1.11914 0.794922c-1.69336 0 -5.40625 -1.36133 -11.8232 -4.56934c-3.09082 -1.54492 -5.09375 -2.42383 -5.86426 -2.42383c-0.236328 0 -0.356445 0.0820312 -0.356445 0.253906c0 1.02832 4.31934 5.24707 13.8594 13.9756
c19.792 18.0557 40.9727 31.25 50.3477 31.25c2.77734 0 5.20801 1.73633 5.20801 3.81934c0 1.74414 -1.91504 2.53027 -5.74609 2.53027c-2.27148 0 -5.21777 -0.277344 -8.83691 -0.793945h-1.73633c6.94434 4.86035 19.4443 18.75 27.7773 22.5693
c-22.0713 -2.6123 -47.915 -4.68652 -57.291 -9.375c-3.5498 -1.82812 -6.13379 -2.62402 -7.67773 -2.62402c-1.12109 0 -1.69434 0.417969 -1.69434 1.16504c0 1.5459 2.46289 4.5 7.63574 8.05664c2.875 2.05371 4.23145 3.53027 4.23145 4.4209
c0 0.672852 -0.774414 1.01172 -2.25391 1.01172c-3.18359 0 -9.62988 -1.56641 -18.6445 -4.73828c-5.94336 -2.08008 -14.1123 -3.0791 -21.5137 -3.0791c-9.89453 0 -18.417 1.78516 -18.417 5.16211c0 1.73633 9.02832 5.55566 20.1396 8.33301
c15.5361 4.38281 22.8457 6.70801 22.8457 7.50098c0 0.214844 -0.538086 0.317383 -1.59668 0.317383c-1.83984 0 -5.25195 -0.30957 -10.1387 -0.873047c-8.68066 -1.04199 -23.2637 -2.77832 -32.9854 -3.82031c-30.209 -3.125 -113.195 -28.8193 -135.765 -41.3193
c-22.916 -13.1943 -58.6807 -53.8193 -67.0137 -76.041c-6.25879 -16.8408 -9.32031 -36.6875 -9.32031 -56.7959c0 -26.7402 5.41309 -53.9424 15.918 -75.1484c2.96875 -6.53223 5.42969 -12.5557 5.42969 -14.5996c0 -0.345703 -0.0703125 -0.578125 -0.22168 -0.678711
c-0.0332031 -0.0332031 -0.0947266 -0.0498047 -0.182617 -0.0498047c-1.72559 0 -13.7002 6.38965 -27.248 14.9805c-37.1523 23.2637 -85.417 44.0977 -151.389 65.625c-41.0869 13.6094 -74.1973 22.6621 -80.5107 22.6621
c-0.714844 0 -1.08594 -0.116211 -1.08594 -0.355469c0 -0.503906 1.65039 -1.55273 5.20801 -3.20898c4.86035 -2.43066 15.625 -7.63965 23.6104 -11.459c20.625 -9.45215 1.4668 -7.08203 20.1396 -15.9717c5.86328 -2.6875 8.97559 -4.85938 8.97559 -5.91016
c0 -0.443359 -0.552734 -0.6875 -1.68457 -0.6875c-0.362305 -0.0361328 -0.746094 -0.0537109 -1.14844 -0.0537109c-3.45508 0 -8.20508 1.27637 -11.0039 2.83203c-3.125 1.38867 -12.8477 3.81934 -21.5283 4.86035h1.73633
c7.96289 -3.69629 12.8975 -11.1191 12.8975 -13.6855c0 -0.567383 -0.241211 -0.897461 -0.744141 -0.897461c-2.25781 -0.173828 -3.38574 -0.347656 -3.38574 -0.868164s1.12793 -1.38867 3.38574 -2.95117c2.29297 -1.47461 3.4082 -2.44629 3.4082 -2.92969
c0 -0.240234 -0.276367 -0.360352 -0.822266 -0.360352c-3 0 -14.1377 3.62109 -32.1006 10.582c-34.7412 13.3623 -85.2324 29.9385 -90.5566 29.9385c-0.209961 0 -0.349609 -0.0253906 -0.415039 -0.078125
c-0.0253906 -0.0253906 -0.0380859 -0.0546875 -0.0380859 -0.0878906c0 -2.01172 45.9639 -18.1875 45.9639 -22.8398c0 -0.120117 -0.0302734 -0.232422 -0.0927734 -0.335938c-0.0351562 -0.0703125 -0.0527344 -0.147461 -0.0527344 -0.230469
c0 -1.5459 6.0498 -5.1543 14.2891 -8.4502c9.02734 -3.42969 13.7363 -6.48535 13.7363 -7.79785c0 -0.436523 -0.522461 -0.680664 -1.58203 -0.680664c-1.87695 0 -5.43945 0.764648 -10.7656 2.57617c-5.84082 2.05469 -8.91309 2.9209 -9.94336 2.9209
c-0.273438 0 -0.40332 -0.0605469 -0.40332 -0.176758c0 -2.21777 47.8467 -24.6191 47.8467 -24.6191c-0.179688 -0.179688 -0.775391 -0.265625 -1.70605 -0.265625c-2.66895 0 -8.08496 0.713867 -14.2656 2.00195c-3.93457 0.655273 -7.25 1.00195 -9.4707 1.00195
c-1.90137 0 -3.00098 -0.253906 -3.00098 -0.78418c0 -0.162109 0.103516 -0.350586 0.318359 -0.56543c1.38867 -1.38867 29.5137 -16.667 62.1533 -33.6807c60.1514 -31.3545 69.0879 -38.3613 109.027 -66.3193c20.833 -14.583 128.473 -104.167 128.473 -106.598
c0 0 -129.185 83.9199 -135.417 87.5c-16.3193 9.02832 -56.25 32.6396 -88.8887 52.084c-59.6357 35.4854 -75.5479 44.9121 -76.2861 44.9121c-0.0175781 0 -0.0273438 -0.00585938 -0.0273438 -0.0175781c0 -0.175781 2.13477 -1.68164 4.78516 -3.5752
c4.9043 -3.85254 7.42285 -7.17578 7.42285 -9.12207c0 -1.16211 -0.898438 -1.83398 -2.72461 -1.83398c-1.17773 0 -2.74121 0.279297 -4.69824 0.886719c-2.41797 0.763672 -4.04297 1.1543 -4.97754 1.1543c-0.667969 0 -0.983398 -0.199219 -0.983398 -0.604492
c0 -0.574219 0.633789 -1.56152 1.79492 -2.98047c4.39844 -5.63574 6.51172 -9.47559 6.51172 -11.3691c0 -0.904297 -0.482422 -1.36426 -1.42773 -1.36426c-2.07422 0 -6.38184 2.21875 -12.7236 6.83008c-8.67969 6.25 -16.666 12.5 -17.3604 13.8896
c-1.04199 1.73535 -3.47266 2.77734 -5.20898 2.77734c-0.119141 0 -0.176758 -0.0537109 -0.176758 -0.157227c0 -2.43652 31.8457 -32.4795 31.8457 -35.748c0 -0.0888672 -0.0234375 -0.158203 -0.0712891 -0.206055
c-0.0722656 -0.0722656 -0.185547 -0.107422 -0.334961 -0.107422c-4.29102 0 -39.1973 28.6396 -43.168 28.6396c-0.103516 0 -0.186523 -0.0195312 -0.24707 -0.0595703c-0.0429688 -0.0644531 -0.0634766 -0.142578 -0.0634766 -0.234375
c0 -3.43066 28.9395 -25.7559 28.9395 -29.709c0 -0.100586 -0.0185547 -0.188477 -0.0566406 -0.264648c-0.00390625 -0.0166016 -0.00683594 -0.0361328 -0.00683594 -0.0576172c0 -1.70703 13.7578 -16.8184 30.5625 -33.623
c31.6553 -31.6553 98.3457 -111.691 98.3457 -117.779c0 -0.12207 -0.0273438 -0.214844 -0.0820312 -0.276367c-0.145508 -0.0966797 -0.320312 -0.141602 -0.520508 -0.141602c-2.54492 0 -9.28613 7.20215 -13.5391 7.20215
c-0.303711 0 -0.594727 -0.0371094 -0.871094 -0.116211c-0.371094 -0.15918 -0.757812 -0.233398 -1.15918 -0.233398c-5.91699 0 -14.8545 16.2051 -19.3271 16.2051c-2.42969 0 -13.541 6.94531 -25 15.625c-13.2129 10.0361 -21.7539 14.9961 -24.6895 14.9961
c-0.75293 0 -1.13672 -0.326172 -1.13672 -0.976562c0 -2.07812 3.92383 -7.4668 12.2852 -16.1025l17.3613 -17.3613l-23.6113 14.2363c-12.4873 7.55859 -24.042 13.25 -26.7168 13.25c-0.151367 0 -0.274414 -0.0185547 -0.367188 -0.0556641
c-0.138672 -0.0458984 -0.207031 -0.151367 -0.207031 -0.3125c0 -2.24902 13.2646 -15.3828 30.7627 -30.9375c40.5469 -35.5938 64.2627 -59.5996 64.2627 -64.3945c0 -0.583984 -0.351562 -0.882812 -1.06836 -0.882812c-3.125 0 -11.458 4.51367 -19.0967 10.416
c-9.04395 6.7832 -16.1455 10.3965 -19.1406 10.3965c-1.00391 0 -1.5459 -0.405273 -1.5459 -1.2334c0 -1.25488 1.24512 -3.47949 4.01953 -6.73242c5.07422 -5.53418 29.874 -38.1484 29.874 -51.3281c0 -1.25 -0.222656 -2.3252 -0.707031 -3.18555
c-9.02832 -17.0137 -31.9443 -107.292 -32.9863 -129.514c-0.694336 -15.625 -2.77734 -25.6943 -6.59668 -29.8613c-3.55957 -3.91504 -5.38574 -7.28223 -5.38574 -8.84082c0 -0.592773 0.264648 -0.923828 0.797852 -0.923828
c0.800781 0 2.20801 0.746094 4.24023 2.47266c2.125 1.73145 3.60742 2.48145 4.50879 2.48145c0.729492 0 1.07812 -0.491211 1.07812 -1.35254c0 -2.76953 -3.6084 -9.36133 -9.75391 -15.7119c-3.82715 -3.82715 -6.15527 -7.28027 -6.15527 -8.8418
c0 -0.5625 0.302734 -0.879883 0.947266 -0.879883c2.08301 0 4.86133 1.38867 5.90234 3.47168c1.72754 2.76367 3.64648 4.03809 5.45117 4.03809c3.63867 0 6.81738 -5.17383 7.04883 -13.7598v1.04102c2.04492 5.62207 6.34668 8.98828 8.47559 8.98828
c0.763672 0 1.24707 -0.432617 1.24707 -1.34961c0.144531 -3.88867 1.125 -5.74609 2.4707 -5.74609c1.89844 0 4.52441 3.69824 6.55664 10.6074c3.82031 11.459 12.1533 15.625 103.82 52.084c18.75 7.63867 40.9717 18.4023 48.958 23.958
c10.0391 6.82715 16.1309 9.93848 23.4453 9.93848c5.33398 0 11.3174 -1.65527 19.957 -4.73047c7.98633 -2.77734 19.792 -5.20801 26.3896 -5.20801c13.8887 0 14.583 -1.04199 17.3604 -25c0.629883 -5.66602 1.06934 -9.65234 1.06934 -12.5801
c0 -6.76074 -2.34277 -7.88184 -10.0967 -11.0312c-5.37012 -2.19629 -7.99414 -4.05078 -7.99414 -5.31934c0 -0.536133 0.467773 -0.967773 1.39648 -1.27734c3.54688 -1.41895 5.29688 -3.35938 5.29688 -5.67969c0 -3.3584 -3.66504 -7.51172 -10.8525 -12.0293
c-7.09473 -4.31836 -10.4893 -8.56836 -10.4893 -11.6846c0 -2.96191 3.06543 -4.89941 8.93652 -4.89941c1.85938 0 4 0.194336 6.41406 0.612305h12.5v-5.20898c-4.86035 -3.81934 -29.166 -13.8887 -43.4023 -22.2217zM610.956 345.514
c-9.85254 -7.59375 -23.3447 -11.4277 -38.4688 -11.4277c-10.4609 0 -21.7021 1.83398 -33.0596 5.52539h-19.0967l12.1523 12.8467c6.59766 3.47266 17.0137 10.0693 23.2637 14.584c5.94727 4.45996 9.16602 6.45117 12.3584 6.45117
c2.02734 0 4.04297 -0.801758 6.73926 -2.28516c4.51367 -2.43066 17.3613 -6.94434 28.4727 -10.0693h20.4854zM818.247 543.777c0.209961 0.314453 0.4375 0.454102 0.675781 0.454102c1.5625 0 3.55273 -6.05469 3.55273 -8.55176
c0 -0.647461 -0.134766 -1.05664 -0.445312 -1.05664c-0.503906 0 -1.47266 1.07617 -3.08789 3.94629c-0.841797 1.26172 -1.30078 2.52344 -1.30078 3.55371c0 0.670898 0.195312 1.24414 0.605469 1.6543z" />
</svg>
