<?xml version="1.0" standalone="no"?>
<!DOCTYPE svg PUBLIC "-//W3C//DTD SVG 1.1//EN" "http://www.w3.org/Graphics/SVG/1.1/DTD/svg11.dtd" >
<svg xmlns="http://www.w3.org/2000/svg" xmlns:xlink="http://www.w3.org/1999/xlink" version="1.1" viewBox="-10 0 1010 1000">
   <path fill="currentColor"
d="M484.375 142.958c0.685547 -12.1621 1.37891 -24.3145 2.08301 -36.458h27.084c0.704102 12.1436 1.39746 24.2959 2.08301 36.458c11.0059 0.68457 22.002 1.37793 32.9863 2.08398v13.8887c0 12.8467 -0.694336 13.542 -10.417 13.542
c-11.458 0 -24.3057 10.416 -24.3057 19.791c0 10.417 5.90332 15.9727 25 25.3477c22.917 10.7637 34.0283 26.3887 34.0283 47.2217c0 17.709 -3.81934 15.9727 55.5557 23.959c118.75 16.666 176.735 39.2354 226.041 88.541
c40.9727 40.9727 59.7227 90.9727 59.7227 158.681c-0.347656 29.167 1.04102 39.9307 4.51367 43.0557c2.77734 2.08301 4.86133 8.68066 4.86133 14.2363c0 7.98633 -2.43066 11.458 -11.1113 15.9717c-20.4863 10.7646 -48.958 43.0557 -64.583 73.2646
c-7.98633 15.625 -14.584 30.9023 -14.584 33.333c0 2.77734 4.86133 11.8057 10.417 20.4863c20.4863 30.208 16.3193 47.2217 -11.8057 47.2217c-18.75 0 -25.3467 5.20898 -28.125 22.5693c-2.08301 13.542 -1.38867 14.9307 11.8057 25.3477
c11.458 9.375 14.2363 13.542 14.2363 23.2637c0 11.459 -0.694336 11.8057 -19.0977 15.9727c-17.3613 3.81934 -22.2217 3.47168 -63.1943 -6.59766c-179.167 -43.75 -314.931 -44.4443 -488.194 -1.73633c-47.917 11.8057 -52.4307 12.1533 -70.1387 8.33398
c-18.4033 -4.16699 -19.0977 -4.51367 -19.0977 -15.9727c0 -9.72168 2.77832 -13.8887 14.2363 -23.2637c13.1943 -10.417 13.8887 -11.8057 11.8057 -25.3477c-3.125 -17.708 -9.375 -22.5693 -30.208 -22.5693c-32.499 0 -26.1709 -23.4043 -9.375 -47.916
c5.55469 -7.98633 10.0693 -17.0146 10.0693 -19.792c0 -2.43066 -6.59766 -17.708 -14.584 -33.333c-15.625 -30.209 -44.0967 -62.5 -64.2354 -73.2646c-9.02832 -4.51367 -11.459 -7.98535 -11.459 -15.9717c0 -5.55566 2.08398 -12.1533 4.86133 -14.2363
c3.47266 -3.125 4.86133 -13.8887 4.51367 -43.0557c0 -67.708 18.75 -117.708 59.7227 -158.681c49.3057 -49.3057 107.291 -71.875 226.041 -88.541c59.375 -7.98633 55.5557 -6.25 55.5557 -23.959c0 -20.833 11.1113 -36.458 34.0283 -47.2217
c19.0967 -9.375 25 -14.9307 25 -25.3477c0 -9.375 -12.8477 -19.791 -24.3057 -19.791c-9.72266 0 -10.417 -0.695312 -10.417 -13.542v-13.8887c11.0059 -0.68457 22.002 -1.37793 32.9863 -2.08398zM451.389 342.611
c-2.92773 -1.12598 -17.5537 -7.44629 -18.4023 -6.59766c-50 14.9307 -65.9727 26.7363 -82.6387 60.7637c-11.1113 22.2227 -11.459 24.3057 -10.7646 63.542c0.347656 22.2227 1.38965 47.2227 2.08398 55.9033c1.04102 8.67969 1.73535 16.666 1.73535 18.0547
c0.347656 1.38965 2.77832 1.73633 5.55566 0.695312c9.72266 -3.82031 26.042 5.55469 26.042 14.583c0 6.94434 1.73633 8.33301 10.0693 8.33301c11.1113 0 15.625 4.16699 19.0977 18.0557c3.34961 13.4062 -10.1787 20.1172 -13.542 30.208
c-1.04199 3.82031 -6.25 9.02832 -11.458 11.459c-6.59766 3.125 -9.72266 7.63867 -10.417 15.2773c-1.73633 17.709 11.458 23.959 50.3477 23.959c31.25 0 32.291 -0.347656 43.0547 -10.7646c9.72266 -9.72168 10.417 -12.1523 7.63965 -20.833
c-1.73633 -5.55566 -6.25 -10.7637 -10.0693 -11.458c-9.375 -1.73633 -15.2783 -7.29199 -15.2783 -14.2363c0 -3.125 -3.81934 -7.63867 -8.68066 -9.72266c-10.7637 -4.86035 -11.8057 -21.1807 -1.73633 -30.208c3.82031 -3.47266 6.94531 -10.417 6.94531 -15.625
s2.42969 -11.458 5.20801 -13.8887c4.51367 -3.47266 5.20801 -18.75 5.20801 -95.834v-91.666zM587.5 342.611c-25.6855 -8.07227 -20.0713 -7.71094 -38.8887 -0.347656v91.667c0 87.5 0.34668 92.0137 6.94434 97.917c10.1914 8.49023 1.37598 15.5381 9.72168 26.3887
c12.1533 15.9717 12.1533 20.4863 -1.04102 32.291c-6.59766 6.25 -12.1533 13.8896 -12.1533 17.0146c0 3.47168 -3.47168 5.90234 -9.375 6.59668c-6.59668 0.694336 -10.0693 3.81934 -12.5 11.1113c-2.77734 8.68066 -2.08301 11.1113 7.63965 20.833
c10.7637 10.417 11.8047 10.7646 43.0547 10.7646c38.8896 0 52.084 -6.25 50.3477 -23.959c-0.694336 -7.63867 -3.81934 -12.1523 -10.417 -15.2773c-12.3447 -5.76172 -11.7148 -16.5742 -20.4854 -25.3477c-12.1533 -12.1523 -1.38965 -34.375 16.666 -34.375
c6.25 0 7.98633 -2.08301 7.98633 -8.33301c0 -9.02832 16.3193 -18.4033 26.042 -14.583c2.77734 1.04102 5.20801 0.694336 5.55566 -0.695312c0 -1.38867 0.694336 -9.375 1.73535 -18.0547c0.694336 -8.68066 1.73633 -33.6807 2.08398 -55.9033
c0.694336 -39.2363 0.34668 -41.3193 -10.7646 -63.542c-14.2354 -28.8193 -32.9854 -45.1387 -62.1523 -54.166zM288.194 369.348c0 -4.16699 -3.47168 -2.77832 -32.9863 11.1104c-45.4854 21.5283 -75.6943 47.5693 -87.1523 75.6943
c-6.59766 15.625 -10.417 76.3896 -5.90332 96.1807c2.43066 11.8057 4.86133 14.2363 14.2363 16.667c16.0215 4.57715 10.3506 17.375 25.6943 22.2227c14.9307 4.51367 19.4443 12.5 14.2363 26.041c-6.8291 17.0752 5.27246 17.7852 -4.86133 32.9863
c-3.47168 5.55566 -6.59668 11.8057 -6.59668 14.2363c0 7.29102 25 21.875 37.5 21.875c14.9307 0 34.0273 -7.98633 38.541 -16.667c4.51465 -8.33301 -3.47168 -20.4863 -14.2354 -22.2217c-10.874 -1.6748 -14.1641 -14.5098 -21.1807 -21.5283
c-9.02832 -9.375 -10.7637 -21.875 -4.51367 -31.5967c3.125 -4.86133 7.63867 -8.68066 10.0693 -8.68066c3.125 0 4.16602 -16.667 4.16602 -68.4033c0 -74.6523 1.73633 -83.333 22.917 -125.347c5.55566 -10.7646 10.0693 -20.834 10.0693 -22.5693zM743.75 380.111
c-15.625 -7.29199 -29.5137 -13.1943 -30.208 -13.1943c-3.47266 0 -1.38965 5.55566 8.33301 25c21.1807 42.0137 22.917 50.6943 22.917 125.347c0 51.7363 1.04102 68.4033 4.16602 68.4033c2.43066 0 6.94434 3.81934 10.0693 8.68066
c6.25 9.72168 4.51465 22.2217 -4.51367 31.5967c-7.0166 7.01855 -10.2979 19.8525 -21.1807 21.5283c-10.7637 1.73535 -18.75 13.8887 -14.2354 22.2217c4.51367 8.68066 23.6104 16.667 38.541 16.667c12.5 0 37.5 -14.584 37.5 -21.875
c0 -6.36621 -14.4453 -22.8223 -10.416 -30.209c2.08301 -3.81934 1.73535 -10.0693 -1.04199 -17.0137c-5.20801 -13.541 -0.694336 -21.5273 14.2363 -26.041c15.3125 -4.83691 9.68555 -17.6494 25.6943 -22.2227c9.375 -2.43066 11.8057 -4.86133 14.2363 -16.667
c4.51367 -19.791 0.694336 -80.5557 -5.90332 -96.1807c-11.8057 -28.4717 -42.0137 -54.5137 -88.1943 -76.041z" />
</svg>
