<?xml version="1.0" standalone="no"?>
<!DOCTYPE svg PUBLIC "-//W3C//DTD SVG 1.1//EN" "http://www.w3.org/Graphics/SVG/1.1/DTD/svg11.dtd" >
<svg xmlns="http://www.w3.org/2000/svg" xmlns:xlink="http://www.w3.org/1999/xlink" version="1.1" viewBox="-10 0 1010 1000">
   <path fill="currentColor"
d="M665.037 78.2012c39.1094 -19.9121 119.853 -39.7051 175.778 -20.7617c24.5684 8.65039 53.6338 38.0625 63.668 65.3975c16.6094 43.5986 4.15234 92.3877 -51.2109 202.769c-26.9893 53.2871 -27.3359 54.6709 -24.9131 73.0107
c1.38379 10.0342 3.45996 20.415 5.19043 22.8369c4.49805 7.2666 24.5674 4.49805 45.6748 -6.22852c37.0234 -18.6846 36.6777 -11.0723 -0.692383 30.1045c-13.4951 14.8789 -49.8271 58.1309 -80.9688 96.1934c-123.184 150.52 -195.848 205.883 -268.858 205.883
c-33.9102 0 -62.9756 -7.2666 -87.1973 -21.7998c-20.415 -12.457 -52.249 -45.3291 -52.249 -54.6709c0 -7.2666 15.917 -20.416 24.9131 -20.416c3.46094 0 11.0732 5.53711 16.9551 12.1113c5.88281 6.57422 22.1455 19.0312 36.333 27.6816
c24.5674 14.8789 27.335 15.5713 50.8643 15.5713c13.8408 -0.34668 32.5264 -2.76855 42.2148 -6.22852l17.3008 -5.88281l-1.03809 -60.5537c-0.345703 -33.2178 -1.72949 -80.2764 -2.76758 -104.844l-2.42285 -43.9453l-35.2939 32.8721
c-19.7227 17.9932 -36.6777 32.8721 -37.7158 32.8721s-2.07617 -21.7988 -2.07617 -48.4424v-48.7891c-20.4873 13.7686 -40.9053 27.6074 -61.2461 41.5225l-15.2246 -15.5713c-8.30469 -8.30469 -16.9551 -15.2246 -19.377 -15.2246
c-5.53613 0 -115.917 44.9824 -120.069 48.7891c-5.53613 4.84375 6.57422 25.6055 22.1455 38.0615c7.95801 6.5752 18.3389 14.8789 22.8369 18.6855l8.30469 6.9209l-8.30469 17.9922c-4.84375 10.0352 -9.68848 18.3398 -10.7266 18.3398
c-5.88184 0 -28.7197 -14.5332 -36.6777 -23.1836c-48.7891 -53.2871 -67.1279 -125.605 -44.6367 -176.471c7.95801 -17.9932 44.29 -70.9346 67.4736 -97.9238c32.5264 -37.7158 117.993 -130.104 138.062 -148.789c11.0723 -10.3809 31.4873 -34.6016 45.3281 -53.6328
c28.8066 -39.6553 52.4912 -65.9385 38.4092 -28.374c-8.99707 23.5293 -7.2666 34.6025 6.57422 47.0586c6.91992 5.88281 13.8408 10.7266 15.5703 10.7266c20.001 0 97.1533 -52.6338 120.069 -63.667zM830.089 90.3115
c-54.6709 -20.7617 -132.18 0.692383 -232.872 65.0518c-33.5635 21.4531 -40.4844 24.5674 -54.6709 24.5674c-13.4951 0 -18.3389 -1.72949 -26.9893 -10.3809l-10.7266 -10.3799c-13.1738 13.4697 -26.4385 26.8486 -39.793 40.1377l4.49805 47.751
c2.42285 29.0664 5.88281 48.4434 8.30469 49.4814c1.54785 0.515625 75.3232 -16.0264 76.125 -15.2256c0.691406 0.692383 -4.84473 32.1807 -12.457 70.2422c-11.4189 55.71 -13.8408 74.7412 -13.1484 100l1.03809 30.7959
c66.8037 -61.5693 133.699 -123.047 200.691 -184.429l40.4844 -0.345703h40.4854l1.03711 12.8027c1.03809 12.4561 2.07617 10.7266 25.9521 -35.6406c13.4951 -26.6436 27.6816 -59.1689 31.834 -71.9717c17.3008 -56.0557 3.11426 -95.8477 -39.793 -112.457z
M449.812 334.948c-0.0263672 -0.0263672 -13.0439 -105.086 -13.1484 -105.19c-3.11426 -3.11426 -89.6201 94.4639 -129.066 145.675c-16.9551 21.7988 -35.9863 69.2041 -35.9863 88.9268c0 20.416 -8.30371 21.7998 74.3945 -12.4561l62.2842 -25.6055
c10.3809 9.91895 20.7617 19.8379 31.1416 29.7578c19.6719 -13.085 39.167 -26.3467 58.4775 -39.793l9.34277 -46.3662c5.19043 -25.6055 8.99609 -47.0596 8.30469 -47.751c-1.08301 -1.08301 -64.6533 14.4385 -65.7441 12.8027zM806.906 332.872
c1.38379 -3.11426 -6.22852 -4.15234 -32.1807 -3.80664h-34.2559c-45.9697 42.1504 -91.7627 84.4775 -137.37 126.99l0.345703 46.0205c0.692383 76.4707 4.49902 176.125 7.2666 176.125c1.03809 0 10.0352 -5.19043 19.377 -11.0732
c26.2979 -17.6465 71.627 -62.6299 110.727 -110.381c19.3779 -23.875 41.8691 -47.751 49.4814 -52.9404c16.9551 -11.7646 28.0273 -28.374 28.0273 -42.2148c0 -7.2666 -4.84375 -14.1865 -19.0312 -28.0273l-18.6846 -18.3398l3.11426 -17.6465
c2.76758 -14.1875 10.3809 -35.9863 23.1836 -64.7061zM333.896 599.308c7.2666 -14.8789 7.6123 -15.2246 21.7988 -13.1484c21.6992 2.83008 43.3359 -0.291992 43.9453 22.8369c0.345703 4.84473 2.42188 13.1494 4.84375 19.0312
c4.15234 10.3809 4.15234 10.3809 -18.3389 26.2979c-12.457 8.99707 -27.3359 21.1074 -32.8721 27.3359l-10.0342 11.418l-10.7266 -12.1104c-5.88281 -6.57422 -14.8789 -13.8408 -20.0693 -15.917c-5.53613 -2.07617 -9.68848 -5.88184 -9.68848 -7.95801
s5.19043 -12.8027 11.7646 -23.5293c6.22852 -10.7275 15.2246 -26.2979 19.377 -34.2568zM267.113 676.816c13.8408 -8.99609 21.4531 -8.99609 41.8691 0.692383c15.5703 6.91992 21.4531 16.6084 21.4531 35.9863c0 16.2627 -5.53613 33.9102 -10.7266 33.9102
c-1.73047 0 -5.88281 -4.15234 -8.99707 -9.34277c-7.6123 -12.1113 -25.9512 -28.7197 -40.1387 -36.332c-17.6465 -10.0352 -18.3389 -15.2256 -3.45996 -24.9141zM242.2 719.724c6.91992 -15.5713 11.7646 -16.9551 28.0273 -6.5752
c11.4189 6.9209 32.5264 30.7959 32.5264 36.333c0 1.72949 -6.9209 6.91992 -15.5713 11.418s-21.7988 14.8789 -29.4121 23.1836c-15.917 17.3008 -23.1826 18.6855 -34.6016 6.57422c-4.49805 -4.84375 -9.68848 -8.65039 -11.7646 -8.65039
s3.45996 6.9209 12.8027 15.2246c20.415 19.0312 20.415 24.5674 2.42188 61.9385c-11.4189 23.875 -16.2627 30.1035 -30.1035 38.7539c-29.0654 17.9932 -53.6338 11.0723 -72.3184 -21.1074c-7.95898 -13.4941 -8.99707 -18.3389 -7.6123 -38.4082
c1.38379 -20.0693 2.76758 -23.875 11.7646 -31.1416c14.8789 -12.457 62.6299 -35.9863 68.166 -33.5645c3.45996 1.03809 5.88184 -1.38379 7.2666 -6.91992c1.03809 -4.49805 8.99609 -14.1875 16.9551 -20.7617c8.30371 -6.91992 17.9932 -18.6846 21.4531 -26.2969z
M96.8711 895.155c4.84473 -6.91992 10.3809 -12.8027 12.457 -12.8027c3.52637 0 42.8057 32.0791 44.291 33.5645c3.80566 2.42188 -11.7656 19.0312 -23.1836 24.5674c-17.6475 8.65039 -25.9521 6.22852 -34.6025 -9.34277
c-9.68848 -16.9551 -9.68848 -20.0693 1.03809 -35.9863z" />
</svg>
