<?xml version="1.0" standalone="no"?>
<!DOCTYPE svg PUBLIC "-//W3C//DTD SVG 1.1//EN" "http://www.w3.org/Graphics/SVG/1.1/DTD/svg11.dtd" >
<svg xmlns="http://www.w3.org/2000/svg" xmlns:xlink="http://www.w3.org/1999/xlink" version="1.1" viewBox="-10 0 1010 1000">
   <path fill="currentColor"
d="M359.116 53.6328c0 -3.45996 21.7988 -1.72949 42.9062 3.80664c47.0586 12.1104 68.8584 26.2979 124.913 82.0068c99.6543 99.3076 113.149 106.229 248.789 125.26c51.9033 7.2666 60.208 9.34277 72.665 18.3389c13.1484 9.34277 14.1865 10.7266 13.4941 25.9512
c-0.691406 20.0693 -12.8027 38.4092 -44.9824 66.4365c-30.7959 26.9893 -63.3223 66.7822 -78.5469 96.8857c-6.57422 13.4951 -20.7607 49.1348 -31.4873 79.2383c-12.8027 37.7168 -22.1455 58.4775 -28.7197 65.3984
c-5.19043 5.53613 -24.2217 18.6855 -42.2148 29.0654c-17.9932 10.7266 -40.4844 27.3359 -50.1729 37.3701c-16.9551 17.3018 -25.2598 28.7197 -72.3184 101.385c-27.6816 42.2139 -52.9414 70.2422 -87.5439 96.8857
c-13.8408 10.7266 -35.6396 28.0273 -48.4424 37.7158c-23.5293 18.3389 -55.709 32.1797 -74.7402 32.1797c-14.8789 0 -31.1426 -8.99609 -38.4082 -21.1064c-11.7646 -19.7236 -63.668 -44.6367 -92.7344 -44.6367c-7.6123 0 -13.8408 -3.46094 -22.1445 -12.457
c-14.8789 -15.5713 -15.2256 -28.0273 -1.38477 -62.2842c20.415 -51.2109 21.4531 -57.0928 24.2217 -176.124c2.42188 -97.5781 3.45996 -114.187 10.3809 -140.139c13.1484 -50.5186 35.2939 -90.3115 79.585 -141.868c34.2559 -39.793 83.0449 -125.605 99.3076 -174.74
c11.7646 -35.2949 13.8408 -97.9248 3.80664 -113.495c-3.46094 -4.84473 -6.22852 -10.0352 -6.22852 -11.0732zM552.888 208.65c0 -3.80566 -2.42188 -8.99609 -5.19043 -11.4189c-4.15234 -3.45996 -7.95898 -1.38379 -21.7998 13.1494
c-22.8369 23.875 -39.4463 31.1416 -96.8857 42.9062c-52.9404 10.7266 -68.8574 16.9551 -88.9268 34.2559c-14.1875 12.8027 -16.2627 20.415 -2.42188 10.7266c24.9131 -17.6465 50.5186 -25.6055 103.113 -31.834c51.2119 -6.22754 74.7412 -14.5322 95.1562 -34.2559
c9.34277 -9.34277 16.9551 -19.377 16.9551 -23.5293zM712.057 295.155c0 -4.49805 -1.38379 -7.95801 -3.11328 -7.95801c-5.19043 0 -20.0693 20.7607 -28.7197 40.1387c-10.0352 22.1455 -9.68945 55.3633 1.72949 108.65
c10.3809 49.8271 15.5713 41.5225 9.34277 -15.2246c-6.22852 -55.3643 -3.80664 -79.2393 9.68848 -100.347c6.22852 -9.68848 11.0723 -20.7607 11.0723 -25.2598zM571.572 299.654c-2.76758 -7.2666 -7.26562 -6.9209 -11.418 1.03809
c-10.0352 18.3389 -47.0596 22.1445 -98.2705 10.3799c-41.1758 -9.68848 -69.5498 -7.95801 -100 6.22852c-19.7227 9.34277 -50.8652 33.5645 -47.4043 37.0244c0.691406 1.03809 15.917 -5.53613 33.9102 -14.5332c43.252 -21.4531 61.9375 -22.8369 119.723 -7.95801
c52.249 13.4951 70.2422 13.8408 84.7754 1.73047c12.8027 -11.0732 21.4531 -26.6436 18.6846 -33.9102zM618.978 337.716l6.91992 -8.99609h-10.3799c-8.65039 0 -12.8027 2.76855 -21.1074 14.5332c-15.2246 20.7607 -13.4951 31.4873 8.65039 58.1309
c7.2666 8.65039 18.6855 27.3359 25.6055 41.5225c10.7266 22.8379 12.457 29.4121 13.4951 58.8242c0.691406 17.9932 -0.34668 39.792 -2.42285 48.4424c-1.72949 8.30469 -2.76758 15.917 -2.0752 16.9551c3.11328 2.76855 15.5703 -30.4502 19.377 -49.8271
c4.84375 -27.335 -0.34668 -48.0967 -24.5674 -98.9619c-23.1836 -47.751 -25.9521 -64.7061 -13.4951 -80.623zM423.822 402.769c-13.8408 0 -38.0625 -1.38477 -54.3262 -2.76855c-26.9893 -2.07617 -30.7949 -1.73047 -45.3281 6.22852
c-8.65039 4.49805 -17.6475 11.0723 -20.0693 13.8408c-4.15234 4.84375 -2.76855 5.53613 10.0342 5.53613c10.7275 0 21.1074 3.45996 36.6787 12.1104c11.7646 6.5752 23.875 12.1113 26.6436 12.1113c9.68848 0 46.0205 -20.7617 58.4775 -33.5645l12.8027 -13.1484z
M580.915 533.91c-3.80566 -8.99707 -15.2246 -31.834 -25.6055 -50.5195l-19.0312 -33.9092l-5.88184 22.4912c-8.99707 33.2178 -6.22852 47.0586 14.8789 69.2041c19.7227 20.7607 26.6436 32.8721 30.4492 52.249l2.42285 13.8408l4.49805 -10.3809
c6.57422 -15.2246 5.88184 -43.9443 -1.73047 -62.9756zM239.738 499.308c2.76855 -6.91992 4.84473 -13.1484 4.15234 -13.4941c-2.76758 -3.11426 -26.9893 26.2969 -33.2178 40.1377c-8.99609 20.0693 -9.34277 35.9863 -0.345703 44.9834
c8.99609 8.99609 17.9932 8.65039 26.9893 -1.03809c8.99707 -9.34277 9.68848 -20.415 2.42188 -26.6436c-6.57422 -5.53711 -6.57422 -27.6816 0 -43.9453zM413.095 537.024c4.84473 -7.95898 7.95898 -14.5332 7.2666 -14.5332
c-0.691406 0 -13.1484 15.2246 -27.6816 34.2559c-42.5605 54.3252 -48.7891 57.0938 -44.29 18.3398l2.42188 -21.7998l-10.3809 2.42188c-34.2559 6.9209 -70.2422 37.7168 -95.1553 80.623c-29.0664 50.5195 -41.8691 86.1592 -50.5195 142.215
c-3.80566 24.2217 0.34668 15.5703 12.457 -25.9521c13.4951 -47.0586 31.834 -92.041 45.6748 -112.11c15.5703 -22.8369 52.9414 -61.2461 65.3975 -67.1279c15.2256 -7.2666 19.0312 -4.49805 21.4531 15.917c1.03809 10.0342 3.46094 33.5635 5.19043 52.5947
c6.22852 59.8623 10.0352 65.0527 33.5645 46.3672c7.2666 -5.88281 25.2598 -16.6094 39.792 -23.876c14.5332 -7.26562 31.1426 -17.3008 36.6787 -22.1445c14.5322 -12.1113 15.917 -6.57422 7.6123 31.1416c-8.30469 39.1006 -18.6855 70.5879 -31.4883 95.502
c-5.19043 11.0723 -9.3418 20.0693 -8.30371 20.0693c0.691406 0 8.30371 -10.3809 16.6084 -23.5303c35.6406 -52.9404 52.5957 -106.92 44.291 -140.138l-4.15234 -15.917l-12.8027 13.8408c-7.2666 7.2666 -15.5713 13.4941 -18.3389 13.4941
c-12.1113 0 -10.3809 -13.4941 8.65039 -64.3594c12.1104 -32.8721 13.8408 -39.4463 10.0342 -39.4463c-4.49805 0 -26.6436 52.9414 -35.6396 85.8135c-7.2666 26.2969 -7.6123 27.335 -26.6436 39.4463c-26.9902 17.3008 -36.6787 19.377 -43.5986 8.99609
c-2.76855 -4.15234 -6.22852 -15.917 -7.2666 -25.2598c-2.07617 -14.8789 -1.03809 -19.0312 5.88184 -28.373c24.9141 -33.9102 45.6748 -63.3223 53.2871 -76.4707zM334.895 700.692c-24.2217 -22.1455 -34.6025 -24.2217 -57.4395 -10.3809
c-23.876 14.1865 -37.7168 39.792 -48.4434 89.2734c-7.6123 36.332 -6.91992 36.6777 19.0312 11.7646c19.0312 -18.3389 26.2979 -23.1836 35.6406 -23.876c21.1074 -0.691406 28.7197 1.03809 38.0625 10.0352c12.8027 12.457 17.9922 29.0654 15.5703 52.5947
c-2.07617 19.0312 -2.07617 19.3779 3.80664 11.0732c3.11426 -4.84473 15.917 -20.415 28.0273 -34.6025c38.7549 -46.3662 43.2529 -68.166 16.2627 -80.2764c-7.6123 -3.46094 -17.6465 -6.57422 -22.1445 -6.57422c-4.49902 0 -16.2637 -7.95898 -28.374 -19.0312z
M296.141 826.298c-7.61328 -9.34277 -17.6475 -9.68848 -34.6025 -1.03809c-21.1074 11.0723 -24.5674 16.6084 -8.30469 13.8408c18.6855 -3.80664 29.4121 0.345703 34.9482 13.1484l4.49805 11.0732l3.80664 -9.68945
c4.84375 -12.8027 4.84375 -20.7607 -0.345703 -27.335z" />
</svg>
