<?xml version="1.0" standalone="no"?>
<!DOCTYPE svg PUBLIC "-//W3C//DTD SVG 1.1//EN" "http://www.w3.org/Graphics/SVG/1.1/DTD/svg11.dtd" >
<svg xmlns="http://www.w3.org/2000/svg" xmlns:xlink="http://www.w3.org/1999/xlink" version="1.1" viewBox="-10 0 1010 1000">
   <path fill="currentColor"
d="M346.5 214.333c0 -2.91797 145.678 -147.666 148.333 -147.666c2 0 36.334 33 76.667 73.333l73.333 73.333h-71.666v163.334h156.333c0.666992 -22.2227 1.33301 -44.4443 2 -66.667c49.6426 49.5801 99.1982 99.2461 148.667 149l-72.334 68
c-39.666 37.333 -73.333 68.333 -75 69c-1.66602 0.666992 -3 -12.333 -3 -29v-30.333h-154c0.665039 97.2236 1.33203 194.445 2 291.666l-39.333 47.667c-21.667 26 -40.667 47.333 -42 47.333c-1.66699 0 -21 -23 -43 -51l-40.333 -50.666v-285h-143
c-0.666992 22.2217 -1.33301 44.4443 -2 66.666c-49.6172 -49.2715 -99.0645 -98.7129 -148.334 -148.333l150 -150v71.667h143.334v-160h-33.334c-18.333 0 -33.333 -1 -33.333 -2.33398z" />
</svg>
