<?xml version="1.0" standalone="no"?>
<!DOCTYPE svg PUBLIC "-//W3C//DTD SVG 1.1//EN" "http://www.w3.org/Graphics/SVG/1.1/DTD/svg11.dtd" >
<svg xmlns="http://www.w3.org/2000/svg" xmlns:xlink="http://www.w3.org/1999/xlink" version="1.1" viewBox="-10 0 1010 1000">
   <path fill="currentColor"
d="M705.957 179.031c18.5947 -13.8545 17.1367 -13.8545 52.5 9.84375c20.418 13.8545 45.9375 43.3857 46.3027 53.5938c0 13.0928 -87.8213 -22.1084 -137.812 6.5625c-8.75 5.10352 -16.7715 8.38477 -17.5 7.29199c-2.1875 -2.18848 16.042 -34.6357 29.167 -51.4072
c5.83301 -7.65527 18.2295 -19.3223 27.3428 -25.8848zM461.322 228.979c30.2607 -9.11523 55.0527 -9.84375 87.1348 -2.1875c14.9482 3.64551 32.4482 5.10449 44.1152 4.00977c10.208 -1.09375 18.959 -1.45801 18.959 -0.728516
c0 1.09277 -17.8652 16.4062 -39.7402 34.6357c-21.875 18.2285 -46.667 40.833 -55.0518 50.3115c-30.626 34.6357 -45.209 77.292 -43.0205 126.146c1.88672 45.3291 -5.10645 35.0156 -20.0527 5.83398c-19.6875 -38.6465 -25.8848 -78.0215 -23.334 -144.011
c1.45898 -28.0723 3.28125 -54.6865 4.37598 -58.6982c1.82227 -5.83203 8.74902 -9.84375 26.6143 -15.3115zM747.155 270.906c-2.55176 -5.10449 36.0938 -2.55176 47.7607 3.28125c16.4062 8.38574 24.0625 16.041 32.083 31.3545
c8.38574 16.4062 8.75 29.5312 1.09473 68.541c-4.01172 21.5107 -4.37598 32.8125 -1.82324 40.4688c2.91602 8.38574 2.1875 12.0312 -4.01074 19.6875c-21.2139 26.7158 0.201172 -21.6631 -4.00977 -25.8857c-1.7041 -1.70117 -21.2695 31.6777 -25.5215 30.2617
c-2.55176 -0.730469 -5.83301 -10.9385 -7.29102 -22.9688c-11.3027 -80.209 -17.501 -103.542 -38.2822 -144.74zM665.489 298.979c10.9365 -10.5732 22.6035 -19.6875 25.5205 -19.6875c9.47949 0 53.5938 48.4893 64.5312 70.7295
c7.29199 14.583 9.47852 23.6973 8.02051 32.082c-3.64551 20.7822 -26.25 94.0635 -29.166 94.0635c-1.45801 0 -4.375 -4.01074 -6.19824 -9.11523c-1.82227 -5.10352 -7.65625 -10.9375 -12.7607 -12.7607c-10.9375 -4.00977 -10.5723 -2.91602 -3.28125 -20.0518
c8.38574 -20.0518 7.29199 -44.4785 -1.82227 -56.875v-10.5723c5.10449 0 18.958 4.00977 28.8018 9.11426c22.6035 11.667 22.9688 7.65625 1.09375 -8.38574c-22.6045 -16.7705 -41.5625 -22.9688 -72.916 -23.6973
c-18.5947 -0.364258 -26.6152 -2.1875 -26.6152 -5.46875c0 -5.83398 -4.01074 -5.46973 -14.2188 1.45801c-11.3018 8.02051 -18.5938 26.6152 -18.5938 47.0312c0 20.0518 -4.73926 21.1455 -12.0312 2.55273c-8.38574 -21.1465 -9.47949 -60.5215 -1.45898 -71.0947
c3.64648 -5.10449 7.65723 -5.46875 27.709 -2.55176h23.333zM840.124 285.854c1.45898 -2.55273 17.8652 12.0312 41.5625 36.0938c32.8125 33.9053 41.5635 45.5723 53.5938 71.0938c8.02148 16.7705 17.1357 39.0107 20.417 49.9473
c5.83301 19.6875 5.83301 20.0527 -2.1875 28.8027c-4.74023 4.73926 -21.5107 14.9473 -37.917 22.6045c-16.042 7.29102 -41.5615 22.6035 -56.1455 33.9053c-14.9473 11.3018 -32.084 21.5107 -37.916 22.9688c-9.05469 1.59766 -67.8135 29.4473 -67.8135 21.5107
c0 -1.09375 5.46973 -7.29199 12.0322 -13.125l11.666 -10.9375l-28.4375 13.4893c-22.6035 10.5732 -34.6357 13.8545 -55.0518 15.3125c-25.8857 1.45801 -26.6143 1.45801 -35.7295 -9.84375v-11.3018v9.84375c1.09277 14.583 -18.958 14.9482 -35.7295 1.45801
c-9.11426 -7.29102 -18.2295 -11.3018 -25.5205 -11.3018c-6.19824 0 -16.4062 -2.55176 -22.9688 -5.83301c-18.959 -9.84375 -57.6035 -42.6562 -63.8018 -54.3232c-10.208 -19.6875 -9.84375 -63.8018 1.09375 -112.656
c9.47852 -42.6562 18.5938 -67.8125 24.4268 -67.8125c1.45801 0 2.91602 1.45898 2.91602 3.64551c0 1.82324 8.75098 13.125 18.959 24.4277c18.958 21.1455 18.958 21.1455 9.47949 22.2393v25.5205c8.75 13.4893 25.8848 33.1768 31.3545 43.3857
c5.10352 10.5732 10.208 19.3223 10.9365 19.3223c2.38086 0 31.2949 -42.458 35.7295 -35.3633c1.45801 2.55078 2.91699 20.416 2.91699 40.4678v35.7295h12.0303c6.19824 -1.09375 33.9072 -6.19824 60.8857 -8.38574
c26.9795 -2.18652 55.7812 -6.19824 63.8018 -9.47949c27.3447 -9.84375 26.25 -10.208 28.0732 4.37598c1.82324 15.3115 -5.83301 34.6348 -20.416 51.7705c-8.02148 9.47852 -8.75 12.0312 -4.37598 12.0312c10.209 0 91.875 -83.4893 100.261 -102.448
c8.75098 -19.3223 8.02051 -22.9688 -13.4893 -68.9062c-7.65625 -17.1348 -17.8652 -41.9268 -22.2393 -55.416c-4.73926 -13.4902 -9.84375 -25.5215 -11.667 -26.9795c-1.82324 -1.09375 -2.1875 -3.64551 -0.729492 -5.83301zM638.874 522.469
c0.364258 -23.6982 8.75098 -24.4268 0 -24.4268c-5.10449 0 -9.11426 0.364258 -9.11426 0.728516c0 0.729492 4.00977 11.667 9.11426 24.792v23.6982v-24.792zM458.041 554.552c5.50586 -12.751 31.6797 -66.7578 37.5518 -60.8857
c2.1875 2.18848 4.01074 20.418 4.37598 41.1982v37.5518l-14.2197 27.709c-16.4062 30.2607 -45.9375 69.6357 -71.0928 94.792c-12.3965 12.3955 -24.0635 19.3232 -47.3965 28.4365c-40.1045 14.9482 -52.8643 17.501 -122.5 24.4277
c-116.303 11.3018 -162.604 28.0723 -181.197 65.9893c-4.01172 8.75098 -9.11523 16.042 -10.9385 16.042c-1.45801 0 -5.46777 -6.19824 -8.74902 -13.4893c-4.74023 -11.3027 -4.74023 -16.7705 -1.09473 -32.8125c4.74023 -22.6045 19.3232 -37.1885 50.6777 -51.4062
c18.5928 -8.38574 26.25 -9.47949 87.8643 -11.667s70.7295 -3.28125 107.552 -14.2188c51.4062 -15.3125 78.0215 -29.5312 105.364 -56.875c27.3447 -26.9785 47.3965 -56.5098 63.8027 -94.792zM521.843 546.166c-2.18652 -11.666 7.29199 -10.208 16.4062 2.55273
c10.9385 14.9482 37.917 32.083 65.9893 40.834c18.959 6.19727 36.459 8.38477 86.7715 9.84375c48.125 1.09277 63.8018 2.91602 65.2607 6.5625c3.64551 10.208 -13.8545 26.9785 -43.751 41.1973c-30.9893 14.9482 -52.8643 20.0518 -103.177 24.0625h-29.8955
l-17.1348 -18.5938c-22.6045 -28.0732 -29.8965 -43.0205 -34.6357 -72.916c-2.18848 -13.8555 -4.73926 -28.8027 -5.83398 -33.543zM493.041 716.791c3.64648 -5.83203 22.6035 5.83398 25.1562 15.3135c10.208 39.375 -10.5732 65.625 -52.5 66.3535
c-26.9795 0.364258 -44.8438 -9.47949 -66.3545 -36.0938c-18.2295 -22.6045 -21.5107 -30.9893 -11.667 -30.9893c3.28125 0 11.667 -3.28125 18.2295 -7.65625c9.47949 -5.83301 12.7607 -6.5625 13.8545 -2.55176c15.6768 53.5938 43.75 75.833 75.1045 59.4268
c13.125 -6.92676 18.2295 -15.6768 18.2295 -32.4482c0 -12.7598 -9.84375 -27.708 -18.5947 -27.708c-1.82324 0 -2.55176 -1.45801 -1.45801 -3.64648z" />
</svg>
