<?xml version="1.0" standalone="no"?>
<!DOCTYPE svg PUBLIC "-//W3C//DTD SVG 1.1//EN" "http://www.w3.org/Graphics/SVG/1.1/DTD/svg11.dtd" >
<svg xmlns="http://www.w3.org/2000/svg" xmlns:xlink="http://www.w3.org/1999/xlink" version="1.1" viewBox="-10 0 1010 1000">
   <path fill="currentColor"
d="M499.308 64.7061c12.8027 -2.42188 219.378 -2.42188 330.45 0l104.498 2.07617l-0.345703 223.529v223.529l-88.2354 -89.9658c-50.5195 -51.2109 -84.7754 -84.083 -80.2773 -76.124c44.6367 73.7021 63.668 173.356 49.4814 259.516
c-16.2627 100.346 -76.8164 196.886 -159.516 254.325c-82.3525 57.0938 -178.893 79.2383 -278.2 64.0137c-32.8721 -4.84375 -83.0459 -18.3389 -95.502 -25.6055c-3.80664 -2.07617 -18.6855 -8.99609 -33.2178 -15.5713
c-30.1045 -13.4941 -50.8652 -29.4111 -89.2734 -68.166c-46.0215 -46.3662 -82.0068 -110.034 -99.3086 -175.086c-7.2666 -28.0283 -8.99609 -43.9453 -10.3799 -91.0039c-1.38477 -52.5947 -0.692383 -59.8613 7.26562 -90.6572
c24.9141 -97.2314 70.2422 -167.474 142.907 -222.146c77.5088 -58.1318 156.401 -82.3525 253.287 -77.1621c61.2451 3.45996 131.834 23.1826 173.01 48.7881c6.9209 4.15234 14.8789 8.99707 17.6475 10.3809c2.76855 1.38477 -30.1035 -32.5254 -73.3564 -75.4326
c-67.1279 -66.0898 -77.5088 -77.8545 -70.9346 -79.2383zM463.668 245.675c-16.2627 -1.73047 -35.6406 -3.11426 -43.2529 -3.11426c-71.626 2.42188 -145.328 26.9893 -185.121 61.9375l-15.5703 13.4951l53.6328 0.692383
c29.4121 0.345703 125.605 1.38379 213.841 2.76758c87.8896 1.03809 159.861 1.03809 159.861 0c0 -4.49805 -42.2139 -31.4873 -69.8955 -44.6367c-33.2188 -15.917 -71.2803 -26.2979 -113.495 -31.1416zM210.727 515.571
c1.38379 -100 2.42188 -182.007 1.73047 -182.699c-0.34668 -0.692383 -5.19043 4.84375 -10.7266 12.1104c-61.9385 78.2012 -84.4297 201.73 -56.0557 305.19c8.30469 30.4502 32.8721 79.2393 49.8271 98.9619l12.1104 13.8408l0.345703 -32.8721
c0 -17.9932 1.38477 -114.532 2.76855 -214.532zM702.076 384.083c-7.2666 -14.1865 -18.6855 -32.1797 -25.2598 -39.792l-11.7646 -13.8408l-2.07617 32.8721c-1.03809 17.9922 -2.76758 114.532 -3.45996 214.532l-1.73047 181.661l12.1113 -13.8408
c17.6465 -19.7236 48.4424 -84.4287 57.4395 -121.107c6.91992 -26.6436 7.95801 -39.4463 7.6123 -91.6953c0 -55.709 -1.03809 -62.9756 -9.68848 -91.6953c-5.19043 -16.9551 -15.5713 -42.5605 -23.1836 -57.0938zM647.059 774.049
c-1.03809 -0.692383 -97.5771 -2.42285 -214.532 -3.46094l-212.803 -2.42188l8.65039 6.9209c35.9854 29.0654 81.3145 50.5186 131.487 63.3213c24.2217 6.22852 39.793 7.2666 86.5059 7.6123c66.4355 0 96.1934 -6.22852 144.29 -29.7578
c26.2979 -13.1484 60.5537 -38.4082 56.4014 -42.2139z" />
</svg>
