<?xml version="1.0" standalone="no"?>
<!DOCTYPE svg PUBLIC "-//W3C//DTD SVG 1.1//EN" "http://www.w3.org/Graphics/SVG/1.1/DTD/svg11.dtd" >
<svg xmlns="http://www.w3.org/2000/svg" xmlns:xlink="http://www.w3.org/1999/xlink" version="1.1" viewBox="-10 0 1010 1000">
   <path fill="currentColor"
d="M739.818 66.8994c9.40723 -5.92383 18.8154 -9.75684 20.9053 -8.71094c16.377 9.75586 43.2061 34.1465 48.7812 44.251c7.31641 13.5889 19.1631 17.0723 19.1631 5.92285c0 -4.18066 -3.48438 -8.01367 -9.40723 -10.1045v-17.4219
c16.377 -16.376 25.4355 -17.7695 28.5713 -7.66504c3.13574 9.75586 11.498 8.71094 16.376 -1.74219c2.09082 -4.87793 5.5752 -8.71094 7.66602 -8.71094c3.83301 0.348633 29.9648 22.9961 29.9648 26.1328c0 5.64258 -43.7256 13.3154 -13.9375 22.9961
c13.2412 4.87793 13.2412 9.05957 -0.347656 22.9961c-12.1953 13.2412 -19.1641 14.6348 -22.2998 4.18164c-3.13574 -9.40723 -10.4531 -6.62012 -10.4531 4.18164c0 7.31641 1.74219 8.70996 17.4219 10.1045c17.0732 1.74219 17.4209 2.08984 21.9512 17.4209
c2.43848 8.71094 6.96875 20.5576 9.40723 26.8291c4.18164 9.75684 4.18164 12.5439 0 20.9062c-2.78711 5.22656 -5.22656 11.498 -5.22656 13.5889s-2.08984 5.92383 -4.87793 8.01367c-2.78711 2.43945 -7.66504 9.75684 -10.8008 16.377
c-4.87891 10.1045 -6.62109 11.498 -10.8018 8.01367c-7.31738 -5.92383 -54.7041 -1.74219 -78.3975 6.96875c-20.5576 8.01367 -46.6895 27.874 -50.1738 38.3271c-1.39355 4.53027 -6.62012 6.96875 -19.1641 8.71094
c-15.3311 2.09082 -17.4219 3.48438 -20.9062 13.9375c-4.87793 15.3311 -16.376 25.4355 -36.9336 33.1006c-14.9824 5.22656 -17.0732 7.31738 -16.376 15.3311c0.696289 10.1045 -4.87793 12.1953 -16.0283 6.27246
c-3.13574 -1.74219 -7.31641 -2.43945 -9.40723 -1.0459c-5.5752 4.18164 -19.5127 41.8125 -18.1182 49.8262c0.696289 6.27148 -0.697266 7.66504 -7.66602 8.01367c-20.9062 1.04492 -65.5049 36.5859 -98.2578 78.0488
c-10.1045 12.8916 -23.3447 27.875 -29.6162 33.7979c-26.8301 25.0869 -53.3105 59.2334 -53.3105 68.6416c0 12.6416 -9.97949 23.5479 -3.48438 35.8877c5.92383 11.1504 -0.697266 20.9062 -10.8018 15.3311c-4.87793 -2.43848 -9.40723 -1.74219 -16.7246 2.09082
c-5.92285 2.78809 -15.6787 5.22656 -21.9512 5.22656c-9.75586 0 -15.3311 3.83301 -34.4941 23.3447c-12.5439 13.2402 -35.54 39.373 -50.8711 58.5371c-15.3311 19.1631 -32.0557 38.6758 -37.2822 43.2051c-5.22656 5.22656 -9.05957 12.1953 -9.05957 17.7705
c0 5.57422 -3.83301 12.543 -9.05957 17.7695c-12.543 11.8467 -18.4668 24.3906 -14.9824 32.7529c4.87793 12.8916 3.48438 22.6484 -3.48438 22.6484c-3.48438 0 -14.2852 6.96875 -23.3447 15.3311c-20.5576 18.1182 -29.9648 21.6025 -43.5537 16.0273
c-9.4082 -4.18066 -11.8467 -3.48438 -25.7842 6.62012c-8.3623 5.92383 -16.0283 10.8018 -17.0732 10.8018c-4.87793 0 -1.39355 -13.5889 5.22656 -22.2998c6.27148 -7.66504 6.96875 -11.8467 4.87793 -26.8291c-2.09082 -16.0283 -1.39355 -18.4668 10.4531 -35.8887
c6.96875 -10.4531 13.2402 -22.9961 13.2402 -27.875c0.697266 -6.96777 3.13574 -9.75586 9.40723 -11.1494c21.2549 -4.87793 31.3594 -9.40723 43.9033 -19.8604c7.31641 -6.27246 18.4668 -13.5889 24.7383 -16.0283c6.62012 -2.78711 24.7383 -20.209 45.2959 -43.5537
c79.791 -91.2891 74.9131 -84.6689 70.7314 -92.335c-2.78711 -5.57422 -2.43848 -9.75586 1.74219 -17.4209c5.92383 -11.8467 6.96875 -24.7393 1.74219 -24.7393c-1.74219 0 -3.48438 -2.43848 -3.48438 -5.22656c0 -6.27148 0.697266 -6.27148 11.8467 -1.39355
c7.31738 3.48438 10.8018 2.43945 25.0879 -6.96875c9.05859 -5.92285 20.209 -10.8008 24.3896 -10.8008c10.4531 0 139.722 -146.342 146.342 -165.854c2.43945 -6.96777 5.92285 -14.2852 8.01367 -16.376c5.5752 -5.5752 4.87793 -13.2402 -1.74219 -20.209
c-7.31641 -8.3623 -3.48438 -14.9824 5.5752 -9.40723c8.89648 5.93164 29.4121 -7.66602 38.3271 -7.66602c6.96875 0 9.4082 -5.5752 11.1504 -26.1318c0.696289 -7.66602 3.13574 -10.8018 9.05859 -11.499c4.53027 -0.696289 7.66602 -3.48438 7.66602 -6.96875
c0 -18.2236 10.8838 -49.126 31.3584 -44.25c9.75684 2.08984 9.75684 2.08984 15.6797 -23.6934c4.87793 -21.9521 8.3623 -29.2686 22.9971 -46.3418c23.3447 -27.5264 26.8291 -54.3555 9.40723 -73.1709c-4.5293 -5.22656 -5.5752 -8.3623 -3.13574 -10.1045
c5.92285 -3.48438 17.4219 -27.5264 16.7246 -34.8428c-0.697266 -4.53027 2.43945 -7.31738 9.75586 -8.71094c5.92383 -1.39355 18.1191 -7.31738 27.875 -13.2402zM774.312 102.787c-10.1045 -9.40723 -29.2676 -11.498 -40.7656 -4.87793
c-9.4082 5.5752 -17.0732 23.3447 -14.6348 34.4951c2.78809 13.2402 20.209 27.874 33.4492 27.874c11.499 0 30.3145 -15.6787 31.3594 -26.1318c1.39355 -16.376 -1.04492 -23.3447 -9.4082 -31.3594zM865.603 200.697
c-5.85742 -14.6396 -24.3467 -26.9863 -42.1611 -19.8613c-12.543 5.22656 -20.9053 17.7705 -20.9053 31.708c0 15.3311 6.27148 23.6934 21.9512 30.3135c25.7842 10.8008 51.916 -16.0283 41.1152 -42.1602z" />
</svg>
