<?xml version="1.0" standalone="no"?>
<!DOCTYPE svg PUBLIC "-//W3C//DTD SVG 1.1//EN" "http://www.w3.org/Graphics/SVG/1.1/DTD/svg11.dtd" >
<svg xmlns="http://www.w3.org/2000/svg" xmlns:xlink="http://www.w3.org/1999/xlink" version="1.1" viewBox="-10 0 1010 1000">
   <path fill="currentColor"
d="M414.862 48.4844c1.21289 -1.81738 26.0605 -3.03027 64.8486 -3.03027c50 0 66.0605 0.90918 76.3643 4.84863c7.27246 2.4248 20.6055 5.45508 29.6963 6.06055c18.4854 1.81836 57.2734 15.7578 96.667 35.4551c31.8184 15.7578 53.0303 29.0908 80.3027 50.9092
c18.1816 14.2422 20.6064 17.2725 19.3945 24.8486c-0.90918 7.27246 -0.303711 8.48438 4.54492 7.27246c17.5762 -4.84863 97.2734 93.9395 92.1211 113.939c-1.21191 4.84863 0 7.5752 4.5459 9.69629c3.93945 1.81836 9.09082 10.9092 13.9395 24.2432
c20.7217 57.6064 23.4746 76.0322 33.333 115.454c0.90918 4.5459 -0.302734 6.96973 -4.84863 8.18164c-8.18164 2.12109 -8.18164 8.18262 -0.302734 10.3037c5.75781 1.51465 6.06055 4.24219 6.06055 53.6357v43.6367c-3.93945 -4.5459 -15.4541 -13.6367 -16.667 -20
c-2.42383 -15.7578 -9.39355 -21.5156 -42.4238 -37.2725c-20.9092 -10 -32.4238 -18.1826 -51.5156 -36.3643c-13.333 -12.7266 -27.2725 -24.2422 -30.9082 -25.1514c-3.93945 -1.21191 -6.96973 -3.33301 -6.96973 -4.84863
c0 -1.51465 -12.7275 -2.42383 -27.8789 -2.42383c-26.667 0.302734 -29.3945 0 -50 -10.6064c-12.1211 -6.06055 -23.9395 -11.2119 -26.3643 -11.2119c-2.42383 0 -9.39355 -3.33301 -15.1514 -7.27246c-6.06055 -3.93945 -17.8789 -9.09082 -26.666 -10.9092
c-30.9092 -7.27246 -31.8184 -8.48535 -33.6367 -36.9697c-2.12109 -36.0605 -3.93945 -45.1514 -15.7578 -75.7578c-11.2119 -29.0908 -12.4238 -35.7578 -7.5752 -44.8486c2.42383 -4.84863 1.51465 -5.75684 -6.06055 -7.5752
c-10 -2.12109 -14.2432 -6.96973 -36.3643 -41.2119c-26.0605 -40.3037 -95.1514 -102.122 -127.272 -113.939c-24.2422 -9.0918 -28.4854 -16.0605 -9.39453 -16.0605c6.66699 0 13.0312 -1.51562 13.9395 -3.03125zM604.257 426.363
c0 -21.8174 0.90918 -26.3633 4.54492 -26.3633c5.15234 0 28.1826 22.4238 49.3945 47.8789l13.0303 15.7578h21.2119c19.6973 0 21.2119 0.605469 23.9395 7.5752c2.12109 5.75781 5.15137 7.57617 11.8184 7.57617c4.84863 0 10 1.21191 10.9092 3.03027
c0.90918 1.51465 10.9092 3.03027 21.8174 3.03027c23.0312 0 27.8789 3.93945 28.1826 21.5146c0 9.39453 2.42383 13.334 16.3633 26.667l16.667 15.4541h28.1816c26.0605 0 29.6973 1.21289 50.9092 11.5156c28.4844 13.9395 28.4844 15.4541 13.333 66.9697
c-18.4844 61.8184 -35.4541 97.2725 -63.6367 131.212v8.48535l-15.1514 -10c-7.69043 -8.7168 -26.0088 -49.292 -31.2119 -59.6973c-1.51465 -2.42383 -12.4238 -8.18164 -24.5449 -12.7275c-11.8184 -4.84863 -26.0605 -11.5146 -31.5156 -15.1514
c-15.4541 -10.9092 -50.6064 -45.4541 -58.1816 -57.5752c-7.87891 -12.4248 -9.09082 -12.7275 -64.2422 -25.1523c-21.2129 -4.84766 -36.0605 -10.3027 -46.3643 -16.666h-14.8486v-22.1211c4.24219 -6.96973 20.3037 -31.2129 26.9697 -53.6367
c10.3037 -34.2422 12.4248 -45.1514 12.4248 -67.5762zM526.075 616.97l12.7266 -16.667v5.15137c4.84863 2.72754 20.6064 8.78809 23.9395 13.334c3.33398 4.84863 8.18164 8.48438 10.6064 8.48438c2.42383 0 13.9395 9.39453 26.0605 21.2119
c20 19.3945 23.333 21.5156 42.7275 25.7578c13.333 3.03027 31.5146 10.9092 48.7871 20.6064c25.1523 14.2422 28.4854 17.2725 41.5156 37.5752c7.57617 12.1221 16.0605 22.1221 18.7881 22.1221s7.87891 2.12109 11.5146 4.54492
c14.7812 9.85547 65.7578 14.4844 65.7578 28.4854c0 6.06055 -41.5146 48.1816 -69.6973 70.6055c-22.4238 18.1816 -67.8789 44.8486 -76.0605 44.8486c-10.5352 0 -0.625977 -13.8076 -8.48438 -16.667c-3.03027 -0.90918 -8.18164 -8.48438 -11.8184 -16.9697
c-9.16797 -22.2646 -15.5068 -16.0664 -36.3633 -27.5752c-10.9092 -5.45508 -20.9092 -8.48535 -29.6973 -8.48535c-10.3027 0 -13.9395 -1.21191 -15.4551 -5.4541c-2.99707 -9 -26.877 -38.373 -29.6963 -49.0908v-10.6064h-84.8486l-13.6367 -23.333
c-7.5752 -10.9092 -18.7871 -24.2422 -25.1514 -29.6973h-11.2119v-15.4541c10.0244 -7.71094 38.9795 -12.3242 45.1514 -23.6367c4.24219 -7.57617 22.4248 -13.6367 35.4551 -11.5146c12.1211 2.12109 16.3633 -3.33398 16.3633 -20.3037
c0 -8.18164 3.33301 -15.1514 12.7275 -27.2725zM68.499 693.03c-0.606445 -1.21191 8.78809 3.33301 21.2119 9.69727c24.8486 13.6357 70.6064 29.6963 91.8184 32.4238c7.57617 1.21191 14.5459 3.33301 15.4551 4.5459
c2.12109 3.33301 112.424 3.63574 113.938 0.302734c0.90918 -2.42383 50.9092 -14.5459 73.0312 -17.8789c10.6055 -1.51465 12.1211 -0.605469 24.2422 12.7275c14.5449 16.3633 20 26.667 20.3027 38.4844c0 5.15137 1.51562 8.48535 4.24219 8.48535
c3.63672 0 14.2432 14.8486 24.5459 34.8486c2.12109 3.63574 10.6055 8.18164 23.9395 12.1211c17.8789 5.4541 21.8184 7.87891 31.2119 20.3027c6.36328 8.78809 14.5459 15.7578 20.9092 18.1816c6.36328 2.12109 10.3027 5.75781 10.3027 9.09082
c0 4.24316 2.4248 5.45508 10 5.45508c15.1514 0 51.2119 18.4844 57.5762 29.6973c9.09082 16.0605 7.27246 20.3027 -12.1211 25.7568c-9.69727 2.72754 -22.1211 5.45508 -27.5762 5.75781c-5.75781 0.302734 -10.9092 1.81836 -11.5146 3.03027
c-0.90918 1.21191 -12.4248 2.42383 -25.7578 2.42383c-13.9395 0 -26.667 1.51562 -30 3.63672c-4.84863 3.03027 -7.27246 3.03027 -12.1211 0s-8.78809 -3.03027 -17.8789 -0.302734c-8.78809 2.72754 -14.2422 2.72754 -21.8184 0
c-5.15137 -1.81836 -19.3936 -3.33398 -31.5156 -3.33398c-24.1338 0 -19.5469 -3.27832 -35.4541 -5.15137c-13.9395 -1.21191 -26.667 -6.96973 -26.667 -11.5146c0 -4.63477 -25.0273 -1.2168 -28.4844 -4.24219c-2.12109 -1.81836 -12.7275 -6.36426 -23.333 -9.69727
c-48.1826 -15.7578 -108.183 -54.5459 -152.425 -97.8789c-26.0605 -26.0605 -69.3936 -89.6973 -86.0605 -126.97z" />
</svg>
