<?xml version="1.0" standalone="no"?>
<!DOCTYPE svg PUBLIC "-//W3C//DTD SVG 1.1//EN" "http://www.w3.org/Graphics/SVG/1.1/DTD/svg11.dtd" >
<svg xmlns="http://www.w3.org/2000/svg" xmlns:xlink="http://www.w3.org/1999/xlink" version="1.1" viewBox="-10 0 1010 1000">
   <path fill="currentColor"
d="M608.391 93.7637c6.4502 0 4.71191 -3.46484 12.8232 -3.46484c16.375 0 9.80469 9.85352 8.49023 19.0596c-0.668945 6.0166 -7.5332 4.28418 -10.917 7.10352c-0.866211 0.866211 -2.77246 1.55957 -4.33105 1.55957c-5.89844 0 -19.6016 6.43848 -13.8613 12.9951
c3.63867 4.33301 0.692383 7.79688 -6.58496 7.79688c-9.52832 0 -18.0186 4.50586 -17.3252 9.35742c2.34277 14.0566 38.9941 -5.8916 42.9688 -5.8916c5.33203 0 4.13965 -3.46582 11.2627 -3.46582c9.94629 0 6.9502 -3.46387 22.5244 -3.46387
c17.7275 0 11.6602 -3.46582 25.9902 -3.46582c12.2949 0 7.95508 -3.46582 19.0586 -3.46582s6.74512 -3.46582 19.0605 -3.46582c10.9756 0 8.3916 -3.46484 16.4609 -3.46484c2.77148 0 5.54395 0.693359 6.06348 1.73242
c0.693359 1.04004 9.53027 1.73242 20.792 1.73242c29.9922 0 13.4199 3.46582 47.8232 3.46582c17.498 0 27.0293 0.693359 29.2812 2.0791c5.09375 3.18359 9.54883 -2.0791 15.248 -2.0791c4.49902 0 22.9414 -8.44531 24.2578 2.0791
c0.661133 6.62402 -7.74707 8.53223 -8.66406 14.0352c-0.944336 6.29492 -24.2793 2.61719 -28.0693 6.41113c-1.03906 1.03906 -5.02441 1.73242 -9.00977 1.73242c-10.0713 0 -6.71191 3.46484 -16.2881 3.46484c-8.19336 0 -16.374 6.25195 -22.5244 7.27734
c-5.37012 0.692383 -8.49023 5.7168 -5.54395 8.66309c2.99902 3.00098 9.43945 -2.0791 13.8613 -2.0791c3.4541 0 20.2725 -7.68457 20.2725 0.693359c0 3.46582 -8.14453 9.35645 -12.9951 9.5293c-5.19922 0.34668 -33.4414 15.5947 -39.6787 21.4854
c-4.12793 3.92188 -12.3018 6.97949 -12.3018 10.3965c0 2.625 -10.3965 11.7803 -10.3965 14.208c0 2.29883 -10.3955 11.5605 -10.3955 13.8613c0 2.54297 -15.5938 16.8486 -15.5938 19.9248c0 3.98535 3.46484 6.93066 7.96973 6.93066
c5.61816 0 4.51758 3.46582 10.2227 3.46582c6.00586 0 4.63086 3.46484 11.2627 3.46484c5.31836 0 15.752 6.93164 19.9258 6.93164c3.41602 0 14.3809 6.93164 18.1934 6.93164c4.45215 0 4.20508 3.46387 8.66211 3.46387c3.81738 0 14.7686 6.93066 18.1943 6.93066
c4.12598 0 14.5107 6.93066 19.752 6.93066c5.625 0 9.58105 6.93066 14.0342 6.93066c2.94531 0 29.6006 13.8613 32.2275 13.8613c3.07324 0 14.3848 6.93066 17.8467 6.93066c4.1582 0 7.79785 4.33203 6.41113 7.79688
c-2.44824 6.93652 -17.7402 -0.865234 -22.6982 -0.865234c-10.375 0 -6.66113 -4.15723 -17.1533 -2.94531c-14.708 1.91797 -30.8105 -6.2998 -36.5596 5.19727c-3.46387 6.75684 -3.29102 9.70312 0.519531 11.0898c4.15918 1.38574 14.208 11.0879 14.208 13.6875
c0 2.0791 23.3916 14.5547 27.377 14.5547c5.02441 0 21.1396 12.6475 21.1396 16.6338c0 5.59473 -15.9199 7.80957 -3.81348 15.4209c5.80078 3.86816 9.7334 10.4102 15.9414 13.5146c3.11816 1.55957 4.33203 3.6377 4.33203 7.27637
c0 12.4199 -19.4062 -0.865234 -26.8574 -0.865234c-8.97852 0 -6.26172 -3.46582 -14.7275 -3.46582c-3.29102 0 -6.41113 -0.866211 -6.93066 -1.73242c-0.519531 -1.04004 -8.66406 -1.7334 -18.1934 -1.7334c-20.6211 0 -13.46 3.46582 -29.6289 3.46582
c-10.3271 0 -14.4326 5.42676 -21.4844 1.73145c-6.48633 -3.39551 -8.61426 1.73438 -13.8623 1.73438c-3.6377 0 -5.19727 4.67676 -2.59863 7.79688c1.21289 1.38574 4.67871 2.59863 7.9707 2.59863c7.25 0 5.76367 3.46484 11.9561 3.46484
c5.36035 0 4.7793 3.46582 9.52832 3.46582c4.09766 0 14.7617 6.93066 18.7139 6.93066c3.75879 0 12.291 5.5625 9.70312 9.87695c-2.42578 3.98438 -8.66309 4.85156 -14.0342 2.07812c-13.0615 -7.16016 -3.58789 15.7676 3.6377 15.7676
c2.25293 0 5.02441 1.21289 6.2373 2.59961c2.59961 3.29102 11.7832 7.79688 15.5938 7.79688c3.29883 0 12.0049 10.3945 14.9014 10.3945c3.74414 0 8.4043 6.29199 13.8613 8.66406c12.3643 5.66699 7.83887 6.17676 24.2578 13.8613
c12.4746 6.06543 14.7275 7.79688 14.208 10.916c-1.46484 11.3525 -24.9287 -2.25293 -30.8418 -2.25293c-6.62207 0 -5.25195 -3.46387 -11.2617 -3.46387c-2.25293 0 -4.67969 -0.867188 -5.19824 -1.7334c-0.519531 -1.04004 -6.93164 -1.73242 -14.0352 -1.73242
c-9.875 0 -13.168 0.519531 -13.8613 2.59863c-1.55957 3.81152 2.42578 7.79688 7.96973 7.79688c5.37207 0 14.208 3.98535 17.3281 7.79688c1.21289 1.38672 3.9834 2.59961 6.41016 2.59961c5.02441 0 6.75684 3.98535 4.33203 9.70312
c-4.73242 9.80371 -10.9062 -2.77344 -16.9805 -2.77344c-5.28418 0 -4.60645 -3.46387 -9.35645 -3.46387c-4.25195 0 -14.8057 -6.93164 -19.0596 -6.93164c-3.55469 0 -8.99316 -7.21875 -11.6084 -0.865234c-1.61035 4.82812 12.0381 16.8008 -2.08008 17.8467
c-6.78613 0.753906 -7.62598 -3.12012 -12.4746 -3.12012c-3.24902 0 -22.043 -10.3955 -25.124 -10.3955c-3.18945 0 -14.335 -6.93066 -18.0195 -6.93066c-4.74121 0 -4.07031 -3.46582 -9.35645 -3.46582c-5.13867 0 -6.08984 -3.96777 -11.6084 -3.11816
c-5.54492 0.693359 -5.54492 6.75684 -0.173828 9.35645c2.90527 1.34082 12.3066 11.0879 15.248 11.0879c2.42773 0 7.72266 6.93164 10.2217 6.93164c1.21387 0 3.12012 1.21289 4.33301 2.59863c2.32812 3.10938 28.7588 15.3799 31.5342 17.8467
c3.81152 3.11816 25.6436 14.208 28.2432 14.208c1.91504 0 36.3486 17.3271 38.292 17.3271c3.64258 0 14.3311 6.93066 18.7119 6.93066c5.47656 0 23.002 10.3955 28.7627 10.3955c6.62207 0 5.25098 3.46582 11.2627 3.46582c5.48633 0 4.75391 3.46484 9.875 3.46484
c5.42969 0 9.6875 5.61621 14.0352 7.62402c9.74121 5.19531 -1.47266 12.9082 -6.23828 8.14355c-1.03906 -1.04004 -3.6377 -1.90527 -5.71777 -1.90527c-5.70117 0 -9.25293 -8.05371 -12.8213 0.865234c-3.4873 9.19531 -11.7588 -0.865234 -18.3662 -0.865234
c-2.76562 0 -14.2852 -6.93164 -17.1533 -6.93164c-3.2998 0 -14.4316 -6.93066 -18.0195 -6.93066c-5.10938 0 -8.30859 -6.93066 -15.0742 -6.93066c-7.98633 0 -5.55176 -3.46484 -13.6885 -3.46484c-7.48633 0 -5.84961 -3.46582 -12.1289 -3.46582
s-4.62695 -3.46484 -12.1279 -3.46484c-7.48633 0 -5.85156 -3.46582 -12.1289 -3.46582c-6.28125 0 -4.62695 -3.46484 -12.1289 -3.46484c-8.71973 0 -5.72461 -3.46582 -15.5938 -3.46582c-9.84668 0 -6.87891 -3.46484 -15.5947 -3.46484
c-8.71973 0 -5.72461 -3.46582 -15.5938 -3.46582c-11.9189 0 -7.12207 -3.46582 -22.5254 -3.46582c-9.70215 0 -30.1143 -6.96191 -19.0596 5.19922c4.33203 4.67773 26.8564 15.5938 32.2295 15.5938c4.98047 0 9.29688 6.93066 12.8213 6.93066
c1.21289 0 3.46582 1.55957 5.19727 3.46484c2.0791 2.25195 5.37207 3.46582 9.70312 3.46582c6.24805 0 23.8398 10.3955 28.5889 10.3955c1.21387 0 5.02539 1.55957 8.49023 3.46582c3.98633 2.25293 9.35645 3.46582 15.4209 3.46582
c15.3086 0 16.1084 13.8613 29.8027 13.8613c5.19727 0 15.374 6.93066 20.6182 6.93066c6.49414 0 15.6191 6.93066 23.3916 6.93066c10.1182 0 6.28418 3.46387 18.1924 3.46387c11.4688 0 8.19531 3.46582 17.3271 3.46582c8.23145 0 5.62012 3.46582 13.8613 3.46582
c3.98438 0 7.27734 1.55859 10.7422 4.67871c4.67871 4.67676 9.87695 7.62305 16.6338 9.87695c4.50391 1.38477 2.94531 6.23633 -3.11914 9.875c-11.8271 6.80176 -18.7988 -3.63867 -28.5889 -3.63867c-4.74609 0 -4.16113 -3.46582 -9.5293 -3.46582
c-6.28027 0 -4.62695 -3.46387 -12.1289 -3.46387c-8.23145 0 -5.62207 -3.46582 -13.8613 -3.46582c-7.48535 0 -5.84961 -3.46484 -12.1289 -3.46484c-5.71289 0 -4.67676 -3.4668 -10.3955 -3.4668c-6.28125 0 -4.62793 -3.46484 -12.1289 -3.46484
c-8.2334 0 -5.62207 -3.46582 -13.8613 -3.46582c-8.7207 0 -5.72461 -3.46582 -15.5947 -3.46582c-9.84473 0 -6.87988 -3.46387 -15.5938 -3.46387c-8.71973 0 -5.72363 -3.46582 -15.5938 -3.46582c-10.5127 0 -6.80371 -3.46484 -17.3271 -3.46484
c-11.5596 0 -6.94336 -3.46582 -20.792 -3.46582c-15.9072 0 -8.86328 -3.46484 -25.9902 -3.46484c-18.9189 0 -9.96777 -3.46582 -31.1885 -3.46582c-22.3467 0 -11.7773 -2.67676 -33.4395 -3.11816c-11.9561 -0.173828 -16.1143 0.345703 -17.6738 2.25195
c-2.77148 3.46582 -0.867188 7.79688 3.29199 7.79688c4.99512 0 4.22754 3.46582 9.70312 3.46582c6.28027 0 4.62598 3.46484 12.1289 3.46484c8.23145 0 5.62109 3.46582 13.8613 3.46582c8.71875 0 5.72363 3.46387 15.5938 3.46387
c9.8457 0 6.87988 3.46582 15.5947 3.46582c8.71777 0 5.72363 3.46582 15.5938 3.46582c10.5127 0 6.80273 3.46484 17.3262 3.46484c9.8457 0 6.87891 3.4668 15.5947 3.4668c8.23047 0 5.62109 3.46484 13.8604 3.46484c7.15332 0 5.9707 3.46582 11.4365 3.46582
c4.33105 0 6.06445 4.33105 3.29102 7.79688c-2.4248 2.94531 -14.7275 3.6377 -16.459 0.865234c-0.520508 -1.03906 -7.62402 -1.73242 -15.5947 -1.73242c-16.6914 0 -12.0605 -3.46582 -24.2568 -3.46582c-12.7637 0 -8.00781 -3.46387 -27.5498 -3.46387
c-12.9971 0 -29.6289 -6.23633 -29.6289 0.693359c0 3.81055 8.31738 9.35547 14.208 9.52832c5.61523 0.467773 4.3418 3.63867 10.915 3.63867c6.5332 0 15.9883 6.93066 22.5244 6.93066c7.26562 0 5.10254 3.46582 12.9971 3.46582
c9.46094 0 6.39648 3.46582 19.752 3.46582c11.3418 0 23.4131 1.53906 22.3506 11.0879c-1.28711 12.0088 -19.1748 2.77246 -26.6836 2.77246c-13.2822 0 -7.7793 -3.46484 -22.3506 -3.46484c-14.6562 0 -8.99121 -3.46582 -22.5254 -3.46582
c-13.0303 0 -7.74707 -3.46582 -20.791 -3.46582c-12.9287 0 -7.82031 -3.46387 -20.6191 -3.46387c-15.8027 0 -9.66406 -3.7666 -33.2676 -3.12012h-20.6182v4.85156c0 4.1582 0.345703 4.33203 12.9941 4.85156c13.7178 0.669922 12.5156 3.8125 21.832 3.8125
c7.21191 0 5.71777 3.46484 11.7822 3.46484c6.38086 0 6.46191 3.12402 14.7275 3.8125c22.7373 1.65039 -3.78223 14.5176 11.2617 20.4453c6.68945 2.57324 11.8818 10.3955 21.833 10.3955c10.0488 0 11.6084 10.0498 2.0791 12.8223
c-8.37988 2.48438 -11.0869 -5.89062 -19.0596 -5.89062c-9.01465 0 -6.31641 -3.46582 -20.2725 -3.46582c-16.3389 0 -10.1895 -3.46582 -24.2578 -3.46582c-5.19824 0 -9.87598 -0.692383 -10.3955 -1.73145c-0.693359 -1.04102 -11.7822 -1.7334 -27.7227 -1.7334
c-30.1211 0 -20.6211 -3.46582 -40.7188 -3.46582c-13.3848 0 -10.5195 3.46582 -19.752 3.46582c-6.24414 0 -10.1211 6.93066 -14.0342 6.93066c-1.21289 0 -3.11914 1.21289 -4.33301 2.59961c-1.86035 2.12695 -23.7412 12.4238 -25.1221 14.7275
c-0.520508 0.866211 -3.98633 2.94434 -7.45117 4.50488c-8.97168 4.48535 -17.1484 14.249 -26.5107 18.5391c-4.1582 2.0791 -8.49023 5.71777 -9.52832 7.79785c-2.42676 4.85156 -14.5557 17.6729 -16.8076 17.6729c-2.42578 0 -13.3418 11.4355 -13.3418 14.208
c0 3.29199 3.46582 6.58301 7.10449 6.58301c5.03613 0 13.7363 13.8633 2.4248 13.8633c-5.29297 0 -9.70801 5.21387 -14.7266 2.07812c-1.90723 -1.21289 -9.18359 -2.07812 -17.1533 -2.07812c-15.582 0 -11.7881 -3.46582 -22.6982 -3.46582
c-6.3252 0 -23.9512 -10.3975 -28.7627 -10.3975c-2.97461 0 -5.34082 -6.93066 -8.31641 -6.93066c-3.95508 0 -7.9834 -6.93066 -13.8623 -6.93066c-4.1582 0 -7.62402 -2.25098 -16.1143 -10.7412c-6.06348 -5.89258 -10.915 -11.6104 -10.915 -12.8232
c0 -3.16602 -6.93066 -7.6377 -6.93066 -12.1279c0 -5.28418 -3.46582 -4.60645 -3.46582 -9.35645c0 -3.81641 -6.93066 -14.7695 -6.93066 -18.1924c0 -1.38672 -1.55957 -5.19922 -3.46484 -8.66406c-4.50586 -7.96973 -5.02539 -29.8018 -0.693359 -31.5342
c2.77148 -1.04102 14.5547 9.00977 14.5547 12.4736c0 2.75684 6.93066 7.64062 6.93066 10.3975c0 3.31055 6.93066 7.66113 6.93066 11.9551c0 4.15918 22.0049 27.0303 25.9902 27.0303c1.55859 0 5.54492 -2.77344 8.66211 -6.06445
c5.89258 -6.23828 14.21 -11.2627 18.1943 -11.2627c2.42578 0 16.9805 -7.27734 20.791 -10.3955c1.73438 -1.38672 2.60059 -5.19922 2.60059 -11.9561c0 -9.18359 -0.520508 -10.3965 -6.93164 -16.6338c-5.54395 -5.54395 -6.92969 -7.9707 -6.92969 -13.168
c0 -7.31152 -10.3965 -24.1094 -10.3965 -30.8418c0 -5.95703 -4.00684 -6.70508 -3.11816 -12.4756c0.691406 -5.54395 6.75684 -5.54395 9.35547 0c2.77246 5.19824 19.9268 22.6982 22.5244 22.6982c1.04004 0 2.94629 1.21387 4.15918 2.59863
c2.79688 3.19629 21.4297 11.5596 24.6035 14.3818c5.19824 4.33203 8.31641 1.38574 8.31641 -8.14355c0 -9.12695 3.46582 -8.46777 3.46582 -14.0342c0 -5.77637 6.93066 -15.1289 6.93066 -22.5244c0 -7.6416 3.46484 -6.80859 3.46484 -12.1299
c0 -3.69434 6.93164 -14.8174 6.93164 -18.0195c0 -2.75977 10.3955 -21.7676 10.3955 -24.4307c0 -2.85449 10.3965 -21.8301 10.3965 -24.9502c0 -4.36719 6.93066 -8.38477 6.93066 -13.1689c0 -4.55371 13.8613 -17.209 13.8613 -21.8311
c0 -4.15918 -4.50488 -10.2236 -7.62402 -10.2236c-2.71777 0 -22.834 -20.791 -26.3359 -20.791c-4.89941 0 -8.68652 -6.93164 -13.8623 -6.93164c-3.14648 0 -21.751 -7.70312 -27.7227 -1.73242c-0.866211 0.867188 -13.3418 1.73242 -27.5498 1.90625
c-24.7773 0.519531 -26.5098 0.692383 -35.3467 5.37109c-5.02441 2.59961 -10.5684 4.85059 -12.1289 4.85059c-3.53613 0 -12.0713 10.3965 -15.0732 10.3965c-2.42676 0 -11.0889 16.4609 -11.0889 20.792c0 3.63965 8.14258 19.9268 11.2617 22.5244
c1.38574 1.21387 2.59961 3.12012 2.59961 4.33301c0 2.49609 6.93066 7.7959 6.93066 10.2227c0 1.03906 5.54395 7.44922 12.1289 14.0342c9.5293 9.5293 12.1289 12.9951 11.7822 16.4609c-1.71484 13.1406 -29.5293 -1.73242 -33.0947 -1.73242
c-3.29297 0 -19.5791 -8.49023 -22.0049 -11.2627c-1.21289 -1.38672 -2.94629 -2.59961 -3.98535 -2.59961c-2.59863 0 -23.7363 -20.9658 -23.7363 -23.3906c0 -2.29883 -13.8633 -15.0273 -13.8633 -17.3271c0 -10.0117 -31.3428 -11.6299 -34.8262 -3.11914
c-1.73242 4.67969 -0.34668 17.3271 2.08008 18.8877c0.865234 0.519531 1.55859 2.25098 1.55859 3.9834c0 5.37207 5.19824 13.8623 11.4355 18.8877c3.29297 2.59766 5.89062 5.88965 5.89062 7.4502c0 3.20312 6.93066 8.22559 6.93066 10.7422
c0 1.03906 1.7334 3.63867 3.63965 5.7168c7.79688 8.14355 -0.173828 12.3027 -11.4365 5.89258c-3.46484 -1.90723 -7.10449 -3.46582 -8.48926 -3.46582c-1.69531 0 -36.4668 -17.3271 -37.9453 -17.3271c-1.04004 0 -4.33203 -3.11914 -7.62402 -6.93066
c-5.8916 -6.75781 -6.06543 -6.93066 -17.8467 -6.93066c-6.58398 0 -12.4746 0.693359 -12.9941 1.73242c-1.38672 2.25391 -35.002 2.25391 -36.3867 0c-0.519531 -1.03906 -2.42578 -1.73242 -4.15918 -1.73242c-5.54395 0 -12.1279 -4.50391 -24.4307 -16.2871
c-6.58398 -6.23828 -12.6484 -11.4355 -13.3418 -11.4355c-2.25195 0 -33.4404 -31.8809 -33.4404 -34.1328c0 -1.21387 -1.38574 -2.94629 -3.11816 -3.8125c-3.6377 -1.90625 -10.7422 -14.7275 -10.7422 -19.2324c0 -1.90625 -0.693359 -3.8125 -1.7334 -4.33301
c-1.03906 -0.692383 -1.73242 -10.5684 -1.73242 -24.084c0 -22.3506 -0.173828 -23.0439 -4.33105 -27.0293c-5.37207 -5.19727 -9.53027 -12.9941 -9.53027 -18.54c0 -2.25098 -0.866211 -5.54395 -2.08008 -7.27637
c-3.11816 -5.02441 -0.693359 -8.14355 11.4365 -14.0352c6.2373 -2.94531 11.4355 -6.06445 11.4355 -7.10352c0 -2.98438 11.2637 -6.06543 18.1934 -9.5293c9.5293 -4.50586 15.9414 -9.70312 30.3223 -24.084c9.875 -10.0498 18.8848 -18.1934 19.9248 -18.1934
c1.86035 0 22.3994 -20.792 24.2578 -20.792c2.29785 0 15.0273 -13.8623 17.3262 -13.8623s11.5605 -10.3955 13.8613 -10.3955c2.77441 0 7.72266 -6.93066 10.5693 -6.93066c2.80762 0 9.4873 -10.3965 12.3027 -10.3965c5.37109 0 16.1133 -7.96973 16.1133 -11.9551
c0 -1.55957 -3.46582 -6.41113 -7.79785 -10.5684c-8.14355 -7.9707 -12.9941 -15.7686 -12.9941 -20.793c0 -4.41992 -8.48047 -20.9912 2.59961 -22.1777c6.12891 -0.72168 6.56055 -3.8125 12.1279 -3.8125c4.36816 0 8.80469 -6.92969 12.1299 -6.92969
c3.31641 0 7.75879 -6.93164 12.1279 -6.93164c4.36816 0 8.80371 -6.93066 12.1289 -6.93066c2.29688 0 11.5605 -10.3955 13.8604 -10.3955c2.65039 0 7.70703 -6.93066 10.2236 -6.93066c2.09961 0 22.4619 -20.792 24.4307 -20.792
c1.96582 0 22.335 -20.793 24.4316 -20.793c2.5293 0 7.65625 -6.93066 10.3945 -6.93066c3.29883 0 6.4541 -9.43066 11.0898 -10.0488c5.3418 -0.763672 5.94629 -3.8125 11.4346 -3.8125c6.16113 0 4.4873 -3.46484 11.957 -3.46484
c7.48438 0 5.84863 -3.46582 12.1279 -3.46582c2.25195 0 4.67773 -0.866211 5.19727 -1.73242c0.693359 -1.04004 18.1943 -1.73242 46.6094 -1.73242c43.3164 0 45.7432 -0.172852 48.6895 -3.46582c1.73145 -1.90625 4.15723 -3.46582 5.19727 -3.46582
c4.0498 0 8.27344 -6.23438 13.8613 -8.66309c6.18848 -2.69043 9.40332 -8.66309 14.7266 -8.66309c3.35059 0 22.1396 -10.3965 25.125 -10.3965c3.46094 0 21.9199 -10.3945 26.1631 -10.3945c4.85352 0 15.1914 -6.93164 19.7529 -6.93164
c5.20996 0 4.21582 -3.46484 11.2617 -3.46484c7.48535 0 5.84961 -3.4668 12.1279 -3.4668zM317.995 345.002c7.03809 0 16.8418 -6.93066 21.832 -6.93066c6.2373 0 19.9258 -10.916 19.9258 -15.9404c0 -3.96777 7.35742 -14.7656 6.58398 -19.4053
c-0.754883 -5.53613 -17.9531 -4.53223 -20.4463 0.865234c-1.03809 1.73242 -3.29102 3.29297 -4.85059 3.29297c-3.29199 0 -12.4756 8.49023 -12.4756 11.2607c0 2.96582 -31.5742 26.8574 -10.5693 26.8574z" />
</svg>
