<?xml version="1.0" standalone="no"?>
<!DOCTYPE svg PUBLIC "-//W3C//DTD SVG 1.1//EN" "http://www.w3.org/Graphics/SVG/1.1/DTD/svg11.dtd" >
<svg xmlns="http://www.w3.org/2000/svg" xmlns:xlink="http://www.w3.org/1999/xlink" version="1.1" viewBox="-10 0 1010 1000">
   <path fill="currentColor"
d="M293.478 87.9883c39.0742 -33.1406 72.2148 -60.2021 73.3721 -60.0576c1.44727 0.289062 4.90625 5.05859 4.90625 9.11035l-192.989 174.042l-21.0342 39.1338l-12.1562 31.2598c-6.65723 17.0762 -13.0244 31.8379 -13.8926 32.5615
c-2.75 2.16992 -18.0898 0.144531 -19.248 -2.60547c-0.433594 -1.15723 1.5918 -9.40625 4.48633 -18.2344c4.48633 -13.3145 8.39355 -20.9844 23.0107 -45.1523c17.3652 -28.5088 18.5234 -29.8115 50.0723 -64.3994c32.127 -35.166 32.2715 -35.4551 103.473 -95.6582z
M635.315 28.1406l179.771 151.84c30.1006 33.2852 27.7402 39.8457 44.9619 68.0654c14.6162 24.168 18.5244 31.8379 23.0098 45.1523c2.89453 8.82812 4.9209 17.0771 4.48633 18.2344c-1.15723 2.75 -16.4971 4.77539 -19.2471 2.60547
c-0.868164 -0.723633 -7.23633 -15.4854 -13.8926 -32.5615l-12.1562 -31.2598l-21.0195 -39.1602l-111.108 -100.058c-76.2354 -68.7305 -74.8047 -78.3721 -74.8047 -82.8584zM376.111 132.851c37.4824 -16.3525 69.3203 -29.9561 70.7676 -29.9561
c3.7627 -0.144531 4.77539 4.05176 1.5918 7.09082c-1.44727 1.30273 -36.9033 18.6689 -78.7266 38.4951c-75.1084 35.4561 -76.2666 36.1797 -103.184 54.5586l-27.207 18.6689l-17.0771 21.2734c-9.40625 11.5771 -18.0898 21.9971 -19.3916 23.1543
c-1.44727 1.01367 -2.46094 2.75 -2.46094 3.7627c0 1.01367 8.97266 6.80176 19.9717 12.8799c18.2344 10.2754 23.8779 12.5908 70.4775 27.9307c27.9307 9.26172 59.0449 18.8135 69.3193 21.2734c18.958 4.63086 23.8789 7.38086 20.1162 11.1436
c-1.44727 1.44727 -13.748 -0.289062 -54.9932 -7.23633h-53.2559l-23.8789 -18.5234c-35.7451 -14.1826 -83.9355 -39.5078 -83.9355 -44.2842c0 -1.0127 2.45996 -4.63086 5.49902 -8.10352c5.49902 -6.5127 5.64355 -6.5127 10.4199 -4.48633
c4.48633 1.88086 4.91992 1.73633 7.09082 -1.44727c23.1387 -34.708 47.5215 -53.0137 88.2783 -77.1348c29.2324 -17.2217 39.3623 -22.1416 100.578 -49.0596zM551.51 109.985c-2.92578 -2.92578 -2.55566 -7.9502 2.45996 -6.94629
c1.73633 0.43457 33.1406 13.8926 69.8984 29.8115c60.3477 26.4834 69.6094 30.9697 99.8555 48.626c41.8984 24.6816 65.4424 42.2285 89.002 77.5684c2.16992 3.18359 2.60449 3.32812 7.09082 1.44727c4.77539 -2.02637 4.91992 -2.02637 10.4199 4.48633
c3.03906 3.47266 5.49902 7.09082 5.49902 8.10352c0 4.77637 -50.1914 24.2422 -86.5137 36.875l-74.5576 25.9326c-41.2441 6.94727 -53.5449 8.68359 -54.9922 7.23633c-3.7627 -3.7627 1.15723 -6.5127 20.1152 -11.1436
c10.2754 -2.45996 41.5342 -12.0117 69.3203 -21.2734c46.5986 -15.3398 52.2432 -17.6553 70.6221 -27.9307c10.8535 -6.07812 19.8262 -11.8662 19.8262 -12.8799c0 -1.0127 -1.0127 -2.74902 -2.45996 -3.7627c-1.30273 -1.15723 -9.98535 -11.5771 -19.3926 -23.1543
l-17.0762 -21.2734l-27.207 -18.6689c-26.918 -18.3789 -28.0752 -19.1025 -103.184 -54.5586c-41.8232 -19.8262 -77.2793 -37.1924 -78.7266 -38.4951zM403.897 337.481c-1.22461 -4.17578 0 -8.87598 0 -13.3135c6.94629 -6.94629 12.1562 -11.5771 6.94629 -11.5771
c-6.51758 0 -17.3516 -9.19043 -8.39355 -15.4854c7.59082 -5.42188 29.1641 -27.0361 42.5469 -17.0762c6.26562 4.52344 19.0889 5.81543 18.3789 14.3271v4.48535h11.2881c6.36816 -0.289062 13.3145 -0.289062 15.6299 0.579102v132.706
c-6.94629 2.60547 -35.3115 -22.7207 -55.8613 -48.4805c-10.709 -13.458 -27.9971 -37.5088 -30.5352 -46.165zM591.886 324.168c0 4.4375 1.22461 9.1377 0 13.3135c-2.53809 8.65625 -15.6299 32.707 -26.3389 46.165
c-20.5498 25.7598 -52.8223 51.0859 -59.7686 48.4805v-132.706c2.1709 -0.868164 13.1699 -1.30176 19.5371 -1.0127h11.5781v-4.05176c-0.719727 -8.64648 11.7754 -9.76758 18.0889 -14.3271c2.75 -2.02637 6.07812 -3.61816 7.52539 -3.61816
c8.63281 0 27.4297 15.2715 35.0225 20.6943c8.92871 6.27441 -1.82715 15.4854 -8.39453 15.4854c-5.20898 0 -4.19629 4.63086 2.75 11.5771zM89.7148 339.798c-0.0244141 -0.0214844 1.5918 -25.9863 9.69629 -23.7344c20.0244 6.16211 19.8467 5.82715 52.5322 15.4854
l34.7324 10.2744h64.3994c36.0352 2.75 76.1221 10.1309 91.1729 10.2754c23.1543 0.289062 26.7725 0.579102 27.207 2.60449c0.144531 1.30273 -0.723633 11.7227 -2.1709 13.3145h-171.925c-48.3359 -8.24902 -98.8428 -22.2871 -105.645 -28.2197zM885.663 319.971
c2.58008 -1.17285 12.9248 -4.37109 16.6426 -3.90723c2.45996 0.144531 9.11719 17.2217 8.39355 21.5635c-1.0127 6.36719 -47.6455 29.2324 -106.078 29.2324h-171.925c-1.44727 -1.5918 -2.31543 -10.8535 -2.1709 -12.1562
c0.43457 -2.02539 4.05176 -2.31543 27.207 -2.60449c15.0508 -0.144531 55.1377 -2.45996 91.1719 -5.20996h64.3994l34.7324 -15.3398c19.1025 -5.64453 36.0352 -10.8545 37.627 -11.5781zM406.213 376.556c4.9209 -5.78906 11.7227 3.61816 16.3535 22.2861
c4.48633 18.3799 14.7617 39.8242 21.418 61.2158c2.60547 8.37207 0 17.8486 0 26.7734c0 14.0762 0.868164 38.2051 4.48633 51.5195c6.22266 23.0098 19.2471 42.9805 35.7451 55.1367v33.7197c-0.43457 25.7598 9.26172 26.1934 6.07812 26.6279
c-4.19727 0.579102 -25.7598 -20.8389 -36.0352 -35.8896c-32.9951 -48.0469 -52.6768 -118.09 -52.6768 -187.12c0 -20.9844 2.60449 -51.665 4.63086 -54.2695zM506.068 593.487c27.208 -20.0488 45.4414 -49.4824 45.4414 -106.656
c0 -8.9248 -2.60547 -18.4014 0 -26.7734c6.65625 -21.3916 21.418 -42.8359 25.9043 -61.2158c2.1709 -8.97168 4.9209 -16.0635 7.23633 -19.1025c7.52441 -9.84082 10.1299 -6.36719 12.1562 16.3535c7.23535 80.6074 -12.1562 165.123 -51.0859 221.853
c-10.2744 15.0508 -31.8379 36.4688 -36.0342 35.8896c-3.18457 -0.43457 -3.18457 -0.868164 -3.61816 -26.6279v-33.7197zM194.636 400c18.668 -4.91992 35.3105 -9.11719 36.9023 -9.11719c5.35547 -0.289062 124.458 4.3418 130.681 5.06543
c4.91992 0.578125 6.5127 1.5918 8.39355 5.20996c3.90723 7.52441 3.03906 7.81445 -23.5889 8.82715c-19.6816 0.723633 -36.7588 2.89453 -89.4355 10.999h-65.123l-82.4014 54.4688c-6.17578 0 -20.5068 -30.0332 -17.5986 -35.3662
c4.63086 -7.23633 58.0312 -28.2197 102.171 -40.0869zM689.57 393.633c84.8047 -3.7627 74.5293 -4.19727 113.314 5.78809c43.8496 11.4326 100 33.1406 104.631 40.666c1.30566 2.39355 -6.38867 27.3516 -12.3008 27.3516
c-1.30273 0 -21.5635 -8.24902 -45.0078 -18.2344l-42.6914 -18.2344h-65.123c-52.6777 -8.10449 -69.7539 -20.2607 -89.4355 -20.9844c-17.5107 -0.579102 -24.6025 -1.44727 -25.1816 -2.74902c-0.433594 -1.44727 2.89453 -10.2754 4.3418 -10.8545
c0.144531 -0.144531 26.0498 -1.30176 57.4531 -2.74902zM380.998 416.791c-0.868164 1.1582 -9.37305 14.7578 -21.8184 19.6777c-12.5908 4.9209 -42.1133 18.2344 -65.8467 29.5225c-41.5342 19.6816 -43.7051 20.9844 -63.5312 36.3242
c-11.4326 8.82812 -20.6943 16.498 -20.6943 17.3662c0 0.723633 9.11719 14.3271 20.4053 30.2461l20.4053 29.0879l28.0908 30.5986l193.621 99.7324c-1.1582 0.433594 -36.6182 -5.72852 -73.9551 -23.5293c-65.8467 -31.2588 -68.7412 -32.7061 -103.184 -55.1377
c-34.4434 -22.4307 -36.1797 -23.7334 -58.3213 -45.7305c-18.0898 -17.9453 -24.7471 -25.7598 -32.417 -37.627c-6.94629 -10.998 -10.1309 -14.7607 -11.8672 -14.1816c-8.82812 2.74902 -8.39355 2.89453 -13.748 -5.06543
c-2.89453 -4.3418 -5.20996 -8.82812 -5.20996 -9.98535c0 -5.93359 30.6377 -51.6172 71.4844 -63.0547zM618.107 416.797l137.471 38.123c36.6143 21.418 71.4746 57.2363 71.4746 63.1699c0 3.4707 -9.84961 17.8936 -13.1699 16.7871
c-9.42285 -2.8291 -7.52441 -3.61133 -17.6553 12.4453c-7.66992 11.8672 -14.3271 19.6816 -32.417 37.627c-22.1416 21.9971 -23.8779 23.2998 -58.3213 45.7305c-34.4424 22.4316 -37.3369 23.8789 -103.184 55.1377c-37.3369 17.8008 -72.7979 23.9629 -73.9551 23.5293
l193.62 -99.7324l28.0918 -30.5986l20.4053 -29.0879c11.2881 -15.9189 20.4053 -29.5225 20.4053 -30.2461c0 -0.868164 -9.26172 -8.53809 -20.5498 -17.3662c-19.9717 -15.3398 -22.1426 -16.6426 -63.6758 -36.3242
c-23.7344 -11.2881 -53.2568 -24.6016 -65.8467 -29.5225c-23.2998 -9.26172 -26.0215 -15.6201 -22.6934 -19.6719zM126.039 467.873c7.52539 -2.1709 10.1309 -2.1709 11.7227 -0.145508c0.868164 1.01367 8.10352 20.1162 16.208 42.4023l14.9062 40.5215
l21.2607 44.6162l205.792 209.997c1.01367 6.36719 -3.05273 12.1621 -6.0918 11.4385l-189.635 -180.342l-52.7617 -83.6064c-17.0762 -31.4043 -18.2178 -39.875 -23.7168 -57.8203c-7.09082 -23.0098 -6.94629 -24.168 2.31543 -27.0615zM862.219 467.728
c2.60449 -3.32812 17.6553 0.579102 19.3926 4.9209c0.433594 1.30273 -2.02637 11.4326 -5.5 22.5762c-5.35449 17.6553 2.56934 33.2891 -19.9365 60.8975l-97.0527 119.057l-73.8936 70.1182c-40.5205 38.6396 -74.6738 70.333 -75.832 70.6221
c-3.03906 0.723633 -6.3584 -4.28711 -5.3457 -10.6543l205.792 -209.997l21.2617 -44.6162l14.9062 -40.5215c8.10352 -22.2861 15.4844 -41.3887 16.208 -42.4023zM487.834 676.845c6.80176 -4.77539 12.4453 -4.77539 19.3916 -0.144531v19.248
c-0.290039 8.39355 3.3291 53.6904 2.02637 100.724c-1.30273 46.8877 -3.03906 99.71 -3.90723 117.221v31.8379l-10.709 -31.8379c-1.3916 -28.0654 -5.83691 -189.941 -6.80176 -217.944v-19.1035z" />
</svg>
