<?xml version="1.0" standalone="no"?>
<!DOCTYPE svg PUBLIC "-//W3C//DTD SVG 1.1//EN" "http://www.w3.org/Graphics/SVG/1.1/DTD/svg11.dtd" >
<svg xmlns="http://www.w3.org/2000/svg" xmlns:xlink="http://www.w3.org/1999/xlink" version="1.1" viewBox="-10 0 1010 1000">
   <path fill="currentColor"
d="M461.666 96.333c0 -23.2354 21.0039 -43 48 -43c14.334 0 17.667 1.33398 29 13c11.334 11.334 13 14.667 13 28.334c0 19 -6.33301 32.333 -20 42l-10 7v92l12.334 8c7 4.33301 15.666 13.666 19.333 20.666s9 14 11.667 15.334c2.66602 1.66602 21.666 7 42.333 12
l37.333 9l11.334 -7c7.67188 -4.7793 16.8613 -7.04395 25.959 -7.04395c15.0146 0 29.7764 6.16797 37.041 17.377c5.58203 8.48828 8.05957 17.4668 8.05957 26.0967c0 24.2822 -19.6162 45.7939 -44.8584 45.7939c-4.88965 0 -9.99121 -0.806641 -15.2012 -2.55762
c-14.334 -4.66602 -28.667 -22 -28.667 -34.666c0 -10.667 -3.33301 -12.334 -49.667 -23.667c-17.1914 -4.25488 -26.4756 -6.11523 -32.3369 -6.11523c-10.7393 0 -9.98926 6.24414 -25.3291 15.4482l-9.33398 5.66699v526l11.334 7
c14.7266 9.17188 21.3428 23.8008 21.3428 38.2793c0 22.8818 -16.5244 45.3877 -43.6768 45.3877c-28.3564 0 -45.7578 -22.3027 -45.7578 -45.4521c0 -13.8584 6.23633 -28.0205 20.0918 -37.8818l10 -7v-528.333l-11.334 -11
c-6.5752 -6.26172 -11.0186 -9.58301 -20.3047 -9.58301c-10.4863 0 -27.1475 4.23438 -60.0283 13.25c-36.667 10 -40 11.666 -41 19.333c-2 13 -16 29 -29.333 33.333c-5.21094 1.75098 -10.3115 2.55762 -15.2012 2.55762
c-25.2432 0 -44.8584 -21.5117 -44.8584 -45.7939c0 -8.62891 2.47754 -17.6084 8.05957 -26.0967c7.34277 -11.3115 21.5381 -17.4248 36.3262 -17.4248c10.0508 0 20.375 2.82324 29.0068 8.75781l12.667 8.66699c34.7432 -8.70117 69.5205 -17.3682 104.333 -26
l5.66699 -12.333c3.33301 -6.66699 10.333 -15.334 16 -19.667l10 -7.33301v-94.667l-12 -9c-12.334 -9.33301 -21.334 -25.667 -21.334 -38.667z" />
</svg>
