<?xml version="1.0" standalone="no"?>
<!DOCTYPE svg PUBLIC "-//W3C//DTD SVG 1.1//EN" "http://www.w3.org/Graphics/SVG/1.1/DTD/svg11.dtd" >
<svg xmlns="http://www.w3.org/2000/svg" xmlns:xlink="http://www.w3.org/1999/xlink" version="1.1" viewBox="-10 0 1010 1000">
   <path fill="currentColor"
d="M202.062 324.497c0 -2.3877 10.9688 -26.1318 10.9688 -28.1533c0 -3.92871 12.4902 -24.9961 14.0771 -27.9707c3.10742 -6.21582 2.37695 -9.68945 -6.39844 -28.8848c-2.97363 -6.75879 -9.52832 -28.0635 -12.9795 -33.8213
c-2.68457 -4.02539 -6.60742 -18.626 -9.32422 -22.8516c-1.77344 -2.75977 -10.4824 -30.5674 -13.1621 -32.1758c-0.731445 -0.547852 -1.46289 -2.55957 -1.46289 -4.57031c0 -1.82812 -0.731445 -4.93555 -1.64551 -6.76367
c-2.04492 -3.94434 -10.3721 -29.6387 -14.625 -36.0146c-4.60449 -5.75391 -7.43945 -20.498 -11.1514 -29.251c-3.44922 -7.58691 -6.55664 -22.8389 -11.1523 -25.5938c-1.82812 -1.28027 -2.19336 -12.4316 -0.365234 -14.2598
c3.76172 -3.76172 17.1338 9.68945 21.3887 9.68945c0.548828 0 5.85059 3.65625 11.5176 8.04395c9.47949 7.10938 21.6475 11.2588 27.7881 18.2812c1.46289 1.64551 3.1084 2.9248 4.02246 2.9248c0.730469 0 6.58105 3.47363 12.7969 7.67871
c13.5283 9.50586 18.8301 12.7969 36.0146 23.0342c15.8447 9.34473 10.4033 8.94922 24.6797 16.0879c12.3447 6.38477 52.9102 39.7764 60.6953 31.9932c2.55859 -2.55957 38.5732 -20.293 41.1328 -20.293c1.09668 0 5.30176 -1.46289 9.14062 -3.47363
c7.84375 -3.73438 40.2207 -10.8311 49.543 -13.1621c3.65625 -0.914062 10.4209 -1.64551 14.9912 -1.64551s8.95801 -0.914062 9.50684 -1.82812c0.730469 -1.09668 13.3447 -1.82812 31.9922 -1.82812s31.2617 0.731445 31.9932 1.82812
c0.547852 0.914062 4.93555 1.82812 9.50586 1.82812c20.3955 0 50.3975 8.70801 63.9854 14.8076c4.3877 1.82812 8.77539 3.47363 9.68945 3.47363c1.09668 0 12.0654 4.93652 24.4971 11.1514l22.4863 10.9697h10.7861
c5.84961 -3.10742 12.4316 -12.9805 14.4424 -14.8086c12.9766 -10.6191 32.9238 -22.4502 47.7148 -31.0781c4.20508 -2.55957 9.68945 -6.39844 12.0654 -8.77539c2.55957 -2.19336 5.11914 -4.02148 5.85059 -4.02148c0.914062 0 8.95801 -4.93652 17.916 -11.1523
c8.95801 -6.0332 20.8408 -13.5283 26.6904 -16.6357c5.66797 -3.1084 12.0664 -6.94727 14.0771 -8.77539c10.1836 -8.61621 57.1846 -43.8574 41.3164 -10.0547c-2.19434 4.57031 -3.83887 8.95801 -3.83887 9.87207s-1.82812 5.30176 -3.83984 9.68848
c-5.38379 10.5361 -9.16113 23.083 -14.625 35.6494c-2.01074 4.3877 -3.47363 8.95801 -3.47363 10.4209c0 4.10352 -3.23145 4.67188 -4.57031 9.68848c-1.90332 9.52734 -8.55273 20.9736 -11.8828 31.627c-1.82812 5.85059 -5.48438 15.3574 -8.04395 20.8418
c-2.55957 5.66699 -4.75293 11.1514 -4.75293 12.0654c0 5.69141 -9.7334 23.8955 -11.8828 30.3477c-2.77539 8.3252 -22.1104 42.0322 -10.4209 54.1133c2.19336 2.55957 4.02148 5.48438 4.02148 6.58105c0 2.58398 7.31348 13.71 7.31348 16.4531
c0 5.62012 6.99512 13.4678 8.95801 20.4756c9.30371 31.4014 17.3672 50.499 17.3672 108.409v43.1445c4.02246 2.74219 20.4756 8.77539 27.2393 13.5283c6.94727 4.75391 12.9795 8.59277 13.5283 8.59277c1.76367 0 19.2256 12.8115 20.6582 13.5283
c3.29102 1.46191 6.94727 3.83887 33.6377 21.7549c11.5176 7.67871 21.5723 14.0771 22.4863 14.0771c3.23633 0 16.3896 11.459 19.7441 13.3447c7.49609 3.83984 12.6143 9.68945 11.335 13.1631c-1.09668 2.37695 -11.8828 2.74219 -90.6768 2.74219h-89.5791
c-5.42285 6.9707 -14.6914 27.1855 -21.0244 32.7236c-1.64453 1.46289 -2.9248 3.47363 -2.9248 4.57031c0 2.65723 -10.9688 12.1816 -10.9688 14.626c0 4.57031 -60.1465 61.4258 -65.082 61.4258c-0.731445 0 -2.92578 1.46289 -4.93652 3.10742
c-8.77441 8.04395 -66.3613 36.9287 -73.8574 37.1123c-15.7764 0.425781 -17.1758 13.877 -22.8516 25.2285c-3.92578 7.29102 -6.53223 21.5508 -10.9688 26.873c-0.731445 0.914062 -1.46289 2.92578 -1.46289 4.57031c0 8.15527 -7.50293 19.4043 -10.7861 29.251
c-4.68262 14.0498 -9.3125 19.8047 -12.9795 32.9062c-3.82129 11.9414 -6.20898 12.7705 -10.0547 25.5947c-5.72461 17.1748 -7.27344 15.0537 -14.626 37.1113c-3.47363 10.7861 -8.04395 22.4863 -10.0547 25.96c-2.01074 3.65625 -3.65625 8.04395 -3.65625 9.87207
c0 6.01172 -10.9688 10.3926 -10.9688 3.10742c0 -1.64551 -2.37695 -8.04395 -5.30176 -14.2598c-3.92188 -8.5791 -13.2363 -41.5391 -18.4639 -48.0801c-3.19238 -4.78711 -6.15332 -16.9971 -9.50684 -22.4863c-1.82812 -3.29102 -3.29102 -7.49512 -3.29102 -9.50586
c0 -4.44238 -3.65625 -4.46387 -3.65625 -8.41016c0 -5.46875 -7.19629 -19.2207 -9.14062 -24.4971c-3.65625 -10.6035 -4.75293 -13.3457 -8.95801 -21.5723c-2.01074 -4.3877 -3.83887 -9.50586 -3.83887 -11.1514c0 -5.77832 -3.37207 -7.26367 -5.48438 -14.8086
c-3.06836 -10.9541 -11.6924 -26.8721 -13.7109 -34.3691c-1.28027 -4.57031 -10.7861 -11.334 -16.0879 -11.334c-6.80078 0 -10.333 -3.69141 -17.7334 -6.94727c-28.1533 -12.6143 -49.7256 -24.3145 -56.124 -30.165
c-2.01074 -1.64453 -4.20508 -3.10742 -5.11914 -3.10742c-5.84961 0 -75.8682 -70.3838 -75.8682 -76.2344c0 -1.09668 -1.09668 -2.9248 -2.55957 -4.02148c-6.4082 -5.6084 -11.3887 -26.2754 -17.002 -33.0898h-184.644
c-3.97852 -10.2363 33.0039 -29.8955 43.6934 -35.6484c11.0547 -5.52832 28.4248 -22.833 43.5098 -29.4336c1.45996 -0.730469 18.8691 -13.5283 20.6582 -13.5283c1.64551 0 24.8633 -16.0879 33.8203 -23.2178c7.31348 -6.0332 7.67871 -6.76367 7.67871 -16.0879
c0 -14.9102 -3.65625 -8.58496 -3.65625 -26.5078c0 -18.7734 3.65625 -11.3398 3.65625 -28.3369c0 -19.1084 3.57812 -40.0479 8.95801 -54.8447c4.75293 -11.5166 5.66699 -14.0762 5.66699 -16.4531zM274.64 149.908c-0.0644531 0 -51.9346 -32.9062 -52.1025 -32.9062
c-0.731445 0 -4.20508 -2.37695 -7.67871 -5.48438c-21.96 -18.4199 -6.36035 14.0908 -3.83887 21.0234c1.13184 3.11035 9.32422 18.7588 9.32422 22.4863c0 6.7207 4.55762 11.6875 8.22656 23.2178c5.4873 16.0947 7.79199 16.3994 11.8828 29.25
c3.82324 12.0215 8.0957 20.3037 12.9795 33.4551c3.38965 9.60059 7.12988 11.0059 7.12988 17.002c0 1.82812 0.731445 4.93652 1.64551 6.76465c2.0752 4.15039 10.2412 32.1436 14.9912 37.8428c0.914062 0.914062 1.64453 2.74219 1.64453 4.20508
c0 1.2793 2.37695 7.49512 5.30176 13.7109c4.26758 9.06641 9.64355 30.5117 14.9912 36.9287c0.914062 0.914062 1.64551 2.74219 1.64551 4.02148c0 3.45215 7.3125 17.2705 7.3125 20.8408c0 4.34961 3.65625 4.27441 3.65625 8.22656
c0 5.66504 9.28027 17.3291 4.3877 23.0352c-3.55762 3.55859 -32.2773 22.0938 -35.2832 25.96c-1.28027 1.64551 -3.29102 2.9248 -4.3877 2.9248c-2.50781 0 -23.3994 14.2793 -25.4111 15.1738c-1.82812 0.548828 -8.95801 5.11914 -16.2705 9.87207l-15.9053 10.6035
c-1.72559 0.958984 -21.1943 15.5391 -23.4004 15.5391c-2.25293 0 -13.9795 8.89355 -15.7227 10.0547c-8.84961 4.4248 -23.3867 15.3877 -33.0889 21.7549c-25.666 16.4521 -10.251 12.9482 105.667 13.3457c114.808 0.548828 115.174 0.548828 118.465 4.3877
c1.64453 2.19336 3.10742 5.11914 3.10742 6.58105c0 2.46875 7.3125 17.1768 7.3125 19.1963c0 1.87207 7.3125 16.499 7.3125 18.2812c0 0.914062 1.64551 4.93555 3.47363 9.32324c4.54883 9.51367 10.1875 29.2217 14.9912 38.3916
c1.82812 4.02148 3.47363 8.22656 3.47363 9.32324c0 1.28027 1.09668 4.75293 2.55859 7.67871c5.11914 10.7861 8.22754 18.2812 11.1523 27.2393c2.69238 8.07617 8.22656 13.6494 8.22656 20.6582c0 6.50977 4.29688 9.86035 8.22656 21.3896
c6.16113 18.0713 7.7207 20.0859 13.7109 36.5625c8.37988 21.2695 15.374 35.6475 23.7666 60.3291c5.80078 17.7666 10.3623 24.2725 15.1738 39.3057c4.02148 12.0654 8.40918 11.1514 13.3447 -2.74219c5.0791 -15.2354 11.1592 -26.71 17.1846 -44.79
c2.19434 -6.58105 5.48438 -15.3564 7.49609 -19.5615c1.82812 -4.3877 3.47363 -8.5918 3.47363 -9.50586s1.82812 -5.30176 3.83887 -9.68945c5.38379 -10.5352 9.16211 -23.083 14.625 -35.6494c2.01074 -4.3877 3.47363 -8.95801 3.47363 -10.4199
c0 -3.73633 3.65625 -3.9375 3.65625 -7.67871c0 -3.0127 7.3125 -17.2383 7.3125 -19.9268c0 -2.46875 7.3125 -16.75 7.3125 -19.3779c0 -6.50684 9.34082 -21.4414 11.8828 -29.0684c5.42676 -16.2783 4.94141 -11.0234 11.8838 -31.0781
c8.15918 -23.5762 6.24609 -14.6709 14.625 -37.4775c3.10742 -9.14062 7.3125 -19.9268 9.32324 -24.1309c1.82812 -4.3877 3.47363 -8.95801 3.47363 -10.4209c0 -6.39844 3.47363 -6.58105 120.841 -6.94727c150.258 -0.761719 127.386 3.50879 83.7295 -28.8848
c-5.66699 -4.02148 -10.9688 -7.3125 -11.7002 -7.3125s-4.3877 -2.37695 -8.04395 -5.11914c-17.6836 -14.1465 -21.3799 -13.71 -45.7041 -30.1641c-16.7998 -10.9199 -14.3828 -7.78027 -29.6152 -18.0986c-5.66797 -3.83887 -11.1523 -6.94727 -12.0664 -6.94727
c-1.09668 0 -3.10742 -1.2793 -4.3877 -2.9248c-9.46191 -12.1709 -46.6807 -25.3213 -36.5625 -36.5635c2.2793 -2.2793 9.75 -25.9844 11.1514 -29.0674c2.65234 -7.29102 5.88574 -16.2236 9.32324 -24.1318c2.01172 -4.3877 3.47363 -8.5918 3.47363 -9.68945
c0 -4.64062 11.0342 -26.7871 12.6143 -31.0781c1.99707 -4.74219 9.32422 -19.0049 9.32422 -23.7656c0 -2.56836 7.3125 -16.917 7.3125 -19.5615c0 -1.28027 0.731445 -3.83887 1.64551 -5.66699c5.78223 -10.8857 10.6924 -30.6904 17.001 -42.0479
c1.8291 -3.29102 3.29102 -7.12988 3.29102 -8.59277c0 -1.46191 1.64551 -5.48438 3.47363 -8.77441c5.90625 -10.2021 14.917 -40.1289 20.1094 -51.5547c4.08301 -8.98145 6.62207 -23.376 11.5176 -29.25c2.37695 -2.55957 1.64551 -10.0547 -0.914062 -11.1514
c-2.19336 -0.731445 -30.3477 16.2705 -43.6924 26.6904c-2.55957 2.01074 -5.48535 3.65625 -6.21582 3.65625c-2.65918 0 -15.8955 10.8643 -18.0986 12.0664c-23.9717 13.2363 -18.7012 12.584 -39.4883 25.4111c-9.18066 4.59082 -23.7354 15.8496 -34.1865 22.1201
c-17.8076 10.9072 -43.5557 30.5127 -63.6201 41.1338c-7.3125 4.02148 -18.0986 11.1514 -27.4219 18.0986c-4.20508 2.9248 -8.41016 5.48438 -9.32422 5.48438c-1.09668 0 -2.9248 1.28027 -4.38672 2.9248c-3.64258 4.16309 -16.9922 9.8623 -21.0244 13.8945
c-3.83887 3.29102 -11.334 8.04395 -20.4756 12.7969c-6 3 -23.8877 -8.17969 -27.0566 -11.7002c-1.82812 -1.82812 -3.83887 -3.29102 -4.75293 -3.29102c-1.51465 0 -28.6035 -18.2812 -30.1641 -18.2812c-1.09766 0 -3.1084 -1.2793 -4.3877 -2.9248
c-2.37695 -2.9248 -26.1426 -19.0127 -28.1533 -19.0127c-0.800781 0 -28.7285 -18.2812 -29.7998 -18.2812c-2.1875 0 -7.82812 -7.31348 -10.2373 -7.31348c-3.61133 0 -13.5156 -9.91309 -17.5498 -12.248c-8.21875 -4.25098 -63.7227 -40.1162 -71.6641 -46.2529
c-2.55957 -2.01074 -5.30176 -3.65625 -5.66699 -3.65625zM260.562 208.044c0 -3.09473 -7.3125 -15.4102 -7.3125 -17.916c0 -1.09668 -1.46289 -5.30176 -3.47363 -9.68945c-5.98145 -13.5459 -10.835 -25.0459 -3.83887 -25.0459
c7.53125 0 26.7715 16.0469 34.918 21.0244c6.39844 3.83887 9.14062 5.66699 22.3027 14.9902c4.57129 3.29102 8.77539 6.0332 9.32422 6.0332c1.2793 0 28.1533 17.002 34.3691 21.9385c2.55957 2.01074 5.48438 3.65625 6.21582 3.65625
s4.57031 2.55859 8.77539 5.48438c10.4199 7.67773 57.5869 38.3906 58.8662 38.3906c0.548828 0 3.47363 1.82812 6.21582 4.02246c12.4307 10.0977 67.8857 34.668 45.1553 43.3271c-6.85645 2.63672 -14.3721 10.0176 -21.3896 13.7109
c-8.34668 4.39258 -13.4287 10.7793 -21.9375 14.8076c-4.35254 2.29199 -15.4404 11.8838 -19.3789 11.8838c-1.60547 0.320312 -14.2578 10.9688 -15.7217 10.9688c-1.64551 0 -44.4238 27.9707 -49.1777 32.1758c-9.61621 8.30371 -11.5303 -4.74512 -14.4424 -11.1523
c-11.874 -26.1211 -20.8242 -56.6895 -32.7236 -83.5469c-2.01074 -4.75293 -3.83887 -9.50586 -3.83887 -10.6025c0 -1.39941 -9.14062 -21.666 -9.14062 -22.8525c0 -0.730469 -1.28027 -4.2041 -2.92578 -7.86035c-5.77441 -13.3555 -8.39648 -19.1631 -13.7109 -35.1006
c-3.28906 -9.87012 -7.12988 -12.3506 -7.12988 -18.6475zM539.904 292.505c2.03906 0 7.72754 -7.3125 9.68945 -7.3125c1.82812 0 19.0127 -10.9697 44.79 -28.5195c12.0654 -8.04395 25.4111 -16.6367 29.9814 -19.0127
c10.0576 -5.23047 12.6025 -8.51172 21.207 -14.0771c19.9697 -11.7686 16.8164 -13.6279 32.1748 -21.5723c5.30176 -2.74219 12.7969 -7.3125 16.4541 -10.2373c3.65625 -2.9248 7.3125 -5.30176 7.86035 -5.30176c3.73242 0 28.6592 -17.9512 37.4775 -23.9492
c14.8076 -9.87207 19.5615 -3.83887 10.9688 14.0771c-2.01074 4.3877 -3.65625 8.95801 -3.65625 9.87207c0 1.09668 -1.64551 5.48438 -3.83887 9.68945c-3.58008 7.48145 -17 46.9775 -20.6582 54.2959c-2.71094 5.4209 -8.19336 23.4014 -11.335 28.3359
c-3.98438 6.26562 -8.0752 21.6777 -11.5176 29.251c-7.37402 16.2207 -11.4307 31.3008 -18.6465 47.8975c-2.01172 4.3877 -3.47363 8.95801 -3.47363 10.4209c0 4.13184 -3.65625 3.82031 -3.65625 8.77441c0 5.40723 -6.64844 13.2344 -8.04395 18.4648
c-1.82812 7.67773 -5.48438 7.67773 -16.0879 -0.182617c-12.1523 -8.80176 -18.2207 -10.9941 -29.7988 -19.1963c-27.498 -20.6191 -55.4082 -35.6562 -84.4609 -55.0273c-8.5918 -5.30176 -13.3457 -9.68848 -13.3457 -11.8828
c0 -2.9248 14.0771 -14.8076 17.916 -14.8076zM471.166 336.38c1.95117 0 26.4521 -16.4531 28.8848 -16.4531c2.44434 0 26.9248 16.4531 28.8848 16.4531c2.29492 0 7.76074 7.3125 10.4209 7.3125c2.54785 0 8.19336 7.31348 10.2373 7.31348
c3.05273 0 26.251 17.8047 34.5518 22.1201c4.57031 2.37695 11.1523 6.58105 14.8086 9.32422c3.65625 2.9248 7.12988 5.11816 7.86133 5.11816c0.730469 0 3.65625 1.64551 6.21484 3.83887c4.92969 3.61621 34.8115 22.2197 39.4883 25.96
c4.02246 2.74219 4.3877 1.46289 -6.03223 27.2402c-1.4248 3.70508 -9.32422 19.583 -9.32422 24.1309c0 3.94336 -3.65625 3.96191 -3.65625 8.41016c0 3.58105 -7.3125 15.5176 -7.3125 18.2812c0 1.64551 -5.66699 15.5391 -8.95801 21.9375
c-1.2793 2.37695 -16.6357 2.74219 -117.733 3.29102h-116.271c-2.77148 -6.46582 -9.32324 -16.3584 -9.32324 -21.5723c0 -4.88477 -9.27637 -23.0176 -10.9688 -28.3359c-4.80859 -15.1084 -15.7227 -22.625 -15.7227 -40.0371v-15.9053
c3.47266 -2.9248 10.0557 -5.30078 10.7861 -5.30078c7.59668 0 45.9512 -30.6533 57.0391 -36.1982c4.02148 -2.01074 8.95801 -5.30176 10.7861 -7.49512c2.01074 -2.19336 4.2041 -3.83887 5.30176 -3.83887c1.56152 0 28.6514 -18.2822 30.1641 -18.2822
c2.05957 0 7.81152 -7.3125 9.87207 -7.3125zM235.883 489.945c1.11523 0 22.6523 -16.4531 23.7656 -16.4531c0.548828 0 6.21582 -3.47363 12.6143 -7.86133c11.335 -7.67871 14.0771 -9.32324 26.5088 -16.2705c3.01758 -1.65918 27.4795 -22.1328 30.5293 -12.9805
c4.47266 11.1777 9.88379 22.3408 13.7119 34.3701c2.15137 6.76172 5.30176 8.36914 5.30176 13.8936c0 1.64551 1.82812 6.76367 3.83887 11.1514c6.94727 13.7119 7.49512 19.7441 6.76367 24.3145h-79.707c-70.0186 0.365234 -79.1592 0.548828 -80.0732 -1.82812
c-1.09668 -2.9248 3.83887 -10.0547 6.94727 -10.0547c1.64551 0 3.10742 -0.914062 20.1094 -12.4316c4.57031 -3.29004 8.95801 -5.84961 9.68945 -5.84961zM639.904 520.658c0.446289 -8.47949 4.57031 -15.1133 4.57031 -20.6582
c0 -2.19336 0.731445 -4.57031 1.82812 -5.66699c3.44434 -3.44434 13.9297 -36.5029 16.2705 -40.9512c3.10352 -5.3584 5.06445 -20.1094 11.5176 -20.1094c7.79102 0 19.75 11.9688 27.2393 16.0879c12.4316 6.94727 15.1738 8.5918 26.5088 16.2705
c6.39844 4.3877 12.0654 7.86133 12.6143 7.86133c1.11523 0 22.6523 16.4531 23.7656 16.4531c0.731445 0 5.11914 2.55957 9.68945 5.84961c17.002 11.5176 18.4639 12.4316 20.1094 12.4316c3.1084 0 8.04395 7.12988 6.94727 10.0547
c-0.914062 2.37695 -10.2373 2.74219 -80.9873 2.37695h-80.0732zM575.005 627.788c0 4.03809 -3.65625 3.89062 -3.65625 8.5918c0 6.95996 -9.77637 23.2852 -13.7109 35.6494c-2.55957 7.86133 -6.39844 17.916 -8.40918 22.1211
c-1.82812 4.38672 -3.47363 8.22656 -3.47363 8.77441c0 0.366211 -2.01074 5.30176 -4.57031 10.6035c-11.2988 26.0713 -19.4297 54.1709 -30.8965 80.0732c-1.46191 3.65625 -3.83887 9.87207 -5.11816 13.7109c-2.74219 7.86133 -9.14062 10.2373 -10.2383 3.47363
c-1.68848 -9.29883 -7.64355 -19.0918 -11.334 -30.165c-6.1582 -18.4697 -11.416 -26.9375 -17.3682 -44.7891c-7.46191 -23.2295 -15.9492 -35.7666 -23.7656 -60.3291c-2.55957 -8.04395 -6.0332 -16.4531 -7.49512 -18.6475
c-1.46289 -2.19336 -2.55957 -5.66699 -2.55957 -7.49512c0 -5.75098 -3.27246 -7.12305 -5.48438 -14.0771c-3.76953 -11.8418 -8.22168 -20.3252 -12.7969 -32.9062c-6.22461 -17.1133 -5.58984 -11.1729 -12.7979 -31.9932
c-3.29004 -9.50586 -6.58105 -18.0986 -7.49512 -19.1953c-2.01074 -2.01074 -2.19336 -8.95801 -0.365234 -10.6035c0.547852 -0.731445 48.8115 -1.2793 106.946 -1.2793c93.4756 0 113.868 -1.2793 106.033 7.86035c-3.19531 3.83691 -13.1621 30.6152 -13.1621 35.2842
c0 5.75391 -6.93652 13.5713 -8.95801 19.9268c-1.9375 6.08496 -9.32422 19.4521 -9.32422 25.4111z" />
</svg>
