<?xml version="1.0" standalone="no"?>
<!DOCTYPE svg PUBLIC "-//W3C//DTD SVG 1.1//EN" "http://www.w3.org/Graphics/SVG/1.1/DTD/svg11.dtd" >
<svg xmlns="http://www.w3.org/2000/svg" xmlns:xlink="http://www.w3.org/1999/xlink" version="1.1" viewBox="-10 0 1010 1000">
   <path fill="currentColor"
d="M71.5576 76.0723c0.676758 -0.90332 77.8779 -1.58008 171.558 -1.58008c152.884 0 171.62 0.147461 171.62 4.00586c0 3.07129 -8.98242 13.4922 -30.085 34.5947l-31.377 31.377l-103.838 0.451172l-103.837 0.677734l-0.677734 103.837l-0.451172 103.838
l-33.6348 33.6338c-22.875 22.875 -33.7842 32.3398 -36.8691 32.3398c-3.82812 0 -3.98828 -18.5361 -3.98828 -171.617c0 -93.6797 0.676758 -170.881 1.58008 -171.558zM669.839 74.7695c22.4717 0 50.8896 0.0683594 86.8203 0.173828l169.978 0.677734
l0.676758 169.978c0.105469 35.9443 0.173828 64.3701 0.173828 86.8457c0 73.7881 -0.738281 83.4473 -3.33398 84.4854c-0.112305 0.0410156 -0.240234 0.0615234 -0.385742 0.0615234c-3.07812 0 -13.7441 -9.22461 -35.7314 -31.2129l-32.5059 -32.5049
l-0.451172 -103.838l-0.677734 -103.837l-103.837 -0.677734l-103.838 -0.451172l-31.377 -31.377c-21.2949 -21.2949 -30.0859 -31.5225 -30.0859 -34.5869c0 -3.29102 11.1465 -3.73633 84.5752 -3.73633zM436.795 139.955
c33.4082 -33.6348 61.8506 -60.9482 63.2051 -60.9482s29.7969 27.3135 63.2051 60.9482l60.9482 60.9482l88.0361 0.451172l88.0361 0.676758c0.753906 59.0654 1.50684 118.133 2.25781 177.201l61.625 61.625c33.6338 33.6348 61.3994 62.5283 61.3994 63.6572
c0 1.35449 -27.9912 30.248 -62.0771 64.334l-62.0762 62.0771l-0.451172 86.9072l-0.677734 86.9072l-86.9072 0.677734l-86.9072 0.451172l-62.0771 62.0771c-34.0859 34.085 -62.9795 62.0762 -64.334 62.0762s-30.248 -27.9912 -64.334 -62.0762l-62.0771 -62.0771
l-88.0361 -0.451172l-88.0361 -0.677734l-0.676758 -88.0361l-0.451172 -88.0361l-60.9482 -60.9482c-33.6348 -33.4082 -60.9482 -61.8506 -60.9482 -63.2051s27.3135 -29.7969 60.9482 -63.2051l60.9482 -60.9482l0.451172 -89.165l0.676758 -89.165l89.165 -0.676758
l89.165 -0.451172zM520.09 135.215c-8.57715 -8.57812 -16.9297 -15.5762 -18.9609 -15.5762c-1.80566 0.225586 -10.8359 6.99805 -20.0908 15.5762c-10.0176 9.15918 -15.6396 14.6484 -15.6396 17.9336c0 4.48926 10.4912 4.86523 34.6016 4.86523
c24.1318 0 34.3975 -0.308594 34.3975 -4.92969c0 -3.28906 -5.20215 -8.76465 -14.3076 -17.8691zM500.677 200.451c22.7695 0.154297 39.6816 0.537109 51.7803 0.537109c18.1514 0 25.4658 -0.861328 25.4658 -4.64844c0 -3.02832 -4.67871 -7.92773 -12.2344 -15.7529
h-131.603c-3.17773 3.4668 -10.1982 9.94141 -9.25488 15.124c0.676758 3.83789 4.96582 4.06348 75.8457 4.74023zM251.016 230.248c-5.81738 0 -10.3164 -0.147461 -13.793 -0.147461c-10.3398 0 -11.6338 1.30762 -11.6338 11.6992
c0 3.46875 0.144531 7.94922 0.144531 13.7305c0 17.7666 0.511719 23.7588 3.97168 23.7588c6.2168 0 45.0693 -38.8525 45.0693 -45.0693c0 -3.46191 -5.99902 -3.97168 -23.7588 -3.97168zM324.604 230.248h-11.9639c-29.0449 29.0439 -58.0889 58.0889 -87.1328 87.1338
l0.677734 12.415c0.451172 8.57812 1.58008 12.415 4.0625 12.8672c0.0224609 0.00390625 0.0458984 0.00585938 0.0722656 0.00585938c5.96191 0 107.62 -102.742 107.62 -108.69c0 -2.85742 -5.28418 -3.73145 -13.3359 -3.73145zM335.215 325.057
c-5.47754 0 -18.7275 -15.8018 -23.251 -15.8018c-4.43652 0 -29.3691 21.8027 -29.3691 25.5537c0 3.5127 50.6934 51.1963 52.8457 51.1963c1.12891 0 12.1895 -10.1582 24.6045 -22.5742c19.4131 -19.4131 23.4766 -22.5732 30.0225 -22.5732
c5.64355 0 7.90137 -1.12793 9.48145 -5.64258c2.70898 -6.99805 5.19141 -6.99805 17.3809 0.225586c7.6748 4.51465 12.1904 5.41699 21.6709 4.96582l11.7383 -0.676758c0.451172 -22.5742 0.902344 -45.1475 1.35449 -67.7207l17.1553 -17.3809
c11.7383 -11.7383 16.7041 -18.2852 15.8018 -20.7676c-1.12891 -2.93457 -5.64355 -3.6123 -25.96 -3.6123h-24.3789c-7.74902 7.90234 -15.5 15.8027 -23.251 23.7021c-0.451172 14.2969 -0.902344 28.5928 -1.35352 42.8896
c-14.376 0.447266 -28.748 0.898438 -43.1152 1.35449l-13.3184 13.3184c-7.90137 7.90039 -15.3506 13.5439 -18.0586 13.5439zM688.262 306.998c-4.32031 0 -20.1084 18.0586 -24.6045 18.0586c-2.03223 0 -9.48145 -6.09473 -16.9307 -13.5439l-13.3184 -13.3184
c-14.3672 -0.456055 -28.7393 -0.907227 -43.1152 -1.35449c-0.451172 -14.2969 -0.902344 -28.5928 -1.35352 -42.8896c-7.75098 -7.89941 -15.502 -15.7998 -23.251 -23.7021h-25.5078c-18.4043 0 -26.9414 0.405273 -26.9414 4.73047
c0 3.57812 5.84668 9.84082 16.7832 20.7773l18.2842 18.5107c0.452148 21.8203 0.90332 43.6416 1.35449 65.4629c21.8945 0.453125 43.79 0.905273 65.6885 1.35449l22.3477 22.3467c12.416 12.416 23.4766 22.5742 24.8311 22.5742s11.5127 -9.25586 22.5732 -20.542
c11.2871 -11.2871 23.0244 -21.8965 26.6367 -23.7021c3.38574 -1.80566 6.09473 -4.51465 6.09473 -6.09473c0 -4.06348 -25.2822 -28.668 -29.5713 -28.668zM774.492 319.639l-89.3906 -89.3906h-10.835c-6.92969 0 -12.207 0.878906 -12.207 3.73145
c0 5.94824 101.658 108.69 107.62 108.69c2.33398 0 3.7002 -4.35059 4.13477 -11.7441zM773.814 254.628l-0.676758 -23.251l-23.251 -0.676758c-3.72656 -0.105469 -7.01953 -0.177734 -9.88574 -0.177734c-9.83691 0 -14.6377 0.845703 -14.6377 4.05859
c0 3.84668 6.87891 11.0879 20.2354 24.335c13.2471 13.3564 20.4883 20.2354 24.335 20.2354c3.21289 0 4.05859 -4.80078 4.05859 -14.6377c0 -2.86621 -0.0722656 -6.15918 -0.177734 -9.88574zM524.831 365.688c-12.416 -12.415 -23.4766 -22.5732 -24.8311 -22.5732
c-4.51465 0 -36.7949 34.9883 -37.6973 40.4062l-0.677734 5.41797l-76.749 0.451172l-0.677734 33.8604l-0.451172 33.8594l-22.1221 21.8965c-11.9639 12.1895 -23.4756 22.1221 -25.2822 22.1221c-1.80566 0 -13.3184 -9.93262 -25.2822 -22.1221l-22.1211 -21.8965
l-0.452148 -33.8594l-0.676758 -33.8604h-60.9482v38.375c6.01953 0.751953 12.0391 1.50391 18.0586 2.25684c0.448242 14.375 0.899414 28.7471 1.35449 43.1152l14.4473 14.4473c8.12598 8.12598 14.6729 15.5752 14.6729 16.9297s-6.54688 8.80371 -14.6729 16.9297
l-14.4473 14.4473c-0.455078 13.6162 -0.90625 27.2354 -1.35449 40.8574c-6.01953 0.75293 -12.0391 1.50488 -18.0586 2.25781v38.375h60.9482c0.451172 -21.8213 0.902344 -43.6426 1.35449 -65.4629l21.8955 -22.1221
c11.9639 -11.9639 23.4766 -21.8965 25.2822 -21.8965c1.80664 0 13.3184 9.93262 25.2822 21.8965l21.8965 22.1221c0.451172 21.8213 0.902344 43.6426 1.35449 65.4629c21.8945 0.453125 43.79 0.905273 65.6885 1.35449l23.4766 23.4756
c13.0918 13.0928 24.6045 23.7021 25.959 23.7021s12.8672 -10.6094 25.959 -23.7021l23.4766 -23.4756c21.8984 -0.449219 43.7939 -0.901367 65.6885 -1.35449c0.452148 -21.8203 0.90332 -43.6416 1.35449 -65.4629l21.8965 -22.1221
c11.9639 -11.9639 23.4756 -21.8965 25.2822 -21.8965c1.80566 0 13.3184 9.93262 25.2822 21.8965l21.8955 22.1221c0.452148 21.8203 0.90332 43.6416 1.35449 65.4629h60.9482v-38.375c-6.01953 -0.75293 -12.0391 -1.50488 -18.0586 -2.25781
c-0.448242 -13.6221 -0.899414 -27.2412 -1.35449 -40.8574l-14.4473 -14.4473c-8.12598 -8.12598 -14.6729 -15.5752 -14.6729 -16.9297s6.54688 -8.80371 14.6729 -16.9297l14.4473 -14.4473c0.455078 -14.3682 0.90625 -28.7402 1.35449 -43.1152
c6.01953 -0.75293 12.0391 -1.50488 18.0586 -2.25684v-38.375h-60.9482l-0.676758 33.8604l-0.452148 33.8594l-22.1211 21.8965c-11.9639 12.1895 -23.4766 22.1221 -25.2822 22.1221c-1.80664 0 -13.3184 -9.93262 -25.2822 -22.1221l-22.1221 -21.8965
l-0.451172 -33.8594l-0.677734 -33.8604l-33.8604 -0.677734l-34.085 -0.451172zM821.671 436.569c-4.53711 -4.375 -14.2129 -15.5107 -18.7363 -10.6104c-0.90332 0.677734 -1.58008 35.8916 -1.58008 77.8789c0 20.1465 -0.216797 35.7832 -0.216797 47.5967
c0 21.8984 0.744141 30.6611 4.99121 30.6611c3.04297 0 7.88574 -4.50098 15.542 -11.8926v-133.634zM195.937 504.063c-0.492188 -59.0508 -0.344727 -75.5996 -5.87012 -75.5996c-2.85742 0 -7.23145 4.4248 -13.9941 9.68555v129.797
c7.79297 7.52441 12.6787 12.1904 15.7031 12.1904c3.81055 0 4.66797 -7.40625 4.66797 -25.8301c0 -11.8613 -0.355469 -28.2871 -0.506836 -50.2432zM868.397 483.521c-15.8018 -15.5752 -19.4131 -18.0586 -22.5732 -14.6729
c-0.90332 0.677734 -1.58008 16.4785 -1.58008 34.9893c0 24.4521 0.227539 34.9668 4.9375 34.9668c3.42188 0 9.20801 -5.5459 18.9902 -15.3281c9.25488 -9.0293 16.7041 -18.0586 16.7041 -20.0908c0 -2.03125 -7.44922 -10.835 -16.4785 -19.8643zM153.048 502.935
c-0.667969 -27.1494 -1.06641 -32.9678 -4.41504 -32.9678c-4.12891 0 -33.5088 30.5303 -33.5088 34.7734c0 1.12891 6.99805 9.0293 15.5762 17.6074c9.24219 9.14844 14.7803 14.3564 18.0479 14.3564c3.59961 0 4.44141 -6.32324 4.44141 -20.6631
c0 -3.79688 -0.0595703 -8.15527 -0.141602 -13.1064zM311.738 699.774c4.32031 0 20.1084 -18.0586 24.6045 -18.0586c2.03223 0 9.48145 6.09473 16.9307 13.5439l13.3184 13.3184c14.3682 0.455078 28.7402 0.90625 43.1152 1.35449
c0.451172 14.2959 0.902344 28.5928 1.35352 42.8887c8.62012 8.53613 17.125 17.1875 25.5088 25.96h24.6045c17.4766 0 25.623 -0.397461 25.623 -4.59375c0 -3.55566 -5.8457 -9.83691 -16.8193 -20.9141l-18.2842 -18.5107
c-0.452148 -21.8203 -0.90332 -43.6416 -1.35449 -65.4629c-21.8936 -0.453125 -43.79 -0.904297 -65.6885 -1.35352l-22.3477 -22.3477c-12.416 -12.416 -24.1533 -22.5742 -25.96 -22.5742c-3.83691 0 -51.918 47.1787 -51.918 51.0166
c0 3.61133 23.4756 25.7334 27.3135 25.7334zM715.575 673.814c0 -3.23828 -48.4736 -50.79 -51.918 -50.79c-2.03223 0 -13.5439 10.1582 -25.96 22.5742l-22.3477 22.3477c-21.8984 0.449219 -43.7949 0.900391 -65.6885 1.35352
c-0.451172 21.8213 -0.902344 43.6426 -1.35449 65.4629l-18.2842 18.5107c-10.9736 11.0771 -16.8193 17.3584 -16.8193 20.9141c0 4.19629 8.14648 4.59375 25.623 4.59375h24.6045c8.38574 -8.77051 16.8867 -17.4258 25.5088 -25.96
c0.451172 -14.2959 0.902344 -28.5928 1.35352 -42.8887c14.375 -0.448242 28.7471 -0.899414 43.1152 -1.35449l13.3184 -13.3184c7.44922 -7.44922 14.8984 -13.5439 16.9307 -13.5439c4.63477 0 20.1924 18.0586 24.8301 18.0586
c3.83789 0 27.0879 -22.3477 27.0879 -25.96zM286.456 718.736c-29.1201 -29.1201 -53.9502 -52.8223 -55.3047 -52.8223c-4.28906 0 -5.41797 2.70898 -5.41797 13.3184v10.3838l89.165 89.165h10.835c7.04004 0 12.2295 -0.853516 12.2295 -3.86426
c0 -3.18457 -14.6914 -19.3652 -51.5068 -56.1807zM773.814 677.652c-0.431641 -6.90918 -1.81348 -11.2891 -4.09082 -11.2891c-2.01855 0 -26.5293 22.7227 -56.1797 52.373c-36.791 36.791 -50.6436 51.1201 -50.6436 56.6445c0 2.98438 4.04004 3.40039 10.6885 3.40039
c9.93262 0 9.93262 -0.225586 55.3047 -45.1465l45.5986 -45.1475zM773.138 752.821c0 -19.8691 -0.641602 -25.5117 -3.45117 -25.5117c-2.00781 0 -13.6172 9.62695 -25.6689 21.9004c-13.7578 13.7578 -20.8613 21.2246 -20.8613 25.1709
c0 3.29004 4.93652 4.13281 15.0684 4.13281c3.04102 0 6.5498 -0.0761719 10.5342 -0.18457l24.3789 -0.676758v-24.8311zM254.854 750.339c-11.5127 -11.7383 -22.3477 -21.2188 -24.1533 -21.2188c-4.51465 0 -5.19238 4.28809 -4.51465 27.3135l0.676758 21.2188
l23.251 0.676758c3.70898 0.106445 6.98633 0.177734 9.83789 0.177734c9.80957 0 14.5801 -0.849609 14.5801 -4.08105c0 -3.83008 -6.70801 -11.0088 -19.6777 -24.0869zM570.88 820.768c4.55469 -4.77051 7.06543 -8.08203 7.06543 -10.3662
c0 -4.07422 -7.9834 -4.88281 -26.5898 -4.88281c-12.2568 0 -29.124 0.350586 -51.3555 0.350586c-60.3818 0 -78.0352 0 -78.0352 5.32129c0 2.17871 2.95898 5.25 7.15527 9.57715l7.44922 7.6748h126.861zM500 851.016c-22.3613 0 -32.0713 0.302734 -32.0713 4.81445
c0 3.27637 5.12109 8.77246 14.2383 17.9844c8.57812 8.57812 16.4785 15.5762 17.833 15.5762c4.11035 0 32.0938 -29.9434 32.0938 -34.501c0 -3.56641 -6.74121 -3.87402 -32.0938 -3.87402zM484.198 415.35c7.44922 -7.44922 14.4473 -13.5439 15.8018 -13.5439
s8.35254 6.09473 15.8018 13.5439l13.3184 13.3184c14.3672 0.456055 28.7383 0.907227 43.1143 1.35449c0.448242 14.375 0.899414 28.7471 1.35449 43.1152l14.4473 14.4473c8.12598 8.12598 14.6729 15.5752 14.6729 16.9297s-6.54688 8.80371 -14.6729 16.9297
l-14.4473 14.4473c-0.455078 13.6162 -0.90625 27.2354 -1.35449 40.8574c-13.6221 0.448242 -27.2412 0.899414 -40.8574 1.35449l-14.4473 14.4473c-8.12598 8.12598 -15.5752 14.6729 -16.9297 14.6729s-8.80371 -6.54688 -16.9297 -14.6729l-14.4473 -14.4473
c-14.3682 -0.455078 -28.7402 -0.90625 -43.1152 -1.35449c-0.447266 -14.375 -0.898438 -28.7471 -1.35449 -43.1143l-13.3184 -13.3184c-7.44922 -7.44922 -13.5439 -14.4473 -13.5439 -15.8018s6.09473 -8.35254 13.5439 -15.8018l13.3184 -13.3174
c0.455078 -15.1201 0.907227 -30.2451 1.35449 -45.373c15.1279 -0.447266 30.252 -0.899414 45.3721 -1.35449zM71.1064 582.845c0.451172 -1.35449 2.25684 -2.70898 3.83691 -2.70898s18.0586 14.8984 36.3438 33.4082l33.1826 33.1826l0.451172 103.838
l0.677734 103.837l103.837 0.677734l103.838 0.451172l34.7627 34.7627c23.7617 23.7617 33.4668 34.915 33.4668 38.0059c0 3.2334 -11.3047 3.70312 -86.6699 3.70312c-23.083 0 -52.2891 -0.0683594 -89.2344 -0.173828l-174.492 -0.676758l-0.677734 -172.687
c-0.0566406 -23.752 -0.0849609 -46.5029 -0.0849609 -67.2939c0 -62.3955 0.253906 -107.141 0.762695 -108.326zM887.811 614.447c17.6904 -17.6904 33.3809 -31.6055 35.3945 -31.6055c3.0166 0 3.43164 22.3633 3.43164 174.494v173.815l-173.363 0.676758
c-36.6826 0.105469 -65.6865 0.173828 -88.6143 0.173828c-74.8652 0 -86.1621 -0.470703 -86.1621 -3.70312c0 -3.09082 9.70508 -14.2441 33.4668 -38.0059l34.7627 -34.7627l103.838 -0.451172l103.837 -0.677734l0.677734 -103.837l0.451172 -103.838z" />
</svg>
