<?xml version="1.0" standalone="no"?>
<!DOCTYPE svg PUBLIC "-//W3C//DTD SVG 1.1//EN" "http://www.w3.org/Graphics/SVG/1.1/DTD/svg11.dtd" >
<svg xmlns="http://www.w3.org/2000/svg" xmlns:xlink="http://www.w3.org/1999/xlink" version="1.1" viewBox="-10 0 1010 1000">
   <path fill="currentColor"
d="M495.612 45.7041c1.69434 0 3.42383 -10.9688 5.11914 -10.9688c1.77832 0 27.3896 77.0488 27.4219 77.1475c2.37695 6.94727 5.11914 12.4316 6.21582 12.4316c1.28027 0 7.12988 -1.2793 13.1631 -2.74219c15.2725 -3.53711 52.3154 -7.35645 68.3652 -7.35645
c2.20117 0 4.00879 0.0722656 5.30957 0.226562v16.6357h19.5605c16.4541 1.64551 23.2178 9.87207 24.6807 26.874v10.6035h12.6143c15.3564 8.22656 27.6045 22.1211 27.6045 23.7656c0 2.19434 21.9385 16.0879 25.4111 16.0879
c4.20508 0 30.165 -11.8828 33.8213 -15.5391c2.68848 -2.86719 57.7412 -29.2822 60.9326 -29.2822c1.24609 0 -11.2754 25.4561 -12.6689 26.54c-2.98926 2.24316 -33.042 64.5186 -33.4561 66.7275c-1.46777 7.33691 12.8135 20.6895 15.7227 26.1426
c6.19141 12.3828 15.8066 33.2881 26.377 33.2881c11.6592 0 13.4854 -0.373047 22.9834 9.125c9.32324 9.32422 9.32324 9.32422 8.5918 19.1963c-0.731445 8.95703 -1.64551 10.7852 -8.04395 16.2705c0 9.76465 -1.00879 40.0596 3.1084 43.1436
c1.64551 1.09766 7.12988 32.542 7.12988 41.5v5.84961h28.8848c15.7217 4.93652 37.2939 20.8408 47.8975 24.1318c17.0791 5.29883 16.8047 8.00293 26.1426 9.87207c3.66699 0.978516 5.23926 1.92285 5.23926 2.88086c0 2.80859 -13.5059 5.72754 -27.3604 9.91602
c-38.0557 11.9473 -19.7295 8.06055 -55.5752 19.3779h-24.8633v17.916c-3.80371 32.5361 -6.46582 24.2617 -13.1631 50.0918c-4.2041 16.8193 -4.2041 18.0986 -1.2793 19.7441c1.64551 1.09668 3.1084 2.9248 3.1084 4.3877c0 1.46191 1.46191 3.29004 3.29004 4.3877
c2.37695 1.2793 3.1084 4.2041 3.1084 12.4307c-0.354492 16.9268 -14.168 26.1426 -25.5947 26.1426c-8.5918 0 -11.5176 2.74219 -19.7441 18.2822c-5.84961 10.7861 -21.3887 33.4551 -23.583 34.3691c-1.41602 0.643555 -2.02148 1.94336 -2.02148 3.73047
c0 7.88672 11.7939 25.2598 17.7441 37.5859c7.49512 16.0879 14.4424 29.6162 15.5391 30.1641c1.46191 0.914062 20.292 38.9395 20.292 40.9512c0 0 -55.5332 -27.6807 -67.2754 -33.2725c-15.54 -7.12988 -29.251 -14.2598 -30.7129 -15.7227
c-7.74609 -7.74414 -13.7588 -1.89453 -19.0137 2.19434c-12.4307 9.87207 -11.8828 8.77441 -9.14062 14.9902c3.19043 7.74512 9.3877 10.5146 13.3457 17.5508c4.20508 8.22656 16.6367 18.8301 30.165 26.1426c6.76367 3.47363 13.1621 7.49512 14.625 8.77539
c1.2793 1.46191 3.29102 2.55859 4.20508 2.55859c2.55859 0 1.82812 16.6367 -0.914062 20.1104h-239.488c-2.92578 9.50586 -5.85059 25.5938 -6.76465 25.5938c-0.731445 0 -1.82812 2.74219 -2.55957 6.0332c-2.54004 12.3359 -17.8604 58.875 -19.3457 58.875
c-5.5 0 -31.293 -100.556 -36.5957 -105.858c-0.731445 -0.914062 -8.95801 -2.74219 -18.4639 -4.02246c-21.5723 -3.29004 -36.1973 -6.39844 -36.1973 -8.04395c0 -0.730469 -6.38184 -4.57031 -14.8086 -4.57031h-14.8076v2.37695
c-5.17871 5.4668 -15.9033 8.55566 -24.248 8.55566c-11.0508 0 -26.2598 -14.0625 -26.7578 -21.5361c-0.231445 -2.78516 0.982422 -15.9043 -1.46289 -15.9043c-0.914062 0 -2.9248 -1.09668 -4.2041 -2.37695c-8.2168 -8.2168 -29.5088 -17.4229 -40.2197 -27.2393
c-6.80664 -6.24023 -14.6797 -9.80273 -19.7441 -3.47363c-0.94043 1.56934 -53.7715 28.1514 -55.0273 29.251c-2.37695 2.01074 -39.3047 20.292 -41.1338 20.292c0.0634766 -0.123047 34.415 -73.1152 37.4775 -74.9541
c0.731445 -0.548828 8.22656 -6.64355 8.22656 -15.7227v-24.1309c-9.9043 -16.8984 -11.376 -12.4863 -24.4971 -37.4775v-13.1631h-16.8193c-15.7656 -1.50098 -25.7441 -13.2637 -25.7441 -26.7656c0 -6.97168 2.66016 -14.4062 8.55957 -21.1318
c3.47363 -4.2041 3.47363 -4.2041 -0.365234 -17.3672c-3.83887 -13.8936 -8.59277 -37.4775 -10.9688 -54.2959v-10.0547h-25.0459c-13.1631 -4.02246 -23.9492 -14.9912 -24.3145 -15.7227c-0.229492 -0.917969 -57.7842 -18.5059 -57.7842 -20.2471
c0 -1.42578 12.7109 -4.2373 13.543 -5.34668c0.547852 -0.731445 21.2061 -7.86133 46.252 -15.7227c38.3916 -12.0654 45.3379 -14.8076 45.8867 -17.916c4.01465 -16.0439 7.2998 -37.7197 10.4209 -57.5869c1.51367 -9.63477 0 -19.6221 0 -29.4326
c-5.93359 -6.16309 -9.20117 -12.7246 -9.20117 -19.4336c0 -6.25879 2.84375 -12.6465 9.01758 -18.958c7.12988 -7.3125 9.32422 -8.04395 22.8525 -7.49512c7.12988 0.365234 7.49512 0 13.1621 -10.2383c11.7002 -20.8408 15.54 -26.6904 18.6475 -29.6152
c5.85059 -5.30176 14.8086 -17.916 14.8086 -21.0244c0 -2.9248 -14.0771 -32.1748 -16.2715 -34.0029c-0.391602 -0.392578 -32.0674 -65.8145 -33.4551 -65.8145c-0.730469 0 -1.46191 -0.914062 -1.46191 -1.82812c0 -2.01074 7.3125 1.09766 9.14062 3.83984
c0.21875 0.292969 69.3369 34.374 69.4697 34.5518c1.82812 2.74219 20.8408 10.9688 25.7773 10.9688c2.74219 0 7.3125 -2.55957 11.8828 -6.58105c7.12988 -6.76465 12.0654 -10.0547 32.3584 -21.3896c12.375 -6.75 9.44629 -5.8584 9.44629 -15.1514
c0 -14.8496 13.5449 -26.5205 28.2666 -26.5205c6.23926 0 12.6904 2.09668 18.4111 6.9375v4.75293h28.8848c12.7969 -3.1084 32.7236 -12.7969 44.2412 -14.4424s21.207 -3.1084 21.207 -3.29102c0.174805 -0.130859 23.4902 -81.5352 26.5078 -81.5352zM784.458 336.585
c-2.86035 0 -5.66504 4.78906 -5.66504 7.65625c0 5.48438 -7.12891 19.3789 -14.0762 27.6055c-3.29102 4.02148 -6.0332 8.04395 -6.0332 8.95801c0 3.29004 -11.334 12.248 -21.9375 17.3672c-8.77539 4.20508 -12.7969 4.93555 -30.5303 5.48438h-20.6582v-12.7969
c-0.0996094 -6.09766 -0.144531 -12.8271 -0.144531 -19.7627c0 -31.3252 0.924805 -66.875 1.97266 -67.623c0.731445 -0.548828 2.74219 -5.66699 4.3877 -11.7002c2.55957 -8.95801 18.4639 -34.1865 26.1426 -41.8652c2.74219 -2.74219 20.4756 -14.9902 25.96 -18.0986
c6.94629 -3.83887 7.12988 -6.21582 0.914062 -7.49512c-4.36816 -0.623047 -54.8623 -1.26465 -103.305 -1.26465c-46.5527 0 -91.2109 0.592773 -91.2109 2.36133c0 1.46289 2.74219 3.65625 6.0332 5.11914c11.1514 4.3877 32.7236 23.7656 45.8857 41.1338
c18.6133 24.9463 18.0186 53.8623 18.0186 101.454c0 16.2314 -0.436523 29.1797 -1.38184 29.2588c-0.914062 0 -20.293 0.365234 -42.7793 0.365234h-41.1328v10.6035c0.548828 13.7109 -6.76465 49.1768 -10.6035 49.1768c-0.731445 0 -1.46289 1.09766 -1.46289 2.19434
c-0.182617 1.2793 -5.66699 13.1621 -12.4307 26.5078c-14.4424 28.7021 -35.2842 53.5654 -59.5986 71.8467c-4.75293 3.47363 -10.0547 7.67871 -11.8828 9.32324c-11.1836 9.90625 -38.2715 19.2988 -58.5576 19.2988c-24.6113 0 -51.6553 -7.04199 -64.4766 -17.6533
c-11.8076 -10.1963 -26.3281 -21.0889 -36.5635 -34.7344c-4.93555 -6.58203 -9.68945 -12.7979 -10.6035 -14.0771c-7.12988 -8.77539 -12.7969 -38.9395 -12.9795 -68.1904c0 -29.9814 7.49512 -71.2979 12.9795 -71.2979c0.731445 0 2.37695 -3.47363 3.65625 -7.67773
c7.54492 -25.9854 24.5215 -44.8613 35.4668 -63.6201c8.77441 -15.5391 17.3672 -27.4219 19.5605 -27.4219c0.914062 0 1.64551 -1.09766 1.64551 -2.37695s3.47363 -5.11914 7.86133 -8.22656c11.0967 -8.68457 38.5254 -37.4414 50.2744 -46.2529
c16.1367 -11.9707 25.1523 -22.4404 46.4346 -32.541c16.5986 -8.07324 8.41406 -7.72852 26.1426 -14.2588c18.9365 -6.79785 36.7422 -13.7451 56.6729 -20.6582c21.5635 -7.76367 11.7549 -7.02734 32.9072 -12.7979c13.0166 -3.84473 23.8311 -10.9688 35.2832 -10.9688
c4.59082 -0.305664 30.9854 -10.9688 34.7354 -10.9688c1.09668 0 2.19336 -1.64551 2.19336 -3.65625c0 -2.68652 -4.00391 -3.58398 -9.04883 -3.58398c-8.59082 0 -20.2021 2.60254 -20.2021 3.40137c0 0.914062 -6.39844 2.01074 -14.0762 2.74219
c-19.0127 1.82812 -41.8652 6.76367 -69.1045 15.1738c-41.1963 12.5361 -44.0166 20 -85.7402 33.6377c-5.58301 1.52246 -22.168 12.6143 -26.6914 12.6143c-0.730469 0 -1.82812 0.731445 -2.19336 1.64551c-0.900391 2.99902 -31.9482 18.1182 -39.3057 26.1426
c-4.57031 5.84961 -21.3887 19.7441 -23.7656 19.7441c-3.30469 0 -44.4238 44.5205 -44.4238 46.4346c0 2.37695 -13.5283 19.9268 -19.5615 25.5947c-5.11914 4.75293 -6.58105 7.3125 -22.3037 38.9395c-5.48438 10.7861 -10.9688 20.4756 -12.248 21.5723
c-3.47363 2.55957 -14.8086 44.4238 -18.0996 66.3623c-1.8252 12.2168 -2.70703 26.2939 -2.70703 40.3984c0 22.6211 2.26758 45.3135 6.54688 60.5156c6.94629 24.8623 12.6143 41.3154 14.4424 42.9609c2.74219 2.37695 19.1953 29.4336 19.1953 31.627
c0 1.64551 7.67871 9.1416 26.5078 25.7773c17.6562 15.6182 45.2422 25.4043 70.9043 25.4043c22.9023 0 70.9268 -14.5732 74.0684 -22.1133c0.366211 -0.731445 1.64551 -1.28027 2.74219 -1.28027c5.82422 0 25.2881 -17.001 30.165 -20.6582
c4.20508 -3.10742 7.67773 -6.58105 7.67773 -7.67773s1.82812 -3.65625 4.20508 -5.66797c5.98926 -5.48828 15.9258 -18.8506 21.9375 -24.8623c2.74219 -2.9248 4.93652 -5.85059 4.93652 -6.21582s2.01074 -4.02148 4.3877 -7.86133
c2.92285 -4.72363 20.918 -39.1104 25.0459 -42.4131c1.64453 -0.914062 14.4424 -29.9814 18.0986 -40.9502c2.01074 -5.85059 2.74219 -6.39844 9.68848 -6.39844c20.1104 -0.183594 50.6406 -0.183594 59.415 -0.183594v147.715
c0 105.984 4.28027 139.867 4.28027 156.654c0 20.8906 -15.8311 39.8516 -28.96 46.2715c-9.37598 4.16504 -14.1318 11.252 -25.0459 15.5391c-40.2588 15.1816 4.18457 11.917 69.2168 11.917c68.6934 0 132.614 -0.0947266 132.614 -3.70898
c0 -1.04297 -2.69727 -2.40332 -6.7666 -4.18652c-12.7969 -5.66699 -18.8301 -8.77441 -18.8301 -10.0547c0 -0.731445 -4.75293 -4.93555 -10.6035 -9.14062c-16.7744 -12.582 -22.8975 -23.6738 -32.3584 -41.8643
c-1.74121 -3.34863 -6.96094 -23.7666 -8.40918 -23.7666c-0.914062 0 -1.64551 -61.4258 -1.64551 -143.692v-143.693h19.9268c29.5 1.53613 24.0361 5.72461 41.3164 14.625c11.335 5.66797 26.5078 17.5508 26.5078 20.6582c0 2.63184 9.1416 13.5889 9.1416 16.6367
c0 3.10742 4.75293 5.66699 7.49512 4.02148c0.914062 -0.547852 1.2793 -4.3877 0.731445 -8.5918c-1.56836 -12.0146 0.25 -183.891 -6.21875 -183.891z" />
</svg>
