<?xml version="1.0" standalone="no"?>
<!DOCTYPE svg PUBLIC "-//W3C//DTD SVG 1.1//EN" "http://www.w3.org/Graphics/SVG/1.1/DTD/svg11.dtd" >
<svg xmlns="http://www.w3.org/2000/svg" xmlns:xlink="http://www.w3.org/1999/xlink" version="1.1" viewBox="-10 0 1010 1000">
   <path fill="currentColor"
d="M288.6 186.5c3.79395 0 20.0537 38.5 22.0508 38.5c1.0498 0 9.09961 -4.19922 17.8496 -9.44922c12.25 -7.70117 15.75 -11.9014 15.75 -19.251c0 -13.4082 10.9111 -22.5381 24.0352 -22.5381c3.66309 0 7.49707 0.710938 11.3154 2.23828
c5.59961 2.44922 10.1494 5.59961 10.1494 7c0 1.75 6.65039 0.699219 15.0508 -1.75c8.04883 -2.44922 25.8984 -6.2998 39.8994 -8.75h25.2002c9.57812 -32.0713 19.5527 -63.7471 30.0996 -94.8506l15.0508 45.501c14.6992 44.0996 15.3984 45.5 26.25 47.5996
c6.2998 1.0498 22.749 4.5498 36.75 7.69922c11.7246 2.625 18.1113 3.9375 22.3115 3.9375s6.21289 -1.3125 9.18848 -3.9375c4.01172 -3.62012 9.08984 -5.21582 14.333 -5.21582c13.5107 0 28.1143 10.5977 28.3662 24.4668c0.350586 6.2998 7 12.6006 28.7002 26.5996
l28.7002 18.9004h16.7998c15.4004 -7.35059 18.8994 -19.25 35.3506 -49.001c11.8994 -21.6992 21.3496 -34.6494 27.6494 -37.7998c5.25 -2.79883 14.3506 -13.2988 20.2998 -23.4492c5.60059 -9.7998 17.8496 -28.001 26.9502 -39.9004
c11.1846 -14.6094 18.9463 -21.4766 24.6426 -21.4766c3.03711 0 5.48828 1.95312 7.55762 5.72656c0.458984 0.917969 0.708984 1.9834 0.708984 3.29004c0 5.66992 -4.70898 15.8887 -17.5088 38.3604c-13.7617 24.3213 -19.0361 36.0605 -19.0361 43.5127
c0 10.0088 -0.402344 15.5947 -10.3643 30.3369c-6.65039 10.1504 -12.9502 24.5 -14.3506 31.5c-1.0498 7.00098 -11.2002 28.001 -22.75 46.2002l-21 32.8994v12.6006c4.2002 6.65039 16.7998 15.0508 18.5508 18.2002c2.09961 3.5 8.0498 6.2998 13.2998 6.2998
c5.59961 0 12.9502 3.15039 16.7998 7c4.64844 4.64844 7.02441 12.457 7.02441 19.9639c0 6.62402 -1.85059 13.0127 -5.62402 16.7861c-2.96094 2.96094 -4.30762 6.74707 -4.30762 10.6357c0 8.52246 6.46387 17.541 16.5576 19.4639
c6.2998 1.40039 12.9492 3.85059 15.0498 5.95117c5.9502 5.94922 -0.349609 17.499 -10.8496 19.9492c-8.40039 1.75 -9.4502 3.5 -8.05078 12.25c1.39941 9.80078 3.5 10.8506 51.7998 26.9502c27.6504 9.10059 50.4004 17.5 50.4004 18.5498
c0 1.05078 -22.75 9.4502 -50.75 18.5498l-50.4004 16.7998v12.9512c-1.40234 9.35059 -11.7998 33.8818 -11.7998 50.2109c0 4.44434 0.769531 8.28027 2.7002 11.0381c2.7998 4.2002 5.25 10.8496 5.25 15.0498c0 10.8506 -12.9502 25.9004 -22.75 25.9004
c-6.65039 0 -11.9004 5.59961 -24.8496 25.2002l-16.0996 25.2002l24.8486 50.0498c13.6504 27.6494 24.0811 52.2891 24.0811 53.3389l-102.48 -51.2383l-24.5 17.1494c-16.4492 11.5498 -25.8994 20.6504 -29.0498 28.6992
c-4.55859 11.6494 -14.2471 18.5342 -24.293 18.5342c-3.83887 0 -7.73047 -1.00488 -11.4072 -3.13379c-3.70215 -2.16016 -6.52051 -3.2998 -11.2119 -3.2998c-5.95312 0 -14.9219 1.83496 -32.5381 5.75h-34.6504l-32.0195 110.066
c-0.700195 0.700195 -8.58008 -12.0664 -13.8301 -27.8164c-6.3418 -19.2783 -8.63867 -25.3203 -11.5537 -25.3203c-1.10742 0 -2.30469 0.87207 -3.8457 2.2207c-3.50098 3.15039 -8.75098 5.59961 -11.9014 5.59961c-10.0449 0 0.610352 -17.5 -5.25 -17.5
c-1.74902 0 -4.19922 3.14941 -5.25 7.34961c-1.39941 5.60059 -4.19922 7 -11.8994 5.9502c-8.74902 -1.0498 -9.7998 -2.44922 -10.8496 -15.75c-0.139648 -2.125 -0.208984 -4.12793 -0.208984 -6.01074c0 -14.8105 4.33496 -22.1328 13.3389 -22.1328
c1.35059 0 2.80664 0.165039 4.36914 0.494141c8.40039 1.74902 10.1504 1.0498 9.10059 -4.2002c-0.700195 -4.2002 -9.4502 -8.0498 -32.5498 -13.6494c-15.3701 -3.74512 -23.6396 -5.49219 -28.8066 -5.49219c-4.01074 0 -6.15234 1.05273 -8.29297 3.04102
c-3.49121 3.15918 -9.8252 4.73828 -16.376 4.73828c-7.24121 0 -14.748 -1.92969 -18.9746 -5.78809c-3.49902 -3.15039 -6.2998 -9.7998 -6.2998 -15.0498c0 -7.69922 -4.2002 -12.25 -25.2002 -25.9004l-25.5498 -16.7998l-98.8398 49.4199
c0 -1.40039 10.2891 -25.6201 23.9395 -51.8701l25.2002 -47.5996l-18.9004 -27.2998c-13.999 -20.3008 -20.2998 -26.9502 -26.5996 -26.9502c-8.74902 0 -22.0498 -11.2002 -22.0498 -18.5508c0 -2.44922 -4.2002 -6.99902 -9.4502 -10.1484v-12.9512
c8.05078 -4.2002 19.9502 -8.40039 19.9502 -9.4502c0 -0.648438 -0.901367 -0.959961 -2.6123 -0.959961c-7.52344 0 -30.7061 6.03027 -61.7871 16.0107c-21.6328 7.00488 -31.1377 10.0068 -36.2256 10.0068c-3.55566 0 -4.95312 -1.46582 -6.82422 -4.05762
c-2.45117 -3.49902 -4.55078 -6.99902 -4.55078 -8.39941c0 -1.05078 11.9004 -6.30078 26.25 -11.9004c22.4004 -8.74902 26.25 -11.2002 26.25 -18.1992c0 -4.55078 1.40039 -8.40039 3.14941 -8.40039c1.75098 0 4.2002 -3.84961 5.25 -8.75
c1.75098 -6.30078 7.35059 -10.8496 19.9502 -16.0996c9.4502 -4.2002 16.7998 -9.4502 16.1006 -11.5508c-0.446289 -2.67188 -96.9502 -35.5322 -96.9502 -37.0996c0 -1.0498 21.7002 -9.09961 47.9502 -17.8496l48.2998 -15.75v-24.501
c2.69141 -17.042 14.0156 -29.8018 14.0156 -42.5566c0 -4.42188 -1.36133 -8.84277 -4.91504 -13.4424c-4.36719 -5.49902 -6.26855 -11.5117 -6.26855 -17.2705c0 -13.6357 10.6562 -25.8516 24.4678 -26.4805c10.1504 0 12.9502 -3.14941 29.0508 -27.6494
l17.499 -27.2998l-47.5996 -95.2002l21.3496 10.5c11.5498 5.9502 22.0498 10.1504 23.0996 9.44922c0.701172 -1.0498 -1.0498 -10.8496 -3.84863 -22.0498c-3.85059 -14.7002 -4.2002 -21.6992 -1.40137 -24.8486c2.80078 -3.50098 1.75098 -10.8516 -3.84863 -28.3506
c-4.2002 -12.9502 -8.05078 -30.4502 -8.40039 -39.2002c-0.700195 -13.6504 0.349609 -15.75 6.2998 -15.75c12.5029 0 29.0293 54.8711 31.8496 65.4502c1.05078 5.59961 4.2002 9.7998 6.65039 9.7998c5.30957 0 15.1758 31.5 19.5996 31.5zM862.95 80.1006
c-3.5 -3.85059 -6.2998 -2.10059 -11.8994 7.34961c-3.15039 5.59961 -8.75098 12.9502 -12.6006 17.1494c-7.30176 7.30273 -34.0498 53.2119 -44.0996 57.4004c-4.55078 1.40039 -17.8506 21 -34.6504 49.7002c-14.7002 25.9004 -33.25 56.7002 -40.9502 68.5996
l-13.6494 21.3506v-4.90039c-5.59961 -2.80078 -23.1006 -8.75 -26.9502 -12.5996c-6.65039 -7.7002 -6.65039 -7.7002 1.39941 -3.5c4.55078 2.44922 11.5498 3.84961 15.75 3.15039c1.20898 -0.142578 1.85449 -0.530273 1.85449 -1.22852
c0 -2.7373 -9.93164 -10.2461 -34.7539 -26.4229c-22.0508 -14.7002 -45.8506 -27.999 -52.5 -29.0488c-11.2012 -2.45117 -11.5508 -2.10059 -5.25 3.14941c3.84961 2.7998 8.39941 5.25 10.5 5.25c1.75 0 2.44922 1.05078 1.39941 2.10059
s-11.1992 -2.10059 -22.749 -7.00098c-21.8525 -8.99707 -79.1113 -20.9463 -98.9033 -20.9463c-1.76367 0 -3.23047 0.0957031 -4.34766 0.295898c-4.89941 1.05078 -10.1494 0 -11.1992 -2.09961c-1.53711 -2.40137 -6.3418 -3.43164 -12.6934 -3.43164
c-16.7949 0 -44.4043 7.20508 -51.0068 15.332c-2.10059 2.7998 -7.7002 6.65039 -12.9502 8.40039c-10.3857 3.95508 -6.51172 1.44531 -6.51172 -3.80664c0 -0.841797 -0.427734 -1.28027 -1.35938 -1.28027c-3.61426 0 -14.8066 6.60254 -37.9795 21.8867
l-28.3496 18.5498v-12.6006c-3.7832 -7.25 -7.77832 -10.667 -10.3564 -10.667c-1.70117 0 -2.78516 1.48633 -2.78516 4.33984c0 2.42773 0.78418 5.84473 2.6416 10.1777c2.58008 6.77148 4.94629 15.126 3.63965 15.126c-2.64258 0 -15.126 -27.832 -24.6396 -54.6768
c-4.90039 -12.9492 -7.34961 -16.7998 -8.75 -12.5996c-0.251953 0.605469 -0.577148 0.884766 -0.962891 0.884766c-4.50195 0 -17.3164 -37.9844 -20.3877 -37.9844c-4.58789 0 2.31543 10.5 -1.0498 10.5c-2.57812 0 -13.7129 -38.499 -16.0996 -43.75
c-2.61621 -5.75684 -13.7744 -43.75 -17.8496 -43.75c-1.24219 0 -1.78418 1.44531 -1.78418 4.00195c0 17.6895 25.9941 88.5615 25.9941 101.305c0 9.16797 -12.4346 -32.3428 -12.4346 -19.3223c0 11.0283 16.0928 70.3193 27.4238 102.315
c4.25977 12.0371 6.36328 20.6455 6.36328 26.9639c0 5.62402 -1.66699 9.43457 -4.96289 12.2363c-6.2998 5.25 -6.65039 1.0498 -1.75 -12.9502v-9.7998v10.5c-13.1094 15.6055 -28.7227 38.1699 -28.7227 46.3467c0 0.993164 0.230469 1.77344 0.722656 2.30371
c2.4502 3.49902 0.700195 10.5 -7 26.9502c-5.60059 12.249 -11.9004 30.4502 -13.6494 39.8994c-1.75098 9.7998 -4.90039 22.0508 -7.00098 27.3008c-4.90039 12.249 -4.90039 13.999 -0.349609 11.1992c0.932617 -0.543945 1.6582 -0.966797 2.17578 -0.966797
c0.649414 0 0.974609 0.664062 0.974609 2.58594c0 3.45605 -1.05078 10.9805 -3.15039 26.0312c-2.4502 16.7998 -2.4502 25.2002 0.349609 28.6992c2.10059 2.4502 3.15039 8.05078 2.4502 12.6006c-0.699219 6.64941 -5.25 9.10059 -27.999 15.75
c-14.7002 4.2002 -31.1504 10.1504 -36.75 13.2998v5.59961v-1.75c5.9502 -0.699219 15.0488 -2.44922 19.9492 -3.84961v-2.4502v9.10059c-5.25 4.90039 -17.1504 10.1504 -24.8496 11.2002c-14.7002 2.44922 -17.501 10.8496 -2.80078 9.09863
c1.97266 -0.289062 3.4668 -0.423828 4.53516 -0.423828c1.46289 0 2.12695 0.253906 2.12695 0.71582c0 4.53125 -63.7744 29.0762 -65.1113 30.8584c-1.0498 1.75098 0.349609 2.4502 2.79883 1.75098c2.45117 -1.0498 17.1514 -5.60059 32.5508 -10.5
c25.1992 -8.05078 81.2002 -23.8008 102.899 -29.0508c12.9512 -3.14941 5.9502 4.90039 -8.39941 9.4502c-15.0498 4.90039 -12.6006 11.5498 3.14941 8.75h11.5498l13.3008 29.3994c9.93262 23.7803 13.3945 30.2158 17.9541 30.2158
c0.742188 0 1.5127 -0.170898 2.3457 -0.464844c4.2002 -1.40039 5.9502 -0.700195 4.55078 1.39941c-0.37207 0.609375 -0.551758 1.39844 -0.551758 2.34668c0 8.85645 15.6338 31.5684 35.5508 50.8535c12.251 11.5508 24.1504 21 26.25 21
c2.4502 0 10.8496 5.25 18.9004 11.9004c15.917 13.2627 56.0254 36.2666 62.5781 36.2666c0.364258 0 0.624023 -0.0703125 0.771484 -0.217773c1.0498 -1.0498 -1.0498 -2.79883 -4.89941 -3.84863c-10.8789 -3.95801 -16.0664 -13.5283 7.35059 -4.90039
c27.6494 10.8496 27.6494 10.8496 32.1992 26.5996c5.66211 17.793 14.4307 17.4766 14.4307 35.917c0 2.2959 -0.135742 4.88379 -0.430664 7.83301c-2.09961 17.501 -2.09961 17.8506 3.15039 9.4502s5.59961 -8.40039 3.15039 6.64941v15.75v-6.99902
c3.84863 -3.50098 15.3984 -15.75 19.249 -27.2998c3.85059 -11.2002 7.7002 -18.2012 8.40039 -15.75c0.283203 0.791992 0.703125 1.17285 1.24219 1.17285c2.79785 0 8.80859 -10.2344 15.5576 -26.373c3.15039 -8.05078 8.05078 -10.1504 35.7002 -16.7998
c34.2998 -8.75098 85.3994 -26.9502 93.7998 -33.9512c3.1709 -2.77344 24.2012 -8.43945 23.4502 -12.9492c-0.350586 -1.75098 4.5498 -7.00098 10.8496 -11.5498c32.8994 -22.751 63 -57.75 80.8506 -94.1504c6.64941 -12.9502 7 -23.1006 0.349609 -12.25
c-10.0049 17.252 -25.4531 40.9648 -26.5605 40.9648c-1.72363 0 32.2871 -73.7988 33.5605 -77.3652c3.5 -9.79883 9.7998 -26.25 13.6504 -36.4004c4.19922 -9.79883 5.9502 -18.1992 4.19922 -18.1992c-2.64844 0 -8.2998 18 -9.09961 16.7998
c-0.699219 -0.700195 1.0498 -12.25 3.84961 -25.5498c2.80078 -13.6494 4.5498 -33.5996 4.2002 -44.7998v-20.6504h12.9502c7.7002 -2.4502 20.6504 -10.8496 29.0498 -13.2998c10.376 -2.73047 15.1064 -5.62109 15.1064 -7.96484
c0 -2.8252 -6.87305 -4.85645 -19.0186 -4.85645c-3.61133 0 -7.6875 0.179688 -12.1875 0.571289c-12.5996 1.0498 -16.1006 0.700195 -9.4502 -1.0498c14 -3.5 5.59961 -9.10059 -12.9502 -8.40039c-10.1494 0.349609 -14 -1.0498 -15.75 -5.59961
c-0.18457 -0.554688 -11.4873 -32.5488 -16.2646 -32.5488c-0.675781 0 -1.2207 0.639648 -1.58594 2.09863c-1.0498 4.5498 -3.84863 -2.09961 -7.69922 -17.5c-2.86133 -12.126 -4.34277 -20.3799 -4.34277 -25.2168c0 -3.60059 0.821289 -5.30762 2.50684 -5.30762
c1.86621 0 4.79199 2.09277 8.83594 6.02441c12.25 11.5508 16.4492 6.30078 7.35059 -9.44922v-11.5508l17.499 -39.8994c12.999 -20.998 22.8252 -40.0928 22.8252 -44.2852c0 -3.64551 4.54688 -15.8662 13.5752 -31.666
c10.4346 -17.5381 15.5176 -27.7539 15.5176 -30.915c0 -0.710938 -0.256836 -1.06543 -0.768555 -1.06543c-0.799805 0 -2.21973 0.864258 -4.24902 2.58105c-0.510742 0.429688 -0.893555 0.636719 -1.15527 0.636719c-3.15234 0 11.1143 -29.9502 29.8545 -62.5869
c8.05078 -13.6504 13.6504 -25.8994 12.251 -26.9492zM790.15 526c0.817383 -1.72461 13.085 -31.7998 13.085 -47.1455c0 -5.30859 -1.46777 -8.85449 -5.38574 -8.85449c-4.54883 0 -5.59961 3.85059 -5.59961 19.9502c0 11.2002 -1.0498 26.5996 -2.09961 34.2998v14
v-12.25zM782.1 559.95c2.10059 -3.50098 3.15039 -9.80078 2.4502 -14.001c-2.15918 -14.3926 -6.2998 9.44434 -6.2998 12.6006c0.350586 7 0.700195 7 3.84961 1.40039zM175.9 617c2.5498 0 9.375 -7 4.2002 -7c-2.55078 0 -9.37695 7 -4.2002 7zM291.75 703.449
c-5.9502 -8.04883 -14.7002 -19.5986 -19.6006 -25.1992v-10.5v12.25c1.39941 8.05078 0 16.7998 9.10059 25.2002c8.91895 8.58203 14.8438 12.7949 17.0752 12.7949c0.65625 0 0.993164 -0.364258 0.993164 -1.08789c0 -1.93652 -2.40918 -6.44727 -7.56836 -13.458z
M445.75 853.25c0 -14.7002 -2.4502 -18.9004 -8.0498 -13.3008c-1.39941 1.05078 -2.4502 8.40039 -2.4502 15.75c0 9.4502 1.40039 13.3008 5.25 13.3008s5.25 -4.2002 5.25 -15.75zM440.5 262.449c1.96094 0.345703 3.9668 0.493164 6.00879 0.493164
c11.7803 0 24.7549 -4.90527 37.0117 -4.90527c1.4209 0 2.83105 0.0654297 4.22949 0.212891c6.65039 1.0498 21.3496 1.75 32.5508 1.75c18.5488 0 19.9492 0.700195 19.9492 8.40039c0 11.2002 6.30078 15.75 26.25 18.5498c9.4502 1.0498 19.5996 4.89941 22.75 8.0498
c5.60059 5.60059 6.2998 5.60059 9.80078 0c4.89844 -8.0498 1.39941 -12.6006 -15.0508 -19.5996c-7.7002 -3.15039 -12.25 -6.65039 -9.7998 -7.34961c0.138672 -0.0400391 0.314453 -0.0595703 0.525391 -0.0595703c3.5127 0 16.7773 5.41406 30.9746 13.0088
c20.2998 11.2002 33.9492 21.7002 52.8496 42.3496c17.5352 18.8438 22.9365 25.3574 22.9365 30.3721c0 1.69141 -0.615234 3.21289 -1.58594 4.97852c-2.45117 4.5498 -6.2998 9.10059 -8.75098 10.8496c-2.44922 1.40039 -8.74902 10.5 -14.3486 20.3008v17.8496
h-12.6006c-1.40039 -5.59961 -2.7998 -28 -2.7998 -38.1504c0.152344 -13.4443 -0.894531 -19.6865 -2.35742 -19.6865c-1.88672 0 -4.46484 10.4014 -6.04297 29.1367c-1.39941 17.5 -3.5 31.5 -4.90039 31.5c-1.1748 0 -13.6816 -19.25 -16.291 -19.25
c-1.0791 0 -0.46582 3.29199 3.3418 12.5996c9.09961 22.751 10.1504 27.6504 4.19922 25.5498c-3.49902 -1.39941 -5.59961 -0.349609 -5.59961 3.15039c0 3.85059 -12.5996 8.0498 -47.9502 16.4502c-49.1035 11.1992 -56.7422 12.7383 -56.7422 16.2168
c0 0.892578 0.890625 2.17578 0.890625 3.38477c0 4.81543 -19.9316 10.9805 -44.9482 13.6484h-14h11.1992c6.01367 -2.12109 13.2275 -8.63477 13.2275 -12.1689c0 -2.27051 -2.88965 -3.40625 -8.23926 -3.40625c-6.2998 0 -16.0117 1.5752 -28.4375 4.72461
c-10.5 2.80078 -19.9502 4.55078 -20.6504 3.85059c-0.699219 -0.700195 2.80078 -6.2998 8.05078 -12.25c6.25977 -7.45215 9.0918 -13.127 9.0918 -15.917c0 -1.24219 -0.561523 -1.91309 -1.63281 -1.91309c-2.17285 0 -6.4375 2.75488 -12.3594 9.08008
c-8.75 9.4502 -17.8506 12.25 -10.5 3.5c6.66309 -7.99512 -1.80566 -16.2832 -9.09961 -5.94922c-5.60059 8.39941 -12.5996 10.5 -10.5 3.14941c1.0498 -2.09961 2.44922 -11.5498 3.5 -21c2.09961 -17.5 -2.4502 -22.75 -6.30078 -7
c-1.39941 5.59961 -4.19922 16.0996 -6.2998 23.7998v14v-14c-5.9502 -16.7998 -13.999 -16.7998 -9.7998 -14c4.89941 3.14941 4.5498 -2.10059 -2.09961 -19.5996c-4.19727 -11.8271 -6.21094 -18.3516 -6.21094 -22.5205c0 -3.48047 1.40332 -5.31934 4.11133 -7.23047
c4.19922 -3.14941 4.19922 -6.2998 -1.05078 -24.499c-9.80078 -32.9004 -12.9502 -39.9004 -17.8496 -39.9004c-2.05176 0 -3.08789 1.97656 -3.08789 5.78516c0 5.9375 2.51953 16.3271 7.6377 30.6152c2.87891 8.30371 4.14648 12.9297 4.14648 14.3887
c0 0.341797 -0.0703125 0.509766 -0.205078 0.509766c-1.11035 0 -6.62598 -11.3145 -14.0918 -30.2988c-6.0957 -15.2402 -10.0674 -28.3574 -10.0674 -32.1836c0 -3.10645 4.40137 -1.06152 5.51758 0.333984c0.234375 0.389648 0.666992 0.574219 1.28125 0.574219
c10.1729 0 70.0156 -50.4502 97.5527 -50.4502c0.926758 0 1.81641 0.0566406 2.66602 0.174805zM545.85 266.649c-5.9502 -5.59961 6.65039 -3.49902 14 2.45117c6.2998 4.89941 6.2998 5.25 -2.09961 2.79883c-4.89941 -1.0498 -10.1494 -3.49902 -11.9004 -5.25z
M284.027 384.996c0 -6.84961 6.83984 -24.6279 13.8691 -24.6279c0.987305 0 1.97754 0.350586 2.9541 1.13184c4.5498 4.2002 16.0996 45.1504 15.75 57.3994c0 3.50098 3.84863 16.1006 8.74902 27.6514c4.46289 10.4697 6.65234 18.582 6.65234 23.6787
c0 3.96484 -1.32617 6.10352 -3.93945 6.10352c-0.875977 0 -1.89746 -0.240234 -3.0625 -0.733398c-7 -2.44922 -9.80078 3.50098 -5.25 11.5498c2.7998 5.60059 2.10059 7.35059 -4.55078 9.4502c-11.833 2.95801 -15.7822 10.5508 -28.6992 14.3506
c-5.59961 2.09961 -10.1504 5.59961 -9.4502 7.69922c0.349609 2.10059 -0.700195 3.85059 -2.7998 3.85059c-3.34277 0 -4.94824 -12.0146 -4.94824 -26.959c0 -17.9199 2.30859 -40.0537 6.69824 -50.7412c3.34375 -8.65527 5.14062 -17.3105 5.14062 -23.2314
c0 -4.61426 -1.09082 -7.56836 -3.39062 -7.56836c-1.75 0 -3.5 3.15039 -3.5 7s-1.40039 7 -3.5 7c-5.25 0 -4.5498 -2.44922 5.25 -18.9004c5.25781 -9.01172 8.02734 -18.7109 8.02734 -24.1035zM707.2 396.5v-12.25v10.5c5.25 11.9004 12.249 16.7998 1.74902 15.0508
c-6.99902 -1.05078 -6.99902 -1.75098 -1.74902 -13.3008zM690.001 473.312c0 -7.04395 24.9775 -12.4805 30.8496 -13.4619c2.44922 0 4.89941 9.10059 6.2998 23.4512c0.549805 5.57715 0.887695 10.291 0.887695 14.6787c0 15.1611 -4.03711 26.4336 -17.3379 56.0205
c-8.09277 18.3936 -11.7178 28.1953 -11.7178 32.4141c0 1.80176 0.661133 2.58594 1.91797 2.58594c2.92285 0 12.5674 -16.4648 13.9639 -16.4648c0.664062 0 -0.537109 3.72461 -5.21387 14.7148c-2.80078 7.35059 -17.1504 25.5498 -31.5 40.5996
c-17.6914 18.6465 -25.4209 27.4961 -25.4209 30.0068c0 0.526367 0.34082 0.774414 1.00195 0.774414c0.799805 0 2.06836 -0.362305 3.76855 -1.03027c7 -2.45117 6.65039 2.09961 -1.40039 12.5996c-6.2998 7.7002 -36.75 24.5 -85.3994 46.5498
c-11.2002 4.90039 -19.251 10.5 -18.2002 12.25c1.40039 2.10059 1.40039 3.5 0.350586 3.5c-0.700195 0 -4.2002 1.0498 -7.35059 2.09961c-0.998047 0.383789 -1.84277 0.571289 -2.53906 0.571289c-1.68164 0 -2.49219 -1.0957 -2.49219 -3.1582
c0 -8.74414 14.5693 -34.8633 38.9814 -68.4629c14.3506 -19.5996 16.0996 -23.7998 8.39941 -21c-3.84961 1.75 -4.54883 0 -2.09961 -8.0498c3.36133 -11.8955 6.18555 -14.7666 9.29492 -14.7666c2.90234 0 6.05371 2.5 10.123 2.5
c2.73047 0 5.87402 -1.125 9.63281 -4.88379c4.19922 -3.84961 7.69922 -11.1992 7.69922 -15.75c0.349609 -4.5498 5.9502 -16.7998 12.9492 -26.9492c14.3506 -21.7002 23.8008 -39.5508 23.8008 -45.1504c0 -2.7168 -0.706055 -3.88867 -1.93164 -3.88867
c-7.6748 0 -35.7295 45.8887 -38.6689 45.8887c-0.206055 0 -0.304688 -0.141602 -0.304688 -0.40918c0 -4.26562 24.9092 -40.583 32.1553 -46.8408c4.89941 -4.19922 8.75 -11.9004 9.4502 -18.8994c1.66992 -15.876 9.13867 -16.0029 21.3496 -21.7002
c6.23047 -2.72656 8.70117 -6.55566 8.70117 -10.3389zM520.65 466.85c-8.52832 0 1.96289 4.33691 4.54883 1.75098c1.40137 -1.0498 -0.699219 -2.10059 -4.54883 -1.75098zM475.5 491c14.3506 -7 19.25 -8.40039 19.25 -5.25c0 2.09961 -11.1992 6.64941 -24.5 10.1504
c-4.90039 1.0498 -2.44922 -1.0498 5.25 -4.90039zM454.15 502.899c-6.64551 2.49219 -1.27539 -4.89941 2.44922 -4.89941c4.90039 0 3.85059 2.4502 -2.44922 4.89941zM478.301 501.85c15.75 -4.5498 16.4492 -4.5498 13.999 1.75
c-1.75 4.90039 -0.700195 5.59961 7.00098 3.5c12.249 -2.79883 12.249 0.350586 0 5.25c-5.2998 2.08203 -7.75879 3.5498 -7.75879 4.41113c0 0.612305 1.24609 0.916992 3.59961 0.916992c6.57324 0 21.7871 -2.37695 42.6582 -7.07715
c26.7363 -6.07715 44.5264 -9.11523 52.9023 -9.11523c3.68555 0 5.54785 0.587891 5.54785 1.76465c0 1.05078 -7.69922 13.2998 -16.7998 27.3008c-22.0947 32.9697 -55.7402 95.6484 -55.7402 104.368c0 3.26562 -2.52637 11.5361 -8.30957 22.3311
c-5.25 9.44922 -14.7002 30.0996 -20.6504 45.5c-6.30078 15.3994 -12.6006 29.4004 -14 31.1494c-0.550781 0.550781 -1.1416 0.827148 -1.77441 0.827148c-5.00195 0 -12.6699 -17.251 -24.4756 -52.9766c-8.10156 -25.1143 -10.7852 -36.0605 -10.7852 -47.4678
c0 -3.37793 0.235352 -6.79492 0.634766 -10.6328c0.393555 -3.37305 0.580078 -7.07031 0.580078 -10.9688c0 -20.373 -5.0791 -46.2168 -12.1299 -59.7305c-3.1543 -6.30859 -5.03027 -8.84863 -6.03223 -8.84863c-0.682617 0 -0.959961 1.17773 -0.959961 3.14551
c0 8.55371 5.24219 32.0439 5.24219 38.6484c0 6.63574 -22.2168 -22.0215 -22.2168 -50.6797c0 -10.1934 60.166 -15.9521 60.166 -24.5732c0 -4.09863 0.494141 -6.27734 9.30176 -8.79297zM382.75 697.5c-4.90918 0 -50.6455 -42 -56 -42
c-6.21582 0 -39.2324 -66.8477 -42.6992 -70.7002c-8.05078 -8.0498 -8.05078 -12.9502 0 -10.8496c0.213867 0.0429688 0.481445 0.0634766 0.797852 0.0634766c8.84473 0 56.1289 -16.1631 60.4512 -16.1631c1.39941 -0.350586 -1.0498 6.2998 -5.25 14.3486
c-4.91895 9.83789 -8.27051 25.0068 -8.27051 33.9648c0 4.42578 0.818359 7.33594 2.6709 7.33594c3.22949 0 24.9277 -45.5 27.2998 -45.5c3.5 0 16.8008 30.8008 24.5 57.75c4.2002 13.2998 12.9492 39.2002 19.9502 57.0508
c6.00684 16.125 10.3008 30.5361 10.3008 33.9443c0 4.08691 -32.3145 -19.2451 -33.751 -19.2451zM428.25 891.75c5.59961 -6.65039 8.75 -6.65039 15.4004 0.349609c7.69922 7.35059 1.0498 19.6006 -9.4502 18.2002c-8.75098 -1.0498 -11.9004 -11.1992 -5.9502 -18.5498
zM438.75 900.5c0 -2.09961 -1.39941 -3.5 -3.5 -3.5c-1.75 0 -3.5 1.40039 -3.5 3.5c0 1.75 1.75 3.5 3.5 3.5c2.10059 0 3.5 -1.75 3.5 -3.5z" />
</svg>
