<?xml version="1.0" standalone="no"?>
<!DOCTYPE svg PUBLIC "-//W3C//DTD SVG 1.1//EN" "http://www.w3.org/Graphics/SVG/1.1/DTD/svg11.dtd" >
<svg xmlns="http://www.w3.org/2000/svg" xmlns:xlink="http://www.w3.org/1999/xlink" version="1.1" viewBox="-10 0 1010 1000">
   <path fill="currentColor"
d="M787.917 265.389c4.91992 0 11.5625 -27.4795 16.4873 -27.4795c1.96289 0 5.88867 -5.88867 9.03027 -13.3477c3.13965 -7.45801 7.84961 -14.917 10.9902 -16.4863c3.1416 -1.96387 12.5625 -14.1328 20.8066 -27.0879
c20.5088 -32.2256 52.2734 -79.0322 70.2686 -115.021c12.5625 -25.124 14.917 -27.8711 20.0205 -22.7676c5.10352 4.70996 3.13965 10.2051 -16.0957 42.3965c-11.7764 20.0205 -44.752 82.8291 -72.624 139.752l-57.2217 114.881
c17.2725 29.4414 48.9795 64.9121 53.2969 78.2588c4.31836 13.7402 4.31836 13.7402 29.0488 14.1328c13.3477 0 27.4795 1.96289 31.0137 3.9248c5.8877 3.14062 5.8877 3.92676 0 11.7773c-7.45898 9.0293 -30.2275 21.1982 -39.6494 21.1982
c-14.3682 0 6.21094 120.244 -23.9463 178.616c-4.31836 8.24316 -7.85156 18.0576 -7.85156 21.5908c0 7.31738 -15.7021 21.2256 -15.7021 27.0869c0 1.96191 -5.88867 10.5986 -12.5615 19.2344c-7.06738 8.63672 -20.0205 25.9102 -28.6572 38.0791
c-16.4873 23.5537 -45.1455 45.1445 -83.6152 62.8105c-33.085 16.0078 -62.458 34.5566 -104.814 38.8623c-37.2939 3.92676 -39.2568 5.10352 -63.2021 40.4346c-12.5625 18.0576 -24.7314 41.2197 -27.0869 51.0332c-3.92676 15.7031 -5.10352 16.8799 -9.81445 10.9912
c-5.49609 -6.28027 -11.7773 -22.376 -25.9092 -62.8086c-14.5244 -41.6123 -14.917 -42.0049 -37.6855 -47.8936c-39.2559 -10.2061 -81.6533 -34.1533 -120.91 -68.6982c-52.6035 -46.3223 -72.624 -72.624 -95.7842 -124.05
c-3.5332 -8.24316 -5.88867 -9.02832 -18.4512 -7.06543c-10.8486 1.54883 -25.9746 9.86621 -27.8721 0.392578c-2.76855 -13.8525 -22.1357 16.7373 -25.9082 6.67285c-1.96387 -6.67285 -7.85156 -5.88867 -19.2363 3.1416
c-6.67285 5.10254 -16.0938 7.84961 -27.4795 7.84961c-16.0938 0 -16.8799 -0.391602 -12.5615 -8.24316c8.93652 -16.9766 -12.1689 1.90723 -12.1689 -6.67383c0 -8.63574 9.4209 -30.6191 14.917 -34.9375c5.10352 -4.31836 5.10352 -5.10352 -0.392578 -7.06641
c-4.71094 -1.96289 -5.10352 -4.71094 -2.35547 -13.7393c6.67383 -18.8438 16.0957 -23.5537 54.959 -29.4414c20.4131 -2.74805 40.041 -6.28223 43.5742 -7.85156c7.85156 -3.14062 12.9551 -24.7314 9.02832 -36.9014
c-3.9248 -12.9541 1.96289 -36.5078 10.207 -38.4707c5.88867 -1.57129 6.28125 -3.5332 3.14062 -9.42188c-2.35547 -5.10254 -2.35547 -9.81348 0.392578 -14.917c1.96289 -4.31836 3.92578 -15.7031 3.92578 -25.5166c0 -28.0576 5.92871 -28.5518 16.0957 -51.4258
c9.4209 -21.1982 22.376 -38.0781 27.0859 -35.3311c1.57031 1.17773 3.92578 -3.53223 5.49609 -9.81445c2.54785 -14.4365 20.7471 -30.0742 15.7021 -45.9287c-5.42969 -20.3613 -4.54004 -20.8887 -11.3838 -47.5
c-3.53418 -13.7402 -5.49609 -27.0869 -4.71094 -30.2275c1.17676 -2.74805 0.785156 -6.28125 -0.785156 -8.24414s-6.67383 -16.8799 -11.3838 -32.9756c-4.71094 -16.0938 -11.3848 -40.041 -15.3105 -52.9951c-3.5332 -12.9541 -6.28125 -27.4785 -5.88867 -32.1904
c0.785156 -5.10352 -1.56934 -12.9541 -4.71094 -17.665c-3.14062 -5.10352 -4.70996 -11.3838 -2.74805 -14.1318c5.88965 -9.42188 22.7695 16.4873 39.2568 60.0615c19.5361 50.9609 21.7871 47.1738 37.6855 91.4668c5.49609 15.3096 12.5615 33.7607 15.7031 41.6123
v14.1318l26.3018 -15.3105c22.7686 -17.2725 77.7275 -37.6855 92.252 -33.7598c7.06641 1.57031 9.02832 0.392578 9.02832 -5.49609c0 -9.02832 9.81445 -13.7393 18.8438 -8.63672c4.31836 2.35645 10.2061 1.57129 18.0566 -2.35547
c6.6748 -3.53223 16.0957 -5.10352 22.7695 -3.53223c6.28125 1.17676 14.917 0.785156 18.4502 -1.57129c18.0674 -9.03125 58.8848 -1.22754 83.6152 1.96387c20.8066 2.74805 57.3145 12.9541 48.2852 13.7393c-1.96191 0 1.96289 3.14062 9.0293 6.28125
c8.04688 4.21484 12.3604 9.17871 12.5615 14.5244c9.02344 -15.7891 24.5088 6.67383 33.7607 6.67383c3.14062 0 5.49609 1.57031 5.49609 3.92578c0 1.96289 2.74805 3.92578 5.8877 3.92578c2.74805 0 7.06738 2.35547 8.63672 5.49609
c1.57031 2.74805 10.9922 10.2061 20.8066 16.0938c9.81348 5.88965 22.7676 16.0957 28.6562 22.376c12.332 13.9785 9.96387 13.5938 17.665 0.393555c2.35547 -5.10352 4.71094 -11.7773 4.71094 -14.918c0 -3.13965 1.57129 -5.8877 3.5332 -5.8877zM493.888 497.393
c7.65332 0 48.5693 -8.63672 56.5293 -8.63672c3.92578 0 12.1699 -2.35547 17.666 -5.10352c14.4785 -8.27246 51.3818 -10.9775 68.6973 -16.4873c8.24414 -3.14062 18.8438 -5.49609 23.9473 -5.49609c9.4209 0 30.6191 -23.5527 34.9375 -39.2559
c3.61035 -12.6357 28.8232 -46.0713 30.6191 -60.4541c1.17871 -10.5996 -0.391602 -12.1699 -12.9531 -15.7031c-7.45898 -2.35547 -18.8438 -9.81348 -25.5166 -16.4873c-6.28223 -6.67285 -26.3027 -18.8438 -44.752 -27.0869
c-18.4512 -8.24316 -36.1162 -17.2725 -39.2568 -19.6279c-17.8223 -15.5947 -123.552 -14.377 -142.107 -7.06641c-6.67383 2.74805 -15.7021 5.10352 -20.4141 5.10352c-4.70996 0 -16.4873 5.10352 -26.3008 10.9922c-20.0205 12.5615 -43.9668 24.3379 -49.8555 24.3379
c-5.96191 0 -18.4316 19.6279 -25.9092 19.6279c-9.42188 0 -7.85156 9.42285 7.06543 41.2197c7.45898 15.3105 14.918 33.3682 16.4883 39.6484c5.06055 20.2441 7.3125 17.5605 16.4873 42.79c21.1992 56.5283 23.9473 58.0986 76.1572 45.9297
c18.0586 -4.31836 35.3311 -8.24414 38.4707 -8.24414zM305.459 410.244c0 -3.5332 -2.74805 -8.63672 -5.49609 -11.3848c-4.71094 -3.53223 -7.45898 -1.17773 -15.7031 15.3096c-20.8047 40.8271 -33.7598 83.2236 -33.7598 111.096c0 25.5166 0 25.5166 29.0488 17.2725
c10.9922 -3.14062 30.2275 -7.85156 42.79 -10.5986c15.7021 -3.53418 21.1982 -6.28125 18.4502 -9.0293c-1.96289 -1.96289 -3.92578 -7.85156 -3.92578 -12.5615c0 -5.10352 -1.96289 -10.207 -4.31836 -11.3848c-5.3457 -3.56543 1.46777 -11.0898 -2.35449 -14.918
c-3.1416 -3.53223 -24.7314 -67.1279 -24.7314 -73.8008zM771.429 448.322c2.24414 -2.24121 -14.3047 -37.6855 -15.7012 -37.6855c-0.785156 0 -16.0957 28.2637 -21.9844 40.8262c-1.17676 3.14062 34.1533 0.392578 37.6855 -3.14062zM776.141 528.797
c0.78418 -24.7305 0 -27.8721 -6.28125 -27.4785c-12.5625 0.392578 -48.2852 10.2061 -63.5957 17.2725c-12.9531 5.49609 -15.7012 9.0293 -17.6641 21.5908c-1.57129 10.5996 -4.71191 16.0947 -10.207 17.666c-4.31836 1.17676 -7.85156 4.70996 -7.85156 7.45801
c0 5.43262 -13.1143 14.3633 -8.24414 19.2354c2.74805 2.74805 2.74805 6.28125 0 11.3838c-1.96191 3.92676 -2.74805 7.06738 -1.17773 7.06738c0.763672 0 -5.79785 11.0811 -3.53223 13.3467c1.56934 1.57031 -0.786133 3.5332 -5.49609 4.70996
c-9.02832 2.35547 -16.8799 16.4883 -16.8799 30.2275c0 9.0293 -7.85156 22.376 -20.4141 34.9385c-3.9248 3.92578 -7.06543 10.9922 -7.06543 16.0947c0 5.10352 -5.10352 14.1328 -11.3848 20.0215c-6.28027 6.28027 -10.5986 13.3467 -9.42188 16.4873
c1.17871 3.14062 -3.53223 14.917 -10.2061 26.6943c-6.67383 11.7764 -10.5996 22.376 -9.02832 23.5537c7.45801 4.70996 83.6152 -26.6943 101.28 -42.0049c25.5166 -21.9824 53.7812 -52.9951 57.3135 -62.8096c2.35645 -5.88867 5.49609 -10.5996 7.45898 -10.5996
c1.96387 0 3.5332 -1.96191 3.5332 -4.70996c0 -2.35547 5.49609 -15.7021 12.1699 -29.0498c14.917 -31.4053 25.5166 -75.3721 26.6943 -111.096zM639.136 534.686c0 -3.5332 -22.7686 -2.74707 -25.124 1.17773c-1.17676 1.96387 -7.85156 4.31836 -14.917 5.49609
c-10.8457 1.80762 -119.846 29.8203 -130.723 31.7979c-6.43262 0.583008 -23.3975 11.7559 -30.2275 7.85059c-3.14062 -1.96289 -3.5332 0.392578 -1.17773 8.63672c1.57031 6.28027 3.14062 14.5244 3.5332 18.0586c0 3.9248 1.57031 7.06543 3.53223 7.06543
c4.95996 0 16.5322 33.0967 18.0586 37.293c9.64453 21.2295 34.9062 100.104 43.1816 100.104c3.92578 0 20.0205 -21.9834 20.0205 -27.4795c0 -2.35449 5.88867 -12.5615 12.9551 -23.1611c14.1318 -21.1973 20.4121 -32.582 42.7891 -74.1934
c8.63574 -16.0957 18.0576 -31.7979 21.1982 -35.3311c7.85156 -8.63672 36.9004 -54.1729 36.9004 -57.3145zM387.896 667.372c0 -11.2158 -14.8242 -35.7158 -18.0576 -46.7148c-1.96289 -6.28125 -6.28027 -12.1699 -9.42188 -12.1699
c-3.14062 -0.391602 -23.9463 3.92578 -45.9297 9.81348l-40.041 10.9922l13.7402 22.376c7.06543 12.1699 13.3457 23.5547 13.3457 24.7314c0 6.6748 32.1904 40.042 58.4922 60.8477c28.2646 22.7686 61.6318 41.2188 65.9512 37.293
c0.78418 -1.17773 -1.17871 -7.85059 -4.71191 -14.5244c-3.9248 -7.85156 -5.8877 -17.2725 -4.31738 -23.9463c1.17773 -7.06641 0 -12.5625 -3.92578 -15.7021c-8.31055 -6.46387 -0.405273 -17.1738 -7.85156 -23.5537
c-7.95605 -6.96094 0.132812 -12.4824 -9.81348 -18.4512c-3.92676 -2.74707 -7.45898 -7.45898 -7.45898 -10.9912z" />
</svg>
