<?xml version="1.0" standalone="no"?>
<!DOCTYPE svg PUBLIC "-//W3C//DTD SVG 1.1//EN" "http://www.w3.org/Graphics/SVG/1.1/DTD/svg11.dtd" >
<svg xmlns="http://www.w3.org/2000/svg" xmlns:xlink="http://www.w3.org/1999/xlink" version="1.1" viewBox="-10 0 1010 1000">
   <path fill="currentColor"
d="M613.531 85.4785c32.6436 -20.5537 66.7227 -31.2539 102.931 -31.2539c31.377 0 64.3525 8.03516 99.3799 24.6533c23.7617 11.2207 32.3428 17.8213 57.7559 44.2246c33.0029 34.3232 46.2041 57.0957 57.0957 100c4.41992 16.9443 6.43066 33.7852 6.43066 50.0527
c0 42.3242 -13.6123 80.7676 -33.8232 107.043c-13.7793 17.4033 -8.35449 18.0957 -24.4229 29.7031c-32.1592 23.2246 -56.71 40.332 -105.28 63.3662c-40.5947 19.4717 -129.703 36.9639 -203.631 39.9336c-23.1025 0.660156 -43.5645 2.31055 -45.5439 3.30078
c-2.05762 1.28613 -3.0127 3.08496 -3.0127 5.27539c0 14.6738 42.8496 46.9473 84.2002 60.7305c18.168 6.14453 23.5752 9.26172 23.5752 16.8799c0 1.79199 -0.299805 3.83398 -0.802734 6.22266c-1.65039 8.91113 0 12.8711 8.58105 22.7725
c8.91113 9.90137 10.5605 14.8516 11.2207 29.373v17.1621h-14.5215c-14.8584 -1.02539 -37.5312 -20.1172 -52.8887 -20.1172c-1.11328 0 -2.18652 0.0996094 -3.2168 0.314453c-7.9209 1.65039 -10.2305 0.990234 -11.8809 -3.95996
c-10.8916 -30.6934 -30.0332 -66.9971 -44.5547 -83.8281c-10.5479 -12.1846 -17.2871 -18.0557 -22.1523 -18.0557c-3.96289 0 -6.68164 3.89746 -9.20117 11.4541c-2.63965 8.58105 -6.60059 12.542 -16.501 16.1719c-14.1914 5.28027 -40.9248 25.7432 -40.9248 30.6934
c0 3.62988 -33.9932 44.8848 -43.2334 52.4756c-3.30078 2.63965 -7.9209 8.58008 -10.2314 13.2012c-2.31055 4.62012 -21.4521 31.6826 -42.2441 60.3955c-20.792 28.3828 -45.5449 63.0361 -54.7852 76.5684c-24.4375 35.3682 -69.2363 83.2695 -77.6309 83.2695
c-0.22168 0 -0.417969 -0.0332031 -0.587891 -0.101562c-3.2998 -1.32031 -5.61035 -5.94043 -5.61035 -11.2217c-0.330078 -15.5107 -11.5508 -35.3135 -32.6729 -56.7656c-22.4424 -22.7715 -36.3037 -30.0322 -56.4355 -30.0322
c-10.4482 0 -15.7295 -1.80078 -15.7295 -6.08789c0 -4.51562 5.8584 -11.79 17.709 -22.625c26.4033 -23.7627 62.707 -53.7959 65.3467 -53.7959c2.9707 0 36.9639 -25.082 54.4561 -40.2637c7.9209 -6.93066 15.8408 -12.541 17.4912 -12.541
c6.60059 0 94.0596 -66.667 132.014 -100.66c24.0918 -21.4521 32.6729 -32.6738 35.3135 -45.5449c1.98047 -8.91113 3.95996 -10.8906 13.5312 -12.2109c8.42773 -1.22559 12.6572 -4.0166 12.6572 -8.57129c0 -5.25488 -5.63184 -12.8574 -16.9473 -23.1123
c-11.8818 -10.8906 -27.0635 -20.1318 -47.1953 -28.7129c-40.9238 -17.1611 -39.2734 -16.1719 -39.6035 -31.6826c0 -10.8916 -2.31055 -15.8418 -11.2217 -25.083c-9.24023 -9.57031 -11.2207 -13.8613 -11.2207 -27.0625v-15.8418h17.8213
c14.1914 0.990234 20.1328 3.96094 27.3926 10.8916c7.26074 6.93066 12.542 8.91016 24.0928 8.91016h14.8516l10.5615 26.4033c19.7148 48.4873 42.8701 80.6299 56.4463 80.6299c3.24219 0 5.9375 -1.83203 7.91016 -5.71289
c1.64941 -2.96973 3.95996 -27.0625 4.9502 -53.4648c4.29004 -107.261 32.3428 -200.66 80.8584 -267.327c26.0723 -35.9736 33.333 -43.5645 53.1348 -56.4355zM792.079 117.162c-30.0332 -15.1816 -32.6729 -15.8418 -62.7061 -16.832
c-3.92383 -0.110352 -7.57422 -0.170898 -11.0049 -0.170898c-27.4375 0 -40.7373 3.91113 -66.5527 17.9922c-45.875 24.7529 -86.7988 82.8389 -108.911 154.126c-4.9502 16.1719 -10.8906 33.9932 -13.2012 39.6035c-4.7002 11.3359 -9.86328 59.2666 -9.86328 87.5234
c0 5.47363 0.193359 10.209 0.62207 13.7969c1.93066 17.1816 5.10352 25.4424 11.2363 25.4424c4.35059 0 10.1924 -4.15918 18.1367 -12.2412c12.2109 -12.2109 47.5244 -79.5381 47.5244 -90.7588c0 -7.26074 8.91113 -11.2207 14.1914 -5.94043
c6.27148 6.27051 13.2021 3.95996 25.4131 -7.9209c9.57031 -9.24121 15.5117 -12.2109 28.7129 -13.5312c4.48926 -0.619141 8.04297 -0.974609 10.8262 -0.974609c6.81055 0 9.00781 2.12793 9.00781 7.71973c0 3.52539 -0.873047 8.42578 -2.0127 15.0371
c-1.97949 12.8711 -4.9502 19.1416 -11.8809 24.4219c-6.60059 5.28125 -9.90137 11.5518 -11.2207 21.7822c-2.31055 15.8418 -2.9707 16.502 -51.8154 38.6143c-23.7627 10.8906 -54.126 34.3232 -54.126 41.9141c0 2.31055 2.9707 6.93066 6.60059 10.2314
c3.89258 3.66309 7.94434 4.94434 22.623 4.94434c6.48047 0 15.0303 -0.25 26.5527 -0.654297c23.7617 -0.990234 44.8838 -2.9707 47.1943 -4.9502c2.31055 -1.98047 10.8906 -4.29102 19.1416 -5.28125c32.6738 -4.29004 85.4785 -25.082 130.363 -51.1543
c19.8018 -11.2217 57.0957 -50.4951 66.3369 -69.6377c13.082 -27.0352 19.1846 -26.6299 19.1846 -65.3408c0 -1.88672 -0.0136719 -3.86621 -0.0429688 -5.94629c0 -32.6729 -0.330078 -33.333 -16.1719 -66.0059c-21.1221 -43.2344 -41.2539 -64.0264 -84.1582 -85.8086z
" />
</svg>
