<?xml version="1.0" standalone="no"?>
<!DOCTYPE svg PUBLIC "-//W3C//DTD SVG 1.1//EN" "http://www.w3.org/Graphics/SVG/1.1/DTD/svg11.dtd" >
<svg xmlns="http://www.w3.org/2000/svg" xmlns:xlink="http://www.w3.org/1999/xlink" version="1.1" viewBox="-10 0 1010 1000">
   <path fill="currentColor"
d="M198.088 411.166c7.77734 0 35.334 -33.0723 35.334 -33.5c0 -2.33301 4.33301 -1.83301 6.66602 1c8.63672 10.3633 8.27051 -11.5303 13.834 -13.166c3.5 -0.833984 10 -6.66699 23.166 -21.167c4.33496 -4.81543 11.0898 -10.0078 18.4697 -10.0078
c3.32715 0 6.78125 1.05469 10.1973 3.6748c7.33301 5.83301 10 3.83301 11 -8c1.16699 -15 4.16699 -17.667 35 -30.334c9.87793 -4.2793 17.8682 -8.85156 27.3955 -8.85156c4.46777 0 9.27441 1.00586 14.7715 3.51855c12.833 6 12.333 6 19.333 2.5
c3.54297 -1.77148 7.32422 -2.54688 11.1973 -2.54688c19.0117 0 40.25 18.6943 46.4697 30.2139c1.83301 3.66602 9.83301 11.666 11.5 11.666c0.333008 0 0.833008 -4 1.33301 -8.83301c0.5 -5.33301 3 -13.5 6.66699 -21.167c8.5 -17.833 12.666 -28.333 13.666 -35.166
c1.6416 -9.18848 9.89941 -9.56641 16.167 -15.834v-5.66602h28.833c37.667 0 60.667 7.16602 67.834 21.166c2 4 4.66602 7.16699 5.66602 7.16699c1.16699 0 3.33398 -2.5 4.83398 -5.5c3.33301 -7.33301 13.333 -12 25.5 -11.833
c7.46094 0.161133 30.5 11.0205 30.5 18.5c0 2 0.5 4.83301 1 6.16602c1.5 3.66699 5.66602 0.166992 5.66602 -4.5c0 -5.83301 6.83398 -18 11 -19.5c1.90527 -0.732422 3.92969 -1.03906 6.03027 -1.03906c9.09082 0 19.6035 5.75293 27.9697 7.70605
c7.66699 1.83301 10.667 3.83301 18.667 12c10.3008 10.7793 9.21289 10.043 12.167 2.16699c0.5 -1.83398 3.16602 -2.5 9.33301 -2.5c13.4814 0 2.5127 3.79102 12.333 5.5c11.3174 1.9502 24.9014 14.3193 33 19.333c4.66699 2.83301 9.83398 4 19.667 4.66699h13.333
v10.5c11.833 12 30.5 16.666 41 16.666c15.3643 0 25.9131 4.92969 42 8.33398c8.66699 1.83301 16 3.66602 16.5 4c3 3 -38 25 -53 28.333c-2.33301 0.5 -7 3.5 -10.5 6.66699c-5.16602 4.83301 -9 6.33301 -22.5 9.33301c-17.5 4 -35.333 10 -35.333 12
c0 2.16699 -11 1.5 -15.833 -1v-3.5c12.4688 -2.60938 32.4482 -13.3799 37.333 -22.333c2.16699 -4 2.33301 -15.167 0.333008 -15.167c-1 0 -5.66602 4.16699 -10.666 9.16699c-7.16699 7.33301 -10 9.16602 -14.334 9.16602v-10.833
c1.16602 -11.833 -4.5 -13.833 -9.5 -6.33301c-4 6.33301 -4.66602 7 -20.5 23c-10.833 10.833 -15.5 14.333 -20 15.166c-9.3418 1.86914 -7.38281 3.36035 -19.166 4.83398c-14.1709 1.76953 -21.8066 3.4248 -31.667 10
c-5.83301 3.83301 -7.66699 4.16602 -20.667 3.83301h-14.333l18.667 -19.667c20.333 -20.666 19.5 -19.166 21 -42.833v-5c-12 12.833 -34.167 31.5 -41.5 42.333c-1.10352 1.76562 -10.834 11.752 -10.834 14c0 0.833984 -2.66602 1.5 -5.83301 1.5v-5.66602
c6.83398 -12 5.16699 -13.667 11.333 -22.167c4.66699 -6.66699 6.16699 -10.333 6.16699 -15.5c0 -6 -0.333008 -6.66699 -4.16699 -6.66699c-3.83301 0 -4.16602 0.666992 -4.16602 7.33398c0 11.7627 -6.58496 17.7725 -10.5 25.166
c-5.45898 10.5947 -29.7783 31.2754 -39.834 39.5c-2.66602 2.33398 -6.66602 3 -17.5 3h-13.833v-60.833v23.333c-0.833008 21 -3.16699 24.334 -7.33301 32.834v9.66602h-13.334v-5.66602c1.33398 -11 -8.16602 -12.167 -13.166 -4.5
c-3.16699 4.66602 -4.5 8.66602 -4 11.166c0.666016 3.83398 0.333008 4 -9 4c-9.33398 0 -9.83398 -0.166016 -9.83398 -4.16602c0 -6.16699 -2.16602 -5.16699 -8 4c-3.83301 5.83301 -7.66602 9.16602 -13.333 11.833c-13.4883 6.22559 -8.94629 5.85449 -30 14.833
c-11.4805 4.9082 -20.4404 7.47949 -28.2139 7.47949c-10.4365 0 -18.7344 -4.63574 -28.1191 -14.4795c-5.16699 -5.66602 -10.167 -9.5 -12.167 -9.5c-3.16699 0 -3.5 1 -3.5 10v10c-4.16699 0 -11.667 -0.666016 -11.667 -2.66602
c0 -3.99414 -3.33301 0.300781 -3.33301 3.66602c0 3.33398 -0.833008 4 -5 4c-3.83301 0 -7.5 -2.66602 -18.833 -14.166c-7.66699 -7.83398 -14.5 -14.167 -15 -14.167c-0.666992 0 -1.16699 1.83301 -1.16699 4.16699c0 2.33301 0.666992 4.16602 1.5 4.16602
s2 1.83398 2.5 4.16699c0.666992 2.66699 2.66699 4.5 5.66699 5.16699c4.66602 1.16602 6.16602 2.5 14.166 12c5.33398 6.66602 5.66699 8.66602 1.16699 8.66602c-8.62402 0 -13.0312 -5.75293 -19.167 -9c-5.59668 -3.14844 -20.1641 -13.8047 -27.166 -9.66602
c-2.98535 2.2373 11.7041 10.333 12.833 10.333c2.04688 0 8.75098 6.66699 11.333 6.66699c1.16699 0 2.16699 0.666016 2.16699 1.33301s2.33301 2.16699 5 3.16699c4 1.5 5 2.83301 5 7v5.16602h-17.5c-14.667 0 -17.833 -0.5 -20.333 -3
c-5.75586 -5.88281 -14.5469 -10.4639 -17.9463 -10.4639c-0.890625 0 -1.41113 0.313477 -1.41113 1c0 1.14355 1.44238 3.31836 5.02344 6.79785c8.33398 8 14 12.333 16.167 12.333c3.83301 0 -1.66699 2.5 -11.167 5.16699c-22.2021 6.52832 -42.168 12.5811 -66 18.666
c-19.2988 4.82617 -8.5 2.22559 -8.5 11.5c0 3.66699 -1.33301 4.33398 -12.833 7.66699c-15.167 4.33301 -26.5 7.5 -37.667 10.5c-6.83301 1.66699 -8.16602 2.66699 -9 6.66699v4.83301h-18.166c-12.5 0 -17.5 -0.666992 -18.5 -2.16699
c-0.833984 -1.5 -2.66699 -1.83301 -5.5 -1c-2.66699 0.666992 -3.16699 1.16699 -1.16699 1.33398c2.16699 0.166016 2.83301 1.66602 2.83301 7.66602c0 4.16699 -0.666016 7.5 -1.66602 7.5c-0.833984 0 -1.66699 -0.833008 -1.66699 -1.66602
c0 -2.5 -7.33301 -2 -11 0.833008c-2.3916 1.75391 -12.2158 2.63086 -22.8379 2.63086c-11.5889 0 -24.126 -1.04395 -28.9951 -3.13086c-6.33398 -2.5 -7.16699 -3.5 -7.16699 -8.33301c0 -2.83398 0.5 -5.33398 1.33301 -5.33398c0.262695 0 10.334 -32.2129 10.334 -33
c0 -1 0.833008 -2 1.66602 -2c1 0 1.66699 -0.833008 1.66699 -1.83301c0 -2.33301 13.333 -20.833 28.167 -39.167c0.833008 -1 3 -4.66602 4.66602 -8.16602v-0.333984c2.66699 3.33398 13.5 5.5 14.167 5.16699c0.666992 -0.5 1.33301 -6.16699 1.33301 -12.5v-11.667
l11.334 -11.166c11.9336 -11.9355 13.1758 -14.3203 21.166 -25.167c2.33398 -3.16699 4.16699 -6.83301 4.16699 -8s0.666992 -2.16699 1.5 -2.16699c1.99609 0 7.31348 -15 9.83301 -15zM656.422 517.833c21.333 0 52 38.8408 52 69.833
c0 6.16699 1.66602 10.334 3.5 9.16699c1 -0.583008 1.5 -8.125 1.5 -15.6875s-0.5 -15.1455 -1.5 -15.8125c-2.4834 -1.24219 -4.85645 -16.3955 -7.33398 -18.667c-6.5498 -5.89551 -22.1855 -27.8496 -30.833 -36.5
c-4.33301 -4.83301 -4.66699 -5.66602 -2.66699 -9.16602c4 -7.5 7.33398 -15.334 7.33398 -17.667c0 -1.33301 2 -2.16699 5.5 -2.16699c3.33301 0 7.83301 -2 11.833 -5c6.5 -4.83301 7 -5 25.833 -5h19.167l14.667 -14.833c16.666 -16.833 14.666 -16.167 52.166 -18.5
c11 -0.666992 14.667 -1.33301 14.667 -1.33301c-6.16699 -0.333984 -6.83301 -1.16699 -9.66699 -12.167v-8.16699h19.334c20.5 0 31.666 -2 34.833 -6.33301c0.5 -0.666992 2.66699 -2.16699 5 -3.33301c6.5 -3.5 13.5 -7.5 22.333 -13.334
c5.16699 -3.33301 10.5 -5.33301 13.834 -5.33301c5.33301 0 5.5 0.166992 5.5 6.66699s-1 7.83301 -25.834 32.333l-25.833 25.5v8.16699c0 22 -19.667 42.333 -40.833 42.333c-3.66699 0 -4.33398 0.5 -3.33398 2.83301c1.7207 4.47266 2.47168 8.76465 2.47168 12.8672
c0 12.7773 -7.28906 23.7266 -15.3047 32.6328c-9.66699 10.834 -11 11.667 -17.333 11.667l-11.667 -13c-4.66699 -12.833 -11 -22.167 -13.5 -19.667c-2.33301 2.33398 -1 19.334 1.66699 22.334c6.5 7.33301 7.83301 13.166 7.83301 32.833
c0 17.333 -0.333008 20 -3.66699 24.667c-2.57129 3.85742 -8 6.7627 -8 9.66602c0 4.81543 -6.65625 10.1445 -13.5 19c-12.333 15.834 -27.333 30.5 -32.666 31.834c-2.16699 0.666016 -3.83398 1.66602 -3.83398 2.5c0 2.10254 -6.59473 4.80957 -8.5 6.33301
c-6.83301 6.16699 -8.33301 6.83301 -15.166 6.83301v-7.16602c-0.224609 -9.64941 -8.4541 -16.126 -15.4883 -16.126c-3.41504 0 -6.54785 1.52734 -8.3457 4.95898c-1.33301 2.66699 -2.5 6.33301 -2.5 8c0 3.68262 -5 6.40918 -5 9c0 4.07715 -10.7715 15.2617 -15.5 14
c-2 -0.5 -8.5 -1 -14.5 -1c-6.16602 0 -8.66602 -1.33301 -8.66602 -1.33301c1.66602 -1.16699 1.5 -2.83398 -0.5 -8.83398c-3.5 -9.5 -2 -16.666 4.5 -24.166c5.16602 -5.83398 5.16602 -5.83398 2.33301 -11.167c-6 -11.333 -10.167 -17.833 -11.333 -17.833
c-0.833984 0 -1.33398 9.33301 -1.33398 20.666c0 34.5791 -5 10.8232 -5 45.5c0 20.334 -0.166016 21 -5 28.667c-10.5078 16.2002 -35.709 23.5 -59.166 23.5h-20.834v-8.16699c0 -13.1973 3.33398 -7.58887 3.33398 -24.833v-4.5c-3 5.5 -14.834 18.167 -20 28.167
c-8.51953 16.9014 -10.1279 19.9814 -20.2383 19.9814c-2.15234 0 -4.68945 -0.139648 -7.76172 -0.31543c-7.83398 -0.5 -10.834 -1.33301 -11.667 -3.33301c-4 -10.5 -13.167 -14.333 -37.667 -15.333h-19.833l-10 -20c-5.5 -10.5 -11 -20.667 -12.167 -22.5
c-2.16602 -3 -2.33301 -2.66699 -2.33301 3.83301c0 4.83301 0.833008 7.5 2.5 8c2 0.833008 2.5 4.5 2.5 18.333c0 10.5 0.666992 17.334 1.66699 17.334s1.66602 6.16602 1.66602 15v15c-14.8389 0 -18.4062 -2.28516 -28.333 -4.66699
c-14.499 -3.15234 -49.3262 -21.2598 -57.167 -23.5c-3.33301 -1.16699 -10.833 -4.66699 -16.666 -7.66699h-10.334v-25.666h-21.666v-7.16699c-0.69043 -4.60254 -7.09082 -14.2012 -7.09082 -22.5107c0 -2.77344 0.713867 -5.40332 2.59082 -7.65625
c4.33789 -5.20801 6.40527 -16.3086 10.666 -23.5c2.83398 -4.66602 5.33398 -11 6 -14.333v5c-12.5 13.167 -34.166 29.833 -36.666 37.167c-1.97168 5.58496 -4.9834 8.17773 -6.66699 12.666c-0.5 1.83398 -1.16699 1.83398 -3.33301 -0.5
c-3.04004 -2.95605 -6.37793 -3.99023 -9.89844 -3.99023c-8.23145 0 -17.4678 5.65527 -26.2588 5.65527c-0.84082 0 -1.67773 -0.0517578 -2.50977 -0.165039c-11.667 -1.5 -23.667 -5.5 -33.167 -11.166c-4.33301 -2.5 -8.66602 -4.66699 -9.5 -4.66699
c-1.88281 0 -2.72461 -1.64746 -2.72461 -4.21973c0 -5.85352 4.35742 -16.501 10.7246 -23.4473c3.83398 -4.33301 7 -8.16602 7 -8.5c0 -0.473633 -0.290039 -0.695312 -0.820312 -0.695312c-3.19922 0 -15.1484 8.0459 -25.0127 17.1953
c-4.83301 4.5 -5.5 4.66699 -24.5 4.66699c-12 0 -19.667 -0.666992 -19.667 -1.66699s-1.16602 -1.66602 -2.5 -1.66602c-1.16602 0 -3 -1 -3.66602 -2.16699c-5.01074 -7.51562 -27.167 -10.958 -27.167 -12c0 -0.833008 6.33301 -7.33301 10.333 -10.5
c4.5 -3.66699 30.834 -9.83301 68.834 -16.167c21.6279 -3.89355 17.2891 -3.4873 35.833 -12.166c14.7578 -6.98535 21.6729 -9.70605 27.5381 -9.70605c2.8125 0 5.38379 0.625977 8.46191 1.70605c4.75781 1.63086 8.60059 2.48633 12.3311 2.48633
c5.41797 0 10.5986 -1.80371 18.002 -5.65332c14.167 -7.16699 27.167 -10.667 45.667 -12c1.6748 -0.104492 3.24219 -0.155273 4.71289 -0.155273c20.7773 0 22.123 10.1543 32.1201 22.1553c0 0 9.5 15.002 9.5 12.167c0 -1.66699 1.5 -7 3.5 -12.167
c3 -8.16699 3.83398 -9.16699 8.33398 -9.16699c4 0 4.83301 0.666992 4.83301 4c0 2.16699 1.16699 4.83398 2.5 6c2 1.66699 2.5 6.16699 2.5 21.167c0 18.833 0 19 -5 24.333c-10.3926 11.0859 -2.28809 15.2109 -0.666992 26.167
c0.666992 4.66699 1.66699 8.33301 2.16699 8.33301c0.666992 0 3.16699 -6.5 5.66699 -14.666c8.83301 -29.667 11.333 -43 14.5 -76.167c2.5 -25.667 3 -27.5 7.66602 -27.5c3.66699 0 10.334 -2.83301 12.334 -5.16699
c2.66602 -3.16602 9.66602 -4.83301 20.833 -4.83301c12 0 21.5 -2.66699 24.333 -7c3.25098 -5.41602 16.2852 -2.24023 19.834 1.16699v4.66602h10.833c3.16699 -3.16602 5.83301 -13.166 5.83301 -15c0 -2.5 2 -3.5 10.167 -5
c16.9766 -3.11816 15.3281 -12.0635 33.5 -16.166c7.16699 -1.66699 13.167 -4 13.667 -5.33398c0.651367 -1.79102 16.0273 -2.66797 31.583 -2.66797c16.2773 0 32.75 0.959961 32.75 2.83496c0 2 2.33301 2.5 10.5 2.5c8.83301 0 10.833 0.666992 14.333 4.16699
c2.16699 2.33301 4.5 4.16602 5.33398 4.16602c6.61816 0 -6.83398 -17.5547 -6.83398 -19.166c0 -0.5 3.5 -0.833984 7.66699 -0.833984c8.33301 0 8.33301 0 24.833 16.167c4.83398 4.83301 9.66699 8.83301 10.667 8.83301c5.02344 0 -4.83301 -10.9736 -4.83301 -13.666
c0 -4.5 0.333008 -4.66699 8 -4.66699zM73.0879 597c7.83398 -5.33398 15.167 -5.33398 21.334 0c2.66602 2.33301 5.33301 4.16602 6.16602 4.16602c0.666992 0 1.16699 3.66699 1.16699 8.33398c0 7.83301 -0.333008 8.33301 -4.16699 8.33301
c-2.33301 0 -4.16602 0.666992 -4.16602 1.66699c0 0.833008 -1.16699 1.66602 -2.5 1.66602c-3.31738 0 -27.3936 12.2852 -39 14.334c-5 1 -5.16699 0.833008 -5.16699 -4.5c0 -9.28613 7.79199 -14.126 12.167 -22c2.5 -4.33398 5.33301 -7.83398 6.33301 -7.83398
s4.5 -1.83301 7.83301 -4.16602z" />
</svg>
