<?xml version="1.0" standalone="no"?>
<!DOCTYPE svg PUBLIC "-//W3C//DTD SVG 1.1//EN" "http://www.w3.org/Graphics/SVG/1.1/DTD/svg11.dtd" >
<svg xmlns="http://www.w3.org/2000/svg" xmlns:xlink="http://www.w3.org/1999/xlink" version="1.1" viewBox="-10 0 1010 1000">
   <path fill="currentColor"
d="M482.333 58c5.64648 -2.0459 11.4951 -3.02734 17.3164 -3.02734c17.8906 0 35.5361 9.26465 46.3506 25.3604c5.26855 7.37695 6.99805 12.2549 6.99805 22.3672c0 2.68359 -0.121094 5.73535 -0.331055 9.2998c-1.33398 23.667 -8.66699 35.333 -28 46.333l-13 7.33398
l-1 40.666c-0.150391 6.89355 -0.232422 12.7422 -0.232422 17.6797c0 17.0283 0.981445 23.2119 3.56543 23.9873c2.33301 0.666992 16.333 3.66699 31 6.33301c52.667 9.66699 93.333 31 131.333 69.334c38 37.666 58.667 76.333 69.667 130.666l5.66699 27.334
c28 0.666992 56 1.33301 84 2l8.66602 -13c10.334 -16 26.667 -24 48.334 -24c32.3438 0 51.9902 26.1504 51.9902 53.2793c0 17.0459 -7.75488 34.4775 -24.9902 46.0537c-7.37695 5.26855 -12.2549 6.99805 -22.3672 6.99805
c-2.68359 0 -5.73535 -0.121094 -9.2998 -0.331055c-23.667 -1.33398 -35.333 -8.66699 -46.333 -28l-7.33398 -13h-82.333l-4.33301 24.333c-18.667 113 -98.667 193 -211.667 211.667l-24.333 4.33301v82.333l13 7.33398c19.333 11 26.666 22.666 28 46.333
c0.209961 3.56445 0.331055 6.61621 0.331055 9.2998c0 10.1123 -1.72949 14.9902 -6.99805 22.3672c-11.5762 17.2354 -29.0078 24.9902 -46.0537 24.9902c-27.1289 0 -53.2793 -19.6465 -53.2793 -51.9902c0 -21.667 8 -38 24 -48.334l13 -8.66602
c-0.666992 -28 -1.33301 -56 -2 -84l-27.334 -5.66699c-102.312 -20.7139 -181.178 -98.4561 -200 -201c-2.66602 -14.667 -5.66602 -28.667 -6.33301 -31c-0.775391 -2.58398 -6.95898 -3.56543 -23.9873 -3.56543c-4.9375 0 -10.7861 0.0820312 -17.6797 0.232422
l-40.666 1l-7.33398 13c-11 19.333 -22.666 26.666 -46.333 28c-3.56445 0.209961 -6.61621 0.331055 -9.2998 0.331055c-10.1123 0 -14.9902 -1.72949 -22.3672 -6.99805c-17.2354 -11.5762 -24.9902 -29.0078 -24.9902 -46.0537
c0 -27.1289 19.6465 -53.2793 51.9902 -53.2793c21.667 0 38 8 48.334 24l8.66602 13c28 -0.666992 56 -1.33301 84 -2l5.66699 -27.334c20.9795 -102.988 97.2471 -178.831 200.333 -200.333l27.334 -5.66699c0.666992 -28 1.33301 -56 2 -84l-13 -8.66602
c-15.667 -10.334 -24 -26.667 -24 -47.334c0 -25 11.666 -41.666 35.666 -50.333zM481.667 323c0 -37 -1 -44.667 -5 -45.333c-0.446289 -0.0595703 -0.963867 -0.0888672 -1.54688 -0.0888672c-12.4863 0 -55.2061 13.29 -78.4531 24.7549
c-34.667 17.334 -77 59.667 -94.334 94.334c-11.5127 23.3281 -24.4023 65.9336 -24.4023 79.5078c0 7.17773 5.46387 6.72461 26.375 6.72461c5.39355 0 11.7969 -0.0830078 19.3613 -0.232422l44 -1l7.33301 -22.334c14.333 -42 42.333 -70.333 84.667 -84.333
l22 -7.66699v-44.333zM566.333 287.333c-21.0098 -6.43164 -36.7793 -9.69141 -45.8916 -9.69141c-5.05469 0 -8.06055 1.00293 -8.77441 3.02539c-0.75 1.99902 -1.125 14.1221 -1.125 29.6191c0 5.16797 0.0410156 10.7119 0.125 16.3809l1 41.333l16.666 3.66699
c49 11.666 80.667 40.666 96.667 87.666l7.33301 22.334l44 1c7.56445 0.149414 13.9678 0.232422 19.3613 0.232422c20.9102 0 26.375 0.391602 26.375 -6.72461c0 -13.5742 -12.8896 -56.1797 -24.4023 -79.5078c-24.334 -48.667 -78 -93 -131.334 -109.334zM546 406.667
c-13.665 -6.7207 -22.2109 -9.82812 -27.6621 -9.82812c-2.66016 0 -4.58398 0.740234 -6.00488 2.16113c-1.33301 1 -2.33301 11.333 -2.33301 23v20.667l14.667 8.66602c8 4.66699 18 14 22 20.334l7.33301 12l22.333 -1
c20.8135 -1.05859 23.1826 -1.26074 23.1826 -11.002c0 -19.1104 -25.8477 -51.0059 -53.5156 -64.998zM482.667 423.667c-1 -20.667 -1.33398 -22 -9.33398 -23c-0.306641 -0.0283203 -0.628906 -0.0429688 -0.96582 -0.0429688
c-11.3555 0 -39.0361 16.1123 -50.3672 29.709c-11.9043 14.0967 -21.4521 33.1973 -21.4521 42.3643c0 8.58887 3.02051 8.94824 23.1191 9.96973c5.05762 0.226562 8.96973 0.401367 12.0771 0.401367c10.6152 0 11.8408 -2.04395 17.2559 -11.0684
c4 -6.33301 12.667 -15 19 -19c9.02441 -5.41504 11.0684 -6.64062 11.0684 -17.2559c0 -3.10742 -0.174805 -7.01953 -0.401367 -12.0771zM371.667 528.333l-3.66699 -16.666l-44 -1c-7.87109 -0.137695 -14.3838 -0.21875 -19.7803 -0.21875
c-22.541 0 -27.0322 -0.03125 -27.0322 8.62109c0 14.9775 13.1152 60.2041 25.1455 84.2637c17.334 34.667 59.667 77 94.334 94.334c23.3281 11.5127 65.9336 24.4023 79.5078 24.4023c1.36035 0 2.42969 -0.128906 3.1582 -0.402344
c2.58496 -0.775391 3.56641 -7.36133 3.56641 -25.9727c0 -5.39355 -0.0830078 -11.7969 -0.232422 -19.3613l-1 -44l-22.334 -7.33301c-47 -16 -76 -47.667 -87.666 -96.667zM451.333 524.667l-8.66602 -14.667h-21.334c-17.5898 0 -24.0889 0.481445 -24.0889 7.95996
c0 9.77344 9.44824 31.793 20.7559 46.373c12.251 16.4414 41.6484 35.0654 54.1211 35.0654c0.423828 0 0.828125 -0.0214844 1.21191 -0.0654297c8 -1 8.33398 -2.33301 9.33398 -23l1 -22.333l-12 -7.33301c-6.33398 -4 -15.667 -14 -20.334 -22zM579.667 510.667
l-22.334 -1l-8.66602 15c-5.33398 9.33301 -14.667 18.666 -24 24l-15 8.66602l1 22.334c1 18.333 2 22 7 23c0.461914 0.0927734 0.981445 0.136719 1.55469 0.136719c11.8389 0 46.332 -19.0859 57.7783 -31.8037c11.6973 -13.5947 25.7939 -41.8838 25.7939 -52.1572
c0 -6.60645 -4.99707 -7.49219 -23.127 -8.17578zM677.333 510c-23.666 0 -44 1 -45 2.33301c-1.33301 1 -2.33301 5 -2.33301 8.33398c0 12 -13 43 -24.667 59c-16.333 22 -43.666 40.333 -71.333 47.333l-22.333 5.66699l-1 43.666
c-0.137695 7.80273 -0.21875 14.2598 -0.21875 19.6133c0 20.4912 1.18555 24.8008 4.88477 26.3867c0.84668 0.326172 2.11426 0.479492 3.73633 0.479492c14.9775 0 60.2041 -13.1152 84.2637 -25.1455c34.667 -17.334 77 -59.667 94.334 -94.334
c12.0303 -24.0596 25.1455 -69.2861 25.1455 -84.2637c0 -10.0195 -7.36719 -9.06934 -45.4795 -9.06934z" />
</svg>
