<?xml version="1.0" standalone="no"?>
<!DOCTYPE svg PUBLIC "-//W3C//DTD SVG 1.1//EN" "http://www.w3.org/Graphics/SVG/1.1/DTD/svg11.dtd" >
<svg xmlns="http://www.w3.org/2000/svg" xmlns:xlink="http://www.w3.org/1999/xlink" version="1.1" viewBox="-10 0 1010 1000">
   <path fill="currentColor"
d="M867.933 134.831c13.7021 -13.7041 27.8213 -24.916 31.5586 -24.916c7.88965 0 34.0518 51.0762 32.8057 64.3643c-0.416016 5.39844 2.07617 11.627 5.39844 14.5352c4.15234 3.32129 6.22852 12.457 6.22852 25.7441c0 11.2129 3.32129 26.1621 7.05859 33.6367
c9.55176 18.2715 8.7207 46.9238 -2.0752 68.1006c-12.458 24.085 -16.1953 24.916 -15.7803 3.32324c0.416016 -15.7803 -1.66113 -20.7627 -12.873 -31.1445c-11.2109 -10.3809 -13.7031 -11.2119 -17.8555 -6.22852c-2.90723 3.32227 -12.458 8.30469 -21.1777 10.7959
c-14.9492 4.56836 -16.1953 6.22949 -18.2715 24.085c-4.56836 35.2969 -10.3809 58.9668 -17.4414 72.2539v13.2881l-12.873 -30.3125c-4.15234 -20.7627 -9.13477 -33.6357 -15.7793 -40.2803v-9.55078l-23.2539 14.1182
c-22.8379 23.2549 -55.6436 42.3564 -90.1104 51.4922c-47.7539 12.873 -56.8896 19.9326 -60.2109 44.4326c-1.66211 10.7959 -7.05957 38.2031 -11.627 60.2109c-4.9834 22.4248 -7.88965 41.9414 -6.22949 43.6016c1.66113 1.66113 9.13574 0.415039 16.6104 -2.49121
c12.8711 -5.71973 61.6191 -9.30176 74.3301 -14.9482c12.458 -4.9834 47.7539 5.8125 55.2285 17.0254c3.32324 5.39746 12.458 12.457 19.5176 15.3643c12.043 4.9834 13.7031 4.56738 23.2539 -4.9834c10.7969 -10.7969 17.0264 -30.3145 17.4414 -53.5684
c0 -9.13574 1.66016 -12.873 4.56738 -10.7959c9.13477 5.39746 20.3477 37.373 20.3477 58.1357c0 21.1768 0 21.5928 14.5332 24.085c11.2119 2.0752 17.0264 0.829102 26.5762 -6.22949c11.2129 -8.30566 30.3145 -43.1865 34.8818 -63.9492
c1.24609 -6.64453 2.90625 -5.39844 8.30566 7.05957c8.71973 19.5166 9.13574 53.9834 0.830078 70.1777c-6.22949 12.042 -6.22949 12.042 2.90625 9.96582c5.39941 -1.24512 13.2891 0 17.8564 3.73828c7.88965 5.8125 7.47461 6.22852 -9.55078 24.9141
c-10.7959 11.6279 -19.5166 26.1611 -22.4248 38.2041c-4.15234 15.3643 -8.30469 20.7627 -22.0078 29.0674h-31.1445c-16.6094 -16.1953 -21.5918 -22.0088 -29.4824 -12.457c-2.90723 3.32129 -14.1191 11.2109 -25.3301 16.6094h-19.9326v-31.5586l-19.5166 14.1182
c-11.2129 7.47461 -24.0859 16.1943 -29.4834 18.6865c-8.71973 4.56836 -9.13574 4.15332 -6.64453 -5.39844c9.55176 -39.4482 -39.0332 -58.1357 -93.8477 -36.127c-43.1855 17.4414 -43.1855 17.4414 -49.8291 43.1865
c-4.9834 19.5166 -4.9834 32.3896 -0.831055 76.8213c2.49121 29.4834 6.64355 58.5518 9.13574 65.1953c6.22852 16.6104 2.07617 17.4404 -17.8564 3.73828c-17.0254 -12.043 -17.4404 -12.873 -20.7627 -43.1875c-2.07617 -17.0254 -4.56738 -35.7109 -5.81348 -41.5254
c-2.07617 -8.7207 -2.90723 -7.88965 -5.81348 7.88965c-2.07617 10.3818 -9.9668 31.5605 -17.8564 47.7549l-14.1182 29.4824v-27.8223c-0.415039 -14.9482 -2.90723 -36.957 -5.81348 -48.584v-21.1787l-14.1182 38.2041
c-9.9668 38.6191 -33.2207 93.8477 -37.373 89.2793c-1.66113 -1.24609 -0.415039 -17.4404 2.07617 -35.7109c3.73633 -25.3311 3.73633 -35.7119 0 -42.3564c-4.56836 -8.7207 -4.9834 -8.30566 -12.043 7.88965c-12.457 26.9922 -38.6182 63.1191 -66.4404 90.1104
c-28.6533 28.2373 -28.2373 28.6523 -12.8721 -26.9912c8.71875 -30.3145 22.4229 -100.077 20.3477 -102.152c-2.41895 -2.41895 -112.669 156.136 -124.162 156.136c-2.49121 0 -2.90625 -2.07715 -1.24609 -4.9834c1.66211 -2.49219 6.22949 -17.8564 10.3818 -34.0518
c8.32812 -36.0879 21.8418 -65.5361 34.0508 -95.5078c4.15234 -11.6279 22.8389 -47.7549 40.6943 -80.5596c17.8564 -32.8057 32.8057 -60.627 32.8057 -62.2871c0 -3.32324 -103.813 136.202 -106.72 143.262c-2.07715 4.56738 -51.0771 46.0928 -62.7041 52.7383
c-2.90625 1.66016 1.24609 -8.7207 9.55176 -23.6709c7.88965 -14.5332 14.5332 -27.4062 14.5332 -29.0674c0 -1.24512 -15.3643 8.71973 -34.4668 22.0088c-18.6855 13.7031 -48.1689 32.3896 -66.0244 41.5254c-32.8047 17.0254 -46.0938 21.5938 -28.2373 9.55078
c22.4238 -14.9492 78.4824 -64.3652 89.2793 -78.4834l11.2119 -14.5342v2.07715c-5.39746 1.24609 -26.1611 2.90625 -34.0508 4.56738h-14.1182l14.9482 -13.2881c19.1016 -20.3477 75.9912 -105.475 68.1016 -102.568
c-3.32129 1.24609 -17.4395 15.7803 -31.5586 31.9746c-42.3564 49 -80.1436 69.7627 -137.034 75.5771h-26.9922l25.7461 -14.1191c25.3311 -16.6104 88.4492 -73.085 88.4492 -79.7285c0 -1.66113 -11.627 2.07617 -25.7451 8.7207
c-14.5342 7.05859 -30.7295 12.458 -36.542 12.458c-8.30566 0 -4.9834 -2.9082 14.5332 -13.7041c13.2881 -7.05957 34.8809 -23.2539 47.7539 -34.8818l22.8398 -22.0078h-15.3652c-8.71973 3.32227 -21.1777 12.457 -28.2373 12.457h-12.8721
c16.0566 -14.9492 32.1123 -29.8975 48.1689 -44.8467h-29.4834c-16.1943 5.39941 -40.6943 20.7627 -53.9824 22.0078h-6.64453c9.96582 -5.39746 35.2969 -32.8057 56.8906 -51.9072l38.6172 -35.2959l-41.9395 -11.2119
c-23.2549 -6.22852 -46.5088 -11.6279 -51.4922 -11.6279c-19.5166 0 -12.042 -7.88965 20.7627 -22.0078c37.8672 -15.9873 82.4258 -25.5176 108.382 -48.584l16.6104 -15.7803c16.9639 8.22754 33.7158 16.668 50.2451 25.3301l-16.6104 -18.2705
c-17.8555 -19.9326 -8.30469 -17.0254 -115.439 -34.4668c-22.0088 -3.7373 -51.0771 -10.7959 -63.9502 -15.7793c-24.085 -8.7207 -45.6777 -10.7959 -63.5332 -5.81348c-9.13574 2.90723 -8.7207 1.66113 4.56738 -10.7969
c7.88965 -7.47461 23.6699 -19.1016 35.2969 -26.1602l20.3467 -12.458h-40.2793l41.5254 -24.5c36.543 -18.2715 42.7715 -19.9326 53.9834 -15.7803c9.55078 3.32227 19.1016 2.49219 42.7705 -3.7373c35.2969 -9.13477 111.704 -10.7959 157.797 -2.90625
c23.2549 3.7373 31.1445 3.32129 39.4492 -0.831055c13.7031 -7.47461 11.2119 -12.042 -10.3818 -20.7627h-18.2705l18.2705 -11.627c33.2207 -8.30566 45.6787 -9.13574 75.9922 -4.56836c28.6533 4.15332 112.534 0.416016 156.551 -7.05859
c12.873 -2.07617 17.0254 -0.831055 28.6523 9.55078l14.1191 12.458h14.1182c7.89062 -5.39941 18.2715 -19.5176 22.8398 -19.5176c4.98242 0 14.5332 -5.81348 21.5928 -12.457c10.7969 -10.3818 23.6699 -15.3652 67.6865 -26.9922
c30.3135 -7.88965 55.2285 -14.5332 56.0586 -14.5332c0.831055 0 12.873 -11.2129 26.5771 -24.915zM588.881 301.763c-15.7793 0 -41.1094 -0.831055 -56.0586 -2.07715c-14.9492 -1.24414 -31.5586 -0.829102 -37.373 0.831055h1.24609
c6.64355 2.49219 12.873 12.873 14.5332 12.873c1.66211 0 13.7041 6.64355 26.9922 14.5342l23.6699 14.5342l17.8545 -13.7041c9.55176 -7.05859 22.4248 -16.1953 27.8232 -20.3477c9.96582 -6.64355 9.5498 -6.64355 -18.6875 -6.64355z" />
</svg>
