<?xml version="1.0" standalone="no"?>
<!DOCTYPE svg PUBLIC "-//W3C//DTD SVG 1.1//EN" "http://www.w3.org/Graphics/SVG/1.1/DTD/svg11.dtd" >
<svg xmlns="http://www.w3.org/2000/svg" xmlns:xlink="http://www.w3.org/1999/xlink" version="1.1" viewBox="-10 0 1010 1000">
   <path fill="currentColor"
d="M234.471 457.338c6.05859 0 14.168 -17.0645 21.1611 -17.0645c3.07129 0 7.84961 -2.04785 10.2383 -4.4375c1.64258 -1.52051 2.62305 -2.20605 3.04199 -2.20605c1.92871 0 -8.10742 14.584 -20.4482 29.1689c-23.9297 27.9189 -50.167 61.1162 -78.498 88.7373
c-13.6514 13.3105 -25.2559 25.5967 -25.2559 26.9619c-0.341797 1.36523 -7.16699 9.55664 -15.3584 17.748l-15.0176 15.6992l15.7002 -10.5801c8.53223 -5.80176 17.4062 -12.6279 19.7949 -15.6992c2.73047 -3.07227 6.14355 -5.46094 8.19141 -5.46094
s-3.75391 7.84961 -12.9697 17.4062c-9.23047 9.58594 -12.6963 13.6914 -12.6963 14.5801c0 2.39648 25.1953 -18.5947 30.4961 -18.5947c0.623047 0 0.97168 0.290039 0.97168 0.942383c0 2.73047 -2.04785 6.82617 -4.0957 9.21484
c-3.75391 3.75488 -3.07129 4.4375 3.07227 2.73047c19.8037 -4.7793 -7.15625 11.2715 -4.77832 13.6523c1.02344 1.02344 7.16699 -2.04785 13.3105 -6.82617c10.5801 -7.84961 30.0342 -19.4541 137.543 -81.9111c22.5254 -12.9697 62.457 -38.2256 88.7373 -55.9727
c23.6562 -16.0254 36.7334 -24.8164 38.1641 -24.8164c1.76953 0 -14.2617 13.4355 -50.1094 43.2461c-64.5059 53.584 -107.851 83.6182 -154.949 107.167c-45.3926 22.8672 -70.3076 36.8604 -70.3076 39.5908c0 0.952148 1.18652 1.30078 2.99219 1.30078
c4.90234 0 14.3721 -2.56641 17.0684 -2.56641c0.467773 0 0.732422 0.0771484 0.732422 0.258789c0 0.725586 -4.19531 3.1084 -16.3555 8.85645c-13.5713 6.34766 -21.5264 11.1514 -21.5264 12.7002c0 0.347656 0.401367 0.53125 1.23047 0.53125
c1.23633 0 3.4209 -0.407227 6.64355 -1.28613c0.881836 -0.255859 1.50781 -0.376953 1.90039 -0.376953c0.344727 0 0.508789 0.0927734 0.508789 0.269531c0 2.03223 -21.8486 15.1279 -41.999 24.3398c-10.9219 5.11914 -19.1133 9.55664 -18.4307 10.5801
c0.119141 0.0957031 0.354492 0.141602 0.697266 0.141602c9.66797 0 105.066 -36.5928 111.924 -36.5928c0 0 0.154297 3.26953 3.0791 3.68652c0.422852 0 0.621094 0.0908203 0.621094 0.259766c0 2.14551 -32.0098 16.9053 -40.5527 18.1709
c-3.75488 0.34082 -11.2637 2.73047 -16.3828 4.77832c-14.4629 5.42285 -2.38867 11.083 -2.38867 20.1357c0 8.00391 -55.5332 26.2822 -75.4365 26.2822c-2.16309 0 -3.90527 -0.21582 -5.10938 -0.68457c-3.07227 -1.02441 -4.77832 -5.46094 -4.0957 -10.5801
c0.682617 -6.82617 3.75391 -9.89746 12.2861 -12.2871c10.2393 -2.73047 11.2627 -4.43652 9.55664 -12.6279c-1.70605 -8.53223 -0.341797 -9.89746 16.7236 -16.7236c10.2383 -4.0957 18.7715 -8.87305 18.7715 -10.5801c0 -6.82617 1.36523 -8.53223 13.6514 -15.6992
c13.3105 -8.19141 18.7715 -18.4307 12.9697 -24.2324c-2.04785 -2.04785 -6.14355 -2.73047 -9.21484 -1.36523c-4.77832 1.70605 -4.77832 1.36523 -0.341797 -4.43652c4.43652 -5.46094 3.07129 -5.46094 -7.50879 1.36523h-12.9688
c0 -10.9561 -7.33984 -12.917 -7.33984 -18.7793c0 -2.60449 1.44922 -5.97949 5.63281 -11.2549c5.80273 -6.48535 7.50879 -10.5801 4.77832 -10.5801s-0.682617 -2.73047 3.75488 -5.80273c4.77734 -3.07129 17.4053 -13.3105 28.3271 -22.8662
c11.7686 -10.127 18.5996 -16.4678 18.5996 -21.751c0 -7.8916 -15.2461 -13.4229 -52.0469 -25.6895l-50.8887 -17.1709l102.083 -34.7061v-25.2568c2.38965 -13.9932 9.89844 -30.0342 11.9463 -35.4941c3.07129 -8.87402 2.38867 -11.6045 -3.41309 -17.748
c-4.81445 -5.0332 -6.96289 -11.2236 -6.96289 -17.3115c0 -12.9043 9.65039 -25.3506 24.0273 -25.3506c8.53223 0 11.9453 -2.73047 20.1367 -16.041c0 -7.73633 0.847656 -15.6182 0.847656 -23.3535c0 -3.86816 -0.211914 -7.69922 -0.847656 -11.458
c-1.8457 -10.9092 -4.43652 -31.3994 -5.46094 -46.417c-1.36523 -20.4775 -4.0957 -31.0576 -10.5801 -41.9795c-4.43652 -8.19141 -7.50879 -15.6992 -6.14355 -16.7236c0.527344 -0.703125 0.75293 -1.43262 0.75293 -2.18066
c0 -4.48145 -8.12207 -9.58301 -8.12207 -13.1055c0 -2.12793 2.9668 -3.67969 12.4883 -4.16797c8.5332 -0.34082 10.5811 -2.04688 12.2871 -11.2627c0.962891 -5.78027 3.36328 -13.082 5.23535 -13.082c4.58203 0 25.2539 24.7129 28.2119 34.2432
c2.04785 6.14258 20.4775 15.6992 70.9893 36.8594c2.42773 0.984375 4.91797 1.43848 7.35742 1.43848c10.252 0 19.6055 -8.02734 19.6055 -18.5029c0 -5.11914 2.38867 -11.9453 5.80176 -15.3584c3.61133 -3.97266 11.043 -6.03418 18.4043 -6.03418
c6.55371 0 13.0527 1.63379 16.75 5.00977c5.11914 4.4375 8.19043 4.77832 21.8428 1.02441c14.334 -3.75391 17.7471 -7.50879 16.041 -17.4062c0 -1.36523 1.36523 -2.38867 3.07129 -2.38867c7.84961 0 2.04785 -5.80273 -15.3584 -15.0176
c-17.7471 -9.89746 -18.7715 -9.89746 -25.2559 -4.0957c-5.11914 4.4375 -7.84961 5.12012 -12.9697 2.38965c-3.41211 -2.04785 -12.6279 -5.12012 -20.4775 -7.16797c-15.0166 -3.75391 -17.7471 -8.19043 -10.2383 -18.0879
c3.75391 -5.12012 5.80176 -5.12012 27.3037 2.38867c12.6279 4.0957 22.8662 6.82617 22.8662 5.80176c0 -1.02344 1.36523 -4.0957 3.07227 -6.48438c2.38867 -3.75391 5.45996 -3.41309 17.0645 2.38867c7.50879 4.0957 13.9932 5.80273 13.9932 4.4375
c0 -1.19336 1.67773 -1.71973 4.38965 -1.71973c7.375 0 22.3975 3.89551 32.1289 8.88672c6.14355 3.07129 12.2871 5.80176 13.9932 5.80176c1.83008 0 23.5498 -60.0684 23.5498 -60.0684c0.682617 0.682617 7.84961 20.8193 15.6992 45.0518l14.6758 43.6855h24.5742
c17.3994 3.0459 29.249 13.251 41.584 13.251c4.41406 0 8.89062 -1.30762 13.7061 -4.71777c4.79297 -3.61914 10.2031 -5.24805 15.4814 -5.24805c13.1416 0 25.4736 10.0928 25.4736 24.7012c0 5.80273 7.16699 12.2871 29.0107 26.6211l28.6689 19.4541l88.3242 -44.499
c0 1.02344 -9.14355 22.9971 -21.4307 47.5713l-22.1836 44.0273c10.9121 15.5957 21.7227 31.292 32.4229 47.0986h29.0098c21.2959 3.39844 40.4873 6.3457 57.1729 6.3457c8.45117 0 16.2598 -0.755859 23.374 -2.5918
c4.05664 -0.949219 7.78613 -1.41895 11.1494 -1.41895c10.0703 0 19.5947 4.81152 19.5947 15.1279c0 12.4375 -11.5801 44.541 -21.1885 56.9395c-4.77832 6.48535 -8.19043 15.7002 -8.19043 22.5264c-0.237305 4.50488 -9.66602 36.9395 -9.66602 46.7344
c0 1.55957 0.238281 2.5459 0.791992 2.75293c2.04785 0.682617 12.2861 4.0957 22.5254 7.50879h18.7715l-44.3682 21.1602c-53.2432 17.4062 -59.3857 22.8672 -69.2842 61.7754c-3.02344 12.0957 -4.47754 19.0635 -4.47754 23.7422
c0 3.77051 0.944336 6.05469 2.77148 8.33984c2.82031 4.14746 4.26953 10.3916 4.26953 16.6943c0 6.66309 -1.62012 13.3916 -4.95215 17.7764c-3.12012 4.29102 -4.90332 12.5928 -4.90332 19.4941c0 5.17676 1.00293 9.56445 3.19727 10.8809
c2.10254 1.23633 3.12891 3.68359 3.12891 7.16113c0 6.12012 -3.17969 15.4346 -9.27246 26.9688c-7.16699 13.3105 -11.6045 17.7471 -21.1602 20.1367c-6.02344 1.58496 -13.3174 3.83008 -13.3174 4.13184c0 2.00781 32.8516 63.3623 32.8516 67.9697
c0 1.81934 -24.1777 -9.23535 -50.251 -22.2725l-48.4648 -24.2324l-19.1123 12.9697c-17.6416 11.6113 -23.5938 15.334 -23.5938 18.7188c0 1.78809 1.66211 3.48242 4.13965 6.19629c12.748 13.543 -10.7871 8.03809 8.87402 20.1357
c6.48438 4.0957 16.7236 8.87402 22.8672 10.9219c10.2383 3.41309 11.2627 5.11914 10.2383 13.6523c-1.36523 8.87305 -0.34082 10.2383 10.5801 13.3105c6.82617 1.70605 14.335 3.41211 16.7236 3.41211c6.14355 0 5.12012 4.77832 -3.07129 12.2871
c-13.5273 12.1025 10.7305 8.67188 -1.02441 21.1602c-4.77734 5.46094 -8.19043 6.14355 -21.8428 3.75488c-8.87402 -1.70703 -21.1602 -3.75488 -27.6445 -4.77832c-10.2393 -2.04785 -11.2637 -3.07227 -9.89844 -12.2871
c1.36523 -8.19043 0.682617 -9.89746 -3.75391 -7.84961c-3.07129 1.36523 -8.87402 2.38867 -12.9688 2.38867c-5.12012 -0.34082 -7.85059 1.70703 -7.85059 5.46094c0 3.41309 -0.682617 6.82617 -1.70605 7.85059
c-0.242188 0.211914 -1.07031 0.311523 -2.39062 0.311523c-13.5361 0 -78.8604 -10.4141 -96.5859 -16.0117c-9.21484 -3.07129 -18.7715 -5.46094 -20.4775 -5.46094c-2.04785 0 -8.87402 15.7002 -15.3584 34.8125l-11.2627 35.1533l-15.3584 -46.416
c-13.3105 -39.9316 -16.7236 -47.0986 -26.2803 -53.2422c-11.0264 -7.15234 -53.7979 -19.249 -66.2881 -19.249c-1.81445 0 -2.98926 0.255859 -3.33594 0.818359c-4.39844 5.86133 -11.749 8.63672 -19.2334 8.63672c-12.5508 0 -25.4766 -7.80566 -25.4766 -21.9473
c0 -7.16699 -4.43652 -11.9453 -25.2559 -25.9385l-24.915 -17.4062l-99.2461 49.9619c0 -1.02441 10.168 -25.0469 23.4785 -51.3271c12.585 -25.4492 19.4404 -41.2734 19.4404 -45.4082c0 -0.719727 -0.208008 -1.08496 -0.629883 -1.08496
c-14.958 0 -53.4824 16.1533 -63.5205 16.8008c-10.2393 1.02344 -11.9453 0 -12.9697 -6.48438c-0.682617 -5.46094 1.36523 -8.87402 7.50879 -11.6045c5.91504 -2.95703 6.37891 -5.55078 6.37891 -9.10449c0 -6.01465 34.0713 -12.7969 41.0615 -15.1279
c16.3818 -5.11914 20.4775 -1.36426 4.43652 4.0957c-17.0957 5.12891 -14.4863 15.3027 -31.7402 20.4785c-18.7715 6.14258 -22.5254 11.2627 -6.14355 8.53223c47.0986 -8.19141 179.863 -60.751 217.065 -86.0068c8.19043 -5.46094 17.0645 -11.2627 19.1123 -12.6279
c2.38867 -1.36523 0.34082 5.80176 -4.0957 15.6992c-10.2129 21.9121 -15.374 47.9658 -15.374 72.8291c0 20.8359 3.62402 40.8369 10.9375 56.8643c9.89746 21.1602 32.7637 47.7812 53.9248 62.457c14.6758 10.2393 55.29 25.2559 95.5625 35.8359
c25.2021 6.30176 68.8682 13.3926 80.9141 13.3926c1.65625 0 2.71484 -0.133789 3.04492 -0.422852c1.96875 -2.9541 -41.4385 -11.7734 -41.4385 -15.9854c0 -3.30957 10.002 -4.7041 17.4053 -4.7041c6.71973 0 14.1455 0.959961 19.9385 2.94141
c7.16699 2.73047 15.3584 4.77832 17.7471 4.77832c7.50879 0 5.46094 -5.80176 -2.73047 -7.84961c-13.0254 -4.3418 -2.50098 -5.09668 8.53223 -0.682617c6.82617 2.73047 16.041 5.11914 20.4785 5.11914c4.77734 0 13.9932 2.38965 21.1602 5.46094
c5.86816 2.42871 10.2969 3.44727 13.1172 3.44727c2.36719 0 3.60059 -0.717773 3.60059 -1.92188c0 -2.19922 -4.11816 -6.02246 -12.9639 -10.0576c-8.53223 -3.75391 -19.1123 -9.21484 -23.5488 -12.6279c-7.50879 -5.46094 -7.50879 -5.46094 3.41211 -3.41309
c11.9453 2.04785 19.1133 -3.41309 8.87402 -6.82617c-18.7715 -6.14355 -24.915 -9.89746 -40.2725 -23.8906c-15.7002 -13.9932 -16.3828 -15.0166 -7.16797 -12.9688c8.53223 2.04785 6.82617 -0.341797 -12.2861 -17.748
c-26.2803 -24.2314 -39.5908 -41.6377 -42.3213 -55.6309c-2.04785 -9.55664 -1.70605 -10.5801 4.77832 -8.19141c3.75391 1.70605 12.9697 10.5801 20.4775 20.1367c7.50879 9.89746 18.4307 20.8184 24.2324 24.9141h10.2393v-2.04785
c-0.682617 -5.45996 -7.85059 -18.0879 -14.6758 -28.3271c-8.18359 -12.3701 -12.335 -22.0879 -12.335 -27.6133c0 -3.28418 1.4668 -5.08789 4.42383 -5.08789c0.990234 0 2.14844 0.202148 3.47363 0.619141c11.6045 3.41309 26.6211 11.6045 42.6621 22.8672
c13.6523 9.89746 15.0176 10.2383 26.9629 6.14355c8.05859 -3.02246 19.2109 -4.49902 31.8398 -4.49902c8.76367 0 18.2393 0.710938 27.8867 2.10938c12.2871 1.70703 16.7236 1.02441 23.8906 -4.77832c7.87793 -6.05957 16.832 -24.4932 16.832 -33.0918
c0 -2.9082 -6.08691 -67.1152 -8.98145 -68.2734c-2.04785 -0.682617 -7.16797 8.19141 -11.6045 19.7959c-7.45898 19.3379 -13.5762 25.9297 -28.8496 25.9297c-3.5957 0 -7.69922 -0.365234 -12.4473 -1.01562c-23.8906 -3.07129 -25.5977 -5.11914 -25.5977 -28.6689
c0 -11.2627 -1.02344 -20.4775 -2.04785 -20.4775c-1.02344 0 -6.14258 6.14355 -11.2627 13.6514c-7.95117 11.9277 -13.2402 17.4873 -18.6982 17.4873c-3.91211 0 -7.91211 -2.85645 -13.042 -8.27148c-5.80176 -6.14355 -15.0176 -18.0889 -20.8193 -26.6211
c-8.53223 -12.6279 -16.3818 -18.7715 -38.9072 -30.376c-15.4385 -8.05469 -29.7744 -15.4141 -29.7744 -16.2861c0 -4.31934 35.8018 -56.2764 44.1084 -63.9189c6.48438 -5.80176 7.50879 -5.80176 29.0107 1.02441c11.9453 4.0957 28.3271 8.53223 35.8359 9.55664
c7.50781 1.36523 14.6758 3.41211 15.3584 4.77734c2.01367 3.22168 3.19531 16.4219 3.19531 27.8271c0 7.92578 -0.570312 14.9854 -1.83008 17.2246c-2.04785 4.0957 -2.04785 6.14355 0 6.14355c6.14258 0 23.5488 -17.0654 34.4707 -34.1299
c7.80469 -12.4297 11.8301 -15.5918 17.5986 -15.5918c5.41211 0 12.3594 2.7832 25.4043 3.30469h16.041v17.4062c0 10.5576 -3.18066 20.7275 -3.18066 25.6201c0 0.466797 0.202148 0.685547 0.577148 0.685547c3.54102 0 22.4756 -19.5352 31.6143 -33.8145
c6.48438 -10.2383 11.9453 -14.6758 19.7949 -16.3818c6.14355 -1.02344 13.3105 -5.46094 16.3828 -10.2393c7.50781 -11.6035 22.5254 -57.3379 22.5254 -68.9414c0 -5.46094 3.75391 -15.3584 8.87402 -22.5254c9.89746 -15.0176 18.4297 -37.2021 18.4297 -49.1475
c0 -8.19043 0 -8.19043 -24.2324 -5.80176c-15.4512 1.51758 -27.668 2.30957 -39.3105 2.30957c-17.1602 0 -33.0723 -1.72168 -56.252 -5.38086c-20.1367 -3.07227 -44.3691 -5.80273 -54.2666 -5.80273h-18.0889v-12.2861
c0.665039 -3.92285 1.10938 -7.22363 1.10938 -10.085c0 -11.8252 -7.59766 -16.1328 -38.6523 -25.752c-19.1123 -5.80176 -39.249 -12.9688 -45.0508 -15.6992c-15.6992 -7.84961 -70.6484 -49.8291 -83.6182 -64.1641
c-19.7949 -21.1602 -61.0918 -52.5596 -85.665 -65.1875c-14.7266 -7.36328 -25.4326 -11.4844 -28.7617 -11.4844c-0.716797 0 -1.09082 0.19043 -1.09082 0.581055c0 0.738281 1.34277 2.19141 4.25488 4.41895c3.99805 2.99902 5.83008 4.97266 5.83008 5.97363
c0 0.521484 -0.498047 0.779297 -1.44629 0.779297c-3.44434 0 -12.8291 -3.3916 -25.8848 -9.8252c-15.3672 -7.77539 -26.0137 -11.9355 -28.5625 -11.9355c-0.387695 0 -0.588867 0.0966797 -0.588867 0.291992c0 0.884766 4.1123 3.7959 13.4512 8.91309
c19.7949 10.9219 49.4883 31.0586 49.4883 33.4473c0 1.02441 -3.07227 0 -6.48438 -2.04785c-4.63184 -2.40137 -8.5957 -3.42383 -11.6631 -3.42383c-4.43848 0 -7.00098 2.13867 -7.00098 5.33398c0 3.38477 2.87598 7.95508 9.44824 12.4248
c13.3105 9.21484 15.0176 13.6514 6.48535 16.7236c-5.12012 1.70605 -4.4375 3.07129 5.46094 7.84961c10.2383 5.46094 10.9209 7.16699 8.87305 16.7236c-1.02344 6.14355 -2.04785 14.334 -2.38867 18.4297c0 6.14355 -2.04785 7.85059 -8.87402 7.85059
c-4.77832 0 -18.792 5.38672 -31.3994 7.50781c-3.91309 0.658203 -7.89746 0.87793 -11.917 0.87793c-8.03906 0 -16.2217 -0.87793 -24.2607 -0.87793c-7.50781 -5.80176 -27.3037 -19.4541 -44.709 -25.9385c-34.6426 -12.9053 -54.4209 -23.46 -83.96 -35.4951
c-8.87305 -4.09473 -16.7227 -9.55566 -17.7471 -12.2861c-5.46094 -17.0654 -6.14355 -17.748 -8.53223 -8.87402c-4.9707 19.0518 -2.85352 -25.4521 -10.5801 -13.3105c-1.70703 2.73047 -3.07227 8.53223 -3.07227 12.9697c0 6.8252 -1.02344 7.50781 -4.0957 4.43652
c-2.38867 -2.38867 -6.48438 -4.0957 -8.87305 -4.0957c-3.41309 0 -2.04785 3.07227 4.0957 8.53223c9.89746 9.21582 11.9453 16.3828 3.41309 12.9697c-5.12012 -2.04785 -5.12012 -1.36523 -0.341797 6.14355c2.73047 4.43652 5.80176 19.7949 6.82617 33.7881
c1.70605 22.1846 18.4297 87.0303 30.0342 116.724c0.921875 2.21289 1.46973 4.07617 1.46973 6.08301c0 5.4209 -4.00391 11.8818 -15.4629 29.0703c-9.15234 13.7285 -16.4258 25.5771 -16.4258 27.4551c0 1.86719 38.3652 -22.335 38.6094 -22.335
c0.363281 0 0.539062 0.165039 0.539062 0.484375c0 3.88477 -26.0244 30.543 -57.877 59.2422c-19.8438 17.5293 -35.2002 33.1348 -35.2002 35.0156c0 2.33594 19.3955 -10.3574 21.8896 -11.125c4.0957 -1.02344 12.6289 -6.14355 18.7715 -10.9219
c6.48535 -5.45996 4.0957 -2.04688 -5.80176 8.5332c-8.92578 8.9248 -16.8994 19.8877 -14.4111 19.8877c4.01855 0 46.6523 -29.4443 48.8818 -29.4443zM375.427 125.256c-7.37207 -4.36816 -22.6064 -8.7373 -28.4062 -8.7373
c-1.4502 0 -2.31055 0.273438 -2.31055 0.887695c0 2.61816 30.9326 10.083 33.4473 10.9219c3.07129 1.02344 2.04785 -0.341797 -2.73047 -3.07227zM143.345 701.706c0 -1.09375 -0.770508 -1.69629 -2.8291 -1.69629c-4.36621 0 -14.5225 2.71094 -35.3965 9.20508
c-21.1934 6.66016 -32.001 11.0537 -32.001 12.8955c0 0.65332 1.35645 0.986328 4.08887 0.986328c2.59668 0 6.43457 -0.300781 11.5303 -0.912109c17.4062 -2.38965 54.6074 -16.3828 54.6074 -20.4785zM720.819 869.625
c-2.04785 -2.04785 -13.6523 -4.4375 -25.2559 -5.12012c-2.53125 -0.108398 -4.70996 -0.15918 -6.54785 -0.15918c-5.21387 0 -7.68652 0.410156 -7.68652 1.08203c0 1.32715 9.64355 3.6748 26.8623 5.90332c12.9688 2.04785 16.041 1.70605 12.6279 -1.70605z
M553.584 321.502c13.3887 -3.34766 18.6934 -6.08301 29.8516 -6.08301c2.9707 0 6.35645 0.194336 10.4209 0.62207c14.501 2.03516 29.9502 13.1729 29.9502 18.7119c0 1.8916 -1.80176 3.13086 -6.05957 3.13086c-4.09473 0 -15.0166 3.41309 -24.2314 7.16699h-17.0654
v0.341797c-4.0957 -3.75391 -20.1357 -9.89746 -26.2793 -13.6523h-11.2627z" />
</svg>
