<?xml version="1.0" standalone="no"?>
<!DOCTYPE svg PUBLIC "-//W3C//DTD SVG 1.1//EN" "http://www.w3.org/Graphics/SVG/1.1/DTD/svg11.dtd" >
<svg xmlns="http://www.w3.org/2000/svg" xmlns:xlink="http://www.w3.org/1999/xlink" version="1.1" viewBox="-10 0 1010 1000">
   <path fill="currentColor"
d="M624.71 313.233c0 5.39062 6.05664 15.0713 6.05664 22.668h85.1367c2.76855 -1.73145 11.0742 -26.6475 11.0742 -32.7051c0 -2.42188 -0.518555 -7.61426 -1.38379 -11.4199v-6.92188h-25.0908c-23.1875 -0.519531 -23.707 -0.865234 -24.918 2.94141
c-1.55762 5.19141 -7.0957 12.2861 -8.13379 10.5557c-3.7373 -6.23535 -3.66797 -25.4814 -11.5938 -3.28809c-3.14746 8.81055 -9.62988 -7.7168 -11.4199 -11.0742h-134.973c-1.16992 3.89551 -5.9873 28.2373 -9.69141 30.4551
c-1.90234 1.21191 -4.84473 -7.09473 -4.84473 -14.0166c0 -9.51758 -2.76855 -14.708 -7.78711 -14.708c-3.11426 0 -4.32617 0.864258 -4.32617 3.28809c0 3.38672 -7.60156 16.4648 -11.5938 11.248c-1.21094 -1.73145 -2.24902 -4.67383 -2.24902 -6.57617
c0 -7.78711 -1.90332 -8.30566 -24.3994 -8.30566c-11.7666 0 -22.668 0.171875 -24.0518 0.171875c-5.9082 0.65918 -7.30176 16.9014 -11.8711 16.9014c-1.7666 0 -4.00684 -2.42578 -7.16504 -9.11328v-7.61426h-17.4766c-9.51758 0 -13.6699 0.692383 -13.6699 2.07617
c0 1.55762 -0.519531 1.55762 -2.07715 0c-1.21094 -1.21191 -6.9209 -2.07617 -13.8428 -2.07617c-10.21 0 -12.1133 0.518555 -16.0938 4.49902c-5.01758 5.01758 -7.78613 4.84473 -10.3818 -0.692383c-0.865234 -2.07617 -2.94141 -3.80664 -4.32617 -3.80664
c-2.42188 0 -4.32617 1.90234 -13.6699 13.8428v0.865234c-2.24902 -1.90332 -12.1133 -6.05566 -13.498 -9.1709c-2.24902 -5.36426 -2.5957 -5.53711 -12.458 -5.53711h-10.21v6.22852c-0.865234 4.32715 -2.94141 5.88379 -4.67188 5.19238
c-3.11426 -1.03906 -9.51758 12.6318 -9.51758 19.8994c0 2.76855 -0.692383 5.01855 -1.73047 5.01855c-1.73047 0 -5.01758 -10.0371 -8.65234 -26.4766v-9.8623h-22.668c-2.76953 9.17188 -6.05566 16.958 -9.17188 9.69043
c-6.75879 -15.8877 -14.6396 9.01855 -17.6494 12.458c-1.38477 1.21191 -2.42285 3.11523 -2.42285 3.98047s-0.692383 1.55762 -1.73047 1.55762c-0.865234 0 -1.73047 -1.21191 -1.73047 -2.76855c0 -2.42285 -5.01855 -15.2275 -8.47852 -21.458
c-1.21191 -2.07617 -6.05664 -2.5957 -26.8223 -2.5957c-13.8438 0 -25.2637 -0.518555 -25.2637 -1.03809c0 -1.55664 16.4385 -21.9756 29.7637 -36.5117c32.7051 -37.1416 90.5811 -80.5166 145.874 -104.517c42.2148 -18.2998 106.381 -39.4521 175.733 -39.4521
c13.0869 0 26.3594 0.75293 39.7031 2.4209c47.4697 5.77734 87.3281 17.5596 119.918 31.8398c4.32617 1.90332 6.22949 2.25 5.36426 0.865234c0 0 -69.9082 -70.3213 -69.9082 -70.6016c0 -0.265625 6.08496 -0.376953 16.4814 -0.376953
c50.9053 0 205.172 2.64844 254.491 2.64844c2.54102 0 4.80371 -0.00683594 6.75879 -0.0214844c16.7412 -0.0634766 32.5762 -0.104492 46.0146 -0.104492c23.2314 0 39.3008 0.121094 40.5068 0.450195c2.24707 0.591797 3.03906 1.26367 3.03906 10.7969
c0 4.41699 -0.169922 10.7363 -0.444336 19.832c-2.4707 78.3281 -3.45996 241.769 -3.45996 317.359c0 2.24805 -0.865234 3.97949 -1.73047 3.97949c-0.532227 0 -72.4629 -68.874 -73.5342 -68.874c-2.1875 0 14.1836 42.3232 15.3926 46.7246
c8.99707 30.5869 16.2959 57.2188 17.8223 107.632v30.1084c-5.53711 -0.691406 -13.3242 -0.171875 -17.1309 3.46191v-0.34668c-0.866211 -2.5957 -8.30566 -5.88281 -8.30566 -7.26758c0 -1.38379 -1.38379 -2.42188 -3.11523 -2.42188
c-2.94043 0 -6.40234 5.36426 -10.7285 16.7842c-2.25 5.70996 -6.92188 7.78711 -6.92188 3.11523c0 -1.38477 -0.864258 -2.5957 -1.90234 -2.5957c-0.866211 0 -5.36523 -3.80762 -9.86426 -8.65234v-8.47949h-29.5898
c-20.5918 -0.34668 -21.457 -1.03809 -23.8799 2.76953v-0.519531c-4.46289 -5.51074 -24.3623 -5.60938 -27.5137 0.692383c-2.46289 4.9248 -8.16602 10.3555 -10.7285 15.0547c-3.46973 6.59082 -5.53711 -8.35156 -5.53711 -10.9014
c0 -8.13379 -2.07617 -9.51758 -12.8047 -8.65234c-5.36523 0.518555 -9.69141 0.172852 -9.69141 0.172852c0 -0.345703 1.73145 -3.80664 3.98047 -7.61426v-9.86328c-3.28809 -2.59473 -3.98047 -4.15234 -2.94141 -7.95996
c1.03809 -4.67188 1.55664 -4.84473 8.30566 -3.97949c6.9209 1.03906 7.44043 0.692383 10.5557 -5.01855v-14.0166c-4.15332 -4.49805 -13.8428 -9.5166 -15.9199 -11.4199c-5.88281 -4.8457 -4.84473 -6.05664 4.3252 -4.5
c7.65332 1.17773 27.1494 5.54199 29.9375 -0.864258c1.38379 -2.76953 1.38379 -6.57617 0.172852 -12.1133c-1.9043 -8.8252 -1.38477 -9.34473 4.67188 -5.19043c4.32617 3.11426 3.63379 3.63379 10.7285 -7.61426v-38.416h14.3633
c7.09375 0.34668 8.47852 0.34668 10.9004 -3.80664c2.97559 -4.76172 -0.0634766 -10.209 -3.80664 -10.209c-2.76855 0.171875 -6.05566 -2.25 -6.05566 -4.32617c0 -1.38477 1.90332 -2.42383 4.84375 -2.5957c22.2168 -0.5 21.2764 -10.7207 30.6299 -24.7461
c2.42188 -3.63281 3.97949 -7.2666 3.11426 -7.95996c-4.06543 -3.4541 -10.3945 -4.78906 -17.0303 -4.78906c-7.99512 0 -16.4365 1.9375 -21.9043 4.44336c-9.78418 4.8916 -22.3652 -0.0546875 -29.0713 7.44141c-7.63184 8.39453 -27.6865 -0.519531 -27.6865 16.6123
c0 7.61328 -2.76855 12.6318 -6.92188 12.6318c-2.62207 0 -3.53418 1.58008 -3.53418 3.98535c0 5.5 4.76855 15.3154 4.76855 20.417c0 2.00684 -0.737305 3.28418 -2.79199 3.28418c-4.34277 0 -4.65527 4.24512 -8.99805 2.94141
c-7.02344 -1.91504 1.67285 5.88574 0.692383 8.82617c-0.34668 1.72949 1.21191 4.84375 3.63379 7.09375c3.73926 3.52734 5.25293 5.53516 5.25293 6.48633c0 0.481445 -0.388672 0.692383 -1.07227 0.692383c-4.9668 0 -25.5195 -11.1025 -26.3291 -10.293
c-0.34668 0.345703 -4.8457 7.78613 -10.0371 16.2656v20.5928c6.74805 6.57422 1.03906 8.82422 -9.1709 8.82422l-24.918 27.8604l-16.4395 27.6855h-14.708c-12.6328 -0.692383 -14.8818 -1.03809 -16.959 1.73145c-2.07617 2.94141 -2.42188 2.94141 -4.49902 0
c-1.73047 -2.42285 -4.49902 -2.76953 -16.6123 -2.42285h-14.5342v8.13281c-2.94141 4.32617 -11.7676 7.95996 -12.8057 8.30664c-1.03809 0.345703 -5.19141 -3.63477 -9.17188 -8.82617c-7.2666 -9.5166 -7.44043 -9.68945 -16.4385 -9.68945
c-6.74805 0 -9.69043 0.865234 -12.1123 3.45996c-3.11523 3.46191 -3.11523 3.46191 -8.47949 0c-4.32812 -2.65234 -15.418 -3.61523 -44.0859 -3.61523c-6.85938 0 -14.7256 0.0546875 -23.7461 0.155273v10.3818c0 5.96777 -12.8057 11.9404 -12.8057 13.8438
s-0.692383 3.45996 -1.55664 3.45996c-2.01367 0 -3.54297 -4.06445 -3.63379 -9.5166c-2.42383 2.94238 -8.65234 7.44043 -8.65234 10.3828c0 7.44043 5.01758 25.6104 7.44043 27.168c1.21191 0.691406 12.1123 1.20996 24.5723 1.03809
c22.3223 -0.519531 22.3223 -0.519531 23.3604 -4.8457c1.38379 -5.36426 6.05566 -5.01855 10.7285 1.03809c2.94141 3.63379 4.67285 4.15332 15.0547 4.15332c16.6074 0 21.4854 -8.65234 36.3389 -8.65234c2.5957 0 7.44043 1.9043 10.9014 4.32617
c3.97266 2.73145 7.2998 4.14844 10.292 4.14844c5.35059 0 9.63281 -4.53027 14.626 -14.1846c4.34668 -9.12793 5.58008 -10.917 6.74805 3.11426c1.38574 12.9785 2.76953 13.8438 18.1699 12.6318c4.67188 -0.171875 8.65234 0 8.65234 0.519531
c0 1.57227 -12.1123 21.5928 -12.1123 24.0527c0 5.16602 16.7129 24.5703 16.7129 28.5166c0 0.453125 -0.220703 0.703125 -0.712891 0.703125c-1.06543 0 -3.40137 -1.16699 -7.52148 -3.95605c-6.74902 -4.67188 -19.0352 -8.47852 -20.7646 -6.5752
c-1.73047 2.07715 -22.3223 36.8574 -22.3223 37.7236c0 0.446289 15.5723 25.3115 15.5723 25.6104c0 0.691406 -7.95996 1.90332 -25.0898 3.80664c-11.248 1.38477 -13.3242 3.11426 -12.9785 11.7666c0.849609 18.9961 1.93652 15.2842 -8.47949 17.4775
c-4.32617 1.03809 -7.09375 3.46094 -11.5938 10.5547c-8.30566 13.1523 -8.47852 13.498 -2.59473 19.0352c2.94043 2.76855 5.36426 5.71094 5.36426 6.40234c0 0.692383 -2.42383 3.80664 -5.36426 6.92188v23.3604c0.691406 9.69043 -3.63379 17.6504 -4.32617 17.6504
c-2.07422 0 -8.74414 -9.18652 -11.0752 -5.19043c-1.21094 1.90234 -2.94238 0.864258 -8.30566 -5.01953v-7.44043l-13.1514 10.5557c-8.39453 13.5928 -8.1709 11.3691 -15.9199 -0.865234c-3.28711 -5.19043 -7.09473 -9.34375 -8.47949 -9.34375
c-2.85449 0 -14.9854 12.1133 -17.6494 12.1133c-3.21289 0 -14.6328 16.1816 -16.4395 18.1689c-1.55762 1.90332 -4.84473 5.70996 -7.09473 8.47949v13.8428c6.25098 10.2969 15.1436 22.5908 21.1113 32.5312c2.24902 3.63379 4.67188 6.57617 5.70996 6.57617
c2.42871 0 17.4941 -15.5742 20.7646 -15.5742c4.15332 0 3.98047 0.692383 -2.07617 11.5938c-2.94141 5.01855 -4.15234 9.17188 -4.15234 9.17188c0.518555 0 -0.519531 2.76855 -2.5957 6.05664v22.8418c5.53613 9.34375 18.3418 18.5156 19.7266 20.418
c2.5957 3.28809 2.5957 3.28809 5.88379 0c3.63379 -3.63379 20.9375 -31.666 20.9375 -33.7422c0 -0.885742 -14.498 -17.5049 -13.1514 -18.5156c0.519531 -0.519531 5.2207 2.42188 11.0752 2.42188h10.209v-6.74805l12.1133 -10.21v-11.5938
c-2.07617 -6.40234 -9.51758 -14.708 -11.4199 -18.5146c-4.32617 -8.30664 -2.59668 -11.0752 4.3252 -6.74902c5.36426 3.46094 16.0928 14.5352 16.2666 16.6113c0 3.11523 2.94043 1.03809 5.88281 -4.32617c3.11035 -5.29004 13.2461 -18.0762 13.2461 -26.3701
c0 -3.75879 -8.92676 -17.4043 -7.70898 -18.6201c2.5459 -1.69727 17.5557 6.05762 19.9004 2.25c15.3623 -24.7686 19.5059 -32.2109 19.5059 -34.9365c0 -4.66113 3.80762 -7.39746 0.393555 -12.6504c-3.46094 -5.19141 -3.80762 -18.1689 -0.519531 -18.1689
c6.32324 0 10.6758 15.1328 17.9961 4.15234c4.08789 -6.4209 -5.30762 -30.0879 6.57617 -22.4961c7.38379 4.92578 5.79492 1.47559 11.248 -7.61328c3.18457 -5.30957 16.79 -22.3828 16.79 -29.3945c0 -3.70703 -22.9736 -26.999 -23.7119 -29.959
c0 -2.35547 19.0342 1.41602 19.0342 -5.53711c0 -5.01855 1.21191 -5.36426 6.57617 -1.55762c2.42285 1.73145 6.74902 2.42285 12.6318 2.07715c7.95996 -0.519531 8.99805 -1.03809 12.2861 -6.92188c3.46094 -6.05664 3.63379 -6.74805 0.865234 -9.69043
c-3.95898 -4.39746 -0.595703 -3.4248 -2.76855 -9.51758v-3.45996h15.0547v-12.6328c4.32617 -7.44043 15.9199 -14.5352 15.9199 -15.5732c0 -4.77832 2.92285 -6.08887 8.55176 -6.08887c6.83887 0 17.6729 1.93555 32.1123 1.93555
c2.66211 0 5.11523 0.00292969 7.37598 0.00292969c27.8613 0 26.5498 -0.444336 28.79 -12.2891c1.25586 -6.59277 6.22949 -8.64258 6.22949 -13.8428c0 -1.9043 1.03809 -3.28809 2.42285 -3.28809c1.55762 0 3.28809 3.46094 4.49902 8.99805
c2.13184 9.35059 6.4375 19.6055 10.127 19.6055c1.68652 0 3.24512 -2.14258 4.4082 -7.49316c1.03906 -3.97949 2.5957 -7.26758 3.63379 -7.26758c1.03906 0 3.63379 3.46094 5.71094 7.78711c4.15234 8.8252 0.865234 7.95996 34.9541 8.13281
c5.20996 0.0292969 9.51367 0.0585938 13.085 0.0585938c17.543 0 17.4082 -0.708008 20.1396 -5.5957c3.80664 -6.74902 8.13184 -6.74902 9.5166 0c0.865234 5.01855 1.21191 5.19141 11.0752 5.19141c5.70996 0 10.21 0.345703 10.21 0.691406
c0 0.34668 -1.55762 8.30664 -3.46191 17.6504c-9.54102 48.9043 -27.7061 95.5488 -49.4902 132.204c-25.6094 43.0879 -66.9658 89.8096 -109.016 122.86c-62.3193 47.9297 -159.355 87.8965 -268.798 87.8965c-11.5586 0 -23.2549 -0.445312 -35.0645 -1.375
c-80.291 -6.57617 -161.794 -41.7041 -230.838 -99.5c-44.1445 -37.2139 -85.6006 -89.3799 -111.438 -145.354c-2.94141 -6.74902 -7.26758 -16.0938 -9.34375 -20.7656c-9.51758 -20.5918 -23.1875 -71.6396 -24.0537 -89.8086v-8.30566h31.1484v-5.19141
c0.550781 -2.48047 2.7002 -15.2285 3.80566 -15.2285c1.03906 0 1.9043 0.692383 1.9043 1.38477s3.63379 5.36523 7.95996 10.3828c6.22949 6.92188 9.17188 8.99805 12.9775 8.99805c3.28809 0 5.01855 -0.865234 5.01855 -2.5957
c0 -1.38379 0.865234 -2.5957 1.73145 -2.5957c1.88086 0 13.6504 -12.1123 15.2266 -12.1123c0.692383 0 5.01855 3.53809 5.01855 8.65137v8.65234h33.7432c50.7012 0 78.9072 0.865234 79.5996 1.73047c0.518555 0.519531 2.42188 3.63379 4.49805 7.09473
c4.5 7.44141 10.21 9.51758 18.8623 6.5752c10.5459 -3.3291 7.0332 0.316406 2.07617 8.47949c-5.01855 8.13281 -5.36426 9.34473 -3.28809 14.1885c5.01758 11.8057 12.0459 2.25879 23.0156 1.03906c4.49805 -0.692383 10.209 -2.42285 12.9775 -3.80664
c12.8047 -6.74902 10.0361 1.72949 -3.63379 10.3818c-9.86328 6.40332 -19.208 15.9199 -17.8232 18.1699c1.03809 1.55762 15.9199 4.15332 24.0537 4.15332c10.4062 0 -1.06836 12.7354 -3.11621 17.6504c-1 2.68848 -1.45215 5.06348 -1.45215 7.1709
c0 12.3721 15.5684 15.5391 27.0625 19.1309c5.53809 1.73047 5.36426 1.03809 3.98047 19.3809c-1.03809 13.6699 -0.865234 15.0537 3.28711 21.2842c2.94238 4.49902 5.71094 6.5752 8.47949 6.5752c6.40234 0 10.209 5.53809 8.99902 13.3242
c-1.03906 5.36426 5.06738 21.2842 10.5557 21.2842c1.97168 0 13.9424 10.877 15.9189 9.69043c2.94141 -1.90332 3.63379 1.90332 1.90332 11.0752c-1.9873 10.1885 2.34668 23.1396 9.86328 19.3799c1.73047 -0.865234 4.67285 -1.03809 6.57617 -0.345703
c8.52051 2.9502 15.126 -3.82129 15.7461 -11.9395c0.604492 -3.92188 16.2666 -30.2627 16.2666 -34.4365c0 -1.90234 -2.25 -6.40234 -5.19141 -10.3818c-4.84473 -6.74805 -5.36426 -6.92188 -10.7285 -5.36426c-7.09473 1.9043 -22.1504 2.07617 -22.1504 0
c0 -1.29102 15.5742 -21.4551 15.5742 -22.4961c0 -10.9844 -21.6143 1.88281 -12.9775 -11.0742c2.76855 -4.32617 2.76855 -4.8457 -2.07715 -13.3242c-3.45996 -6.05566 -5.53711 -8.30566 -7.43945 -7.61328c-10.7295 4.53906 -8.20996 1.87012 -8.20996 -9.41211
c0 -12.7275 -9.99414 -24.5488 -14.9785 -33.1562c-1.73047 -3.28809 -8.99805 -15.2275 -16.2656 -26.4756l-13.1514 -20.5918v1.21094c-8.87012 1.15625 -15.9307 -2.45996 -20.5928 -1.38379c-3.11426 0.864258 -2.42188 -0.519531 3.80762 -6.92188
c9.8623 -10.3223 6.37988 -10.623 2.24902 -18.8613c-0.345703 -0.692383 6.92188 -0.692383 16.2656 -0.34668c5.55762 0.320312 9.96094 0.529297 13.5225 0.529297c11.8535 0 14.3926 -2.31543 19.1836 -10.5654c6.13281 -10.4619 7.21777 -13.6699 12.1123 -1.21191
c3.97949 10.21 7.0957 12.9785 13.3242 11.4209c6.50684 -1.625 5.17383 -12.7891 9.17188 -16.7842c2.09277 -2.39258 3.00781 -12.1201 3.00781 -21.0029c0 -7.10645 -0.585938 -13.6729 -1.62402 -15.5098v-5.01758h-23.3604
c-19.0342 0 -20.4199 0.171875 -20.4199 3.45996c0 9.77832 -16.6602 3.10547 -17.3037 -1.38379c0 -1.55762 -2.42188 -2.07617 -8.13281 -1.73047v9.17188c-0.864258 4.67188 -11.7666 8.99805 -12.1133 9.34375c-1.03809 1.38477 -7.61328 -5.71094 -11.2471 -12.2861
c-4.15332 -7.09473 -7.78711 -8.47949 -21.2842 -7.61328v0.691406l-17.8232 -15.4014c-7.57422 -12.7969 -7.7959 -19.2402 -17.9961 -14.708c-14.1299 7.41797 -0.558594 -7.66016 -8.99805 -4.84473c-1.49121 0.40625 -20.9102 13.8682 -21.458 10.0361
c-0.345703 -1.55762 1.38477 -5.01758 3.98047 -7.61328c3.97949 -4.15332 4.67188 -6.05664 3.63379 -10.3828c-1.03809 -5.88379 0.692383 -10.5557 6.40234 -16.7852c4.67188 -5.19141 2.76953 -9.34375 -3.46094 -8.13281
c-6.83496 1.46484 -4.08105 -2.89941 -4.08105 -9.93945c0 -5.72656 -2.54102 -10.1152 -14.9541 -30.0332c-18.0635 -29.0957 -19.8643 -32.6982 -23.5283 -32.6982c-0.93457 0 -1.98926 0.234375 -3.46582 0.339844c-13.1299 1.24902 0.248047 -8.90137 -3.28809 -16.6123
c-3.63379 -7.0957 -7.26758 -13.1514 -8.47852 -14.1895c-2.42285 -2.07715 -6.74902 -12.2861 -5.88379 -13.8438c0.519531 -1.03809 7.09473 -1.73047 14.5361 -1.73047c14.708 0 14.0166 0.692383 20.9385 -16.0928c5.14844 -12.2324 10.5664 12.1768 14.8818 14.1895
c4.3252 1.90332 4.84375 1.55762 6.57422 -5.53711c1.55762 -6.22949 3.28809 -5.88379 6.74902 1.38379v6.05664h16.6123c21.6299 0 23.1875 -0.692383 26.6484 -10.5557c1.73047 -4.67188 3.63379 -8.47852 4.32617 -8.47852
c1.73047 0.171875 8.99805 11.9395 8.99805 14.8818c0 1.90234 3.46094 2.42188 17.1318 2.42188h17.1299v-6.40234h12.6328c6.40234 6.22949 13.1514 6.40234 26.9951 6.40234c11.4199 0 14.708 -0.692383 18.3418 -3.45996
c8.05176 -6.44336 17.8877 8.1377 21.2842 -6.57617c1.55762 -5.88379 9.69043 -17.8232 11.7666 -17.1318c0.865234 0.34668 3.63379 12.9795 6.22949 20.0742h170.792c7.78809 -0.172852 8.13379 5.01758 17.4775 -17.6504
c2.25 -5.01953 5.53711 -4.8457 5.53711 0.345703zM766.604 297.832v-13.8428h-27.5137v6.40234c-3.98047 12.8047 -6.74805 20.4189 -5.01758 22.6689c1.03809 1.03809 2.42188 4.67188 3.11426 7.78613c1.25879 -2.8623 5.7373 -6.11035 6.40234 -7.44043
c0.972656 -1.94629 4.24316 18.1934 4.67188 18.5156c2.10059 2.09668 25.915 -8.38184 12.2861 2.5957c-2.13574 1.73438 -13.5254 12.877 -10.9014 14.1885c10.4199 6.6709 11.4453 1.88672 22.1494 0.173828c16.042 -2.6748 31.8184 -8.46973 51.3936 -13.8438
c9.17871 -2.51855 16.6445 -3.94238 18.2598 -3.94238c4.47266 0 19.1426 -28.8887 23.79 -35.8574c2.94043 -4.15234 5.19043 -8.30566 5.19043 -9.34375c0 -1.38477 -18.9375 -2.04102 -39.2393 -2.04102c-22.8301 0 -47.3838 0.830078 -48.666 2.38672
c-4.07715 4.75488 -6.26465 25.4375 -12.459 25.4375c-0.692383 0 -3.46094 -6.13379 -3.46094 -13.8438zM72.707 529.189v-6.40332c-5.01758 0 -17.3037 0.866211 -17.3037 1.9043c0 0.865234 -0.693359 1.38379 -1.38574 0.865234
c-0.712891 -0.427734 -1.0293 -3.2334 -1.0293 -7.62207c0 -16.915 4.7002 -57.3369 9.50879 -75.6113c9.86426 -38.415 19.7266 -65.9287 34.0898 -95.6924c3.97949 -7.95996 8.99805 -12.1123 8.99805 -7.09375c0 1.03809 3.46094 7.09375 7.61426 13.6699v11.7666
h23.3604c8.65137 0.692383 15.7461 2.94141 15.7461 3.28711c0 0.519531 -2.24902 3.11621 -5.19043 5.71094c-3.63379 3.28809 -5.19141 6.5752 -5.19141 10.0371c0 2.94043 -0.692383 5.88281 -1.73047 6.40234c-3.11523 1.90332 -1.9043 6.05566 4.49805 16.0918
c8.74805 13.7646 14.8232 19.666 22.4648 19.666c3.69531 0 7.75586 -1.37988 12.6631 -3.91797c8.13379 -4.15332 14.5361 -4.15332 10.3828 0.171875c-5.27051 5.27051 -11.9893 18.877 -11.9893 30.9209c0 4.21582 0.822266 8.23926 2.81836 11.6475
c5.53613 9.51758 7.61426 10.3838 14.5352 7.0957c4.84473 -2.42285 5.19141 -2.42285 5.19141 0.345703c0 3.12402 -6.92188 11.0166 -6.92188 12.9785c0 0.191406 22.4951 38.0049 22.4951 38.2422c0 0.519531 -2.76758 0.865234 -6.05566 0.865234
c-6.57617 0 -6.92188 0.864258 -4.32617 7.95996c4.90234 12.2549 -6.63086 1.55664 -8.8252 -4.15332c-0.865234 -2.07617 -2.76855 -3.80664 -4.32617 -3.80664c-2.29785 0 -11.0742 21.2861 -11.0742 25.6104c0 3.11426 -0.692383 5.53613 -1.73047 5.53613
c-2.42383 0 -12.2861 -12.8047 -17.4775 -23.0137v-8.99805h-36.166v5.19141c-3.57227 7.40137 -14.0928 8.5166 -15.5742 0c-0.864258 -4.8457 -1.38379 -5.19141 -9.8623 -5.71094v-0.518555l-15.0557 11.7666c-3.45996 6.40234 -6.22949 12.6318 -6.22949 13.6709
c0 1.03809 -1.03809 2.94043 -2.42188 3.97852c-3.87109 3.16602 -4.49902 -18.6172 -4.49902 -22.8408z" />
</svg>
