<?xml version="1.0" standalone="no"?>
<!DOCTYPE svg PUBLIC "-//W3C//DTD SVG 1.1//EN" "http://www.w3.org/Graphics/SVG/1.1/DTD/svg11.dtd" >
<svg xmlns="http://www.w3.org/2000/svg" xmlns:xlink="http://www.w3.org/1999/xlink" version="1.1" viewBox="-10 0 1010 1000">
   <path fill="currentColor"
d="M55.5508 495.2v-430.2h888.898v291.601c-1.20117 162.3 -5.69922 293.999 -7.19922 297c-1.5 2.7002 -2.69922 67.1992 -2.69922 143.1v138.3h-43.2012c-27 0 -44.0996 1.2002 -45.2988 3c-1.20801 1.87695 -27.417 2.73535 -56.4883 2.73535
c-35.957 0 -76.292 -1.3125 -79.1133 -3.63477c-7.17676 -5.13086 -22.79 6.81055 -26.6992 0.299805c-0.898438 -1.2002 -141.6 -2.40039 -313.199 -2.40039c-281.102 0 -311.4 -0.599609 -313.199 -4.7998c-0.900391 -2.7002 -1.80078 -198.3 -1.80078 -435z
M937.85 70.7002c-4.92285 -1.125 -150.107 -1.65723 -316.368 -1.65723c-188.36 0 -403.774 0.682617 -472.931 1.95703h-88.5v178.5c-0.266602 49.7949 -0.454102 88.376 -0.454102 118.021c0 70.5488 1.0625 90.4795 4.65332 90.4795
c0.900391 0 3.90039 -4.5 6.30078 -9.90039c7.64844 -18.082 3.46973 -351.191 9.59961 -358.2c2.09766 -2.74219 240.773 -4.18262 461.445 -4.18262c189.686 0 366.068 1.06445 367.455 3.2832c0.900391 1.5 4.5 3 7.80078 3c5.39844 0 5.69922 2.7002 5.69922 55.2002
c0 33.9004 -1.19922 56.0996 -3 57.2998c-2.02539 1.30176 -3.00488 26.458 -3.00488 53.0361c0 28.542 1.12891 58.7246 3.30371 62.7637c1.50195 3.2998 3.90039 15.2998 4.80078 26.7002c1.5 16.8008 0.900391 22.2002 -3.59961 29.0996
c-11.6592 17.1494 -3.35645 469.304 -11.0996 493.501c-1.11133 3.70312 -1.23535 9.33594 -1.23535 15.2812c0 1.69531 0.0107422 3.41699 0.0107422 5.12598c0 9.57617 -0.31543 18.7725 -4.47656 20.9922c-3.94531 2.17676 -173.039 3.18164 -356.997 3.18164
c-221.63 0 -464.836 -1.45801 -466.804 -4.08105c-5.5 -5.50293 -4.11035 -336.513 -9.59766 -342c-1.80078 -1.7998 -10.502 -6.00098 -10.502 -9.30078v369.301c5.40039 2.7002 110.701 3.59961 437.701 3.89941c402.299 0 423.6 0 427.801 -5.10059
c9.00879 -11.0918 3.50684 -394.059 8.39844 -401.399c1.5 -1.5 3 -104.1 3.59961 -228v-226.8zM792.65 92.5996c-3.14941 -2.5498 -177.975 -3.82422 -352.537 -3.82422s-348.862 1.27441 -350.963 3.82422c-1.78516 2.4541 29.9375 3.24902 146.104 3.24902
c40.0596 0 90.1621 -0.0947266 152.396 -0.248047c31.5762 -0.0478516 60.7559 -0.0722656 87.5137 -0.0722656c142.046 0 215.867 0.705078 217.887 2.47168c2.09961 1.7998 31.5 2.69922 60.6748 2.69922s58.125 -0.899414 59.3252 -2.69922
c2.50195 -3.3418 -6.58789 -10.5107 -12 -6c-3.30078 2.7002 -5.69922 2.7002 -8.40039 0.599609zM880.551 92c0 -1.7998 -3.90039 -3 -8.69922 -3c-10.6055 0 -16.9023 6 -2.10156 6c6 0 10.8008 -1.5 10.8008 -3zM403.551 101c0 -1.7998 -13.8008 -3 -35.6992 -3
c-23.4668 0 -37.3672 1.69727 -37.3672 3.28613c0 1.39941 10.7695 2.71387 35.2656 2.71387c23.0996 0 37.8008 -1.19922 37.8008 -3zM147.65 108.8c-1.5 -3.89941 -6.59961 -4.7998 -27.5996 -4.7998h-25.5v25.2002c0 17.1416 1.79004 28.0693 6.29395 28.0693
c1.89746 0 4.27637 -1.93945 7.20605 -6.16992c4.5 -5.99902 5.09961 -6.2998 7.80078 -1.49902c3.89844 6.59961 18.5977 7.2002 24.8984 0.598633c6.30078 -6.2998 6 -9.89941 -1.80078 -18.5986c-4.19922 -4.5 -5.69922 -7.80078 -3.59961 -8.7002
c8.40039 -3 14.1016 -9.2998 12.3008 -14.1006zM298.25 108.2c-2.5127 -3.05273 -7.6709 -4.43848 -13.4775 -4.43848c-11.9785 0 -26.7217 5.89844 -26.7217 15.2383c0 6.39258 5.57031 9.61719 11.168 9.61719c5.65234 0 11.332 -3.28711 11.332 -9.91797
c0 -6.89844 4.79883 -7.49902 7.19922 -0.899414c3.30078 8.40039 2.09961 9.89941 -10.7988 16.2002c-9.03125 4.30957 -14.0127 5.79102 -17.6709 5.79102c-6.77637 0 -9.0127 -5.08203 -24.0303 -6.69141c-8.40039 -1.19922 -16.7988 -3.29883 -18.9004 -4.7998
c-3.85742 -3.28027 -14.1689 -5.31934 -22.873 -5.31934c-4.83008 0 -9.16406 0.62793 -11.627 2.01953c-4.79883 2.40039 -6.29883 5.7002 -5.69922 11.4004c0.599609 6.59961 2.70117 8.39941 10.8008 9c7.79883 0.899414 10.1992 -0.299805 12 -5.7002
c2.40039 -6 2.69922 -6.2998 7.79883 -0.899414c2.14941 2.0293 3.09277 3.75781 3.09277 5.21387c0 4.72754 -9.93945 6.59277 -20.8691 6.59277c-11.3379 0 -23.7422 -2.00684 -27.2236 -4.9082c-2.40039 -1.7998 -5.09961 -2.69922 -6.29883 -1.49902
c-0.538086 0.538086 -0.793945 1.11621 -0.793945 1.72559c0 7.19922 35.6699 18.6973 61.3936 18.9746c0.574219 0.00683594 1.14453 0.0107422 1.71191 0.0107422c23.4551 0 41.4756 -6.09473 65.7881 -21.9111c13.7988 -8.69922 16.8008 -12.2998 17.3984 -20.3994
c0.601562 -5.40039 -0.597656 -12.001 -2.69922 -14.4004zM222.35 188c-4.54883 0 -16.8008 15 -20.998 15c-4.5 0 -52.8008 48.5996 -52.8008 52.8008c0 7.99512 -22.4443 20.585 -6.90039 -1.80078c4.69238 -6.68262 6.95801 -25.9658 6.95801 -44.8203
c0 -20.9277 -2.79199 -41.3271 -8.15723 -43.3789c-6.30078 -2.40039 -9 0.298828 -4.5 4.79883c4.79883 4.7998 4.5 14.7002 -0.601562 21c-5.69922 7.50098 -7.19922 6.60059 -8.39844 -4.5c-0.900391 -8.39941 -1.80078 -9.59961 -9.90039 -9.59961
c-7.62109 0 -9.97461 1.80664 -9.97461 9.89453c0 9.28125 6.99023 31.6211 12.375 38.7061c1.49805 2.09961 3.59961 12.5996 4.5 23.3994c1.19922 16.2002 0.599609 20.7002 -3.90039 25.5c-5.70117 6.2998 -13.5 8.09961 -13.5 3c0 -1.80078 1.5 -3 3 -3
c5.09961 0 3.59961 -21 -1.5 -22.7998c-7.80078 -3.00098 -13.5 4.7998 -13.5 18.2998c0 13.7832 6.33008 22.21 16.1387 22.21c1.08008 0 2.20117 -0.102539 3.36133 -0.310547c4.19922 -0.899414 7.19922 -0.899414 6.89844 0.300781
c-2.39844 5.40039 -23.0977 48.2998 -28.1992 58.7998v-81.9004c-0.295898 -59.5254 -8.11328 -92.1318 -10.0977 -92.1318c-2.27734 0 -3.25195 56.9131 -3.25195 111.032c0 54.9004 1.0498 109.801 3.15039 111c1.80078 0.899414 3 -0.299805 3 -3
c0 -10.2334 6.03711 -16.5889 10.7988 -28.5c14.7012 -37.8008 35.4004 -75 58.8008 -106.5c6.59961 -9 57 -59.4004 66.3008 -66.8994c2.69922 -1.7998 5.69922 -3.60059 6.90039 -3.60059c0.898438 0 6.89844 -3.90039 12.8984 -8.40039
c6 -4.7998 15.3008 -10.499 20.4004 -12.8994c5.40039 -2.40039 9.90039 -5.10059 9.90039 -6.2998c0 -2.40039 24.5996 -14.4004 30.2988 -14.4004c2.40039 0 6.90039 -1.7998 10.2012 -4.2002c5.84766 -3.72168 24.8838 -6.70605 30 -10.7998
c2.96973 -1.98145 33.9658 -6.28906 36 -9c1.75488 -2.33984 61.1836 -7.875 63.5996 -9.59961c1.04102 -0.857422 6.31641 -1.22656 14.1572 -1.22656c30.583 0 100.192 5.62695 109.743 9.92578c4.80078 2.10059 26.0996 6.90039 60.5996 13.5
c10.8008 2.10059 21 4.80078 22.1992 6.2998c1.62793 1.62793 11.0068 2.35449 22.582 2.35449c18.292 0 42.0684 -1.81445 49.418 -4.75391c26.0996 -10.5 43.2012 -22.5 43.2012 -30.5996c0 -5.10059 -3 -4.80078 -10.2012 0.599609
c-8.09961 6 -14.6992 5.7002 -19.7988 -1.5c-5.10156 -7.19922 -11.4004 -7.5 -20.4004 -1.2002s-8.40039 13.2002 1.20117 13.2002c8.09961 0 9.48926 9 0.898438 9h-10.7988c-6.52148 3.47754 -22.9658 7.27051 -31.5293 7.27051
c-3.25488 0 -5.37109 -0.548828 -5.37109 -1.87012c0 -3.13086 10.2568 -13.6494 7.5 -17.1006c-2.70117 -4.5 -17.4004 -4.2002 -22.2012 0.299805c-2.39941 2.55078 -13.9492 3.8252 -26.8496 3.8252c-12.8994 0 -27.1494 -1.27441 -34.9492 -3.8252
c-14.4004 -4.5 -62.0996 -9.59961 -109.5 -11.7002c-4.35059 -0.172852 -8.84766 -0.257812 -13.4658 -0.257812c-35.5029 0 -78.1016 5.03223 -115.534 14.0586c-14.4004 3.60059 -17.0996 4.5 -39.9004 14.999c-7.79883 3.30078 -15.5996 6.30078 -17.4004 6.30078
c-1.79883 0 -7.5 3.2998 -12.5996 7.19922c-5.40039 4.20117 -13.5 8.40137 -18 9.60059c-4.79883 0.900391 -9.29883 3.89941 -10.1992 6.00098c-0.900391 2.39844 -2.70117 4.19922 -4.20117 4.19922c-3.59961 0 -21.8984 12.5996 -23.0996 15.6006
c-0.599609 1.49902 -2.70117 2.39941 -4.80078 2.39941zM328.551 328.399c0 3.78613 -15 15.9697 -15 20.7002c0 2.10059 -1.20117 3.90039 -2.40039 3.90039c-4.44727 0 -18.459 36.3184 -20.4004 40.1992c-4.06348 8.12793 -5.82031 32.9287 -10.7988 39.9014
c-2.76758 3.55762 -4.62402 41.1035 -4.62402 73.6855c0 16.8721 0.498047 32.4121 1.62402 41.2139c3.29883 23.7002 9 49.2002 16.5 72.3008c5.39844 16.7988 31.7988 69.8984 35.3984 71.0996c1.5 0.599609 2.70117 2.7002 2.70117 4.7998
c0 3.2998 13.8008 17.0996 36.5996 36.2998c8.70117 7.19922 45.5996 24.9004 56.6992 27c1.70703 0.325195 3.29883 0.476562 4.76953 0.476562c7.89746 0 12.3086 -4.36426 12.3086 -9.63965c0 -4.62109 -3.38574 -9.94043 -10.7773 -13.6367
c-7.85938 -3.66699 -11.1006 -9.29688 -13.5 0.299805c-1.0918 4.0293 -4.29688 5.82715 -8.66406 5.82715c-11.2383 0 -30.166 -11.9072 -40.5371 -28.3271c-13.3047 -20.9502 -15.9248 -28.541 -15.9248 -46.9805c0 -10.5479 0.325195 -27.332 0.325195 -28.9199
c-0.554688 -5.57129 -24.2988 0.244141 -24.2988 -1.7998c0 -3.59961 7.5 -15.2998 13.5 -21.2998c13.9775 -13.9766 21.3369 -27.8604 21.3369 -37.3506c0 -7.41602 -4.49414 -12.1494 -13.8369 -12.1494c-7.80078 0 -8.10156 -0.299805 -6.59961 -16.2002
c0.898438 -9.90039 0 -16.7998 -2.09961 -18c-1.80078 -1.2002 -3.30078 -4.5 -3.30078 -7.2002c0 -8.39941 -16.8008 -24.5996 -24.9004 -24.5996c-13.999 0 -10.7402 15 0.900391 15c2.69922 0 7.79883 3 11.0996 6.59961c4.38477 4.8916 6.68359 15.3779 6.68359 27.1396
c0 9.15918 -1.39355 19.0928 -4.2832 27.7607c-5.70117 16.2002 -4.19922 19.7998 4.5 12c7.5 -6.89941 11.6992 -3.60059 4.80078 4.2002c-2.70117 2.99902 -6.00195 10.5 -6.90039 16.499c-0.900391 6.00098 -3 11.7002 -4.20117 12.6006
c-3.59961 2.10059 -3.59961 23.1006 0 27c1.5 1.5 3.59961 8.7002 4.80078 16.2002v4.5c-6.7041 -8.45508 -11.7119 -10.6777 -11.7119 -54.0352c0 -31.3203 1.63574 -54.0879 3.6123 -56.0645c3.89844 -3.90039 4.79883 -14.1006 1.79883 -21.6006
c-2.69922 -7.2002 -9.59961 -5.69922 -10.7988 1.7998c-1.41016 10.5469 -16.1553 4.38379 -13.2012 16.2002c2.78516 10.9189 4.04004 20.1416 4.04004 26.4072c0 5.58008 -0.995117 8.81543 -2.78906 8.81543c-1.61621 0 -3.88086 -2.62402 -6.65137 -8.52246
c-3.12988 -6.70703 -4.25977 -14.415 -4.25977 -41.626c0 -9.2998 0.131836 -20.8779 0.361328 -35.4736c1.19922 -74.0996 1.19922 -74.4004 21.2988 -92.4004c26.7012 -23.7002 31.5 -28.8008 32.4004 -34.5c0.900391 -5.10059 -0.599609 -6 -10.1992 -5.10059
c-13.5 0.900391 -14.4004 -2.7002 -2.70117 -11.0996c5.75098 -4.10742 14.1133 -6.23535 20.8945 -6.23535c5.59961 0 10.1211 1.45117 11.207 4.43555c1.40723 3.28516 8.23242 4.74121 16.0254 4.74121c12.1445 0 26.6406 -3.53711 26.6406 -9.2041
c0 -1.13086 -0.577148 -2.34668 -1.86719 -3.63672c-6 -6.00098 -4.20117 -6.90039 11.0996 -6.00098c13.5 0.900391 15.9004 0.300781 24 -8.09961c5.10156 -5.09961 10.5 -9.2998 12 -9.2998c1.80078 0 2.40039 -2.09961 1.20117 -4.7998
c-1.20117 -3.59961 -5.40039 -4.5 -19.5 -3.59961c-17.4004 0.899414 -17.7012 0.598633 -16.8008 -6.60059c0.900391 -6.89941 -0.300781 -7.5 -11.7012 -8.40039c-8.09961 -0.599609 -15.2988 0.900391 -20.0996 3.90039
c-8.39844 5.7002 -13.7988 3.90039 -13.7988 -4.19922c0 -9.81152 15.3477 -15.165 42.2197 -15.165c2.70996 0 5.53809 0.0537109 8.47949 0.164062h28.8008v-7.2002c0.599609 -4.5 3 -8.09961 4.19922 -8.09961c7.87793 0 8.50684 17.6025 15.3008 21
c2.39844 0.899414 11.6992 5.39941 20.6992 9.89941c15.3008 7.50098 16.5 7.50098 20.0996 2.7002c2.09961 -2.7002 4.20117 -10.1992 4.20117 -16.5v-6.59961c4.49414 2.36621 10.5938 3.58691 16.3789 3.58691c9.14941 0 17.5146 -3.05371 17.5146 -9.46582
c0 -2.00781 -0.820312 -4.3457 -2.69434 -7.02148c-4.19922 -6.2998 -4.19922 -6.89941 3 -10.1992c10.5 -4.5 9.90039 -11.4004 -0.599609 -11.4004c-4.79883 0 -10.1992 -2.39941 -12.5996 -6c-2.40039 -3.2998 -6.30078 -6 -9 -6c-2.40039 0 -6.30078 2.7002 -8.40039 6
c-2.47363 4.00586 -6.79883 5.79102 -11.1387 5.79102c-6.71191 0 -13.4609 -4.26758 -13.4609 -11.1904c0 -2.71191 7.22266 -3.68262 17.123 -3.68262c21.1152 0 54.4102 4.41699 55.7754 5.78223c1.80078 1.7998 6.90039 3.2998 11.1016 3.2998
c11.458 0 18.2129 8.0127 29.3984 10.5c12.9023 2.69922 45.6016 24.2998 45.6016 30c0 2.39941 1.19922 4.5 2.40039 4.5c1.49805 0 4.19922 3.2998 5.99805 7.5c3.00195 6.90039 12.6016 10.7998 12.6016 5.10059c0 -5.04492 2.00488 -7.1416 5.36523 -7.1416
c14.3672 0 53.5068 38.3311 66.6348 48.541c20.5117 15.9551 49.0918 40.5156 66.2988 52.5c15.7383 10.6777 22.5293 10.2637 37.502 16.5c8.97168 2.99121 13.3623 -3 21.5996 -3c16.7402 0 38.5889 -14.3203 41.6992 -30.8994c0.900391 -4.5 3 -9 4.20117 -9.90039
c1.72461 -1.00684 2.55371 -8.69336 2.55371 -16.6924c0 -8.69434 -0.979492 -17.7578 -2.85449 -19.0078c-1.5 -0.900391 -3 -3.59961 -3 -6c0 -5.7002 -12.5996 -24 -18.6016 -27.2998c-2.69922 -1.50098 -12.5996 -6.59961 -21.5996 -11.7002h-16.7988v-31.5
c0 -26.3799 -0.555664 -27.3174 16.1992 -34.5c12.6016 -5.39941 13.5 -12.5996 2.09961 -18.3008c-3.89844 -2.09961 -9 -7.79883 -11.6992 -12.8994c-2.40039 -5.10059 -5.69922 -9.2998 -7.19922 -9.2998c-3.3623 0 -14.3789 28.8438 -18.627 28.8438
c-4.7959 0 -7.0293 -23.9756 -7.0293 -44.584c0 -17.9805 1.68457 -35.5029 5.25586 -39.7598c4.5 -5.40039 15.2988 -6 20.4004 -0.900391c6 6.00098 3.89844 9 -5.10156 6.90039c-7.5 -1.5 -9 -0.599609 -12.2988 7.5c-3.59961 8.39941 -3.30078 9.90039 3 16.5
c4.41406 4.69922 8.69336 7.03223 13.0938 7.03223c4.87109 0 9.89062 -2.8584 15.4062 -8.53223c4.79883 -5.09961 11.0996 -9 14.0996 -9c3.40723 0 5.09473 -1.2041 5.09473 -3.54688c0 -3.8457 -4.54688 -10.7588 -13.4951 -20.4531
c-11.0996 -12 -15.9004 -15 -23.4004 -15c-18.8984 0 -31.5 11.4004 -36.2988 33c-0.328125 1.60449 -0.478516 4.10352 -0.478516 7.28613c0 23.0059 7.87988 81.7188 13.6777 96.2139c9.30078 22.7998 19.8008 43.5 23.4004 44.7002
c2.09961 0.900391 3.90039 2.7002 3.90039 3.89941c0 3 -14.7012 9.90039 -21 9.90039c-6 0 -15 -9.2998 -15 -15.2998c0 -2.40039 -1.20117 -5.7002 -2.69922 -7.5c-6.00195 -6.60059 -16.2012 -44.4004 -22.5 -82.2002c-5.50293 -32.208 -6.85449 -22.7441 -9 -60
c-0.912109 -15.8105 -1.66113 -31.5479 -6.33203 -31.5479c-1.58496 0 -3.62207 1.81152 -6.26953 6.04785c-11.0996 15.6006 -18 21.2998 -35.4004 30c-17.3984 8.69922 -18.9004 9 -63.5996 9c-27.3008 -0.300781 -47.0996 -1.5 -49.5 -3.2998
c-6 -4.5 -31.5 -12.3008 -49.1992 -14.7002c-8.09961 -1.2002 -16.8008 -3.90039 -19.1992 -5.7002c-2.90723 -2.3252 -41.2178 -3.45312 -80.6006 -3.45312c-41.9229 0 -85.0615 1.27832 -88.001 3.75391c-4.45605 3.34375 -32.4395 6.72363 -37.1992 9.89941
c-1.5 1.2002 -6.90039 3 -12 4.19922c-10.2012 2.40039 -17.4004 5.40039 -49.5 21.001c-33.6016 16.5 -46.2012 23.7002 -50.4004 29.3994c-2.09961 3.00098 -5.40039 5.40039 -7.19922 5.40039c-5.40039 0 -65.4004 54.8994 -65.4004 60c0 2.20801 -15 16.043 -15 18.6006
c0 1.49902 -3.30078 7.2002 -7.5 12.5996c-16.2012 21.2998 -38.4004 71.3994 -60.3008 136.2c-16.4219 49 -21.4902 66.1064 -21.4902 76.4727c0 67.041 35.1719 115.046 56.5898 156.627c5.10156 9.90039 11.7012 22.5 15.3008 27.6006
c3.59961 6.2998 4.5 9.89941 2.40039 9.89941c-4.66699 0 -5.4707 -12 -9.30078 -12c-2.69922 0 -4.79883 -3.60059 -23.6992 -41.7002c-7.5 -15 -14.4004 -27.2998 -15.5996 -27.2998c-1.5 0 -2.40039 15 -2.40039 33.3008c0 20.2559 1.08496 31.2871 2.73926 31.2871
c2.18066 0 3.26074 -11.291 3.26074 -21.9883v-11.0996c2.69922 4.7998 10.8008 9.59961 11.6992 10.5c1.80762 1.35352 12.1533 24 14.7012 24c2.27148 0 15.9375 30.2334 24.2988 37.1992c3.30078 3.30078 6.30078 6.90039 6.30078 8.10059
c0 1.83398 13.752 21.9854 18 14.7002c1.5 -2.40039 3.89844 -3.2998 5.09961 -1.7998c2.53516 3.16992 -5.09961 5.53516 -5.09961 9c0 4.19922 68.6992 73.7998 72.5996 73.7998c1.5 0 4.19922 1.5 6.30078 3c2.09961 1.7998 8.09961 6.59961 13.7988 10.5
c9 6.30078 9.60156 7.5 4.20117 7.5c-3.59961 0 -7.50195 -1.5 -8.40039 -3c-1.29785 -2.07715 -12.9346 -3.03125 -26.9092 -3.03125c-18.3174 0 -40.6533 1.63867 -48.9912 4.53125c-14.4521 5.00195 -26.3291 12.0654 -26.3291 15.7012
c0 4.53711 16.4512 0.616211 18.5283 -2.50098c2.70117 -4.5 24.3008 -3 28.2012 1.7998c5.40039 6.59961 1.19922 9.2998 -5.40039 3.59961c-4.80078 -4.5 -6 -4.5 -15 0.900391c-5.40039 3.30078 -9.59961 7.80078 -9.59961 10.1992
c0 7.2002 9.30078 14.4004 16.1992 12.6006c6.10156 -1.0166 35.3135 -7.60938 39.3008 -10.7998c3.19043 -2.66016 25.1279 -5.68359 27.2988 -9.2998c1.04102 -1.73438 4.71191 -2.5332 9.38086 -2.5332c7.44238 0 17.4209 2.03027 23.3203 5.53223
c8.69922 5.10059 14.4004 18.3008 7.79883 18.3008c-1.79883 0 -3.29883 -1.7998 -3.29883 -4.2002c0 -5.45312 -5.08398 -7.95605 -10.5293 -7.95605c-6.27734 0 -13.0352 3.32715 -13.0352 9.29785c0 2.5791 1.25977 5.65039 4.36328 9.15918
c3.25879 3.68262 7.92285 5.49316 12.9805 5.49316c5.65234 0 11.7969 -2.26074 17.0215 -6.69434c4.32227 -3.79883 6.47168 -7.88477 6.47168 -12.2559c0 -5.63867 -3.5752 -11.7539 -10.6729 -18.3438c-4.5 -4.19922 -6.30078 -7.5 -4.5 -7.5
c2.09961 0 4.20117 0.900391 4.79883 2.40039c3.48145 4.63672 49.2637 18.0615 55.2012 20.7002c5.09961 2.09961 12.5996 3.89941 16.5 3.89941s8.70117 1.5 10.1992 3c2.3252 2.32422 61.1885 6.58203 63 9.59961c1.05078 1.65039 13.876 2.47559 26.7012 2.47559
c12.8242 0 25.6494 -0.825195 26.6992 -2.47559c1.72168 -2.86816 60.6328 -7.32617 63 -9.29883c4.65918 -3.88379 30.543 -6.68457 36.3008 -9.30078c23.9551 -8.70996 60.999 -25.8174 75 -36c6.31543 -4.59375 30.2891 -22.3379 43.1865 -22.3379
c2.16016 0 4.00977 0.49707 5.41309 1.6377c12 10.2002 31.8008 14.7002 66.5996 14.7002c36.3008 0 42.3008 2.09961 42.3008 15.5996c0 8.38867 -5.14551 12.4961 -12.4502 12.4961c-3.55371 0 -7.61816 -0.97168 -11.8506 -2.89551
c-11.0996 -4.80078 -12 -4.80078 -17.4004 0c-5.09961 4.7998 -6.29883 4.5 -20.0996 -2.40039c-28.1562 -14.1865 -46.6123 -20.6719 -61.1035 -20.6719c-5.73438 0 -10.8486 1.01562 -15.6973 2.97168c-12.7139 5.0332 -18.5283 16.9648 -18.5283 28.1035
c0 12.3066 7.09766 23.6455 19.8311 23.6455c1.84863 0 3.81641 -0.239258 5.89844 -0.749023c11.0225 -2.88281 17.1562 -10.1738 17.1562 -16.2402c0 -4.66602 -3.62891 -8.60742 -11.4551 -9.25879c-5.40039 -0.600586 -11.4004 0.299805 -13.2012 2.09961
c-5.09961 5.10059 -8.09961 3.89941 -8.09961 -2.7002c0 -7.74805 8.03906 -11.8076 19.2305 -11.8076c8.74121 0 19.4072 2.47656 29.668 7.60742c24.1719 12.501 14.8926 12.1113 44.1016 25.501c7.5 3.59961 15.9004 7.79883 18.8984 9.29883
c0.953125 0.454102 2.33203 0.660156 4.00684 0.660156c9.38965 0 28.0566 -6.50293 32.8936 -12.3594c4.20117 -5.10059 6.60156 -4.7998 12.3008 0.599609c2.49219 2.49121 9.43359 4.00684 16.3408 4.00684c8.46582 0 17.0117 -2.07715 17.0117 -8.16797
c0 -7.65137 -10.4268 -27.3389 -14.7529 -27.3389c-1.5 0 -2.69922 -2.10059 -2.69922 -4.5c0 -3 3 -4.5 9 -4.5c12.2988 0 27 -14.7002 27 -27c0 -16.5703 -8.07129 -27.1289 -18.7578 -27.1289c-3.4375 0 -7.14453 1.09277 -10.9414 3.42871
c-5.10156 3.00098 -9.30078 7.50098 -9.30078 9.89941c0 6.30078 8.40039 13.8008 15.2988 13.8008c8.40039 0 6.90039 3.90039 -3.29883 8.40039c-6.30078 2.99902 -10.2012 2.99902 -14.7012 0.899414c-3.29883 -1.7998 -12.5996 -3.2998 -21 -3.2998
c-18.2988 0 -21.5996 -3.90039 -8.39844 -10.2002c9 -4.5 14.998 -10.5 34.1992 -34.7998c13.5 -16.7998 22.5 -36.9004 30.2988 -67.5c3.57129 -14.085 6.22363 -65.6865 6.22363 -101.806c0 -18.5029 -0.695312 -32.9424 -2.32129 -36.1943
c-2.44238 -5.36719 -5.31738 -40.2764 -9 -44.7002c-1.50195 -1.7998 -3.60156 -8.69922 -4.80078 -14.999c-2.80957 -20.5986 -20.4922 -46.8965 -30 -61.501c-5.40039 -8.10059 -71.0996 -72.2998 -74.0996 -72.2998c-1.80078 0 -8.09961 -3.89941 -14.1016 -8.39941
c-6 -4.80078 -15.2988 -10.501 -20.4004 -12.9014c-5.39844 -2.39844 -9.89844 -5.09863 -9.89844 -5.99902c0 -3.71484 -24.0947 -11.3867 -28.5 -13.2002c-24.2871 -10.6221 -74.5186 -30.25 -75.9004 -39c-1.19922 -5.7002 -0.900391 -5.7002 6 0.599609
c7.80078 7.50098 19.1992 9 21.3008 3.00098c0.380859 -1.11426 0.561523 -2.24609 0.561523 -3.37891c0 -9.62695 -13.0352 -19.3428 -26.7217 -19.3428c-1.17871 0 -2.36133 0.0712891 -3.54102 0.22168c-7.19922 0.598633 -9 2.39941 -9.59961 10.499
c-0.900391 7.80078 1.19922 11.4004 11.6992 21.5996c7.20117 6.90039 15.3008 12.3008 18 12.3008c3 0 6.00195 1.19922 6.90039 2.7002c2.24219 3.73438 24.0889 7.03906 28.5 9c2.69922 1.5 15 6.90039 27.3008 12.2998c27.5996 12 25.1992 10.5 50.0996 27.5996
c25.1992 17.0996 69.5996 60.9004 84.5996 83.7002c22.2012 32.7002 37.5 67.8008 40.8008 92.7002c1.19922 7.5 3.29883 16.1992 4.79883 19.5c1.83398 3.83496 2.62598 15.04 2.62598 29.6719c0 38.0146 -5.34277 99.165 -11.626 114.328
c-3.29883 8.39941 -23.6992 49.5 -28.1992 57.3008c-3.90039 6.59961 -27.9004 31.1992 -30.3008 31.1992c-0.898438 0 -6.59961 3.2998 -12.5996 7.5c-9.59961 6.59961 -14.4004 7.5 -35.6992 7.5c-21.3008 0 -27 -1.19922 -42 -8.7002
c-14.4004 -7.2002 -18.5996 -8.10059 -24.3008 -5.7002c-3.90039 1.80078 -7.19922 4.5 -7.19922 5.7002c0 7.1875 -55.4775 32.1846 -72.5996 41.7002c-9.90039 5.7002 -60.3008 21.2998 -74.0996 23.0996c-7.50195 0.900391 -15.6016 3.00098 -17.4023 4.5
c-3.74609 2.99805 -47.0361 4.82617 -83.7695 4.82617c-22.0889 0 -41.8066 -0.661133 -49.1289 -2.12598c-38.4004 -8.39941 -50.0996 -11.3994 -58.5 -14.999c-15.9004 -7.2002 -60 -28.8008 -61.5 -30.3008c-3 -3 -20.7012 -15 -22.1992 -15
c-0.900391 0 -4.20117 -2.09961 -6.90039 -4.19922c-15.0107 -12.0107 -71.9023 -59.5127 -71.9023 -66.3486c0 -0.46875 0.275391 -0.743164 0.756836 -0.743164c6.65039 0 54.7402 47.291 64.2451 47.291c1.79883 0 3 0.900391 3 2.09961
c0 6.86523 71.5713 39.8877 93 44.4004c5.69922 1.2002 12.3008 3.2998 15 4.80078c7.19922 3.89941 37.5 9 74.0996 12.2988c8.77832 0.87793 18.9727 1.28418 29.8271 1.28418c41.0732 0 91.5898 -5.81543 110.573 -13.8838
c16.2734 -5.91699 69.6748 -28.3857 73.5 -33.3008c3.45996 -3.45605 23.1416 -13.124 27 -16.499c13.6641 -12.3623 24.8184 -19.3945 29.9512 -19.3945c1.9668 0 3.04883 1.0332 3.04883 3.19434c0 1.7998 7.5 7.80078 16.5 13.5c14.4004 9.2998 18.5996 10.5 36 10.5
c30 0 47.0996 -10.2002 65.6992 -39c9.45312 -14.7686 17.7354 -22.082 21.3008 -39c1.19922 -5.69922 3.29883 -12 4.5 -13.5c2.69922 -3.59961 8.09961 -26.0996 12.5996 -51c1.0752 -6.74414 1.5459 -20.2725 1.5459 -35.6338
c0 -31.7871 -2.01367 -71.4258 -4.84473 -75.0664c-3.7002 -4.43359 -6.91211 -30.5537 -9 -36.2998c-1.50195 -3.30078 -4.80078 -12 -7.80078 -19.5c-15.3008 -40.1992 -27 -58.5 -54.3008 -85.5c-40.5 -40.5 -51.2988 -47.7002 -94.1992 -64.5
c-24.2773 -9.70996 -38.332 -14.3604 -66 -21c-6.8584 -1.77344 -22.9893 -2.56836 -40.3311 -2.56836c-26.6592 0 -56.1787 1.87891 -59.2686 4.96875c-2.09961 2.09961 -6.00195 3.59961 -8.70117 3.59961c-5.69922 0 -38.0996 10.1992 -46.5 14.4004
c-6.01855 2.73633 -36.748 16.2217 -41.3984 20.0996c-1.80078 1.7998 -8.70117 5.7002 -15.3008 8.7002c-13.9785 6.35059 -22.5146 16.9551 -34.8008 23.1006c-12.3008 6.59961 -36 24.2998 -50.4004 37.7998l-13.5 12.2988v15.2998
c3.89844 8.40137 15.002 15.3008 15.9004 15.3008c2.21289 0 12.5049 22.1777 14.0996 24c4.31836 4.93262 25.0635 45.9502 28.2012 51.5996c15.9785 28.7617 27.0303 50.7842 51 81.6006c12.5996 16.2002 31.1992 34.7998 34.7988 34.7998
c2.40039 0 4.20117 1.2002 4.20117 2.7002c0 3.89941 17.0996 9.2998 29.6992 9.2998c13.999 0 13.5771 8.48438 26.4004 3.59961c4.5 -1.7998 14.0996 -4.2002 21 -5.09961c19.6729 -3.14648 51.2344 -31.7939 51.2344 -62.8984
c0 -19.2021 -9.78223 -37.8906 -17.6348 -39.7021c-3 -0.899414 -5.69922 -2.7002 -5.69922 -4.19922c0 -3.96777 -16.8047 -7.73047 -31.1055 -7.73047c-3.00195 0 -5.89355 0.166016 -8.49609 0.530273c-16.1992 2.39941 -28.7988 12.2998 -35.3984 28.2002
c-2.09961 5.10059 -5.69922 9.2998 -7.80078 9.2998c-9.29883 0 -26.0996 -23.7002 -31.1992 -43.5c-3.41895 -13.2949 -5.39453 -33.2041 -5.39453 -47.0127c0 -8.00293 0.663086 -13.9561 2.09375 -15.3867c1.80078 -1.7998 3.30078 -6.60059 3.30078 -11.1006
c0 -14.0996 27.9004 -61.2002 39 -65.7002c2.40039 -0.900391 10.5 -5.7002 18 -10.7998c12.8984 -8.40039 15.2988 -9 49.5 -9.90039c5.4541 -0.118164 10.1602 -0.182617 14.2598 -0.182617c29.543 0 27.5723 3.33301 47.2402 13.6826
c12.5938 6.29785 41.3037 33.0791 41.3037 38.1279c0 3.88477 -30.5195 -21.627 -32.3037 -21.627h-12c-14.4004 -8.39941 -20.0996 -15.6006 -40.5 -15.6006c-12.3008 0 -24.9004 1.2002 -27.9004 2.69922c-11.6992 6.00098 -27.9004 12.3008 -31.5 12.3008
c-4.75684 0 -11.2334 12 -15.5996 12c-4.5 0 -16.5 12.9004 -16.5 17.4004c0 2.09961 -1.20117 3.59961 -2.40039 3.59961c-1.20117 0 -5.70117 6.30078 -9.59961 14.0996c-5.69922 11.7002 -7.20117 20.7002 -8.40039 47.7002
c-0.323242 8.40625 -0.538086 14.8086 -0.538086 19.9824c0 14.0283 1.57812 19.0205 6.83887 30.417c4.19922 9.30078 9.29883 16.8008 11.0996 16.8008c5.09961 0 6.90039 -8.7002 2.69922 -13.7998c-5.27344 -6.41992 -10.7207 -36.3164 -10.7207 -52.334
c0 -4.94238 0.518555 -8.56348 1.7207 -9.76562c1.80078 -1.7998 3.30078 -7.2002 3.30078 -11.7002c0 -19.7998 28.1992 -53.7002 48 -57.9004c10.9902 -2.31445 13.918 -5.83203 19.3105 -5.83203c3.44434 0 7.89258 1.43359 16.0879 5.53223
c8.40234 4.2002 18.9004 7.7998 23.1016 7.7998c9 0 12.8984 -7.19922 7.5 -13.8008c-3 -3.29883 -3 -5.39941 -0.599609 -7.79883c0.97168 -0.97168 2.37109 -1.41699 4.08887 -1.41699c12.6016 0 42.3516 23.9404 46.3115 39.5166
c2.39844 9.90039 7.19922 9.60059 7.49805 -0.900391c0 -7.19922 0.300781 -7.49902 2.70117 -2.09961c1.76367 4.2627 2.66309 11.7666 2.66309 19.1934c0 7.73242 -0.974609 15.3809 -2.96387 19.2061c-4.19922 8.10059 -21 23.1006 -25.7988 23.1006
c-5.3916 0 -5.86426 -6 -12.6016 -6c-8.66406 0 -15.1904 -10.2012 -15.1904 -20.0029c0 -3.43359 0.800781 -6.81738 2.59082 -9.69727c1.80078 -3 5.69922 -3.60059 13.5 -2.09961c10.5 2.09961 10.8008 1.7998 10.8008 -6.59961
c0 -10.7998 -5.10156 -15.2998 -18.9004 -17.7002c-8.70117 -1.2002 -12 -0.299805 -18.2988 6c-4.20117 4.5 -7.80078 9.2998 -7.80078 11.0996c0 1.5 -1.5 3 -3.30078 3c-2.64258 0 -2.02148 -4.51953 -2.02148 -8.47461c0 -11.6904 -18.7559 -27.6631 -29.4062 -27.6631
c-2.47266 0 -4.50879 0.861328 -5.77148 2.83691c-0.900391 1.50098 1.5 8.70117 5.40039 15.9004c6.15723 11.7002 9.1543 17.5537 9.1543 20.4814c0 2.77637 -2.69824 2.91895 -7.95508 2.91895c-5.69922 0 -12.5996 -2.40039 -16.2012 -5.69922
c-2.90625 -2.68945 -6.46484 -3.89941 -10.2314 -3.89941c-11.7803 0 -25.5947 11.8408 -27.8682 27.2988c-0.44043 2.64258 -0.638672 5.84082 -0.638672 9.32031c0 15.4805 3.91992 36.5303 7.83984 38.9795c6 3.59961 11.6992 0.300781 14.0996 -8.69922
c2.70117 -11.1016 9 -16.2002 17.6992 -14.4004c5.10156 0.900391 8.40039 -0.300781 10.2012 -4.2002c5.09961 -9.2998 3.29883 -11.7002 -9 -11.7002c-13.2012 0 -24 -7.80078 -24 -17.7002c0 -8.10059 6 -11.3994 16.5 -9.2998
c6.29883 1.19922 7.79883 2.40039 5.09961 4.2002c-4.79883 2.7002 0.599609 10.7998 7.19922 10.7998c4.80078 0 19.2012 15 19.2012 20.0996c0 6.00098 24.9004 15.9004 39.9004 15.9004c7.79883 0 14.0996 1.2002 14.0996 2.39941
c0 2.7002 -17.6992 9.60059 -24.9004 9.60059c-7.19922 0 -6.59961 11.0996 0.599609 15c3.30078 1.5 9.90039 3 14.7012 3c9 0 13.7988 6.59961 16.1992 22.5c1.5 9 9.90039 9 13.8008 0c2.99805 -6.59961 5.09961 -7.80078 11.998 -6
c7.80078 1.5 8.10156 1.2002 8.10156 -10.2002c0 -6.2998 1.5 -14.6992 3.29883 -18.6006c10.8008 -23.3994 13.2012 -31.1992 13.2012 -43.7988c0 -17.4004 3.29883 -14.7012 6.89844 5.99902c2.8877 17.1426 4.36426 32.0059 4.36426 41.8477
c0 6.52148 -0.648438 10.8379 -1.96387 12.1523c-1.79883 1.7998 -3.29883 6.60059 -3.29883 10.501c0 3.89941 -2.40039 11.4004 -5.09961 16.499c-6.80078 12 -11.0674 16.9336 -17.4238 16.9336c-3.17773 0 -6.87793 -1.2334 -11.6777 -3.43359
c-10.9912 -4.49707 -19.7988 5.24023 -19.7988 15.6006c0 8.69922 -4.5 12 -15.9004 12c-6 0.299805 -6 0.600586 2.09961 6.90039c5.10156 3.59961 12.3008 7.5 16.5 8.39941c6 1.2002 3.30078 2.40039 -10.1992 4.2002c-12.5996 1.5 -18 1.2002 -18.9004 -1.2002
c-0.599609 -1.7998 -3 -3.2998 -5.40039 -3.2998c-5.69922 0 -14.6992 18.9004 -12 25.5c1.5 4.5 3 4.2002 11.4004 -3c6.29883 -5.39941 11.4004 -7.5 15.5996 -6c8.73926 2.5332 14.5908 3.88965 19.1348 3.88965c6.2207 0 9.99219 -2.54199 15.3652 -8.08984
c10.1992 -10.499 15.3008 -11.7002 15.3008 -3.89941c0 6.59961 -22.2012 29.6992 -30.9004 32.0996c-17.6992 5.09961 -23.0996 8.40039 -23.0996 14.7002c0 15.0664 -20.3604 22.7998 -35.0996 22.7998c-15.582 -0.27832 -21.0986 -4.68555 -21.0986 -18.0078
c0 -1.74512 0.162109 -3.86816 0.162109 -5.6582c0 -8.92578 -2.93945 -12.2861 -6.99121 -12.2861c-4.4541 0 -10.2529 4.05957 -14.9727 9.25293c-4.62109 5.28027 -7.55469 7.03418 -9.94531 7.03418c-4.73438 0 -7.33398 -6.88574 -16.6816 -6.88574
c-0.776367 0 -1.59863 0.0478516 -2.47266 0.150391c-8.40039 0.900391 -8.40039 1.2002 -7.5 18c0.900391 15.9004 0.599609 17.4004 -5.10156 17.4004c-3.59961 0 -9 -2.7002 -12.5996 -6.30078c-5.09961 -5.09863 -6 -9.29883 -5.40039 -25.1992
c0.106445 -3.24023 0.18457 -5.93457 0.18457 -8.22559c0 -10.6475 -1.68945 -12.5684 -10.083 -19.9746c-10.8008 -9.2998 -17.4004 -11.7002 -17.4004 -6.2998c0 1.5 -1.80078 3 -3.59961 3c-4.5 0 -11.4004 -13.5 -11.4004 -21.6006
c0 -2.99902 -0.900391 -5.39941 -2.09961 -5.69922c-1.5 0 -6 -0.900391 -10.5 -1.50098c-8.70117 -1.49902 -14.4004 3.90137 -7.20117 6.60156c3.13184 1.25195 4.27734 3.66113 4.27734 6.66309c0 8.16797 -8.47656 20.7285 -8.47656 26.3359
c0 2.40039 -2.70117 4.2002 -6.30078 4.2002c-5.40039 0 -6 1.19922 -4.19922 9.90039c2.47363 10.9961 12.5068 22.4961 19.0146 22.4961c0.59375 0 1.1582 -0.0957031 1.68457 -0.295898c3.60156 -1.50098 4.5 -4.2002 3 -9.60059
c-3.11035 -11.8164 6.74121 -3.09473 5.10156 -10.5c-2.03711 -7.67383 -2.83203 -12.3955 -2.83203 -14.9326c0 -1.66504 0.342773 -2.38965 0.901367 -2.38965c1.72461 0 5.50977 6.90625 7.62988 14.3223c3.59961 13.7998 6.29883 15 12 4.5
c5.09961 -9.60059 9 -6.90039 9 6c0 7.7998 2.69922 13.1992 11.4004 22.5c6.59961 6.59961 14.3984 12 18 12c3.29883 0 7.19922 1.19922 8.09961 3c0.900391 1.5 9 3 18 3c12.3008 0 16.8008 -1.2002 19.1992 -5.09961c2.69922 -4.7998 3 -4.7998 3.30078 1.19922
c0 7.80078 9 6.2998 9.29883 -1.7998c0 -3 0.900391 -2.39941 3.00195 2.10059c3.89844 9.90039 10.1992 6.2998 9.59766 -5.10059c-0.560547 -14.0674 6.1875 -6.2998 15.9004 -6.2998c5.10156 0 7.20117 1.7998 7.20117 5.40039c0 12.5166 12 9.61035 12 0.298828
c0 -10.8379 7.32031 -3.05469 7.32031 3.31836c0 5.28906 -5.15332 7.90039 -23.8203 13.7822c-15 4.80078 -27.3008 5.7002 -72.3008 5.7002c-32.6992 0 -57.2988 -1.2002 -61.5 -3.2998c-31.5 -14.4004 -62.0996 -29.4004 -65.6992 -32.7002
c-41.4004 -36.3008 -53.1016 -50.7002 -74.4004 -91.5c-10.5 -20.0996 -21.5996 -51 -21.5996 -59.6992c0 -2.7002 -1.80078 -6.90039 -3.59961 -9c-2.73926 -2.58691 -4.08887 -42.29 -4.08887 -81.4609c0 -38.0645 1.27441 -75.627 3.78809 -78.1406
c2.09961 -2.09961 3.90039 -7.19922 3.90039 -11.0996c0 -8.7002 23.6992 -66.5996 30 -72.5996c3 -3 15 -20.7002 15 -22.1992c0 -5.70117 58.7988 -64.8008 64.5 -64.8008c1.79883 0 19.5 -12 22.5 -15c3.29883 -3.30078 35.0996 -18 43.5 -19.7998
c5.09961 -1.2002 10.8008 -3.60059 13.1992 -5.40039c2.85059 -2.25 27.8262 -3.375 52.8008 -3.375s49.9502 1.125 52.8008 3.375c2.39844 1.7998 9.59766 4.2002 16.1992 5.40039c6.59961 0.899414 27.5996 9.89941 46.5 19.7998c42 21.8994 45.3008 24 50.3984 30.5996
c2.10156 3 5.70117 5.40039 7.80078 5.40039c4.32227 0 16.7822 15 20.4004 15c1.5 0 6.30078 3.2998 10.8008 7.5c6.37988 5.52832 54.876 52.9932 63.2988 55.7998c6.01465 2.29102 26.2412 24.5361 26.2412 28.3799c0 2.88672 -35.623 -25.6797 -36.1416 -25.6797
c-1.5 0 -4.5 -2.40039 -7.19922 -5.69922c-12.4395 -13.6865 -49.1572 -44.0654 -67.2012 -57.3008c-4.19922 -3.30078 -9.29883 -6 -11.0996 -6c-1.79883 0 -3.29883 -1.2002 -3.29883 -2.39941c0 -1.50098 -4.5 -4.80078 -9.59961 -7.50098
c-10.8926 -6.05078 -44.1436 -24.9062 -57.5996 -27.9004c-5.10156 -0.899414 -10.502 -2.99902 -12.3008 -4.19922c-10.3721 -7.92969 -49.7158 -12.5674 -82.6426 -12.5674c-17.5732 0 -33.3184 1.32031 -41.8574 4.16699c-22.5 6.90039 -53.4004 19.7998 -57 23.4004
c-3.30078 3.2998 -21 15 -22.5 15c-5.70117 0 -61.5 56.7002 -61.5 62.3994zM232.551 110c0 -1.7998 -7.80078 -3 -17.6992 -3c-11.8369 0 -19.625 1.82227 -19.625 3.45801c0 1.33301 5.16797 2.54199 17.5234 2.54199c11.1016 0 19.8008 -1.19922 19.8008 -3z
M342.951 113.3c15.0156 -0.326172 20.6553 -1.28027 20.6553 -2.38477c0 -2.06543 -19.7246 -4.65723 -34.7539 -4.65723c-7.81543 0 -14.3613 0.701172 -16.2021 2.54199c-3.90039 3.90039 4.19922 13.2002 11.4004 13.2002c8.69922 0 10.1992 -4.7998 2.40039 -6.90039
c-3.00195 -0.900391 4.5 -1.49902 16.5 -1.7998zM637.551 110c0 -1.7998 -9 -3 -21 -3s-21 1.2002 -21 3c0 1.80078 9 3 21 3s21 -1.19922 21 -3zM162.051 122c6.0957 0 1.82715 -6 0 -6c-1.80078 0 -6.12793 6 0 6zM241.551 119c0 -1.7998 -3.30078 -3 -7.5 -3
c-4.20117 0 -7.5 1.2002 -7.5 3c0 1.5 3.29883 3 7.5 3c4.19922 0 7.5 -1.5 7.5 -3zM693.051 122c6.0957 0 1.82715 -6 0 -6c-1.80078 0 -6.12793 6 0 6zM160.551 128c0 -1.7998 -1.20117 -3 -3 -3c-1.5 0 -3 1.2002 -3 3c0 1.5 1.5 3 3 3c1.79883 0 3 -1.5 3 -3z
M693.35 131c6.11914 0 1.15234 -6 -2.09961 -6c-1.5 0 -2.69922 1.2002 -2.69922 3c0 1.5 2.09961 3 4.79883 3zM913.551 183.801c0 -29.1016 -1.19922 -46.8008 -3 -46.8008s-3 16.7998 -3 44.6992c0 26.0527 1.05566 46.8652 3.2207 46.8652
c1.94238 0 2.7793 -15.5498 2.7793 -44.7637zM895.551 159.199c0 -0.598633 -2.09961 -1.19922 -4.80078 -1.19922c-8.88379 0 4.80078 9.55371 4.80078 1.19922zM178.551 170c0 -1.80078 -4.80078 -3 -10.8008 -3c-14.7568 0 -8.54492 6 2.10156 6
c4.79883 0 8.69922 -1.5 8.69922 -3zM889.551 170c0 -1.80078 -2.70117 -3 -6.30078 -3c-8.36035 0 -2.76465 6 2.10156 6c2.39844 0 4.19922 -1.5 4.19922 -3zM848.15 174.5c0 -3.7373 -6.59961 -6.35645 -6.59961 0c0 6.32129 6.59961 3.76855 6.59961 0zM208.25 182
c10.6045 0 16.9004 -6 2.10156 -6c-6.00195 0 -10.8008 1.19922 -10.8008 3c0 1.5 3.90039 3 8.69922 3zM898.551 179c0 -1.80078 -6.59961 -3 -15 -3c-10.2012 0 -15 1.19922 -15 3.89941c0 6.00098 6.59961 11.1006 14.0996 11.1006
c8.09961 0 9.30078 -4.80078 1.80078 -6.90039c-3.00195 -0.899414 -0.900391 -1.5 4.5 -1.7998c5.09961 0 9.59961 -1.7998 9.59961 -3.2998zM185.75 183.801c-3.55176 -3.55273 -6.57715 -4.96484 -9.0293 -4.96484c-4.85156 0 -7.45898 5.52539 -7.45898 10.9297
c0 5.17188 2.38867 10.2344 7.48828 10.2344c3.90039 0 13.8008 -7.5 13.8008 -10.5c0 -0.600586 -2.10156 -3.30078 -4.80078 -5.69922zM887.75 200c4.83887 0 10.4941 -6 2.10156 -6c-3.60156 0 -6.30078 1.19922 -6.30078 3c0 1.5 1.80078 3 4.19922 3zM103.551 207.8
c0 -5.40039 -1.80078 -6.2998 -4.5 -2.09961c-2.10254 3.50293 4.5 7.97656 4.5 2.09961zM178.551 209c0 -1.7998 -3.30078 -3 -7.5 -3c-4.20117 0 -7.5 1.2002 -7.5 3c0 1.5 3.29883 3 7.5 3c4.19922 0 7.5 -1.5 7.5 -3zM106.551 218c0 -1.7998 -1.80078 -3 -4.19922 -3
c-4.83887 0 -10.4951 6 -2.10156 6c3.59961 0 6.30078 -1.5 6.30078 -3zM169.551 218c0 -1.7998 -1.20117 -3 -3 -3c-1.5 0 -3 1.2002 -3 3c0 1.5 1.5 3 3 3c1.79883 0 3 -1.5 3 -3zM106.852 230c8.35938 0 2.76367 -6 -2.10156 -6c-2.39844 0 -4.19922 1.2002 -4.19922 3
c0 1.5 2.69922 3 6.30078 3zM885.352 239c14.7549 0 8.54395 -6 -2.10156 -6c-4.79883 0 -8.69922 1.2002 -8.69922 3c0 1.5 4.79883 3 10.8008 3zM104.75 245c4.83887 0 10.4941 -6 2.10156 -6c-3.60156 0 -6.30078 1.19922 -6.30078 3c0 1.5 1.80078 3 4.19922 3z
M889.551 251c0 -1.80078 -4.80078 -3 -10.8008 -3c-14.7568 0 -8.54492 6 2.10156 6c4.79883 0 8.69922 -1.5 8.69922 -3zM889.551 260c0 -1.80078 -5.40039 -3 -12 -3s-12 1.19922 -12 3c0 1.5 5.40039 3 12 3s12 -1.5 12 -3zM910.551 278.301
c0 -11.8369 -1.82227 -19.625 -3.45801 -19.625c-1.33301 0 -2.54199 5.16797 -2.54199 17.5234c0 11.1016 1.19922 19.8008 3 19.8008c1.79883 0 3 -7.7998 3 -17.6992zM598.551 275c0 -10.7998 -5.10156 -11.7002 -9 -1.7998
c-3.90039 10.1992 -7.5 11.7002 -19.8008 7.2002c-10.1992 -3.60059 -11.0996 -3.30078 -16.8008 4.5c-3.59961 4.79883 -8.69922 8.09961 -13.1992 8.09961c-8.09961 0 -9.59961 4.5 -2.40039 7.2002c3.06445 1.14941 9.49609 1.7002 16.5225 1.7002
c9.48535 0 20.0537 -1.00488 24.8779 -2.90039c11.7012 -4.5 19.8008 -14.0996 19.8008 -24zM877.551 266c11.999 0 7.72266 6 0 6c-7.66699 0 -12.0557 -6 0 -6zM898.551 278c0 -1.80078 -6.90039 -3 -15.3008 -3c-21.1133 0 -13.9941 6 2.10156 6
c7.19922 0 13.1992 -1.5 13.1992 -3zM889.551 287c0 1.5 -1.20117 3 -3 3c-1.5 0 -3 -1.5 -3 -3c0 -1.80078 1.5 -3 3 -3c1.79883 0 3 1.19922 3 3zM910.551 450.5c0 -27 -1.20117 -43.5 -3 -43.5c-1.80078 0 -3 16.5 -3 43.5s1.19922 43.5 3 43.5
c1.79883 0 3 -16.5 3 -43.5zM891.951 421.1c0.599609 -2.7002 -0.300781 -5.09961 -2.09961 -5.09961c-1.80078 0 -3.30078 1.2002 -3.30078 3s-9 3 -20.7012 3c-11.6992 0 -21.8984 1.2002 -22.7988 3c-0.900391 1.5 0.900391 3 3.90039 3
c3.29883 0 6.59961 2.09961 7.79883 4.5c1.20117 3.30078 6 4.5 16.8008 4.5c17.6992 0 18 -5.69922 0.599609 -6.59961c-9.59961 -0.300781 -9.29883 -0.600586 3.90039 -2.10059c11.0996 -1.2002 15.2988 -3.2998 15.9004 -7.2002zM873.051 446c18.0869 0 13.4727 -6 0 -6
c-13.4111 0 -18.1543 6 0 6zM880.551 461c0 -1.7998 -1.80078 -3 -4.19922 -3c-4.83887 0 -10.4951 6 -2.10156 6c3.59961 0 6.30078 -1.5 6.30078 -3zM889.551 470c0 -1.7998 -3.30078 -3 -7.5 -3c-4.20117 0 -7.5 1.2002 -7.5 3c0 1.5 3.29883 3 7.5 3
c4.19922 0 7.5 -1.5 7.5 -3zM890.15 482c-0.298828 -3.30078 -2.40039 -6 -4.79883 -6c-12.792 0 -1.80078 9.24219 -1.80078 15.2998c0 7.9834 7.92285 4.62891 7.19922 0.300781c-0.300781 -2.10059 -0.599609 -6.2998 -0.599609 -9.60059zM652.551 486.8
c0 -5.40039 -1.80078 -6.2998 -4.5 -2.09961c-2.10254 3.50293 4.5 7.97656 4.5 2.09961zM649.551 500c0 -1.7998 -1.20117 -3 -3 -3c-1.5 0 -3 1.2002 -3 3c0 1.5 1.5 3 3 3c1.79883 0 3 -1.5 3 -3zM910.551 549.5c0 -15 -1.20117 -25.5 -3 -25.5
c-1.80078 0 -3 10.5 -3 25.5s1.19922 25.5 3 25.5c1.79883 0 3 -10.5 3 -25.5zM390.949 643.399c-2.09961 -6.2998 -12.5996 -6.2998 -19.7988 0c-5.09961 4.5 -6.59961 9 -6.59961 19.7998c0 12.001 0.900391 14.4004 7.19922 16.8008
c2.70703 1.04102 5.31445 1.49512 7.70215 1.49512c7.12402 0 12.2881 -4.04102 12.2881 -8.58301c0 -2.70898 -1.83594 -5.59668 -6.18945 -7.91211c-7.80078 -4.19922 -7.80078 -13.7998 0.300781 -15.8994c3.59961 -0.900391 5.69922 -3.60059 5.09766 -5.70117z
M904.551 777.5c0 -83.0996 -0.900391 -127.5 -3 -127.5c-2.10156 0 -3 43.5 -3 124.5v124.5h-248.701c-218.4 0 -249 -0.599609 -250.498 -4.5c-1.2002 -3.15039 -9 -4.72559 -16.8008 -4.72559s-15.6006 1.5752 -16.8008 4.72559c-1.5 3.90039 -18.2988 4.5 -124.199 4.5
c-67.1992 0 -128.4 -0.900391 -135.9 -1.80078h-13.5v-20.3984c-0.900391 -9.90039 -4.5 -51.001 -5.40039 -91.2012c-0.900391 -43.5 -2.69922 -72.5996 -4.5 -72.5996c-1.27246 0 -1.83105 26.3164 -1.83105 59.5146c0 52.8984 1.41895 123.27 3.63184 132.485h820.5
v-127.5zM123.951 703.699c-4.68066 -3.7793 -9.38672 -5.50781 -13.6025 -5.50781c-8.67285 0 -15.2646 7.31348 -15.2646 19.1182c0 7.37207 3.04883 18.4736 4.86719 20.29c4.5 4.5 15 0 17.0996 -6.90039c2.40039 -7.19922 -3.30078 -14.999 -9.30078 -12.5996
c-2.40039 0.900391 -4.19922 0 -4.19922 -1.7998s3.89844 -3.2998 9 -3.2998c7.19922 0 9.29883 1.5 10.7988 7.7998c0.594727 2.45312 0.858398 6.12305 0.858398 10.3232c0 12.75 -2.4248 30.3916 -5.3584 33.7764c-4.19922 5.10059 -12.2988 29.4004 -12.2988 37.2012
c0 13.4561 8.00684 22.3545 15.7324 22.3545c4.33105 0 8.57324 -2.79688 11.2676 -9.15527c4.19922 -10.7998 -1.20117 -22.1992 -9.59961 -19.499c-3.90039 1.19922 -4.80078 0.298828 -3.59961 -3.00098c2.69922 -7.2002 12.2988 -5.7002 18 2.7002
c2.14941 3.16309 3.17969 7.28516 3.17969 12.0088c0 6.47754 -1.9375 14.084 -5.58008 21.8916c-2.40039 4.5 -2.40039 7.7998 -0.300781 9.89941c0.242188 0.242188 0.512695 0.356445 0.805664 0.356445c4.48633 0 14.5039 -26.5996 15.6943 -29.4561
c1.26562 -2.63672 1.82617 -9.87207 1.82617 -18.8496c0 -16.5586 -1.9082 -39.0459 -4.82617 -49.5498c-1.79883 -6.30078 -6.59961 -15.001 -10.7988 -19.501c-4.20117 -4.5 -7.80078 -9.2998 -7.80078 -10.5s-3 -4.7998 -6.59961 -8.10059zM889.551 749
c0 -1.7998 -1.20117 -3 -3 -3c-1.5 0 -3 1.2002 -3 3c0 1.5 1.5 3 3 3c1.79883 0 3 -1.5 3 -3zM106.852 761c10.7539 0 0.928711 -12.332 -4.20117 -7.2002c-3.90039 3.89941 -2.09961 7.2002 4.20117 7.2002zM462.051 759.5
c0 -4.19922 -2.40039 -6.30078 -8.10156 -6.89941c-4.79883 -0.600586 -8.39844 0.299805 -8.39844 2.09961c0 1.5 -0.900391 5.10059 -1.80078 7.7998c-1.79883 4.19922 -0.298828 4.7998 8.09961 3.90039c7.80078 -0.600586 10.2012 -2.40039 10.2012 -6.90039z
M493.25 762.8c-15 -2.99902 -20.6992 -2.09961 -20.6992 2.7002c0 3.30078 3.59961 4.5 15 4.5c16.7988 0 20.0996 -4.2002 5.69922 -7.2002zM106.551 767c0 -1.7998 -1.20117 -3 -3 -3c-1.5 0 -3 1.2002 -3 3c0 1.5 1.5 3 3 3c1.79883 0 3 -1.5 3 -3zM172.551 770
c0 -1.7998 -1.20117 -3 -3 -3c-1.5 0 -3 1.2002 -3 3c0 1.5 1.5 3 3 3c1.79883 0 3 -1.5 3 -3zM877.551 776c7.66602 0 12.0547 -6 0 -6c-12 0 -7.72266 6 0 6zM167.75 794c4.83887 0 10.4941 -6 2.10156 -6c-3.60156 0 -6.30078 1.19922 -6.30078 3
c0 1.5 1.80078 3 4.19922 3zM192.352 804.801c-2.40039 -9.60059 -13.5 -10.501 -21.6016 -1.50098c-6 6.59961 -3.90039 12.8994 5.70117 18.9004c7.49805 4.7998 18.5996 -7.2002 15.9004 -17.3994zM207.051 815c6.0957 0 1.82715 -6 0 -6c-1.80078 0 -6.12793 6 0 6z
M214.852 824c21.1143 0 13.9912 -6 -2.10156 -6c-7.19922 0 -13.1992 1.2002 -13.1992 3c0 1.5 6.89844 3 15.3008 3zM718.551 827c0 -1.80078 -1.20117 -3 -3 -3c-1.5 0 -3 1.19922 -3 3c0 1.5 1.5 3 3 3c1.79883 0 3 -1.5 3 -3zM106.852 833
c8.35938 0 2.76367 -6 -2.10156 -6c-2.39844 0 -4.19922 1.2002 -4.19922 3c0 1.5 2.69922 3 6.30078 3zM178.551 831.5c0 -5.40039 -5.09961 -5.7002 -14.7012 -0.299805c-15.2588 8.58594 14.7012 10.1299 14.7012 0.299805zM799.551 839
c0 -1.7998 -3.90039 -3 -8.69922 -3c-10.6055 0 -16.9023 6 -2.10156 6c6 0 10.8008 -1.5 10.8008 -3zM108.65 848c-1.79883 -7.19922 -9.59961 -8.09961 -12.3008 -1.2002c-1.20117 3.07129 -1.74902 11.8467 -1.74902 20.7998c0 11.1631 0.851562 22.6016 2.35059 23.6006
c2.82617 1.69824 10.8467 2.72949 19.1201 2.72949c11.1416 0 22.7441 -1.86914 22.7441 -6.49414c0 -1.38867 -1.0459 -3.02539 -3.46582 -4.93555c-5.69922 -4.5 -5.69922 -4.7998 2.40039 -13.2002c8.09961 -8.39941 8.09961 -9 3.30078 -16.5
c-5.70117 -8.7002 -13.8008 -9.89941 -20.6992 -3.2998c-6.00195 6 -9.90039 5.7002 -11.7012 -1.5zM882.051 851c6.0957 0 1.82715 -6 0 -6c-1.80078 0 -6.12793 6 0 6zM655.551 866c0 -1.7998 -3.90039 -3 -8.69922 -3c-10.6055 0 -16.9023 6 -2.10156 6
c6 0 10.8008 -1.5 10.8008 -3zM154.85 878c10.7598 0 0.930664 -12.332 -4.19922 -7.2002c-3.90039 3.89941 -2.09961 7.2002 4.19922 7.2002zM247.551 878c11.999 0 7.72266 -6 0 -6c-7.66699 0 -12.0557 6 0 6zM628.551 875c0 -1.7998 -1.80078 -3 -4.19922 -3
c-4.83887 0 -10.4951 6 -2.10156 6c3.59961 0 6.30078 -1.5 6.30078 -3zM655.852 878c8.35938 0 2.76367 -6 -2.10156 -6c-2.39844 0 -4.19922 1.2002 -4.19922 3c0 1.5 2.69922 3 6.30078 3zM745.551 884.6c0 -4.5 -7.80078 -12.8994 -9.90039 -10.7998
c-4.5 4.5 -2.09961 13.2002 3.90039 13.2002c3.29883 0 6 -1.19922 6 -2.40039zM162.051 887c6.0957 0 1.82715 -6 0 -6c-1.80078 0 -6.12793 6 0 6zM237.352 887c12.3408 0 17.5176 -1.21289 17.5176 -2.54883c0 -1.63379 -7.75488 -3.45117 -19.6191 -3.45117
c-9.90039 0 -17.6992 1.2002 -17.6992 3c0 1.80078 8.69922 3 19.8008 3zM655.551 884c0 -1.7998 -13.5 -3 -34.5 -3c-28.1992 0 -35.0996 0.899414 -36.3008 4.5c-1.19922 3 -6 4.5 -14.6992 4.5c-6.78516 0 -15.0879 1.11719 -15.0879 3.26074
c0 1.6543 11.0322 2.73926 31.2871 2.73926c20.9062 0 33.7725 -1.77344 33.7725 -3.6875c0 -1.13477 -4.52246 -2.31934 -14.5713 -3.21289c-8.09961 -0.599609 0 -1.19922 18 -1.49902c18.9004 -0.300781 32.0996 -1.7998 32.0996 -3.60059zM259.551 893
c0 -1.7998 -3.90039 -3 -8.69922 -3c-10.6055 0 -16.9023 6 -2.10156 6c6 0 10.8008 -1.5 10.8008 -3zM358.551 893c0 -1.7998 -1.80078 -3 -4.19922 -3c-4.83887 0 -10.4951 6 -2.10156 6c3.59961 0 6.30078 -1.5 6.30078 -3zM669.352 896
c12.3408 0 17.5176 -1.21289 17.5176 -2.54883c0 -1.63379 -7.75488 -3.45117 -19.6191 -3.45117c-9.90039 0 -17.6992 1.2002 -17.6992 3c0 1.80078 8.69922 3 19.8008 3zM754.551 893c0 -1.7998 -9.30078 -3 -22.1992 -3c-14.6768 0 -24.0361 1.78223 -24.0361 3.40332
c0 1.35449 6.52637 2.59668 21.9346 2.59668c14.0996 0 24.3008 -1.19922 24.3008 -3zM844.551 893c0 -1.7998 -1.20117 -3 -3 -3c-1.5 0 -3 1.2002 -3 3c0 1.5 1.5 3 3 3c1.79883 0 3 -1.5 3 -3zM104.451 115.1c8.39844 -3.59961 11.0996 -1.7998 11.0996 6.90039
c0 9.90039 -1.80078 10.7998 -9.59961 4.7998c-6.30078 -4.5 -6.90039 -9.59961 -1.5 -11.7002zM118.551 388.699c0 -3.43066 18 -39.4082 18 -43.1992c0 -2.09961 1.19922 -4.5 2.69922 -5.09961c1.5 -0.600586 6 -7.80078 10.5 -15.9004
c17.666 -33.4385 11.7275 -21.502 31.8008 -48c20.3486 -27.8262 52.1982 -54.8535 76.1992 -72c7.73535 -6.32617 35.3369 -20.4404 47.4004 -25.7998c10.8008 -5.40039 67.2012 -23.7002 73.1992 -23.7002c9.81836 0 10.5674 -5.6748 22.2012 -6.90039
c6.21484 -0.914062 22.7021 -1.29785 42.7979 -1.29785c45.8682 0 110.53 2.00391 114.702 4.29785c3.30078 1.7998 15.5996 4.80078 27 6.2998c33.6016 5.16895 53.2988 13.4521 95.0996 14.7012c7.4248 0.288086 13.4297 0.455078 18.5215 0.455078
c16.0986 0 23.0752 -1.66895 36.9785 -6.45605c8.83203 -3.02051 16.1123 -6.22559 21.0195 -6.22559c4.39062 0 6.88086 2.56543 6.88086 10.126c0 4.80078 1.19922 9.30078 2.69922 10.2002c1.5 1.2002 3.59961 9 4.80078 17.6992
c2.45215 22.8818 9.05469 35.8096 15 57.6006c7.3291 26.8789 11.4229 43.8564 28.1992 62.4004c6.32129 6.9541 12.0615 10.1426 17.9346 10.1426c4.62207 0 9.32812 -1.97461 14.4658 -5.64258c1.71094 -1.35059 3.50977 -1.95801 5.30957 -1.95801
c8.18555 0 16.3848 12.5703 16.3848 24.918c0 3.02246 -0.491211 6.03125 -1.59473 8.83984c-3.59961 9.2998 -9 5.10059 -7.80078 -5.7002c1.20117 -9.59961 0.601562 -10.5 -6.59961 -10.5c-4.19922 0 -7.79883 1.19922 -7.79883 2.7002
c0 5.10059 -10.2012 6.59961 -12.6016 1.7998c-1.49805 -2.40039 -4.5 -4.5 -6.59961 -4.5c-4.79883 0 -22.7988 -21.3008 -30.2988 -36c-6.59961 -12.5996 -19.5 -52.8008 -19.5 -60.2998c0 -3 -1.20117 -6.00098 -2.69922 -6.90039
c-1.20117 -0.900391 -3.30078 -9 -4.5 -17.6992c-0.900391 -9 -3.90234 -21.3008 -6.30078 -27.6006c-4.20117 -9.90039 -5.70117 -10.7998 -12.9004 -9.2998c-26.6992 6.59961 -35.0996 7.5 -65.0996 7.5c-32.6992 0 -38.7012 -0.900391 -76.5 -10.2002
c-41.3379 -10.3311 -79.9971 -18.5576 -128.455 -18.5576c-25.5479 0 -53.8203 2.28711 -86.6445 7.75781c-21.6016 3.60059 -71.1016 19.7998 -80.1016 25.7998c-3.29883 2.40039 -8.39844 4.5 -11.4004 4.5c-8.43359 0 -13.9717 7.9834 -20.998 12
c-18.6016 10.5 -83.4004 70.2002 -83.4004 76.7998c0 1.7998 -1.80078 4.2002 -4.19922 5.10059c-4.80273 1.80176 -13.3623 22.9629 -16.502 26.0996c-11.7998 10.8174 -38.46 72.2305 -50.0996 100.5c-6.90039 16.5 -22.1992 64.5 -22.1992 70.5
c0 3 -1.19922 6.59961 -3 7.5c-3.59961 2.40039 -3.90039 24.5996 -0.300781 26.7002c3.60352 2.16309 6.65039 24.1191 9.30078 27.2998c4.50684 5.63672 6.86719 21.9062 10.1992 30c18.9004 41.3994 24.5996 54 27.3008 56.6992
c1.79883 1.80078 5.69922 8.10059 8.40039 13.8008c11.6992 23.0996 38.6992 57.9004 68.998 89.1006c38.4004 39.5996 99.9004 73.7998 149.102 83.3994c5.69922 0.899414 14.0996 3.2998 18.2988 4.80078c4.20117 1.7998 29.4004 4.19922 55.5 5.39941
c25.7783 1.29688 37.626 1.89258 37.626 2.21387c0 0.273438 -8.56934 0.347656 -24.4248 0.486328c-1.7207 0.015625 -3.43945 0.0224609 -5.15723 0.0224609c-51.1025 0 -100.812 -6.81543 -143.942 -25.2227c-5.10156 -2.40039 -11.0996 -4.2002 -13.5 -4.2002
c-4.45703 0 -26.792 -18 -30.9004 -18c-4.31738 0 -16.5703 -15 -21 -15c-3.99902 0 -10.9512 -12 -14.7012 -12c-3.89844 0 -46.7988 -42.2998 -46.7988 -46.1992c0 -1.50098 -2.70117 -5.10059 -6 -7.80078c-11.8271 -10.2832 -29.1035 -40.125 -40.8008 -58.5
c-6.74121 -11.4121 -25.6094 -51.3457 -31.7988 -62.7002c-1.5 -3 -7.50195 -19.7998 -13.5 -37.499c-6.94434 -21.0645 -9.24512 -30.1631 -9.24512 -40.248c0 -2.98535 0.201172 -6.05762 0.543945 -9.55273c0.900391 -9.59961 3.30078 -19.2002 4.80078 -20.7002
c1.79883 -1.7998 3 -5.09961 3 -7.7998c0 -9.59961 13.7988 -51.9004 22.7988 -69.9004c2.40039 -4.79883 4.20117 -9.89941 4.20117 -11.4004zM560.451 181.4c-1.72949 -1.44141 -20.6133 -3.89453 -42.3008 -5.40039c24.3008 0.600586 45.9004 0.600586 48 2.09961
c2.09961 1.7998 9.59961 3.90039 16.5 5.10059c12.0791 1.72559 29.0176 9.93164 29.0176 12.8037c0 0.624023 -0.797852 0.996094 -2.61719 0.996094c-3.30078 0 -9 -2.09961 -12.5996 -4.5c-6.28711 -4.57031 -29.8242 -6.6875 -36 -11.0996zM439.852 185v-4.2002
c4.19922 -2.39941 12.5996 -4.19922 19.1992 -4.19922c9.59961 0.299805 10.1992 0.598633 3 1.49902c-10.7246 2.01172 -11.292 6.90039 -22.1992 6.90039zM376.551 209c0 -5.72266 43.6719 -23.7002 49.1992 -23.7002c6 -0.299805 6 -0.299805 0 4.2002
c-3 2.40039 -7.5 4.5 -9.59961 4.5s-11.4004 3.89941 -20.7012 9c-18.8984 10.1992 -18.8984 10.1992 -18.8984 6zM630.051 206c-1.40332 0 -11.7305 -6 -9 -6c1.7334 0 11.9014 6 9 6zM669.352 233c-3.10156 0 -25.0107 -18 -28.502 -18
c-1.79883 0 -3.29883 -1.5 -3.29883 -3c0 -1.7998 1.19922 -3 2.69922 -3c3.90039 0 39.9004 24.3008 46.2012 31.1992c8.09961 9 3 9.90039 -6.30078 0.900391c-4.80078 -4.5 -9.59961 -8.09961 -10.7988 -8.09961zM330.051 740c3.96875 0 10.8271 12 14.4004 12
c1.19922 0 5.99805 2.40039 10.498 5.69922c23.7012 16.2002 36 21.9014 59.1016 27.9004c6.59961 1.5 15.2988 4.5 19.1992 6.2998c4.42285 2.21094 30.9395 3.26367 57.4092 3.26367c27.3975 0 54.7441 -1.12695 57.4912 -3.26367
c2.09961 -1.7998 9.29883 -4.19922 15.5996 -5.39941c13.5 -2.09961 33 -11.7002 54.5996 -25.7998c17.1016 -11.4004 52.2012 -44.4004 52.2012 -49.5c0 -1.7998 1.79883 -4.80078 3.89844 -6.90039c4.20117 -3.2998 16.2012 -26.0996 24.6016 -46.7998
c9.20801 -21.9961 14.9248 -60.3428 14.9248 -95.5264c0 -6.08594 -0.170898 -12.0781 -0.524414 -17.874c-0.900391 -16.1992 -3.00195 -29.999 -4.20117 -30.8994c-1.5 -0.899414 -2.69922 -3.90039 -2.69922 -6.90039c0 -7.2002 -10.5 -39.5996 -15.5996 -48.5996
c-23.667 -41.0264 -43.8877 -58.4971 -89.4004 -78.9004c-8.40039 -3.89941 -9.30078 -4.7998 -3.60156 -4.7998c12.0918 0 17.5703 5.03613 29.1016 10.7998c34.1641 15.4883 65.8662 45.8359 82.5 84c11.8281 24.9775 14.6406 21.5059 17.0996 51
c0.900391 10.501 3 20.0996 4.19922 21c1.80078 1.0498 2.70117 16.125 2.70117 31.2002s-0.900391 30.1504 -2.70117 31.2002c-2.29785 1.72559 -6.58789 43.4922 -9 45.2998c-1.5 0.600586 -3.59961 6.2998 -4.5 12c-4.1582 21.498 -19.8936 43.6279 -31.7988 60
c-16.1992 21.5996 -19.5 25.2002 -22.2012 25.5c-3.37793 0 -28.2031 21.8037 -30.5996 23.3994c-15.2139 10.0186 -31.9932 17.4629 -47.6992 24.6006c-18.9004 8.69922 -57 14.7002 -94.5 14.7002c-49.5 0 -76.5 -6.00098 -113.4 -24.2998
c-26.4004 -12.9004 -30.3008 -15.9004 -59.0996 -43.5c-28.8008 -27.9004 -47.4004 -54.3008 -64.2012 -91.2012c-10.3076 -23.4834 -13.0732 -22.3467 -17.0996 -43.499c-0.900391 -6.59961 -3.30078 -14.1006 -4.79883 -16.8008
c-5.22754 -10.4531 -10.9707 -78.749 -10.9707 -114.255c0 -11.3662 0.587891 -19.3721 1.9707 -21.0449c2.6582 -3.72559 6.79785 -45.1006 9.59961 -48.5996c2.57617 -3.86621 6.14746 -23.4375 9 -27c1.19922 -1.7998 3.29883 -7.5 4.5 -12.5996
c3.59961 -17.1006 30 -64.501 48 -86.1006c14.6992 -17.3994 35.6992 -38.3994 54 -53.6992c9.59961 -7.80078 18.5996 -14.1006 20.0996 -14.1006c5.09961 0 2.09961 6 -5.69922 11.0996c-4.80078 3.00098 -10.8008 8.40039 -13.8008 12.001
c-3 3.89941 -7.20117 6.89941 -9.59961 6.89941c-2.10156 0 -8.09961 5.09961 -13.2012 11.1006c-9.5791 11.1787 -39.2988 45.8691 -39.2988 51.5996c0 1.7998 -0.900391 3.2998 -2.09961 3.2998c-8.45215 0 -40.8477 74.9404 -44.7012 99
c-0.900391 7.5 -3.29883 15.3008 -5.09961 17.4004c-2.85742 3.42871 -4.74707 49.8018 -4.74707 88.6504c0 22.3301 0.624023 42.1748 2.04785 49.9492c7.82422 42.4834 10.9023 43.2588 21.8984 73.5c7.97949 20.2539 33.4941 61.4102 39.3008 63.9004
c1.19922 0.599609 2.40039 2.7002 2.40039 4.5c0 4.19922 30.2988 35.0996 34.5 35.0996zM697.551 254c-8.56934 -15.9961 17.541 9 18.9004 9c1.5 0 11.0996 7.7998 21.2988 17.6992c9.90039 9.60059 24.3008 22.5 31.5 29.1016
c7.20117 6.2998 11.4004 11.999 9.90039 12.5996c-0.223633 0.0742188 -0.47168 0.113281 -0.74707 0.113281c-4.16211 0 -14.6533 -8.80273 -43.3525 -35.8135c-11.4004 -11.0996 -24 -21.6006 -27.5996 -23.4004c-3.90039 -1.7998 -8.10156 -6 -9.90039 -9.2998z
M420.65 265.7v-3.90039c7.33301 -2.79297 24.3184 -4.36719 37.7695 -4.36719c9.66211 0 17.502 0.811523 18.6309 2.56738c0.900391 1.5 4.5 3 7.80078 3c4.19922 0 5.69922 2.09961 5.69922 7.5s-1.5 7.5 -6 7.5c-3.30078 0 -6 -1.2002 -6 -3
c0 -6.64746 -24.3438 -14.5205 -37.9727 -14.5205c-4.20801 0 -7.39551 0.750977 -8.52734 2.52051c-0.900391 1.5 -6.30078 3 -11.4004 2.7002zM405.65 267.8c-2.21094 2.21094 -11.2129 -1.5 -3.90039 -1.5c3.30078 -0.299805 5.09961 0.600586 3.90039 1.5zM870.35 299
c7.4209 0 11.9395 9 17.4004 9c1.80078 0.299805 7.19922 6.30078 12 13.7998c5.9541 9.5918 9.08203 22.1914 9.08203 33.7295c0 9.39355 -2.07324 18.082 -6.38086 23.8711c-9.93066 13.4609 -27.9795 21.5664 -45.1885 21.5664
c-6.18457 0 -12.2598 -1.04688 -17.8115 -3.26758c-18.3008 -7.19922 -33.9004 -15.2998 -35.7012 -18c-3 -4.79883 0.601562 -6.2998 6.90039 -2.99902c13.627 7.86914 25.5361 11.6865 35.7266 11.6865c5.73633 0 10.9277 -1.20996 15.5742 -3.58691
c17.8877 -9.42773 30.127 -27.8135 30.127 -42.4482c0 -3.52832 -0.711914 -6.83789 -2.22656 -9.75195c-1.41016 -2.53418 -9.12012 -24.5996 -12.002 -24.5996c-1.19922 0 -4.79883 -2.10059 -8.09961 -4.5c-5.69922 -4.2002 -5.69922 -4.2002 0.599609 -4.5z
M377.449 333.5c1.50195 -3.30078 5.70117 -4.5 14.7012 -4.2002c9.30078 0.600586 10.5 0.899414 4.5 1.7998c-6.59961 0.900391 -8.09961 2.40039 -6.59961 6.90039c4.61328 13.8379 -15.3223 3.67676 -12.6016 -4.5zM343.551 344.3c0 -4.33301 7.91113 -6 13.1992 -6
c4.5 -0.299805 4.80078 0.600586 1.80078 4.2002c-4.19922 4.7998 -15 6.2998 -15 1.7998zM364.551 485c2.13574 0 9.85742 21 12.3008 21c2.00391 0 11.4053 20.4062 12.8984 21.9004c1.80078 2.09961 7.20117 10.1992 11.4004 18.5996
c29.4004 54.2998 34.5 63 40.8008 69.8994c1.79883 2.10059 3.59961 5.40039 3.59961 6.90039c0 6.00098 -5.40039 2.09961 -12.3008 -8.7002c-6.86035 -10.1523 -32.1084 -51.9209 -38.6992 -65.0996c-7.57812 -16.1025 -17.1035 -23.3428 -28.2012 -46.5
c-4.5 -9 -11.4004 -21.9004 -15.5996 -28.5c-3.90039 -6.60059 -7.19922 -15.2998 -7.19922 -19.2002c0 -8.10059 7.79883 -18.2998 13.7988 -18.2998c2.09961 0 5.70117 -2.7002 8.10156 -6c9.53906 -13.876 71.5166 -48.3584 101.998 -63.5996
c7.20117 -3.59961 55.8008 -19.5 65.1016 -21.3008c4.17969 -0.852539 14.3516 -1.2207 27.0098 -1.2207c31.8594 0 79.4756 2.33008 86.9902 5.12109c29.4004 10.7998 36.3008 13.5 56.4004 23.0996c12.2988 6.00098 22.7988 12.6006 23.6992 14.7002
c0.900391 2.40039 3 4.2002 5.09961 4.2002c4.80078 0 37.5 34.2002 51.9004 54c14.4004 20.4004 30.9004 53.7002 41.6992 85.5c7.5 21.5996 8.40039 28.7998 9.60156 75c0.125 4.99121 0.189453 9.91211 0.189453 14.7578c0 73.1533 -14.7832 129.282 -61.6914 155.342
c-5.97168 3.39941 -12.3613 4.95117 -18.6729 4.95117c-21.5654 0 -42.2256 -18.1064 -42.2256 -42.4502c0 -4.5 -1.20117 -8.10059 -2.69922 -8.10059c-1.80078 0 -11.7012 8.40039 -22.5 18.5996c-29.1016 27.9004 -61.2012 50.4004 -71.4023 50.4004
c-4.19922 0 9.30078 -11.7002 13.5 -12c4.5 0 24.002 -16.2002 44.4023 -36.9004c11.0996 -11.0996 21.2988 -20.0996 22.5 -20.0996c1.19922 0 5.99805 -3.59961 10.7988 -8.09961c7.79883 -7.50098 8.69922 -7.80078 14.0996 -2.7002
c3 2.7002 6.30078 8.69922 7.19922 13.1992c6.00195 28.7998 8.70117 33.6006 23.1016 39.6006c7.5 3.2998 9.90039 2.69922 18.5996 -3.2998c20.7012 -14.3994 39.5996 -37.5 43.2012 -52.501c1.19922 -4.79883 2.99805 -10.1992 4.5 -11.6992
c6.2998 -8.09961 9.44922 -47.625 9.44922 -87.0752s-3.14941 -78.8252 -9.44922 -86.625c-1.50195 -1.7998 -3.60156 -7.5 -4.5 -12.6006c-2.70117 -11.6992 -20.1016 -46.7998 -30.002 -59.6992c-4.5 -5.69922 -7.79883 -11.0996 -7.79883 -12.5996
c0 -4.20117 -46.2012 -48.6006 -56.1016 -54.2998c-61.7988 -34.2002 -65.3984 -35.1006 -134.699 -35.1006c-37.5 0 -58.8008 1.2002 -61.5 3.2998c-7.09277 5.32227 -21.624 7.45801 -31.1992 11.4004c-38.6992 17.3994 -58.5 27.2998 -58.5 29.4004
c0 1.19922 -1.5 2.39941 -3.30078 2.39941c-3.89844 0 -48.8984 29.6992 -50.0996 33.2998c-0.599609 1.5 -2.70117 2.7002 -4.80078 2.7002s-8.09961 4.80078 -13.7988 10.5v22.5c0 7.24902 1.80078 12 3 12zM808.551 349.4c0 -3.90039 3.90039 -2.7002 12 3.59961
c6.89844 5.40039 7.19922 6 1.5 6c-6.30078 0 -13.5 -5.09961 -13.5 -9.59961zM834.951 364.1c-3.90039 -0.599609 -0.900391 -1.19922 6.59961 -1.19922s10.5 0.599609 6.90039 1.19922c-3.90039 0.600586 -9.90039 0.600586 -13.5 0zM504.051 380
c4.66211 -7.7666 22.3008 -8.4209 41.9023 -8.4209c2.7041 0 5.44629 0.0126953 8.19727 0.0205078c-21.3008 1.19922 -38.0996 5.70117 -40.1992 7.80078c-4.20117 4.2002 -12.6016 4.79883 -9.90039 0.599609zM303.65 389.3
c-3.64844 -3.64844 3.70312 -14.5312 7.19922 -8.7002c3.30078 5.10059 -3.29883 12.5996 -7.19922 8.7002zM478.25 401c-9.5293 0 8.75195 -17.2549 4.5 -4.5c-1.19922 2.40039 -3 4.5 -4.5 4.5zM445.551 430.4c0 -3.72656 11.8174 -17.4004 15.5996 -17.4004
c4.5 0 2.40039 4.80078 -4.5 11.6992c-8.21777 7.58594 -19.3301 34.2354 -24.3008 45c-1.88574 4.04199 -3.04492 20.6699 -3.04492 43.1436c0 2.54785 0.0146484 5.16992 0.0449219 7.85742c0 42.9004 0.300781 44.0996 9.30078 61.7998
c5.09961 9.90039 16.8008 25.2002 25.8008 34.2002c14.0996 13.7998 18.5996 16.2002 30.5996 17.6992c14.0996 1.50098 14.4004 1.20117 12.5996 -5.69922c-0.892578 -3.22754 -1.31445 -6.5498 -1.31445 -9.82617c0 -11.0352 4.78027 -21.5469 12.4141 -26.1738
c6.07324 -3.71094 13.8535 -5.62012 20.6748 -5.62012c5.30957 0 10.0371 1.15723 12.9268 3.52051c11.998 10.499 13.1992 12.2988 13.1992 25.7988c0 18.3008 -5.40039 25.8008 -27 36.6006c-11.7598 5.87988 -24.9277 9.07031 -35.7402 9.07031
c-5.7373 0 -10.8115 -0.898438 -14.6602 -2.77051c-8.99414 -3.99316 -42.3613 -20.3047 -42.3613 -27.5527c0 -0.577148 0.210938 -1.0957 0.662109 -1.54688c0.942383 -1.25879 28.4053 18.0283 32.3984 19.499c9.91113 3.85645 16.6953 11.1387 29.4004 6.90039
c4.19922 -1.7998 12.9004 -3.89941 19.2012 -5.09961c14.3984 -2.39941 32.0996 -19.2002 32.0996 -30.9004c0 -12.5996 -7.80078 -21.5996 -18.5996 -21.5996c-12.0381 0 -20.3584 10.4053 -20.3584 20.8574c0 4.39648 1.47168 8.80078 4.75879 12.4424
c8.39844 9.2998 3.29883 14.7002 -13.8008 14.7002c-24.5996 0 -53.4004 -15.8994 -63 -35.1006c-6.31836 -11.8457 -20.7471 -29.9951 -22.8008 -47.0996c-1.19922 -7.7998 -3.30078 -14.6992 -4.5 -15.5996c-1.86035 -1.11621 -2.69531 -11.3096 -2.69531 -23.9219
c0 -17.8936 1.68066 -40.6562 4.49609 -49.2783c6.90039 -20.0996 17.0996 -42 20.0996 -42c1.20117 0 2.40039 -1.5 2.40039 -3.59961zM571.551 424.699c0 -14.3926 15.6992 6.30078 4.79883 6.30078c-3 0 -4.79883 -2.7002 -4.79883 -6.30078zM640.551 451.699
c0 -1.49902 1.5 -2.69922 3 -2.69922c1.79883 0 3 2.10059 3 4.80078c0 6.11719 -6 1.15137 -6 -2.10156zM661.551 459.2c0 -0.600586 1.5 -1.2002 3 -1.2002c2.69922 0 10.5 15.2998 21.2988 42c2.89258 7.23145 4.4082 41.9199 4.4082 73.5908
c0 27.4561 -1.13867 52.6445 -3.50781 55.71c-2.09961 2.39844 -4.5 8.39941 -5.69922 13.7988c-3.30078 16.2002 -20.4004 47.4004 -33.3008 61.2002c-21.9004 23.7002 -42.9004 41.7002 -48 41.7002c-4.5 0 -4.5 -0.900391 1.20117 -6.89941
c3.59961 -3.90137 6.59961 -9.90039 6.59961 -13.5c0 -6.90039 4.19922 -8.7002 7.80078 -3.30078c0.158203 0.276367 0.436523 0.407227 0.820312 0.407227c5.45605 0 32.1943 -26.377 36.6777 -37.3066c1.80078 -4.5 4.20117 -8.40039 5.40039 -8.40039
c3.33594 0 11.7246 -24.3896 13.8008 -28.7998c3.88379 -8.74219 5.8252 -29.9717 11.0996 -36.3008c2.1748 -2.63965 3.30469 -27.3164 3.30469 -51.21c0 -22.2539 -0.979492 -43.8301 -3.00586 -46.2891c-1.79883 -2.09961 -4.19922 -9.2998 -5.09766 -15.9004
c-1.20117 -6.59961 -5.40039 -18 -9.60156 -25.2002c-3.89844 -7.2002 -7.19922 -13.5 -7.19922 -14.0996zM578.451 514.101v-3.60059c7.20117 12.6006 14.998 15.8994 24.8984 17.4004c4.80078 0.599609 0 1.19922 -10.7988 1.5
c-10.8008 0 -16.2012 -1.20117 -16.2012 -1.20117c2.40039 -0.899414 3.00195 -6.2998 2.10156 -14.0986zM640.551 542c0 -1.7998 1.5 -3 3 -3c1.79883 0 3 1.2002 3 3c0 1.5 -1.20117 3 -3 3c-1.5 0 -3 -1.5 -3 -3zM637.852 557c-3.24219 0 -8.23535 -6 -2.10156 -6
c2.69922 0 4.80078 1.2002 4.80078 3c0 1.5 -1.20117 3 -2.69922 3zM652.551 646.1c0 -3.89941 6.29883 -2.09961 8.09961 2.40039c4.52246 12.4346 -8.09961 4.76758 -8.09961 -2.40039zM139.551 703.4c0 -10.5293 22.6113 15.8145 6 6
c-3.30078 -2.10059 -6 -4.80078 -6 -6zM154.551 721.699c0 -1.49902 1.19922 -2.69922 2.69922 -2.69922c3.90039 0 10.5 8.7002 8.40039 11.1006c-2.40039 2.09961 -11.0996 -4.5 -11.0996 -8.40137zM526.551 726.199c0 -2.39844 2.09961 -4.19922 4.5 -4.19922
c3 0 4.5 3 4.5 7.7998c0 13.8555 -9 -0.734375 -9 -3.60059zM499.25 752c-3.96191 0 0.700195 -6 2.09961 -6c0.601562 0 1.20117 1.2002 1.20117 3c0 1.5 -1.5 3 -3.30078 3zM576.65 816.8c-2.21094 2.21094 -11.2129 -1.5 -3.90039 -1.5
c3.30078 -0.299805 5.09961 0.600586 3.90039 1.5zM554.75 821.3c-7.30762 0 1.68262 3.7168 3.90039 1.50098c1.19922 -0.900391 -0.599609 -1.80078 -3.90039 -1.50098zM543.949 826.1c-5.35254 1.07227 -19.6064 -1.49902 -5.39844 -1.49902
c5.69922 0 8.09961 0.598633 5.39844 1.49902zM507.949 832.1c-3.89844 -0.599609 -1.49805 -1.19922 5.10156 -1.19922c6.59961 -0.300781 9.59961 0.299805 6.90039 1.19922c-3.00195 0.600586 -8.40039 0.600586 -12.002 0zM104.15 866.6
c2.22266 -2.22266 4.44336 -3.13477 6.50293 -3.13477c5.63965 0 10.0781 6.83594 10.0781 12.3584c0 2.84668 -1.17871 5.34473 -3.98145 6.37695c-12.2988 4.7998 -21.2988 -6.90039 -12.5996 -15.6006zM112.551 873.8c0 -5.40039 -1.80078 -6.2998 -4.5 -2.09961
c-2.10254 3.50293 4.5 7.97656 4.5 2.09961z" />
</svg>
