<?xml version="1.0" standalone="no"?>
<!DOCTYPE svg PUBLIC "-//W3C//DTD SVG 1.1//EN" "http://www.w3.org/Graphics/SVG/1.1/DTD/svg11.dtd" >
<svg xmlns="http://www.w3.org/2000/svg" xmlns:xlink="http://www.w3.org/1999/xlink" version="1.1" viewBox="-10 0 1010 1000">
   <path fill="currentColor"
d="M216.461 38.8203c9.19043 -9.19043 17.0098 -16.3242 17.0098 -16.3242c0.274414 0.274414 -5.0752 9.46582 -11.7969 20.3027c-16.0498 25.7881 -25.7891 52.2627 -30.3154 82.4414c-3.44434 22.3496 -5.00977 32.2119 -5.00977 41.0049
c0 7.66699 1.19043 14.5205 3.36328 28.1309v26.3369l14.541 17.5586c18.4238 32.2461 16.5459 36.1514 48.2852 63.9229c17.5576 15.3643 31.5498 25.9268 58.1621 43.7588c34.3213 23.291 41.5596 31.0684 69.958 44.7188
c21.1943 9.78027 33.3584 15.6895 56.9277 26.6123c11.0664 5.06543 21.5674 9.97363 21.5674 10.4961c0 1.93164 -53.8506 18.8037 -69.9902 33.125c-5.62402 4.93848 -10.6992 8.7793 -11.248 8.6416c-0.548828 -0.136719 -20.7129 -11.5225 -44.7188 -25.2393
c-34.9795 -19.8906 -48.5596 -28.6699 -67.627 -42.9355c-22.9082 -17.1475 -24.9658 -19.2051 -49.3828 -46.9141c-23.3193 -26.4746 -26.749 -31.1387 -40.1914 -53.6348l-14.6777 -24.6914v-25.2402c-3.55957 -15.6318 -11.4111 -26.8213 -11.4111 -32.6035
c0 -11.9082 1.85059 -58.9219 2.49414 -65.6133c0.274414 -3.15527 5.21289 -17.833 10.9746 -32.6475c13.8652 -36.6465 28.4033 -56.2217 53.0859 -81.207zM766.255 22.7705c29.1289 24.377 55.1846 57.0303 70.5078 97.2568
c5.62402 14.8145 10.4258 29.4922 10.8369 32.6475c0.645508 5.68457 2.62988 55.4043 2.62988 67.2529c0 4.76074 -2.23047 15.5488 -5.92188 31.2383v25.2402l-20.4395 24.5537c-13.168 22.3594 -16.7354 27.1611 -39.7803 53.2236
c-24.1426 27.5723 -26.2002 29.4922 -49.3828 46.9141c-19.3418 14.54 -32.7842 23.0449 -68.0381 43.21c-24.0059 13.7168 -44.1699 25.1025 -44.7188 25.2393c-0.548828 0.137695 -5.4873 -3.70312 -10.8369 -8.50391
c-10.1514 -9.05371 -13.5801 -10.5625 -70.3701 -32.0996c-0.823242 -0.411133 2.33203 -2.46875 7.26953 -4.80078c99.7803 -46.2324 75.9844 -34.4697 139.918 -77.0918c24.5547 -16.4609 40.0547 -28.1211 57.3389 -42.9355
c32.6699 -28.1992 21.8145 -16.1631 44.4443 -55.0068c18.2441 -31.9619 22.6338 -24.7402 22.6338 -68.3125v-45.542c0 -40.6914 -16.21 -64.1641 -33.6074 -91.9072c-6.58496 -10.5625 -12.209 -19.7529 -12.4834 -20.5762zM168.038 481.345
c-5.35547 -0.563477 -31.5498 -2.2207 -31.5498 -4.52734c0 -0.274414 1.09766 -2.46875 2.33203 -4.93848c4.80078 -9.73926 14.8154 -22.3594 30.7275 -38.957c9.73926 -10.0137 17.6953 -17.2842 19.2041 -17.2842c6.68262 0 19.7559 9.94629 25.6514 15.3633
l-17.5586 17.2842c-14.543 14.5439 -20.7305 22.0996 -28.8066 33.0596zM785.46 431.139c5.68555 -5.08789 15.8096 -15.3633 25.4023 -15.3633c3.67578 0 32.918 29.7969 42.0869 42.9355c4.93848 7.13281 10.5625 16.5977 10.5625 18.1064
c0 1.27832 -19.7969 3.83789 -28.0107 3.83789c-1.47949 0 -2.58398 -0.0830078 -3.12793 -0.271484c-0.823242 -0.274414 -4.66406 -4.66406 -8.50488 -9.87598c-3.84082 -5.07617 -13.9912 -16.0498 -22.7705 -24.2803zM172.153 500.823
c0 -1.65039 4.11523 -4.29297 4.11523 -6.17285c0 -2.19531 11.9346 -19.4785 20.165 -29.2188c2.80957 -3.45703 37.5439 -42.9355 42.6611 -42.9355c3.56641 0 13.3057 3.29297 15.0889 5.07617c0.960938 0.959961 2.74414 1.7832 3.7041 1.7832
c2.85156 0 13.165 10.8174 16.3232 13.8545c-20.125 17.2539 -39.8682 36.5312 -57.8867 60.082c-5.54785 7.39648 -19.6846 0.71582 -29.4932 1.37207c-4.80078 0.274414 -14.6777 -2.33203 -14.6777 -3.84082zM725.789 443.21
c3.19043 -3.06738 13.4434 -13.8545 16.3232 -13.8545c3.19727 0 5.96387 -3.57324 9.60254 -4.93848c2.62695 -1.03516 4.57324 -1.72363 6.4541 -1.72363c4.60059 0 8.81348 4.11914 21.667 17.3613c23.3193 23.8682 39.2314 43.4844 43.3467 53.2236
c1.41699 3.1875 4.66406 5.42969 4.66406 7.27051c0 3.2168 -28.6924 6.73047 -34.9141 6.73047c-5.11328 0 -6.68066 -0.697266 -9.39355 -4.12402c-18.0996 -23.7676 -37.5156 -42.6006 -57.75 -59.9453zM466.118 441.427
c17.2842 -6.92676 25.583 -10.3906 33.8818 -10.3906s16.5977 3.46387 33.8818 10.3906l26.2002 10.5625l17.9707 15.6377c25.4287 22.25 42.1875 31.3525 66.8037 55.9668c15.9121 15.501 20.4385 20.8506 25.1025 29.4922v10.7002h12.4824
c10.8369 0 54.8701 -10.4258 78.1895 -18.3818c38.6748 -13.3867 93.1748 -39.168 121.125 -66.3916l13.3057 -13.3066v10.8369c0 25.0391 -27.4756 88.1797 -34.0186 93.6904c-2.05762 1.7832 -6.17285 4.52637 -9.19141 6.30957
c-19.8896 11.5225 -35.8018 20.8506 -55.418 32.0986l-22.6338 13.0322h-27.4346c-36.9004 9.05371 -65.0205 22.6338 -70.0967 23.4561c-2.19434 0.412109 -20.4385 1.23535 -40.4658 1.64648h-36.3516c-9.26367 -3.03613 -18.5459 -5.23047 -27.8457 -8.23047
c-6.00586 -8.21484 -12.041 -16.4004 -18.1074 -24.5537v-13.9922c0 -13.7178 0.137695 -13.9922 7.54492 -31.9619c6.41016 -15.1758 10.0244 -26.3701 10.0244 -39.5869c0 -7.57422 -1.18652 -15.8125 -3.71484 -25.8447
c-3.84082 -14.8154 -5.62402 -19.2041 -12.0713 -29.2178v-11.7979l-26.0625 -10.2881c-17.9775 -10.0332 -24.1689 -13.1387 -29.1309 -13.1387c-1.55078 0 -2.98145 0.302734 -4.61426 0.792969c-3.01758 0.823242 -13.8545 6.31055 -24.2803 12.0713l-18.9297 10.5625
v11.6602c-8.15234 12.7598 -22.8066 37.0967 -22.8066 57.6826c0 15.5586 2.17773 19.7227 9.36328 36.9678c7.54492 18.2441 7.68164 18.6553 7.68164 32.2354v13.8555c-6.06641 8.15332 -12.1016 16.3379 -18.1064 24.5537c-9.2998 3 -18.0977 9.05371 -27.8467 9.05371
h-37.0371c-40.6035 -0.959961 -38.8203 -1.50879 -87.791 -13.7178c-38.9219 -9.55176 -39.4863 -6.12695 -71.3311 -24.8281c-12.0713 -6.85938 -30.8643 -17.833 -41.8379 -24.1426c-10.9736 -6.31055 -21.5361 -12.8945 -23.5938 -14.6777
c-6.42285 -5.24023 -34.0195 -68.6592 -34.0195 -93.6904v-10.8369l13.3057 13.1689c28.0557 27.6748 82.2627 53.0117 120.714 66.2549c24.0049 8.23047 67.9004 18.6562 78.6006 18.6562l12.4824 -10.7002c7.93164 -14.4619 43.8213 -48.124 59.1221 -59.1221
c8.23047 -5.76074 22.9082 -17.6953 32.7852 -26.3369l17.9697 -15.6377zM412.209 608.367c0 -13.8301 -31.3604 -21.8066 -55.8369 -21.8066c-12.8076 0 -23.7314 2.18359 -27.291 6.85547c-4.25195 5.21191 -5.34961 10.2881 -2.74316 11.7969
c1.23438 0.685547 2.19434 2.05762 2.19434 3.01758c0 7.13281 31.1387 18.6553 50.4805 18.6553c15.501 0 21.3994 -2.05762 27.709 -9.46484c3.01758 -3.42871 5.4873 -7.54395 5.4873 -9.05371zM671.468 608.094c0 -2.35645 4.11523 -2.90527 4.11523 -4.80176
c0 -3.01758 -4.66406 -10.9736 -7.40723 -12.7568c-2.77051 -1.74707 -12.4961 -2.56836 -23.6504 -2.56836c-14.249 0 -30.8291 1.34082 -38.2148 3.80273c-7.81934 2.60645 -18.5186 12.209 -18.5186 16.5977c0 7.39648 12.1738 15.7979 18.9297 17.2842
c3.09473 0.638672 6.55762 0.926758 10.2305 0.926758c23.1152 0 54.5156 -11.4033 54.5156 -18.4844zM272.84 458.573c11.7969 -12.0713 15.7744 -15.3633 17.9697 -14.8145c8.36719 2.19434 13.0312 3.97754 13.0312 4.93848c0 0.621094 10.1982 5.91211 13.5801 9.05273
v17.9697c-13.4424 11.6602 -35.5273 28.9443 -46.7764 43.6221c-5.80078 7.45898 -11.4854 13.1836 -20.5762 8.6416c-4.3418 -2.60645 -27.1602 -1.87207 -27.1602 -5.89844c0 -1.23438 8.50488 -15.2266 13.4434 -22.085
c7.68164 -10.6992 20.0273 -24.6914 36.4883 -41.4268zM675.446 464.335c8.40039 -7.71484 21.7998 -21.126 35.1494 -21.126c4.45312 0 63.7529 62.5693 63.7529 74.7607c0 1.09766 0.685547 1.9209 1.37207 1.9209c0.822266 0 1.37109 0.685547 1.37109 1.37109
c0 5.46094 -21.7666 3.48535 -27.1602 6.72168c-9.04395 4.51855 -14.8037 -1.21973 -20.5762 -8.6416c-11.248 -14.6777 -27.4346 -31.9619 -40.8779 -43.6221zM358.162 471.879c1.96191 0 14.6426 12.3457 16.0488 12.3457c1.90723 0 -55.2803 53.5107 -55.2803 59.8086
c0 3.96094 -5.41211 5.2793 -12.5635 5.2793c-12.4727 0 -30.2363 -4.01074 -33.8018 -5.00488c12.0371 -21.0645 16.7246 -27.9717 42.5234 -55.6934c12.0723 -12.8945 22.9082 -23.5938 24.0059 -23.5938c6.53418 0 14.8633 6.8584 19.0674 6.8584zM641.29 471.879
c4.02832 0 6.23633 -3.41992 10.2881 -4.9375c2.63281 -1.01562 4.56348 -1.74219 6.46387 -1.74219c5.03027 0 9.84277 5.09473 26.8691 23.415c25.7754 27.6973 30.5068 34.6602 42.5234 55.6934c-3.49219 0.974609 -21.2754 4.91992 -33.7725 4.91992
c-7.16504 0 -12.5918 -1.29688 -12.5918 -5.19434c0 -2.74414 -16.5986 -21.2627 -35.665 -39.6436l-20.165 -19.6162c3.47363 -2.58301 10.6309 -7.67969 12.0713 -10.5625c0.685547 -1.23438 2.46875 -2.33203 3.97852 -2.33203zM310.288 840.329
c-28.3154 -45.415 -141.701 -227.16 -141.701 -227.16c0.274414 0 7.54492 3.97754 16.0498 8.7793c27.9834 15.5 29.3555 16.0488 51.0283 20.0273c11.1113 2.05762 20.4395 3.97754 20.7139 4.25195c0.411133 0.412109 50.6172 107.545 62.6885 134.02
c21.959 48.043 50.9473 116.61 79.6982 158.71c21.4473 31.6758 19.2422 27.6357 39.2314 39.7812c-0.274414 0.274414 -3.1543 0 -6.58398 -0.548828c-4.11523 -0.685547 -10.8369 -3.84082 -19.4785 -9.19043h-13.0322l-31.001 -47.0508
c-27.2979 -34.4307 -34.2939 -44.1709 -57.6133 -81.6191zM819.616 619.479c6.44727 -3.42871 11.7969 -6.30957 12.0713 -6.30957c0 0 -88.6426 141.956 -130.315 208.505c-36.0771 57.75 -39.7803 63.0996 -69.1357 100l-31.002 39.0947h-13.0312
c-7.81934 4.93848 -15.6377 16.7354 -19.3418 17.5576c-13.0234 2.08496 -4.38867 -1.5332 3.84082 -6.58398c10.9746 -6.72168 10.9746 -6.72168 28.6699 -32.9219c17.0098 -25.1025 18.9297 -28.6689 41.9756 -78.1895
c21.5615 -46.4561 31.8828 -68.5645 47.0508 -100.686c13.4424 -29.2188 52.8115 -113.306 53.2227 -113.718c0.274414 -0.274414 9.87695 -2.19434 21.3994 -4.25195c28.4639 -5.19434 34.3447 -11.7246 54.5957 -22.4971zM368.587 681.07
c4.20898 -6.62793 8.46191 -13.2129 12.7578 -19.7539c1.11621 5.95312 2.02246 9.78418 5.0752 16.3242c3.29199 7.27051 3.84082 10.9736 7.40723 48.6973c0.875 11.8047 4.25293 117.283 4.25293 117.283c-0.412109 -0.411133 -5.07617 -8.91602 -10.5625 -19.0674
v-18.2441c-5.0166 -22.5547 -24.8291 -44.54 -24.8291 -67.626c0 -19.2471 3.99902 -38.3428 5.89844 -57.6133zM423.046 666.118c4.9375 -3.7041 6.30957 -4.38965 5.0752 -2.46973c-0.274414 0.548828 1.37109 3.56738 3.84082 6.72168
c9.9248 12.7607 10.4775 54.71 12.6201 76.1318c0.274414 2.88086 0.136719 5.21289 -0.412109 5.21289c-0.685547 -0.137695 -5.34961 -3.97852 -10.5625 -8.7793c-8.6416 -7.95605 -12.8682 -9.68848 -17.2832 -25.6514
c-0.90625 -3.27539 -1.20801 -6.68359 -1.20801 -10.1592c0 -6.9502 1.20801 -14.167 1.20801 -21.1172c0 -15.9297 -1.49707 -13.8359 6.72168 -19.8896zM469.685 667.353c5.76172 -4.38965 6.58398 -3.97852 6.58398 -3.97852
c-0.411133 0.548828 1.23535 3.42969 3.7041 6.58496c10.709 12.9219 10.6279 51.668 12.7568 73.5254v1.37207c-8.91699 -8.09375 -19.6152 -10.5625 -27.0225 -25.7891c-4.52734 -9.32812 -8.23047 -18.1074 -8.23047 -19.4785
c0 -1.37207 1.23438 -8.23047 2.87988 -15.0898c2.74414 -12.0713 3.15527 -12.6201 9.32812 -17.1465zM523.594 663.237c-2.87988 -3.01758 5.625 2.74316 9.60254 6.44727c4.25195 4.11523 7.13281 5.70508 7.13281 18.2441v29.7666
c0 16.2012 -13.3057 16.873 -23.0449 25.9258l-10.8369 10.0137v-10.1504c1.58984 -21.6924 3.08203 -60.8545 13.5801 -73.5254c2.46973 -3.15527 4.11523 -6.17285 3.56641 -6.72168zM571.605 663.374c-0.823242 -1.37109 4.11523 1.50977 10.2881 6.03613
c2.73242 2.00391 8.6416 23.8174 8.6416 29.4922c0 1.7832 -3.15527 10.1514 -6.99609 18.793c-6.30957 14.1289 -7.81836 16.3242 -16.7354 24.6914c-5.48633 5.0752 -10.2881 9.19043 -10.9736 9.32812c-1.89941 0 3.84668 -53.3838 4.80078 -58.7109
c2.60645 -14.6777 3.56641 -17.6953 7.40723 -22.6338c2.46973 -3.1543 4.11523 -6.30957 3.56738 -6.99609zM614.541 675.583c5.60547 -12.5293 0.273438 -19.8145 10.8359 -3.84082v9.32812c1.90137 19.2686 11.9346 38.3662 11.9346 57.6133v34.1562
c-9.21973 41.2754 -16.8672 36.793 -29.6299 60.4932c-2.88086 5.21289 -5.48633 9.87695 -5.76074 10.2881c-0.135742 0.135742 -0.196289 -1.94434 -0.196289 -5.56445c0 -14.6367 0.990234 -54.4473 1.97949 -74.6826
c1.15527 -24.9658 3.54102 -47.9287 5.48633 -67.9004c0.548828 -6.99609 2.19531 -13.1689 5.35059 -19.8906zM319.204 688.065c3.0127 -9.03809 -2.31641 -18.4238 4.25293 -21.5361c6.44727 -2.88086 7.81934 -3.15527 7.81934 -1.50879
c0 0.548828 1.7832 2.05762 3.84082 3.29199c6.14355 3.63086 12.8525 36.1211 12.8525 48.1338c0 6.80566 -3.5127 3.34082 -11.0693 -1.08301c-8.36816 -5.0752 -11.3857 -7.95605 -17.6963 -16.7354v-10.5625zM668.725 664.884
c0 -1.37207 4.38965 -0.137695 9.87598 2.60547c4.06641 2.2373 9.74023 13.167 9.74023 20.5762v10.7002c-6.44727 8.91602 -17.1475 11.7969 -25.3779 16.5977c-5.48633 3.29199 -10.1504 5.76172 -10.4248 5.4873c-1.09766 -1.09766 2.88086 -30.041 5.48633 -39.5059
c2.33203 -8.64258 3.56738 -11.1113 6.72168 -12.8945c2.19531 -1.37207 3.97852 -2.88086 3.97852 -3.56641z" />
</svg>
