<?xml version="1.0" standalone="no"?>
<!DOCTYPE svg PUBLIC "-//W3C//DTD SVG 1.1//EN" "http://www.w3.org/Graphics/SVG/1.1/DTD/svg11.dtd" >
<svg xmlns="http://www.w3.org/2000/svg" xmlns:xlink="http://www.w3.org/1999/xlink" version="1.1" viewBox="-10 0 1010 1000">
   <path fill="currentColor"
d="M495.651 245.454c-0.81543 -27.1045 -7.43555 -190.322 -7.43555 -221.404c0 -3.2998 0.0742188 -5.11035 0.238281 -5.11035c5.30371 0 68.5605 38.6367 74.6211 45.4541c1.13672 1.13672 9.46973 7.95508 18.9395 15.1523
c45.0762 34.4697 112.879 118.182 136.364 168.561c39.1006 83.9746 58.0215 161.768 58.0215 244.086c0 36.502 -3.7207 73.8945 -11.0518 113.11c-10.6064 57.9551 -46.2129 143.561 -79.5459 193.182c-34.8486 51.1367 -44.6973 61.3643 -115.53 123.485
c-18.8779 16.5176 -32.3574 18.46 -50 32.5762c-6.81836 5.30273 -12.1211 7.19629 -14.3936 4.92383c-1.89453 -1.89355 -3.78809 -31.4395 -3.78809 -65.9092c0 -34.0908 -1.51562 -73.4844 -3.03027 -87.5c-0.736328 -7.36523 -1.1377 -13.4541 -1.1377 -18.502
c0 -15.7227 3.88867 -21.3408 13.6377 -23.9219c10.9844 -2.65234 17.4238 -7.19727 44.3184 -31.8184c20.6318 -18.79 27.2881 -37.2217 27.2881 -76.5566c0 -25.0566 -1.99121 -36.082 -11.001 -54.8828c-17.8027 -37.1211 -35.2266 -55.3027 -60.2266 -62.8789h-17.0459
v-49.6211c0 -24.6211 -1.51465 -44.6973 -3.03027 -44.6973c-6.81836 0 -23.1055 21.9697 -26.8936 36.7422c-2.27246 8.33398 -7.57617 19.3184 -11.3643 24.2432v8.71191h-11.7422c-2.65137 -5.30273 -3.97656 -21.3066 -3.97656 -39.3945
c0 -18.0869 1.3252 -38.2578 3.97656 -51.8936c4.5459 -20.0752 21.9697 -50 42.4248 -71.9697l11.3633 -11.7422v-92.4248zM659.666 278.788c-10.4795 -4.85645 -21.9512 -7.21191 -33.6289 -7.21191c-22.9336 0 -46.6611 9.08398 -65.2344 26.1514
c-6.81836 6.06055 -15.5303 14.0146 -20.0752 17.4238c-11.3643 9.46973 -10.2275 16.667 1.51465 9.09082c5.63379 -3.70215 10.8564 -5.62598 16.4834 -5.62598c7.61426 0 15.9678 3.52344 27.0771 10.9297c11.6445 7.7627 21.3984 11.6631 30.4502 11.6631
c10.3809 0 19.8359 -5.13086 30.1562 -15.4512c10.1016 -10.1016 17.3398 -14.9834 22.3906 -14.9834c2.52539 0 4.50293 1.2207 6.01855 3.61914c3.78711 5.68262 9.46973 4.5459 9.46973 -2.27246c0 -10.6055 -12.5 -27.6514 -24.6221 -33.333zM450.954 36.3633
c10.2275 -5.30273 19.6973 -9.84766 20.834 -9.84766c1.51465 0 3.03027 13.2568 3.40918 29.5449v29.5459h-27.6523c-53.0303 8.33301 -103.409 46.2119 -140.53 97.3477c-28.0303 39.0156 -31.8174 48.8643 -34.4697 84.4697
c-0.338867 4.7002 -0.504883 9.38086 -0.504883 14.0078c0 31.5469 7.69824 60.5693 20.5811 75.7656c4.92383 6.06055 9.09082 12.1211 9.09082 14.0146c0 1.89453 2.65137 6.06055 6.43945 9.46973c3.40918 3.40918 6.81836 14.3945 7.9541 24.2422
c0.324219 3.56445 0.527344 6.48828 0.527344 9.00391c0 9.24805 -2.74121 12.9883 -12.2695 22.8145c-12.1211 12.5 -12.8789 15.1514 -10.2275 27.2734c4.9248 21.2119 9.46973 24.6211 34.0918 24.6211c18.5605 0 23.1055 1.51465 31.8174 10.2266
c5.30371 5.30371 10.6064 13.6367 11.7432 17.8037c3.39258 17.6426 6.17676 51.3936 6.17676 74.8457c0 2.72949 -0.0371094 5.32031 -0.116211 7.72949c-0.0869141 2.31836 -0.131836 4.54102 -0.131836 6.6748c0 25.7559 6.5332 38.4844 24.374 48.6289h13.2578v-13.6367
c0 -22.9023 4.8418 -33.1885 9.09082 -47.3486c3.40918 -10.9844 9.09082 -7.19727 11.7422 8.71191c1.73828 10.042 4.95312 15.0625 7.8877 15.0625c2.82227 0 5.38477 -4.6416 6.12793 -13.9258c1.13574 -11.7422 1.89355 -12.8789 4.54492 -6.81836
c4.72266 12.1426 8.91016 18.4111 12.0098 18.4111c2.12109 0 3.7334 -2.93848 4.65723 -8.94141c1.51465 -10.2275 7.5752 -9.84863 9.84863 0.757812c1.13574 4.92383 3.03027 88.6357 4.16602 186.363c0.833008 54.1602 1.25977 92.4346 1.25977 119.024
c0 42.4092 -1.08398 55.0938 -3.32715 55.0938c-0.186523 0 -0.380859 -0.0878906 -0.583984 -0.253906c-3.30078 -2.83008 -64.3926 -35.6035 -67.4238 -38.6367c-1.13672 -1.51562 -10.2275 -9.09082 -20.834 -17.4248
c-26.8936 -21.2119 -75.7568 -72.3477 -92.0449 -96.2119c-7.95508 -11.3633 -17.4248 -25.7568 -21.9697 -32.1963c-4.5459 -6.43945 -9.46973 -15.9092 -10.9854 -21.2129c-1.51465 -5.30273 -4.16602 -10.2266 -6.06055 -11.3633
c-4.54492 -3.03027 -29.166 -58.333 -39.3936 -89.0156c-16.3125 -48.0889 -24.5684 -107.196 -24.5684 -166.456c0 -46.6982 5.12695 -93.4902 15.4775 -135.059c8.33301 -34.0908 29.5449 -88.2578 42.8027 -109.091c11.5098 -17.707 11.7979 -27.6123 22.3486 -45.833
c8.33301 -13.6367 9.09082 -14.3945 21.5908 -29.9248c4.16699 -4.92383 7.57617 -10.6055 7.57617 -12.1211c0 -3.40918 76.1357 -80.6816 92.0449 -93.1816c18.9395 -15.1514 31.0605 -23.1064 49.6211 -32.9551zM167.31 145.671
c2.27246 0.378906 83.2656 46.7529 93.8721 53.1924c1.67871 1.0791 2.67383 2.34766 2.67383 4.74414c0 5.17285 -4.64062 15.5986 -17.0674 40.7109c-48.791 100.45 -62.2441 152.652 -62.2441 253.147c0 5.6123 0.0419922 11.376 0.12207 17.3066
c0.0654297 5.33301 0.0966797 10.5439 0.0966797 15.5273c0 24.043 -0.734375 42.8184 -1.99023 44.7002c-1.13672 1.89355 0.378906 4.5459 3.40918 6.06055c3.03027 1.13672 5.68164 5.68164 5.68164 10.2275c0 4.92383 1.51562 13.6357 3.78809 20.0752
c10.543 35.8525 28.2314 90.9326 46.5908 127.652l20.4551 40.1514l-49.2432 26.1357c-27.2725 14.3945 -54.8232 24.8398 -57.4746 25.5977l60.083 -118.584c-4.9248 -5.30371 -27.9873 -20.2705 -34.0479 -30.498c-8.33301 -14.3945 -13.2568 -18.9395 -20.0752 -18.9395
c-15.7607 0 -26.6484 -15.0107 -26.6484 -30.4883c0 -6.09668 1.68945 -12.2656 5.43652 -17.6182c2.7002 -3.85742 4.02539 -6.63477 4.02539 -10.9824c0 -4.19043 -1.23047 -9.83984 -3.64746 -19.3203c-3.03027 -12.1211 -6.43945 -29.167 -7.9541 -37.8789
c-1.51562 -9.46973 -4.92383 -16.667 -8.71191 -18.1816c-3.40918 -1.51562 -28.4092 -10.2275 -54.9248 -18.9395c-36.4551 -12.4219 -50.7715 -17.7207 -50.7715 -19.7393c0 -0.8125 2.32129 -1.09375 6.4541 -1.09375c4.54492 0 30.3027 -7.95508 56.8174 -17.4248
l48.4854 -17.4238v-19.3184c1.51465 -10.9854 7.9541 -28.7881 10.6055 -39.3936c2.18262 -8.22656 3.32422 -13.2539 3.32422 -17.291c0 -5.07031 -1.80078 -8.58008 -5.59668 -14.9062c-4.16699 -6.81836 -7.5752 -16.2881 -7.5752 -21.2119
c0 -12.5 16.2871 -27.2734 29.9238 -27.2734c9.09082 0 13.2578 -3.03027 22.3486 -18.1816c6.43945 -9.84863 18.958 -23.8779 24.2607 -29.9385zM811.182 167.046c11.999 -5.81836 23.8691 -10.8174 23.8691 -10.2051c0 1.7832 -48.2168 99.3076 -48.2168 105.022
c0 0.441406 9.98438 13.0479 17.9082 26.0156c13.2578 21.9697 16.2881 25 29.167 26.8936c17.6445 2.81348 27.8662 14.0859 27.8662 27.1748c0 6.29883 -2.36719 13.0176 -7.41211 19.416c-7.19727 9.09082 -7.5752 11.7432 -3.40918 26.1367
c9.46973 34.4697 11.3643 42.8027 11.3643 53.7881c0 10.9844 1.13574 11.7422 42.4238 26.5146c23.4854 8.33398 50.3789 17.0459 59.4697 18.9395h17.0459l-28.0303 14.0156c-15.5303 5.30273 -42.4248 14.3936 -59.0918 20.0752l-31.0605 10.6064v19.3184
c-0.832031 7.76465 -12.7002 41.4707 -12.7002 57.7715c0 5.40332 1.30371 8.89453 4.74609 8.89453c1.89355 0 3.40918 6.43945 3.40918 14.0156c0 16.2881 -12.1211 31.4395 -25 31.4395c-9.09082 0 -12.1211 3.40918 -33.7119 37.1211l-12.8789 20.0762l28.0303 55.3027
c15.9092 30.3027 28.0303 56.0605 27.2725 56.4395c-0.757812 0.757812 -26.5146 -11.3643 -57.1973 -26.8945c-29.3057 -14.834 -55.501 -26.2119 -59.7725 -26.2119c-2.58008 0 -9.3623 6.66602 -13.7119 10.6816c-0.848633 0.743164 -1.47461 1.12207 -1.87305 1.12207
c-0.342773 0 -0.516602 -0.283203 -0.516602 -0.856445c0 -3.50781 6.47559 -17.9082 20.1924 -45.3408c28.4092 -56.8184 48.4854 -120.076 57.5762 -179.925c3.03027 -20.0752 4.54492 -51.7988 4.54492 -79.4033c0 -27.6035 -1.51465 -51.0889 -4.54492 -54.6875
c-3.40918 -3.78711 -3.03027 -6.06055 1.51465 -9.84863c6.81836 -5.68164 7.19727 -11.3633 0.757812 -11.3633c-3.03027 0 -7.19727 -12.1211 -11.7422 -33.333c-3.78809 -18.1816 -10.2275 -43.1816 -14.3945 -55.6816
c-7.19629 -21.9697 -56.4395 -123.864 -64.3936 -133.713c-6.81836 -7.9541 2.65137 -5.30273 12.8789 3.78809c11.2969 10.5049 16.0615 15.5127 22.3223 15.5127c5.70508 0 12.6533 -4.15723 26.9199 -12.1035c15.1514 -7.9541 37.8789 -20.0762 50.3789 -26.5146z
M335.045 254.546c14.3945 -5.30371 31.0605 -7.95508 49.2432 -7.95508c1.20703 -0.0126953 2.38477 -0.0195312 3.53418 -0.0195312c32.4219 0 42.7529 5.37012 55.5566 28.0498c6.04395 11.416 23.3184 36.3857 23.3184 53.0703c0 4.33594 -1.16699 8.1123 -4 10.9453
c-5.68262 5.68164 -7.19727 5.68164 -17.0459 -1.51562c-6.43848 -4.52441 -10.4795 -6.9707 -16.1611 -6.9707c-6.68652 0 -15.6455 3.38672 -33.46 10.7588c-15.5303 6.06055 -32.5762 11.3633 -38.2578 11.3633c-10.6064 0 -25.7578 -11.3633 -25.7578 -19.6963
c0 -2.27344 -2.65137 -7.19727 -6.06055 -10.9854c-3.03027 -3.40918 -8.71191 -14.3936 -12.5 -24.6211c-3.0127 -7.83203 -4.68359 -13.9395 -4.68359 -18.9561c0 -10.7529 7.67773 -16.4941 26.2744 -23.4678z" />
</svg>
