<?xml version="1.0" standalone="no"?>
<!DOCTYPE svg PUBLIC "-//W3C//DTD SVG 1.1//EN" "http://www.w3.org/Graphics/SVG/1.1/DTD/svg11.dtd" >
<svg xmlns="http://www.w3.org/2000/svg" xmlns:xlink="http://www.w3.org/1999/xlink" version="1.1" viewBox="-10 0 1010 1000">
   <path fill="currentColor"
d="M365.812 154.749l73.7461 -28.9082l59.8818 -0.294922h59.5869l76.6963 29.793l76.6963 30.0889v84.9561v85.25h-87.0205h-87.0205v42.7734c0 33.9229 0.884766 42.7725 3.83496 42.7725c2.35938 0 27.7285 2.65527 56.9316 5.90039
c28.9082 3.24414 53.3926 4.71973 54.5723 3.53906c1.17969 -1.17969 4.12988 -17.6992 7.08008 -36.873l5.01465 -34.5127h23.3037h23.3037v93.8047c0 51.918 0.884766 119.765 1.76953 151.328l1.77051 57.2266l-89.6758 80.8262l-89.3809 80.5312l-0.884766 -79.9414
l-0.589844 -79.9414h-35.3984h-35.3975l-0.59082 79.6465l-0.884766 79.6465l-86.1357 -79.9414l-86.4307 -79.9414v-151.622v-151.622h23.0088h23.0088l5.31055 35.9883c2.94922 20.0586 5.60449 36.5781 5.89941 36.873
c0.589844 0.589844 24.4834 -1.77051 53.6875 -5.01465c28.9082 -3.24512 55.1621 -5.90039 58.1113 -5.90039c4.71973 0 5.01562 5.90039 5.01562 82.5957v82.5967h35.6924h35.3984l-0.884766 -9.43945l-0.884766 -9.73535l-24.1895 -0.884766l-24.4834 -0.884766v-87.3154
v-87.0205l11.7998 -14.1592c6.48926 -7.66992 11.7988 -14.75 11.7988 -15.6348s-5.30957 -0.884766 -11.7988 0l-11.7998 1.76953v-13.8643v-13.5693h-97.3447h-97.3457l0.589844 -85.8398l0.885742 -86.1357zM152.537 238.525
c53.9824 -21.2393 100 -38.9385 102.064 -38.9385c2.65527 -0.294922 3.54004 17.9941 3.54004 81.7109v82.3008l-77.2861 15.3398c-89.3809 17.9941 -87.9053 17.4033 -87.9053 21.2383c0 6.78516 36.2832 151.918 38.3477 154.277
c2.9502 2.9502 39.2334 19.4688 40.4131 18.2891c0.294922 -0.294922 -8.55469 -28.3184 -19.7637 -62.2412l-20.3545 -61.9473l18.2891 -5.89941c10.0293 -2.9502 18.584 -5.90039 19.1748 -5.90039c0.294922 -0.294922 2.35938 -9.73438 4.42383 -20.9434
l3.54004 -20.3545l33.9238 -5.01465c18.584 -2.6543 36.873 -5.01465 40.708 -5.01465l6.48926 -0.294922l-0.589844 156.637l-0.884766 156.638l-49.8525 29.2031c-27.1387 16.2246 -50.7373 29.2041 -51.918 29.2041c-1.47461 0 -6.48926 -12.3896 -11.5039 -27.4336
c-7.375 -21.5342 -9.14453 -32.1533 -9.14453 -51.3281c0 -23.5986 -0.294922 -24.1885 -8.84961 -29.498c-7.66992 -4.4248 -8.84961 -6.78516 -8.84961 -17.9941v-12.6846l14.749 2.06543c13.5693 1.76953 14.749 1.47461 14.749 -4.4248
c0 -4.71973 -2.6543 -6.78516 -13.2734 -9.43945c-7.375 -1.77051 -14.1602 -4.4248 -15.0449 -5.90039c-0.884766 -1.47461 -2.6543 -10.0293 -4.12988 -19.1738c-1.47461 -9.14453 -3.24414 -17.1094 -3.83496 -17.6992c-0.589844 -0.589844 -9.73438 0 -20.0586 1.47461
c-10.3242 1.47559 -19.7637 1.77051 -20.9443 0.59082c-0.884766 -0.885742 -4.12891 -51.3281 -6.78418 -112.095l-5.01465 -110.324l6.19434 -8.25977l6.19531 -8.25977l-6.78516 -0.884766c-5.89941 -0.884766 -6.48926 -2.65527 -7.375 -24.7793l-0.884766 -23.5986z
M747.817 281.888v-82.5957l6.78418 2.65527c3.54004 1.47461 47.4932 18.584 97.6406 38.3477c50.1475 19.4688 92.0352 36.5781 93.2148 37.7578c2.06543 2.36035 -10.0293 286.431 -12.3887 288.496c-0.59082 0.884766 -9.14453 0 -18.8799 -1.47461
c-9.43945 -1.77051 -18.8789 -2.9502 -20.9434 -2.9502c-2.06543 0 -4.12988 7.66992 -5.30957 19.1738c-2.06543 18.8789 -2.36035 19.1738 -12.9795 22.124c-5.89941 1.47461 -12.3896 2.9502 -14.1592 2.9502c-2.06543 0 -3.83496 3.53906 -3.83496 7.66895
c0 7.66992 0.294922 7.96484 13.2744 6.19531l13.2744 -2.06543v13.2744c0 11.21 -1.18066 13.5693 -9.14453 18.2891c-8.84961 5.30957 -8.84961 5.30957 -7.08008 24.7793c1.77051 16.8135 0.884766 23.5986 -7.375 50.1475
c-5.30957 16.8135 -10.0293 31.5635 -10.6191 32.7432c-0.884766 1.17969 -23.8936 -11.5049 -51.3271 -28.0234l-49.8525 -30.0889l-0.294922 -94.1006v-93.8047l19.7637 -23.8945l19.7646 -23.5986l-15.3398 2.06543c-8.55469 1.17969 -17.4043 2.6543 -19.7637 3.53906
c-3.83496 1.47559 -4.4248 -4.42383 -4.4248 -41.2979c0 -37.7578 0.589844 -43.0674 4.71973 -43.0674c5.01465 0 59.8818 7.96484 70.7959 10.3242c5.01562 1.17969 6.49023 4.71973 8.84961 21.2393l2.65527 20.0586l18.584 5.30957
c10.0293 2.9502 18.2891 6.78516 18.2891 8.25977c0 1.47559 -8.84961 29.2041 -19.4688 61.9473c-10.6201 32.4482 -18.8789 59.5869 -18.2891 60.1768s9.73438 -3.24512 20.6484 -7.96484c17.6992 -7.96387 20.3545 -10.3242 23.0088 -19.7637
c9.43945 -35.3984 35.3984 -146.018 34.2188 -146.902c-0.884766 -1.18066 -157.228 -33.334 -161.652 -33.334c-1.47461 0 -2.35938 -37.168 -2.35938 -82.5957z" />
</svg>
