<?xml version="1.0" standalone="no"?>
<!DOCTYPE svg PUBLIC "-//W3C//DTD SVG 1.1//EN" "http://www.w3.org/Graphics/SVG/1.1/DTD/svg11.dtd" >
<svg xmlns="http://www.w3.org/2000/svg" xmlns:xlink="http://www.w3.org/1999/xlink" version="1.1" viewBox="-10 0 1010 1000">
   <path fill="currentColor"
d="M456.781 93.667c19.9004 -33.002 29.2402 -49.585 38.7324 -49.585c9.58691 0 19.3301 16.916 40.2676 50.918c16.666 27.333 30.666 52.333 30.666 55c0.333984 7.33301 -6.33301 13.333 -15 13.333c-5.33301 0 -10.333 -4.66602 -17.666 -17
c-7.33398 -11.333 -12.334 -16.333 -16.334 -15.666c-5 1 -5.66602 9.33301 -6.66602 94c-0.0429688 6.77051 -0.0644531 13.373 -0.0644531 19.7422c0 42.8633 0.946289 75.1396 2.39746 76.5908c0.305664 0.305664 1.02637 0.454102 2.1123 0.454102
c4.83594 0 16.917 -2.94922 31.8877 -8.12109c25.7852 -8.8584 52.9971 -13.2881 80.1387 -13.2881c30.0498 0 60.0137 5.42969 87.8613 16.2881c89.5039 34.7129 151.268 122.466 151.268 221.554c0 35.4463 -7.90332 72.3428 -25.2676 108.78
c-13 27 -19.667 35.666 -45.667 61.666c-24.333 24.334 -36 33 -58.666 44.334c-36.1748 17.8965 -73.1104 26.876 -110.311 26.876c-27.9287 0 -56.0068 -5.06152 -84.0234 -15.21c-12.666 -4.33301 -25 -7.33301 -27.666 -6.33301
c-4 1.33301 -4.66699 17.667 -4.66699 96.333c0 17.6484 0.0703125 32.3154 0.0703125 44.4893c0 48.9375 -1.13086 57.5742 -12.4775 57.5742c-3.27441 0 -7.39941 -0.71875 -12.5928 -1.39648l-1 -96c-0.666992 -80 -1.66699 -96.333 -5.66699 -97.667
c-2.66602 -1 -14.333 1 -25.666 5c-27.2822 8.81836 -53.7666 13.252 -79.8311 13.252c-36.9893 0 -73.1318 -8.92871 -109.503 -26.918c-22.666 -11.334 -34.333 -20 -58.666 -44.334c-26 -26 -32.667 -34.666 -45.667 -61.666
c-17.7793 -37.3096 -25.8809 -74.5869 -25.8809 -110.162c0 -102.929 67.8145 -191.598 165.214 -225.505c24.334 -8.33301 30.667 -9 75 -9c44.334 0 50.667 0.666992 74.667 9c13.0303 4.44238 25.2705 7.83203 29.71 7.83203
c0.557617 0 0.992188 -0.0537109 1.29004 -0.165039c2.86133 -1.30078 3.89551 -12.3418 3.89551 -53.5488c0 -11.6055 -0.0820312 -25.6035 -0.228516 -42.4512c-1 -85.334 -1.66699 -94.334 -6.66699 -95.334c-3.66699 -0.666016 -9.66699 5 -17.667 17.667
c-10.333 16 -13 18.667 -21 17.667c-6.53027 -0.768555 -10.0605 -3.0127 -10.0605 -8.60352c0 -8.96191 9.07129 -26.5254 29.3945 -60.3965zM415.114 331.667c-14.5117 -2.97559 -28.9473 -4.41699 -43.1494 -4.41699c-89.21 0 -169.174 56.8828 -200.518 147.75
c-8 22.667 -9.33301 32 -9.33301 63.333c0 59 18 104 58.333 146.667c40.667 42.667 92 65.333 149.667 66c1.27734 0.0244141 2.58398 0.0361328 3.91211 0.0361328c16.6934 0 36.8252 -1.875 46.0879 -4.03613c24.667 -6.33301 46.667 -16 46.667 -20.667
c0 -2 -7.33398 -12.333 -16.334 -22.666c-43.542 -50.2891 -63.1084 -100.014 -63.1084 -161.889c0 -5.38672 0.148438 -10.8662 0.442383 -16.4453c2.66602 -56.666 23.333 -106 62.333 -149.666c10.333 -11.334 16.667 -21 15.333 -24
c-2.33301 -6.66699 -20.666 -13.667 -50.333 -20zM692.114 338c-21.2793 -6.67578 -46.3438 -10.2178 -69.8848 -10.2178c-14.0723 0 -27.6006 1.26562 -39.4482 3.88477c-27.667 6.33301 -45.667 13.666 -48 20c-1.33398 3 5 12.666 15.333 24
c38.7119 43.2656 63.5938 103.986 63.5938 166.603c0 32.457 -6.68457 65.4219 -21.5938 96.7305c-14 29 -26.667 48 -45 67c-7.33301 7.66699 -13.667 16.333 -13.667 19c0 12.1885 51.4424 26.0059 95.1201 26.0059c0.516602 0 1.03223 -0.00195312 1.54688 -0.00585938
c92.333 -1 174.667 -64.333 202 -156c4.33301 -14 6 -31 6 -56.667c0 -31.333 -1.33301 -40.666 -9.33301 -63.333c-23.334 -67.333 -72.334 -116.333 -136.667 -137zM538.447 405.667c-10.7393 -13.1797 -17.0107 -18.8535 -21.5615 -18.8535
c-1.66504 0 -3.09961 0.758789 -4.43848 2.18652c-1.33301 1 -2.33301 68.667 -2.33301 150c0 135.333 0.333008 148 5.66699 150c0.435547 0.174805 0.916016 0.259766 1.4375 0.259766c9.4502 0 32.3643 -27.8984 46.8955 -57.5928c14 -29.334 22.667 -63.667 22.667 -91
c0 -45 -19 -98.334 -48.334 -135zM482.781 537.667c-0.668945 -109.537 -0.741211 -144.569 -8.61035 -144.569c-3.8877 0 -9.68066 8.55469 -18.3896 20.9023c-30.7998 43.5771 -40.3428 72.6631 -40.3428 123.345c0 32.9971 1.25586 44.7402 8.67578 65.9883
c14.5605 41.4658 39.6406 79.3252 51.8369 79.3252c0.647461 0 1.25879 -0.106445 1.83008 -0.325195c4.11328 -1.54297 5.25195 -8.63867 5.25195 -72.0771c0 -18.8047 -0.0996094 -42.5596 -0.251953 -72.5889z" />
</svg>
