<?xml version="1.0" standalone="no"?>
<!DOCTYPE svg PUBLIC "-//W3C//DTD SVG 1.1//EN" "http://www.w3.org/Graphics/SVG/1.1/DTD/svg11.dtd" >
<svg xmlns="http://www.w3.org/2000/svg" xmlns:xlink="http://www.w3.org/1999/xlink" version="1.1" viewBox="-10 0 1010 1000">
   <path fill="currentColor"
d="M564.111 440.767c1.21191 0 23.1279 13.9375 24.042 13.9375c1.04492 0 19.8604 -29.2686 19.8604 -31.0107c0 -0.871094 -1.91602 -2.43945 -4.35547 -3.48438c-4.70312 -2.09082 -6.09766 -6.62012 -1.56738 -4.87793c2.89746 1.09961 4.90723 1.92578 6.66895 1.92578
c4.38281 0 7.23535 -5.11426 18.418 -23.877c7.40723 -12.6543 13.8994 -21.7021 15.3652 -21.7021c0.959961 0 -0.234375 3.87891 -4.73828 13.165c-2.96191 5.75 -5.40039 11.1504 -5.40039 12.0215c0 0.774414 50.6465 18.1689 51.2197 17.5957
c0.347656 -0.348633 4.35547 -6.44629 8.88477 -13.5889c6.96875 -10.8018 8.01367 -13.415 6.27148 -16.2021c-1.74219 -2.61328 -1.39355 -3.13574 2.09082 -3.13574c2.96191 0 5.22656 -2.43945 9.58203 -10.4531c6.27148 -11.1494 13.5889 -20.9062 16.0273 -20.9062
c0.871094 0 1.91699 2.26562 2.61328 5.22656c0.871094 4.18164 2.26465 5.22656 7.49121 6.09766c31.8818 5.05273 61.1504 17.0732 93.9033 38.502c11.3232 7.31738 16.0273 9.40723 18.9893 8.71094c3.48438 -0.871094 4.18066 -0.522461 4.18066 2.78711
c0 2.96191 4.00684 6.96875 15.3311 15.6797c16.8994 12.8916 42.5088 35.1914 67.0732 58.0137l16.0283 15.1572l-15.6797 15.1562c-19.3379 18.4668 -49.1289 44.251 -68.4668 59.2334c-10.8018 8.3623 -14.2861 12.0215 -14.2861 15.3311
c0 3.48438 -0.522461 3.83301 -3.30957 2.26562c-2.78809 -1.39453 -6.27246 0 -19.6865 8.88477c-30.4883 19.8604 -66.2021 34.6689 -89.8955 37.4561c-10.2783 1.0459 -10.627 1.21973 -12.0205 6.96875c-1.39453 5.74902 -1.56836 5.92383 -5.05273 3.48438
c-1.91602 -1.39355 -7.14258 -8.88477 -11.6729 -16.5508c-6.62012 -11.498 -8.70996 -13.5889 -11.6719 -12.8916c-3.48438 0.871094 -4.87793 -1.91602 -1.74219 -3.83301c2.61328 -1.74219 2.26465 -2.61328 -6.79492 -16.8984v-13.415h-22.2998
c-7.49121 3.13574 -18.8145 13.0664 -25.2607 14.8086c-6.62012 1.56738 -11.8467 3.48438 -11.8467 4.00684c0 2.58887 10.7773 20.8809 10.1045 24.9131c-0.348633 3.13574 -3.13574 -0.522461 -11.6729 -15.1572c-14.3887 -24.7021 -17.0332 -31.6543 -20.959 -31.6543
c-1.99023 0 -4.31055 1.78711 -8.65723 3.9541c-0.348633 0.348633 4.00684 6.27148 9.75586 13.2402c21.9512 27.0039 57.1426 75.7842 70.9062 98.084c2.47949 3.99219 4.18262 6.70312 4.18262 7.07617c0 0.701172 -6.02051 -6.86426 -24.2178 -29.7246
c-18.9893 -23.8672 -59.582 -70.209 -83.624 -95.6445l-16.376 -17.2471v8.53613c-2.78809 4.7041 -12.0205 10.627 -13.7627 13.2402v4.7041h11.498c7.83984 5.40039 15.3311 19.3379 16.5508 19.3379c0.703125 0 11.2959 -11.3379 8.70996 -4.87793
c-1.05957 2.875 -1.88477 4.83008 -1.88477 6.5293c0 4.16797 4.97168 6.79395 23.6621 17.6865c17.7705 10.4531 23.8682 14.8086 21.0801 15.1572c-3.92383 0.654297 -20.9814 -9.2334 -23.8672 -9.2334c-1.60938 0 -11.6016 33.5225 -13.2402 37.1074
c-2.96191 6.27246 -5.22656 11.8467 -5.22656 12.5439c0 1.93848 23.1885 17.0273 28.9697 17.0273c0.575195 0 0.978516 -0.149414 1.16895 -0.476562c2.99902 -5.30469 3.74121 -1.90527 3.74121 1.96582c0 8.00488 30.4834 17.9854 30.4834 24.4639
c0 0.833008 -0.504883 1.60938 -1.64551 2.31543c-1.39453 1.0459 -3.83301 1.74219 -5.40137 1.74219c-1.91602 0 -3.13574 3.48438 -4.87793 13.2412c-4.5293 26.6543 -16.7246 55.4004 -37.4561 88.501c-6.44629 10.2793 -9.4082 16.5508 -8.88477 18.6416
c0.871094 2.43848 0.173828 3.30957 -2.26562 3.30957c-2.43848 0 -7.49121 5.22656 -15.3311 15.1572c-15.5049 19.8604 -40.0693 48.084 -58.71 67.5957l-15.1572 15.6797l-15.3311 -15.6797c-18.293 -18.9893 -44.0762 -48.6064 -59.4072 -68.4668
c-8.3623 -10.8018 -12.0215 -14.2861 -15.3311 -14.2861c-3.48438 0 -3.83301 -0.522461 -2.26562 -3.30957c1.39453 -2.78809 0 -6.27246 -8.70996 -19.6865c-20.3838 -31.3594 -34.8438 -66.2021 -37.6309 -91.2891c-1.0459 -8.01465 -1.74219 -9.4082 -4.87793 -9.4082
c-4.37207 -0.0654297 -6.54492 -0.985352 -6.54492 -2.68848c0 -2.84375 6.05664 -7.86816 18.043 -14.7324c11.6729 -6.79492 13.2402 -8.3623 12.3691 -11.8467c-1.04492 -4.35547 0 -4.87891 3.48438 -1.39453c0.246094 0.246094 0.648438 0.359375 1.18066 0.359375
c5.78125 0 26.8584 -13.4102 28.7842 -15.3418c0 0 -15.5137 -50.2363 -17.2471 -51.3936c0 0 -24.3154 9.99609 -27.8643 9.99609c-1.18359 0 -0.0585938 -1.11035 5.04199 -4.07227c36.7988 -21.5332 43.5088 -25.7236 43.5088 -28.2959
c0 -7.35645 -2.78516 -16.2744 3.00684 -5.1543v4.35547l18.4668 -10.4531l16.0283 -10.2783v-13.0664l-16.5508 -13.0664v6.44629c-27.1777 25.958 -100.871 104.007 -126.829 139.722c-1.66113 2.2998 -2.5 3.36035 -2.625 3.36035
c-0.387695 0 6.03516 -10.1328 16.0391 -25.1377c17.4219 -26.3066 39.8955 -57.1426 59.2334 -81.707l14.9834 -19.1641v-2.26465c-3.13574 -1.21973 -11.1504 -2.09082 -11.3242 -1.91699c-0.174805 0.348633 -6.27246 10.6279 -13.5889 23.1709
c-12.209 20.8262 -15.5361 26.5225 -16.4229 26.5225c-0.404297 0 -0.301758 -1.18262 -0.301758 -2.6543c-0.150391 -1.80469 10.2588 -25.2812 9.92969 -25.6104c-7.63281 -3.81641 -30.4932 -9.19727 -39.1982 -13.0654
c-6.27148 -2.96191 -11.6729 -5.05273 -11.8467 -4.87891c-3.83301 4.7041 -17.9443 29.2686 -16.7246 29.2686c0.871094 0 2.09082 1.21973 2.61328 2.78809c0.696289 1.91602 0 2.43848 -2.78809 2.08984c-3.13574 -0.348633 -5.22656 1.91699 -11.8467 12.8926
c-4.35547 7.49121 -9.58105 14.8076 -11.6719 16.2021c-3.65918 2.61328 -3.83301 2.43848 -5.05273 -3.48438c-1.04492 -5.40137 -1.74219 -6.09766 -6.62012 -6.09766c-8.01367 0 -32.4043 -6.44629 -46.8643 -12.3691
c-15.3311 -6.27246 -34.4941 -16.7256 -51.5674 -27.875c-10.2793 -6.79395 -13.415 -8.18848 -16.0283 -6.62012c-2.78711 1.39355 -3.30957 1.04492 -3.30957 -2.43945c0 -3.13574 -4.18164 -7.31641 -17.9443 -18.1182
c-21.6035 -16.8984 -57.8398 -48.7803 -70.9062 -62.3691v-21.2549c23.5195 -21.7764 57.1426 -48.6055 72.8223 -60.627c11.6729 -9.05859 15.8535 -13.2402 15.8535 -16.2021c0.174805 -3.30957 0.871094 -3.83301 3.65918 -2.96191
c2.61328 0.871094 8.01367 -1.56738 18.8154 -8.3623c37.4561 -23.5186 61.6719 -33.4492 94.9473 -38.6758c4.5293 -0.696289 6.44629 -1.91602 6.44629 -4.00684c0 -4.83789 1.00879 -6.93945 2.71582 -6.93945c3.22754 0 8.9502 7.52148 15.0537 18.2637
c5.74902 10.1045 8.18848 12.7178 11.3242 12.7178c3.48438 0 3.83301 0.348633 2.09082 3.30957c-1.74219 2.61328 -0.871094 5.22656 6.09766 16.5508c4.70312 7.31738 8.88477 13.2402 9.58203 13.2402c0.522461 0 7.66504 -2.78711 15.8535 -6.09766
c5.87598 -2.375 34.8428 -9.92676 34.8428 -11.6719c0 -2.85156 -10.7637 -20.1094 -10.1045 -24.3906c0.348633 -2.96191 4.18164 2.26465 15.1572 20.9062c10.959 18.8408 13.8242 24.0156 18.2529 24.0156c1.83691 0 3.94336 -0.889648 7.00781 -2.06445
c6.52441 -2.71777 -5.92285 8.30078 -5.92285 8.53613c0 2.26562 18.6406 30.8369 20.0342 30.8369c0.348633 0 6.44629 -3.65918 13.415 -8.18848h12.5439v-14.2861c-3.83301 -3.4834 -26.3066 -17.4209 -41.4639 -31.0098
c-34.1465 -31.0107 -74.3906 -64.8086 -97.5605 -81.8818c-12.2588 -9.12109 -18.4971 -13.9639 -18.4971 -14.3994c0 -0.604492 12.0117 7.27539 36.6152 23.9814c24.5645 16.5508 67.4219 47.9092 87.1084 63.7627c4.35449 3.48438 8.3623 6.27246 8.88477 6.27246
c1.74219 0 5.22656 -8.88574 4.18066 -10.4531c-0.522461 -0.871094 -11.498 -7.66602 -24.3896 -15.1572c-21.4287 -12.3691 -26.6553 -16.2021 -21.7773 -16.2021c1.04492 0 7.31738 2.78809 13.9375 6.09766h12.1953c2.84082 -12.2139 8.00586 -23.8945 12.3691 -33.7979
c5.92285 -12.8916 6.62012 -11.6719 -11.1504 -22.6484c-11.6719 -7.14258 -12.0205 -7.31641 -15.5049 -4.35449c-3.30957 3.13574 -3.30957 3.13574 -2.78711 -1.56836c0.522461 -4.18164 -0.871094 -5.5752 -13.2402 -12.8916
c-14.3994 -8.67969 -23.5713 -14.8252 -11.499 -16.5508c4.00684 -0.522461 4.53027 -1.74219 6.27246 -13.0664c4.18066 -25.958 16.2021 -54.3555 36.0625 -86.2373c6.96875 -11.1494 11.3242 -19.5117 10.627 -21.2539
c-0.774414 -1.93555 10.7109 -9.46289 15.3311 -15.5049c13.415 -17.7705 29.9648 -37.2822 53.3105 -62.7178c12.0205 -13.0664 22.125 -23.8682 22.2988 -23.8682c0.174805 0 6.62109 6.44629 14.2861 14.2861c18.1182 18.8154 38.6758 42.1602 56.2715 64.46
c7.83984 9.92969 16.2021 18.6406 18.4668 19.3379c2.96191 1.21973 3.83301 2.43848 3.13672 4.7041c-0.697266 2.08984 2.6123 8.70996 9.75586 19.5117c19.5117 29.6172 33.7979 64.1113 37.2822 89.8955c1.04492 8.3623 1.74219 9.2334 6.27148 10.2783
c2.78711 0.523438 5.05273 1.21973 5.05273 1.74219c0 3.48438 -5.5752 8.3623 -17.5967 15.3311c-10.9756 6.62012 -13.9365 9.05957 -13.2402 11.499c1.83691 6.42578 -4.16113 1.04492 -4.75684 1.04492c-3.36426 0 -26.0342 12.9326 -27.9951 16.2021
c-0.523438 0.697266 1.04492 5.5752 3.30957 10.627c4.18164 9.93066 8.3623 21.9512 11.498 34.1465v7.49121h14.1123c9.24902 -4.73926 13.6016 -7.36523 13.6016 -7.67285c0 -0.392578 -7.12012 3.00879 -20.2227 10.6348
c-20.9238 12.293 -25.748 14.9658 -25.748 18.4814c0 1.16797 0.532227 2.42871 1.18359 4.16602v5.5752h10.8018c29.9648 -24.042 121.255 -96.167 121.255 -93.3799c0 0.348633 -8.36328 6.96875 -18.6416 14.6348c-24.5645 18.4668 -63.415 51.3936 -102.787 87.1074
c-23.752 21.4902 -31.6709 29.0967 -31.6709 31.2012c0 0.489258 0.427734 0.680664 1.18262 0.680664zM521.08 86.4111c-10.9756 -12.0205 -20.5576 -21.9512 -21.2539 -21.9512c-4.28418 0 -75.1475 84.1084 -75.1475 89.0195c0 0.532227 9.06445 7.37891 17.8301 14.291
l16.376 13.0654c12.2539 -12.2529 24.5068 -24.5059 36.7598 -36.7598l-14.6338 -13.5879c-10.2793 -9.75684 -13.5889 -13.7637 -11.1504 -13.7637c4.49805 0 24.459 18.2959 27.0039 20.5576c2.61328 2.26465 4.35547 1.21973 16.376 -9.05957
c9.01172 -7.70117 14.5566 -11.4336 16.0898 -11.4336c1.72852 0 -1.63379 4.73633 -10.8633 13.873l-14.1113 13.7627c12.1953 12.1953 24.3906 24.3906 36.585 36.5859l16.8994 -13.415c9.2334 -7.31738 16.8984 -14.2852 16.8984 -15.1562
c0.174805 -2.61328 -31.3584 -41.29 -53.6582 -66.0283zM510.453 159.756c-5.22656 -5.40039 -9.93066 -9.92969 -10.4531 -9.92969c-0.871094 0 -20.7314 20.0342 -30.1396 30.6621v5.22559l12.7178 15.3311l17.4219 15.1572
c11.6631 -10.1143 23.2773 -20.2764 34.8428 -30.4883v-7.83887c-4.18164 -4.35547 -18.9893 -12.5439 -24.3896 -18.1191zM435.018 175.262c-9.05957 -7.31738 -16.8994 -13.2412 -17.4219 -13.2412c-1.91602 0 -22.9961 34.4951 -31.707 51.917
c-8.71094 17.5957 -18.293 43.5537 -20.5576 55.2266c-0.871094 4.87793 -0.173828 5.74902 8.3623 10.8008c5.05273 3.13574 9.75586 5.74902 10.2783 5.74902c0.523438 0 2.96191 -4.18066 5.40137 -9.40723c1.08008 -2.23828 22.125 -39.373 22.125 -39.373
s22.5449 -26.417 36.7598 -44.5986v-4.00781zM548.78 189.198c0 1.00488 35.7051 45.9932 38.1533 45.9932c0.697266 0 1.39355 1.0459 1.39355 2.09082c0 1.21973 3.48438 7.66504 7.83984 14.46c4.35547 6.62012 10.4531 17.0732 13.415 22.9961
c2.96191 6.09766 5.74902 10.9756 6.27148 10.9756s4.7041 -2.43848 9.58203 -5.40039c5.77441 -3.53906 8.46191 -5.53418 8.46191 -10.4043c0 -4.24023 -2.03711 -10.6602 -5.84863 -22.1738c-6.96875 -20.5576 -21.4287 -49.4775 -35.7139 -71.4287
c-5.22656 -7.83984 -9.93066 -14.2861 -10.4531 -14.2861c-2.09082 0.174805 -32.9268 25.4355 -33.1016 27.1777zM488.851 221.429c-1.08496 -1.44531 -27.8506 -26.3066 -30.6621 -26.3066c-1.74219 0 -21.9512 23.1709 -31.1846 35.8887v7.14258l11.498 11.3242
l16.8984 11.498l17.7705 -18.6406c14.2852 -14.8086 17.4219 -18.9902 15.6797 -20.9062zM561.324 216.725c-9.18164 -11.2607 -18.1523 -21.084 -19.5664 -21.084c-2.79199 0 -32.1758 24.9336 -32.1758 27.3555c0 0.697266 7.83984 9.4082 17.4219 19.5127
l17.4209 18.4668c11.3408 -7.82324 22.665 -15.6631 33.9727 -23.5195zM534.843 266.899c0 -0.992188 -33.8789 -35.1924 -34.8428 -35.1924c-1.74219 0 -34.8428 33.9727 -34.8428 35.7148c0 1.04492 1.56738 2.78711 3.30957 3.83203
c1.91602 1.21973 9.75586 7.31738 17.4219 13.5889l13.9375 11.3242l17.5957 -14.1113c9.58203 -7.83984 17.4209 -14.6338 17.4209 -15.1562zM435.191 254.007c-8.71094 -6.44629 -16.0273 -11.8467 -16.376 -11.8467c0 0 -28.6553 39.2646 -28.6553 46.6768
c0 8.52441 30.7314 18.1191 30.7314 18.1191c0.452148 0 19.4424 -27.9746 25.2754 -35.0049v-5.92285zM593.031 259.06c-6.09766 -9.2334 -11.498 -16.8994 -11.8467 -16.8994c-0.897461 0 -31.04 22.6318 -31.3584 22.8223
c-1.75781 1.40723 17.9219 25.9014 21.2539 30.6621v12.5439h23.1709c8.01367 -4.87793 14.9824 -18.1191 15.3311 -18.4668c1.39355 -1.0459 -5.22656 -13.415 -16.5508 -30.6621zM492.16 301.22c0 -1.56445 -30.8926 -27.7002 -32.4043 -27.7002
c-3.04297 0 -30.041 36.2598 -30.041 39.9941c0 0.944336 8.11426 6.25195 15.4072 11.2246h30.3135c9.2334 -8.71094 16.7246 -22.8223 16.7246 -23.5186zM550 284.32c-4.87793 -5.92285 -9.2334 -10.8008 -9.93066 -10.8008
c-0.871094 0 -26.1318 20.3828 -31.3584 25.4355c-2.26465 2.26465 -0.522461 4.5293 14.8086 18.8154l17.4209 16.2012c10.2207 -6.85254 20.4414 -13.7041 30.6621 -20.5566v-9.05957c-3.48438 -5.05273 -16.7246 -13.9375 -21.6025 -20.0352zM533.101 338.153
c0 -0.858398 -32.502 -31.5332 -33.4492 -31.5332c-0.348633 0 -8.1875 7.31738 -17.5957 16.2021l-17.0732 16.0283c11.7822 8.94922 23.5127 17.9502 35.1914 27.0029l16.377 -13.2402c9.05859 -7.31738 16.5498 -13.7627 16.5498 -14.46zM404.355 361.149v15.3311
c5.22656 2.96191 15.6797 5.40137 16.2021 5.5752c0.511719 0.254883 30.6621 -38.5908 30.6621 -39.373c0 -1.29492 -26.4229 -19.2109 -27.3877 -19.2109c-2.96191 0 -19.4766 21.5332 -19.4766 37.6777zM584.843 336.76
c-3.41406 -6.6582 -6.99805 -13.2646 -7.78613 -13.2646c0 0 -27.1152 13.7627 -27.1152 17.9873c0 3.31934 27.0645 40.0508 28.8047 40.0508c1.04492 0 6.09668 -2.43945 11.1494 -5.40039v-16.0283c0 -6.34082 -1.56836 -16.376 -5.05273 -23.3447zM478.746 362.892
c-11.6533 -9.55859 -16.5029 -14.0273 -20.293 -14.0273c-3.46191 0 -6.03906 3.73047 -12.1113 10.7178c-10.5615 12.2109 -19.2461 23.9531 -19.2461 25.8994c0 2.75 32.6602 20.2676 32.6602 20.2676c0.697266 -0.173828 8.01465 -7.49121 16.377 -16.376
l15.3311 -16.2021zM572.996 385.714c1.96582 -1.95996 -19.8086 -26.1494 -22.8223 -29.2676v-9.75684l-25.2607 12.7178c-10.5283 8.05176 -15.3047 10.8818 -15.3047 13.8662c0 3.20312 5.50293 6.58594 15.3047 16.7959l15.3311 15.8545h16.0273
c8.88574 -5.40039 16.377 -19.8613 16.7246 -20.21zM285.54 375.436c-3.77344 -6.42578 -7.42773 -9.14941 -13.5498 -9.14941c-4.33496 0 -9.90723 1.36621 -17.6348 3.74902c-25.7842 7.83984 -50.5225 19.8604 -78.0488 37.6299l-16.2021 10.4531l13.415 16.5508
c7.31641 9.05957 13.7627 16.5508 14.46 16.5508c3.73242 0 34.8301 -27.7861 38.1533 -30.1396c4.00684 -2.96191 7.31641 -6.44629 7.31641 -7.66504c0 -1.24121 8.0127 -3.57812 15.5059 -8.18848c6.79395 -4.35547 17.7695 -10.627 24.3896 -14.1113h12.1953v-15.6797z
M786.585 386.585c-17.4736 -8.59375 -37.4492 -17.2559 -55.0518 -20.0342c-5.74902 -0.871094 -6.09766 -0.522461 -11.6729 8.88477c-3.30957 5.40039 -5.22656 10.1045 -5.22656 10.1045c0.174805 0.173828 5.22656 2.61328 10.8018 5.22656
c5.74902 2.78711 16.376 8.88477 23.6934 13.5889s14.2861 8.53613 15.3311 8.53613c1.21973 0 2.09082 0.697266 2.09082 1.56836s4.18066 4.7041 9.05859 8.3623c5.05273 3.6582 14.9834 11.498 21.9512 17.4219c7.14355 6.09766 13.5889 10.9756 14.2861 10.9756
c1.74219 0 26.1328 -30.6621 26.1328 -32.5781c0 -2.43945 -31.5332 -22.126 -51.3945 -32.0566zM529.617 409.233c-0.972656 -1.75098 -27.0273 -27.7002 -29.9658 -27.7002c-2.09082 0 -31.0098 27.874 -31.0098 29.6162c0 0.697266 7.14258 6.44629 15.6787 12.8926
l15.6797 11.498l15.6797 -11.6729c12.543 -9.40723 15.1562 -12.1943 13.9375 -14.6338zM306.62 420.558c0 -0.882812 -17.8125 -30.3135 -18.9893 -30.3135c-3.65918 0 -45.4707 27.0029 -45.4707 29.4424c0 1.56738 20.3838 29.2686 22.4736 30.6621
c0.142578 0.0859375 0.324219 0.126953 0.541992 0.126953c4.40723 0 23.46 -16.8379 28.9004 -20.5107c6.79492 -4.70312 12.5439 -8.88477 12.5439 -9.40723zM722.822 395.818c-5.40039 -3.13574 -10.2783 -5.57422 -10.627 -5.57422
c-0.522461 0 -5.05273 6.79395 -10.2793 15.1562v18.6416c2.78711 2.09082 7.31738 8.53613 15.3311 14.46c7.68164 5.67676 15.4199 11.8662 16.1133 11.8662c2.16699 0 24.4795 -27.7617 24.4795 -30.5078c0 -1.56738 -22.126 -16.7246 -35.0176 -24.042zM440.244 402.613
c-15.1572 -10.1045 -18.6416 -11.8467 -18.6416 -9.05957c0 1.0459 -1.39355 3.31055 -3.13574 5.05273c-3.13574 3.13574 -2.61328 3.6582 11.6729 15.5049l14.8076 12.1953v-6.79492c2.78711 -3.83203 9.4082 -7.31641 9.4082 -7.31641
c-0.348633 -0.348633 -6.62012 -4.53027 -14.1113 -9.58203zM583.275 397.038c-1.74219 -2.78711 -6.09766 -5.05176 -6.62012 -5.05176c-0.697266 0 -28.3975 17.9443 -31.0107 20.209c-0.348633 0.173828 1.56836 3.6582 4.18164 7.49121
c4.70312 7.14258 4.70312 7.14258 8.3623 4.00684c2.08984 -1.74219 8.53613 -7.31738 14.46 -12.3691h10.627v-14.2861zM378.92 424.042c4.72656 -2.78027 -7.49902 -21.6025 -10.1045 -21.6025c-4.46094 0.269531 -45.5312 17.2891 -45.5312 20.8447
c0 3.51953 16.5244 27.9355 19.0508 27.9355c1.21875 0 3.30957 -1.39355 4.5293 -2.96191c2.43848 -2.78711 25.7842 -20.3828 32.0557 -24.2158zM676.655 422.996c0 0 -32.1426 -19.8994 -44.9053 -19.8994c-1.88672 0 -3.35059 0.43457 -4.22363 1.43262
c-1.74219 2.26465 -9.05957 16.377 -9.05957 17.5957c0 0.348633 4.18164 3.31055 9.2334 6.62109c4.87793 3.13574 13.9375 9.92969 19.8604 14.9824h10.6279v-5.05273c5.22656 -7.66504 18.9893 -14.8086 18.4668 -15.6797zM463.24 433.101v12.7178h14.1113v2.61328
c4.00781 -3.6582 14.9834 -7.14258 15.3311 -7.66504c0.40625 -1.21484 -28.9844 -22.6484 -29.9648 -22.6484c-0.871094 0 -9.75586 11.6729 -9.75586 12.8926c0 1.68945 17.4209 -7.55957 17.4209 -2.78809c0 0.697266 -3.30957 2.96191 -7.14258 4.87793z
M547.038 431.011c0 -1.17773 -9.30176 -12.8926 -10.4531 -12.8926c-1.74219 0.174805 -28.7451 21.0801 -28.7451 22.2998c0 0.697266 3.30957 4.35547 7.31738 8.01367v6.62109h17.0723c5.22656 -4.5293 9.58203 -17.4219 9.58203 -18.1191
c0 -1.96289 -12.1943 -6.74609 -12.1943 -8.71094c0 -4.74609 17.4209 4.46289 17.4209 2.78809zM258.711 455.575c0 -1.92676 -20.6045 -31.8486 -22.126 -32.2305c-1.21875 0 -25.4355 18.9902 -36.9336 29.2686v11.3242c2.43945 3.13574 6.79492 10.627 12.5439 16.8984
l10.4531 11.3242l17.9443 -17.4219c9.92969 -9.58105 18.1182 -18.292 18.1182 -19.1631zM804.355 456.62c-0.992188 -1.13379 -38.8008 -33.2754 -41.1152 -33.2754c-1.71387 0 -22.4902 30.3643 -22.4902 32.8291c0 1.98242 36.0156 35.1152 36.7764 35.1152
c0.522461 0 7.31641 -7.14258 14.9824 -16.0273c11.498 -13.2412 13.5889 -16.377 11.8467 -18.6416zM178.049 457.665c-0.666016 -0.931641 -25.001 -32.2393 -26.377 -32.2393c-3.57129 0 -71.2881 56.7412 -85.1211 71.4385v4.18066l18.1182 20.0352
c25.6094 23.1709 63.415 53.833 66.376 53.833c1.21973 0 8.18848 -7.49121 15.5059 -16.7246l13.4141 -16.5508c-12.0342 -12.1816 -24.1113 -24.3203 -36.2363 -36.4111l-13.415 13.415c-7.40918 7.33398 -11.8984 10.7295 -13.2686 10.7295
c-1.78516 0 1.73438 -5.77637 11.0039 -16.1309l11.1494 -12.543l-11.1494 -12.8926c-6.27148 -6.96875 -11.3242 -14.2852 -11.3242 -16.376c0 -2.78711 3.13574 -0.174805 13.0664 10.627l13.0664 14.1113l18.292 -18.292
c12.5439 -12.3701 17.9443 -18.9902 16.8994 -20.21zM859.582 433.275c-5.74902 -4.5293 -10.9756 -8.18848 -11.498 -8.18848c-0.871094 0 -23.6934 28.2236 -26.4814 32.7529c-1.04492 1.91602 3.13574 7.14258 16.5508 20.7314l18.1182 18.1182l13.415 -14.46
c9.93066 -10.627 13.4141 -13.5879 13.4141 -10.9756c0.174805 1.91699 -5.05176 9.23438 -11.3232 16.377l-11.3242 12.7178v4.7041c16.0283 17.5957 22.8223 21.4277 22.8223 24.3896c0 2.26465 -3.83301 -0.696289 -13.415 -10.4531l-13.4141 -13.9365l-17.9443 17.9434
c-9.93066 9.93066 -17.7705 18.4678 -17.5957 19.1641c1.11035 2.7832 24.8818 32.8184 28.9814 32.8184c6.30762 0 50.2998 -40.1699 74.6768 -62.7832l12.7178 -11.8467l-17.0732 -15.5059c-18.8154 -17.2471 -44.4248 -39.0244 -60.627 -51.5674zM405.4 444.773
c-5.03125 -8.05078 -19.7646 -16.6406 -20.4756 -16.6406c-3.75195 0 -38.2354 27.7207 -38.2354 30.9268c0 1.74219 24.3906 32.2295 25.7842 32.2295c0.522461 0 8.18848 -6.96875 16.8994 -15.6797l16.0273 -15.5049v-15.3311zM641.986 448.432
c-6.44629 -5.92285 -14.9824 -13.2402 -19.1641 -16.2021v-5.57422h-10.1045c-1.39355 2.26465 -6.09766 13.7627 -10.4531 20.5576v27.874c8.71094 8.53711 24.042 15.5059 24.7393 15.8535c0.696289 0.174805 7.14258 -6.79395 14.1113 -15.6787l12.543 -16.2021z
M332.413 459.849c0 -2.50977 -18.8408 -29.5352 -20.5664 -29.5352c-1.91602 0 -35.0176 24.7393 -37.8047 28.2227c-1.56836 1.74219 1.39355 6.27246 12.0205 19.1641l14.1113 16.8994l15.8545 -16.7246c8.58691 -9.10352 16.3848 -17.3428 16.3848 -18.0264z
M703.311 440.593c-7.49219 -5.5752 -14.46 -10.2793 -15.1572 -10.2793c-2.05371 0 -20.5762 26.5537 -20.5762 29.3154c0 0.746094 7.78027 9.11621 16.2207 18.2461l15.6797 16.8984l13.0664 -15.8535c7.24805 -8.83887 13.8389 -16.666 13.8389 -18.2354
c0 -2.15137 -4.61426 -6.00586 -23.0723 -20.0918zM439.547 486.411c15.999 -17.9072 24.3076 -20.1445 24.3076 -22.8184c0 -1.83594 -3.91309 -3.87598 -11.9385 -11.3281v-8.18848h-13.7627c-2.61328 4.5293 -5.92383 19.5127 -7.31738 22.8232
c-4.47852 10.0801 -4.1875 -0.623047 -2.43848 -5.5752c6.19531 -17.4961 -10.2793 2.26465 -10.2793 2.26465c0 0.871094 4.87793 8.18848 10.6279 16.376l10.8008 14.6348v-8.18848zM576.307 472.474v-12.7178c-2.43945 -1.91602 -3.6582 -4.18066 -5.22656 -5.05176
c-2.78711 -1.74219 -2.78711 -1.39355 -0.348633 4.5293c4.1377 10.3457 3.2959 17.6123 -4.87793 1.56836c-5.02637 -9.33594 -5.9834 -14.7129 -8.96191 -14.7129c-2.17383 0 -5.4248 2.8623 -12.1182 9.1377l-11.6729 10.8018
c8.94336 9.1748 17.8867 18.3506 26.8301 27.5254v-5.92285c2.78711 -3.31055 12.7178 -10.1045 16.376 -15.1572zM508.711 453.311c-4.5293 -4.00781 -8.18848 -7.31738 -8.71094 -7.31738c-1.39355 0 -17.2471 12.8916 -17.4219 14.2852
c0 0.523438 3.83301 4.35547 8.71094 8.36328v7.31641h17.4219v-22.6475zM266.551 465.157c-0.522461 0 -9.05957 8.01367 -18.8154 17.9434l-17.9443 17.9443l17.4219 16.8994c9.58105 9.2334 18.1182 16.8984 18.8154 16.8984c2.0625 0 28.0615 -32.252 28.0615 -34.7598
c0 -0.831055 -26.7998 -34.6797 -27.5391 -34.9258zM752.265 483.101c-9.75586 -9.75586 -18.293 -17.9434 -18.8154 -17.9434c-1.21973 0.173828 -28.2227 34.3203 -28.0488 35.54c0.174805 0.696289 6.44629 8.88477 13.9375 18.292l13.7627 17.4219
c12.4131 -11.6865 24.7842 -23.416 37.1084 -35.1914zM851.916 493.38c-4.00684 -4.18164 -19.8604 -12.1953 -26.1318 -17.5957l-11.3242 -10.1045c-10.0537 11.666 -20.1006 23.3379 -30.1396 35.0176l12.3691 14.1113c6.79492 7.66504 13.7637 15.5049 15.3311 17.2471
c2.96191 3.13574 3.65918 2.78711 21.4287 -13.9375l18.4668 -17.0732v-7.66504zM207.491 483.972c-8.18848 -9.40723 -22.2998 -17.0723 -23.1709 -17.0723c-0.696289 0 -9.2334 7.66504 -18.9893 17.0723l-17.7705 17.0732
c12.4277 11.498 24.8545 22.9971 37.2822 34.4951v-8.71094c4.00684 -4.7041 18.293 -12.3691 22.6484 -17.0732v-25.7842zM361.673 505.227v-13.7627c-4.35547 -5.22656 -14.1123 -12.8926 -17.0732 -17.0732c-2.96191 -4.18164 -6.09766 -7.49121 -6.79492 -7.49121
c-1.56738 0 -29.9648 30.6611 -30.8359 33.2744c-0.348633 0.871094 6.62012 9.05957 15.3311 18.1191l16.2021 16.376v-12.5439c5.40137 -6.96777 20.9053 -14.46 23.1709 -16.8984zM678.571 483.449c-8.53613 -9.05859 -15.8535 -16.5498 -16.5508 -16.5498
c-1.04492 0 -6.79395 6.96777 -24.5645 30.3135c-2.61328 3.48438 -2.26465 4.35547 10.6279 20.3828l13.5889 16.8994l12.8916 -13.415c11.5488 -11.9131 16.9277 -16.374 16.9277 -20.666c0 -3.93066 -4.50977 -7.72168 -12.9209 -16.9648zM433.798 500.697
c0 -1.51855 -21.9414 -30.6553 -22.6484 -31.1855c-0.696289 -0.347656 -8.01367 6.27246 -16.376 14.8086l-15.3311 15.5059v10.2783c8.30859 9.47266 29.2988 21.1641 32.2764 21.1641c2.49121 0 22.0791 -30.5713 22.0791 -30.5713zM606.969 486.237
c-7.31738 -7.83984 -14.6338 -14.9834 -16.2021 -15.6797c-2.26465 -1.0459 -5.22656 1.91602 -14.2861 14.2852l-11.498 15.8545l11.498 15.3311c6.27246 8.3623 11.8467 15.3301 12.3701 15.3301c0.522461 0 7.83887 -6.96777 16.2021 -15.3301l15.3301 -15.5059z
M473.867 502.787l14.8086 -14.9824v-8.88477h-30.3135c-6.79395 7.83984 -12.3691 20.3828 -12.3691 21.6025c0 1.0459 2.96191 5.40137 6.62012 9.58203v7.49121zM552.439 497.735c-1.21973 -2.09082 -6.96875 -9.2334 -12.8926 -15.6797l-10.8008 -11.8467v8.71094
h-17.0732l13.5889 23.1709c7.66504 8.01367 14.2852 14.6338 14.9824 14.9824c0.522461 0.173828 4.00684 -3.13574 7.66504 -7.49121c5.74902 -7.14258 6.27246 -8.53711 4.53027 -11.8467zM515.68 514.809c-8.18848 -8.18848 -15.1572 -14.8086 -15.6797 -14.8086
c-1.39355 0 -29.6172 28.5713 -29.6172 29.9648c0 0.523438 6.62109 6.62012 14.8086 13.5889l14.8086 12.7178l12.7178 -10.9756c6.79395 -6.09766 13.7627 -12.0205 15.1572 -13.4141c2.08984 -1.91699 0.522461 -4.35547 -12.1953 -17.0732zM317.073 524.391
c-8.88477 -9.58203 -16.376 -17.4219 -16.5508 -17.4219c-0.348633 0 -6.96875 7.66504 -14.8086 16.8984l-14.1113 17.0732v4.00684c9.2334 7.66602 39.373 26.4814 40.418 26.4814c0.523438 0 5.40137 -6.62012 10.9756 -14.8086l10.1045 -14.8086zM445.471 533.101
v-26.6543l-16.5508 14.6338c-5.92383 8.01367 -10.8018 15.3311 -10.8018 16.376c0 1.74219 10.6279 9.93066 11.6729 8.88574c1.06055 -0.53125 -7.70703 -27.9717 2.09082 -10.1045c2.08984 4.18066 4.35547 6.96875 4.35547 6.96875
c0.173828 -0.174805 4.35547 -4.87891 9.2334 -10.1055zM563.938 543.554c0 0 15.3271 -26.6592 6.79395 -2.61328v4.53027c10.2793 -7.31738 12.5439 -7.66602 1.56836 -22.2998c-5.5752 -7.49121 -10.627 -14.2861 -11.3242 -14.9824
c-0.697266 -0.871094 -4.5293 2.26465 -8.3623 6.79395v18.4668c4.87793 5.5752 11.1494 10.1045 11.3242 10.1045zM724.216 526.133c-6.79395 -8.18848 -21.6025 -15.8545 -22.8223 -16.8994c-1.56738 -1.74219 -5.5752 1.39355 -18.8154 14.8086l-16.7246 16.8984v13.7637
c4.76953 7.07129 19.7559 15.6553 20.8623 15.6553c3.15137 0 18.2676 -10.4727 37.5 -26.2832v-17.9434zM241.115 526.829c-10.4531 -9.92969 -18.9902 -18.1182 -18.9902 -18.1182s-6.62012 7.66504 -14.8076 16.8984l-14.6348 16.7256v6.09668
c11.1494 9.75684 43.2061 29.9658 44.251 29.9658c0.522461 -0.174805 5.92383 -7.66602 12.0215 -16.7246l11.1494 -16.5508zM404.529 541.115c-0.173828 -0.697266 -7.49121 -8.01465 -16.376 -16.5508c-16.2021 -15.3311 -16.2021 -15.3311 -19.1641 -11.6729
c-1.74219 1.91699 -7.49121 9.4082 -12.8916 16.377c-9.93066 12.543 -9.93066 12.543 -6.62012 16.376c5.05176 5.5752 32.5781 27.5264 34.6689 27.5264c1.74219 -0.174805 20.7314 -30.1396 20.3828 -32.0557zM801.22 525.958
c-7.83984 -9.05859 -23.5195 -16.5508 -24.042 -16.8984c-0.522461 -0.174805 -9.2334 7.83984 -19.3379 17.9443l-18.1182 18.1182l11.1494 16.2021c6.09766 8.88477 11.3242 16.5508 11.498 16.8984c0.522461 0.523438 23.8682 -17.9443 38.8506 -30.6621v-21.6025z
M645.471 527.004c-6.79492 -8.53711 -16.377 -15.6797 -17.4219 -15.8545c-0.871094 -0.347656 -8.88477 6.27246 -17.7705 14.6348l-15.8535 15.1562v16.0283c5.57422 8.88477 20.3838 16.2021 21.0801 16.2021c1.91699 0 18.9902 -13.2402 29.9658 -23.1709v-22.9961z
M479.965 548.258c-7.49121 -6.96875 -14.1113 -12.7178 -14.6338 -13.0664c-2.26465 -0.871094 -21.4287 20.209 -20.209 22.126c0.522461 1.04492 6.62012 4.70312 13.2402 8.1875c13.0664 6.44629 14.9824 10.9756 2.96191 6.62012
c-10.3164 -3.58789 -9.12109 -2.46289 -3.48438 5.05273v6.09766l20.209 -11.3242l15.3311 -11.1494zM554.704 557.491c2.21973 -2.21973 -18.1816 -22.6484 -19.8613 -22.6484c-1.54297 0.171875 -27.7207 25.1475 -27.7207 26.6035
c0 7.20605 30.0469 19.9277 30.0469 19.9277c2.38086 0 10.873 -11.6875 9.34668 -11.6875c-0.348633 0 -4.18066 1.21973 -8.18848 2.61328c-12.543 4.35547 -11.498 0.696289 1.74219 -6.27148c6.96875 -3.65918 13.5889 -7.49219 14.6348 -8.53711zM425.087 555.227
c0 -0.348633 -3.13574 -2.78711 -6.79395 -5.22656v-4.5293l-16.5508 14.9824c-5.40039 8.18848 -9.75586 15.5049 -9.75586 16.2021c0 2.26465 9.05859 7.31641 10.4531 5.74902c5.74902 -6.27148 22.6475 -26.6553 22.6475 -27.1777zM604.529 580.313v-19.1641
l-16.8984 -15.8535v3.65918c-2.44141 1.9834 -11.7354 4.70215 -11.7354 5.41016c0 2.7168 21.0371 29.2588 23.2334 29.2588c0.522461 0 2.96191 -1.56836 5.40039 -3.31055zM279.442 625.958v-17.9443c-8.3623 -4.35547 -28.0488 -10.4531 -32.5781 -13.5889
c-4.96875 -3.63086 -13.415 -5.03711 -13.415 -6.44531c0 -1.21973 -4.87793 -6.09766 -10.8008 -10.8018c-6.09766 -4.5293 -16.2021 -12.8916 -22.6484 -18.293c-6.44629 -5.57422 -11.8467 -10.1045 -12.1953 -10.1045c-0.522461 0 -20.9053 25.2617 -25.2607 31.3594
c-1.74219 2.61328 -0.174805 4.18066 12.1943 12.3691c28.5723 18.8154 70.9062 37.9795 93.0322 42.1602c5.22559 1.04492 5.92285 0.522461 11.6719 -8.71094zM296.516 572.822c-5.40039 -3.48438 -14.8086 -10.2783 -20.5576 -15.1572h-22.2998
c-6.27148 8.3623 -11.498 22.6484 -11.498 23.6934c0 2.96191 40.2441 28.3975 45.1221 28.3975c1.56836 0 19.3379 -26.8291 19.3379 -29.2676c0 -0.697266 -4.5293 -4.18164 -10.1045 -7.66602zM376.307 589.198v-12.543
c-3.1582 -2.10547 -28.4873 -25.2861 -35.6777 -25.2861c-0.620117 0 -1.10645 0.172852 -1.43066 0.546875c-3.48438 4.00781 -16.8984 24.3906 -16.8984 25.4355c0 2.26562 43.2051 21.9512 48.083 21.9512c0.174805 0 2.96191 -4.5293 5.92383 -10.1045zM677.7 577.352
c0 -0.521484 -19.0469 -28.5713 -19.6865 -28.5713c-0.173828 0 -4.70312 3.65918 -9.92969 8.18848c-5.22656 4.35547 -14.1123 10.9756 -19.5127 14.8086c-5.5752 3.6582 -10.1045 7.14258 -10.1045 7.83984c0 1.39355 10.627 19.6855 11.498 19.6855
c4.53027 0 47.7354 -19.8604 47.7354 -21.9512zM811.847 548.955c-4.19043 0.417969 -44.9756 39.8955 -48.2578 39.8955c-1.39355 0 -6.09766 2.43848 -10.4531 5.40039c-4.35547 3.13574 -14.8086 9.2334 -23.3447 13.5889h-15.3311v17.7695
c5.05273 8.3623 12.0205 9.4082 16.5508 8.88574c9.75586 -1.0459 41.2891 -12.5439 58.5361 -21.6035c21.0967 -10.6338 48.1045 -28.1914 48.1045 -30.8936c0 -1.14648 -24.5322 -33.043 -25.8047 -33.043zM757.84 581.358
c0 -1.81445 -21.5674 -30.6611 -23.5195 -30.6611c-0.871094 0 -6.09766 3.48438 -11.3242 7.83887c-5.22559 4.18164 -14.1113 10.6279 -19.5117 14.2861c-5.5752 3.48438 -10.1045 6.96875 -10.1045 7.66602c0 0.696289 4.18066 8.01367 9.05957 16.0273v14.8086h20.5566
c14.2861 -7.83984 34.8438 -28.2236 34.8438 -29.9658zM516.725 578.223c-10.1455 -7.39746 -13.1025 -11.415 -16.4951 -11.415c-2.8916 0 -6.09863 2.91797 -14.3408 9.15039c-6.96875 5.22656 -13.9375 10.2793 -15.3311 11.1504
c-0.420898 0.222656 -0.626953 0.611328 -0.626953 1.15234c0 3.2666 7.51074 12.1025 20.6621 23.7598v8.71094l25.4355 -15.6787l15.8535 -15.8545zM477.004 613.415c-7.83984 -8.18848 -15.1572 -15.8545 -16.2021 -16.8994
c-0.130859 -0.149414 -0.356445 -0.219727 -0.666992 -0.219727c-4.35742 0 -32.8438 18.1758 -32.8438 19.4121c0 3.38281 28.0127 37.6025 30.8975 37.6025c0.696289 0 8.53613 -5.5752 17.2471 -12.5439l15.8535 -12.3691zM557.491 605.575
c-8.71094 -5.40137 -16.376 -9.75684 -17.0732 -9.75684c-1.04492 0.174805 -31.5332 31.5332 -31.707 32.5791c0 1.04492 31.8818 24.9131 33.2754 24.9131c1.56738 0 26.4805 -29.2686 29.2676 -34.6689c1.74219 -2.96191 0 -4.53027 -13.7627 -13.0664zM421.08 618.467
c-0.0927734 0 -20.1572 10.666 -20.1572 11.7676c0 5.02539 19.5723 47.4658 22.0732 47.4658c0 0 27.877 -16.0293 27.877 -18.2998c0 -0.661133 -28.4619 -40.9336 -29.793 -40.9336zM597.561 631.707c0 -2.23633 -17.2266 -13.2402 -19.3379 -13.2402
c-0.347656 0 -2.43848 2.96191 -4.35547 6.62012c-1.75195 2.91992 -25.0869 30.9268 -25.0869 33.9727c0 1.625 23.3457 17.1055 28.7949 17.1055c0.480469 0 0.822266 -0.120117 0.996094 -0.380859c6.44629 -9.4082 18.9893 -38.8506 18.9893 -44.0771zM499.826 635.889
c-1.21973 0 -31.8818 24.3896 -32.5791 25.958c-0.00488281 0.0146484 -0.00683594 0.03125 -0.00683594 0.0498047c0 2.19336 30.166 31.4834 32.4111 31.4834c2.41309 0 33.1133 -29.1406 33.1133 -31.2979c0 -0.950195 -31.6514 -26.1934 -32.9385 -26.1934z
M493.093 700.564c0 -2.52539 -34.7256 -33.1426 -34.9043 -33.1426c-1.39648 0 -26.8457 18.3789 -27.7002 18.9893c-0.286133 0.142578 -0.430664 0.432617 -0.430664 0.87207c0 3.30762 8.20117 15.1357 26.04 37.2812v4.00684l19.6865 -13.5889
c8.83789 -7.13867 17.3086 -13.9062 17.3086 -14.418zM564.286 677.526c-8.18848 -5.74902 -23.3457 -10.2793 -24.042 -10.2793c-0.522461 0 -8.53711 7.49121 -17.7705 16.5508l-16.5498 16.376l17.2471 14.2861c9.40723 7.83984 17.2471 13.9375 17.5957 13.5889
c0.173828 -0.348633 4.00684 -5.05273 8.3623 -10.2783c4.35547 -5.22656 11.1494 -14.2861 15.1572 -19.8613v-20.3828zM425.958 701.568c-2.96191 -4.53027 -5.5752 -8.18848 -6.09766 -8.18848c-1.91211 0.173828 -29.3301 17.6299 -29.3301 19.6074
c0 6.20215 25.7461 45.2871 29.7529 45.2871c1.0293 0 8.94629 -6.7666 16.4766 -12.4561l14.2852 -10.9756v-12.3691c-5.40137 -6.96875 -22.2988 -16.2021 -25.0869 -20.9053zM609.756 712.021c0 -0.80957 -29.6543 -18.6406 -30.1387 -18.6406
c-0.348633 0 -3.65918 4.5293 -7.31738 9.93066c-3.6582 5.57422 -10.4531 14.9824 -15.1572 20.9053v21.6025c8.01367 5.92383 21.2549 11.499 22.2998 12.3701c0.149414 0.106445 0.320312 0.158203 0.511719 0.158203c5.74219 0 29.8018 -46.3262 29.8018 -46.3262z
M534.495 733.449c-0.299805 -0.599609 -33.7236 -27.874 -34.8438 -27.874c-1.21973 0.173828 -33.623 26.4805 -34.1465 27.874c-0.347656 0.871094 7.31738 9.58203 16.8994 19.5127l17.4219 17.9443l17.5957 -18.1191
c9.58203 -9.92969 17.2471 -18.6406 17.0732 -19.3379zM405.575 752.962c-2.96191 -4.35547 -9.05957 -14.6348 -13.415 -22.9971v-14.9824h-17.9443c-6.07617 3.53613 -8.94141 6.22363 -8.94141 12.0664c0 5.38184 2.43164 13.4404 7.02539 27.3066
c6.62012 20.3828 21.2539 49.6514 35.7139 71.0801v14.2861l25.0869 -12.3701c8.33008 -6.62988 17.0088 -13.0205 17.0088 -14.0713c0 -2.56055 -11.876 -17.7471 -32.5137 -41.8516c-7.95117 -9.27637 -4.83594 -7.89844 -12.0205 -18.4668zM631.533 741.812
c1.28906 -6.8584 0 -14.0537 0 -21.0801h-16.2021v6.44629c-3.48438 6.79395 -15.8535 17.7695 -20.209 24.3906c-4.7793 7.26367 -7.19434 14.9824 -8.3623 14.9824c-1.21973 0 -4.53027 3.30957 -7.49121 7.49121c-2.78809 4.00684 -10.8018 14.1113 -17.7705 22.4736
c-6.96875 8.18848 -12.7178 15.3311 -12.7178 15.8535c0 1.56836 30.8369 25.6104 32.9268 25.6104c2.09082 0 16.377 -21.2549 26.8291 -40.0703c9.23438 -16.7246 19.7568 -38.8564 22.9971 -56.0977zM491.289 777.7c0 -0.642578 -35.8281 -37.418 -36.7598 -37.1074
c-0.347656 0 -8.01367 5.22559 -16.8984 11.498c-14.46 10.1045 -16.0283 11.6719 -13.7637 14.2852c0.630859 0.811523 31.8154 39.9102 34.25 39.9102c1.95215 0 33.1719 -28.0244 33.1719 -28.5859zM571.254 751.742
c-9.2334 -6.27148 -26.4805 -11.3242 -26.6543 -11.3242c-0.871094 0 -35.8887 36.0625 -35.8887 36.9336c0 1.39453 31.5332 29.2686 33.1006 29.2686c1.0459 0 17.0732 -18.6406 29.4424 -34.3203v-20.5576zM518.293 801.045
c-9.18164 -7.96875 -17.4619 -15.0049 -18.3174 -15.0049c-3.9043 0 -25.9521 21.3184 -28.5469 23.542v5.5752l10.4531 18.4668l17.2471 18.292c12.1113 -12.0469 24.1338 -24.1826 36.0625 -36.4111zM476.829 838.327
c-9.75586 -9.75586 -18.293 -17.7695 -18.6406 -17.5957c-1.66211 0.302734 -32.7764 25.8555 -32.7764 27.6934c0 4.21875 33.5625 45.251 62.3926 76.1396l11.8467 12.7178l12.7178 -13.5889c23.5195 -24.5645 62.5439 -71.6025 62.5439 -75.0869
c0 -0.697266 -7.66602 -7.31738 -16.8994 -14.8086l-16.8984 -13.415c-12.208 12.3574 -24.4609 24.6689 -36.7598 36.9346l13.9375 12.8916c10.627 9.93066 13.0654 12.8916 10.2783 13.0664c-1.91602 0 -9.05957 -4.87793 -16.2021 -11.3242l-12.543 -11.498
l-12.5439 11.498c-8.69043 7.87012 -14.333 11.6514 -16.0742 11.6514c-0.379883 0 -0.573242 -0.179688 -0.573242 -0.536133c0 -1.48145 3.3623 -6.01855 10.7236 -13.3799l13.415 -13.415z" />
</svg>
