<?xml version="1.0" standalone="no"?>
<!DOCTYPE svg PUBLIC "-//W3C//DTD SVG 1.1//EN" "http://www.w3.org/Graphics/SVG/1.1/DTD/svg11.dtd" >
<svg xmlns="http://www.w3.org/2000/svg" xmlns:xlink="http://www.w3.org/1999/xlink" version="1.1" viewBox="-10 0 1010 1000">
   <path fill="currentColor"
d="M492.259 150.525c22.8262 0 30.8564 11.3379 39.5488 27.999h144.201c8.3916 0 16.3428 -0.00195312 23.877 -0.00195312c139.538 0 136.072 0.629883 136.072 25.2021c0 10.1504 17.501 59.1504 61.6006 172.2c33.5996 86.7998 63 159.25 64.749 161.001
c2.00391 2.12891 3.02246 5.19922 3.02246 9.22656c0 7.22754 -3.2793 17.5371 -10.0215 31.0225c-23.0996 45.1504 -67.5508 66.8506 -138.6 66.8506c-74.9014 0 -121.101 -24.501 -142.101 -75.5996c-6.30078 -15.75 -7 -20.6504 -3.5 -26.9512
c9.73535 -18.7754 114.464 -315.275 114.464 -323.279c0 -3.20801 -16.8662 -4.21094 -73.1719 -4.21094c-16.1133 0 -35.6074 0.0869141 -59.1416 0.240234l-130.55 1.0498l-1.75098 304.5c-1.0498 167.301 -3.14941 306.601 -4.5498 308.7
c-4.19922 6.2998 -19.9492 5.60059 -27.6504 -1.39941c-5.94922 -5.25 -6.2998 -19.25 -6.2998 -302.4v-296.8l-10.1494 -7c-9.80078 -7 -14.3506 -7.34961 -130.9 -7.34961c-75.1289 0 -123.231 1.25098 -123.231 3.69727c0 4.57715 24.4824 77.1982 55.6816 163.253
c32.1992 88.2002 58.0996 164.149 58.0996 168.699c0 27.2998 -21.3496 58.4502 -51.4492 74.9004c-25.9004 14 -54.251 19.9502 -93.1006 19.9502c-67.8994 0 -116.199 -21.7002 -135.45 -61.251c-3.84961 -8.39941 -9.7998 -17.1494 -12.5996 -19.249
c-3.21582 -2.7334 -4.80664 -7.38672 -4.80664 -12.4336c0 -5.94043 2.2041 -12.4248 6.55664 -16.9668c7.69922 -8.40039 133.35 -328.65 133.35 -339.851c0 -15.75 1.40039 -15.75 143.15 -15.75h134.399l11.9004 -13.999c10.8506 -12.6006 13.6504 -14 28.3506 -14z
M871.658 388.175c-41.5361 -106.51 -54.4014 -136.314 -61.4082 -136.314c-1.25879 0 -2.3291 0.961914 -3.3418 2.61523c-6.59863 10.7666 -95.5664 264.846 -95.5664 272.516c0 3.77051 55.5762 5.51562 107.265 5.51562c50.5996 0 103.487 -1.57617 103.487 -5.63379
c0 -4.99023 -22.374 -66.4912 -50.4355 -138.698zM198.259 259.726c-6.2998 -7.35059 -13.6504 -4.55078 -18.2012 6.99902c-29.7275 71.9043 -98.3809 254.43 -98.3809 261.614c0 2.4248 39.7266 3.68652 105.382 3.68652c88.9473 0 105.375 -0.546875 105.375 -5.82324
c0 -9.92773 -87.2441 -257.812 -94.1748 -266.477zM187.408 560.725c-22.4863 -0.160156 -40.3252 -0.264648 -54.4922 -0.264648c-47.7949 0 -53.7881 1.19531 -55.4072 5.51465c-0.227539 0.599609 -0.337891 1.24609 -0.337891 1.93359
c0 10.9395 27.9336 32.2246 54.9375 41.1162c14.5908 4.59961 34.2842 6.89941 54.293 6.89941c24.1475 0 48.7549 -3.34961 65.4072 -10.0488c21.291 -8.11133 44.54 -27.9697 44.54 -37.5186c0 -6.56934 -11.8271 -6.58008 -108.94 -7.63184zM816.709 560.025
c-96.9512 0 -107.101 0.699219 -109.2 5.94922c-0.220703 0.5625 -0.328125 1.1748 -0.328125 1.83008c0 10.7686 28.8242 33.3027 54.2275 41.2197c15.4688 4.8125 34.9043 7.17773 54.4521 7.17773c20.2588 0 40.6387 -2.54004 56.8477 -7.52734
c25.6855 -7.90234 53.5381 -29.7471 53.5381 -41.0488c0 -8.30469 -12.9385 -7.60059 -109.537 -7.60059z" />
</svg>
