<?xml version="1.0" standalone="no"?>
<!DOCTYPE svg PUBLIC "-//W3C//DTD SVG 1.1//EN" "http://www.w3.org/Graphics/SVG/1.1/DTD/svg11.dtd" >
<svg xmlns="http://www.w3.org/2000/svg" xmlns:xlink="http://www.w3.org/1999/xlink" version="1.1" viewBox="-10 0 1010 1000">
   <path fill="currentColor"
d="M783.387 178.914c0.398438 0 53.2158 -25.5596 53.9941 -25.5596c0.354492 0 -49.2041 101.448 -49.2041 103.496c0 1.66699 9.18457 15.708 18.5332 29.7305c15.9736 24.2812 18.21 26.5176 28.1143 26.5176c15.7676 0 26.4404 14.3564 26.4404 29.5479
c0 6.66406 -2.05371 13.4893 -6.63184 19.334c-3.19531 3.99414 -4.79199 5.99023 -4.79199 10.0244c0 4.0332 1.59668 10.1035 4.79199 22.2441c3.51465 13.7383 7.02832 31.6299 8.30664 40.2559v15.6553c39.7646 13.1641 81.4053 26.3682 121.086 39.6162
c-39.4033 13.2061 -78.8066 26.4111 -118.211 39.6162v12.4609c-1.59766 6.70898 -7.98633 23.9609 -11.501 37.6992c-2.49512 10.5664 -3.44922 17.0156 -3.44922 21.373c0 10.7959 9.15234 10.8838 9.15234 29.3193c0 12.8184 -11.165 26.3252 -25.8311 30.1387
c-8.94531 1.91699 -14.0576 7.34766 -28.7539 29.0732l-17.5723 26.8369l56.6162 113.868c-0.958984 0 -28.1816 -12.2705 -59.4912 -27.9258l-56.5498 -28.4346l-11.8213 10.2236c-9.26465 7.9873 -12.1406 12.46 -12.7793 22.6836v12.7803h-16.6133
c-13.7383 0 -15.9746 0.958008 -18.5303 7.98633c-4.3418 11.9395 -15.9102 19.0117 -27.5908 19.0117c-5.51074 0 -11.0459 -1.57422 -15.8594 -4.9541c-2.95215 -2.06543 -5.15332 -3.17773 -9.06152 -3.17773c-4.55176 0 -11.4199 1.50879 -24.4854 4.77539
c-14.377 3.51465 -31.9492 7.34863 -39.2969 8.62598h-12.7793l-37.3232 117.025c-0.958008 0 -12.5176 -26.6094 -23.0605 -57.9199l-18.8496 -57.1885h-15.9746c-8.94531 -1.27734 -27.4756 -7.02832 -40.8945 -10.543h-24.6006
c-5.42676 4.27539 -13.4775 6.43457 -21.7549 6.43457c-7.80566 0 -15.8135 -1.91992 -22.0156 -5.7959c-4.87891 -2.92676 -8.17285 -3.88965 -11.1494 -3.88965c-5.73047 0 -10.2852 3.57031 -22.7158 3.57031h-15.3359v-12.1406
c0 -6.70898 2.87598 -15.335 6.38965 -19.8076c3.51465 -4.47363 6.39062 -9.58496 6.39062 -11.1826c0 -1.91699 -7.0293 -7.9873 -15.6553 -13.7383l-15.6553 -10.543l-54.6328 27.1572c-30.0312 15.335 -56.1709 27.0312 -57.1289 27.0312l54.5732 -110.418
l-18.8496 -29.0742c-12.1406 -18.5303 -21.0859 -29.0732 -24.6006 -29.3926c-8.62598 0 -23.9619 -8.94531 -27.7959 -15.6553c-2.10938 -4.08789 -3.13086 -9.31934 -3.13086 -14.5479c0 -7.43848 2.06641 -14.8711 6.00684 -18.998
c2.81836 -3.11426 4.25879 -4.9209 4.25879 -8.77539c0 -4.44824 -1.91895 -11.625 -5.85645 -26.6875c-3.83398 -15.9746 -7.34863 -33.2275 -7.34863 -38.9785v-10.2236c-38.7051 -12.626 -77.8936 -25.0879 -116.933 -37.3799
c38.2734 -12.7383 76.5068 -25.5166 114.696 -38.3389v-25.5586c2.23633 -13.7383 10.2236 -32.2686 12.7803 -40.5752c4.47266 -14.6963 4.47266 -15.3359 -3.19531 -23.0029c-5.56641 -5.56641 -8.05469 -12.5752 -8.05469 -19.5547
c0 -15.0527 11.5771 -29.9668 28.8213 -29.9668c10.8623 0 12.46 -1.59668 24.6006 -21.7246c12.8984 -20.3799 18.5068 -34.7178 18.5068 -47.0527c0 -2.94141 -0.319336 -5.76953 -0.93457 -8.53809c-1.59766 -5.75098 -11.502 -28.1152 -22.3643 -49.5215
c-10.543 -21.7246 -19.4893 -39.9355 -19.4893 -40.8945c0 -1.77637 45.3604 22.4346 54.874 22.4346c0.911133 0 1.49316 -0.22168 1.67578 -0.708984c4.15332 -11.502 14.6963 -20.1279 25.2393 -20.1279c10.8633 0 10.8633 0 10.8633 14.6963
c0 13.0996 9.58398 36.4219 15.0156 36.4219c0.958984 0 7.02832 -4.15332 13.4189 -8.94531c5.20801 -4.16699 40.667 -24.2666 40.667 -30.7744c0 -1.3418 -0.6875 -2.62305 -0.6875 -4.22363c0 -8.26562 7.01465 -20.6309 14.9727 -24.7471
c5.68848 -3.0625 10.9766 -4.59473 15.9883 -4.59473c5.96484 0 11.5361 2.1709 16.9189 6.51172c8.62598 6.70996 8.94531 6.70996 28.4346 1.27832c10.8623 -3.19531 30.3506 -7.34863 43.4502 -9.26562h23.9619l31.041 -101.819
c0.958984 0 11.7705 22.5869 20.7158 49.4238l15.9746 48.5625h29.7119c16.2939 3.19531 34.5049 12.7793 40.2559 14.6963c9.58496 3.19434 11.8213 2.55566 17.2529 -2.87598c4.33887 -4.33887 12.3535 -6.67188 20.4258 -6.67188
c5.59961 0 11.2275 1.12207 15.6758 3.47754c6.70117 3.62988 13.8906 18.4844 13.8906 26.6504c0 2.59863 -2.43555 8.17383 0.486328 8.17383c2.44336 0 47.4307 28.7539 49.5215 28.7539c4.79199 0 16.2939 -15.0156 23.9609 -31.3096
c6.70996 -14.377 8.94629 -16.6143 16.9336 -16.6143c11.1816 0 15.0156 4.79297 17.8906 21.7256c1.27832 7.34863 2.55664 13.4189 3.51465 13.4189zM270.927 223.003c-16.874 -18.124 -25.2871 -23.6777 -27.1562 -50.7988v-4.47266
c-13.2998 19.5732 -26.9941 49.3975 -26.9941 63.3057c0 3.79883 1.02148 6.41113 3.35156 7.30176c3.83398 1.59766 3.19531 3.83398 -2.23633 13.418c-5.1123 8.62695 -6.70898 16.2939 -6.38965 29.3936c0.638672 24.9199 12.1406 77.6357 21.7246 98.4023
c7.0293 15.6553 8.62695 17.252 15.9746 15.335c6.70996 -1.59668 7.9873 -0.958008 7.9873 5.1123c0 8.76562 2.92578 18.9971 13.0996 12.7793c6.70898 -4.15332 6.70898 -4.15332 4.47266 4.79297c-3.56543 13.3018 -5.42383 23.3076 -5.42383 32.291
c0 11.9453 3.28613 22.083 10.2158 35.7598c9.51953 18.7422 27.9033 32.498 42.5137 32.498c1.08008 0 2.13965 -0.0751953 3.17383 -0.229492c7.02832 -0.958984 7.02832 1.59766 -0.958984 9.9043c-13.1318 14.0527 -20.1162 33.4219 -20.1162 53.5537
c0 7.78809 1.04492 15.6895 3.18359 23.4424c4.79199 15.9746 5.43066 16.6133 15.335 9.9043v4.47266c-4.79199 9.26562 -1.27734 10.2236 4.15332 13.0996c9.69824 5.81836 26.4678 -6.98047 8.94629 10.543c-8.26172 8.26074 -10.4248 10.7939 -10.4248 20.5273
c0 3.06543 0.214844 6.84473 0.520508 11.7412c1.57715 29.5615 5.5127 29.9141 21.7256 38.0186v4.47363c-9.9043 4.15332 -20.1279 4.79199 -20.1279 23.6416c0 25.2402 -6.70996 48.5625 -20.7666 71.8848c-6.39062 10.2236 -10.5439 19.1699 -9.9043 20.1279
c0.661133 0.661133 1.62598 0.980469 2.85645 0.980469c5.90137 0 17.8994 -7.34863 31.6484 -19.5107c17.252 -15.335 47.2842 -58.7861 47.2842 -68.6895c0 -2.55664 -3.19531 -6.70996 -7.0293 -9.26562c-7.02832 -5.1123 -7.02832 -5.1123 2.87598 -5.1123
c11.501 0 11.8203 -0.958008 32.9072 -57.1885c7.66797 -20.127 14.0576 -41.2139 14.0576 -46.3252c0.568359 -9.67383 11.4844 -17.8604 11.4844 -27.1006c0 -3.6377 -1.69141 -7.43848 -6.37305 -11.5576c-3.51465 -3.19531 -6.38965 -7.66797 -6.38965 -10.2236
c0 -3.51465 1.59766 -3.19531 7.66797 0.638672c2.82227 1.88184 5.0498 2.93945 6.80469 2.93945c4.79785 0 6.06055 -7.91113 6.29395 -28.498c0.319336 -17.2529 2.23633 -26.5176 8.94629 -40.2559c4.79199 -9.9043 8.62598 -18.8496 8.62598 -20.1279
s-4.79199 -7.9873 -10.2236 -14.6963c-9.58496 -11.502 -12.1406 -12.7793 -26.5176 -13.0996h-15.9746c11.5918 -1.29492 23.1992 -3.21094 34.8242 -4.47266v-21.4053c-0.140625 -3.87012 -0.235352 -7.21289 -0.235352 -10.1826
c0 -10.5146 1.18262 -16.3506 5.66699 -24.3223c7.02832 -12.46 7.02832 -12.46 0.958008 -26.1982c-6.70898 -15.6553 -38.3389 -50.4795 -45.3672 -50.4795c-2.875 0 -8.30664 3.19531 -12.7793 7.0293c-7.0293 6.70898 -7.66797 7.02832 -10.543 1.59668
c-3.83398 -6.70898 -7.9873 -4.79199 -15.9746 8.62695c-5.75098 9.26465 -6.07031 9.58398 -6.07031 2.23633c0 -4.15332 3.51367 -10.8633 7.9873 -15.0166c7.9873 -7.34766 7.9873 -7.98633 3.19434 -16.9326c-6.19141 -13.1592 -47.6592 -38.2637 -55.5908 -50.1592
c-6.38965 -8.94629 -8.62598 -10.2236 -16.6133 -8.62695c-6.70898 1.27832 -10.543 0.319336 -13.4189 -3.51367c-3.51367 -4.79297 -5.11133 -5.1123 -18.2109 -0.320312h-14.377v-1.59668c4.47266 -3.51465 19.8086 -6.38965 24.6006 -6.38965
c6.62207 0 9.98242 -1.20508 9.98242 -4.31641c0 -3.49414 -4.23828 -9.39258 -12.8574 -18.6875zM770.927 177.636c-3.22754 -13.3145 -6.45605 -20.1328 -9.20117 -20.1328c-1.60156 0 -3.04004 2.32324 -4.21777 7.03418
c-3.83301 14.6963 -16.6133 31.9482 -33.5459 44.7285c-11.1826 8.62598 -16.2939 14.6963 -16.2939 19.8076c0 6.07031 -1.27832 7.0293 -9.26562 5.43164c-1.37695 -0.275391 -2.63086 -0.436523 -3.8457 -0.436523c-5.83301 0 -10.7842 3.71973 -24.2686 16.4111
c-10.5439 9.9043 -23.0039 21.0859 -27.7959 25.5586c-13.3662 11.1377 -1.91699 13.168 -1.91699 26.1982c0 4.15332 -0.958008 4.47266 -4.79199 1.27832c-5.03711 -4.40625 -19.8164 1.56934 -21.7256 -4.79297c-1.59766 -3.51367 -4.79199 -2.875 -16.9326 3.83398
c-30.6709 17.2529 -54.3135 48.8818 -57.8281 76.9971c-1.59668 15.335 -1.27734 16.2939 7.66797 21.0859c11.1826 5.43164 16.9336 17.5723 18.5303 37.3809c0.958984 14.0576 0.958984 14.0576 15.6553 16.6133c34.5049 5.75098 62.6201 23.9619 80.8311 52.3955
c5.75 9.26562 12.46 16.9336 14.6963 16.9336c6.38965 0 25.8779 -27.7959 37.0605 -52.3965c6.49121 -14.2432 9.4209 -21.6699 9.4209 -26.2402c0 -3.5293 -1.74707 -5.35742 -4.94824 -7.30566c-3.19434 -1.91699 -3.83398 -3.51465 -1.59766 -3.51465
c1.91699 0 3.83398 -2.55566 3.83398 -5.75098c0.319336 -2.875 4.79297 -8.30664 10.2236 -11.8213c7.9873 -5.11133 12.1406 -11.501 17.8916 -28.7539c4.15332 -12.1406 7.9873 -27.4756 8.30664 -33.5459c0.665039 -12.6504 11.665 -31.835 11.665 -47.7822
c0 -4.66602 -0.941406 -9.05371 -3.3584 -12.9209c-1.91699 -3.19531 -1.27734 -6.38965 1.59766 -9.58496c4.43848 -4.8418 7.2207 -36.4365 7.2207 -65.1797c0 -16.7764 -0.948242 -32.5811 -3.06738 -41.5293zM447.284 290.734
c-2.88574 5.05469 -27.1562 -14.5654 -27.1562 -3.19434c0 1.59766 1.91699 3.19434 4.47266 3.19434c2.23633 0 6.38965 2.2373 8.62598 5.1123c3.83398 4.79199 3.51465 5.11133 -2.875 3.19531c-9.9043 -3.19531 -8.94531 0 4.15332 12.1396
c11.502 10.8633 14.6963 19.1699 6.38965 15.9746c-1.43945 -0.576172 -2.49023 -0.838867 -3.20508 -0.838867c-0.835938 0 -1.21191 0.359375 -1.21191 0.998047c0 5.06934 23.7109 27.7344 29.084 27.7344c0.411133 0 0.714844 -0.132812 0.892578 -0.416992
c1.27734 -1.91699 -0.319336 -6.38965 -3.51465 -9.9043c-4.79199 -5.43164 -5.11133 -7.9873 -2.23633 -15.9746c3.51465 -8.94531 3.19531 -9.26465 -2.875 -7.34863c-6.39062 1.91699 -6.70996 1.27832 -4.79297 -15.9736
c1.59766 -16.2939 -0.958008 -22.6836 -5.75098 -14.6973zM573.482 292.332c0 -5.43066 -21.4053 1.91699 -26.1982 9.26562c-1.91699 2.55566 -3.51367 1.91699 -5.43066 -1.27832c-4.79297 -7.02832 -7.66797 -1.59766 -3.51465 6.38965
c2.23633 4.15332 2.875 10.543 1.59766 15.3359c-1.27832 4.79199 -3.19531 6.70898 -3.83398 4.47266c-2.23633 -6.07031 -7.34863 -1.27832 -7.34863 7.02832c0 6.20898 -7.78027 13.4102 -4.79199 17.8916c2.72266 4.35645 21.3184 -15.9746 25.2393 -15.9746
c6.07031 0 6.70996 -5.43066 1.27832 -7.02832c-6.07031 -2.23633 -0.319336 -12.1406 7.02832 -12.1406c7.66797 0 8.30664 -5.1123 0.958984 -8.94531c-9.49902 -5.42969 15.0156 -11.5264 15.0156 -15.0166zM522.364 355.591
c-5.03027 -2.64746 -13.5156 -3.86914 -22.3652 -3.86914c-12.5107 0 -25.75 2.44141 -30.9893 6.74512c-2.46875 1.97559 -4.08008 8.02539 -4.08008 13.874c0 6.57031 2.0332 12.8867 7.16992 12.8867c1.39648 0 3.02148 -0.466797 4.89746 -1.52148
c3.51465 -1.91699 9.9043 -3.51465 14.0576 -3.19531c4.79199 0 1.59766 2.2373 -9.26562 6.39062c-9.26465 3.51367 -21.0859 10.543 -26.1982 15.6543c-9.58398 8.62598 -9.90332 10.2236 -9.90332 34.1855c0 24.2812 7.02832 48.2432 15.335 53.3545
c1.91699 0.958984 0.319336 8.94629 -4.47266 20.1279c-5.75098 14.0576 -7.34863 24.2812 -7.34863 42.4922c0 26.8369 4.47363 44.7285 28.1152 112.779c8.94531 26.1982 16.2939 50.7988 16.2939 54.9521c0 9.26562 3.19531 17.5723 6.38965 17.5723
c1.59766 0 3.51465 -6.07031 4.79297 -13.7383c2.55566 -17.2529 11.501 -43.1309 29.0732 -86.2617c13.7383 -33.2275 23.3223 -74.1221 23.6416 -99.3613c0 -6.70898 -8.30664 -19.8564 -8.30664 -31.3096v-25.8789c6.25488 -6.51562 10.5967 -26.6387 10.5967 -40.5957
c0 -3.15234 -0.22168 -5.99023 -0.692383 -8.28613c-4.23145 -18.3447 -3.15332 -22.2529 -20.7666 -34.1855c-9.82617 -6.65625 -12.4717 -8.89648 -12.4717 -11.6074c0 -2.88965 3.00488 -6.31348 3.52637 -16.1875c0.638672 -8.94629 -0.639648 -11.502 -7.0293 -15.0166
zM613.419 482.428c1.14258 -1.80859 1.6582 -3.5332 1.6582 -5.16406c0 -10.5859 -21.749 -17.2002 -34.8848 -17.2002c-10.5439 0 -12.4609 1.59766 -22.0449 17.2529l-10.2236 17.252v13.7383c4.47266 10.2236 12.7793 21.0859 12.7793 38.6582
c0 26.1982 11.1816 91.0547 16.6133 97.4443c1.91699 2.23633 5.75098 4.15332 8.62598 4.15332c4.47363 0 5.43164 2.23633 4.15332 10.2236v9.9043h28.7539v7.02832c-8.81055 10.2451 -15.9131 17.2051 -15.9131 20.8799c0 2.05469 2.2207 3.08203 7.60645 3.08203
c6.07031 0 14.0576 -1.59766 17.5723 -3.19531c11.1816 -6.38965 6.38965 2.55664 -8.30664 14.6963c-13.0986 10.8633 -14.377 12.7803 -12.46 21.7256c3.19434 15.3359 16.9326 40.5752 27.7949 52.3965c10.2236 10.543 38.0195 23.0029 51.7578 23.0029
c9.9043 0 9.9043 -0.958008 0 -14.0576c-4.47266 -5.75098 -9.58496 -15.0156 -11.502 -20.7666c-2.875 -7.66797 -6.07031 -10.8623 -13.7383 -12.1406c-9.58398 -2.23633 -9.58398 -2.23633 -1.91699 -4.15332c6.07031 -1.59766 7.66797 -3.83398 7.0293 -9.9043
c-0.319336 -4.15332 -0.638672 -25.2393 -0.638672 -46.3262v-42.8115c-14.377 -5.75 -24.2812 -9.58398 -10.8633 -8.62598c10.543 0.639648 12.1406 -0.319336 14.377 -8.94531c1.59766 -5.43164 3.83398 -22.6836 4.79297 -38.3389
c0.673828 -8.54102 1.03223 -14.71 1.03223 -19.2861c0 -8.43262 -1.21582 -11.4551 -3.9082 -13.9404c-3.83398 -2.87598 -4.47266 -5.75098 -2.23633 -9.9043c0.90625 -1.72949 1.32324 -4.05762 1.32324 -6.8291c0 -18.7324 -19.0879 -57.6748 -35.5088 -68.251
c-6.38965 -4.47266 -9.58398 -4.79199 -15.9736 -1.91699c-4.79297 2.23633 -7.0293 2.23633 -5.75098 0.319336zM289.457 369.968c-8.84375 3.12109 9.50586 -21.7246 15.0156 -21.7246c2.55664 0 -12.1406 20.7666 -15.0156 21.7246zM342.812 502.556
c7.56152 -13.3428 32.998 -35.4629 54.9521 -35.4629c7.0293 0 7.0293 0.319336 -1.59766 2.23633c-13.7373 3.51465 -23.9609 9.58496 -23.9609 14.377c0 2.23633 2.875 7.9873 6.38965 12.46c10.6484 13.1553 -3.19531 6.4707 -3.19531 16.6133
c0 4.15332 -2.23633 3.19531 -10.8623 -3.19434c-9.26562 -7.0293 -12.1406 -7.9873 -17.8916 -4.79297c-6.07031 3.19531 -6.38965 3.19531 -3.83398 -2.23633zM688.499 357.827c6.96582 0 14.1807 -12.2373 18.5303 -0.638672
c0.638672 2.23633 -1.59766 3.83398 -5.1123 3.83398c-4.45312 0 -17.7471 12.9238 -20.4473 10.2236c-4.15332 -4.15332 0.638672 -13.4189 7.0293 -13.4189zM702.556 438.02c-7.78223 0 1.79199 3.95898 4.1543 1.59668
c1.27734 -0.958008 -0.639648 -1.91699 -4.1543 -1.59668zM500 381.47c0 -6.91309 25.8027 6.66895 7.9873 2.55566c-4.47266 -0.638672 -7.9873 -1.91699 -7.9873 -2.55566zM476.358 452.077c-8.57031 -6.7666 -12.1602 -13.9316 -12.1602 -20.6152
c0 -15.1436 18.4248 -27.8223 39.1123 -27.8223c7.59082 0 15.4863 1.70703 22.8877 5.62598c6.27344 3.3916 9.57812 12.4521 9.57812 21.6416c0 8.12598 -2.58301 16.3525 -7.98047 20.8496c-5.1123 4.47363 -7.0293 9.26562 -7.0293 19.1699
c0 18.2598 -4.7627 7.82422 -12.7793 14.6963c-6.28125 5.02539 -6.86133 -3.7334 -14.6963 -1.59766c-5.43164 1.91699 -6.07031 0.319336 -6.07031 -10.8623c0 -10.8623 -1.59766 -14.0576 -10.8623 -21.0859zM491.693 430.032
c-9.58496 -9.58496 -20.7666 -2.87598 -15.9746 9.26465c1.91699 5.43164 14.6973 11.502 18.8506 8.94629c3.83301 -2.23633 2.55566 -13.0996 -2.87598 -18.2109zM528.754 432.588c0 -4.25293 -2.3457 -6.0498 -5.49805 -6.0498
c-6.08398 0 -15.1748 6.6875 -16.2266 15.3154c-0.958984 7.02832 0 8.30664 4.79199 6.38965c8.30664 -2.87598 16.9326 -10.8633 16.9326 -15.6553zM509.904 470.607c5.34766 -5.34961 -5.23242 -27.7773 -13.7383 -8.94629
c-4.15332 9.58496 -1.59668 13.7383 5.43164 7.9873c3.83398 -3.19434 4.79199 -3.19434 4.79199 0.319336c0 2.87598 0.958984 3.19531 3.51465 0.639648z" />
</svg>
