<?xml version="1.0" standalone="no"?>
<!DOCTYPE svg PUBLIC "-//W3C//DTD SVG 1.1//EN" "http://www.w3.org/Graphics/SVG/1.1/DTD/svg11.dtd" >
<svg xmlns="http://www.w3.org/2000/svg" xmlns:xlink="http://www.w3.org/1999/xlink" version="1.1" viewBox="-10 0 1010 1000">
   <path fill="currentColor"
d="M475.942 87.9619c0.702148 -0.893555 10.6123 -1.31738 20.7227 -1.31738c10.4922 0 21.2002 0.457031 22.0605 1.31738c0.910156 0.911133 0.650391 9.88379 -0.650391 27.8291c-1.16992 14.4336 -1.69043 26.6572 -1.2998 27.0479
c0.389648 0.389648 12.3535 -0.129883 26.3975 -1.1709c14.1748 -1.04004 26.3984 -1.69043 27.3086 -1.42969c2.4707 0.910156 2.73047 3.38086 1.42969 10.9229c-1.2998 6.76172 -0.649414 24.4473 0.911133 28.7383c1.16992 2.86133 -2.99121 6.63281 -6.37207 5.72266
c-3.78809 -0.918945 -38.9678 -3.25391 -47.6318 -3.25391c-1.15332 0 -1.83691 0.0410156 -1.91309 0.132812c-0.910156 0.780273 1.43066 34.8506 2.60059 37.5811c0.389648 1.16992 3.51074 3.25098 6.8916 4.4209c21.3271 7.93262 41.2227 28.2188 48.2451 49.1553
c3.13379 9.04492 4.84961 19.8174 4.84961 28.6211c0 3.97949 -0.350586 7.55664 -1.0791 10.3906c-1.04004 4.16113 -1.42969 7.80176 -0.910156 8.19238c0.520508 0.259766 5.85254 -1.82031 11.834 -4.81152c27.8281 -13.9141 67.6201 -30.8193 90.2471 -38.2314
c19.1152 -6.24219 43.043 -9.88281 69.4404 -10.6631c3.33203 -0.100586 6.62891 -0.150391 9.89062 -0.150391c77.0498 0 134.331 27.9932 171.384 83.6348c13.1338 19.7666 21.457 39.4023 27.0488 64.5c2.08008 9.49219 3.12109 22.8867 3.12109 36.541
s-1.04102 27.5684 -3.12109 38.1016c-8.58301 43.3027 -21.8467 76.2021 -54.6172 135.11c-24.7256 44.7207 -36.8311 74.0674 -36.8311 89.5088c0 3.23633 0.53125 5.8623 1.59082 7.89062c0.910156 1.56055 2.99121 4.55078 4.55176 6.50195
c4.81152 5.72168 4.29102 14.3037 -1.43066 24.5771c-2.86133 5.33105 -4.03125 8.84277 -3.38086 10.0127c0.649414 0.910156 4.29102 2.21094 8.0625 2.86133c10.1426 1.56055 11.0527 2.99023 10.5332 17.0352c-0.260742 6.50195 -0.911133 12.873 -1.56055 14.0439
c-0.780273 1.2998 -3.51172 2.60059 -6.63281 2.99121c-2.99023 0.389648 -5.98145 1.42969 -6.50195 2.4707c-0.649414 0.910156 -1.16992 6.24121 -1.16992 11.833c0 9.10254 0.259766 10.4033 3.25098 13.1338c3.12109 2.86133 3.25098 3.77148 3.25098 16.7754
c0 14.8242 -0.259766 15.2148 -7.67188 15.2148c-1.95117 0 -4.16211 0.649414 -5.07227 1.56055c-2.4707 2.4707 -1.82031 9.49219 1.04102 12.0928c3.25098 2.86133 3.38086 7.28223 0.259766 11.0537l-2.21094 2.73047l-31.8594 -2.60059
c-121.955 -10.333 -203.613 -13.6582 -337.42 -13.6582c-2.5918 0 -5.20215 0.000976562 -7.83398 0.00390625c-126.397 0 -180.884 2.08105 -306.241 11.7041l-43.4336 3.38086l-2.34082 -2.86133c-3.12012 -3.90039 -2.99023 -6.11133 1.1709 -12.0928
c3.25098 -4.68164 3.38086 -5.33203 1.56055 -8.45312c-1.43066 -2.73047 -3.12109 -3.64062 -7.67285 -4.16113l-5.85156 -0.650391l-0.389648 -14.0439l-0.390625 -14.0439l4.03125 -2.21094l3.90137 -2.21094v-12.6133c0 -13.7842 -0.910156 -15.3447 -8.32227 -15.3447
c-5.5918 0 -8.58301 -5.46191 -8.58301 -15.8652c0 -8.32227 0.390625 -9.3623 3.77148 -12.873c2.99023 -2.86133 5.07129 -3.77148 9.10254 -3.77148c4.4209 0 9.23242 -2.4707 9.23242 -4.68164c0 -1.43066 -3.25098 -6.63184 -6.8916 -11.1836
c-4.81152 -5.98145 -5.33203 -14.4336 -1.43066 -19.8955c6.24219 -8.97266 7.02246 -10.6631 7.02246 -16.3848c0 -9.2334 -8.97266 -34.7207 -19.5059 -55.7871c-2.86133 -5.72168 -10.6631 -20.1562 -17.4258 -32.25
c-31.0791 -55.6562 -44.7334 -89.0762 -53.7061 -131.599c-2.99023 -14.3047 -3.51074 -19.2461 -3.51074 -40.9629c0 -20.5459 0.520508 -26.7881 2.86035 -37.3213c8.0625 -36.8008 24.4482 -66.71 51.1055 -93.3682c25.2275 -25.3574 56.5674 -41.6123 94.7988 -49.2842
c17.6465 -3.48242 35.8018 -5.22363 53.9678 -5.22363c21.8604 0 43.7354 2.52148 64.7578 7.56445c18.5957 4.4209 60.7285 20.9365 97.3994 38.1016c7.67188 3.64062 14.4346 6.37109 14.6943 5.98145c0.389648 -0.390625 0.129883 -3.25098 -0.520508 -6.37207
c-0.90625 -3.91992 -1.33789 -8.18555 -1.33789 -12.6387c0 -19.1826 8 -41.8379 20.4541 -55.2412c7.41211 -7.93262 18.8555 -15.6055 29.1289 -19.2461c9.10254 -3.38086 9.49219 -4.4209 10.793 -27.5684l0.780273 -15.2148l-7.54297 0.130859
c-4.16113 0 -15.9941 0.779297 -26.3975 1.69043c-10.5332 0.910156 -19.376 1.16992 -20.1562 0.519531c-0.860352 -0.794922 -1.31738 -12.1104 -1.31738 -23.1123c0 -10.6016 0.423828 -20.9121 1.31738 -21.2305c0.650391 -0.390625 12.874 0.259766 27.0479 1.42969
c14.0449 1.04102 26.0078 1.56055 26.5283 1.1709c0.390625 -0.520508 -0.129883 -12.7441 -1.2998 -27.1787c-1.04102 -14.5635 -1.43066 -27.0479 -0.911133 -27.6982zM278.934 343.619c-18.5322 -3.10449 -35.8398 -4.7793 -48.7725 -4.7793
c-4.94336 0 -9.24805 0.244141 -12.7363 0.748047c-38.6211 5.46191 -67.8799 27.0479 -83.3545 61.5088c-9.05859 20.1758 -13.7363 44.9404 -13.7363 70.5957c0 14.8564 1.56836 30.0127 4.76367 44.748c1.43066 6.7627 7.80176 26.9189 14.0439 44.8643
c6.24219 17.8154 18.8555 54.4863 27.959 81.2744c9.10254 26.7881 18.2051 52.4053 20.1553 56.6963c1.95117 4.42188 6.89258 11.5742 10.7939 15.8652c7.28223 7.93262 11.3135 14.1738 11.3135 17.5547c0 1.04102 -1.69141 6.1123 -3.90137 11.0537
c-4.55176 10.793 -4.81152 12.7441 -1.30078 14.5645c0.533203 0.289062 2.85059 0.414062 6.33887 0.414062c16.9326 0 61.4658 -2.95801 63.6221 -4.5752c2.08105 -1.82031 1.04004 -5.20215 -4.4209 -14.3047c-5.85156 -9.75293 -5.72168 -13.9141 0.910156 -24.9678
c6.07422 -10.0479 8.86133 -16.5498 8.86133 -24.668c0 -5.95996 -1.50293 -12.791 -4.31055 -22.5361c-7.41211 -25.3574 -11.7031 -34.9805 -39.9219 -90.1162c-22.2363 -43.3037 -28.8682 -66.3203 -28.8682 -99.4805c0 -14.3037 0.519531 -20.6758 2.73047 -29.6484
c10.6631 -43.4336 40.5723 -76.8535 84.5254 -94.6689c5.85156 -2.34082 10.2734 -4.68066 9.75293 -5.20117c-0.650391 -0.520508 -11.5732 -2.73047 -24.4473 -4.94141zM794.278 343.359c-8.13672 -1.98535 -27.8574 -3.43945 -42.292 -3.43945
c-4.4834 0 -8.45605 0.139648 -11.4141 0.448242c-9.49316 1.04004 -42.9131 7.28223 -43.9531 8.19238c-0.520508 0.520508 4.03125 2.86035 10.2725 5.20117c49.8057 18.9863 83.7451 53.7061 92.1982 94.4082c1.23535 5.98242 1.85352 10.0137 1.85352 14.7754
c0 4.76367 -0.618164 10.2578 -1.85352 19.165c-5.20215 37.1914 -11.834 54.3564 -45.5137 118.206c-14.6943 28.0879 -23.1475 47.9844 -29.2588 69.5703c-2.42578 8.46289 -3.68945 14.8926 -3.68945 20.5488c0 7.98828 2.52148 14.4336 7.85059 22.8848
c3.25098 5.07129 4.29102 8.19238 4.68164 14.6943c0.519531 7.67188 0.259766 8.58203 -4.16113 15.084c-4.68164 6.7627 -5.72168 10.5332 -3.38086 11.9639c1.04004 0.650391 12.3535 1.56055 60.5977 5.07129c6.37207 0.520508 9.88281 0.259766 11.4434 -0.910156
c2.08105 -1.56055 2.08105 -2.08105 -0.389648 -9.3623c-2.24805 -6.79785 -3.54883 -10.9951 -3.54883 -14.5156c0 -5.03418 2.65918 -8.68262 9.00977 -16.5645c8.45312 -10.5332 8.19238 -10.0127 28.3486 -68.0098c8.45312 -24.5781 21.8467 -61.8984 29.7793 -83.2256
c19.376 -51.4951 21.3262 -59.9473 21.4561 -92.7178c0 -19.8955 -0.519531 -27.6982 -2.34082 -36.1504c-11.3135 -51.2354 -40.9619 -84.1357 -85.6953 -95.3184zM417.425 396.024c-5.72461 -1.01074 -20.1719 -1.63867 -31.376 -1.63867
c-6.10156 0 -11.2412 0.186523 -13.4873 0.598633c-1.43066 0.259766 -5.85156 1.16992 -9.75293 1.9502c-18.0752 3.38184 -42.5225 13.6543 -58.3877 24.4473c-9.88281 6.7627 -21.1963 19.2461 -25.3574 27.959c-4.78711 10.0898 -7.28711 20.2812 -7.28711 32.1211
c0 20.9668 7.8418 47.1025 24.7129 86.9941c5.72168 13.6543 11.9629 28.7393 13.6533 33.29c7.02246 18.7256 20.6768 66.3203 24.708 86.0859c1.04004 4.94141 8.19238 12.7441 18.0752 19.7666c8.97266 6.37109 11.5732 10.4023 11.7031 17.8145
c0.130859 5.07227 -0.649414 7.41309 -4.16113 12.2236c-4.29102 5.98242 -4.29102 6.1123 -2.34082 10.1436l2.21094 4.03125h34.7207c19.1152 0 40.4424 -0.390625 47.4639 -0.910156c11.9639 -0.780273 13.0039 -1.04004 14.3047 -3.90137
c1.16992 -2.60059 0.520508 -5.33203 -4.16113 -16.6445c-4.23828 -10.415 -6.21387 -15.9893 -6.21387 -20.252c0 -3.45508 1.29785 -6.04785 3.74316 -9.65723c2.4707 -3.6416 5.20117 -8.58301 5.98145 -11.0537c2.08105 -6.50195 9.62305 -71.3916 9.75293 -84.5254
l0.259766 -11.0527l-8.45215 -0.390625c-0.854492 -0.046875 -1.83301 -0.0703125 -2.93848 -0.0703125c-11.1787 0 -35.4297 2.41797 -77.5557 7.74316c-16.1777 2.00977 -25.9424 2.96289 -30.333 2.96289c-1.57422 0 -2.45703 -0.12207 -2.69727 -0.362305
c-0.910156 -0.910156 -0.649414 -7.41211 0.911133 -21.0664c1.11133 -9.29688 1.69629 -16.7803 1.69629 -24.2461c0 -9.1377 -0.876953 -18.25 -2.7373 -30.6309c-1.16992 -8.32227 -1.2998 -11.9629 -0.259766 -13.3936
c0.516602 -0.670898 1.40039 -1.05469 4.01074 -1.05469c3.96777 0 11.9219 0.887695 28.6289 3.00488c43.043 5.46191 67.8809 7.93262 78.6738 7.93262c8.45215 0 9.23242 -0.259766 10.6631 -3.25098c0.432617 -0.958984 0.623047 -4.52051 0.623047 -9.63379
c0 -16.3867 -1.9541 -48.6992 -4.13379 -62.2773c-2.34082 -14.4346 -3.77148 -18.0762 -10.9238 -27.4385c-2.99023 -3.90137 -5.33105 -8.45312 -5.33105 -10.2734c0 -1.69043 -1.69043 -4.68164 -3.6416 -6.76172c-4.03125 -3.90137 -9.23242 -5.72168 -24.9678 -8.58301
zM626.788 395.505c-5.9502 -0.770508 -12.2676 -1.14648 -18.71 -1.14648c-13.126 0 -26.7725 1.56152 -38.8975 4.52734c-10.5332 2.60059 -14.8242 5.72168 -15.9951 11.5732c-0.389648 2.4707 -2.86035 7.15234 -5.33105 10.4033s-5.20215 7.80176 -6.24219 10.1426
c-3.90137 9.49316 -8.97266 59.168 -8.19238 80.8848l0.390625 11.7031l8.45215 0.390625c0.791992 0.0429688 1.69922 0.0654297 2.72363 0.0654297c11.2607 0 36.6592 -2.61328 77.9004 -7.73828c15.9678 -1.99609 24.0645 -2.875 28.2002 -2.875
c2.33105 0 3.4043 0.279297 3.91992 0.794922c1.42969 1.2998 1.2998 4.16113 -0.390625 15.8643c-1.25098 9.02148 -1.90234 19.6113 -1.90234 29.96c0 10.0879 0.619141 19.9482 1.90234 27.9072c1.30078 8.0625 1.43066 13.0039 0.650391 14.5645
c-0.650391 1.30078 -1.56055 2.34082 -1.82031 2.34082c-0.390625 0 -14.8242 -1.69043 -32.25 -3.90137c-43.7432 -5.32129 -67.9688 -7.76465 -79.3594 -7.76465c-5.03223 0 -7.55957 0.476562 -8.15723 1.39355c-0.460938 0.806641 -0.694336 2.875 -0.694336 6.26465
c0 8.07812 1.32812 23.6621 4.07617 47.5713c2.20996 18.5957 4.29102 35.6309 4.55078 37.8408c0.390625 2.08105 3.25098 7.93262 6.50195 12.874c3.90137 5.85156 5.85156 10.2734 5.85156 13.1338c0 2.4707 -2.60059 9.36328 -6.50195 16.9053
c-6.76172 13.1338 -7.67188 17.4258 -4.81152 19.7656c1.79297 1.49512 57.623 3.29492 85.1035 3.29492c8.38867 0 14.1357 -0.167969 14.8965 -0.563477c3.38184 -1.82031 2.86133 -5.85156 -1.55957 -11.4434c-3.33887 -4.10547 -5.00195 -8.35156 -5.00195 -12.6953
c0 -8.17676 5.89551 -16.6992 17.6152 -25.2764c8.45215 -6.37207 10.4033 -9.88281 14.3047 -27.1777c7.54199 -33.4209 19.2451 -69.3115 33.4199 -102.602c14.1738 -32.8994 18.335 -44.4727 22.3662 -60.5977c2.67773 -10.9941 4.02637 -21.1025 4.02637 -30.3887
c0 -20.4775 -6.55957 -36.9541 -19.8906 -50.1055c-17.8154 -17.5557 -50.0654 -31.8594 -81.1445 -35.8906zM455.137 785.491c-4.16113 -2.86035 -9.88281 -3.77051 -15.085 -2.34082c-6.99316 1.94727 -10.7881 8.84961 -10.7881 15.6338
c0 5.45312 2.45215 10.8301 7.66699 13.4951c2.66797 1.37305 5.38184 1.99219 7.98047 1.99219c8.7041 0 16.1064 -6.95215 16.1064 -15.8379c0 -1.7793 -0.296875 -3.63574 -0.939453 -5.53027c-0.910156 -2.86035 -3.12109 -6.11133 -4.94141 -7.41211zM507.152 783.671
c-2.08105 -1.04004 -5.98242 -1.9502 -8.71289 -1.9502c-9.48535 0 -15.6436 7.02832 -15.6436 14.9814c0 3.49609 1.18945 7.1709 3.81055 10.5059c3.47266 4.38672 8.00586 6.34863 12.4248 6.34863c8.15527 0 15.9229 -6.68359 15.9229 -17.1416
c0 -5.85156 -2.60059 -10.0137 -7.80176 -12.7441zM561.898 784.711c-5.46191 -3.64062 -11.1836 -3.77051 -16.7744 -0.389648c-7.28223 4.4209 -10.4033 16.7754 -5.98242 23.1465c3.12305 4.46094 8.03809 6.5791 13.0049 6.5791
c6.61523 0 13.3203 -3.75781 15.9941 -10.7402c2.60059 -6.76172 0 -14.4336 -6.24219 -18.5957zM397.27 784.842c-2.4707 -1.04102 -5.46191 -1.82129 -6.7627 -1.82129c-4.16113 0.129883 -10.5332 3.6416 -12.7432 6.89258
c-2.01953 3.09863 -2.90918 6.31445 -2.90918 9.37988c0 8.79395 7.31836 16.3516 16.2822 16.3516c2.60254 0 5.34277 -0.636719 8.08301 -2.06445c5.13281 -2.65723 7.60254 -7.97852 7.60254 -13.4111c0 -6.2666 -3.28418 -12.6807 -9.55273 -15.3271zM619.376 788.223
c-3.00293 -3.33594 -6.96875 -4.81348 -10.9668 -4.81348c-8.4248 0 -16.9932 6.56055 -16.9932 16.1104c0 9.52246 7.375 16.043 15.7471 16.043c2.59863 0 5.30078 -0.625977 7.92188 -1.98242c8.32227 -4.29102 10.6631 -18.2051 4.29102 -25.3574zM344.083 786.401
c-5.5918 -2.60059 -9.3623 -2.60059 -14.8242 0.130859c-5.54297 2.67383 -8.30664 8.4209 -8.30664 14.2256c0 5.76953 2.73145 11.5957 8.17676 14.5127c1.82031 0.910156 5.5918 1.43066 8.97266 1.04004c7.93262 -0.780273 14.3037 -7.41211 14.3037 -15.084
c0 -7.15234 -2.86035 -12.2236 -8.32227 -14.8252zM670.741 787.962c-3.10938 -2.02148 -6.48633 -2.9502 -9.73535 -2.9502c-8.20117 0 -15.7773 5.88379 -15.7773 15.5166c0 9.33691 7.82227 16.3633 16.417 16.3633c2.72559 0 5.5293 -0.707031 8.18555 -2.27148
c4.92871 -2.90332 7.43848 -8.36523 7.43848 -13.7842c0 -5.01758 -2.15234 -9.99805 -6.52832 -12.874zM289.467 789.393c-5.98145 -2.73047 -6.24219 -2.73047 -11.9639 -1.04004c-6.8916 1.9502 -10.2725 6.8916 -10.2725 15.084
c0 6.50195 0.389648 7.41309 4.81152 11.5742c4.03125 3.64062 5.98145 4.4209 10.6631 4.4209c6.37207 0 11.3135 -3.12109 14.4336 -9.10254c4.03125 -7.93262 0.650391 -17.165 -7.67188 -20.9365zM723.927 790.433
c-3.02051 -1.43066 -6.01074 -2.09961 -8.80566 -2.09961c-8.6416 0 -15.5117 6.43262 -15.5117 16.54c0 9.33398 8.62109 15.4326 16.8037 15.4326c4.61621 0 9.09375 -1.94043 11.8057 -6.33594c5.72168 -9.49219 3.90137 -19.6357 -4.29199 -23.5371zM233.03 790.823
c-5.5918 -1.56055 -5.20215 -1.56055 -9.36328 0.129883c-8.32227 3.38086 -13.0039 12.2236 -10.4033 20.0264c2.21094 6.8916 8.0625 11.0527 15.4746 11.0527c7.15234 0 11.4434 -2.60059 13.9141 -8.58203c4.29199 -10.1436 0.130859 -19.8965 -9.62207 -22.627z
M775.553 792.644c-2.4707 -1.04004 -5.33203 -1.82031 -6.63184 -1.82031c-4.42188 0 -11.3135 4.81152 -13.7842 9.49316c-1.30078 2.48047 -1.89746 5.05176 -1.89746 7.53809c0 8.20312 6.5 15.4785 15.6816 15.4785c10.4707 0 16.5586 -8.10156 16.5586 -16.2197
c0 -5.79492 -3.10254 -11.5986 -9.92676 -14.4697zM181.925 795.244c-7.02246 -3.51074 -16.9053 -1.16992 -20.6768 5.07227c-1.88086 3.07324 -2.70996 6.22852 -2.70996 9.22656c0 8.85352 7.22559 16.3418 15.8955 16.3418
c2.80176 0 5.75391 -0.782227 8.66113 -2.55176c4.97949 -3.0498 7.42676 -8.30566 7.42676 -13.583c0 -5.74805 -2.90234 -11.5234 -8.59668 -14.5059zM835.11 799.536c-7.15234 -7.15234 -20.2861 -5.5918 -25.3574 2.86035
c-4.55176 7.67285 -1.30078 18.5957 6.76172 22.8867c2.47656 1.26855 4.93359 1.83203 7.27246 1.83203c8.84961 0 15.9941 -8.07617 15.9941 -16.6201c0 -3.78125 -1.39941 -7.6543 -4.6709 -10.959zM579.974 845.439
c-29.8174 -0.664062 -59.8447 -0.993164 -90.04 -0.993164c-76.2061 0 -153.48 2.09668 -231.156 6.19434c-53.3154 2.86133 -104.681 6.7627 -106.241 8.0625c-2.21094 1.82129 -2.08105 8.71289 0.129883 9.62305
c0.164062 0.0615234 0.731445 0.0908203 1.65137 0.0908203c4.91406 0 19.8809 -0.835938 36.9697 -2.04102c37.7119 -2.73145 85.4355 -5.5918 137.712 -8.0625c29.4424 -1.39062 109.909 -2.21484 179.743 -2.21484c41.2031 0 78.7051 0.287109 99.8408 0.914062
c74.9023 2.34082 126.918 5.07227 201.43 10.6631c17.8633 1.35352 26.8193 2.00293 31.5391 2.00293c4.35059 0 5.10156 -0.551758 5.91211 -1.6123c1.95117 -2.60059 2.21094 -7.80273 0.520508 -8.84277c-1.43066 -0.910156 -61.1182 -5.33203 -108.062 -7.80273
c-55.2666 -3.12012 -96.8789 -4.68066 -159.948 -5.98145z" />
</svg>
