<?xml version="1.0" standalone="no"?>
<!DOCTYPE svg PUBLIC "-//W3C//DTD SVG 1.1//EN" "http://www.w3.org/Graphics/SVG/1.1/DTD/svg11.dtd" >
<svg xmlns="http://www.w3.org/2000/svg" xmlns:xlink="http://www.w3.org/1999/xlink" version="1.1" viewBox="-10 0 1010 1000">
   <path fill="currentColor"
d="M484.162 101.202l15.9102 -47.7275l8.83691 26.1621c5.30371 15.9082 12.374 29.3438 17.6768 33.9395c7.07129 6.36328 8.13184 8.83789 4.9502 14.8486c-8.13184 14.4951 -2.12207 20.5049 24.7471 25.1006l25.1006 4.24316l21.5664 -13.7891
c32.5254 -21.2119 56.5654 -31.1113 97.5762 -39.2422c38.8877 -8.13184 64.3438 -7.77832 89.0898 0.707031c38.8896 13.7871 66.1113 49.4951 69.293 90.8594c1.76758 27.9277 -3.18164 48.4336 -24.3926 97.9287l-14.4951 33.2324l7.42383 9.19141
c9.19141 11.667 9.54492 26.5146 0.707031 37.1221c-5.30273 6.36328 -5.65625 9.89844 -2.8291 19.4443c5.73438 17.8379 13.5254 4.64355 26.8701 11.3125c6.36328 4.24219 2.12012 22.627 -7.07129 31.1113c-3.53613 3.18262 -6.71777 9.5459 -6.71777 13.4336
c0 6.71777 6.71777 9.89941 53.0303 25.1016c29.3438 9.5459 53.0312 18.3838 53.0312 19.4453c0 1.47559 -101.98 35.041 -102.525 35.3535c-2.12207 1.41406 -7.07129 17.3223 -10.6064 35.707c-6.7168 31.1104 -6.7168 33.9395 -1.41406 46.3125
c4.94922 10.959 5.30273 14.8486 1.76758 23.334c-4.24219 9.89746 -16.6152 18.3828 -26.5146 18.3828c-2.47559 0 -12.0205 11.667 -21.2129 25.4541l-16.9697 25.8086c17.9746 35.8809 35.8867 71.8242 53.7373 107.829
c-36.0029 -17.8525 -71.9463 -35.7637 -107.828 -53.7383l-27.2217 18.7373c-17.6768 12.0205 -27.5762 20.8584 -27.5762 25.1016c0 9.19141 -15.9082 24.04 -25.4541 24.04c-4.59668 -0.353516 -12.0205 -2.47461 -16.6162 -4.94922
c-12.7686 -7.02344 -50.4072 5.92676 -63.6367 8.13086l-15.5557 2.12207l-18.3838 54.7979c-9.89941 29.6963 -19.0908 53.0303 -20.1514 51.2627c-1.06055 -2.12207 -9.54492 -26.1621 -18.3838 -54.0918c-14.1416 -42.0693 -18.0303 -50.5547 -24.3945 -51.6162
c-4.24219 -0.706055 -21.2119 -4.5957 -37.8271 -8.48438c-25.4551 -6.01074 -30.7578 -6.36328 -35.707 -2.12109c-16.9707 14.8486 -45.6064 4.5957 -45.6064 -16.2627c0 -8.83789 -3.53613 -12.7275 -24.04 -25.8076
c-18.7383 -12.0215 -24.041 -14.1416 -24.748 -9.89941c-0.707031 3.18164 -6.00977 17.3232 -12.0195 31.4648c-8.83887 20.5049 -14.4951 28.6357 -26.8701 38.1816c-8.48438 6.36328 -20.8584 12.7275 -27.2217 14.1416
c-7.42383 1.41309 -12.7275 4.94922 -15.2021 10.6064c-4.5957 9.89844 -35.3535 26.1611 -43.8379 22.9795c-8.83887 -3.18262 -24.04 -25.1016 -24.04 -34.6465c0 -10.6055 7.42383 -25.4541 17.3232 -34.293c6.36328 -6.00977 7.42383 -9.5459 5.30273 -21.9189
c-4.24316 -29.6973 11.3135 -50.9102 49.8486 -67.1729c22.2725 -9.19141 22.2725 -16.9688 1.76758 -48.4336c-10.2529 -14.8477 -20.5059 -27.2227 -22.9795 -27.2227c-24.041 0 -37.8291 -30.4033 -21.5664 -47.0205c3.88965 -3.8877 3.53516 -8.83789 -1.76758 -28.9893
c-3.53613 -13.7871 -6.36328 -28.9902 -6.36328 -33.9395c-0.354492 -5.30273 -2.47461 -10.96 -4.59668 -12.7275c-3.03906 -2.60547 -95.8271 -33.3848 -99.6963 -35.707c-2.12109 -1.06055 19.4443 -9.54492 47.373 -19.0908
c27.9297 -9.19141 51.9697 -18.7363 53.7373 -21.2119c1.41406 -2.47461 2.82812 -8.83789 2.82812 -13.7871c0 -4.9502 2.8291 -20.1523 6.71777 -34.2939c6.36328 -24.7471 6.36328 -25.4541 0 -31.1113c-16.8223 -15.1396 -0.446289 -50.0957 20.1514 -46.666
c6.01074 0.707031 11.667 -4.9502 27.5762 -28.2822l19.7969 -29.3438c-16.5586 -32.8184 -33.0576 -65.6963 -49.4941 -98.6367c33.3555 16.4932 66.5889 33.1084 99.6963 49.8486l26.1621 -16.9707c21.9199 -14.1406 26.1621 -18.3828 26.1621 -26.8682
c0 -19.7979 27.5752 -31.8174 42.7773 -18.0303c5.65723 4.94922 8.83887 4.94922 39.2422 -1.76758c18.0303 -3.88867 36.7676 -7.77734 41.3643 -8.13184c7.77832 -1.05957 10.252 -6.00977 24.3936 -48.7871zM790.324 115.697
c-26.5156 -9.89941 -64.3438 -9.54492 -106.061 1.41406c-36.7686 9.19141 -43.1318 12.373 -87.6768 40.6572c-41.0107 26.1602 -55.1523 31.4639 -67.1729 25.1006c-14.1406 -7.77832 -18.0293 -21.9189 -11.3125 -41.3633
c13.6211 -39.3545 -9.54004 -11.2529 -32.5244 19.7969c-10.6064 14.4951 -27.2236 34.6465 -37.4756 44.1924c-9.89844 9.89941 -34.6465 36.0605 -55.1514 58.333c-114.545 124.799 -134.344 156.97 -129.748 211.061c3.18164 41.3643 44.1924 106.768 70.707 112.777
c8.48535 2.12207 10.2529 0.708008 16.6162 -13.0801l7.07129 -15.5557l-9.19141 -7.07031c-34.293 -26.1621 -43.8389 -44.5459 -43.8389 -84.8486c0 -44.5449 42.4238 -105.707 149.899 -216.364l47.374 -48.7881l10.252 9.5459
c15.9082 15.2021 29.3428 13.4346 65.4043 -9.19141c48.7871 -30.7578 73.5352 -43.4854 102.171 -53.0303c72.8281 -24.3945 127.626 -10.2529 137.879 35.3535c7.07129 31.8174 1.41406 52.3232 -39.2422 133.636c-30.7578 61.5156 -36.4141 75.3037 -37.8281 94.041
c-2.12109 20.5049 -2.47559 21.5654 -6.71777 13.7871c-6.7168 -12.373 -3.18164 -24.3936 20.1514 -69.6455c20.1523 -38.5361 24.3945 -50.2021 17.6777 -50.2021c-1.76758 0 -18.7383 6.36328 -37.8291 13.7871c-51.6152 20.5049 -48.4336 20.1523 -59.3936 4.5957
c-5.30273 -7.77734 -13.0811 -17.3223 -17.6768 -21.5645l-8.13086 -7.77832l-32.8789 38.8887c-18.3848 21.5654 -33.5859 39.2422 -34.6465 39.2422c-0.707031 0 -7.4248 -6.36328 -14.8486 -14.4941c-14.8486 -16.2627 -16.6162 -16.2627 -43.4844 4.5957
c-14.4951 11.667 -25.8086 11.3125 -21.9199 -0.707031c3.18164 -9.54492 -0.706055 -20.5059 -8.48535 -24.748c-5.30176 -2.47461 -10.6055 0.354492 -28.2822 16.2627c-13.4346 12.374 -21.5654 22.627 -21.5654 27.2227c0 9.54492 -8.48438 19.7979 -24.7471 30.7578
c-30.4053 20.5049 -50.9102 41.0098 -58.6875 58.6865c-4.5957 10.252 -13.0811 21.9189 -18.7373 26.1611c-18.3838 12.7285 -20.1514 20.1523 -8.48438 32.5254c12.373 13.4346 32.1709 23.6875 59.3936 31.1113c15.2021 4.24219 21.5654 7.77734 22.626 12.7275
c1.06055 5.65625 0.353516 6.00977 -4.5957 1.41406c-9.22656 -6.45801 -19.6787 -5.7334 -32.8789 -8.83789c-10.6055 -2.47559 -12.0195 -1.41406 -17.6768 8.83789c-3.53613 6.36328 -11.667 20.1514 -17.6768 30.7568c-6.36328 10.96 -11.667 21.2129 -11.667 22.9805
s5.30371 5.30371 12.0205 8.13086c6.71777 2.82812 13.0811 8.48535 14.4951 12.374c2.82812 8.83887 13.0811 9.19238 18.3838 0.353516c2.47461 -3.88867 14.1416 -13.7871 25.8086 -21.5664c16.6152 -11.3125 21.2109 -16.2617 19.0908 -20.5039
c-3.53613 -8.83789 -6.01074 -25.4551 -3.53613 -25.4551c1.06055 0 4.9502 5.30371 8.13184 12.0215c15.4062 29.3662 55.7979 65.7705 100.05 61.1611c26.1621 -2.12207 53.0303 -15.5566 86.2637 -42.7783c37.4736 -30.4043 63.6357 -59.3936 124.797 -138.939
c9.19238 -12.373 17.6768 -20.5049 18.0303 -18.7373c1.76855 5.30273 -5.30273 15.9092 -46.666 68.9395c-76.3643 98.6367 -139.647 146.717 -193.737 146.717c-25.0273 0 -59.2061 -24.1553 -72.8281 -38.5352l-11.3135 -12.373l-12.373 6.36328
c-7.4248 4.24219 -12.375 9.5459 -12.375 13.4336c0 11.667 33.5869 43.4863 57.627 54.4453c19.4443 9.19141 25.8086 10.252 57.2725 10.252c27.9297 0 39.2422 -1.7666 54.0918 -7.77734c45.959 -18.7373 103.586 -72.1211 181.362 -167.222
c26.1621 -31.8193 56.9199 -68.5869 68.9404 -81.3135c11.667 -12.7275 22.2725 -25.8086 23.6865 -28.9902c3.53516 -10.2529 -3.53613 -10.6055 -18.3838 -1.06055c-7.77832 5.30273 -20.5059 10.252 -28.2832 11.3135
c-13.0811 1.76758 -14.4951 1.06055 -18.0303 -7.4248c-6.71777 -18.0303 -3.53516 -29.6963 22.2725 -82.7266c27.9297 -56.9199 48.4346 -112.778 48.4346 -132.224c0 -38.1807 -27.2227 -78.1299 -62.2217 -90.8574zM781.133 153.879
c-18.0312 -9.19141 -39.2432 -10.959 -64.6973 -5.30371c-27.5762 6.36426 -43.8389 13.7891 -95.8086 43.4854c-23.6865 13.4346 -52.6768 27.2217 -64.3438 30.7578c-21.2119 6.7168 -21.5654 6.7168 -36.0605 -1.06055
c-7.77734 -3.88965 -14.8486 -7.42383 -15.5547 -7.42383c-2.82812 0 -108.183 114.545 -108.183 117.373c0 1.41406 5.30273 2.82812 11.667 2.82812c6.00977 0 19.7979 2.47559 30.4043 5.30371c19.0908 4.94922 19.0908 4.94922 34.292 -5.65723l15.5566 -10.6055
l16.2627 12.7266c9.19141 6.71777 18.3828 12.374 20.5039 12.374c2.47559 0 9.5459 -3.88867 15.9092 -8.48438c12.375 -9.19238 18.7383 -8.83887 31.1113 2.12012c9.89941 9.19336 15.9092 5.65723 40.3037 -22.626c10.6055 -12.373 21.5654 -24.04 24.3936 -26.5146
c10.6055 -8.83887 20.5049 -4.94922 35.707 13.0811c8.13184 9.54492 17.3232 17.6768 20.1514 17.6768c8.35254 0 67.4248 -20.8457 76.0098 -21.9199c8.48535 -1.06055 11.667 -5.65625 27.5762 -38.1816c16.6162 -34.999 17.6768 -38.5352 16.6162 -60.8076
c-1.41406 -26.5156 -8.13086 -36.7686 -31.8174 -49.1416zM421.94 345.142c-26.875 0 -25.623 -13.0283 -45.6064 8.13184c-48.0811 50.5547 -73.5352 105.706 -62.5762 134.696c3.18262 8.48535 7.42383 7.07129 26.1621 -8.83789
c13.4336 -11.3135 17.6768 -17.6768 19.4443 -28.2832c2.47461 -15.2021 12.0195 -24.041 40.6572 -38.1816c21.9189 -10.96 31.8174 -21.2119 31.4639 -31.8193c0 -4.94824 0.708008 -15.2012 2.12207 -22.626l2.82715 -13.0801h-14.4941zM330.375 642.465
c-4.24316 -2.12109 -10.6064 -3.88867 -14.1426 -3.88867c-9.54492 0.353516 -25.8076 10.2529 -25.8076 15.9082c0 2.82812 4.24316 7.42383 9.89844 10.2529c10.96 6.00977 32.1719 25.4551 38.5352 35.708c4.24316 7.06934 4.24316 7.06934 9.89941 0.352539
c2.8291 -4.24219 5.30371 -14.1416 5.30371 -23.333c0 -16.9707 -6.00977 -25.8086 -23.6865 -35zM326.132 699.384c-7.69922 -11.5459 -19.4883 -23.0479 -32.5254 -28.6367c-8.83789 -3.18164 -9.89844 -2.47363 -15.5557 10.6064
c-3.53516 7.4248 -11.667 17.6777 -18.0303 22.626c-6.36328 4.94922 -12.7266 12.0205 -13.7871 15.9102c-1.06152 3.8877 -4.5957 7.06934 -7.4248 7.06934c-9.5459 0 -53.7363 24.3945 -61.1621 33.9395c-5.30176 6.71777 -7.42383 14.4951 -7.42383 26.8701
c0 34.2295 29.1484 72.4287 71.0605 45.959c13.0811 -8.48535 17.3232 -14.4951 27.5762 -37.4756l12.0195 -27.2217l-7.77734 -10.252c-5.30371 -7.4248 -6.00977 -9.89941 -2.12109 -8.48535c3.53516 1.41406 11.666 -3.53516 22.626 -13.7881
c9.19238 -8.83789 21.9199 -18.3838 28.2832 -21.5654l11.3135 -6.01074zM188.254 837.616c-24.041 -20.5059 -23.6875 -20.5059 -34.6475 -4.24316l-9.54492 14.4951l6.7168 12.7275c9.5459 16.9697 19.4443 20.1514 33.9395 10.2529
c20.5049 -13.7881 20.8584 -18.3838 3.53613 -33.2324z" />
</svg>
