<?xml version="1.0" standalone="no"?>
<!DOCTYPE svg PUBLIC "-//W3C//DTD SVG 1.1//EN" "http://www.w3.org/Graphics/SVG/1.1/DTD/svg11.dtd" >
<svg xmlns="http://www.w3.org/2000/svg" xmlns:xlink="http://www.w3.org/1999/xlink" version="1.1" viewBox="-10 0 1010 1000">
   <path fill="currentColor"
d="M467.72 28.2168c38 -6.33301 86.1328 2.2168 124.449 22.167c29.4502 15.5166 75.0508 59.8496 93.1006 91.2002c43.7002 75.6826 55.7324 164.982 34.2002 250.8c-16.7842 66.1826 -57.3174 129.517 -102.918 160.232
c-7.91602 5.38379 -14.8828 10.1338 -15.5156 10.4502c-0.633789 0.633789 1.89941 4.75 5.69922 9.5c19 24.3838 -3.4834 61.4336 -34.833 57.3174c-10.1328 -1.26758 -12.0332 -0.317383 -15.2002 6.0166c-2.84961 6.33301 -2.5332 8.2334 1.26758 9.5
c6.96582 2.84961 5.69922 8.5498 -2.85059 16.7832c-4.11719 4.11621 -23.4336 13.7861 -23.4336 23.4326v145.034c12.0332 21.2158 25.6504 41.7998 23.4336 55.0996c-3.33887 15.0264 -41.7568 63.5303 -49.083 75.3662v12.0342l-13.6172 -10.4502
c-3.4834 -5.7002 -15.833 -23.1162 -27.5498 -38.9502c-20.8994 -28.1836 -20.8994 -28.1836 -20.8994 -49.084c0.316406 -17.7324 1.89941 -23.75 12.3496 -43.3828l12.3496 -22.7998v-53.2002c-1.58398 -56.3672 -6.0166 -68.3994 -19.6328 -86.4492
c-13.6172 -17.418 -14.25 -19 -8.23438 -23.4336c4.75 -3.16699 5.06738 -5.06641 1.90039 -11.084c-3.16602 -5.7002 -5.7002 -6.65039 -14.25 -4.75c-23.2461 4.3252 -54.793 -25.1689 -36.7324 -54.7832v-21.2168c-36.417 -26.916 -78.8506 -69.666 -98.168 -115.267
c-18.3662 -43.3838 -23.75 -72.2002 -23.4326 -130.466c0.316406 -46.2344 1.2666 -55.7344 8.5498 -83.918c27.5508 -102.6 103.551 -181.449 189.051 -195.699zM502.552 59.5664c-18.6826 -1.90039 -57 5.7002 -57 11.4004c0 6.0166 31.0342 43.0664 67.7676 81.0664
c20.583 21.2168 38 38.3164 38.6328 37.6836c0.633789 -0.632812 -3.48242 -12.3506 -8.86621 -26.2832c-8.5498 -21.8496 -9.81641 -30.084 -11.4004 -63.9668v-38.6328c-4.43359 0 -23.1162 -0.633789 -29.1338 -1.26758zM567.47 74.7666
c-27.8672 -13.2998 -28.1836 -12.9834 -25.6504 26.2832c1.90039 28.5 4.11621 38.9502 14.5664 67.1338c17.1084 44.3252 16.6162 42.9229 57.9502 63.9668c45.1572 23.0479 28.9014 11.6533 61.4336 3.16602h13.6162v-28.8164
c-21.5332 -59.8496 -73.1504 -108.934 -121.916 -131.733zM557.336 208.084c-40.4512 -33.5576 -87.4648 -85.0342 -118.116 -124.45v-10.1338h-23.75c-59.8506 34.833 -103.551 120.65 -111.15 204.25v23.75h11.7168c7.59961 -0.949219 32.6162 -5.38379 55.0996 -7.91602
h41.166l158.243 -76.3076zM696.036 269.834c-2.2168 -12.9844 -4.75 -24.7002 -6.0166 -25.6504c-2.85059 -2.5332 -14.8838 0.950195 -27.5498 7.59961c-15.5176 7.91699 -25.6504 20.583 -48.4502 60.8008l-10.7676 19v95l25.0176 22.7998
c11.3994 12.666 21.8496 23.1162 23.4326 23.1162c4.75 0 31.0332 -57.9502 37.6836 -83.916c8.5498 -31.9844 11.4004 -87.4004 6.65039 -118.75zM607.052 252.416c-1.58203 -0.949219 -14.8828 -2.53223 -29.1328 -3.16602
c-25.333 -1.2666 -27.5498 -0.950195 -61.1172 12.9834c-37.0498 15.5166 -54.7822 28.8164 -67.7656 51.9326v17.7344c10.1328 4.11621 31.3496 5.69922 47.1836 5.69922c31.0322 -0.316406 54.7822 -9.5 76.9492 -29.7656
c17.7334 -16.1504 39.583 -51.9336 33.8828 -55.418zM391.72 304.033c0 -1.58301 -1.90039 -2.2168 -3.80078 -2.2168c-42.4336 4.43359 -83.2832 9.81738 -84.5498 11.084c-1.89941 1.89941 5.06641 58.2656 7.91699 66.1836
c1.89941 4.11621 10.1328 -2.53418 41.166 -33.5674c21.5332 -21.5332 39.2676 -40.2168 39.2676 -41.4834zM480.386 394.6c0 -2.35645 -83.4346 -74.0996 -86.1338 -74.0996c-6.64941 0 -75.3662 72.834 -75.3662 79.7998c0 8.86621 14.8838 42.75 27.5498 62.3838
c14.8838 23.1162 29.4502 39.9004 47.5 55.0996l14.8838 12.0332l17.7324 -37.3662c9.81738 -20.584 25.9678 -50.667 35.7842 -67.1338s18.0498 -30.083 18.0498 -30.7168zM595.97 393.967c-1.58398 -37.6836 -3.48438 -54.4668 -6.01758 -54.1504
c-7.91602 0.317383 -71.8828 27.5498 -78.2168 33.25c-19.6328 17.417 -86.7656 135.85 -88.9834 156.75c-0.950195 6.33398 1.58398 8.86719 13.2998 14.5674c19.6338 9.5 40.2178 13.6162 69.3506 13.6162c25.6494 0 63.0166 -8.86621 69.3496 -16.7832
c4.75 -5.7002 15.5176 -44.6504 19.6338 -70.3008c2.5332 -14.5664 2.84961 -40.8496 1.58398 -76.9492zM636.186 494.033v-31.3496l-28.1836 -19.9502v20.583c-1.2666 11.4004 -6.96582 31.0332 -10.4502 43.7002c-3.7998 12.9834 -6.01562 23.75 -5.38281 24.3838
c1.90039 2.21582 35.7832 -26.2842 44.0166 -37.3672z" />
</svg>
