<?xml version="1.0" standalone="no"?>
<!DOCTYPE svg PUBLIC "-//W3C//DTD SVG 1.1//EN" "http://www.w3.org/Graphics/SVG/1.1/DTD/svg11.dtd" >
<svg xmlns="http://www.w3.org/2000/svg" xmlns:xlink="http://www.w3.org/1999/xlink" version="1.1" viewBox="-10 0 1010 1000">
   <path fill="currentColor"
d="M228.333 170c20.6807 0 38.334 16.6738 38.334 37c0 14 0.333008 14.333 105.333 119.667l105 105.666l20.667 2.33398l20.666 2l132.334 -133.334c95 -96 136 -135.333 146.666 -140c9.32324 -4.39258 19.8271 -6.49512 30.8779 -6.49512
c30.0391 0 64.1123 15.5352 89.4561 42.8291c24.3965 26.6143 36.9873 54.5576 36.9873 81.2754c0 13.4375 -3.18457 26.5645 -9.6543 39.0576c-6.66699 13.667 -156.667 165.667 -166 168.667c-7 2.33301 -19 -7 -19 -15c0 -2.66699 35.667 -41 79.667 -85.334
c43.666 -44 81.333 -83.333 83.333 -87.333c2.39062 -4.68652 3.54688 -10.4707 3.54688 -16.9346c0 -16.0664 -7.14062 -36.334 -20.2139 -54.3984c-11.333 -16 -38.666 -35.667 -57.333 -41.334c-7.55078 -2.26562 -13.0146 -4.29102 -18.7363 -4.29102
c-19.5361 0 -42.0742 23.6172 -160.931 141.958c-122 121.667 -139.333 140 -139.333 149c0 8.66699 15.333 25.333 119 129c117.333 117.333 119.667 119.333 132.667 119.333c15.666 0 26.333 6.33398 33.333 20c3.22754 6.21973 4.70801 12.6621 4.70801 18.876
c0 20.0947 -15.4785 37.791 -37.375 37.791c-24.5625 0 -41.3184 -16.6895 -41.3184 -39.4238c0 -2.56445 0.212891 -5.20605 0.652344 -7.90918l2.33301 -13.667l-229 -229h-29.667c-92.4189 91.9141 -184.754 183.913 -277 276l-19 4
c-7.52637 1.70996 -13.4717 2.54297 -19.5049 2.54297c-5.72363 0 -11.5254 -0.749023 -18.8281 -2.20996c-53.333 -10.666 -104.333 -68.666 -105.333 -119.666c-0.0419922 -2.25391 -0.0732422 -4.37695 -0.0732422 -6.39844
c0 -29.9854 6.92383 -37.8076 88.7393 -119.936c44.334 -44.666 83 -82 86.667 -83c7 -2.33301 19 7 19 15c0 2.66699 -35.667 41 -79.667 85.334c-43.666 44 -81.333 83.333 -83.333 87.333c-2.54199 4.97168 -3.72461 10.7275 -3.72461 16.957
c0 30.5303 28.4014 72.4326 64.3916 89.043c11.2988 5.44824 24.0635 8.20898 35.041 8.20898c7.1582 0 13.5557 -1.17383 18.292 -3.54199c4 -2 65.333 -61.667 136.333 -132.334l128.667 -128.333c-1.11133 -16.8887 -2.22266 -33.7773 -3.33301 -50.667
c-67 -67.2217 -134 -134.443 -201 -201.666h-19.334c-18 0 -20.666 -1 -31 -11.334c-9.66602 -9.66602 -11.333 -13.666 -11.333 -27c0 -21.4902 16.8857 -38.333 38.333 -38.333z" />
</svg>
