<?xml version="1.0" standalone="no"?>
<!DOCTYPE svg PUBLIC "-//W3C//DTD SVG 1.1//EN" "http://www.w3.org/Graphics/SVG/1.1/DTD/svg11.dtd" >
<svg xmlns="http://www.w3.org/2000/svg" xmlns:xlink="http://www.w3.org/1999/xlink" version="1.1" viewBox="-10 0 1010 1000">
   <path fill="currentColor"
d="M455.601 247.667c14.332 -2.66699 36.333 -4.00098 56.666 -3c67 3 113.333 23.333 160.333 70c25 24.666 33 35.333 45.667 60.999c8.33301 17.001 17.333 40.001 19.667 50.667c1.99902 11 4.99902 20 6.33301 20c1.33301 0 23 -19.333 48.333 -42.999l46.333 -43.334
l61.667 -24c34 -13 66.1338 -23.3838 68.4668 -24.0498l-57.4658 125.383l-43.001 40.333c-23.667 22.334 -79.666 74.667 -124.666 116.667c-44.667 41.667 -91.667 83.334 -104.334 92.334c-55.667 39 -131 52.333 -198.333 34.667
c-85.667 -22.001 -153.333 -90.668 -174.333 -177.334c-2.33398 -9 -5.47168 -17.8701 -6.1377 -18.5361l-98.5293 93.2021l-49.667 19.001c-27.333 10.666 -57 22 -65.667 25.666h-15.999l11.666 -19.666c6.33398 -14 19.667 -42.667 29.001 -63.667l17.332 -38
l126 -118.667c69.334 -65.333 135.334 -125.667 146.667 -134.333c24.667 -19 61.667 -35.333 94.001 -41.333zM523.933 356.667c-25.333 -4.33301 -22.999 -4.33301 -48.666 1.33301c-27.667 6 -45.667 15.667 -65.334 35.333c-40.333 40.334 -49.999 101.667 -24.333 153
c45.667 89.667 173.667 95.667 227.667 10.667c50.333 -79 2.66699 -185.333 -89.334 -200.333zM447.267 433h110v106.667h-110v-106.667z" />
</svg>
