<?xml version="1.0" standalone="no"?>
<!DOCTYPE svg PUBLIC "-//W3C//DTD SVG 1.1//EN" "http://www.w3.org/Graphics/SVG/1.1/DTD/svg11.dtd" >
<svg xmlns="http://www.w3.org/2000/svg" xmlns:xlink="http://www.w3.org/1999/xlink" version="1.1" viewBox="-10 0 1022 1000">
   <path fill="currentColor"
d="M447.961 244.983c17.9014 -0.883789 93.1494 -0.663086 112.155 0.331055c141.326 7.29297 251.934 32.9287 300.221 69.5029c21.1055 16.0225 28.7295 32.9287 22.873 50.3867c-3.53613 10.0557 -27.624 32.376 -54.0332 50.0557
c-25.1934 16.7959 -56.6846 32.376 -116.574 57.6797c-14.917 6.29785 -27.5137 11.8232 -28.1768 12.4863c-1.43652 1.3252 81.8779 0.220703 104.972 -1.43652c34.6963 -2.43164 98.8955 -7.8457 111.05 -9.39258c6.96191 -0.883789 14.8066 -1.76758 17.3486 -1.87891
c4.53027 -0.331055 4.64062 -0.331055 3.09375 1.87891c-12.4863 17.0166 -16.7959 36.7959 -15.8008 72.5967l0.551758 18.3428l-3.4248 -0.442383c-8.39844 -1.10449 -86.2988 -10.4971 -96.7959 -11.4912c-15.0273 -1.6582 -105.193 -3.31543 -106.63 -1.98926
c-0.552734 0.442383 -1.21582 4.30957 -1.43652 8.39746c-1.21582 22.873 20.5527 47.9561 68.2871 78.8955c18.4531 11.9336 42.873 26.2979 87.8457 51.7129c65.083 36.7949 93.0381 54.0332 112.707 69.7236c9.94434 7.84473 29.3926 26.4082 32.9277 31.2705
l2.20996 3.2041l-9.28125 -0.773438c-5.08301 -0.331055 -65.4141 -1.21484 -133.923 -1.87793c-68.6191 -0.663086 -125.635 -1.43652 -126.851 -1.87891c-1.10547 -0.441406 -27.624 -33.8115 -58.8955 -74.2539l-56.9053 -73.3701l-0.663086 -6.07715
c-2.20996 -22.3203 -7.40332 -42.0996 -14.1436 -54.2549c-5.74609 -10.2754 -23.6465 -28.7285 -33.7021 -34.6953c-16.2432 -9.72461 -37.6797 -14.3652 -66.5195 -14.3652c-43.6465 0 -69.9443 10.6084 -91.0498 37.127
c-11.8232 14.8066 -17.458 28.9502 -21.1045 53.4814c-0.994141 6.62891 -2.09961 13.9219 -2.54199 16.2422c-1.10449 5.85645 -112.044 149.393 -116.243 150.387c-1.54688 0.332031 -58.4521 1.10547 -126.519 1.76855
c-68.0664 0.552734 -127.956 1.43652 -133.039 1.76758l-9.1709 0.773438l1.3252 -2.54102c2.20996 -4.08887 19.8896 -21.2158 31.6025 -30.4971c21.3262 -17.0166 43.2041 -30.8291 99.8896 -62.873c77.127 -43.6465 92.2656 -52.707 116.796 -69.834
c25.1934 -17.5693 43.2041 -35.6914 50.165 -50.6084c3.64648 -7.62402 5.19336 -19.3369 3.31543 -24.1982l-1.32617 -3.20508l-48.2871 0.663086c-51.6025 0.663086 -49.3926 0.442383 -118.453 9.06055c-17.3477 2.09961 -33.3701 3.86816 -35.5801 3.86816h-4.19922
l0.663086 -18.0117c1.21582 -31.4912 -3.86719 -56.1328 -14.6963 -70.165l-2.87305 -3.86816l9.28223 0.663086c5.08301 0.442383 13.0391 1.21582 17.5693 1.76855c8.61816 1.21484 59.0049 5.52441 98.3418 8.50781c12.4863 0.883789 43.3154 1.87891 68.5088 2.20996
c40.2207 0.442383 45.5244 0.332031 43.0938 -0.994141c-1.54688 -0.883789 -13.7012 -6.18848 -27.0713 -11.8232c-87.0723 -36.4639 -121.437 -56.2432 -155.58 -89.3926c-14.3652 -13.9229 -15.6914 -16.4639 -15.6914 -29.9443
c0 -13.0391 2.09961 -17.9014 12.4863 -28.9502c21.3262 -22.6523 67.293 -42.542 130.387 -56.5752c51.0498 -11.3809 120.442 -20 187.514 -23.0938zM530.282 296.144c-14.6963 -0.994141 -42.21 -1.21582 -54.1445 -0.331055
c-78.2314 5.30371 -130.387 18.3418 -149.944 37.5684c-10.3867 10.0557 -11.4922 16.5752 -5.08301 29.0615c12.5967 24.5303 41.1055 40.1104 120.773 66.1875c50.0557 16.3535 54.917 17.79 59.0059 17.79c3.64648 0 45.5244 -13.0391 81.6572 -25.3037
c58.2324 -20 85.6357 -36.1328 97.3486 -57.6797c6.85059 -12.5967 5.30371 -20.7734 -5.96777 -31.1602c-19.4473 -18.0107 -71.6016 -31.1602 -143.646 -36.1328zM491.607 596.917c3.31543 -1.32617 7.18262 -2.32031 8.50879 -2.32031
c4.75098 -0.110352 14.6963 4.53027 20.1104 9.39258c7.73438 6.96094 10.8291 13.9219 14.0332 32.0439c1.43652 8.50781 9.28125 46.1875 17.3477 83.8672l14.6963 68.5088l-9.94434 0.663086c-13.4805 0.994141 -105.746 1.21484 -114.365 0.220703
c-6.29785 -0.552734 -6.85059 -0.883789 -6.4082 -2.9834c0.551758 -2.7627 26.2979 -122.21 28.9502 -134.365c0.994141 -4.53027 2.43066 -12.8174 3.2041 -18.2314c0.883789 -5.52539 2.65234 -12.9287 3.97754 -16.5752
c3.31543 -8.61816 11.6025 -17.0166 19.8896 -20.2207z" />
</svg>
