<?xml version="1.0" standalone="no"?>
<!DOCTYPE svg PUBLIC "-//W3C//DTD SVG 1.1//EN" "http://www.w3.org/Graphics/SVG/1.1/DTD/svg11.dtd" >
<svg xmlns="http://www.w3.org/2000/svg" xmlns:xlink="http://www.w3.org/1999/xlink" version="1.1" viewBox="-10 0 1010 1000">
   <path fill="currentColor"
d="M180.272 804.422c0 0 47.6191 -99.4434 47.6191 -100c0 -2.04102 -7.82324 -15.6465 -17.6875 -30.6123c-13.2656 -20.4082 -19.7275 -27.5508 -25.1699 -27.5508c-18.2588 0 -34.8408 -27.7002 -19.7285 -44.5586c4.7627 -5.44141 4.7627 -7.82227 0 -29.251
c-3.06055 -12.585 -6.80273 -29.252 -8.16309 -36.3945l-2.7207 -13.6055c-35.123 -11.5898 -70.1562 -23.2676 -105.103 -35.0342l53.7422 -17.6875c51.0205 -17.0068 53.4014 -18.3672 53.4014 -26.8701c0 -5.10254 3.06055 -22.1094 6.80273 -37.415l6.80273 -28.5713
l-6.80273 -8.50391c-14.2861 -18.0273 -2.38086 -45.2383 19.7275 -45.2383c8.16309 0 12.2451 -4.08105 29.252 -28.5713l19.3877 -28.9111l-24.1494 -47.959c-13.2656 -26.5312 -23.4697 -48.9805 -22.7891 -50c1.01953 -0.680664 23.4688 9.52344 50.3398 22.7891
l48.9795 24.4893l24.8301 -16.666c18.707 -12.5859 24.4893 -18.0273 24.4893 -24.1504c0 -4.42188 4.7627 -12.585 10.2041 -18.3672c12.1865 -11.7168 26.3857 -10.8252 37.415 -1.02051c4.76172 4.42188 7.82324 4.42188 22.4492 0.339844
c9.22852 -2.73438 36.1924 -7.38867 33.6738 -13.2646c-2.75781 -8.26953 -4.73242 -21.3955 -10.2041 -27.5508c-4.08203 -4.08203 -4.42188 -6.80273 -1.36133 -13.6055c3.74219 -7.82324 5.44238 -8.50391 18.0273 -6.80273
c12.085 1.57617 26.9375 8.16309 36.0547 8.16309c2.30078 0 17.6758 -51.7119 20.748 -48.6396c1.02051 1.7002 7.14355 17.3467 12.9258 35.0342c10.5439 31.6328 11.2246 32.6533 30.2715 45.918c12.458 8.54199 55.0225 31.8281 70.0684 18.3672
c14.2861 -13.6055 42.8574 -2.04004 42.8574 17.3477c0 8.16309 4.08105 12.2441 30.9521 30.2715l30.9521 20.4082l47.2793 -23.8096c25.8506 -12.9248 47.2783 -22.7891 47.2783 -21.7686s-10.8838 23.1299 -23.8096 49.3203l-23.8096 47.6182h9.18457
c5.44141 0.34082 21.4277 2.38184 36.3945 5.10254c30.2715 5.44238 51.7002 17.3467 55.1016 30.6123c4.08203 15.9863 -5.44238 38.7754 -23.4697 56.8027l-17.0068 17.0068l5.7832 27.5508c3.40137 15.3066 6.46191 30.9521 7.14258 34.6943
c1.02051 5.44141 11.9043 10.2041 56.8027 25.1699l55.4424 18.3672c-37.1875 12.6992 -74.376 25.3975 -111.565 38.0947l-6.12207 28.9121c-3.40137 15.9863 -7.14258 31.9727 -8.16309 36.0547c-1.36035 4.42188 0 8.50293 3.06152 11.2236
c14.2852 11.9053 0.679688 44.2178 -18.0273 44.8984c-7.14355 0 -11.9053 4.76172 -25.5107 26.1904l-16.3262 26.1904l25.8506 51.7012c14.2852 28.5713 25.8496 52.7207 25.8496 53.7412s-23.1289 -9.86426 -51.3604 -23.8096
c-28.2314 -14.2861 -53.0615 -25.5107 -55.1016 -24.8301c-2.38086 0.680664 -15.9863 8.84375 -30.2725 18.0273c-20.0684 12.9248 -26.5303 19.0479 -26.5303 24.4902c0 13.7314 -12.2598 22.5469 -28.2314 19.7275c-22.4492 -3.40137 -32.6533 -2.72168 -63.2656 4.08105
l-28.5713 6.12305l-17.3467 51.7002c-9.52441 28.2314 -18.0273 52.3809 -19.0479 53.4014c-1.36035 1.02051 -9.52344 -21.0879 -18.707 -48.9795l-16.667 -50.6797l-10.5439 7.82324c-23.4697 17.6865 -39.7959 23.8086 -65.3066 24.1494h-24.4893l-18.3682 -19.3877
c-15.6455 -15.9863 -22.1084 -20.4082 -41.4961 -26.1904c-12.585 -4.08203 -26.5303 -7.14355 -31.293 -7.14355c-8.16309 0 -25.8496 -14.9658 -33.333 -28.5713c-3.40137 -5.78223 -5.44238 -5.44238 -31.6328 7.82324
c-15.3057 7.82324 -27.8906 13.2656 -27.8906 12.2451zM484.694 112.925c-23.4697 -7.82324 -46.9395 -12.2441 -50 -9.18359c-1.02051 1.02051 1.01953 7.4834 4.76172 14.626c5.78223 10.5439 6.46191 17.0068 4.76172 41.4971
c-1.70117 31.292 -10.2041 61.2246 -26.5303 93.1973c-18.3682 36.0537 -52.7217 89.4551 -75.8506 116.666c-26.8711 31.9727 -46.9385 69.7285 -56.4629 105.442c-6.12207 22.7891 -7.48242 38.4355 -8.16309 111.564c-1.36035 91.4971 -4.76172 118.027 -21.0889 154.763
c-14.9658 33.6729 -8.84277 54.7617 17.3477 61.5645c54.4219 13.9453 62.585 18.0273 84.0137 42.1768c11.2236 12.2451 13.9453 13.6055 28.9111 13.6055c24.4902 0 47.959 -12.9258 94.8984 -50.6807c47.6182 -38.7754 57.4824 -49.6602 96.2578 -109.184
c40.1367 -61.5645 49.6602 -71.7686 85.374 -93.5371c17.3477 -10.2041 34.6943 -22.4492 39.1162 -27.2109c4.76172 -4.76172 14.9658 -27.8916 24.1494 -54.4219c8.84375 -25.1699 21.4287 -56.1221 27.8916 -68.3672c13.6055 -26.5312 43.877 -63.6055 67.0068 -82.6533
c45.2373 -37.0752 48.2988 -70.748 7.82227 -83.333c-6.12207 -1.70117 -25.5098 -5.10254 -43.1973 -7.14355c-47.2783 -5.78223 -97.6182 -16.3262 -112.244 -23.8096c-25.1699 -12.9248 -68.3682 -48.6387 -99.3203 -81.9727
c-33.6729 -36.7344 -56.4619 -52.7207 -89.4551 -63.6055zM571.769 241.156c16.3271 -16.3262 23.4697 -18.707 23.4697 -7.48242c0 9.18359 -12.9258 23.4688 -29.9326 32.6523c-12.585 6.80273 -28.5713 10.8848 -60.5439 15.9863
c-44.5576 6.46289 -67.6865 12.9258 -82.9932 22.7891l-8.50293 5.44238l6.80273 -7.82324c10.8838 -12.2441 28.9111 -19.3877 66.666 -27.2109c53.7422 -10.5439 66.3271 -15.6455 85.0342 -34.3535zM714.966 318.027c14.626 -23.1289 16.667 -12.2451 2.72168 14.2852
c-10.8848 19.3877 -10.8848 20.4082 -8.84375 53.7422c1.02051 18.707 2.7207 40.8164 3.74121 49.3193c1.36035 12.9258 0.680664 11.5645 -5.10156 -8.50293c-14.2861 -51.3613 -12.585 -77.8916 7.48242 -108.844zM602.041 314.626
c8.50293 -10.5439 11.5645 0.339844 3.40137 13.2656c-13.6055 22.1084 -25.5107 23.8086 -76.8711 10.2041c-46.9385 -12.5859 -65.3057 -11.9053 -98.2988 3.40137c-14.626 6.80273 -27.2109 11.9043 -27.8916 10.8838
c-2.04102 -2.04102 22.4492 -19.3877 37.415 -25.8506c24.1494 -10.5439 44.8984 -11.5645 78.2314 -3.74121c46.2588 10.8848 70.0684 8.50391 84.0137 -8.16309zM634.694 347.279c4.76172 -5.78223 10.8838 -10.5449 13.6055 -10.5449
c5.78223 0 5.78223 0.34082 -0.34082 12.2451c-2.7207 5.44238 -5.10156 12.9248 -5.10156 16.667c0 3.74121 8.84277 25.1699 19.7275 47.6191c18.3672 38.4346 19.3877 42.1768 19.3877 66.3262c0 14.9658 -2.04102 30.2725 -5.10156 36.7344
c-4.7627 10.8848 -5.10254 9.52441 -5.10254 -27.2109c0 -36.7344 -0.339844 -39.4551 -11.2246 -60.2041c-6.46191 -12.2441 -16.666 -28.2305 -23.1289 -35.7139c-14.2861 -16.667 -15.3066 -30.9521 -2.7207 -45.918zM409.523 401.021
c20.9639 -10.1201 41.377 -3.12109 69.3877 -1.02051l24.8301 2.38086l-7.82324 8.16309c-4.08105 4.42188 -16.3262 12.585 -27.2109 18.0273l-20.0674 9.86426l-21.4287 -11.9053c-11.5645 -6.12207 -24.8301 -11.5645 -28.9111 -11.5645
c-10.5449 0 -5.7832 -6.12207 11.2236 -13.9453zM578.231 459.184l4.08105 -17.3467l17.3477 29.9316c21.0879 36.7344 27.2109 55.7822 24.4893 75.1699c-2.38086 15.9863 -6.46191 16.3271 -9.86328 0.680664c-1.02051 -6.12207 -9.52441 -18.3672 -19.0479 -28.5713
c-20.0684 -21.0889 -23.4697 -33.334 -17.0068 -59.8643zM323.47 481.973c5.78223 -6.80273 10.8838 -12.585 11.5645 -12.585c0.679688 0 -1.02051 5.44238 -3.74121 11.9053c-6.12305 14.9658 -6.12305 25.8496 0.339844 34.3535
c15.8311 20.5811 -17.1484 38.9648 -25.5107 16.666c-4.08105 -10.8838 3.74219 -34.0127 17.3477 -50.3398zM510.885 538.096c14.625 -35.375 15.6455 -27.8916 1.36035 9.52344c-6.80273 17.3467 -12.2451 34.0137 -12.2451 37.415
c0 5.78223 7.4834 14.626 10.5439 12.585c1.02051 -0.339844 -1.36035 2.04102 -5.44238 5.78223c-9.62598 8.75098 -49.9287 28.7744 -60.5439 36.7344c-13.2646 10.5449 -16.3262 5.44238 -18.3672 -30.2715c-0.680664 -16.3271 -3.06152 -32.9932 -4.42188 -36.7354
c-1.7002 -3.74121 -3.74121 -12.9248 -4.08105 -20.4082c-1.36133 -18.3672 -10.2041 -19.3877 -30.2725 -3.74121c-33.333 25.1699 -61.5645 72.7891 -80.2725 134.694c-7.14258 23.8096 -7.82324 24.1494 -5.78223 8.50293
c4.08203 -35.0342 38.4355 -105.442 63.9453 -131.633c13.9463 -14.2852 36.3945 -28.2314 50.6807 -31.9727l9.86426 -2.38086l-2.38086 18.708c-3.74219 30.9521 3.74121 28.9111 35.0332 -9.18457l11.2246 -13.6055l-10.8838 17.0068
c-6.12305 9.18457 -15.3066 22.1094 -20.748 28.2314c-7.4834 8.50391 -9.52441 14.626 -9.52441 26.5312c0 16.666 7.82324 35.374 14.626 35.374c3.74121 0 41.4971 -21.0889 45.918 -25.5107c0.680664 -0.679688 3.40137 -9.86328 6.46289 -21.0879
c2.72168 -10.8848 9.52344 -30.9531 15.3066 -44.5576zM528.231 581.293c11.5645 -18.3682 12.585 30.2715 1.02051 63.6055c-9.91211 28.874 -34.9795 74.665 -19.3877 27.8906c9.52344 -27.8906 18.3672 -70.0684 16.3262 -77.8906
c-1.02051 -4.08203 -0.339844 -10.2041 2.04102 -13.6055zM368.707 639.115c16.667 -10.2041 24.8301 -7.82227 46.5986 12.9258c7.82324 7.14258 18.0273 12.9248 27.2109 14.9658c36.7354 8.50293 35.7148 24.8301 -4.76172 73.4697
c-11.2246 13.6055 -20.4082 24.8291 -20.748 24.8291s0 -5.10156 0.680664 -11.5645c2.7207 -23.8096 -11.9053 -48.2988 -29.9326 -50c-21.4287 -2.04102 -27.8906 0.680664 -46.5986 18.0273l-18.707 18.0273l2.38086 -15.3057
c7.14258 -42.5176 22.1084 -72.1094 43.877 -85.375zM352.381 755.102c7.14258 -3.40137 15.3066 -6.46191 17.3467 -6.80176c6.80273 0 14.626 14.625 12.2451 23.1289l-1.7002 7.48242l-8.50391 -8.84277c-7.14258 -7.82324 -10.2041 -8.84375 -21.7686 -7.14355
c-15.9863 2.04102 -15.6465 1.36133 2.38086 -7.82324z" />
</svg>
