<?xml version="1.0" standalone="no"?>
<!DOCTYPE svg PUBLIC "-//W3C//DTD SVG 1.1//EN" "http://www.w3.org/Graphics/SVG/1.1/DTD/svg11.dtd" >
<svg xmlns="http://www.w3.org/2000/svg" xmlns:xlink="http://www.w3.org/1999/xlink" version="1.1" viewBox="-10 0 1010 1000">
   <path fill="currentColor"
d="M195.78 35.3496c7.91699 -8.5498 21.2168 -6.96582 63.333 7.91699c61.75 21.8496 152.634 32.2998 254.6 29.4502c108.301 -3.16699 200.45 -16.1504 246.684 -35.1504c22.167 -8.86621 31.9844 -10.1328 41.8008 -5.06641
c8.5498 4.75 7.59961 13.9336 -5.06641 59.8496c-26.2842 95.6338 -26.6006 119.384 -3.48438 229.9c9.18359 44.334 12.3506 95.6338 8.55078 139.65c-6.0166 68.7158 -12.3506 130.149 -19.3164 186.516c-16.4678 138.7 -32.9336 168.468 -134.584 244.468
c-72.2002 53.833 -92.5098 68.085 -132.05 75.6826c-11.5488 2.21875 -23.6445 0 -35.4668 0c-44.333 -25.9668 -101.017 -82.0166 -132.684 -127.3c-35.4658 -50.3506 -106.399 -185.566 -118.75 -226.101c-20.583 -68.082 -25.0166 -211.85 -10.1338 -326.166
c10.7676 -83.2832 9.5 -101.334 -14.8828 -192.533c-14.25 -53.5166 -14.25 -54.7832 -8.5498 -61.1172zM243.913 60.0498c-13.2998 -4.75 -25.0166 -8.5498 -25.9658 -8.5498c-3.80078 0 -1.58398 11.7168 9.5 55.416c9.18359 35.1504 11.7158 53.2002 13.6162 86.4502
v41.7998l21.8496 -29.7656c21.5957 -31.4668 42.207 -70.7549 21.5342 -114.316c-8.86719 -19.6338 -10.4502 -20.584 -40.5342 -31.0342zM784.146 54.3496c-2.21582 -3.7998 -1.89941 -3.7998 -31.3496 6.65039c-25.0166 8.5498 -25.334 8.86621 -34.5166 26.916
c-7.91699 15.2002 -9.18359 21.5342 -9.18359 40.5342c0.316406 29.4502 5.7002 43.3838 30.4004 77.8994l20.583 28.5v-44.9658c1.58398 -38.3174 4.75 -51.6172 14.5664 -88.9834c6.33398 -24.0664 10.4502 -44.9668 9.5 -46.5508zM413.33 474.25v10.7666
c8.86621 2.84961 33.8828 12.9834 47.8164 22.167c37.6836 25.333 48.4502 25.0166 85.8164 -3.16699c8.86719 -6.65039 22.168 -14.5664 30.084 -18.0498h13.9336v-14.5664c-12.0908 -12.0889 -26.4111 -5.72266 -39.2676 -4.11719
c-7.28223 0.950195 -21.2158 -28.1836 -25.332 -52.8828c-4.11719 -23.4336 -8.55078 -263.784 -5.06738 -272.65c1.58301 -4.11621 4.43359 -3.4834 18.3672 4.43359c21.5215 12.6152 98.8379 39.248 119.066 53.2002c34.833 23.75 70.6162 72.2002 88.666 120.649
c11.084 29.1328 12.0342 75.0508 1.90039 94.0508c-5.7002 10.7656 -8.2334 12.666 -15.833 11.7158c-26.2832 -2.84961 -167.2 -57 -190.95 -73.7832h-13.9336v13.6172c4.11621 47.1826 19 71.5664 48.1338 86.4502c25.0166 12.666 45.916 44.9658 59.8496 91.832
c13.9336 46.8672 17.417 86.1338 15.833 174.168c-1.2666 63.6494 -2.53223 81.3828 -8.86621 109.25c-3.7998 18.3662 -9.18359 37.3662 -11.7168 42.1162c-2.5332 5.06641 -4.11719 9.5 -3.4834 10.1338c2.53418 2.84961 23.75 -10.4502 38.9502 -24.0674
c19 -17.417 34.2002 -44.0166 41.4834 -72.833c4.75 -18.0498 4.75 -26.917 1.2666 -82.0176c-6.33398 -99.75 1.58398 -131.732 45.916 -190c34.2002 -44.6494 39.584 -64.5996 33.25 -122.232c-8.86621 -82.334 -31.9824 -147.884 -68.7158 -193.483
c-15.2002 -19.3164 -20.584 -36.417 -21.2168 -67.4502c-0.317383 -21.8496 0.950195 -29.4502 6.65039 -40.8496v-11.7168c-166.566 25.0166 -258.718 26.916 -369.55 7.91602c-19.9502 -3.4834 -38.9502 -6.96582 -41.8008 -7.91602
c-6.9668 -2.2168 -6.9668 -1.90039 0.950195 16.1504c5.7002 12.666 6.65039 19.6328 5.38281 42.4326c-1.58301 31.0332 -8.23242 49.083 -27.8662 75.0498c-37.4717 49.3955 -42.6377 68.9922 -46.5498 188.1c-2.2168 69.668 0 81.3838 24.3838 118.434
c35.1494 53.834 52.8828 101.967 66.5 180.5c10.1328 57.3164 20.582 92.7842 33.8828 114c9.81641 15.2002 36.0996 46.8672 38 45.2842c0.632812 -0.633789 -0.950195 -10.4502 -3.80078 -21.5342c-10.1328 -42.75 -18.0498 -134.266 -18.0498 -210.266
s2.85059 -103.867 13.6172 -128.25c9.18262 -20.584 26.917 -37.6836 41.7998 -40.2178c10.4502 -1.58301 12.9834 -3.7998 19.9502 -17.416c10.1328 -19.6338 20.2666 -59.2168 20.2666 -77.9004v-8.2334c-49.8184 32.5742 -142.5 29.6396 -142.5 37.0498
c0 5.06738 12.3496 51.2998 18.6836 68.4004c4.43262 12.667 5.06641 19.6338 3.16602 26.917c-5.69922 20.2666 -25.9658 26.916 -42.4336 13.9326c-7.91602 -6.0166 -8.5498 -8.23242 -6.96582 -21.2158c1.31348 -10.9443 31.6807 -92.1504 23.75 -92.1504
c-4.75 0 -24.0664 9.81641 -32.2998 16.1504v6.96582h-14.8838c-16.7832 -21.8506 -20.9004 -76.3164 -9.18262 -110.2c9.18262 -26.916 28.8164 -54.7822 55.7324 -80.4326c26.917 -25.6494 40.8496 -33.5674 86.4502 -47.8174
c18.0498 -5.69922 39.8994 -15.1992 48.4502 -21.2158c8.86719 -5.7002 17.0996 -10.4502 19 -10.4502c1.89941 0 2.5332 48.4502 1.89941 136.8c-1.2666 117.483 -2.21582 139.967 -6.96582 156.116c-6.9668 24.3838 -18.3672 44.6504 -24.3838 43.0674
c-14.5664 -3.7998 -19.6328 -3.7998 -27.2334 1.2666zM463.047 179.75c0 -14.8838 -0.316406 -26.916 -0.633789 -26.916c-0.632812 0.316406 -6.64941 3.7998 -13.6162 7.91602s-28.5 12.666 -47.8164 18.6836c-52.5674 17.0996 -82.9668 39.583 -112.1 82.9668
c-20.584 31.3496 -26.6006 51.9336 -24.3838 85.5c1.58301 27.5498 8.2334 48.1328 8.5498 26.2832c0.316406 -30.4004 19 -69.9834 45.5996 -96.2676c25.334 -25.332 41.8008 -34.5156 81.7002 -45.2822c18.3662 -5.06738 39.9004 -12.9834 48.1338 -17.7334h14.5664
v-35.1504zM628.98 192.416c-20.2168 -9.78125 -66.1191 -20.1182 -83.917 -31.9824h-12.3506v19c0 25.9668 0.317383 26.916 8.86719 33.25c9.18359 6.33301 45.6006 19.3164 67.1328 24.0664c52.25 11.084 108.301 77.9004 126.034 150.1
c5.06641 21.5342 6.0166 22.4844 9.18359 15.2002c6.96582 -15.2002 7.91602 -35.4658 2.84961 -56.0498c-14.8838 -57.3164 -71.8838 -131.733 -117.8 -153.584zM463.047 312.434c0 -7.59961 -0.316406 -13.9336 -0.633789 -13.9336
c-0.632812 0 -6.0166 5.06641 -12.3496 10.7666c-13.9326 12.9834 -39.2666 22.7998 -80.4326 31.0332c-37.0508 7.60059 -55.418 16.1504 -72.834 33.8838c-12.9834 13.6162 -12.9834 16.4668 -0.316406 8.23242c4.11621 -2.84961 24.3828 -6.96582 46.5498 -9.81641
c86.4502 -10.4492 120.017 -27.2334 120.017 -60.166zM549.497 313.7c-7.28418 -4.75 -13.9336 -10.4502 -14.5664 -12.667c-0.950195 -2.2168 -1.90039 3.16699 -1.90039 12.3506c-0.317383 14.5664 0.632812 17.0996 9.81641 24.7002
c16.4668 13.9326 61.1162 34.5156 122.55 56.6826c31.9844 11.7168 58.584 20.583 59.2168 19.9502c1.90039 -1.90039 -32.9326 -26.917 -61.4326 -44.0166c-13.2998 -8.2334 -41.4834 -22.4834 -62.3838 -31.667c-20.9004 -8.86719 -44.0166 -20.2666 -51.2998 -25.333z
M426.947 505.916c-14.5664 -8.5498 -30.7168 -10.4492 -35.7842 -4.11621c-10.4502 13.2998 -12.0322 29.4502 -11.7158 130.784c0 110.199 3.4834 149.782 18.6836 209.316c7.28223 29.1328 9.18262 32.2998 23.75 47.1836l15.832 15.832v-51.2998
c0 -58.583 3.48438 -79.166 15.2002 -93.416c21.5342 -25.6504 67.7676 -24.3838 93.1006 2.5332c35.585 37.7207 12.3916 153.267 26.917 153.267c7.59961 0 37.0498 -33.25 46.5498 -52.25c12.0332 -25.0166 17.0996 -51.6162 20.9004 -114.634
c5.38281 -92.7822 -3.80078 -176.7 -23.75 -216.282c-8.86719 -17.7344 -15.2002 -22.168 -31.668 -22.168c-10.4492 0 -14.8828 3.16797 -41.166 28.5c-25.334 24.3838 -31.0332 28.5 -40.2168 28.5c-14.25 0 -24.0664 -7.28223 -45.2832 -32.2998
c-9.81641 -11.7158 -23.75 -25.0166 -31.3496 -29.4502zM776.547 529.983c1.90039 -9.5 2.84961 -17.7334 2.2168 -18.0498c-1.58301 -1.58398 -32.3008 45.916 -41.167 63.6504c-14.25 28.5 -19 50.9824 -18.6836 88.666c0 19 1.58398 44.0166 3.4834 55.416
c4.75 28.8174 4.43359 61.4336 -0.949219 74.418c-6.33398 14.8828 -2.53418 13.6162 11.7158 -4.11719c19.3174 -24.7002 25.334 -47.8164 30.7178 -122.551c5.38281 -75.0498 9.5 -120.016 12.666 -137.433zM246.131 543.6
c-18.0508 -26.5996 -18.3672 -26.916 -16.1504 -17.0996c0.632812 4.43359 2.2168 16.4668 3.48242 26.916c5.89844 66.332 29.0361 106.126 59.8506 156.75c26.5996 43.0674 25.9668 43.7002 15.5166 -8.86621c-12.0332 -60.4834 -33.8828 -115.583 -62.6992 -157.7z
M511.813 780.467c-15.833 -4.75 -24.7002 -4.43359 -38.9502 0.632812c-21.2168 7.60059 -22.4824 11.7168 -22.4824 76v57.6338c16.4072 11.0371 32.9766 21.9111 49.7158 32.6162h17.1006c23.1162 -8.86621 31.0332 -23.75 36.416 -45.916
c13.6172 -58.2676 -4.11621 -109.567 -41.7998 -120.967zM465.58 587.934c54.7832 -14.8838 102.601 7.2832 128.566 58.9004c18.3672 36.7324 22.4844 86.1328 9.5 116.216v12.0342l-11.083 -12.668c-12.667 -26.916 -55.1006 -52.5664 -89.9326 -54.7822
c-37.3672 -2.53418 -73.4678 15.2002 -83.918 40.8496c-2.21582 5.06641 -5.06641 8.2334 -6.64941 6.9668c-4.75 -5.38379 -8.86621 -56.3662 -6.0166 -79.167c4.11621 -31.3496 6.0166 -38.6328 14.5664 -53.833c9.81738 -16.7842 25.9668 -29.4502 44.9668 -34.5166z" />
</svg>
