<?xml version="1.0" standalone="no"?>
<!DOCTYPE svg PUBLIC "-//W3C//DTD SVG 1.1//EN" "http://www.w3.org/Graphics/SVG/1.1/DTD/svg11.dtd" >
<svg xmlns="http://www.w3.org/2000/svg" xmlns:xlink="http://www.w3.org/1999/xlink" version="1.1" viewBox="-10 0 1010 1000">
   <path fill="currentColor"
d="M337.765 120.792c9.1875 0 35.042 4.9502 44.2246 4.9502c14.0938 0 31.9033 4.80176 48.8447 5.11523c13.2744 0.241211 34.1709 4.78613 43.0693 4.78613c0.990234 0 -3.46582 8.25098 -4.29102 8.25098c-4.78516 0.165039 -42.0791 3.46484 -47.5244 4.29004
c-6.43555 0.990234 -6.76562 1.15527 -4.9502 4.62012c4.00684 6.29688 12.7061 28.7158 12.7061 40.7598c0 3.62988 0.165039 3.62988 18.6465 2.47461c15.1328 -0.744141 23.1572 -1.63379 32.5088 -2.96973v51.1553h-20.957
c-11.7168 0.495117 -22.1123 2.47461 -23.2676 2.96973c-1.48535 0.495117 -1.98047 4.12598 -1.65039 13.3662v12.8711c15.1289 0.328125 30.75 0.658203 45.875 0.990234v49.6699h-14.3564c-7.62695 -0.623047 -27.5391 -7.44434 -31.0234 -3.95996
c-1.48535 1.48535 -0.825195 18.3164 0.660156 19.3066c1.40918 0.845703 40.9141 6.42578 42.0791 7.59082c1.15527 0.990234 -4.9502 44.0596 -6.60059 45.875c-0.330078 0.330078 -9.24121 -0.990234 -20.1318 -2.9707
c-27.2275 -4.78516 -25.083 -5.44531 -25.083 8.08594v11.3857c7.71191 2.10352 13.1904 3.52441 25.4131 6.76562h14.5215v16.3369c-0.990234 11.5518 -5.28027 34.8184 -5.77539 34.8184c-1.39258 0 -41.9062 -12.5557 -44.0596 -12.376
c-2.9707 0.165039 -7.59082 1.73535 -7.59082 10.5615v18.1514c7.59082 7.26074 11.8809 7.9209 10.3955 12.8711c-0.824219 2.9707 -2.30957 5.44531 -2.96973 5.44531c-0.825195 0 -1.48535 1.32031 -1.48535 2.80566c0 4.9502 -3.95996 13.6963 -6.10547 13.6963
c-1.15527 0 -2.14551 0.825195 -2.14551 1.65039c0 0.982422 -14.2227 -3.46777 -23.1025 -5.61035c-11.1562 -2.88574 -237.831 -77.8076 -248.35 -81.1885c-6.87305 -2.29199 -37.4824 -4.1377 -43.7295 -7.26074c-2.66699 -1.33398 -37.2129 2.21973 -39.2734 -3.13477
c-0.495117 -1.48535 -2.14551 -4.45605 -3.63086 -6.7666c-4.78516 -6.76562 -2.96973 -16.8311 6.60059 -39.6035c9.82422 -23.3701 7.66602 -25.2051 18.4824 -42.4092c9.76172 -15.5322 45.5459 -96.1602 54.9502 -112.541v-16.3369
c8.60938 -1.09961 29.7695 -0.920898 34.4883 -5.11523c4.58398 -3.92969 7.59668 2.30762 13.8613 -0.825195c7.26074 -3.63086 64.5215 -21.9473 78.3828 -24.918c6.93066 -1.48438 12.707 -3.13477 12.707 -3.46484c0 -3.12598 -9.2793 -1.36523 -7.26074 -7.75586
c2.30957 -7.42578 23.1016 -25.083 41.0889 -34.9834c6.43555 -3.46582 13.3662 -7.59082 15.5117 -9.24121c5.78125 -4.68164 12.2695 1.81543 20.2969 1.81543zM284.629 165.347c0 -0.990234 -4.78516 -1.65039 -11.0557 -1.65039h-11.2217
c4.65332 2.46289 10.416 6.33008 16.3369 4.78516c2.80566 -0.825195 5.28027 -1.48535 5.44531 -1.48535c0.330078 0 0.495117 -0.825195 0.495117 -1.64941zM408.392 197.029c0 -11.2988 -1.49219 -22.084 -9.90137 -21.6172
c-8.08594 0.330078 -207.261 46.04 -223.597 51.3203c-19.9678 6.27051 -30.5283 10.8906 -30.5283 13.0361c0 0.825195 -10.8916 25.9082 -24.0928 55.6104c-28.5479 63.5322 -38.6133 87.2939 -38.6133 90.4297c0 1.32031 1.48438 2.30957 3.46484 2.30957
c7.16406 0 10.002 3.37793 20.792 3.96094c16.502 0.825195 91.2549 16.3369 123.598 25.5771c36.5713 10.6191 101.417 33.9629 136.469 46.5352h27.7227c2.89648 -6.23926 4.49902 -7.5 5.94043 -16.502c-5.9873 -2.09766 -12.0361 -4.13574 -18.1514 -6.10547v-10.7266
c0.289062 -10.1084 1.84961 -19.9102 2.96973 -28.7129v0.660156c16.9971 1.81543 22.9375 2.14551 24.4229 -9.40527c2.00098 -14.0059 2.58691 -11.4365 -10.2314 -13.6963c-9.40527 -1.65039 -10.2305 -2.14551 -9.24023 -5.44629
c0.495117 -1.81445 1.48438 -11.2207 1.97949 -20.627v-17.1611c6.99219 0.65332 14.9688 1.3125 21.9473 1.97949v-22.9365c-3.66895 0.455078 -16.1875 1.82031 -18.1514 1.48438c0 -0.03125 4.9502 -41.2617 4.9502 -41.4189
c0 -0.660156 2.9707 -1.32031 6.60059 -1.32031v-10.5605c0 -13.2012 5.61035 -15.8418 0.660156 -15.8418c-3.2998 0 -3.62988 -0.495117 -2.47559 -4.62012c4.95117 -16.3369 7.26074 -30.1982 5.44629 -32.0137c-1.15527 -1.15527 -1.98047 -7.0957 -1.98047 -14.1914z
M352.616 207.756c0.900391 -2.10156 32.624 -5.54297 35.8086 -5.94141c1.98438 -0.21875 0.165039 15.4033 0.165039 26.4033v19.1416h-30.0332c-7.38281 -6.67969 -13.6973 -8.42285 -15.0166 -19.6367c-1.32031 -11.2217 0.660156 -17.8223 5.28027 -17.8223
c1.81543 0 3.46582 -0.989258 3.7959 -2.14453zM376.048 317.161c-6.33398 0 -23.7617 -5.78125 -23.7617 -11.3857c0 -1.98047 -0.990234 -3.46582 -2.31055 -3.46582c-9.59277 0 -0.829102 -10.3984 -4.29004 -12.376
c-2.47559 -1.48535 -1.98047 -4.9502 1.32031 -9.07617c2.47461 -3.13477 5.28027 -3.95996 16.9961 -4.9502c24.7529 -2.14551 21.9473 -3.62988 20.792 12.0459c-0.660156 7.42578 -1.65039 17.1621 -2.14453 21.4521c-1.15527 7.42578 -1.32031 7.75586 -6.60156 7.75586
zM335.454 341.089c1.81543 -4.125 2.14551 -4.125 23.5977 -4.125h21.4521v19.3066c-1.16406 25.2188 2.47461 21.3076 -22.7725 18.9766c-17.1621 -1.65039 -19.8018 -2.47461 -23.4326 -6.10547c-5.67773 -5.4502 -0.583984 -15.5312 5.94043 -15.8418
c4.12598 0 4.29102 -0.165039 1.32031 -1.48535c-5.94043 -2.30957 -8.08594 -6.10547 -6.10547 -10.7256zM324.398 400.66c1.81445 -3.96094 2.80469 -4.29102 12.8711 -4.29102c5.94043 0 17.1611 0.825195 24.752 1.98047h13.8613v20.957
c-1.17969 24.7656 1.38574 21.209 -20.4619 15.8418c-9.40527 -2.31055 -20.627 -4.12598 -24.752 -4.12598c-11.2217 0 -13.2012 -3.13477 -8.25098 -12.541c2.64062 -4.78516 5.11523 -7.26074 7.42578 -7.42578c3.46484 -0.330078 3.46484 -0.330078 -0.165039 -0.990234
c-5.61035 -1.1543 -7.59082 -4.29004 -5.28027 -9.40527zM663.342 120.792c5.42383 -0.246094 12.832 -2.60059 15.1816 -4.9502c0.165039 0 3.63086 2.14453 7.42578 4.78516c3.96094 2.47559 12.376 7.75586 18.6465 11.3857
c18.6924 10.7168 43.2549 31.0117 32.3438 36.4688v2.80566h14.1914c18.3164 4.45508 65.0166 24.4219 72.7725 28.5479c5.23926 2.94824 8.36328 -3.53418 12.8711 0.330078c1.48535 1.32031 4.45508 2.47461 6.27051 2.63965
c19.1416 1.81543 18.4814 1.32031 28.0527 17.6572c9.96582 17.1836 45.5801 96.7207 55.6104 113.696c4.45605 7.26074 8.08594 14.3564 8.08594 15.5117c0 1.32031 4.29102 12.2109 9.40625 24.0918c13.0713 30.7695 11.2236 35.2441 2.9707 52.1455h-12.377
c-6.76562 0.330078 -16.0068 0.990234 -20.627 0.990234c-17.1611 0.660156 -39.6035 2.9707 -41.584 4.45508c-0.990234 0.825195 -6.60059 2.64062 -12.376 3.96094c-14.2236 3.25098 -227.235 74.9365 -241.255 78.5479
c-11.1699 2.66699 -25.7422 7.83789 -25.7422 5.61035c0 -1.48535 -0.990234 -2.14551 -2.31055 -1.65039c-2.47461 0.990234 -4.29004 -3.79492 -4.29004 -11.0557c0 -6.31152 -4.33105 -5.08301 -5.77539 -11.2217c-0.990234 -4.45508 -0.165039 -5.94043 6.60059 -12.376
v-18.1514c0 -11.168 0 -10.7266 -5.61035 -9.90137c-1.43066 0.150391 -42.2861 11.9609 -42.4092 11.7158c-0.660156 -0.660156 -5.77637 -46.0391 -5.28125 -46.5342c0.330078 -0.165039 9.57129 -2.80566 20.4619 -5.77539h20.1328v-16.3369
c-0.977539 -17.5889 -2.87012 -12.4902 -23.9277 -8.58105c-15.1816 2.64062 -21.1221 3.13574 -21.9473 1.81543c-1.32031 -2.14551 -6.27051 -30.3633 -6.93066 -39.6045c-0.495117 -6.43555 -3.95996 -5.28027 28.8779 -9.90039h14.3564v-12.7061
c0 -9.07617 -0.330078 -10.5615 -2.64062 -9.73633c-3.46484 1.32031 -40.4287 4.62012 -41.4189 3.79492c-0.330078 -0.494141 -1.15527 -11.7158 -1.65039 -24.917v-24.0928h45.71v-28.0527c-4.45508 0 -22.7725 -0.495117 -31.0234 -0.990234h-15.1816v-52.1445
c9.69922 1.35352 16.8623 1.9541 32.3438 2.96973h18.1514v-13.2012c2.42188 -11.625 8.91113 -13.8008 8.91113 -19.1416c0 -3.99707 4.38965 -11.042 6.43555 -14.5215c-8.34473 -1.19238 -52.2803 -4.07227 -56.4355 -8.74609
c-1.65039 -1.98047 -2.63965 -3.95996 -2.14551 -4.29004c1.65039 -1.65039 29.373 -5.11621 42.2451 -5.28125c24.1279 -0.513672 92.6875 -10.0654 94.8838 -10.0654zM737.6 163.696c-4.23633 2.24219 -17.7783 9.2207 -20.2969 1.98047
c-0.495117 -1.48535 2.47461 -1.98047 9.90039 -1.98047h10.3965zM588.26 253.465c0 5.75195 -1.27051 15.042 -2.14551 20.792c5.77539 0 13.6963 0.660156 14.3564 3.63086c0.825195 3.95996 4.29004 34.3232 4.29004 37.7891
c0 2.54688 -14.5645 0.225586 -18.1514 -0.165039v22.9365c6.97852 -0.666992 13.9648 -1.32617 20.957 -1.97949v15.5107c0.978516 12.7139 2.72949 18.5283 4.125 25.7432h-10.8906c-16.8105 3.13281 -9.3584 11.4434 -7.42578 27.2275
c5.30371 -0.713867 16.4551 -1.85547 19.8018 -2.9707c2.14551 -0.65918 2.9707 1.98047 4.45605 14.8516c3.13477 25.4131 3.2998 24.5879 -6.60059 27.3936c-8.74609 2.47461 -8.74609 2.63965 -8.58105 9.0752c0.308594 6.78809 2.41699 14.4053 3.95996 20.2969
v-2.96973c21.6934 -6.99902 135.487 -44.4248 159.241 -51.3203c31.6826 -9.24121 117.656 -27.3926 130.693 -27.5576c9.50977 -0.328125 12.0986 -3.63086 19.3066 -3.63086c2.31055 0 4.29004 -0.330078 4.29004 -0.824219
c0 -1.81543 -13.6963 -33.6641 -38.1182 -88.4492c-14.5215 -32.3438 -26.2383 -59.4062 -26.2383 -60.2314c0 -2.17383 -20.0342 -8.35449 -21.4521 -9.24023c-7.0957 -3.46582 -39.9336 -11.5518 -131.188 -31.6836c-55.2812 -12.376 -101.485 -22.4424 -102.641 -22.4424
c-8.74902 0 -10.8965 42.418 -8.25098 53.9609c4.95117 19.8018 4.95117 18.6465 0.330078 18.6465c-3.62988 0 -4.125 0.660156 -4.125 5.61035zM610.207 203.96c-0.825195 -2.30957 -0.330078 -2.63965 2.96973 -1.81543
c3.95508 0.913086 32.7842 2.72363 33.9941 5.44629c0.494141 1.32031 2.30957 2.30957 3.95996 2.30957c4.78516 0 7.75586 7.75586 6.93066 17.8223c-0.825195 7.75586 -1.65039 9.40625 -8.41602 15.3467v6.60059h-21.6172
c-19.4609 -1.65625 -16.666 -1.82617 -16.666 -24.4229c0 -10.0654 -0.495117 -19.6367 -1.15527 -21.2871zM614.662 277.062c0 -2.47559 1.65039 -2.64062 12.8711 -1.81543c25.5781 1.81543 28.0527 3.30078 27.7227 17.1621
c-0.165039 6.10547 -0.825195 7.75586 -3.95996 9.07617c-1.98047 0.824219 -3.30078 2.47461 -2.9707 3.46484c2.83789 6.8916 -13.3291 6.49707 -16.501 10.7266c-0.495117 0.824219 -3.63086 1.48438 -7.0957 1.48438v-18.8115
c-1.15527 -10.2314 -10.0664 -19.9668 -10.0664 -21.2871zM620.603 349.67v-12.7061h21.1221c18.6475 0 22.2773 0.330078 23.1025 2.63965c3.33203 8.96875 -3.0459 10.8594 -9.73633 13.6963v0.165039c6.69531 0 16.0801 10.3789 10.5615 15.6768
c-3.30078 3.30078 -6.60059 4.29004 -18.8115 5.77539c-24.0928 2.64062 -23.5977 2.80566 -24.5879 -5.44531c-0.495117 -3.79492 -1.15527 -12.7061 -1.65039 -19.8018zM635.784 400c9.2998 -1.25684 37.209 -6.17285 40.2637 0.495117
c1.98047 4.62012 -0.329102 9.0752 -5.11523 9.24023c-1.98047 0 -1.65039 0.495117 0.825195 1.48535c3.46582 1.32031 8.91113 10.7266 8.91113 15.5117c0 4.2373 -31.4521 7.1582 -40.0996 9.57129c-18.0859 5.16602 -13.8027 5.4043 -14.8506 -16.9971v-19.3066h10.0654
zM286.279 503.465c0 -13.502 11.6172 -7.43652 20.627 -4.62012c4.45605 1.15527 58.251 19.6367 81.3535 27.8877c14.6865 5.28027 17.3262 8.91113 13.3662 18.4814c-1.65039 4.12598 -2.64062 4.62109 -6.27051 3.7959
c-13.4268 -2.87793 -66.6426 -25.624 -86.7988 -32.3438c-10.8916 -3.46484 -22.2773 -10.2305 -22.2773 -13.2012zM685.619 501.485c16.5811 -6.00781 28.0527 -15.001 28.0527 2.47461c0 6.60059 -46.4326 21.041 -57.0957 26.5674
c-11.291 5.85547 -21.8926 8.15723 -34.6533 13.0371c-5.44531 2.30957 -12.541 4.62012 -15.6768 5.28027c-5.61035 0.990234 -5.94043 0.825195 -7.75586 -5.11523c-4.47363 -14.916 12.5371 -14.9092 22.7725 -20.2979
c14.7686 -7.76855 45.5488 -15.4053 64.3564 -21.9463zM288.425 516.501c0.165039 -2.47461 0.825195 -2.47461 6.10547 -0.330078c63.8613 25.248 80.0332 32.0137 79.7031 33.334c-0.165039 0.990234 -16.832 27.8877 -36.9639 60.0654
c-32.6738 51.9805 -38.4492 62.377 -53.7959 95.875l-17.1611 37.624c-2.87598 28.6973 -5.68262 57.4639 -8.41602 86.3037v15.8408c2.83691 9.83301 15.9941 21.4521 5.61035 21.4521c-4.125 0 -6.76562 -2.30957 -18.3164 -16.1709
c-11.667 -13.8203 -36.8467 -55.3164 -40.9238 -76.4033c-0.990234 -4.9502 -1.48535 -18.4814 -0.990234 -30.3623v-21.4521l14.8516 -37.1289c7.75488 -20.4619 26.7324 -66.1719 42.0791 -101.485c15.3467 -35.4785 28.0527 -65.5117 28.2178 -67.1621zM625.059 548.185
c5.6377 0 84.9473 -38.3311 87.1279 -30.6934c0.495117 1.81543 13.6963 32.8389 29.208 68.6475c15.3467 35.8086 34.1592 80.8574 41.584 100l13.3672 34.8184v27.0625c0.330078 31.0234 0.660156 31.3535 -17.3271 65.8418
c-8.25098 16.1719 -30.3633 47.3594 -36.3037 51.4854c-1.65039 1.1543 -10.8906 1.81445 -10.8906 0.824219c0 -0.164062 2.47461 -8.58008 5.44531 -18.4814v-18.1514c-2.83691 -29.2314 8.86426 -60.8838 -3.30078 -87.459l-16.9961 -37.1289
c-15.1816 -32.6729 -21.7822 -44.2246 -54.7861 -97.0293c-20.627 -32.8389 -37.1279 -59.7363 -37.1279 -59.7363z" />
</svg>
