<?xml version="1.0" standalone="no"?>
<!DOCTYPE svg PUBLIC "-//W3C//DTD SVG 1.1//EN" "http://www.w3.org/Graphics/SVG/1.1/DTD/svg11.dtd" >
<svg xmlns="http://www.w3.org/2000/svg" xmlns:xlink="http://www.w3.org/1999/xlink" version="1.1" viewBox="-10 0 1010 1000">
   <path fill="currentColor"
d="M162.324 527.491c0 -0.789062 -99.6562 -34.75 -99.6562 -36.082c0 -1.375 21.9932 -9.27832 48.7979 -17.8701l49.1406 -15.4639l5.49805 -27.1475c2.74902 -15.1201 6.87305 -31.959 8.93457 -37.457c3.09277 -9.27832 2.40527 -12.0273 -4.81055 -20.6182
c-6.5293 -7.56055 -8.24805 -12.0273 -6.5293 -20.2754c2.40527 -11.6836 13.0586 -22.6807 22.6807 -22.6807c3.43652 0 8.59082 -3.7793 11.3398 -8.24707c5.1543 -7.56055 4.81055 -8.24707 -4.81055 -15.4639c-8.5918 -6.5293 -9.96582 -9.62207 -9.96582 -24.7422
c0 -19.5879 6.87305 -38.832 16.1514 -43.9863c16.1504 -9.27832 15.8066 -8.59082 3.09277 -34.0205c-6.87305 -13.4023 -12.3711 -25.4297 -12.3711 -26.4609c0 -1.56641 56.7002 25.7734 56.7002 25.7734c0.6875 0 6.18555 -8.93457 11.6846 -19.9316
c5.49805 -10.6523 13.7451 -23.0234 18.2129 -27.4912c10.0117 -8.9375 85.5322 -31.0547 107.216 -11.3398c4.81152 4.81055 8.93555 12.0273 8.93555 16.8389c0 7.21582 1.03027 7.90332 7.90332 6.18555c5.67285 -1.8916 59.8965 -11.6553 65.9795 -14.0898
c2.06152 -0.34375 10.3096 -21.6494 18.5566 -46.7354l15.1201 -46.0479c10.5127 31.1836 20.9395 62.4521 31.2715 93.8145l15.4639 2.40527c8.93457 1.375 25.4297 4.81055 37.457 7.56055c19.9316 4.81055 21.9932 4.81055 27.835 -0.34375
c5.15527 -4.46777 14.4336 -5.8418 45.3613 -6.5293c37.457 -0.6875 39.8623 -0.34375 55.6699 8.93457c9.96582 5.8418 20.6182 16.1514 27.4912 26.46c6.18555 9.27832 12.0273 17.1826 13.7461 17.1826c1.7666 0 50.71 -24.0547 52.2334 -24.0547
c1.03125 0 -8.24707 20.2744 -20.6182 45.0166c-12.7148 24.7422 -22.3369 46.7354 -21.6494 48.7979c0.686523 2.40527 7.90332 14.4326 16.1504 27.1475c13.0586 19.5879 16.8389 23.3672 25.0859 23.3672c20.2754 0 32.6465 24.7432 20.6191 41.2373l-7.2168 9.62207
l7.2168 34.0205c3.78027 18.5566 7.55957 35.3955 8.24707 37.457c0.613281 4.29297 99.7842 37.0049 102.749 38.4883c1.71875 1.03125 -20.6182 9.96582 -49.8281 19.5879l-52.5771 17.5254l-7.90332 35.7393c-7.2168 31.6152 -7.56055 36.4258 -3.09277 41.2363
c12.7148 14.0898 1.37402 41.2373 -17.1826 41.2373c-6.18555 0 -10.9961 3.78027 -17.1816 13.7461c-14.7773 23.7109 -16.8389 31.2715 -8.93555 36.7695c16.1514 10.9971 17.8701 14.7764 15.4648 31.6152c-2.10449 17.5312 -10.3271 18.0518 -1.375 30.584
c3.78027 4.81152 6.87305 10.9971 6.87305 14.0898s3.09277 9.96484 6.87305 15.8076c16.8506 25.6123 -3.31055 5.05371 -12.0283 12.0273c-2.40527 2.06152 -10.3086 3.43652 -17.1816 2.74902c-10.9971 -1.03125 -13.7461 -3.09277 -20.9619 -16.4951
c-8.5918 -16.1514 -18.5566 -23.7109 -31.6152 -24.0547c-4.12402 0 -10.3096 -1.71875 -13.7461 -3.78027c-8.59082 -5.1543 -52.5771 24.3984 -57.3877 38.832c-2.0625 5.8418 -6.5293 12.3711 -10.3096 15.1201c-8.24805 6.18555 -27.1475 6.18555 -32.3027 0
c-5.66016 -6.91895 -56.5479 8.63574 -63.5742 10.3096l-13.4014 3.09277c-11.9121 35.5098 -23.8252 71.0195 -35.7393 106.528c-11.957 -35.8086 -23.8701 -71.6611 -35.7383 -107.56l-16.1514 -2.40527c-8.93457 -1.03125 -25.7734 -4.46777 -37.457 -7.56055
c-19.2441 -4.81055 -21.9932 -4.81055 -29.21 0.34375c-17.1816 12.0273 -43.9863 0 -43.9863 -20.2754c0 -4.81055 -1.03027 -8.59082 -2.06152 -8.59082s-8.24707 5.49805 -15.8076 12.0273c-17.5254 14.7773 -35.3955 21.3066 -42.2686 15.4639
c-7.55957 -6.5293 -6.18555 -14.0889 6.5293 -35.3945c8.93555 -14.7773 10.6533 -20.2754 7.56055 -23.0244c-5.49805 -4.12402 -8.93457 -1.03125 -8.93457 7.9043c0 20.6182 -27.835 53.9512 -45.3613 53.9512c-13.0576 0 -23.3672 -8.59082 -23.3672 -19.5869v-7.9043
l-13.7461 6.87305c-7.55957 3.78027 -13.7451 6.18555 -13.7451 5.1543c0 -1.03027 10.9961 -23.7109 24.3984 -50.5156l24.3984 -49.1406l-18.5566 -28.1787c-15.1201 -23.7109 -19.5879 -28.1787 -27.4912 -28.5225c-10.6533 0 -23.3682 -14.0889 -23.3682 -25.7725
c0 -11.5488 14.6973 -19.959 9.62207 -32.6465c-2.74902 -6.87305 -13.0586 -54.9824 -13.0586 -60.1377zM380.194 158.763c-4.12402 -6.5293 -29.5537 -9.27832 -40.8936 -4.12305c-3.78027 1.71777 -14.0898 3.09277 -22.6807 3.09277
c-13.7461 0.342773 -17.8691 2.06152 -27.835 12.3711c-6.5293 6.87207 -15.4639 18.5566 -20.2754 26.46c-10.9961 18.5566 -36.4258 42.9551 -49.8281 47.4229c-22.1113 7.37109 -29.71 50.4326 -4.81055 63.5742c12.0273 6.18555 13.0586 10.6523 3.78027 13.7451
c-9.96582 3.09277 -12.0283 13.4023 -5.15527 27.4912c10.9971 23.3682 38.4883 33.334 47.4229 17.1826c3.78027 -6.93164 4.27734 -12.7432 9.96582 -5.1543c3.88867 4.44336 41.0508 34.6016 44.3301 39.5186c1.37402 1.71777 9.27832 3.43652 17.1816 3.43652h14.7764
l7.9043 22.3369c5.8418 16.8379 12.7148 27.1475 26.8037 41.5801l18.9004 18.9004l-37.457 45.0176c-34.3643 41.2373 -45.3604 58.7627 -45.3604 72.5088c0 10.1709 21.7773 -7.02734 9.96582 15.1201c-2.74902 5.49805 -2.74902 8.24707 1.03027 12.0273
c4.12402 4.12402 6.18555 3.78027 14.0898 -2.40527c17.8691 -14.0898 6.87305 4.81055 -20.6191 35.7383c-20.6182 23.0244 -31.958 42.9561 -31.958 55.6709c0 13.7451 7.21582 9.62109 40.2061 -22.6807c16.1514 -16.1514 28.5225 -26.1172 26.8037 -22.3369
c-6.18555 16.1514 -6.18555 18.9004 0.6875 18.9004c3.43652 0 8.59082 -2.06152 11.3398 -4.12402c8.93457 -8.24707 -25.4297 35.7393 -56.3574 72.165c-25.7725 30.584 -34.708 53.9521 -15.1201 41.2373c12.0273 -7.9043 40.5498 -36.4258 61.1689 -60.1377
c14.0889 -16.8379 19.2432 -20.6182 22.6797 -17.8691c9.62207 7.90332 60.4814 -41.2373 82.8184 -80.0693c9.62207 -16.4941 42.2676 -57.7314 45.7041 -57.7314c2.0625 0 31.6152 24.7422 41.2373 34.3643c15.4639 15.8076 28.8662 23.7109 35.7393 21.9932
c6.18555 -1.375 13.4014 2.06152 29.8965 14.7764c22.6807 16.8389 68.041 57.7324 72.8525 65.292c5.1543 8.24805 34.0205 25.7734 37.1133 22.6807s-38.832 -58.7627 -46.7354 -61.5117c-4.81152 -2.0625 -45.7051 -52.9209 -46.3916 -58.0762
c-1.375 -8.24707 7.90332 -4.4668 23.7109 10.3096c17.1826 16.1514 36.083 24.7422 40.2061 18.2129c3.17578 -3.9668 -35.2988 -39.6152 -31.959 -42.9551c4.46777 -4.12402 23.7119 8.59082 51.2031 33.333c14.4326 13.4023 28.5225 24.0557 31.2715 24.0557
s6.87305 2.40527 9.27832 5.1543c5.1543 6.18555 10.3096 6.5293 10.3096 0.6875c0 -4.46777 -74.5703 -79.0381 -101.375 -101.031c-9.27832 -7.90332 -16.1514 -15.1201 -15.1201 -16.4951c1.375 -1.03027 14.7764 8.93457 30.2402 22.3369
c27.835 23.7119 38.1445 28.8662 38.1445 19.2441c0 -5.49805 -24.7422 -36.4258 -41.5811 -52.2334c-14.4326 -13.4023 -35.3945 -38.4883 -52.9209 -62.8867c-10.6523 -14.7764 -12.3711 -19.2441 -9.27832 -24.0547c6.18555 -8.93555 21.3066 -40.8936 21.3066 -45.0176
c0 -2.06152 1.37402 -3.09277 3.09277 -1.71875c3.7793 2.0625 16.1504 -12.7139 19.2432 -22.6797c1.375 -3.78027 6.87305 -8.93457 12.3711 -11.6846c7.2168 -3.7793 9.96582 -7.90332 10.3096 -14.7764c0 -5.1543 1.03125 -7.21582 2.06152 -5.1543
c4.625 12.5498 15.4121 -4.78223 18.5576 -9.62207l6.18555 7.56055c6.18555 7.55957 6.52832 7.55957 15.1201 2.06152c5.1543 -3.09277 10.3086 -11.3408 12.3711 -18.2129c5.49805 -19.9316 12.0273 -104.812 9.27832 -119.244
c-6.5293 -35.0518 -60.1377 -64.2617 -93.8145 -51.5469c-8.93457 3.09277 -35.3955 37.457 -35.3955 45.7051c0 9.96582 -24.0547 50.8584 -35.7383 61.168c-6.5293 5.8418 -10.9971 11.3408 -9.96582 12.3711c2.74902 2.40527 -5.8418 40.2061 -10.3096 45.7051
c-1.71777 2.40527 -7.55957 4.4668 -12.7148 4.4668c-6.87305 0 -12.0273 3.43652 -19.2441 12.7148c-9.62207 13.0586 -14.7764 18.2129 -19.2441 18.2129c-1.03027 0 -10.3086 -6.87305 -20.2744 -15.4639c-15.8076 -13.4023 -19.9316 -15.1201 -37.1133 -16.1514
c-20.9619 -1.03027 -20.6191 -0.34375 -15.4639 -25.7725c1.71777 -8.5918 0.6875 -11.6846 -5.15527 -15.4639c-4.12305 -2.40625 -7.21582 -7.56055 -7.21582 -11.6846c0 -7.55957 -43.2988 -52.9209 -50.5156 -52.9209c-7.25 0 -15.3525 23.8594 -24.0547 16.4951
c-7.51758 -6.15039 -0.202148 -33.5303 0.342773 -45.0176c0.34375 -10.3086 2.40625 -14.0889 10.6533 -19.2432c16.8389 -10.3096 24.3984 -20.2754 20.2754 -27.1484zM712.152 369.416c-4.81055 -12.3711 -8.59082 -10.6533 -16.4941 7.55957
c-10.6533 25.0859 -10.9971 42.2686 -1.375 42.2686c15.1201 0 25.4297 -29.5537 17.8691 -49.8281zM625.898 678.694c-10.9971 -12.3711 -23.7109 -16.1514 -23.7109 -6.87305c0 7.90332 25.7725 34.3643 30.2402 31.2715
c6.87305 -4.12402 4.81055 -11.3398 -6.5293 -24.3984zM766.792 701.031c-24.3984 -17.5264 -41.5811 -12.3711 -29.5537 8.93457c6.18555 10.9961 36.7705 32.9893 42.2686 30.9277c14.4326 -5.49805 8.24707 -24.3984 -12.7148 -39.8623zM275.727 755.326
c0 -10.6523 -6.5293 -9.96582 -20.6182 2.74902c-13.0586 11.6846 -27.4922 34.0215 -27.4922 42.2686c0 5.8418 11.3408 7.2168 19.2441 2.06152c9.27832 -5.8418 28.8662 -38.1445 28.8662 -47.0791zM783.63 789.69c21.6592 3.49414 -8.37012 -43.8965 -15.4639 -24.3984
c-3.09277 7.9043 6.5293 23.0244 15.4639 24.3984zM358.201 283.161c0 -7.00879 6.87207 -1.31934 6.87207 2.40625c0 1.71777 -1.37402 3.09277 -3.43555 3.09277c-1.71875 0 -3.43652 -2.40625 -3.43652 -5.49902zM620.057 393.127
c-25.2949 8.43164 24.4717 -43.0312 17.5254 -19.5879c-2.40527 9.62207 -8.93457 16.8389 -17.5254 19.5879zM387.41 563.574c11.3408 -11.3408 21.6494 -20.6191 23.3682 -20.6191c4.12305 0 -8.59082 16.8389 -24.7422 32.3027
c-22.3369 21.6494 -20.9629 10.9961 1.37402 -11.6836zM574.352 559.45c-2.74902 -5.1543 -0.342773 -4.12402 10.3096 4.12402c7.9043 6.18555 14.0898 12.7148 14.0898 14.4326c0 4.81055 -20.2754 -10.6533 -24.3994 -18.5566zM409.06 657.732
c-4.51367 -2.70996 12.2686 -19.5518 13.7461 -15.1211c1.71777 5.15527 -9.62207 17.5264 -13.7461 15.1211z" />
</svg>
