<?xml version="1.0" standalone="no"?>
<!DOCTYPE svg PUBLIC "-//W3C//DTD SVG 1.1//EN" "http://www.w3.org/Graphics/SVG/1.1/DTD/svg11.dtd" >
<svg xmlns="http://www.w3.org/2000/svg" xmlns:xlink="http://www.w3.org/1999/xlink" version="1.1" viewBox="-10 0 1010 1000">
   <path fill="currentColor"
d="M252.761 78.9268c-0.306641 -0.881836 -0.551758 -1.60254 -0.551758 -1.92969c0 -0.123047 0.0351562 -0.19043 0.113281 -0.19043c1.00586 0 9.24609 11.0898 44.999 59.0059c23.7021 31.9971 44.0859 59.0176 45.2715 60.2031
c0.19043 0.19043 0.572266 0.283203 1.12402 0.283203c2.87793 0 10.3887 -2.50781 19.7334 -6.68262c21.0938 -9.71777 52.1436 -19.1982 70.8682 -21.8066c3.81445 -0.49707 6.46973 -0.791992 8.30762 -0.791992c3.41699 0 4.01758 1.0166 4.01758 3.63672
c0 11.2666 7.74902 28.8691 9.95508 40.5303l-10.4287 1.65918c-23.4648 3.55566 -70.6318 20.6211 -70.6318 25.3613c0 3.08105 13.2725 20.1465 21.8057 28.4424c3.55566 3.55469 6.63672 8.53223 6.63672 11.377c0 5.45117 39.8193 122.776 43.374 127.279
c0.516602 0.738281 1.52637 1.03613 2.8623 1.03613c5.5127 0 16.5674 -5.06445 21.3145 -5.06445h8.29492v199.57c-12.2998 -2.32715 -19.7666 -4.22266 -32.9453 -11.377c-8.01758 -4.00879 -14.7812 -7.38965 -15.7637 -7.38965
c-0.0634766 0 -0.102539 0.0136719 -0.116211 0.0419922c-1.65918 2.13379 -45.9824 124.91 -46.6934 129.177c-0.473633 2.84473 -4.0293 8.76855 -8.05859 13.0361c-1.94727 1.94629 -134.153 180.608 -136.523 182.979
c-0.643555 0.642578 -1.22363 1.33594 -1.44629 1.33594c-0.0615234 0 -0.0957031 -0.0527344 -0.0957031 -0.175781c0 -1.5625 5.45508 -14.2793 29.2734 -70.6074c15.1689 -35.79 27.4941 -65.6543 27.4941 -66.6025c0 -1.18555 -4.26758 -4.97754 -9.24414 -8.53223
c-14.2217 -9.71875 -52.1445 -49.7744 -66.3652 -69.9219c-14.4521 -20.5488 -32.1309 -54.4346 -32.1309 -61.4893c0 -0.349609 0.0429688 -0.633789 0.132812 -0.84668c0.142578 -0.379883 0.208984 -0.767578 0.208984 -1.15234
c0 -1.54004 -1.0625 -3.01953 -2.5791 -3.58789c-7.33105 -2.74902 -16.042 -51.334 -22.043 -71.3428c-0.195312 -0.700195 -0.331055 -1.29199 -0.331055 -1.78516c0 -1.47949 1.23047 -2.0791 5.83594 -2.0791c3.22266 0 8.09473 0.293945 15.3525 0.783203
c12.7988 0.947266 23.2285 2.84277 24.8877 4.74023c1.42188 1.42188 6.16211 13.9844 10.4287 27.7305c9.48047 31.2861 26.3096 64.2324 45.9814 90.0684c14.6953 19.6719 43.8486 49.7744 48.1152 49.7744c2.84473 0 12.5625 -27.7314 12.5625 -35.5537
c0 -3.79297 2.13281 -7.34766 5.92578 -9.71777c5.45117 -3.08105 93.6221 -98.3633 93.6221 -100.971c0 -0.473633 -4.50293 -6.87305 -9.71777 -13.9844c-6.16309 -7.99609 -8.46289 -11.543 -8.46289 -14.6729c0 -1.32324 0.411133 -2.57227 1.11523 -4.05176
c0.956055 -2.10156 1.4873 -3.43164 1.4873 -4.24219c0 -0.833008 -0.5625 -1.11328 -1.80273 -1.11328c-0.548828 0 -1.22949 0.0537109 -2.05469 0.141602c-0.116211 0.00976562 -0.233398 0.0136719 -0.350586 0.0136719c-5.5498 0 -10.5566 -10.9492 -10.7891 -23.7158
c-0.236328 -4.03027 -0.948242 -8.05859 -2.13379 -8.77051c-0.0380859 -0.0195312 -0.124023 -0.0283203 -0.254883 -0.0283203c-3.10547 0 -31.7432 5.29492 -65.3984 12.1172c-44.4932 9.0791 -60.9629 11.9189 -72.6895 11.9189
c-11.6064 0 -18.5674 -2.78125 -43.4512 -5.0459c-26.7021 -2.1084 -192.057 -23.4287 -192.057 -24.6152c0 -0.0146484 0.0234375 -0.0263672 0.0703125 -0.0341797c2.60742 -0.711914 35.0781 -4.97754 72.291 -9.71777l67.3135 -8.77051l3.08203 -23.4648
c9.00684 -72.0537 39.3447 -137.945 86.0381 -186.535c11.7549 -12.1348 15.0166 -15.168 19.6133 -15.168c1.14844 0 2.38281 0.189453 3.85156 0.473633c1.90918 0.380859 3.3418 0.541016 4.38477 0.541016c1.7002 0 2.36133 -0.425781 2.36133 -1.00977
c0 -1.28223 -3.17383 -3.32422 -5.56055 -3.32422c-2.06934 0 -3.10254 -0.533203 -3.10254 -1.59863c0 -1.86426 3.16699 -5.36035 9.50195 -10.4902c4.43652 -3.50781 7.16699 -5.39941 9.24609 -5.39941c2.69531 0 4.29688 3.18164 7.1084 10.1406
c1.29883 3.24609 2.00391 5.25781 2.00391 6.75586c0 1.7832 -0.999023 2.83887 -3.18945 4.38477c-1.92871 1.39355 -2.93652 2.2041 -2.93652 2.67578c0 0.571289 1.47949 0.642578 4.5957 0.642578c8.28906 0 7.72363 6.77148 10.1924 12.3252
c0.144531 0.34668 0.217773 0.728516 0.217773 1.15234c0 3.04785 -3.83301 8.23633 -12.7803 17.8086c-37.9229 40.293 -57.3594 72.291 -72.5283 118.984c-5.73535 17.4199 -12.6143 51.4053 -12.6143 60.6562c0 1.07031 0.0927734 1.80957 0.289062 2.1543
c0.515625 0.822266 2.09863 1.15332 4.44141 1.15332c9.68555 0 32.3408 -5.66406 45.9365 -5.66406c3.00879 0 5.57324 0.276367 7.45605 0.954102c12.1699 4.13379 116.447 24.9531 124.442 24.9531c0.256836 0 0.415039 -0.0214844 0.46582 -0.0654297
c0.474609 -0.710938 2.13379 -7.11035 3.55664 -14.2207c5.27637 -28.8828 24.96 -53.5508 47.877 -69.9209l-43.1367 -50.96c-23.7021 -27.7314 -45.0342 -51.9072 -47.4053 -53.5664c-2.36914 -1.65918 -4.97656 -5.92578 -5.9248 -9.48047
c-0.174805 -0.876953 -92.9014 -218.272 -93.1494 -218.771zM605.447 708.453c0 -1.56934 -5.49121 -22.9873 -5.49121 -24.9766c0 -0.0957031 0.0126953 -0.147461 0.0400391 -0.147461c-3.3916 -7.62305 -31.5605 -79.2676 -35.0791 -89.1201l-4.74121 -12.3252
l-15.8799 8.05859c-13.3926 6.87891 -20.2705 9.07227 -31.9971 11.1406l1.89551 -72.0547c0.949219 -39.582 2.60742 -74.4238 3.79199 -77.2686c0.53418 -1.3877 0.779297 -2.72852 0.779297 -3.84668c0 -1.36426 -0.365234 -2.39844 -1.01562 -2.78906
c-1.71973 -1.07617 -2.51367 -10.6816 -2.51367 -20.8604c0 -12.2656 1.15234 -25.3594 3.22461 -25.3594c1.40625 0 26.2773 10.1885 31.7588 10.1885c0.46582 0 0.790039 -0.0742188 0.950195 -0.233398c2.37012 -2.37012 44.7969 -122.776 44.7969 -126.568
c0 -1.89648 5.68848 -10.4297 12.5615 -18.9619c1.00195 -1.32324 134.494 -181.086 136.278 -181.086c0.00390625 0 0.00683594 0.000976562 0.00878906 0.00195312c0.00878906 0.0195312 0.0136719 0.0478516 0.0136719 0.0878906
c0 4.3457 -56.4248 130.869 -56.4248 136.91c0 1.89648 8.5332 10.1914 18.9619 18.25c41.7158 32.9463 79.4014 83.6689 99.3115 132.969c9.00586 22.9912 19.1982 57.3594 20.8574 72.0547l1.42285 11.6143l-15.1699 -1.89746
c-13.1494 -1.87695 -21.2891 -1.50977 -30.3379 -3.31738c-1.18555 0 -3.79297 -7.82227 -5.92578 -17.0664c-7.34863 -33.1826 -27.4941 -76.3193 -47.6406 -102.629c-5.5459 -7.23828 -8.18848 -11.6748 -8.18848 -13.8945c0 -1.19629 0.768555 -1.74902 2.2627 -1.74902
c1.42188 0 2.36914 -1.18555 2.36914 -2.37012c0 -1.42188 -2.84277 -2.37012 -6.39941 -2.37012c-4.74023 0 -9.9541 -3.55469 -18.4863 -12.0879c-15.7578 -16.2012 -29.6455 -27.415 -33.4893 -27.415c-0.261719 0 -0.475586 0.0517578 -0.642578 0.158203
c-1.18457 0.709961 -5.68848 9.7168 -9.7168 19.9092c-4.2666 10.1914 -11.3779 22.2803 -16.3555 27.7314c-16.8281 18.0137 -83.1943 95.7559 -83.1943 97.415c0 0.948242 5.45215 7.34766 11.8516 14.2207c13.9844 14.9326 25.124 36.9756 27.7314 55.4639
c1.6123 10.2754 2.19629 12.5 5.68359 12.5c0.615234 0 1.32031 -0.0683594 2.1377 -0.174805c1.56445 -0.223633 134.597 -26.7832 136.287 -26.7832c1.42188 0 22.042 2.60645 46.2188 5.9248c71.1064 9.48047 179.424 22.7539 187.246 22.7539
c3.79297 0 7.11035 0.948242 7.11035 2.37012c0 1.18555 -3.55469 2.37012 -7.58398 2.37012c-3.34863 0 -135.359 16.5918 -138.42 16.5918c-1.89648 0 -3.55566 4.74121 -4.50391 11.1406c-8.05859 65.8916 -30.3389 122.539 -67.3135 171.365
c-19.9639 26.543 -43.8359 51.3486 -48.9629 51.3486c-0.230469 0 -0.421875 -0.0507812 -0.574219 -0.152344c-1.18555 -0.711914 -6.16309 -10.666 -10.9033 -21.8057l-8.53223 -20.3838l14.458 -15.6436c25.124 -26.7832 49.0625 -67.7881 60.9141 -104.763
c6.16309 -18.7246 12.3252 -47.4043 12.3252 -57.3594v-7.11035l-12.3252 1.42188c-7.28125 1.00391 -20.7275 5.63281 -29.8799 5.63281c-2.65234 0 -4.94434 -0.388672 -6.62109 -1.36719c-3.55566 -1.89551 -115.666 -25.124 -131.072 -27.2568
c-0.0537109 -0.00585938 -0.106445 -0.00878906 -0.160156 -0.00878906c-2.0791 0 -4.15332 4.51758 -6.00293 13.9932c-3.79102 17.7764 -12.7988 36.0273 -24.1748 48.5889c-4.80762 5.4082 -6.75879 7.86426 -6.75879 9.90332
c0 1.17969 0.651367 2.21777 1.78027 3.60742c36.2646 41.9521 77.5059 88.6455 83.6689 94.0977c4.2666 3.79102 9.00684 10.9023 10.1914 15.4053c0.600586 2.2832 89.1797 212.119 89.8311 214.503c0.0703125 0.196289 0.105469 0.338867 0.105469 0.428711
c0 0.0810547 -0.0273438 0.120117 -0.0820312 0.120117c-2.67773 0 -70.0732 -95.8896 -83.6924 -112.896c-0.00292969 -0.00292969 -0.0107422 -0.00488281 -0.0214844 -0.00488281c-1.62012 0 -83.9834 38.6934 -111.72 38.6934
c-1.36621 0 -2.60059 -0.0947266 -3.68652 -0.291992c-4.50391 -0.947266 -6.40039 -4.2666 -10.666 -19.4346c-3.31152 -11.7178 -4.91211 -17.7539 -4.91211 -20.832c0 -2.65137 1.18652 -3.1084 3.48926 -3.1084c15.1699 0 95.7559 -30.3379 95.7559 -36.0264
c0 -3.79199 -21.5684 -32.708 -26.3086 -35.3154c-2.37012 -1.18555 -4.50391 -4.74121 -4.50391 -7.82227zM499.736 165.202c0.461914 -1.29004 4.04004 -1.93555 10.083 -1.93555c9.49512 0 25.0752 1.59375 44.1943 4.78027
c23.9395 3.79297 72.7656 18.9619 72.7656 22.5166c0 1.66016 -14.458 24.6504 -24.8867 39.3457c0 0.0498047 -0.0615234 0.0732422 -0.178711 0.0732422c-1.01172 0 -6.19824 -1.76562 -12.1465 -4.10254c-19.4355 -7.34766 -48.5898 -13.9844 -69.6836 -15.8799
l-19.9102 -1.89648l-0.710938 -19.9102c-0.167969 -3.86426 -0.24707 -7.66992 -0.24707 -11.0459c0 -6.14844 0.261719 -10.875 0.720703 -11.9453zM367.242 784.3l13.2734 -17.54l22.9902 7.82227c27.0205 9.24316 51.4336 14.458 77.0322 16.8281l18.25 1.65918v45.0342
l-21.8057 -1.42188c-35.5527 -2.13379 -80.1133 -12.5625 -111.399 -25.8359c-6.39941 -2.60645 -11.377 -5.92578 -11.377 -7.11035s5.92578 -9.95508 13.0361 -19.4355z" />
</svg>
