<?xml version="1.0" standalone="no"?>
<!DOCTYPE svg PUBLIC "-//W3C//DTD SVG 1.1//EN" "http://www.w3.org/Graphics/SVG/1.1/DTD/svg11.dtd" >
<svg xmlns="http://www.w3.org/2000/svg" xmlns:xlink="http://www.w3.org/1999/xlink" version="1.1" viewBox="-10 0 1010 1000">
   <path fill="currentColor"
d="M431.333 149.667c15.3008 -4.03418 35.9424 -5.97852 57.4424 -5.97852c30.0225 0 61.7197 3.79102 82.8916 10.9785c41.333 14 87.666 46 110.333 75.666c6 8 8.66699 8.66699 41.333 10.667c19.334 1 44 4.33301 55 7.33301c77 20.667 141 80.667 167 156.667
c7.40723 21.6045 11.3857 52.7354 11.3857 82.1807c0 18.2559 -1.5293 35.8643 -4.71875 50.1523c-15.333 69 -63.667 130 -127 161.334c-40 19.666 -62.667 25 -106.667 26l-36.666 0.666016l-18.334 17.667c-24.333 23.333 -59.333 44.667 -91.666 55.667
c-21.6045 7.40723 -52.7334 11.3848 -82.1777 11.3848c-18.2578 0 -35.8672 -1.5293 -50.1562 -4.71875c-41.666 -9.33301 -82.333 -31.333 -114.333 -62.333l-17 -16.333l-31.333 -1.66699c-119.16 -4.9248 -206.721 -88.9082 -228.667 -187.667
c-3.18945 -14.2881 -4.71875 -31.8965 -4.71875 -50.1523c0 -29.4453 3.97852 -60.5762 11.3857 -82.1807c29.1826 -84.2471 115.686 -165 225.666 -165c16 0 17.334 -0.666992 35.334 -20.333c30.666 -33 72.333 -58.334 115.666 -70zM545 175
c-12.5811 -3.26172 -31.0244 -4.8584 -49.7988 -4.8584c-21.5176 0 -43.4717 2.09766 -57.5342 6.19141c-32.334 9.33398 -62.667 25.667 -84.334 46c-11 10 -20 19.667 -20 21.334c0 1.66602 3.33398 3 7.66699 3c12 0 59.333 21 80.667 35.666
c11 7.66699 26.666 20.667 35 29l14.666 15.334h57.334l14.666 -15.334c20.667 -21.666 58.334 -45.333 88 -56.333c14 -5 25.334 -10.333 25.334 -12c0 -1.33301 -8.66699 -10 -19 -19.333c-22 -19.667 -63.334 -41.334 -92.667 -48.667zM280 269.333
c0 -1.63184 -2.75781 -2.36523 -7.36426 -2.36523c-14.2041 0 -45.9814 6.9707 -68.6357 16.0322c-55.667 22 -101 69.667 -123.333 129.667c-6.85254 18.1387 -10.5371 46.7578 -10.5371 73.625c0 17.5693 1.5752 34.3887 4.87012 47.041
c17.667 69.334 70.667 128 137 152.334c18.3896 6.50684 56.2275 13.7334 69.292 13.7334c2.3291 0 3.87109 -0.229492 4.375 -0.733398c1 -1 -1.33398 -6.66699 -5 -12.667c-17.9775 -30.1367 -28.9678 -73.501 -28.9678 -118.335
c0 -24.6514 3.32324 -49.7471 10.6338 -73.332c2.66699 -8.33301 4.00098 -12.999 4.00098 -17.666s-1.33398 -9.33301 -4.00098 -17.667c-7.46777 -24.0908 -11.4541 -49.9238 -11.4541 -74.7295c0 -9.51562 0.586914 -18.8809 1.78809 -27.9375
c4 -27.666 17.666 -74 24.333 -81.333c1.66699 -1.66699 3 -4.33301 3 -5.66699zM782.667 278.667c-14 -5 -37 -9.66699 -51.334 -11l-25.333 -2l6.66699 13c16.333 32 22.333 60.666 22.333 106.333c0 35.667 -1.33301 47.667 -7.66699 67.333l-7.66602 24.334l7.66602 24
c6.33398 20 7.66699 32 7.66699 67.666c0 47.667 -6 74 -25.667 113l-10 19.667l27.667 -2.66699c96.7012 -8.28906 175.273 -75.7148 198 -165c3.29492 -12.6523 4.87012 -29.4717 4.87012 -47.041c0 -26.8672 -3.68457 -55.4863 -10.5371 -73.625
c-24.333 -65.334 -72.666 -112.667 -136.666 -134zM343.667 275.333c-11.1338 -3.35156 -18.4844 -5.41406 -23.9033 -5.41406c-9.66992 0 -13.1934 6.56445 -21.0967 24.0811c-15.251 32.9277 -20.0195 56.0381 -20.0195 91.0186
c0 27.2969 3.83008 54.9814 7.35254 54.9814c1.33301 0 7.33301 -7.66699 13.667 -17c23.333 -34 70 -68.333 114.666 -83.667c12.334 -4 22.334 -8.33301 22.334 -9.33301c-0.333984 -1 -8 -8 -17.667 -15.333c-20.333 -16.334 -50.333 -31.667 -75.333 -39.334z
M684.667 283c-3.66699 -6 -8 -11.333 -9.66699 -11.667c-0.344727 -0.107422 -0.805664 -0.160156 -1.37109 -0.160156c-8.18359 0 -38.3633 10.8721 -58.6289 21.1602c-11.333 5.66699 -28.333 17.667 -38 26.334l-17.667 15.666l20.334 7.33398
c11 4 29 12.666 39.333 18.666c19.333 11.334 63 52.334 76.333 71.334l7 10l4.33398 -20c1.99805 -9.59277 2.94238 -20.5654 2.94238 -32.1836c0 -36.8262 -9.48535 -80.1299 -24.9424 -106.483zM506 360c3.66699 -6 3.33301 -6.66699 -4.66699 -6.66699
c-12.3916 0 -4.66602 6.55664 -4.66602 12c0 3.66699 5.66602 0.666992 9.33301 -5.33301zM472.667 376.667c-6.66699 -11.334 -13.667 -18.667 -17.667 -19c-0.421875 -0.0439453 -0.883789 -0.0654297 -1.38281 -0.0654297c-10.9482 0 -40.0264 10.2988 -63.6172 22.7314
c-26 13.334 -71 57.334 -83.333 80.667l-8.33398 15.667l8.33398 15.666c4.66602 8.66699 20.333 28 35 43c29.5059 29.5078 62.1904 49.7002 104.333 59.334c7.8125 1.78613 12.6738 3.16016 16.1953 3.16016c6.99707 0 8.71387 -5.42383 17.8047 -23.8271
c2.45996 -4.91895 3.70898 -8.06445 3.70898 -12.4502c0 -4.5293 -1.33203 -10.3828 -4.04199 -20.8828c-3.88379 -14.5645 -5.95801 -39.3105 -5.95801 -62.1777c0 -16.3848 1.06445 -31.8037 3.29102 -41.8223c3.36621 -15.8047 5.18945 -25.5703 5.18945 -33.1885
c0 -9.73535 -2.97754 -15.9658 -9.52246 -26.8115zM607 385.333c-10.333 -6.33301 -29.667 -15 -43 -20l-24.333 -8.66602l-10 16c-8.45996 13.2051 -11.9385 20.0244 -11.9385 30.1807c0 6.25293 1.31836 13.7695 3.60449 24.8193
c3.34082 15.75 5.01172 35.752 5.01172 55.3682c0 21.4834 -2.00391 42.5029 -6.01172 56.9648l-5.66602 21.667l8.33301 17.333c4.66699 9.66699 10.333 17.667 12.333 17.667c9 0 54 -18 71.667 -28.667c23 -13.667 64 -56.333 73.667 -76.333l7.33301 -15l-7.33301 -15
c-9.66699 -20 -50.667 -62.667 -73.667 -76.334zM299.667 530.333c-6.36035 -9.37109 -12.3066 -17.001 -13.7188 -17.001c-4.48242 0 -7.12695 25.5938 -7.12695 52.6357c0 18.9619 1.2998 38.6357 4.17871 50.6992c5.33301 21.666 23.333 62 32.333 72.333
c6 7 7 7 24.667 2.33301c28.667 -7.33301 65 -27.333 87.333 -47.666l20.334 -19l-28 -9c-48.667 -16 -95.334 -49.334 -120 -85.334zM708 570c0 -23 -1.66699 -45.333 -3.33301 -49.667c-3.66699 -8 -3.66699 -8 -13.667 6.66699c-14 20.333 -49 52 -72.333 66
c-10.667 6.33301 -30.667 15.333 -44.334 20.333l-25 8.66699l20.334 19c11.333 10.333 29.666 24 41.333 30c20.877 11.7617 46.9414 21.1895 56.2285 21.1895c1.24023 0 2.18164 -0.168945 2.77148 -0.522461c6 -3.66699 20.667 -31.334 29.333 -56
c7.33398 -20.667 8.66699 -29.667 8.66699 -65.667zM542.333 652.333c-25.666 -25.333 -26.333 -25.666 -43.333 -25.666c-16.667 0 -18 0.666016 -32 17c-26 30.333 -82.333 66 -112.667 71.666c-6 1 -11 3.33398 -11 4.66699c0 1.66699 7 9 15.667 16.667
c18.667 16.333 54.333 34 83 41.333c13.4951 3.41699 33.4688 5.16992 53.1904 5.16992c18.7617 0 37.2959 -1.58691 49.8096 -4.83691c28 -7 70.333 -28.666 89.667 -46l16.333 -14.333l-19.667 -7.33301c-32.333 -11.667 -61.333 -30.667 -89 -58.334z" />
</svg>
