<?xml version="1.0" standalone="no"?>
<!DOCTYPE svg PUBLIC "-//W3C//DTD SVG 1.1//EN" "http://www.w3.org/Graphics/SVG/1.1/DTD/svg11.dtd" >
<svg xmlns="http://www.w3.org/2000/svg" xmlns:xlink="http://www.w3.org/1999/xlink" version="1.1" viewBox="-10 0 1010 1000">
   <path fill="currentColor"
d="M456.91 148.551c-1.96973 0 -20.5215 30.7969 -23.0078 30.7969c-1.44922 0 -2.53613 0.543945 -2.53613 1.26855c0 0.905273 -3.80371 3.0791 -8.69531 5.07227c-4.50586 1.7334 -47.4639 30.0205 -47.4639 19.0215c0 -4.34766 5.61621 -16.3037 7.6084 -16.3037
c2.58496 0 9.34766 -16.6055 11.2324 -19.7471c3.29297 -5.06738 17.3496 -33.6631 21.7393 -37.3184c2.35449 -1.81152 15.5791 -23.7324 15.5791 -25.7246c0 -1.7832 18.1621 -32.2021 18.8408 -34.2393c0.543945 -1.99316 2.71777 -5.43457 4.70996 -7.42773
c4.34766 -4.8916 18.1162 -27.1738 18.1162 -29.71c0 -0.90625 2.71777 -2.89844 5.97852 -4.34766c7.6084 -3.44238 9.05762 -3.26074 11.7754 0.362305c10.5068 15.7607 25.543 38.7676 28.9854 44.7461c6.69336 11.8467 6.14551 6.35059 15.0361 20.6523
c15.5801 24.6377 29.5293 44.7461 31.8838 46.1953c1.26855 0.724609 2.35547 2.17383 2.35547 3.26074c0 3.44629 12.376 19.4102 11.2314 24.2754c-0.905273 5.43457 -2.89844 5.61621 -14.3115 0.724609c-6.52148 -2.7168 -38.4053 -10.6885 -43.1162 -10.6885
c-1.97754 0 -36.3701 -50.8867 -36.7754 -51.6299c-1.81152 -3.26074 -1.99219 -3.26074 -2.17383 -0.362305c0 1.62988 -3.0791 6.52148 -6.88379 10.8691c-7.79004 8.51465 -18.4785 25 -18.4785 28.0801c0 1.26758 -0.724609 2.17383 -1.62988 2.17383zM482.997 171.377
c22.8496 -2.68848 68.9658 3.16016 76.4492 10.8691c1.44922 1.26855 4.16699 2.53613 5.97852 2.53613c3.0791 0 10.3262 4.5293 36.7754 23.0078c12.2139 8.42383 15.167 16.0479 34.2383 19.3838c7.06543 1.26855 15.0371 -0.180664 30.4355 -5.79688
c10.3262 -3.80469 15.3984 -2.89844 13.2246 2.53613c-1.26855 3.44238 2.89844 66.3047 5.07227 76.6309c3.08008 14.3115 2.17383 15.0361 -17.9346 13.7676c-19.1729 -1.16797 -30.9023 1.22949 -40.0361 8.33301c-6.88477 5.97852 -25.3623 19.7471 -26.2686 19.7471
c-0.542969 0 -5.25391 3.26074 -10.3262 7.06445c-5.25391 3.98633 -13.2246 8.15234 -17.7539 9.4209c-4.52832 1.26758 -8.69531 2.7168 -9.23828 3.44141c-4.87305 6.82129 -63.3398 12.001 -82.9717 9.23926c-36.8428 -4.70312 -31.8008 -7.39062 -55.6162 -17.3906
c-13.043 -5.97852 -18.6592 -9.60156 -28.9854 -19.7471c-14.957 -14.957 -27.3496 -24.9541 -48.5508 -27.3545c-9.23828 -1.08691 -11.4131 -0.543945 -18.4775 3.44141c-4.34863 2.53711 -10.5078 4.71094 -13.7686 4.71094v-15.9424
c0.956055 -11.4785 -3.76172 -70.1973 0.543945 -78.8047c1.99219 -3.98535 5.97754 -3.98535 11.9561 0.362305c7.79004 5.25391 18.1162 7.97168 26.2686 6.70312c7.06445 -1.26758 28.2607 -9.60156 30.2529 -11.9561
c5.07324 -6.34082 51.4492 -32.6094 57.4277 -32.6094c1.26855 0 2.35547 -0.724609 2.35547 -1.62988c0 -1.44922 25.7246 -7.97168 38.9492 -9.96387zM512.889 215.218c0 -1.81152 -28.4424 -1.99316 -29.3486 0c-0.180664 0.724609 -7.42676 3.26074 -15.9414 5.61523
c-20.8516 5.32324 -60.9561 23.4648 -73.1885 34.9639c-6.15918 5.79688 -11.7754 10.5078 -12.8623 10.5078c0 0 22.1602 16.1816 25.543 19.5645c22.4639 22.1016 72.4639 37.1377 109.059 32.79c25.3623 -3.0791 63.7676 -18.8408 77.7168 -31.7031
c6.83691 -6.24023 11.835 -10.3545 17.7539 -15.2168c-5.79688 -5.07227 -14.2871 -12.793 -19.3838 -17.21c-5.25391 -4.8916 -59.4209 -31.5225 -71.5586 -35.3262c-4.34766 -1.26855 -7.78906 -3.08008 -7.78906 -3.98535zM461.076 267.029
c1.12207 -18.3994 9.16602 -38.6074 29.3486 -36.4131c18.623 1.77344 33.333 10.4404 33.333 32.6084c0 14.5996 -3.40234 17.8496 -7.06543 25.9062c-2.35449 5.25293 -11.0508 7.9707 -25.3623 7.9707c-12.8623 0 -16.4854 -1.63086 -25.9053 -11.5947
c-5.07324 -5.25293 -5.25391 -6.33984 -4.34863 -18.4775zM241.149 432.79c0 -1.3457 18.1152 -32.1396 18.1152 -33.1523c0 -1.81152 11.2324 -19.9277 13.7686 -21.9199c1.08691 -1.08691 4.70996 -6.88477 7.9707 -12.6816
c13.2246 -24.8184 18.1162 -31.3408 23.3701 -32.6084c8.77637 -1.64746 14.4307 -10.0801 23.5508 -13.5869c8.87598 -3.62305 22.8262 -4.70996 24.4561 -1.99316c1.26855 1.81152 -1.99219 11.4131 -4.16699 12.8623
c-0.197266 0.118164 -39.7383 74.1885 -39.8545 74.2754c-2.24219 1.3457 -31.8916 58.1436 -33.1523 59.9639c-1.81152 2.35547 -5.43457 8.87695 -8.33301 14.3115c-4.5293 8.87695 -5.97852 10.3262 -13.9492 12.8623
c-21.5586 7.24609 -42.5732 12.6816 -44.3848 11.5947c-3.44141 -2.17383 -1.81152 -13.7686 2.89844 -22.2832c16.124 -28.4414 26.6309 -45.6523 28.0801 -45.6523c0.90625 0 1.63086 -0.905273 1.63086 -1.99219zM657.815 362.862
c0 -1.47266 -16.3037 -27.6416 -16.3037 -29.8916c0 -12.083 41.666 -15.5703 41.666 -8.51465c0 0.801758 23.5508 38.2773 23.5508 38.7686c0 0.362305 1.81152 2.71777 4.16699 5.07227c5.16211 6.02246 26.7285 42.6846 32.0654 48.7324
c10.5205 11.1768 11.8623 18.5518 22.6445 35.8691c5.97852 9.41992 12.1377 19.3838 13.4062 22.1016c1.44922 2.89844 3.26074 5.07227 3.98535 5.07227c2.34082 0 18.2734 26.9072 4.70996 22.6455c-8.15234 -2.53613 -26.9932 -3.08008 -30.9785 -0.90625
c-8.61133 4.5127 -28.2607 -25.9141 -28.2607 -27.8984c0 -1.81152 -18.4785 -30.0723 -19.7461 -30.0723c-0.543945 0 -2.71777 -3.08008 -4.70996 -6.88477c-4.51758 -8.21094 -21.083 -33.9648 -25.1816 -42.5723c-1.99219 -3.62305 -3.98535 -6.70215 -4.70996 -6.70215
c-1.44922 0 -16.3047 -22.8262 -16.3047 -24.8193zM598.033 400.182c0 2.21973 21.7393 28.1104 21.7393 31.8838c0 1.44922 13.2246 21.1953 16.4854 24.6377c8.23438 7.40918 14.3135 22.1729 21.9199 33.877c15.5029 23.8477 13.8516 29.4854 -5.79688 39.3115
c-7.06543 3.44141 -13.7676 7.9707 -14.8555 9.96387c-1.26758 1.99219 -3.44141 3.62305 -4.70996 3.62305c-1.26758 0 -9.60156 7.06543 -18.4775 15.7607c-21.1963 21.0146 -24.2754 23.3691 -32.2471 27.5361c-11.4131 5.79688 -21.5576 6.52148 -33.333 1.99316
c-5.79688 -2.1748 -11.0508 -4.8916 -11.7754 -6.16016c-2.35547 -3.80371 -17.21 -12.5 -18.4785 -10.6885c-0.787109 1.05078 0.385742 77.707 0.181641 78.624c-0.90625 4.34766 -16.3047 11.0498 -27.5361 11.9561c-5.61621 0.543945 -16.667 -0.362305 -25 -1.99316
c-8.33398 -1.62988 -15.9424 -2.35449 -16.8486 -1.81152c-3.49512 2.10059 3.91602 -84.8828 -2.17383 -87.3184c-1.62988 -0.543945 -8.87598 0.724609 -16.123 2.89844c-19.3838 5.97852 -36.2314 6.70312 -48.5508 1.99316
c-12.3184 -4.5293 -32.9707 -21.1963 -52.5361 -42.2109l-14.6738 -15.7607c3.6084 -24.7334 4.30078 -19.3955 18.2969 -45.29c7.24707 -13.4053 14.3115 -25.543 15.7607 -26.9922c1.4502 -1.44922 4.5293 -6.34082 6.70312 -11.0508
c13.9746 -28.5078 26.9453 -47.0518 34.0586 -60.6885c2.03418 -4.06836 10.2715 -22.0146 15.3984 -13.0439c1.99219 3.80469 22.8262 15.0371 35.6885 19.5654c9.41992 3.26074 16.3037 3.98535 48.1885 4.70996c44.1514 0.901367 55.9365 -1.45117 82.0645 -11.4131
c3.62305 -1.44922 7.06543 -2.7168 7.60938 -2.7168c1.26758 0 19.0215 26.8115 19.0215 28.8047zM899.12 737.5c-1.96191 -2.11328 -9.41992 -10.5654 -9.41992 -12.3184c0 -0.725586 -3.62402 -7.06543 -8.33398 -14.3125c-8.87695 -14.4922 -8.87695 -17.3906 0 -24.8184
c4.8916 -3.98535 20.6523 -12.1377 23.5508 -12.1377c4.25684 0 14.0449 21.0986 20.1084 27.7178c4.16699 4.34766 15.3994 20.2891 15.3994 21.9199s16.4854 27.1738 18.6592 29.167c4.8916 4.16602 14.1299 21.376 12.3184 23.1885
c-0.905273 0.905273 -42.21 1.99219 -103.804 2.35449c-70.7666 0.6875 -730.034 6.15918 -801.631 6.15918c-29.71 0 -29.5293 0 -20.4707 -14.8545c3.0791 -4.70996 5.43457 -9.60156 5.43457 -10.5078c0 -1.08691 1.44922 -3.26074 3.26074 -5.07227
c2.89844 -2.89844 17.0293 -26.0869 18.6592 -30.4346c0.362305 -1.08691 4.34863 -8.15234 8.69629 -15.7607c6.88379 -11.957 8.87695 -14.1309 14.1299 -15.0361c6.34082 -1.26855 5.07324 -2.17383 29.167 19.2021c4.8916 4.34863 4.34766 10.1455 -1.44922 18.4785
c-1.99316 2.71777 -3.62305 5.43457 -3.62305 5.97852c0 0.542969 21.7393 0.905273 48.5508 0.724609c44.0215 -0.181641 47.2822 -0.362305 35.6885 -2.35547c-14.4932 -2.53613 -33.5146 -8.33301 -33.5146 -10.3262c0 -0.724609 -2.71777 -2.17383 -5.79688 -3.26074
c-9.23926 -3.26074 -40.7617 -21.7393 -47.1016 -27.7168c-11.0508 -10.3262 -25.9062 -20.834 -33.6963 -23.9131c-9.60156 -3.62305 -29.166 -3.80469 -37.8623 -0.181641c-9.96387 4.16699 -13.043 3.44238 -15.9414 -3.44141
c-1.44922 -3.44238 -2.17383 -7.79004 -1.44922 -9.4209c0.724609 -1.81152 1.26758 -18.2969 1.26758 -36.7754v-33.6953c12.8906 0.859375 30.7998 4.02051 43.4785 0c5.61621 -1.81152 10.1445 -3.98535 10.1445 -4.70996c0 -0.90625 3.62305 -3.26074 7.97168 -5.43457
c8.48145 -3.88867 33.8516 -25.7832 41.3037 -30.2539c2.89844 -1.63086 5.07324 -3.62305 5.07324 -4.34766c0 -4.93945 74.2598 -26.1055 87.8623 -28.623c37.1094 -5.80664 76.3252 8.68262 98.3691 28.0791c4.5293 3.98535 11.2314 9.96387 14.8555 13.0439
c3.80371 3.26074 7.6084 5.97754 8.51367 5.97754c0.90625 0 8.69629 7.06543 17.0293 15.9424c16.4854 17.21 22.4639 20.29 38.9492 20.29c6.34082 0 12.1377 -1.63086 19.7461 -5.43457c14.3115 -7.06543 19.0225 -7.06543 19.0225 -0.181641
c0 2.89844 -1.26855 8.15234 -2.71777 11.5947c-1.99316 4.89062 -2.71777 13.9492 -2.71777 35.6885c0 33.8799 5.46484 40.9268 -27.3545 34.0576c-15.7607 -3.26074 -32.9707 0 -51.8115 9.78223c-8.33398 4.16699 -15.0361 8.15234 -15.0361 8.87695
c0 2.89844 -27.1738 18.8408 -42.9355 25.1816c-24.748 9.80469 -12.3643 8.8623 -41.123 15.9414h12.8623c43.1162 1.63086 588.044 7.60938 610.87 5.97852h16.8477zM340.787 630.797c0 -1.95508 -12.6816 -13.5674 -12.6816 -15.9414
c0 -4.46777 -33.7217 -27.0225 -43.1162 -36.4131c-13.2373 -12.2217 -55.5938 -21.3057 -80.0723 -14.3115c-8.69531 2.53613 -27.5361 11.5938 -33.5146 16.3037c-6.70215 5.07227 -39.1299 26.4492 -40.3984 26.4492c-3.0791 0.181641 -11.0508 8.51465 -11.9561 12.6816
c-1.08691 4.89062 -1.08691 4.70996 22.4639 22.1016c5.43457 3.98535 10.3262 7.78906 10.8691 8.51465c4.8916 6.88379 32.6084 18.6592 57.9707 24.6367c23.7324 5.79785 39.8555 5.43555 59.7832 -0.905273c13.043 -4.16699 40.7607 -18.6592 45.833 -23.7314
c1.24707 -1.38574 24.8193 -17.459 24.8193 -19.3848zM213.976 587.682c12.8623 -4.8916 32.7891 -1.8125 40.2168 6.15918c12.6816 13.9492 11.0508 45.1084 -2.89844 59.2393c-3.80469 3.80371 -6.15918 4.52832 -15.3984 4.52832
c-5.97852 0 -13.0439 -0.905273 -15.9424 -1.99219c-5.25293 -1.99316 -20.4707 -16.667 -23.9131 -23.0078c-2.17383 -4.16602 -2.53613 -17.21 -0.905273 -29.71c1.26758 -8.51465 0.724609 -8.15234 18.8408 -15.2168zM718.686 514.493
c27.8984 -5.79785 60.8691 -3.98633 81.3398 4.52832c13.1562 5.71973 27.123 20.9355 40.7617 28.0801c25.2041 12.6025 39.9141 45.29 76.8115 45.29c15.6611 0 31.2998 -11.8643 41.123 -17.3916c10.377 -4.99707 7.16602 6.80176 5.61621 19.2031
c-1.26855 8.69531 -2.1748 19.9277 -2.1748 25.1807c0 5.07227 -0.724609 9.23926 -1.81152 9.23926s-1.81152 5.07227 -1.81152 11.7754s0.724609 11.7754 1.81152 11.7754s1.81152 2.71777 1.81152 5.79688c-0.289062 7.81543 -10.4795 15.3691 -18.4775 11.2324
c-11.9141 -6.30859 -25.9912 -5.26367 -40.7607 0.362305c-14.4932 5.25293 -38.5869 18.1162 -38.5869 20.4707c0 3.83496 -23.4336 13.9453 -28.9863 17.0293c-6.52148 3.44141 -19.9268 8.69531 -29.8906 11.4131c-24.1162 7.01562 -28.6172 11.5938 -67.9355 11.5938
c-18.6592 0 -38.043 -2.53613 -39.6738 -5.25391c-3.58105 -5.11719 -76.2676 -30.4072 -76.2676 -34.6006c0 -1.08691 -4.70996 -4.16699 -10.3262 -6.70312c-10.3262 -4.70996 -10.5068 -4.70996 -28.623 -2.35547c-18.2021 2.31738 -35.3701 3.75977 -50.5439 6.52246
c-4.89062 0.905273 -7.42773 0.542969 -8.51465 -1.26855c-2.35449 -3.80469 -1.44922 -16.3047 1.44922 -17.3916c1.8125 -0.724609 2.35547 -8.69531 2.35547 -37.8623c0 -34.6016 0.181641 -36.9561 3.44238 -38.7676c5.61523 -2.89844 8.15234 -2.17383 18.1152 4.52832
c7.42773 5.07324 10.8701 6.34082 18.1162 6.34082c11.5947 0 32.9707 -10.6885 39.8555 -19.9277c8.87695 -11.9561 32.6084 -34.2393 37.6807 -35.5068c2.89844 -0.543945 6.70312 -2.89844 8.69629 -5.25391c7.78906 -8.87695 40.2168 -22.8262 65.3984 -28.0791z
M772.309 559.782c-21.7393 -7.06445 -34.2393 -7.24609 -53.8047 -0.180664c-17.21 6.15918 -29.8906 13.043 -36.9561 20.29c-2.89844 2.89844 -5.79688 5.25293 -6.52246 5.25293c-2.89844 0 -46.1953 35.6885 -46.1953 38.2246c0 3.4541 23.8594 23.8223 26.4492 26.2686
c13.4062 13.0439 53.8047 27.5361 81.3408 29.167c33.5146 1.99219 81.5215 -11.4131 100.543 -28.0801c4.89355 -4.12012 20.6279 -14.6211 23.1885 -19.7461c0.964844 -3.37988 -14.7002 -18.6963 -16.4854 -21.1963
c-3.71289 -5.19824 -28.3486 -25.6904 -32.9707 -29.8906c-7.42773 -6.88477 -22.4639 -14.8555 -38.5869 -20.1094zM749.301 652.174c-18.6533 0 -29.8906 -22.3994 -29.8906 -39.3115c0 -21.4922 20.1943 -37.1221 44.5654 -26.0869
c7.24609 3.26074 17.0283 13.7686 17.0283 17.9346c0 1.26855 0.90625 2.17383 1.81152 2.17383c1.08691 0 1.81152 3.98535 1.81152 9.05859c0 4.89062 -0.724609 9.05762 -1.44922 9.05762c-0.905273 0 -2.53613 3.26074 -3.80371 7.06543
c-2.35547 7.9707 -8.51465 13.7676 -16.4854 15.5791c-3.08008 0.724609 -5.43555 1.99316 -5.43555 2.89941c0 0.905273 -3.62305 1.62988 -8.15234 1.62988z" />
</svg>
