<?xml version="1.0" standalone="no"?>
<!DOCTYPE svg PUBLIC "-//W3C//DTD SVG 1.1//EN" "http://www.w3.org/Graphics/SVG/1.1/DTD/svg11.dtd" >
<svg xmlns="http://www.w3.org/2000/svg" xmlns:xlink="http://www.w3.org/1999/xlink" version="1.1" viewBox="-10 0 1010 1000">
   <path fill="currentColor"
d="M500.283 14.5088l17.9463 50.8379c9.24023 27.7227 19.1416 51.8154 21.7822 53.4648c2.63965 1.65039 8.91016 3.30078 13.5312 3.30078c4.62012 0 20.4619 2.96973 35.6436 6.93066c39.9092 9.97754 24.9678 -0.56543 50.4951 -5.94043
c15.1904 -2.0957 32.3359 13.0479 33.0029 27.0625c0.330078 8.91113 3.30078 12.2109 26.4023 26.4023c14.5215 9.24121 28.3828 19.1426 31.3535 22.1123c4.62012 5.28027 8.58105 3.96094 57.4258 -20.792c28.7129 -14.1914 52.4756 -25.4121 52.4756 -24.4219
c0 0.989258 -11.2217 24.4219 -25.083 52.1445l-25.082 50.4951l18.4814 28.7129c16.832 25.7432 20.1318 28.7129 28.7129 28.7129c13.5312 0 29.373 15.8418 29.373 29.373c0 5.61035 -3.30078 13.8613 -7.9209 19.1416
c-7.26074 8.25098 -7.59082 9.90137 -3.62988 20.792c2.30957 6.27148 5.94043 21.7822 8.25 34.6543c6.60059 37.293 3.63086 34.6533 58.0859 52.4746c27.0625 8.91113 54.7383 23.1621 59.3584 24.8125l-112.163 38.2236v20.792
c-3.62988 20.4629 -7.59082 20.4629 0.660156 22.7725c7.26074 1.65039 12.541 -0.330078 47.1943 -18.1514c0.990234 -0.330078 3.62988 2.96973 5.61035 7.59082c4.57227 9.65234 -2.63184 63.0859 -0.660156 74.917c1.65039 9.24121 0.330078 11.8818 -7.9209 18.1523
c-9.57031 6.93066 -10.5605 6.93066 -20.4619 2.30957c-5.61035 -2.96973 -11.2207 -4.29004 -12.2109 -3.2998c-1.90137 1.90137 51.8154 84.5352 51.8154 85.1484c0 1.32031 -2.31055 4.62012 -5.28125 7.26074c-4.29004 4.29004 -14.5215 5.28027 -61.0557 5.28027
c-30.6934 0 -55.7754 0.660156 -55.7754 1.65039c0 0.785156 36.5234 75.2393 34.3174 78.5469l-122.478 -61.6016c-7.26074 5.28125 -23.3916 28.9297 -32.3018 34.21c-13.2012 7.59082 -16.832 11.5508 -17.4922 18.8115
c-1.65039 20.4619 -31.3525 33.333 -45.874 20.1318c-5.61133 -4.9502 -8.25098 -4.9502 -36.9639 2.64062c-16.832 4.29004 -34.6533 7.9209 -39.6045 7.9209c-8.58105 0 -9.57031 1.98047 -28.3828 59.4062c-10.5605 32.3428 -20.4619 58.415 -21.1221 57.4258
c-0.990234 -0.990234 -10.2305 -27.3936 -20.1318 -58.416l-18.1514 -56.4355h-25.7432c-13.8613 -2.31055 -32.3428 -10.2314 -40.5938 -13.2021c-14.5215 -4.9502 -15.8418 -4.9502 -23.7627 1.32031c-9.24121 7.26074 -29.043 8.58105 -37.2939 2.31055
c-7.26074 -5.28027 -12.8711 -16.832 -13.2012 -26.0723c0 -5.61133 -5.94043 -11.5518 -25.4121 -24.0928c-13.8613 -8.91113 -27.0625 -16.832 -29.043 -17.4922c-1.12207 -0.374023 -113.531 54.5137 -113.531 54.126c0 -1.32031 8.25098 -18.4824 18.1514 -38.2842
l18.1523 -36.3037h-35.6436c-35.9736 0 -43.5645 -2.30957 -43.5645 -12.8711c0 -4.9502 36.9639 -70.627 45.2139 -80.1982c9.95605 -10.665 -23.251 -9.05566 -31.0225 -6.60059c-9.57129 2.9707 -12.2119 2.64062 -17.8223 -2.96973
c-5.61035 -5.61133 -6.27051 -11.2217 -6.27051 -43.8945c0 -43.2344 1.98047 -46.8652 22.4424 -43.2344h12.8711v-42.5742l-118.937 -34.4307c0 -4.46582 108.698 -41.7939 110.686 -44.7773c1.32031 -1.98047 2.64062 -7.59082 2.64062 -12.2109
c0 -4.95117 5.11035 -21.876 7.59082 -38.2842c1.80957 -11.9756 0 -24.4229 0 -36.6338c-18.4814 -16.502 -3.96094 -50.165 21.7822 -50.165c10.5605 0 12.541 -1.65039 19.4717 -14.1914c3.96094 -7.59082 13.2012 -21.4521 20.1318 -30.3633l12.542 -16.501
l-26.0732 -52.4756c-14.1914 -28.7129 -25.4121 -52.8057 -24.752 -53.7949c0.990234 -0.660156 25.4121 10.5605 54.125 25.082l52.8057 26.0723l20.792 -14.5215c11.5508 -7.91992 23.4326 -15.1807 26.7324 -16.1709c3.96094 -1.32031 6.27051 -5.28125 6.27051 -10.2314
c0 -28.3828 34.9834 -44.2246 52.1455 -23.4326c3.62988 3.96094 6.60059 3.96094 24.752 -0.989258c11.2217 -3.30078 31.0234 -7.59082 44.2246 -9.57129h23.7627zM544.962 159.076c-21.1221 -31.3535 -40.5938 -56.7656 -42.9043 -56.7656
c-1.98047 0 -6.27051 2.63965 -8.91113 5.61035c-11.5508 13.2012 -85.4785 143.895 -82.8379 146.204c1.32031 1.65039 14.1914 -4.29004 28.3828 -12.541c21.1221 -12.8711 27.3926 -18.8115 37.624 -35.3135c6.60059 -10.8906 15.5107 -23.7627 19.4717 -29.043v-8.91113
l15.8418 11.5518c13.2383 17.9668 18.0752 31.8789 43.8945 38.6133c10.5605 2.64062 21.4521 5.61133 24.0918 6.27148c10.2314 2.63965 3.30078 -10.2314 -34.6533 -65.6768zM563.113 232.014c-37.293 -15.1816 -91.0889 -7.26074 -131.683 19.8018
c-28.7129 19.1416 -41.2539 22.7725 -58.416 16.8311c-6.93066 -2.63965 -13.8613 -4.62012 -14.8516 -4.62012c-3.62988 0 -7.26074 79.5381 -3.95996 82.8379c1.64941 1.65039 6.60059 0.660156 12.2109 -1.97949c17.4922 -9.24121 35.6436 -3.63086 59.0762 17.8213
c44.9941 41.7334 129.109 43.6104 179.868 6.27051c27.0625 -20.1318 34.3232 -23.1016 53.4648 -21.7822h14.8516v-38.6133c-0.660156 -21.7822 -3.63086 -40.9238 -4.9502 -42.2441c-1.32031 -1.65039 -5.61133 -1.32031 -9.24121 0.660156
c-3.63086 1.97949 -13.5312 3.62988 -21.4521 3.62988c-12.541 0 -18.1514 -2.64062 -35.6436 -15.5117c-11.5508 -8.58105 -29.373 -18.8115 -39.2744 -23.1016zM386.033 351.236c-1.98047 -5.94043 -6.08789 -4.70215 -24.5693 4.20898
c-18.4824 8.91113 -18.8125 8.91113 -58.7461 75.5781c-35.3135 59.0752 -45.5449 81.1875 -37.2939 80.1973c1.32031 0 11.8809 -3.2998 23.7627 -7.26074h21.4521zM677.965 363.696c-4.9502 -7.9209 -8.91016 -10.5605 -15.1816 -10.2305
c-11.8809 0.65918 -21.4512 2.96973 -24.752 6.27051c-2.64062 2.30957 66.667 115.841 85.1484 139.934c6.60059 8.25098 9.57129 9.57129 25.083 9.57129c9.57031 0 18.1514 -1.65039 18.4814 -3.30078c1.73633 -4.3418 -87.4463 -139.845 -88.7793 -142.244z
M443.972 394.06c-6.93066 -4.29102 -13.5312 -7.9209 -14.1914 -7.9209c-2.31055 0 -69.3066 119.142 -71.9473 127.723c-1.65039 5.94043 2.64062 11.5508 25.4131 33.333c31.0225 30.0332 38.6133 33.0039 66.3359 25.7432
c10.5615 -2.64062 20.1328 -4.29102 21.1221 -3.63086c1.32031 0.660156 1.65039 17.8223 0.990234 37.624v35.9736h19.8018c16.502 1.97949 23.4326 3.30078 32.0137 -0.990234h10.5615v-39.9336c-0.660156 -18.8125 -1.65039 -34.3232 -1.65039 -34.3232
c0.330078 0 6.27051 3.62988 12.8711 8.25c29.1084 19.6494 47.7744 2.71973 66.0068 -15.5107c9.24023 -8.91113 23.7617 -20.793 32.6729 -26.7334s16.502 -12.2109 17.1621 -14.1914c0.990234 -2.63965 -68.9775 -114.852 -76.2383 -122.442
c-0.330078 -0.330078 -9.90039 2.31055 -21.4521 5.61133c-14.1914 4.62012 -30.0322 6.60059 -50.8242 6.60059c-34.3242 0 -50.4951 -3.63086 -68.6475 -15.1816zM342.321 528.713c-38.6367 -20.373 -59.1914 -12.8789 -99.6699 -0.660156
c-26.4023 8.25098 -35.9736 13.2012 -57.4258 29.7031c-27.3926 21.1221 -44.5537 28.0527 -62.376 24.4219h-11.5508v31.6836c-1.32031 39.9336 -0.660156 43.8945 13.2012 38.9443c17.4912 -5.94141 33.6631 -1.32031 57.4258 16.8311
c26.4023 19.8018 51.8154 32.6738 75.2471 38.6143c16.832 3.95996 16.502 3.95996 -20.792 4.29004c-39.9336 0.330078 -47.8545 -1.65039 -42.9043 -9.57031c1.98047 -2.64062 3.30078 -6.60059 3.30078 -8.25098c0 -4.95117 -26.7334 -25.083 -30.0332 -22.7725
c-3.96094 2.31055 -45.875 73.2676 -45.875 77.2275c0 2.31055 91.75 2.64062 269.968 1.65039c391.749 -2.64062 528.713 -4.9502 528.713 -9.24121c0 -4.62012 -52.8057 -84.8184 -55.7764 -84.8184c-2.63965 0 -26.7324 16.1719 -26.7324 18.1523
c0 0.65918 4.29102 8.58008 9.90137 17.1611s9.90039 19.4717 9.90039 20.792h-569.307l31.3535 -10.8906c18.1514 -6.27051 41.584 -17.4922 55.7754 -26.7334c28.7129 -18.8115 40.2637 -22.4414 65.6768 -21.1221h18.8115v-28.7129
c0.990234 -16.501 5.28027 -33.333 6.60059 -37.623c2.31055 -7.26074 1.98047 -7.59082 -5.28027 -5.94043c-4.29102 0.989258 -12.541 3.62988 -18.1523 5.94043c-15.5107 6.27051 -25.4121 1.64941 -54.7852 -25.083
c-14.8516 -13.5312 -34.9834 -28.7129 -45.2148 -33.9932zM792.486 535.974c-27.5752 -25.8516 -77.5176 -26.5361 -123.762 -3.63086c-30.6934 15.1816 -33.9941 17.8223 -53.4658 38.2842c-24.752 25.7432 -39.6035 31.0234 -57.0957 20.1318
c-6.60059 -4.29004 -13.2012 -6.27051 -14.8516 -4.62012c-1.32031 1.65039 -3.2998 21.4521 -4.29004 43.5645v40.9238v-1.98047c4.29004 -0.989258 26.0723 -2.96973 41.9141 -3.95996c25.7422 -1.98047 29.7031 -1.65039 37.9541 4.62012
c13.2012 9.57129 71.9473 32.6738 88.7783 34.6533c17.1621 1.98047 52.8057 -2.63965 73.2676 -9.24023c8.25098 -2.9707 30.3633 -14.1914 49.5049 -25.083c33.9932 -19.4717 34.9834 -19.8018 54.7852 -18.4814c11.2217 0.990234 21.7822 0.660156 23.7627 -0.660156
c0 0 13.543 -99.6484 -0.660156 -76.5674c-0.990234 1.31934 -8.58105 5.28027 -16.832 8.58008c-21.7812 8.25098 -38.6133 2.64062 -64.6855 -20.1318c-10.8916 -9.90039 -20.793 -17.8213 -22.1123 -17.8213c-1.32031 0 -6.60059 -3.96094 -12.2119 -8.58105z
M835.061 690.429c-2.63965 -3.95996 -5.94043 -7.26074 -7.26074 -6.93066c-5.94043 0.330078 -16.1709 7.26074 -19.8018 13.2012c-3.62988 5.94141 -2.96973 6.27148 14.1914 6.27148c19.4717 0 20.792 -1.32031 12.8711 -12.542zM417.239 309.241
c-14.498 -4.9707 60.8877 -50.4229 100 -47.5254c17.8213 1.32031 67.3262 24.7529 84.4883 39.6045h10.8916l-12.2119 19.4717c-16.1719 12.8711 -40.9238 24.4229 -63.0361 29.373c-31.3535 7.26074 -74.5879 -4.62012 -101.98 -27.7227
c-7.9209 -6.27051 -15.8408 -12.2109 -18.1514 -13.2012zM526.811 283.498c-19.4727 -14.1914 -35.9736 -9.57031 -42.9043 12.2119c-5.28125 15.8408 -1.98047 26.4023 10.2305 33.0029c13.5312 6.93066 31.0234 3.62988 37.9541 -6.93066
c7.59082 -11.5508 4.9502 -31.0234 -5.28027 -38.2842zM241.002 571.947c18.1514 -10.2314 22.1113 -10.8916 43.2334 -10.2314c16.502 0.990234 27.7236 3.63086 39.2744 9.24121c16.502 8.25098 54.7852 41.9141 54.7852 47.8545
c0 2.9707 -32.3428 25.7432 -48.1846 33.9941c-24.752 12.8711 -57.7559 11.2207 -93.0693 -4.95117c-18.1514 -8.58008 -50.165 -32.0127 -50.165 -36.9639c0 -4.29004 30.0332 -25.7422 54.126 -38.9434zM302.388 586.799
c-8.58105 -6.93066 -27.7227 -7.59082 -39.6045 -1.65039c-10.2305 5.28027 -13.2012 28.0527 -4.9502 40.5938c7.26074 10.8916 25.083 19.1426 35.9736 16.502c18.8125 -4.62012 24.4229 -42.5742 8.58105 -55.4453zM693.146 562.706
c34.9834 -17.4912 72.9375 -6.27051 113.531 33.6641c24.0928 23.4316 24.0928 23.4316 -1.64941 40.9238c-44.8848 31.0225 -110.892 30.6924 -154.456 -0.660156c-7.9209 -5.94043 -17.1611 -14.1914 -19.8018 -18.1523c-4.62012 -7.26074 -4.29004 -8.25 20.792 -27.7227
c13.8613 -10.8906 32.6729 -23.7617 41.584 -28.0527zM750.242 589.109c-13.8613 -13.8623 -25.7422 -14.8516 -36.9639 -3.30078c-11.5508 11.2207 -11.2207 28.0527 0.990234 41.584c8.25098 9.24121 10.8916 10.2314 21.1221 8.25098
c13.8613 -2.64062 21.7822 -10.2314 24.4229 -24.4229c1.98047 -8.91016 0.330078 -12.2109 -9.57129 -22.1113z" />
</svg>
