<?xml version="1.0" standalone="no"?>
<!DOCTYPE svg PUBLIC "-//W3C//DTD SVG 1.1//EN" "http://www.w3.org/Graphics/SVG/1.1/DTD/svg11.dtd" >
<svg xmlns="http://www.w3.org/2000/svg" xmlns:xlink="http://www.w3.org/1999/xlink" version="1.1" viewBox="-10 0 1010 1000">
   <path fill="currentColor"
d="M287.592 539.293c2.51758 0 15.6396 -66.5957 16.1318 -73.3271v-15.3174c3.58496 -1.79297 15.8076 -5.37695 18.0889 -7.98438c1.52832 -1.76367 16.458 -9.92773 16.458 -10.7549c0 -0.489258 -2.93359 -4.23633 -6.51855 -8.31055
c-8.31055 -9.28809 -16.6211 -26.2354 -17.5996 -35.8486c-2.62988 -29.8066 14.3398 -40.2832 14.3398 -66.6465c0 -3.74805 0.81543 -6.68066 1.62988 -6.68066c0.977539 0 1.62988 -1.4668 1.62988 -3.42285c0 -12.8428 12.4297 -27.3799 22.6494 -32.916
c13.4775 -7.00879 6.19043 -6.98828 0.163086 -10.7539c-1.30273 -0.81543 -6.0293 -2.11914 -10.5918 -2.93359v-11.8955c0 -5.86621 -7.33301 -14.666 -6.84375 -19.5537c5.52246 -62.5752 3.96094 -58.5645 7.16992 -105.429v-21.5098h10.7549
c9.93945 -9.61426 18.0869 -21.998 40.4111 -26.3975c13.3574 -2.67285 8.42383 -3.17871 20.043 -6.19336c4.40039 -0.977539 11.4062 -3.74805 15.6436 -5.86523c14.9912 -7.65918 22.8125 -7.00781 36.1748 2.93262c12.9111 10.1475 5.99121 -15.3828 13.5244 -17.2734
c2.77051 -1.13965 8.96289 0.489258 8.96289 2.28125c0 0.81543 1.14062 1.4668 2.44336 1.4668c1.30469 0 2.44531 -0.651367 2.44531 -1.4668c0 -7.82812 43.9971 -4.46387 43.9971 0c0 3.1543 64.3652 10.5928 64.3652 10.5928
c22.8125 4.72559 39.9219 9.125 39.9219 10.4287c0 0.651367 4.2373 2.11816 9.28809 3.25879c20.4365 4.37891 22.9473 13.541 24.1172 38.1309c0.325195 5.21387 1.30273 10.1025 2.28125 10.5918c3.91113 2.44336 8.47363 61.5947 7.49609 97.1182
c-0.652344 22.4873 -4.88965 59.4766 -7.00781 61.1064c0 0 -10.3018 30.96 -7.00684 30.96c13.0654 0 26.2354 -60.7461 26.2354 -67.624c0 -2.11816 0.652344 -4.07422 1.4668 -4.39941c2.28125 -0.814453 4.5625 -24.2803 2.93262 -31.4492
c-0.972656 -4.66992 2.75586 -49.4023 1.30469 -53.2852c-1.91797 -5.1123 4.9375 -18.8896 6.19141 -24.1172c2.77051 -10.2656 3.74805 -11.4062 10.4287 -11.4062c6.0293 0 25.4199 9.28809 29.8203 14.3398c1.13867 1.28125 26.0723 22.7402 26.0723 25.0947
c0 0.814453 1.46582 3.42188 3.25879 5.70312c2.60645 3.42188 3.25879 6.68066 3.25879 18.0869c0 15.1553 -0.652344 14.5029 10.918 9.94043c4.07324 -1.62891 6.35449 -1.62891 11.5684 0c7.49609 2.60645 10.7559 5.37695 28.8428 25.4209
c11.2998 12.582 18.1543 17.2959 24.4434 26.7227c13.5264 22.8301 17.417 21.3418 29.4932 49.0488c3.25879 7.6582 6.51855 14.1768 7.16992 14.666c2.11816 1.46582 19.5547 54.5879 19.5547 59.3135c0 1.46582 0.814453 2.60645 1.62891 2.60645
c0.977539 0 1.62891 1.79297 1.62891 4.07422c0 1.64746 6.24121 24.2549 6.19238 24.2793c-0.325195 0.326172 -6.51758 3.42188 -13.6875 7.00781c-24.2617 12.3467 -36.2568 8.96777 -47.582 -5.37891c-7.82129 -9.93945 -8.47266 -7.00586 -2.76953 14.0146
c2.93359 11.0801 2.60645 26.0723 -0.814453 30.1455c-3.34082 3.89453 -17.54 10.4502 -22.4873 13.1992c-6.0293 3.58496 -64.6914 61.5947 -68.6025 68.1133c-1.46289 2.43652 -21.3467 23.457 -21.3467 26.2344c0 0.814453 -2.44434 4.07422 -5.54004 7.00781
c-9.81641 9.43652 -8.77734 40.7266 -21.5098 41.0635c-2.44336 0 -16.9463 12.873 -16.9463 14.9912c0 0.814453 -1.95508 3.58398 -4.39941 6.0293c-5.7207 5.71875 -12.7959 21.9199 -18.4141 27.5381c-8.61133 9.22656 -18.6699 23.3018 -30.6348 35.8486
c-4.74707 5.1123 -10.5537 26.0859 -20.6943 14.9912c-1.62988 -1.79199 -3.91113 -3.25879 -5.21484 -3.25879c-3.14648 0 -5.14062 -5.58398 -8.96191 -7.49512c-11.0801 -5.7041 -13.0361 -11.2441 -9.125 -25.583c3.0957 -11.8955 -1.95508 -16.458 -7.00684 -6.35547
c-3.25879 6.84375 -6.51855 10.1035 -9.77734 10.1035c-3.74707 0 -17.7617 -6.68164 -17.7617 -8.47363c0 -0.651367 -0.814453 -1.30371 -1.79199 -1.30371c-0.978516 0 -5.86621 -2.44434 -10.918 -5.37695c-5.05176 -2.93359 -14.8281 -7.49609 -21.5098 -10.1035
c-14.7119 -5.74023 -19.917 -8.4248 -36.9893 -16.458c-5.05176 -2.11816 -5.37695 -1.95605 -7.6582 2.11816c-2.11816 4.2373 -1.95605 4.72559 6.51758 12.873c6.84473 6.68066 8.79883 9.77734 8.79883 13.5254c0 12.6582 5.60156 17.4062 9.45215 5.86621
c3.49609 -10.5 8.875 -15.3457 20.2061 -4.88867c3.25781 3.09668 6.68066 5.70312 7.49512 5.70312c2.93359 0 37.1523 18.5762 40.9004 22.1611c2.11816 2.11914 4.72559 3.91113 5.70312 3.91113s8.63672 7.16992 17.1104 15.8057l15.1533 15.9688v9.94043
c-0.977539 10.2656 -7.82031 31.7754 -10.2656 33.2422c-2.28125 1.46582 -9.93945 32.916 -10.917 45.4629c-1.30371 14.666 -4.40039 17.7617 -18.7393 19.2285c-13.8516 1.4668 -65.1797 -5.86621 -69.0918 -9.77734c-1.30273 -1.30371 -2.76953 -6.84473 -3.4209 -12.71
c-3.2002 -27.4062 -20.4082 3.42188 -29.4951 3.42188c-5.37695 0 -52.4697 -16.2959 -55.2393 -19.0645c-1.14062 -1.1416 -2.93262 -2.11914 -3.91113 -2.11914c-3.09668 0 -43.6709 -16.458 -43.6709 -17.7617c0 -0.814453 -2.77051 -2.44434 -6.02832 -3.91016
c-10.2666 -4.2373 -27.0498 -14.1768 -31.124 -18.4141c-2.28125 -2.11816 -5.05078 -3.91113 -6.19238 -3.91113c-1.13965 0 -2.77051 -0.976562 -3.42188 -2.28125c-1.62988 -2.76953 -7.49609 -5.86621 -11.0801 -5.86621c-9.46094 0 -13.8516 -3.58984 -13.8516 -16.458
v-11.2432v1.14062c-2.60645 0.651367 -12.71 1.14062 -17.1094 1.14062c-7.98438 0.163086 -8.47363 -0.163086 -18.4131 -10.4287c-9.32129 -9.58789 -20.3359 -24.001 -27.7012 -32.4268c-6.5293 -6.52734 2.60547 -23.1338 3.58398 -27.0498
c3.09668 -13.0361 16.1328 -51.6553 18.251 -53.7734c1.30371 -1.30371 3.91016 -5.7041 5.70312 -9.61426c3.58496 -8.31055 5.21387 -8.96289 27.5381 -12.2207c13.1758 -2.12695 50.5156 4.11035 50.5156 9.61328c0 1.29785 10.5654 5.79883 13.8496 8.63672
c5.7041 4.72461 7.49609 5.37695 13.3623 4.72461c6.68066 -0.651367 28.0283 4.88965 29.8203 7.82227c0.914062 1.52051 42.1768 20.8311 43.3447 21.998c2.59668 2.27148 22.7305 10.9912 24.9307 8.47363c1.30371 -1.62988 0.978516 -3.91113 -1.62891 -9.28809
c-5.70312 -11.7334 -2.11914 -21.1836 11.8955 -32.4268c14.4375 -11.1396 24.4014 -33.6191 39.2715 -42.041c5.11426 -2.56055 6.15527 -14.2002 8.14648 -21.6729c4.11816 -15.4414 14.3398 -60.292 14.3398 -60.292c1.30371 -1.14062 11.2441 -35.0342 11.2441 -38.6191
c0 -2.76855 -11.7324 12.71 -11.7324 12.71c-3.29102 1.97461 -14.3398 34.9443 -14.3398 40.249c0 8.33398 -9.11719 16.4795 -11.4062 25.2578c-6.19336 24.6055 -5.37793 22.9756 -12.71 24.1162c-7.82227 0.977539 -10.918 3.0957 -4.72656 3.0957
c5.37695 0 4.5625 2.44531 -3.74805 11.2432c-9.50488 9.92383 -9.19922 21.8213 -18.25 31.7764c-1.62891 1.79199 -2.93262 4.07324 -2.93262 5.05176c0 2.98828 -11.1631 19.0674 -12.2217 21.1826c-9.29102 13.9414 -29.1348 6.22168 -39.5967 -3.25879
c-4.2373 -4.07422 -8.47363 -7.33203 -9.45117 -7.33203s-3.0957 -1.30469 -4.5625 -3.09668c-2.1416 -2.37988 -17.1426 -5.96289 -18.9023 -8.31055c-0.814453 -1.14062 -7.65918 -3.09668 -44.8115 -13.1992c-22.0459 -6.18262 -20.9561 -7.9082 -32.5898 -11.0801
c-18.25 -5.54004 -30.1455 -10.4287 -30.1455 -12.5479c0 -1.30273 0.651367 -2.28125 1.46582 -2.28125zM95.7988 527.397c2.44531 -2.44336 5.7041 -4.39941 7.00781 -4.39941c1.4668 0 13.1982 10.7549 26.2354 23.9531c18.4131 18.9033 23.3018 24.7695 22.6494 27.376
c-1.89941 7.12305 -4.87988 29.207 2.44434 27.377c1.79297 -0.489258 3.25977 -1.63086 3.25977 -2.6084c0 -3.74805 7.16895 -9.28711 12.2207 -9.28711c4.88867 0 12.2207 4.8877 12.2207 8.30957c0 3.09668 10.918 18.5771 18.4141 26.0723
c7.23145 7.52148 14.0615 24.165 20.6943 30.7979c7.4248 7.4248 18.0879 29.6562 23.9541 36.501c0.814453 0.651367 6.84375 6.35449 13.5244 12.5459c11.8955 10.9189 12.2217 11.5703 13.8506 21.3477v10.2656h11.7324c8.96289 0 11.0811 0.814453 19.3916 6.51758
c12.9766 8.79004 13.6328 19.7344 29.168 26.7236c3.58496 1.62988 9.125 5.21484 12.2207 7.98535c3.0957 2.93359 6.19336 5.21484 6.84375 5.21484c4.97461 0 17.6699 15.5713 26.3984 16.9453c7.00684 1.30469 7.98438 2.6084 12.5469 16.458
c4.34082 13.7451 3.6875 9.58691 9.12598 19.5557c4.38867 8.0459 11.457 14.3701 15.6436 1.46582c2.49414 -6.65332 2.8457 -4.88281 6.0293 -11.2432c3.74707 -7.16992 8.47266 -6.84473 24.4414 1.30273c4.6748 2.43457 35.8496 12.2266 35.8496 12.5479
c0 0.651367 3.42188 1.62891 7.82129 2.11816c63.8096 8.17188 48.9414 9.53809 99.5625 12.5479c29.6572 1.79199 36.1748 3.0957 42.2041 9.125c1.1416 1.30371 3.0957 2.28125 4.39941 2.28125c2.93359 0 10.5918 9.28711 10.5918 12.8721
c0 3.91113 1.30371 4.88965 4.72656 3.91113c4.11719 -0.880859 3.38867 -15.4141 6.51758 -16.458c0.977539 -0.325195 1.79297 -2.44434 1.79297 -4.5625c0 -3.74805 0.325195 -3.91113 13.0352 -3.91113c29.6689 0 34.5449 -17.4248 58.9883 -23.6279
c11.0811 -2.76953 15.8057 -4.8877 21.1836 -9.61328c12.2217 -10.4287 12.71 -10.7549 29.0049 -12.5469c23.1387 -2.6084 21.5098 -2.77051 23.1387 2.28125c2.39551 6.38477 -11.0156 19.1855 -13.6875 25.7451c-1.95508 4.40039 -3.91016 7.98535 -4.72559 7.98535
c-3.67871 0 -14.6572 59.1582 -23.4648 67.624c-2.77051 2.60742 -6.51855 6.68066 -8.14746 8.96191c-3.25879 4.2373 -20.043 13.5254 -22.9766 12.873c-0.814453 -0.325195 -7.00586 0.81543 -13.6875 2.60742c-9.125 2.11914 -19.5537 2.93359 -41.5518 3.25879
c-17.1094 0.164062 -31.2861 1.1416 -33.8945 2.28125c-2.60645 0.978516 -6.84375 1.79297 -9.4502 1.79297c-2.60742 0 -4.72656 0.652344 -4.72656 1.4668c0 0.652344 -3.4209 1.79199 -7.6582 2.28125c-8.7998 0.977539 -10.2656 -0.163086 -22.6494 -18.0869
c-3.42285 -4.5625 -6.68164 -8.47461 -7.33301 -8.47461c-0.652344 0 -1.62988 2.77051 -2.28125 6.0293c-1.4668 7.65918 -8.31055 16.7842 -12.873 16.7842c-12.0586 0 -8.13086 -31.9385 -20.3691 -12.71c-2.93262 4.39941 -6.35449 8.47266 -7.49609 8.7998
c-5.86523 2.28125 -109.34 -12.2217 -111.621 -15.6436c-0.487305 -0.652344 -4.8877 -2.11816 -9.77637 -3.0957c-45.0439 -10.3604 -45.5674 -16.416 -83.4297 -28.5176c-35.1592 -11.2344 -20.9863 -7.29102 -47.2568 -20.2061
c-9.77734 -4.8877 -19.8789 -11.2432 -22.8125 -14.3389s-6.0293 -5.54004 -7.00684 -5.54004c-2.77051 0 -9.61426 -7.82227 -9.77637 -11.0811c-0.327148 -5.70312 -2.77051 -12.71 -5.7041 -16.6201v-4.07422h-13.3623c-12.71 3.42188 -18.0869 5.21387 -23.3018 -1.4668
c-6.02832 -7.33203 -11.0801 -12.3838 -12.8721 -12.3838c-0.81543 0 -2.77051 -1.1416 -4.2373 -2.44434c-1.4668 -1.30371 -6.84375 -4.07422 -11.7324 -6.19238c-11.0479 -4.30957 -20.7471 -18.9277 -28.8418 -26.0723
c-7.96484 -7.49316 -19.6885 -22.2998 -28.1914 -30.1455v-26.2354c-0.164062 -13.1992 -8.63574 -19.7158 -10.1016 -21.835c-5.22754 -6.85742 -17.9521 1.71582 -24.7686 2.11914c-5.7041 0 -6.19336 -0.652344 -11.8955 -20.0439
c-7.98535 -26.3975 -7.33301 -68.1123 1.4668 -111.946c4.8877 -24.6064 8.14648 -34.3828 13.3604 -39.5977z" />
</svg>
