<?xml version="1.0" standalone="no"?>
<!DOCTYPE svg PUBLIC "-//W3C//DTD SVG 1.1//EN" "http://www.w3.org/Graphics/SVG/1.1/DTD/svg11.dtd" >
<svg xmlns="http://www.w3.org/2000/svg" xmlns:xlink="http://www.w3.org/1999/xlink" version="1.1" viewBox="-10 0 1010 1000">
   <path fill="currentColor"
d="M184.46 811.966c0 -1.61523 48.8047 -96.8564 48.8047 -99.8633c0 -3.37891 -2.62793 -7.88379 -6.00684 -10.5127c-4.50586 -4.12891 -9.38574 -3.75293 -27.0312 1.87793c-28.5322 8.63477 -41.6719 18.7705 -49.9316 37.543
c-9.00977 20.6484 -25.9033 28.9072 -37.167 18.7705c-4.12891 -3.75391 -10.1357 -15.7676 -13.5156 -27.0303c-13.5352 -46.4121 16.2793 -77.9258 50.3076 -93.4814c8.63477 -3.75391 15.7676 -9.76074 15.7676 -12.7646c0 -3.37891 2.62891 -9.38477 5.25586 -13.5156
c4.88086 -6.75684 4.88086 -10.8867 0.375977 -28.1562c-2.62793 -11.2627 -6.00684 -26.6553 -7.13379 -34.1641v-13.8906l-50.3066 -15.7676c-26.2793 -8.63574 -49.1807 -16.8945 -51.0576 -18.3965c-1.50195 -1.87793 19.8965 -10.5117 47.6797 -19.5225
l50.6816 -16.1436v-18.0195c1.50098 -9.76172 7.50879 -26.6562 10.1367 -37.167c4.88086 -17.6455 4.88086 -19.8984 -1.87695 -28.5322c-14.6416 -18.3965 -4.12988 -42.0488 18.3955 -42.0488c9.38574 0 12.7646 -3.00293 22.9014 -19.8975
c6.75781 -10.5127 15.3926 -23.2764 19.5215 -27.4062c7.13379 -8.25879 7.13379 -8.25879 -17.2686 -57.4395c-13.8906 -27.0312 -23.6523 -49.1816 -22.1504 -48.8066c1.87598 0 24.0264 10.5127 49.5557 23.6523l46.1777 23.2764l25.9043 -16.8945
c19.5225 -12.7637 25.9053 -19.1465 25.9053 -25.5283c0 -19.1475 26.2793 -30.4092 43.1738 -18.3965c6.38184 4.50586 12.3887 4.13086 43.1738 -2.25293c19.5215 -4.50488 37.543 -8.25781 40.1699 -9.00879c2.62891 -0.750977 10.8877 -21.3994 18.7725 -46.1777
c7.88379 -24.7793 15.0166 -43.9258 16.1426 -43.1748c1.12598 1.12695 7.88379 19.8975 15.3926 42.0479l13.5156 40.1709h18.3955c10.1367 -0.750977 30.4102 0.375977 44.6758 3.75391c34.5391 7.88379 59.3174 4.88184 76.2119 -9.76074
c6.75781 -6.00684 16.8936 -13.1406 22.5264 -16.1426c10.1357 -5.25684 12.0127 -4.88184 33.4121 8.25781c27.7812 16.8945 41.2969 28.1582 55.1875 46.5537c8.63477 11.6387 11.6387 13.5146 17.2695 10.5117c10.5127 -5.63184 12.0137 -4.50488 7.13379 4.12988
c-2.25293 4.50586 -5.63184 13.1396 -7.50879 19.1475c-3.00293 10.5107 -2.62891 10.8867 7.50879 8.63379c9.38574 -1.87598 14.2656 1.87695 50.3066 39.0449c33.0381 34.5391 42.4229 46.5527 54.8125 73.208c18.7715 39.4199 27.7812 71.7061 22.9014 81.4678
c-12.0166 21.6299 -76.3994 44.4883 -72.457 48.4297c0.835938 0.836914 80.7363 26.6348 78.0879 29.2832c-1.12598 1.50195 -25.1533 10.1367 -53.3105 19.5225l-51.4336 16.8936v34.165c-5.63086 29.6582 -12.7637 36.04 -8.25977 44.2998
c9.01074 18.0205 -2.25195 39.7949 -21.0234 39.7949c-3.75391 0 -13.1396 10.5127 -23.2764 26.2803l-17.2695 26.2793l52.5586 105.12l-105.118 -52.5605l-27.7812 18.7715c-21.0234 14.2666 -28.1582 21.0234 -29.6592 29.2832
c-3.00391 15.3926 -22.1494 23.2764 -36.416 15.0176c-9.01074 -5.25586 -12.7656 -4.88086 -41.6729 1.87695c-17.2695 3.75488 -33.0371 7.50879 -35.29 8.25977c-2.20898 0.441406 -37.96 103.242 -39.4199 103.242c-1.12598 0 -9.76074 -22.9014 -19.1465 -51.4336
l-16.8945 -51.0576h-31.5352c-17.6455 -3.75293 -34.54 -14.2666 -37.918 -15.3926c-3.37988 -1.50195 -7.88477 0 -10.8887 3.37793c-6.38184 7.50977 -29.6582 7.13281 -38.292 -0.75c-3.75488 -3.37891 -6.75781 -10.5127 -6.75781 -16.1436
c0 -8.25977 -4.50586 -12.7637 -24.7783 -25.5293c-13.5156 -8.63379 -26.2812 -15.7686 -28.1572 -15.7686c-0.109375 0 -100.989 48.0801 -100.989 46.5537zM729.578 166.982c-13.8906 -9.38574 -27.4053 -17.2695 -30.0342 -17.2695
c-13.1396 0 -73.959 74.71 -66.8262 81.8428c1.12695 0.750977 7.50879 -1.87598 14.6416 -6.38184c17.2705 -10.5117 56.3154 -13.5146 95.7344 -6.75781c17.2695 2.62891 31.9111 4.13086 32.6621 2.62891c4.12988 -6.75781 -22.9004 -38.2939 -46.1777 -54.0625z
M596.302 178.246c-32.6611 -7.50977 -54.8115 -7.13281 -83.7197 2.25195h-22.9004v24.4033c-4.12988 31.5361 -4.88184 107.371 0.75 131.774c8.25977 34.1631 28.1572 71.3311 35.666 66.4502c1.87695 -1.12598 2.25293 -15.0166 1.12598 -31.1602
c-4.50586 -64.5732 19.1465 -105.495 93.8564 -163.311c15.7686 -12.3887 28.9082 -24.0273 28.9082 -25.9043c0 -1.50195 -6.38184 -2.25293 -13.8906 -0.750977c-8.25977 1.12598 -25.5293 -0.375 -39.7959 -3.75391zM729.203 251.079
c-12.0137 -12.3896 -24.4023 -22.5254 -27.4062 -22.5254c-6.00684 0 -33.7881 27.7812 -40.1709 40.1699c-8.63379 16.8945 -6.00684 18.7715 25.5293 20.6484c22.9014 1.50195 33.0371 3.75391 46.1777 11.6387c24.7773 14.2656 31.1602 23.6514 10.1357 13.8906
c-26.2793 -11.6377 -35.2891 -9.76172 -24.0264 5.25586c7.13281 9.76074 7.13281 35.2891 0 52.5596c-5.25684 12.3887 -5.25684 13.5156 0.375977 13.5156c12.0127 0 20.6484 -8.63574 33.4121 -33.0371c11.2627 -22.5264 12.7646 -24.0283 13.1396 -13.8926
c0 6.75879 -5.25586 20.6494 -12.3887 31.9121c-16.1436 27.4062 -27.4062 29.2832 -47.6797 7.88379c-7.88379 -8.25977 -17.2686 -22.5254 -20.6484 -31.9111c-15.7969 -39.4883 -20.1885 11.6309 -11.6377 39.4199c3.00293 10.8877 4.87988 20.6484 4.12988 21.3994
c-3.37891 3.37891 -22.1504 -21.0244 -31.1611 -40.1699c-10.8867 -23.6523 -12.3887 -57.0664 -3.00293 -67.5771c3.00293 -3.37988 4.87988 -9.76172 3.75391 -13.8906c-1.125 -4.13086 3.00391 -16.5195 9.76172 -29.2832
c6.38184 -12.3887 10.5117 -22.9014 9.76074 -24.0283c-3.37891 -3.00391 -52.9346 13.8906 -66.4502 22.5264c-17.2695 11.6377 -29.6592 37.167 -29.6592 61.1943c0 10.1357 1.50098 21.3994 3.75391 24.4023c3.75488 6.00684 3.00391 7.13281 12.3896 -20.6484
c6.00684 -17.2686 24.7783 -31.9111 39.7949 -31.5361c8.63477 0 7.88379 1.12695 -5.63086 7.13281c-19.8975 8.63574 -30.0342 21.7754 -34.915 45.4268c-7.50781 34.5391 -6.38184 37.543 20.6484 60.0693c38.6699 31.9111 51.0586 38.293 77.7129 38.6689
c21.7754 0.375 23.2773 0 22.5264 -7.88379c-0.750977 -5.25586 2.62793 -11.2637 9.00977 -16.1436c12.7646 -10.1377 16.1436 -6.38281 4.88086 5.63086c-12.7646 13.5146 -3.00293 12.3896 29.6582 -4.12988c48.4307 -24.0273 58.1914 -53.6855 27.0312 -81.8428
c-4.50586 -4.12891 -7.88379 -11.2627 -7.88379 -16.1436c0 -15.0166 -17.6455 -45.0508 -40.9219 -68.7021zM772.002 243.195c-14.6426 -6.75781 -28.9082 -8.63574 -38.6689 -4.50586c-3.37891 1.12598 -0.750977 6.38184 8.25977 16.1436
c15.0176 16.8945 25.5283 36.041 32.6611 59.6924c2.62891 9.01074 9.38672 21.0244 15.3926 26.6553c5.63184 6.00684 10.5127 14.6416 10.5127 19.5225s1.50098 11.2627 3.75391 14.2666c4.50488 7.50879 11.2637 -9.76172 15.0176 -39.4199
c2.62793 -18.0205 3.00293 -13.8906 2.25195 22.5254c-0.375 40.5459 -1.50098 47.3027 -10.8877 67.5771c-14.2656 30.4092 -25.5283 44.2998 -48.0537 58.5664c-17.6455 11.6377 -18.3965 12.7637 -10.8877 16.1436c12.3896 5.63086 45.0508 -6.75879 70.2051 -26.2803
c12.0137 -9.76172 34.5391 -23.2773 49.9316 -30.4102c37.543 -17.2686 45.0508 -24.4023 41.2969 -39.7949c-5.25586 -24.0273 -27.4062 -70.9561 -41.2969 -88.2246c-17.6455 -22.1504 -63.0723 -66.4512 -65.3242 -64.1992
c-1.68555 1.12305 12.3887 47.376 12.3887 50.3086c0 4.12891 -3.00391 -1.50195 -6.75781 -12.3896c-8.25879 -23.6514 -19.5215 -36.792 -39.7949 -46.1768zM567.395 282.614c5.63184 -13.8906 -1.12695 -20.2734 -9.01074 -8.25977
c-9.00977 13.5166 -24.7773 86.3486 -24.7773 113.755c0 33.7881 7.13281 49.1807 33.0371 69.8291c26.6553 21.7744 42.0479 29.6582 57.0654 29.6582h12.0127l-15.3926 -17.6445c-34.9141 -39.4199 -52.9346 -85.5977 -55.1865 -140.785
c-0.750977 -19.8975 0.374023 -40.9209 2.25195 -46.5527zM693.913 313.399c34 -11.5928 -2.81934 -18.7715 -20.2725 -18.7715h-19.1475v11.2627c-5.63086 16.8945 -7.13379 45.4268 1.87695 62.3213v12.3887v-21.7744c3.00391 -25.5293 21.0244 -39.7959 37.543 -45.4268z
M803.162 410.26c-1.50195 -14.2666 -6.00684 -14.6416 -25.5283 -1.12695c-27.4072 19.1465 -68.3281 37.168 -89.3516 39.7959c-26.6562 3.00293 -49.1816 -6.38281 -73.208 -29.6592c-10.5127 -10.5117 -19.8975 -16.8945 -20.6484 -15.0166
c-1.87793 6.00684 17.2686 43.1738 30.4082 59.3174c28.9092 34.9141 58.9424 42.4229 103.993 26.2793c31.9121 -11.2617 45.8027 -20.2725 60.0684 -37.918c12.7646 -16.1436 16.1436 -25.9043 14.2666 -41.6719zM535.108 475.959
c-0.462891 -21.2471 2.33398 -52.8691 -12.3906 -36.041c-2.25098 2.62793 -15.0166 27.4062 -28.9072 54.8125c-40.1699 80.3408 -74.335 111.126 -149.795 133.651c-28.5322 8.63574 -43.9248 10.8877 -97.6113 12.7646
c-58.5664 2.62793 -65.6992 3.75488 -84.8457 12.7646c-28.1582 13.5156 -39.4199 24.7783 -44.6758 44.3008c-4.50586 16.5186 0 44.6748 7.13281 44.6748c1.87793 0 7.88379 -7.50879 13.1396 -16.5176c5.25586 -9.38672 14.6416 -20.2734 21.0244 -24.7793
c19.1455 -13.5146 67.5762 -25.5283 130.272 -31.5361c74.335 -7.50781 104.369 -14.2656 140.034 -31.5352c25.9053 -12.7646 30.4092 -16.8936 55.5635 -49.5566c15.0176 -19.5215 33.0371 -45.8008 39.7949 -58.5654c10.8877 -20.6494 12.0146 -25.1543 11.2637 -54.4375
zM559.886 461.693c-3.75391 -7.13379 -12.7646 -12.3906 -16.1426 -9.38672c-0.750977 0.750977 0.75 15.3926 3.37793 31.9121c5.25586 32.6611 15.0176 52.5596 37.918 77.3369l14.2666 15.3926h35.665c42.7988 -4.50488 68.7041 -15.3926 94.9834 -30.7852
c19.1475 -11.6377 33.4131 -29.2832 27.4053 -34.9141c-1.5 -1.50195 -30.0342 -4.12891 -63.4463 -5.25586c-48.4297 -1.87695 -65.3242 -3.75488 -82.9697 -10.1367c-23.2764 -8.63477 -44.6758 -22.9014 -51.0576 -34.1631zM461.524 651.283
c-2.25293 -8.25977 -5.25684 -16.5186 -6.38184 -17.6455c-3.37988 -3.37793 -33.7891 12.7656 -34.165 18.0215c0 2.25195 9.76172 14.6416 21.7744 26.6543c25.1543 26.6562 40.9229 32.6631 68.3281 26.6562c25.9043 -5.63184 35.666 -17.2705 35.666 -43.5498
c0 -16.1436 -1.50195 -21.7744 -7.13379 -25.9043c-12.7637 -9.38672 -19.5215 -6.00684 -8.25879 4.12988c13.5146 12.3887 13.1396 29.2832 -1.12695 43.5498c-15.3926 15.3926 -30.0342 14.6416 -49.1807 -2.62891
c-9.38574 -8.63477 -16.5186 -19.1465 -19.5215 -29.2832z" />
</svg>
