<?xml version="1.0" standalone="no"?>
<!DOCTYPE svg PUBLIC "-//W3C//DTD SVG 1.1//EN" "http://www.w3.org/Graphics/SVG/1.1/DTD/svg11.dtd" >
<svg xmlns="http://www.w3.org/2000/svg" xmlns:xlink="http://www.w3.org/1999/xlink" version="1.1" viewBox="-10 0 1010 1000">
   <path fill="currentColor"
d="M808.447 35.2842c4.95117 -8.35547 6.49902 -8.04688 15.4727 5.87891c24.7559 37.4434 53.2246 106.14 62.1992 150.392c6.80762 33.4189 11.7578 99.6406 9.59277 129.967c-3.4043 47.6543 -8.66504 103.974 -9.59277 102.735
c-0.620117 -0.619141 -3.40527 -13.6152 -5.87988 -28.7783c-16.0918 -91.5957 -61.2705 -168.029 -125.017 -210.733c-9.59277 -6.49707 -27.8506 -21.3516 -40.8467 -33.4189c-37.4434 -34.3486 -73.3389 -53.2256 -120.685 -62.8184l-24.1367 -4.95117l53.2246 -15.4717
l53.2256 -15.4727l54.1523 -0.30957c57.5566 0 69.0068 -2.78516 78.29 -17.0186zM412.976 85.1045c41.1562 -5.57031 111.71 1.54688 159.364 16.0908c15.7812 4.95117 14.2354 6.18945 -18.5664 11.1406c-48.8926 7.73535 -99.0234 30.6348 -132.753 60.9609
c-43.9414 39.6084 -79.8369 107.996 -90.3584 172.67c-4.33203 28.1602 -2.16504 76.125 4.64258 100.881c9.2832 33.4189 9.2832 33.4189 -4.02246 15.4717c-19.8057 -26.3037 -45.7988 -81.0752 -54.4629 -115.114c-10.2129 -41.4648 -14.8545 -89.4297 -12.3779 -132.442
c2.16504 -34.04 1.85645 -36.8252 -5.87988 -55.7002c-8.35547 -20.7334 -10.2119 -29.3984 -4.95117 -26.3037c4.95117 3.09473 39.918 -7.11719 68.0781 -20.1143c31.873 -14.5439 62.5088 -23.8271 91.2871 -27.54zM576.363 124.714
c12.3779 -3.09473 27.8496 -5.26172 34.3486 -4.64258c18.5664 2.16602 55.3906 21.9707 76.123 41.1572c17.3291 16.0908 49.5117 55.3906 49.5117 60.6504c0 1.23828 -6.49805 -0.927734 -14.8535 -5.25977c-116.043 -58.7949 -215.374 -49.8213 -317.492 29.707
l-9.2832 6.80762l6.18848 -10.5215c3.09473 -5.87891 18.5674 -23.208 33.7295 -38.6807c38.9912 -38.9902 82.0039 -63.127 141.728 -79.2178zM566.15 199.29c40.2285 -5.26074 87.8838 4.6416 134.919 27.8506c40.5371 20.1143 54.7725 32.4912 63.1279 55.0811
c14.2344 37.4424 11.1387 80.1465 -9.28418 123.778c-8.66406 18.2568 -34.0381 57.5566 -35.8955 55.3916c-0.619141 -0.310547 1.2373 -7.11816 4.02246 -14.5439c11.7588 -34.04 7.42773 -89.4307 -9.59277 -123.16
c-30.9443 -61.2705 -103.664 -102.428 -181.026 -102.736c-27.2305 -0.30957 -29.0869 -0.619141 -21.9707 -4.6416c12.3779 -7.11719 37.1338 -14.8535 55.7002 -17.0195zM754.913 212.286c0 -4.02246 25.9932 23.8281 40.2285 42.7041
c36.5146 49.5107 60.9609 121.922 69.626 205.162c2.16504 19.4961 1.85645 21.6621 -6.18945 33.1113c-12.9971 18.877 -68.6973 71.1729 -95.3096 89.1211c-43.0137 29.707 -95.3096 50.1299 -126.255 50.1299h-13.6152l16.7109 -9.28418
c52.915 -29.3965 104.282 -83.2402 134.608 -141.726c42.085 -81.6934 38.6807 -170.195 -8.97461 -249.724c-5.87891 -9.90234 -10.8301 -18.5664 -10.8301 -19.4951zM490.336 245.397c15.7832 -2.47559 75.8145 -0.619141 78.9102 2.47559
c0.927734 0.927734 -0.928711 3.09375 -4.33301 5.26074c-70.5527 42.3936 -110.163 85.4072 -125.635 136.466c-1.85742 6.80762 -4.33203 14.5439 -4.95117 17.0195c-2.16602 5.87988 -26.6133 -32.1826 -35.8955 -55.3906
c-4.02344 -10.8311 -7.11816 -26.6133 -8.0459 -42.3945l-1.23828 -25.0645l24.4463 -12.3779c25.0664 -13.3066 50.1309 -21.6621 76.7422 -25.9941zM592.454 270.152c8.35547 -4.9502 17.6387 -8.97363 20.4229 -8.97363c8.04688 0 41.1572 34.6582 48.8926 51.3691
c7.42773 15.4717 13.3066 60.0322 7.73633 60.0322c-1.54688 -0.30957 -6.49805 -5.57031 -10.8301 -12.0684c-11.7588 -16.7109 -43.9414 -37.4434 -58.1768 -37.4434c-14.543 0 -39.6084 11.7588 -55.3896 25.9941c-6.80859 6.18848 -12.9971 11.1396 -13.9258 11.1396
c-2.78516 0 4.33203 -22.5898 12.3779 -38.0615c9.90234 -20.1143 29.707 -41.1562 48.8926 -51.9883zM364.392 315.642c0.928711 -1.85645 3.4043 5.26074 5.57031 15.4727c8.0459 38.6807 30.3262 89.7393 48.2734 111.091c7.11816 8.0459 13.6162 21.3516 18.877 38.6807
c15.4717 49.8213 54.4629 104.902 97.7852 137.704c8.66406 6.80762 15.1631 12.377 14.5439 12.9961s-12.6875 -3.09375 -26.9219 -8.35547c-81.0762 -29.3965 -140.799 -95 -162.459 -177.931c-8.97461 -35.2773 -6.49902 -110.782 4.33105 -129.658zM505.19 327.71
c6.49805 -7.73633 12.6865 -13.9248 14.2344 -13.9248c1.2373 0 0 9.59277 -3.09473 21.6602c-3.09473 11.7598 -6.49805 33.1113 -7.73633 47.3467c-2.47461 33.4199 1.23828 42.3936 32.4922 73.3379c17.6387 17.6396 28.7783 25.6846 44.25 32.4922
c11.4502 5.26074 21.043 10.5215 21.043 12.0684c0 4.95117 -50.1299 -1.23828 -73.958 -9.2832c-39.2998 -12.9971 -80.7646 -41.7754 -80.7646 -55.7002c0 -20.1143 29.0869 -78.9092 53.5342 -107.997zM244.636 349.371l6.80762 -21.6611l8.35547 34.0391
c14.2354 56.3193 38.6816 105.521 69.9355 140.18c8.35547 9.90137 17.9482 24.4453 21.3516 33.1104c15.7822 43.0127 41.7754 83.2412 80.4561 124.397c12.9971 14.2344 23.208 25.6846 22.5898 25.6846c-0.928711 0 -23.5186 -6.18945 -50.1309 -13.9258
c-76.124 -21.9707 -161.84 -56.3184 -199.283 -80.1465l-13.3057 -8.35547l7.73535 -9.2832c11.1406 -13.3057 16.71 -34.9668 21.9717 -86.3359c6.18848 -58.1748 14.8525 -110.472 23.5166 -137.703zM686.835 351.848c0 -20.4248 3.4043 -19.1855 12.6875 4.64062
c5.87988 14.2344 7.11719 23.8271 7.11719 50.1309c0.30957 31.2539 0 33.4199 -10.5205 54.1523l-10.8311 21.6621l-18.2568 0.928711c-34.04 1.85645 -78.5996 -17.9482 -106.45 -46.7275l-10.2119 -10.5205l17.9482 5.87891
c12.9961 4.6416 22.8994 5.87988 36.5146 4.6416c20.1143 -1.54688 59.4141 -15.7812 65.6025 -23.5176c7.11816 -8.97363 16.4004 -43.9414 16.4004 -61.2695zM913.66 382.792c1.85547 -22.5898 3.71191 -40.5371 4.02246 -40.2285
c0.308594 0.30957 4.33105 17.0195 8.66406 36.8242c12.0684 54.1533 17.3291 96.5469 20.1143 162.46c1.85645 54.7715 2.78516 60.3408 8.97363 69.0059l6.80762 9.2832l-14.5439 10.8301c-22.5889 16.0918 -95.3086 52.6064 -126.563 63.1279
c-31.873 10.8311 -74.8857 18.876 -99.6416 18.876h-17.0195l24.4463 -15.7822c28.1592 -18.5664 72.1006 -61.5801 88.8115 -86.9541c6.18848 -9.59277 17.3291 -28.1602 24.4453 -41.7754c7.11816 -13.3066 17.6387 -30.3252 23.209 -38.0615
c27.2314 -35.8965 42.3936 -82.3125 48.2744 -147.605zM760.793 436.944c5.87891 -8.35449 11.1396 -14.2344 11.7598 -13.9248c1.5459 1.85742 -6.80957 24.1367 -15.4736 41.1562c-27.8506 54.4619 -95.9287 123.16 -151.01 152.866l-17.3281 9.28418l-13.9258 -8.97461
c-19.4951 -12.3779 -55.3906 -46.7256 -72.7197 -69.625c-13.3057 -17.9482 -37.1338 -62.5078 -34.6572 -65.293c0.927734 -0.619141 10.5205 5.87891 21.3516 14.5439c11.1396 8.66406 31.8721 21.3516 46.416 28.4678c23.8281 11.4502 28.4697 12.6885 56.0107 13.6172
c37.1328 1.5459 60.6514 -5.26172 93.7617 -27.541c23.5186 -15.4727 57.5566 -49.2021 75.8145 -74.5771zM387.91 562.58l-4.6416 -12.0684l15.4727 17.3291c30.6348 34.3477 78.29 64.6738 124.087 79.5273c92.834 29.7061 199.903 7.11719 269.219 -56.9385
c10.2109 -9.59277 18.5664 -16.4004 18.5664 -14.8525c0 7.42578 -39.2998 51.9863 -77.6709 87.8818c-60.96 57.248 -78.9082 75.8145 -92.833 97.167c-15.1631 22.8984 -27.8516 48.582 -30.3262 61.2695c-1.85645 9.2832 -2.16602 8.97461 -17.9482 -16.71
c-12.6875 -21.042 -23.208 -32.4922 -52.6064 -58.7939c-69.9336 -62.5088 -133.68 -140.18 -151.318 -183.812zM381.412 711.114c6.80762 -10.8301 13.6152 -19.8047 14.5439 -19.8047c3.4043 0 72.4102 15.7822 73.3389 16.71
c0.618164 0.30957 -3.4043 6.49805 -8.66504 13.6152c-11.7588 16.0918 -42.3945 39.2998 -74.8867 56.3203c-13.9238 7.42578 -25.6826 13.6152 -26.3018 13.9238c-0.30957 0.30957 0 2.78516 0.927734 5.26172c3.09473 7.73633 26.3027 18.875 40.5371 19.1855
c11.7598 0.308594 12.9971 0.928711 8.35547 4.33203c-16.4004 12.0684 -57.5566 12.3779 -76.7422 0.619141c-13.3066 -8.35547 -15.4727 -8.04688 -80.4561 10.8301c-110.781 32.1826 -162.459 62.8184 -199.902 118.519
c-15.1631 22.8984 -15.4727 23.208 -13.6152 11.4482c9.59277 -52.6045 32.4912 -87.8818 80.1455 -123.159l14.8545 -11.4492l0.618164 -22.2803c0.619141 -26.9219 7.42676 -42.085 26.3037 -59.1045c15.7812 -14.2334 20.4229 -14.5439 12.3779 -0.928711
c-11.4502 19.8057 -11.7598 60.6523 -0.310547 60.6523c2.78516 0 40.8477 -11.7598 84.1699 -26.3037c92.2148 -30.9443 105.521 -38.0605 124.707 -68.3867z" />
</svg>
