<?xml version="1.0" standalone="no"?>
<!DOCTYPE svg PUBLIC "-//W3C//DTD SVG 1.1//EN" "http://www.w3.org/Graphics/SVG/1.1/DTD/svg11.dtd" >
<svg xmlns="http://www.w3.org/2000/svg" xmlns:xlink="http://www.w3.org/1999/xlink" version="1.1" viewBox="-10 0 1010 1000">
   <path fill="currentColor"
d="M481.468 92.0791c8.27051 -26.6104 16.1816 -48.5439 17.2607 -48.5439c1.67871 0 33.9951 94.4238 37.0381 94.9297c2.51562 0.720703 20.4961 4.6748 39.9141 8.99121c30.2051 6.1123 36.6787 6.83203 41.3516 2.5166
c19.418 -16.1807 47.1064 -3.23633 47.1064 22.2949c0 3.5957 5.39355 9.34961 11.8672 12.9443c6.1123 3.5957 20.1367 12.9453 30.2051 20.8564l19.0586 13.6641l99.5361 -49.4141c-0.719727 1.79883 -11.4375 26.042 -25.1016 51.9316l-24.0918 47.8252l13.6641 20.4971
c7.91113 11.5068 15.8223 23.7324 17.6201 27.6885c2.15723 3.9541 8.27051 7.19141 15.1025 7.55078c23.373 1.79883 33.082 21.5752 21.2148 44.2305c-6.1123 12.584 -6.47168 14.7432 -1.07812 34.8789c2.87695 11.8672 6.47363 28.7676 8.27051 37.3975v16.1816
l113.062 35.332c0 1.07812 -25.6826 12.8535 -55.5273 22.9219l-55.0176 17.9785v14.3848c-1.4375 7.55078 -8.27051 24.0908 -11.1475 36.3184c-5.39453 20.1367 -5.03418 23.0137 0 30.5645c3.23633 4.31445 5.75391 12.5859 5.75391 18.3389
c0 12.2256 -14.3838 27.6885 -26.25 27.6885c-6.47363 0 -12.2266 5.75391 -25.8916 27.3291l-17.2598 27.6875l53.7881 111.213l-119.904 -59.5586c-6.47168 4.6748 -21.2637 26.0166 -30.6133 31.4121c-10.4277 6.1123 -17.2607 12.585 -17.2607 16.54
c0 3.23633 -3.23535 10.4287 -7.55078 15.8223c-5.39355 7.19141 -10.4277 9.34961 -20.8564 9.34961c-7.19238 0 -15.1025 -1.79785 -17.2598 -3.95508c-3.95508 -3.95605 -7.55176 -3.2373 -70.8398 10.7871c-10.0684 2.5166 -11.5068 5.39355 -28.7656 57.1748
c-10.0693 30.2061 -19.0596 54.6572 -20.1377 54.6572c-1.0791 0 -9.70898 -24.4512 -19.0586 -53.9385c-9.34961 -29.8457 -19.0576 -54.6582 -21.5752 -55.377c-2.5166 -0.71875 -21.2158 -4.6748 -41.3525 -8.98926
c-34.1611 -7.55176 -37.7568 -7.55176 -43.5107 -2.51758c-15.4619 14.0244 -43.5098 2.1582 -45.3076 -19.0576c-0.719727 -9.70898 -3.5957 -13.3057 -15.8223 -20.4961c-8.27051 -4.6748 -21.3164 -16.0752 -27.4287 -20.75l-115.591 41.7715l49.8857 -99.7715
l-19.0576 -29.8467c-14.3838 -21.9346 -21.2158 -29.4863 -26.9688 -29.4863c-20.1865 0 -34.8613 -26.2207 -20.8564 -46.3877c5.39355 -7.55078 5.39355 -10.0674 0.359375 -28.4072c-3.2373 -11.1465 -6.83203 -28.0469 -7.91211 -37.0371v-16.1816l-108.001 -33.9248
c1.43848 -1.43848 26.7354 -13.9004 54.4229 -22.8896l51.0625 -16.9014v-18.6982c1.43848 -10.4287 7.19043 -28.0488 10.4277 -39.1953c5.39355 -19.7783 5.39355 -20.8564 -2.1582 -30.2051c-8.26953 -10.7881 -9.70801 -25.5312 -2.87598 -34.1611
c6.47168 -8.63086 20.1367 -14.7441 27.3281 -12.2266c5.39355 1.43848 8.99023 -1.79785 16.542 -15.1035c5.75195 -9.34766 14.7432 -23.3721 20.4961 -30.5645l10.4277 -13.3047l-25.5303 -50.3428c-13.6641 -28.0469 -24.6719 -52.4355 -24.6719 -53.5146
l102.702 50.6387l26.6094 -17.6201c22.2959 -14.7432 26.6104 -19.418 27.3291 -28.4072c1.43848 -20.1367 29.4863 -31.2852 44.5889 -17.6201c5.75391 5.39453 8.99023 5.03418 38.4756 -1.79785c17.6211 -4.31445 37.0381 -7.55078 43.5107 -7.55078h11.1484z
M742.889 259.288l-263.758 -0.178711l86.1211 86.8398h-19.7773c-31.6436 -14.3828 -63.2871 -30.2061 -100.686 -30.2061c-61.8477 0 -109.673 19.418 -156.779 63.2881c-44.9492 42.0713 -70.8398 99.9648 -70.8398 158.938
c-0.359375 43.5107 5.75391 69.042 25.1719 109.316c13.6641 28.4072 21.2148 38.835 44.9473 62.5674c21.2168 20.8555 35.2412 31.2842 52.8604 39.1953c95.6504 43.1514 195.976 28.0479 265.018 -39.915c43.1504 -42.0713 65.8047 -90.2568 68.6816 -146.352
c2.87598 -47.8252 -0.74707 -75.4375 -25.1992 -132.612l94.2393 97.0127v-267.894zM405.235 369.322c16.9004 -3.23633 80.9072 1.07812 97.4492 6.47168c18.3389 5.75391 47.8252 20.1377 58.9717 28.7676c6.47266 5.03418 -3.95605 5.39453 -115.788 5.75293
c-67.9619 0 -123.338 -0.71875 -123.338 -1.79688c0 -7.55273 56.0947 -34.1611 82.7051 -39.1953zM298.438 443.397c6.1123 -10.0684 12.5859 -18.6982 14.7432 -18.6982c1.79785 0 2.15723 11.8652 1.0791 29.4863c-1.43945 16.54 -2.51758 71.917 -2.51758 123.339
v84.5029c-14.3828 -16.9014 -35.96 -51.7812 -40.2744 -82.3457c-6.47266 -46.7461 3.23633 -96.3701 26.9697 -136.284zM583.592 438.004c2.87598 -16.1816 6.83203 -14.0244 20.4961 11.1465c27.3291 50.3428 26.9688 128.732 -0.719727 183.392
c-22.6543 43.8691 -21.5752 46.7461 -21.9336 -72.998c0 -59.332 1.07812 -113.989 2.15723 -121.54zM344.105 692.952l-19.7773 -12.585h248.116l-12.585 10.7871c-47.8271 40.6338 -153.186 41.7129 -215.754 1.79785z" />
</svg>
