<?xml version="1.0" standalone="no"?>
<!DOCTYPE svg PUBLIC "-//W3C//DTD SVG 1.1//EN" "http://www.w3.org/Graphics/SVG/1.1/DTD/svg11.dtd" >
<svg xmlns="http://www.w3.org/2000/svg" xmlns:xlink="http://www.w3.org/1999/xlink" version="1.1" viewBox="-10 0 1010 1000">
   <path fill="currentColor"
d="M665.667 61.333l-32.667 -34.333h147.667c81.333 0.666016 158.333 4 171 5h23.333v107.333c-0.666992 58 -3 134.667 -4.33301 170v64l-137.334 -138.666c-74.333 -76.667 -149.666 -154.667 -167.666 -173.334zM391.667 117c11 -1.66699 38 -3 60 -3.33301
c113.333 -1 218 40.666 300.333 120.333c131.667 127.333 168.667 322 92.667 489c-28 61 -86.334 131.333 -141.334 170c-170.666 120.333 -397.666 103 -546.666 -41.667c-88 -85.333 -131.334 -188 -131 -309.666c0 -75.334 13.333 -131 47 -196.334
c62.333 -121.333 184.333 -208.666 319 -228.333zM511 168.333c-77.667 -11.666 -148.667 -1 -219.333 33c-34.334 16.667 -82 56 -96.334 72h526.334l-15 -13.333c-50.7969 -44.5596 -114.732 -79.4492 -195.667 -91.667zM721.667 810.666l-535 -0.666016v-534.667
l-16.334 16.667c-44.666 50.667 -75.666 114.333 -88.666 182.667c-6.66699 34.666 -6.66699 102.333 0 137c32 167 166.333 290.333 336.666 308.333c101 11 213.334 -26 285.334 -93zM768.333 332c-10 -14.667 -24.333 -33.667 -31.666 -42l-13.334 -15v533.333
l15.667 -16.666c29.667 -32.334 59.333 -83.334 74 -127.667c37.667 -112 21 -235 -44.667 -332zM384 298.667h-76c-57 -0.333008 -104.667 -7.66699 -105.667 -6.33398c-1.33301 1 -2.33301 48 -2.33301 104c0 67.0205 -2.11914 130.199 9.33301 78.667
c7.66699 -32.333 32.334 -75.667 58 -103.333c36 -38.667 68 -58.667 116.667 -73zM700 395.667l6.33301 -105.667h-187.666c86 22.333 159 102 181.333 187.333v-81.666zM528.333 311c-32.666 -10.667 -94 -13.667 -127 -6.33301
c-53.666 12.333 -107.666 46.666 -140 89.666c-60.333 80.334 -67 187.667 -17.333 271.667c15 25.667 52 64 77 80.333c141 91.667 328 17.667 369.333 -146.333c6 -23 7 -34.667 5.66699 -66.333c-3 -67.334 -23.667 -114.667 -71 -162
c-30.667 -30.667 -58.667 -48 -96.667 -60.667zM200.667 608.667v186.333h182.666c-34 -11 -51.666 -27.667 -78.333 -46.667c-46 -32.666 -90.333 -85.333 -104.333 -139.666zM706.667 691.667c0 -57.667 -0.333984 -105 -1 -105c-0.333984 0 -2.66699 8.66602 -5 19
c-6.33398 27.333 -31 76 -50.334 98.333c-39.333 46 -79.333 74.333 -143.666 92.333h200v-104.666zM343.333 653.333v-223.333h223.334v223.333h-223.334z" />
</svg>
