<?xml version="1.0" standalone="no"?>
<!DOCTYPE svg PUBLIC "-//W3C//DTD SVG 1.1//EN" "http://www.w3.org/Graphics/SVG/1.1/DTD/svg11.dtd" >
<svg xmlns="http://www.w3.org/2000/svg" xmlns:xlink="http://www.w3.org/1999/xlink" version="1.1" viewBox="-10 0 1010 1000">
   <path fill="currentColor"
d="M442.955 52.1768c130.236 -9 213.883 9.79395 303.09 67.7646c100.322 65.1172 172.059 169.941 197.471 289.059c3.96875 18.2646 4.76367 34.9414 4.76367 90c0 60.0879 -0.529297 70.4121 -5.82422 94.2354c-19.0586 87.0879 -59.293 160.677 -123.617 225
c-63.5293 63.5293 -136.588 103.765 -224.205 123.353c-24.3535 5.29492 -34.1484 6.08887 -93.4414 6.08887c-72.5293 0 -90 -2.11816 -138.971 -17.4717c-34.1484 -10.8525 -93.9707 -40.7637 -124.412 -62.4697c-32.5586 -23.2939 -84.1758 -74.6475 -106.676 -106.677
c-21.4414 -30.4414 -49.2363 -85.2354 -60.3535 -118.854c-15.8828 -48.7051 -19.0586 -71.2051 -19.0586 -143.205c0.263672 -56.1172 1.05859 -68.5586 5.82422 -92.6475c29.9102 -143.735 131.293 -266.558 267.881 -324.265
c37.5898 -15.8828 83.6465 -27.5293 117.529 -29.9111zM538.25 75.4707c-95.2949 -9.26562 -194.295 16.4121 -275.295 71.2061c-158.559 106.676 -226.588 305.206 -166.764 486.528c10.0586 30.707 38.6465 86.0303 58.7637 114.618
c21.9707 30.4414 60.6172 69.8818 90.7949 92.3818c148.234 109.854 350.205 112.5 500.295 6.08984c31.7637 -22.5 78.3516 -68.8242 100.059 -99.7949c112.5 -159.883 104.559 -370.588 -19.5879 -519.617c-72 -86.2949 -175.236 -140.56 -288.266 -151.412z
M445.604 86.3232c30.7051 -4.23535 107.205 -1.32324 137.646 5.0293c164.117 34.6768 289.059 159.089 324.795 323.735c5.02734 23.0293 5.82227 35.207 6.08789 83.9121c0 50.0293 -0.794922 60.0879 -6.08789 84.1768
c-38.6484 172.588 -168.619 297.265 -340.412 326.646c-41.5605 6.88184 -112.766 5.55957 -153 -2.91113c-163.061 -35.207 -287.207 -160.412 -322.678 -325.854c-5.29297 -23.8232 -6.08789 -35.7354 -6.08789 -82.0586c0 -58.5 3.44141 -82.3232 18.2656 -128.647
c49.9297 -151.259 185.172 -263.119 341.471 -284.029zM761.926 239.323c-75.9883 -75.9854 -191.717 -134.085 -341.471 -101.382c-144 31.5 -258.352 150.882 -284.822 297.529c-6.08789 33.0879 -6.08789 93.1768 -0.265625 126.265
c13.7656 76.7646 48.1777 142.412 103.766 198c54 54.2646 111.971 85.7646 188.734 102.441c34.4121 7.41113 104.559 8.20605 138.971 1.32324c76.7656 -15.3525 138.971 -48.7051 194.029 -103.5c54.7949 -55.0586 88.1484 -117.529 103.5 -194.029
c6.88281 -34.4121 6.08789 -104.559 -1.32227 -138.971c-16.4121 -75.7051 -48.1777 -134.471 -101.119 -187.677zM462.809 249.117c0 -1.3584 37.3887 -102.176 39.4414 -102.176c2.38281 0 38.1172 97.9414 36.2656 99.7939
c-1.79688 1.79297 -22.8574 -12.4404 -24.0898 -12.4404c-0.792969 0 -1.05859 37.0576 -0.792969 82.5879v82.5879h18c13.2344 4.5 18 11.1172 20.1172 8.73438c3.44141 -3.44043 83.1172 -126 83.1172 -127.588c0 -0.529297 -6.88281 -1.32227 -15.0879 -1.85254h-15.3535
l86.9668 -65.8828c1.32227 1.32324 -20.5254 108.766 -22.1133 108.766c-1.58984 0 -11.6465 -26.4707 -13.2344 -26.4707c-1.32422 0 -78.8828 118.588 -82.8535 127.059c-1.58789 3.17676 0.792969 8.73535 8.73438 20.1172
c19.8535 28.3242 23.5586 60.6182 10.5898 94.2354c-10.5898 28.5889 -40.2363 53.7354 -69.3535 59.0293h-9.79492v166.766c0.982422 1.47266 23.5723 -15.3379 24.8828 -14.0303c1.32227 1.32422 -36.5293 102.706 -38.3828 102.706
c-2.11719 0 -39.1758 -100.323 -37.5879 -101.646c0.529297 -0.794922 6.35352 2.11719 12.7051 6.61719h11.6484v-158.029h-13.7656c-7.67578 -2.64746 -15.8828 -9.79492 -18 -10.5879c-2.91211 -0.794922 -15.6172 16.9404 -44.7344 62.2051
c-22.5 34.6777 -41.0293 64.0596 -41.0293 65.3828c-0.265625 1.05859 5.29297 1.85254 12.1758 1.85254c7.14648 -0.264648 13.2363 0.530273 13.7656 1.58887c1.58789 2.64648 -82.8535 64.8535 -84.9727 62.7354c-2.38086 -2.11816 20.6484 -104.824 23.2949 -103.5
c2.87109 2.15332 11.4941 34.2715 16.4121 21.7061c4.04492 -9.44531 81.2656 -124.214 81.2656 -127.324c0 -0.529297 -4.76562 -7.94141 -10.3242 -16.4111c-19.8535 -29.6475 -23.2949 -58.7646 -10.8535 -91.8525c11.3828 -30.1777 30.7051 -48.4424 61.4121 -57.707h18
v-168.088c-2.85547 1.83594 -26.4707 11.1172 -26.4707 11.1172zM491.396 453.471c-1.85156 -5.0293 -5.29297 -5.0293 -14.0293 -0.529297c-18 9.26367 -27.5293 25.6758 -27.7949 46.8535c0 12.4404 5.82422 28.3223 10.5898 28.3223
c3.9707 0 5.82227 -9.79395 3.9707 -21.7051c-2.38281 -15.3535 1.85156 -25.1475 16.1465 -38.3828c6.61719 -6.08789 11.6465 -12.7061 11.1172 -14.5586zM522.367 451.353c-3.17578 -5.29395 -9.26367 -2.64746 -9.26367 3.9707
c0 3.70605 1.05859 6.61816 2.38086 6.61816c3.70703 0 8.73633 -7.41211 6.88281 -10.5889zM552.545 489.205c-1.32422 -6.61719 -4.23633 -14.293 -6.08984 -16.9404c-6.08789 -9 -10.0586 0 -7.93945 18.2646c2.11719 19.8535 -3.44336 32.5586 -18 41.8232
c-15.8828 10.0596 -12.4434 22.5 3.96875 14.0303c20.9121 -10.8535 33.0879 -35.4707 28.0605 -57.1777zM489.279 542.677c0 -7.41211 -6.35352 -9 -9 -2.38184c-2.11719 5.29297 0.265625 9 5.29297 9c2.11914 0 3.70703 -2.64746 3.70703 -6.61816z" />
</svg>
