<?xml version="1.0" standalone="no"?>
<!DOCTYPE svg PUBLIC "-//W3C//DTD SVG 1.1//EN" "http://www.w3.org/Graphics/SVG/1.1/DTD/svg11.dtd" >
<svg xmlns="http://www.w3.org/2000/svg" xmlns:xlink="http://www.w3.org/1999/xlink" version="1.1" viewBox="-10 0 1010 1000">
   <path fill="currentColor"
d="M521.922 43.2939v5.08594c1.45312 9.81055 10.5361 21.0732 9.44629 24.3428c-5.02832 15.8066 15.0664 -4.35938 17.0752 -4.35938c4.36035 0 0 28.3398 -6.53906 40.6924c-4.72363 9.44629 -4.35938 10.1729 3.27051 10.1729
c4.72266 0.363281 11.9883 2.17969 16.3486 4.72266c7.99316 4.36035 34.8789 39.2393 32.3359 41.7822c-0.727539 0.726562 -6.54004 -1.45312 -12.7158 -4.35938c-17.0771 -9.08398 -19.2559 -6.9043 -9.81055 7.62891c9.81055 15.623 29.0664 62.4912 26.5234 65.0352
c-0.727539 1.09082 -14.8975 -3.99707 -31.2461 -11.2627c-45.7783 -20.3467 -79.2041 -27.6123 -126.8 -27.6123c-50.8643 0 -60.3115 3.63281 -61.7646 23.6152c-1.45215 14.5332 -3.26953 15.2598 -24.3428 7.99316
c-4.35938 -1.81641 -3.63281 -0.726562 1.81738 2.54297c5.08594 2.90723 12.7158 6.17676 17.0762 7.62988c6.90234 2.17969 7.99219 0.727539 10.1729 -13.0791c1.45312 -8.71973 4.72266 -16.7129 6.90234 -18.167c2.18066 -1.45215 22.1631 -2.90527 43.9629 -2.90527
c68.3047 0 133.339 18.5283 183.84 51.9541c47.959 31.9727 92.6475 83.2012 114.083 131.886v21.4355l17.4404 -13.8057c7.62988 -13.4424 16.3496 -18.8926 11.626 -7.26562c-5.44922 13.4424 -6.17676 58.1318 -1.81641 92.6475
c4.36035 31.9717 3.99609 39.9639 -1.4541 73.0273c-3.63281 20.3457 -10.5361 46.8682 -15.2588 58.4941c-10.8994 26.8857 -10.8994 31.2451 0 31.2451c19.543 0 26.1084 10.9004 6.54004 10.9004c-14.1699 0 -33.0625 13.0801 -57.041 39.2383
c-39.6035 42.873 -93.0117 74.1172 -148.599 86.1074c-33.0635 7.2666 -88.6514 5.8125 -122.077 -3.26953c-10.8994 -2.90625 -20.3457 -4.72363 -21.0732 -3.99609c-2.17969 2.17969 52.3184 20.3457 67.2158 22.5254c14.5332 1.81641 16.7129 3.63281 24.7061 19.2559
c9.80957 19.6201 31.2451 39.9658 42.1445 39.9658c3.99707 0 6.17676 1.45312 5.08691 3.63281c-2.90723 4.72266 -1.08984 4.72266 23.9785 -1.81641c49.7754 -13.0791 118.807 -50.502 152.958 -83.2012c37.4229 -35.6055 64.6719 -78.8408 83.5645 -131.522
c11.2627 -31.2451 11.627 -34.5156 11.627 -92.2832c0.363281 -68.668 -3.26953 -88.2871 -27.25 -137.699c-33.4248 -70.4844 -87.9229 -125.346 -153.321 -154.412c-19.6201 -8.35547 -19.9824 -9.08301 -27.9756 -33.4258
c-4.72266 -13.8057 -11.2627 -31.2451 -15.2598 -38.875c-7.26562 -14.5332 -5.81348 -15.9863 7.99316 -7.99316c5.08691 2.90723 10.1738 5.08691 11.9893 5.4502c5.81348 0 -17.0752 -38.1484 -32.335 -54.499c-8.7207 -9.44531 -15.9863 -18.166 -15.9863 -19.6182
c0 -3.63379 22.8887 1.08984 56.3145 11.2627c65.0352 20.3457 148.235 73.0273 192.562 122.076c46.1416 50.501 86.1064 122.439 103.91 186.747c12.3525 43.5986 13.8057 124.982 3.26953 175.484c-26.5225 130.433 -102.094 227.803 -225.623 290.658
c-98.46 50.1377 -194.377 66.124 -287.024 47.2314c-135.52 -27.6133 -237.976 -107.181 -290.657 -224.896c-29.4297 -66.125 -34.1523 -89.377 -33.7891 -165.675c0 -75.208 5.44922 -101.003 30.5195 -154.049c33.4258 -69.7568 83.9268 -122.438 148.962 -155.139
h31.2451c7.26562 5.08594 15.2598 9.44727 17.4404 9.44727c2.17871 0 -0.364258 -2.90723 -5.4502 -6.54004c-5.4502 -3.26953 -12.7168 -9.44629 -16.3496 -13.8057c-10.2578 -10.2578 -45.7158 -17.6787 -55.9521 -28.7031
c-8.35645 -9.08301 -8.35645 -9.08301 -0.726562 -9.08301c9.08301 0 26.1592 -7.2666 26.1592 -10.8994c0 -1.45312 -2.54395 -8.71973 -5.81348 -16.3486c-5.44922 -13.0801 -5.08594 -13.4443 1.08984 -10.9004c22.5273 9.08301 39.2393 9.80957 74.8447 3.26953
c9.08398 -1.81641 9.80957 -2.90625 5.08691 -7.99219c-6.54004 -7.62988 -25.4336 -40.6934 -23.6162 -40.6934c1.08984 0 10.5361 4.72363 21.4355 10.9004c47.4775 26.377 14.1699 -4.82812 14.1699 -19.9824c0 -6.17773 0.363281 -6.17773 6.90332 -0.363281
c11.9902 10.8984 42.8711 20.3457 66.8516 20.3457c18.5283 0 26.1582 -2.17969 42.1455 -11.2627c24.3418 -13.8066 57.041 -46.8691 65.0342 -64.6719zM489.586 143.207c-5.8125 -5.08594 -39.9658 -4.72266 -55.5879 0.727539
c-21.0732 7.26562 -24.3428 12.3525 -11.2637 18.165c13.4434 6.17773 17.0762 5.4502 34.8789 -6.53906c8.71973 -5.81348 19.9834 -10.8994 24.7061 -10.8994s7.99316 -0.726562 7.2666 -1.4541zM336.628 216.599c-18.8936 -14.5332 -32.6992 1.08984 -20.71 23.2529
c3.26953 5.8125 2.90723 8.35547 -0.726562 10.5361c-3.99609 2.54395 -3.63379 3.26953 1.81641 3.26953c5.08691 0 6.17676 -1.81641 3.99707 -8.35547c-7.62988 -25.4336 -7.62988 -25.4336 8.71973 -23.6162c15.2588 1.45312 15.2588 1.45312 6.90332 -5.08691z
M505.572 251.478c-21.4355 -5.4502 -43.9619 -8.71973 -58.8584 -8.35645c11.1455 2.25293 21.1611 8.83008 22.5264 10.5361c1.81641 1.4541 -5.81348 8.71973 -16.7129 15.9873c-28.7021 19.2559 -51.9551 45.4141 -57.041 64.3066
c-2.18066 8.7207 -4.36035 17.4404 -5.08691 19.6201c-1.08984 4.72266 -20.3457 -28.3398 -20.3457 -35.2432c0 -3.26953 -2.54395 -7.62988 -5.4502 -10.1729c-6.90332 -5.44922 -18.5303 -24.7051 -21.7998 -35.6055v-7.99316h11.2627
c19.6201 13.4434 28.3398 21.0732 49.7754 0c18.5303 -17.8027 18.5303 -18.165 8.71973 -18.165c-17.8027 0 -63.5811 10.8984 -90.1035 21.7988c-39.2393 15.9863 -63.2178 31.6094 -95.5537 63.5811c-34.1523 33.0625 -52.6816 59.9482 -69.7578 99.9141
c-10.5361 25.7959 -24.7061 79.9307 -21.0732 83.2002c0.895508 0.894531 30.5205 -17.2822 30.5205 -15.2598c0 1.81738 -4.36035 15.623 -9.08398 31.6094c-17.0762 52.6816 -15.9863 83.5645 4.72363 129.342c51.2285 113.357 171.852 195.831 300.103 205.277
c16.3506 1.08984 39.2402 0.726562 51.2285 -1.08984c21.8008 -3.27051 21.8008 -3.27051 -13.4424 -3.63281c-109.562 -0.805664 -168.912 -44.7666 -208.91 -122.44c-16.7129 -32.3359 -40.3281 -101.729 -36.3311 -106.09
c1.08984 -0.725586 6.53906 7.2666 12.7158 17.8027c13.8057 24.707 35.9678 44.6885 55.2236 50.5029c21.7998 6.53906 52.3193 0.362305 97.7344 -19.9834c54.499 -24.7051 86.4707 -28.7021 112.993 -14.5322c9.08301 4.72266 9.08301 4.72266 -3.99609 5.08594
c-26.5225 0 -43.2354 23.6152 -43.2354 60.3115v20.3457h-38.876c-37.7852 -2.17969 -38.5117 -3.63281 -21.0723 1.08984c25.0693 6.54004 82.8369 6.54004 108.997 0c68.8398 -18.7744 128.936 -64.9375 158.044 -125.709
c22.8896 -47.959 31.9727 -106.817 20.3457 -130.069c-2.90625 -5.44922 -11.9883 -15.9863 -19.9814 -23.252c-14.5332 -13.0801 -14.5332 -13.4434 -5.4502 -13.4434c5.08594 0 12.3525 1.81641 16.3486 3.63281c5.81445 3.27051 6.9043 2.54297 6.9043 -4.72266
c0 -13.0801 -13.0801 -48.3223 -26.8867 -73.0283c-37.7852 -66.4873 -102.82 -115.536 -179.117 -135.155z" />
</svg>
