<?xml version="1.0" standalone="no"?>
<!DOCTYPE svg PUBLIC "-//W3C//DTD SVG 1.1//EN" "http://www.w3.org/Graphics/SVG/1.1/DTD/svg11.dtd" >
<svg xmlns="http://www.w3.org/2000/svg" xmlns:xlink="http://www.w3.org/1999/xlink" version="1.1" viewBox="-10 0 1010 1000">
   <path fill="currentColor"
d="M500.781 46.4062l16.1807 45.9492c8.47461 25.4238 16.9492 47.7969 18.3057 50.1699c1.69434 2.03418 7.11816 4.06738 12.2031 4.06738s21.3555 3.05176 35.9316 6.78027c38.4355 9.74414 24.7324 -0.291992 47.7969 -6.44043
c5.42383 -1.69531 9.49219 -4.74609 8.81348 -6.78027c-1.69434 -7.79688 6.10156 -16.2705 16.6104 -18.6436c5.7627 -1.01758 16.9492 -6.44141 25.085 -11.8643h35.5928l20.6787 21.0166v-6.7793c11.5254 -10.8477 30.5078 -15.5938 34.2373 -11.8652
c2.37207 2.37305 6.7793 1.35645 13.2197 -2.0332c9.49219 -5.7627 9.49219 -5.7627 21.0176 7.11816c6.44043 6.78027 14.2373 12.543 17.2881 12.543c16.3672 0 -11.6953 20.793 -4.74609 25.4229c4.74609 2.71191 4.06738 15.2549 -1.35645 24.7461
c-3.72852 6.7793 -3.38965 11.1865 2.37305 28.1357c5.7627 18.3047 8.13574 21.0166 21.3564 27.7969c8.13574 3.72852 14.915 8.47461 14.915 9.83008c0 1.35645 -6.7793 2.71191 -15.2539 2.71191c-13.8984 0 -15.5938 1.0166 -20.3389 10.8477
c-5.69336 11.3838 -12.5449 31.7539 -24.0684 35.5928v16.9492c6.78027 11.8643 11.1865 14.5762 19.3223 14.5762c22.0342 0 34.2373 26.7803 20.3389 44.4072c-6.10156 8.13574 -6.10156 8.81348 0.338867 40.3389c3.72852 17.627 8.13574 35.2539 9.49121 38.9834
c2.03418 5.08398 13.8984 10.5078 47.7969 21.6943c25.085 8.13574 51.1777 22.2021 55.9238 23.8975l-104.737 35.7637v28.8135c-3.38965 15.9326 -13.2207 31.8643 -14.2373 35.9326c-1.35547 4.40625 0 8.47461 3.05078 11.1865
c3.38965 2.71191 5.42383 9.83008 5.42383 17.627c0 15.9316 -9.49121 26.7793 -22.7119 26.7793c-7.79688 0 -11.5254 3.72949 -22.373 21.3564c-6.7793 11.5254 -14.5762 23.7285 -16.9492 26.7793c-7.46094 11.1934 50.7812 109.894 47.458 113.221
c-0.338867 0.677734 -24.4072 -10.8477 -53.2207 -25.4238l-51.8643 -26.7803l-28.1357 18.6445c-21.0166 14.2373 -28.4746 21.0166 -30.1689 28.1357c-1.01758 5.08496 -5.08496 12.2031 -8.47461 15.2539c-7.45801 6.78027 -28.4746 7.79688 -35.5938 1.69531
c-3.72852 -3.05078 -11.5254 -2.37305 -34.915 3.05078c-16.6104 4.06738 -33.2207 7.11816 -36.6104 7.11816c-5.42383 0 -9.83008 9.83105 -25.4238 56.6104l-18.9824 56.9492l-18.6445 -55.9326c-16.6104 -50.8467 -19.3223 -55.9316 -26.7793 -56.9482
c-4.40723 -0.339844 -22.373 -4.06836 -39.6611 -8.13574c-29.1523 -6.44141 -31.5254 -6.78027 -37.2881 -1.35645c-3.38965 3.05078 -11.8643 5.42383 -18.6445 5.42383c-14.2373 0 -26.1016 -12.2031 -26.1016 -27.457c0 -5.42383 -1.35547 -9.83105 -3.05078 -9.83105
c-1.69434 0 -13.5596 -6.7793 -26.1016 -15.5928l-23.0508 -15.2549h-12.8818c-17.627 8.13574 -20.6777 17.9668 -15.9316 28.4746c5.42383 11.8643 1.35547 26.1016 -7.45801 26.1016c-4.06738 0 -14.2373 6.10254 -22.7119 13.5596
c-14.2373 12.8818 -16.9492 13.8984 -32.542 12.8818c-13.8984 -0.678711 -19.3223 0.677734 -28.4746 7.45703c-8.81348 6.44043 -12.2031 7.45801 -16.9492 4.40723c-7.11816 -4.74609 -6.44043 -28.1357 1.0166 -33.5596
c4.06836 -3.05078 4.40723 -5.7627 1.69531 -13.2207c-7.74316 -19.6543 15.8223 -37.71 21.0166 -57.627c3.72949 -13.8984 4.40723 -14.5762 18.9834 -16.2705c10.8477 -1.01758 17.9658 -4.74609 26.4404 -12.8818c6.44141 -6.10156 11.5254 -12.542 11.5254 -13.8984
c0 -1.35547 -5.08398 -9.83008 -11.5254 -18.6436c-6.10156 -9.15332 -13.8984 -21.3564 -16.9492 -27.458c-4.40625 -8.47461 -7.7959 -10.8477 -15.5928 -10.8477c-20.3389 0 -31.1865 -25.4238 -18.3057 -43.3896c4.74609 -6.7793 4.74609 -9.83008 -1.69434 -35.5928
c-3.72852 -15.2549 -7.11914 -31.5254 -7.79688 -35.9326c-1.0166 -7.45801 -6.10156 -10.1699 -52.542 -25.4238c-28.4746 -9.49121 -51.8643 -17.9658 -51.8643 -18.9834c0 -1.0166 23.3896 -9.49121 51.8643 -18.9824c49.8301 -16.6104 51.5254 -17.2881 52.542 -27.1191
c0.677734 -5.42383 4.06836 -22.7119 7.79688 -37.9658c6.44043 -28.1357 6.44043 -28.4746 -0.338867 -36.9492c-14.5762 -18.6436 -3.38965 -45.085 18.9824 -45.085c9.83105 0 12.543 -2.71191 30.5088 -29.1523l19.3223 -29.4912l-24.0684 -48.8135
c-13.5586 -26.7803 -23.7979 -50.377 -23.7979 -51.3945l100.069 49.6992l25.7627 -16.9492c18.9834 -12.542 26.1016 -19.3223 26.1016 -24.4062c0 -9.83105 9.15234 -22.0342 19.3223 -26.1016c6.7793 -2.37305 11.8643 -1.69531 22.0342 3.38965
c13.2197 6.44043 13.8984 6.44043 41.0166 0c15.2539 -3.38965 33.4834 -8.13574 40.3389 -8.13574h12.543zM712.556 122.525c-15.9326 -11.8643 -17.2881 -11.8643 -32.543 -1.35547c-6.44043 4.40625 -15.2539 8.13477 -19.6611 8.13477
c-7.7959 0.339844 -8.81348 1.69531 -12.2031 18.3057c-1.35547 5.08496 -5.08496 12.2031 -8.47461 15.5928c-5.7627 5.7627 -5.7627 6.78027 -1.35547 11.5254c7.7959 7.45801 10.8467 30.5088 6.10156 42.0342c-2.37305 5.42383 -9.15234 15.5928 -15.2549 22.7119
c-7.11816 7.79688 -13.2197 20.3389 -16.9482 33.5596c-3.39062 13.2197 -7.11914 20.6777 -9.83105 20c-13.5596 -3.05078 -27.457 13.2197 -27.457 31.5254c0 6.10156 -2.37305 9.49121 -8.13574 11.8643c-6.44141 2.37305 -8.47461 6.10156 -9.49219 15.5928
c-1.0166 11.1865 -2.37207 12.8818 -16.9492 18.3057c-9.49121 3.38965 -17.2881 4.74512 -20.3389 3.05078c-2.37305 -1.69531 -5.42383 -3.05078 -6.7793 -3.05078c-4.74609 0 -3.05078 9.15234 2.37305 13.5596c5.42383 4.40625 6.10156 2.37207 -13.2207 39.6602
c-2.03418 4.06836 -27.457 34.2373 -56.2715 66.7803c-38.3047 43.7285 -54.2373 59.6611 -60 59.6611c-9.12695 0 -29.7666 17.9541 -38.6436 13.2197c-9.49121 -5.08496 -14.915 -0.338867 -8.13574 7.11914c5.08496 5.7627 5.08496 7.11816 -0.338867 17.2881
c-4.06738 8.13574 -4.74609 12.542 -2.03418 16.6104c2.71191 4.40625 -2.71191 12.542 -27.1182 41.0166c-41.0176 47.7969 -63.7295 70.8477 -69.1523 70.8477c-2.37305 0 -9.83105 4.74512 -16.2715 10.1689c-12.543 11.1865 -31.8643 20.3389 -42.373 20.3389
c-4.40723 0 -6.10156 1.69531 -4.74609 6.10254c0.678711 3.38965 -3.72852 13.5586 -10.8467 23.7285c-10.8477 16.2715 -11.8652 19.3223 -9.83105 32.8809c1.69531 11.5254 0.677734 16.2715 -3.38965 20.3398c-5.08496 5.08398 -7.79688 18.6436 -3.72852 18.6436
c1.0166 0 7.7959 -4.06738 14.915 -8.81348c10.8477 -7.11914 14.5762 -8.13574 20.3389 -5.08496c10.8477 6.10156 15.9326 4.40723 32.2031 -9.49121c8.47461 -7.45801 18.6445 -14.2373 22.373 -15.5938c6.10156 -2.0332 6.7793 -4.06738 5.08496 -16.6094
c-2.03418 -12.8818 -1.01758 -15.5938 9.83008 -28.8135c16.875 -20.248 3.51074 -15.71 21.3564 -35.2549c7.11816 -7.79688 25.085 -29.1523 39.6611 -47.457c39.3213 -48.8145 44.4062 -52.543 84.0674 -53.8984c13.8984 -0.678711 20 -9.15332 12.8818 -17.9668
c-5.42188 -6.77734 3.38965 -18.9111 3.38965 -27.7959c0 -7.45801 6.7793 -16.6104 28.8135 -39.6611c15.9316 -16.6104 35.2539 -38.6445 43.0508 -48.4746c24.0674 -31.5254 67.458 -64.0684 81.3555 -61.3564c2.71191 0.678711 4.06836 -2.0332 3.39062 -7.45703
c-1.35645 -13.2207 12.2031 -41.6953 18.9824 -39.6611c15.2549 4.06738 15.9326 4.06738 15.9326 -4.06836c0 -6.44043 2.71191 -9.15234 13.2197 -12.8809c16.9492 -5.7627 25.4238 -13.2207 31.5254 -27.458c3.72949 -9.15234 6.44141 -10.8467 15.5938 -10.8467
s13.5596 -2.71191 22.7119 -13.8984c17.2881 -21.6953 42.0342 -31.5254 78.3047 -31.8643c32.2041 0 29.4922 1.69434 43.0508 -26.4414c4.40723 -8.81348 9.15332 -15.9316 10.8477 -15.9316c1.69531 0 0.338867 -5.08496 -3.05078 -11.1865
c-6.34766 -10.792 -7.37793 -35.082 -18.9834 -38.3057c-4.40625 -1.0166 -9.49121 -1.0166 -11.1865 0c-5.7627 3.39062 -15.5928 -6.7793 -12.8809 -13.5586c2.37305 -6.10254 3.05078 -6.10254 7.79688 1.0166c7.11816 10.5088 11.8643 9.83008 22.373 -3.05078
c9.15234 -10.8477 7.7959 -19.6611 -3.05176 -19.6611c-9.15234 0 -7.7959 -6.7793 2.37305 -12.2031h10.8477l-12.542 -17.627l-12.2041 -12.543v10.1699c-8.13477 10.1689 -16.9482 10.1689 -18.9824 2.37305c-3.05078 -10.1699 -8.47461 -9.49219 -21.0176 3.72852
c-12.8809 13.2207 -13.2197 14.5762 -4.06738 16.9492c7.79688 2.03418 9.15234 12.542 1.69531 12.542c-2.71191 0 -5.08496 -1.35547 -5.08496 -3.05078c0 -5.42383 -17.627 -24.4062 -31.8643 -34.5762zM676.623 162.525
c11.5254 -14.915 28.1357 -10.5088 35.2539 9.15234c2.37305 7.11914 -3.72852 29.1523 -8.13477 29.1523c-7.63281 0 -12.3408 7.5166 -14.2373 -5.7627c-1.41992 -11.3467 -5.50098 -8.46094 -13.5596 -7.11816c-7.45801 1.69531 -6.78027 -15.5938 0.677734 -25.4238z
M702.386 171.678c-3.38965 -12.8809 -22.373 -9.83008 -22.373 3.72949c0 0.677734 3.38965 1.69434 7.45801 2.37207c4.74609 0.678711 8.13574 4.06836 9.49121 9.49219c1.61816 -4.43262 6.38965 -11.084 5.42383 -15.5938zM744.42 183.882
c0 -2.03418 1.69434 -3.39062 3.38965 -3.39062c2.03418 0 3.38965 1.35645 3.38965 3.39062c0 1.69434 -1.35547 3.38965 -3.38965 3.38965c-1.69531 0 -3.38965 -1.69531 -3.38965 -3.38965zM737.979 223.203c15.5049 -19.3828 62.8027 -0.933594 33.2197 23.0508
c-12.542 10.5088 -22.0342 11.1865 -24.4062 2.03418c-1.01758 -4.06738 -4.74609 -6.7793 -8.81348 -6.7793c-9.15332 0 -9.15332 -6.78027 0 -18.3057zM594.929 322.864c-10.7705 0 9.88965 -19.4961 5.08398 -5.08496
c-1.35547 2.71191 -3.38965 5.08496 -5.08398 5.08496zM619.335 349.645c-3.88477 -1.66602 7.14355 -23.252 9.15234 -11.8652c1.35645 7.11914 -3.72852 13.5596 -9.15234 11.8652z" />
</svg>
