<?xml version="1.0" standalone="no"?>
<!DOCTYPE svg PUBLIC "-//W3C//DTD SVG 1.1//EN" "http://www.w3.org/Graphics/SVG/1.1/DTD/svg11.dtd" >
<svg xmlns="http://www.w3.org/2000/svg" xmlns:xlink="http://www.w3.org/1999/xlink" version="1.1" viewBox="-10 0 1010 1000">
   <path fill="currentColor"
d="M33.5791 64.666c-0.633789 -1.58203 25.0166 11.7178 57 29.7676c31.9824 17.7324 66.8164 37.0498 77.583 42.75c16.1494 8.5498 50.0332 40.2168 184.934 172.267l165.3 161.816l12.0332 -13.2998c6.9668 -7.2832 12.3506 -16.4668 12.3506 -20.2666
c0.316406 -10.1338 5.69922 -18.0498 24.0664 -35.1504c12.9834 -12.0332 18.3662 -14.8838 27.5498 -14.8838c16.7832 0 33.8838 -15.5156 33.8838 -31.3496c0 -13.9326 2.53223 -18.0498 13.6162 -22.166c6.33301 -2.53418 8.5498 -5.38379 8.5498 -11.4004
c0 -17.5049 11.8154 -35.8623 33.25 -31.3496c10.4502 1.89941 11.4004 1.26562 15.834 -9.5c2.53223 -6.0166 4.75 -18.6836 4.75 -27.5508c0 -15.5156 0.949219 -17.0996 19 -36.7334c31.9824 -33.8828 39.8994 -58.583 23.75 -73.7822v-19
c5.7002 -6.65039 15.1992 -17.1006 17.416 -23.1172c2.84961 -9.5 5.7002 -12.0332 15.5166 -14.8828c6.33301 -1.58398 15.2002 -6.65039 19.3174 -11.084c4.11621 -4.43359 9.18262 -7.91602 11.3994 -7.91602c1.90039 0 12.3506 6.33203 22.4834 14.25
c13.6172 10.1328 21.8496 19.3164 29.1328 33.25c5.7002 10.4492 11.4004 19 12.667 19c1.58301 0 6.0166 -2.85059 10.1338 -6.01758v-37.6826l21.2158 -13.2998v9.81641l14.25 10.1328v-8.5498c3.48242 -4.43359 13.6172 -8.2334 15.2002 -8.2334
c1.58398 0 8.86719 6.0166 15.834 13.2998l12.666 13.6162v6.96777c-10.1338 8.5498 -18.0498 9.5 -7.91602 17.416v20.9004l-21.8506 14.25v-8.5498c-8.86621 -10.1338 -19.6338 -10.4502 -26.2832 -0.316406c-6.33301 9.81641 -4.43262 12.666 14.8838 22.166
c15.5156 7.91602 30.083 24.3838 40.2158 45.2832c4.75 10.1328 4.75 10.4502 -4.75 20.583c-12.208 12.21 -9.89062 26.5195 -27.2324 32.2998c-12.3643 4.3291 -24.5479 12.7119 -32.9336 19c-3.16699 2.21777 -5.7002 1.58398 -8.2334 -1.89941
c-4.75 -6.33301 -16.1504 -12.3506 -23.4336 -12.3506c-10.1328 0 -36.7334 14.25 -55.417 29.7676c-17.416 13.9326 -19.6328 14.8828 -40.2158 16.1504c-30.084 1.58203 -35.1504 4.75 -35.1504 22.166c0 12.666 -1.2666 15.2002 -10.1338 20.584
c-10.5947 6.23145 -32.2852 6.92773 -36.7324 17.7324c-3.16699 6.33398 -6.01758 7.59961 -16.4678 7.59961c-20.8994 0 -38 16.1504 -38 35.4678c0 4.75 -6.33203 13.9326 -18.0498 25.333c-14.8828 14.5664 -20.8994 18.3672 -32.2998 20.2666
c-8.5498 1.2666 -24.3613 11.0029 -31.0117 17.0195l47.1621 56.1309c28.5 28.8164 62.6992 62.0664 76.3164 74.416c23.1172 20.9004 25.0166 22.167 30.4004 17.1006c2.84961 -2.85059 6.9668 -5.06641 8.86621 -5.06641c4.75 0 31.3506 29.4492 33.8838 37.0498
c1.2666 3.7998 -0.633789 14.8828 -4.43359 25.6494c-7.91602 22.4834 -5.7002 29.7666 10.7666 36.7334c13.5928 5.4375 14.2998 21.7764 27.5498 27.2334c11.0869 4.84961 19.376 24.8799 30.4004 28.8164c4.11719 1.58398 9.5 7.59961 12.3496 13.9336
c5.38379 12.9834 4.11719 12.3496 15.834 6.33398c20.583 -10.7676 45.2832 -2.21777 60.4834 20.2656c8.86621 13.3008 9.18262 26.917 1.2666 42.75c-5.7002 11.084 -6.0166 12.667 -1.58398 19.3164c8.86719 13.9336 -8.5498 28.5 -19.9502 17.1006
c-2.84961 -2.85059 -7.59961 -1.90039 -18.3662 3.4834c-41.8926 19.7129 -81.9092 -27.2363 -63.334 -60.166c6.33398 -11.084 6.01758 -11.7178 -6.01562 -15.834c-14.1719 -4.47656 -15.0234 -17.2656 -26.917 -24.7002
c-13.1602 -7.40039 -17.4199 -21.8848 -31.0332 -29.7666c-5.7002 -3.4834 -12.667 -10.4492 -15.2002 -15.5166c-7.91602 -14.8828 -14.8838 -16.7832 -36.416 -8.86621c-22.8008 8.2334 -30.4004 6.33301 -50.668 -14.5664
c-12.9824 -13.3008 -13.6162 -14.25 -8.5498 -19.9502c2.85059 -3.16699 5.38379 -7.28418 5.38379 -9.18359c0 -1.58398 -35.1504 -37.0498 -77.9004 -78.5342l-77.8994 -75.6826l-26.6006 27.2334c-22.7998 23.1172 -26.5996 28.5 -26.5996 37.6836
c0 8.86621 -3.16602 13.6162 -22.7998 31.9834c-19.6338 18.3662 -24.7002 21.5322 -34.834 21.5322c-9.81641 0 -15.5166 3.80078 -42.75 27.5508c-61.75 55.0996 -101.649 95.9492 -100.066 101.967c0.950195 4.11621 -1.89941 8.5498 -9.5 14.25
c-11.7158 8.86621 -21.2158 27.8662 -21.2158 41.7998c0 12.9834 -5.7002 20.2666 -15.5176 20.2666c-5.38281 0 -15.5166 5.06641 -27.2324 14.5664l-18.6836 14.5674h-21.5342c-17.416 -1.89941 -23.1162 -3.4834 -29.7666 0.950195
c-11.083 6.96582 -12.3496 4.43262 -4.75 -8.23438c5.38379 -8.86621 6.33398 -13.9336 4.75 -29.7656v-19l14.25 -18.3672c9.81641 -11.4004 16.1504 -21.5332 16.1504 -25.9668c0 -9.18359 8.2334 -14.25 23.75 -14.25c15.2002 0 29.7666 -6.65039 40.8496 -18.6836
c6.65039 -6.65039 11.4004 -9.18262 15.5166 -7.91602c6.33398 1.89941 13.2998 -3.80078 89.9336 -78.2168c38.9502 -38 44.9668 -45.2832 46.8662 -56.0498c1.58398 -10.1338 6.33398 -16.7842 23.75 -33.5674c18.3672 -17.7324 23.1172 -20.9004 32.9336 -20.9004
c9.18359 0 15.2002 -3.48242 32.6172 -18.6826c38.9492 -33.5674 44.9668 -19.9502 -47.1836 -109.884c-44.0166 -43.3828 -119.383 -117.8 -167.199 -165.934l-87.084 -87.082l-39.584 -69.0342c-21.8496 -38 -39.8994 -70.2998 -40.5322 -71.8838zM829.045 121.983
c-9.18359 -7.2832 -21.5332 -8.5498 -30.7158 -3.16699c-11.7178 6.65039 -20.2676 37.0498 -10.7676 38c4.78906 0.799805 9.10742 2.2168 14.25 2.2168c1.90039 0.316406 3.7998 3.80078 3.7998 7.91699c0 16.7832 17.7344 19.9502 31.9844 5.7002
s10.7656 -35.4668 -8.55078 -50.667zM881.611 167.584c5.94922 -3.71875 -9.5 -17.7393 -9.5 -6.65039c0 5.7002 5.38379 9.18262 9.5 6.65039zM893.962 196.084c-10.7666 -5.7002 -14.8828 -5.7002 -25.333 0c-17.417 9.5 -18.6836 34.5156 -2.2168 37.0498
c5.06641 0.632812 7.59961 3.48242 8.2334 9.5c1.58301 12.666 7.91602 16.4658 20.2666 12.3496c14.5664 -5.06738 24.6992 -15.833 24.6992 -25.9668c0 -10.1328 -12.666 -26.2832 -25.6494 -32.9326zM676.412 318.634c14.5928 -14.5947 -6.9668 -6.88574 -6.9668 1.89941
c0 4.43359 1.2666 4.11719 6.9668 -1.89941zM716.312 351.884c1.58398 -7.28418 -3.48242 -6.96777 -10.7666 1.2666c-6.01562 6.64941 -6.01562 6.64941 1.90039 5.69922c4.43359 -0.632812 8.2334 -3.7998 8.86621 -6.96582z" />
</svg>
