<?xml version="1.0" standalone="no"?>
<!DOCTYPE svg PUBLIC "-//W3C//DTD SVG 1.1//EN" "http://www.w3.org/Graphics/SVG/1.1/DTD/svg11.dtd" >
<svg xmlns="http://www.w3.org/2000/svg" xmlns:xlink="http://www.w3.org/1999/xlink" version="1.1" viewBox="-10 0 1010 1000">
   <path fill="currentColor"
d="M370 47.667c7.54883 -1.37891 14.9229 -2.05469 22.0928 -2.05469c58.6816 0 103.613 45.2725 117.574 120.721c2.66602 14 6 20.334 14 27c9.66602 8 10.333 10.334 9 24.667l-1.66699 15.667l122 122c67 67 123.333 122 125 122s6 2.66602 9.33301 5.66602
c3.04883 2.70996 5.15039 4.04297 10.2852 4.04297c4.9707 0 12.7832 -1.24902 27.0488 -3.70898c32.666 -5.33398 60.666 -17 76.333 -32c16.3652 -15.3779 24.3711 -35.5332 24.3711 -57.4326c0 -29.8418 -14.8662 -62.9219 -43.7041 -91.5674
c-30.667 -31 -78.334 -51.667 -117.667 -51.667c-14.333 0 -20.667 -4.66699 -20.667 -15.333c0 -10.0488 3.9502 -14.0869 18.1357 -14.0869c5.57812 0 12.7393 0.624023 21.8643 1.75293c95 12 171 88.667 171 172.667c0 63.333 -47.666 106.333 -131 118
c-18 2.33301 -26 5 -30 10c-6.42773 8.4375 -21.2139 12.3184 -26.3857 12.3184c-2.29785 0 -54.8877 50.959 -117.614 114.015c-89.333 89.667 -116.333 118.334 -119.333 128c-2 7 -6.66699 14.667 -10 17c-6 4 -6 6.33398 -3 25.334c7 44.666 26.333 78.666 53 93.666
c12 6.66699 19.667 8.33398 38.667 8.33398c20.333 0 26.666 -1.66699 48.666 -12.334c52 -26 92.334 -87.666 92.667 -142c0 -18.333 5 -27.333 14.667 -27.333c10.7754 0 15.0195 5.00781 15.0195 21.0059c0 3.79688 -0.239258 8.21289 -0.686523 13.3271
c-7.33301 86 -72 161.667 -150.333 176c-7.15234 1.30469 -14.2285 1.94434 -21.1738 1.94434c-40.96 0 -77.4023 -22.2314 -98.4932 -61.2773c-10.333 -19 -22.333 -62.667 -22.333 -80.333c0 -6.33398 -3 -15 -6.66699 -19.667s-6.66699 -11 -6.66699 -14
s-54.333 -59.667 -121 -126.333c-103.004 -103.005 -118.649 -118.395 -126.986 -118.395c-1.18652 0 -2.22559 0.3125 -3.34668 0.727539c-2.34375 0.952148 -5.07324 1.38867 -7.96289 1.38867c-10.2627 0 -22.542 -5.5127 -26.7041 -13.0557
c-3 -5 -5 -5.33301 -22.333 -2c-56.3896 11.3398 -90.8018 45.7832 -90.8018 89.3428c0 3.81836 0.264648 7.70801 0.801758 11.6572c9 64 85.667 129.334 152.333 129.667c19 0 29.334 5.33301 29.334 14.667c0 10.9023 -4.9043 14.8965 -21.6367 14.8965
c-3.73047 0 -8.04785 -0.199219 -13.0303 -0.563477c-83 -6.33301 -158 -69 -174 -145.667c-1.85938 -8.97461 -2.76855 -17.7148 -2.76855 -26.167c0 -61.2402 47.6846 -107.41 126.769 -118.833c19.1396 -2.83496 23.0693 -11.666 41.333 -11.666
c11 0 19.334 -7.66699 138 -126.334c78.8965 -78.8955 123.712 -125.961 123.712 -130.146c0 -2.69824 -0.0292969 -10.0068 3.28809 -18.8535c2.54883 -6.70605 3.91016 -12.4414 3.91016 -19.0947c0 -9.87988 -3.00293 -21.7861 -9.57617 -41.9053
c-5.33398 -17 -11 -25.666 -25.667 -40.666c-16 -16.334 -21.333 -19.667 -38 -23.334c-6.20801 -1.36719 -12.5137 -2.04297 -18.874 -2.04297c-30.8682 0 -63.0488 15.918 -91.793 46.043c-28 29 -43.666 60.667 -49 99.667c-4.33301 30.667 -7 36.667 -16.333 36.667
c-9.84766 0 -14.4697 -6.17383 -14.4697 -20.3252c0 -2.61523 0.158203 -5.50293 0.469727 -8.6748c8.33301 -91 71.333 -166.667 151 -181zM622 368.333c-66 -66.333 -121 -120.666 -122 -120.666s-58.667 57 -128.333 126.666l-126.667 126.667l242 242l13.667 -0.666992
c13 -0.666016 17.333 -4.33301 126 -113c106.333 -106.333 112.666 -113.333 114.333 -126.333l1.33301 -13.667zM476 454.333c8.11426 -4.2959 17.5195 -6.38867 27.0547 -6.38867c10.4434 0 21.0439 2.51074 30.2783 7.38867
c19.542 10.3037 29.6152 31.0234 29.6152 51.8125c0 18.2178 -7.73535 36.4902 -23.6152 47.8545c-9 6.33301 -15.333 7.66699 -35 7.66699c-26.666 0 -36.333 -5 -50.333 -25.334c-5.26855 -7.63867 -6.99805 -12.3643 -6.99805 -23.0596
c0 -2.83789 0.121094 -6.0957 0.331055 -9.94043c1.33398 -25.333 9.66699 -39.666 28.667 -50z" />
</svg>
