<?xml version="1.0" standalone="no"?>
<!DOCTYPE svg PUBLIC "-//W3C//DTD SVG 1.1//EN" "http://www.w3.org/Graphics/SVG/1.1/DTD/svg11.dtd" >
<svg xmlns="http://www.w3.org/2000/svg" xmlns:xlink="http://www.w3.org/1999/xlink" version="1.1" viewBox="-10 0 1010 1000">
   <path fill="currentColor"
d="M276.369 332.775l12.9658 -12.9668c7.62695 -7.62695 18.6865 -13.7285 26.6953 -15.2539c13.3477 -2.28809 22.5 -13.3467 22.5 -27.0762c0 -12.2031 12.9658 -31.6523 26.6943 -40.042c19.0684 -11.8223 22.5 -19.8311 17.9238 -43.0928
c-8.85156 -44.2656 15.5107 -55.7383 -1.52539 -102.585c-5.33887 -14.873 -5.33887 -18.6865 -1.52539 -23.6445c6.86426 -8.38965 8.77148 -8.00879 28.2207 6.86426c9.5332 7.24609 22.1191 15.6357 28.2197 18.6865c32.2295 17.4971 18.127 76.8242 38.5176 108.687
c5.71973 8.77148 5.71973 8.77148 -8.38965 6.4834c-11.4414 -2.28906 -16.7793 -1.14453 -28.9834 7.24512c-20.9746 13.7285 -19.0674 18.3057 3.43262 9.53418c17.1602 -6.4834 20.5928 -6.4834 34.7031 -1.52539c21.7373 7.62793 49.1953 28.2197 51.8643 38.8984
c1.97949 7.91406 1.97949 7.91406 32.7969 17.1611c28.4834 8.83984 38.498 -9.6084 70.9316 -0.762695c37.2305 9.79785 22.9102 -15.1875 72.458 -9.91504c20.5928 2.28809 48.0508 14.873 57.2041 26.3135c3.81348 4.19434 0 4.95703 -22.5 4.95703
c-25.1709 -0.381836 -27.458 0.381836 -36.2295 10.6777c-12.6543 13.5605 -2.66992 10.6787 -2.66992 10.6787c4.19531 -11.4404 13.7285 -16.0176 33.1777 -16.0176c16.7803 0 22.8818 1.90723 35.0859 11.8223c16.3975 12.9658 18.3047 16.0166 21.7363 30.1279
c1.90625 7.24512 0.381836 11.0586 -5.71973 14.8721c-15.6182 9.54395 -15.9482 -11.0586 -45 -11.0586c-24.7881 0 -33.5596 13.7285 -30.5088 48.4316c0.381836 7.62695 -1.14355 8.77051 -15.2539 8.77051c-62.2207 0 -11.1279 -59.1719 -68.2627 -49.957
c-32.0342 4.95703 -33.5596 12.9658 -13.7285 62.9238c7.62695 18.3047 17.542 46.1445 22.8799 61.7793c7.62793 25.1699 8.00879 28.2207 2.6709 25.5518c-3.43262 -1.52637 -15.2549 -3.05176 -26.3135 -3.05176c-14.873 0 -21.7373 1.90723 -26.6953 7.24609
c-6.4834 6.86426 -6.4834 7.24609 0.762695 4.19434c16.0166 -6.10156 24.7881 -6.10156 45 -0.380859c24.4062 7.24609 27.457 10.2969 33.5596 33.5596c4.19434 15.2539 3.81348 18.6865 -1.90723 27.8389l-6.86426 10.2959l-8.39062 -8.00781
c-18.6865 -17.543 -56.4404 -20.9746 -73.6006 -6.4834c-12.2041 9.91602 -24.4072 8.39062 -31.2715 -4.95703c-15.5596 -28.0098 17.7646 -84.7197 1.90723 -122.034c-9.15332 -19.8311 -18.6865 -28.6016 -28.2217 -25.5508
c-6.48242 2.28809 -9.15137 -0.762695 -16.7783 -20.5938c-10.6787 -27.8389 -22.8818 -41.9482 -35.8486 -41.9482c-9.15137 0 -9.91504 1.14355 -8.00879 12.2031c3.24219 19.4492 14.2363 43.0107 11.8223 44.6182
c-0.761719 0.762695 -6.10059 -0.761719 -12.2021 -3.05078c-12.9668 -5.33887 -38.5176 -0.381836 -46.1445 8.77148c-3.81348 4.57617 -2.28906 4.57617 9.91504 0c27.8389 -9.91504 54.916 -3.05078 59.873 14.4912c7.17969 28.7188 -5.39355 57.2754 -10.6777 35.085
c-4.19531 -16.7803 -19.0684 -28.2207 -36.6104 -28.2207c-21.3555 0 -29.7461 5.33984 -38.1357 24.0264l-6.86426 16.0166l-4.57617 -11.4404c-7.57129 -18.9287 2.42383 -76.0537 -3.43262 -85.4248c-5.71973 -8.38867 -14.873 -1.90625 -17.542 12.2041
c-1.90723 9.91504 -4.95801 13.7285 -11.0596 14.873c-22.1182 4.19434 -42.7119 -13.7285 -59.8721 -52.6279zM214.208 425.826c5.7207 -19.0674 10.2969 -25.9316 31.6523 -46.5254c26.6953 -25.1699 31.6533 -27.8389 31.6533 -17.1611
c0.380859 11.0596 14.4912 39.2793 23.6436 46.9062c4.95801 3.81348 8.00879 7.62793 6.86426 8.39062c-31.502 23.2842 -62.1064 45.9043 -33.9414 105.254c6.86523 14.1104 7.24707 17.9238 3.43359 27.458c-2.66992 6.48242 -6.10254 11.4404 -8.00879 11.4404
c-6.4834 0 -43.8564 -40.8047 -50.7207 -54.915c-10.2969 -21.7373 -12.2041 -54.1523 -4.57617 -80.8477zM693.573 514.301c-5.33984 -6.10156 -0.381836 -12.2031 12.2021 -15.2549c0.813477 -0.216797 52.4014 -20.4531 19.0684 -81.9912
c-11.4414 -21.7373 -11.4414 -36.2285 0.762695 -48.0508c14.873 -14.873 32.0342 -11.4404 44.6182 9.15332c6.86426 11.0596 8.39062 19.4482 8.39062 46.1436c0.380859 37.373 -7.24609 56.8223 -28.9834 73.2207c-20.9746 15.6357 -49.958 24.4062 -56.0586 16.7793z
M625.31 417.437c-7.24512 -14.4912 -6.86426 -27.0771 0.763672 -32.0342c9.91406 -6.4834 17.542 -2.66992 25.5498 12.9658l8.00879 16.0176l-9.91602 8.77148c-13.7285 11.8213 -16.0156 11.0596 -24.4062 -5.7207zM642.089 464.725
c-7.24512 -24.4072 -7.62695 -23.2627 12.2041 -35.4658c23.2139 -13.9287 53.7012 -2.9707 54.1523 -2.66992c6.04004 7.04785 -45.7627 16.6338 -45.7627 28.6016c0 6.4209 14.5859 -13.083 32.7969 -11.0596c9.91504 1.14453 11.0586 2.66992 12.2031 16.3994
c1.14453 18.3047 -7.24512 33.1777 -14.873 25.5498c-8.77148 -8.38965 -14.8721 -5.33887 -14.8721 8.39062c0 34.207 -23.207 15.0732 -35.8486 -29.7461zM472.005 503.241c0 -0.762695 5.33887 -7.24609 11.8223 -14.1104
c26.5977 -26.5977 -4.01562 -39.7412 16.3975 -48.8135c12.9668 -5.71973 21.7373 -0.762695 29.7461 17.1611c8.77148 20.2119 6.86426 39.2803 -6.86426 66.7383c-8.39062 16.3975 -8.77148 19.8291 -4.95801 37.3721c3.43164 16.7793 6.10254 20.2119 19.0674 27.8389
c10.2979 5.7207 14.873 10.6777 14.1113 15.6357c-3.99512 27.957 -52.8594 -9.15234 -67.5 -9.15234c-14.4922 0 -16.0176 -24.0254 -2.28906 -44.2373c5.33984 -8.00879 9.53516 -19.4492 9.53516 -27.0762c0 -23.1318 -19.0684 -15.1719 -19.0684 -21.3564z
M289.335 608.114c-17.542 -41.9492 14.4922 -123.178 57.9668 -146.44c19.8301 -10.6787 25.1689 -9.15234 17.9229 4.95703c-4.57617 8.39062 7.62695 39.2803 17.1621 43.0938c7.62695 2.66992 7.62695 22.8809 0 28.9834c-7.24609 6.10156 -7.24609 18.6865 0 26.6943
c4.95703 5.7207 3.81348 8.77148 -11.0596 30.8896c-8.77148 13.3477 -26.3135 34.3223 -38.5176 46.1445c-25.9316 25.9316 -33.5586 24.7881 -31.6523 -4.19531c1.14453 -15.6357 2.28809 -18.3047 14.4912 -24.0244c9.91602 -4.95801 11.4404 -6.48438 5.33887 -6.86426
c-18.375 0 -22.2588 23.8838 -31.6523 0.761719zM397.641 613.453c-14.2764 -19.0332 11.708 -47.4502 1.52539 -96.1016c-11.6621 -52.8701 26.9541 -74.1045 46.1436 -54.915c27.6494 27.6514 -30.4502 145.704 -36.9912 152.542
c-4.95801 4.95801 -6.10254 4.95801 -10.6777 -1.52539zM448.742 553.581c3.81348 -9.15332 8.38965 -24.0264 9.91504 -32.7969l2.66992 -16.3984l9.15234 11.0596c11.0586 13.3467 11.8223 27.457 1.52539 36.6094c-11.9521 10.8662 -7.88574 20.9756 -21.3564 20.9756
c-11.0596 0 -11.0596 1.14355 -1.90625 -19.4492zM650.098 628.326l2.66895 -11.4404c3.43359 -13.3477 9.15332 -20.9746 15.6357 -20.9746c3.05176 0 8.00879 -8.38965 11.4414 -18.6865c5.7207 -17.1611 5.7207 -20.2119 0.380859 -32.7969
c-3.43164 -8.00879 -6.10156 -14.873 -6.10156 -16.0166c0 -2.28809 28.2207 3.05078 30.8906 6.10156c1.14355 1.14453 4.95703 9.5332 8.77051 17.9238c6.86426 16.0166 6.86426 16.0166 -1.90625 28.2207c-12.0215 16.6436 -34.3018 22.3613 -50.7207 37.7539z
M305.733 727.098c-6.48242 -28.2207 2.66895 -49.958 33.5596 -79.7031c13.3477 -12.585 29.3643 -29.7461 36.2285 -38.1357l12.2031 -15.2549v11.8223c0.707031 31.7988 28.7451 28.4053 33.1777 8.00879c0.0634766 -0.378906 6.41016 -36.1602 21.7383 -31.6533
c4.5752 1.14453 10.2969 2.28906 12.584 2.28906c8.16895 0 2.81543 17.5732 19.8311 21.3555c21.9023 5.84277 51.9541 30.0225 67.5 25.9326c7.24609 -1.90625 9.5332 -0.763672 9.5332 4.19434c0 11.8223 -7.62695 20.2119 -28.6016 32.415
c-43.0928 24.4072 -43.8555 48.4326 -1.90723 54.5342l9.53516 1.14355l-11.4414 4.95801c-16.0166 6.86426 -50.7197 2.28809 -59.8721 -7.24512c-7.24609 -8.00879 -13.3477 -9.15332 -23.6445 -5.33984c-9.53418 3.43359 -7.24609 8.39062 3.05078 6.4834
c14.8721 -3.0498 14.8721 5.33887 0.380859 16.3984c-16.3975 12.2031 -15.6348 15.2539 1.90723 6.86426c6.86426 -3.43262 20.2119 -7.24609 30.127 -8.00781l17.543 -1.52637l-13.3477 11.4414c-14.873 12.9658 -17.1611 14.1094 -42.7119 17.542
c-17.1611 2.28809 -44.6191 19.0674 -39.2793 24.0254c3.04395 3.04688 14.4961 -14.2744 34.7031 -17.1611c13.7285 -2.28809 14.4912 -1.90625 9.53418 3.81348c-5.7207 7.24609 -0.381836 8.77148 6.48242 1.90723c6.62988 -6.62988 20.0879 0.00390625 -17.9238 20.5928
c-6.48242 3.43262 -11.8213 8.38965 -11.8213 11.0605c0 7.4043 5.99707 -4.38281 27.457 -12.9668c8.00781 -3.43262 16.3984 -10.6777 19.8301 -17.1611c7.24609 -13.7295 27.0771 -31.2715 35.8486 -31.2715c8.05273 0 43.208 -19.1172 46.1426 -17.1611
c2.1377 3.20605 -14.1094 33.8174 -16.7783 53.3896c-2.28809 15.6357 -27.8398 71.3135 -33.5596 73.6025c-10.2969 4.5752 -25.5508 21.7373 -25.5508 28.6016c0.791016 15.8232 5.75391 -9.13477 19.0674 -16.3984c6.86426 -3.81348 7.24609 -2.66992 5.7207 16.0166
c-3.98145 48.7881 5.375 -39.4736 14.8721 -2.66895c1.52637 5.33887 4.95801 9.5332 8.39062 9.5332c14.918 0 -25.8311 -16.9102 7.24512 -68.6436c7.24609 -11.4404 13.3477 -23.6436 13.3477 -27.458c0 -18.9688 22.8809 11.8125 22.8809 33.9414
c0 16.6572 7.62793 33.4512 7.62793 12.9658c0 -12.585 0.380859 -12.9658 5.7207 -5.7207c3.05078 3.81348 5.71973 5.7207 5.71973 4.19531c0 -4.57617 -15.2539 -33.9404 -23.2627 -44.2373c-8.38965 -10.2969 -9.91504 -38.1357 -2.66992 -51.1016
c2.28906 -4.57715 5.33984 -13.7285 6.86426 -19.8311c5.33984 -26.6943 30.1279 -3.43262 30.8906 28.9834c0.380859 9.15234 1.14453 19.8301 2.28809 23.2627c3.05078 11.4404 7.62695 7.62793 5.7207 -4.57617c-0.763672 -6.10254 0 -11.4404 2.28711 -11.4404
c4.57715 0 8.39062 9.15137 8.39062 19.0674c0 3.81348 1.90723 8.38965 4.19434 9.91504c6.10156 3.43262 0.763672 -24.0254 -6.48242 -35.4658s-6.86426 -13.7295 2.66895 -8.77148c17.1611 9.53418 12.2041 0.381836 -16.0166 -29.3643l-8.39062 -8.77148
l21.3564 -20.9736c31.8633 -31.8633 19.1172 -29.6123 41.1865 -47.6699l16.0176 -12.585l6.48242 8.77051c4.27246 5.82617 18.2998 55.2422 2.66992 71.6953l-8.39062 9.15332l11.0596 -3.05078c11.0596 -2.66992 11.0596 -2.28906 9.15332 10.2959
c-4.19434 19.915 -23.8838 46.6523 -27.8398 64.4492c-1.90625 9.15234 -6.86426 14.873 -19.4482 22.5c-14.4922 8.38965 -19.8311 15.6357 -37.7549 49.957c-27.0762 52.2461 -40.8047 65.5938 -78.9404 75.8906l-29.3643 8.38965l-30.127 -16.3984
c-25.9326 -13.7285 -32.416 -19.4492 -42.7119 -36.2285c-11.4414 -19.4492 -11.4414 -20.2119 -4.95801 -30.127c6.4834 -10.2969 6.4834 -10.2969 -1.52539 -5.7207c-12.2031 6.4834 -13.3477 5.7207 -25.9316 -15.2539
c-9.53418 -16.0166 -13.7295 -19.8301 -27.8398 -23.2627c-9.15234 -2.28906 -17.542 -6.86426 -18.6865 -10.2959c-4.25488 -12.7656 -26.6279 -53.501 -33.9404 -82.7549zM502.514 702.69c0 -7.62695 8.00781 -14.1094 34.7021 -27.8379
c42.0576 -21.8389 27.9375 -73.4141 40.8057 -87.7129c7.62695 -8.38965 45 -9.15234 56.8223 -0.762695c8.00781 5.7207 8.00781 6.10156 2.28809 24.0254c-9.53418 27.457 -30.127 59.873 -45.7627 72.0762c-32.415 25.1699 -88.8555 37.7539 -88.8555 20.2119z" />
</svg>
