<?xml version="1.0" standalone="no"?>
<!DOCTYPE svg PUBLIC "-//W3C//DTD SVG 1.1//EN" "http://www.w3.org/Graphics/SVG/1.1/DTD/svg11.dtd" >
<svg xmlns="http://www.w3.org/2000/svg" xmlns:xlink="http://www.w3.org/1999/xlink" version="1.1" viewBox="-10 0 1010 1000">
   <path fill="currentColor"
d="M29.5156 196.244c36.9277 61.9102 136.802 16.9326 156.357 2.40527c26.4609 -19.2441 39.8623 -23.7109 72.165 -23.7109c37.457 0 50.8594 5.8418 83.5049 37.457c39.5195 37.8008 68.7285 87.2852 94.8457 160.137c11.6836 32.3027 11.6836 32.6465 23.0234 32.6465
c10.6533 0 11.6846 -0.6875 11.3408 -10.3096c-0.34375 -5.8418 -0.6875 -22.3369 -1.03125 -37.1133c-0.34375 -24.7422 -1.03125 -26.8037 -8.93457 -30.584c-12.0273 -5.49805 -10.9961 -15.4639 1.375 -18.2129c17.8691 -3.78027 19.2432 -8.93457 18.2129 -56.0137
c-2.00879 -75.3076 -13.6064 -59.5342 -7.2168 -69.7598c1.71777 -2.74902 3.09277 -8.93457 3.09277 -14.0889c0 -19.5752 20.707 -23.8125 34.3643 -16.4951c8.59082 4.81055 15.1201 33.333 10.3096 46.0479c-5.8418 15.8076 -8.59082 81.0996 -3.78027 95.5332
c3.43652 10.3086 6.18555 12.7139 15.8076 14.4326c13.7461 2.74902 16.1514 12.0273 5.49805 19.5879c-5.1543 4.12305 -6.87305 10.9961 -8.59082 39.8623l-2.40527 35.0518l13.0576 3.43652c6.87305 2.06152 13.0586 2.74902 13.0586 2.74902
c2.94922 -2.94922 32.1426 -112.311 81.0996 -169.072c18.9004 -21.9932 51.5469 -51.2031 64.9492 -57.7324c12.3711 -6.18555 21.3057 -7.55957 46.3916 -7.55957h30.9277l34.3643 19.5869c43.2988 24.7422 58.7627 30.2412 91.0654 32.6465
c21.9932 1.71777 28.1787 0.6875 40.2061 -5.1543c14.0889 -7.2168 31.959 -25.4297 31.959 -32.6465c0 -2.74902 1.03027 -2.74902 3.7793 0c2.75 2.74902 2.0625 9.27832 -2.06152 23.7109c-10.3096 36.083 -38.1445 52.9219 -87.2852 52.9219
c-68.4873 0 -80.9375 -30.3496 -117.869 -26.4609c-41.5811 5.1543 -69.416 35.3955 -115.808 126.117c-6.16016 9.85254 -23.4375 3.30176 -12.0273 12.0273c12.8643 9.0791 -20.6084 71.9834 -12.7148 82.1299c8.96094 10.5928 84.5059 13.3662 80.7559 19.9316
c-3.43652 5.49805 -29.5537 16.1514 -34.708 14.0898c-2.40527 -1.03125 -4.46777 -0.34375 -4.46777 1.71777c0 4.65527 -48.9736 20.1162 -49.4844 20.2754c-8.59082 2.74902 -10.9961 6.87207 -19.5879 31.958c-5.49805 16.1514 -9.96484 29.5537 -9.96484 29.8975
s-6.87305 7.90332 -15.4639 16.8379c-13.0586 14.4336 -15.4639 18.9004 -17.1826 35.3955c-1.79883 18.585 -24.1973 117.183 -31.959 117.183c-9.32227 0 1.50391 -49.415 -4.12305 -58.4199c-2.40625 -3.78027 -3.43652 -2.74902 -3.43652 4.46777
c0 28.5225 -7.56055 130.584 -10.6533 149.141c-7.2168 40.8936 -10.9961 24.0547 -18.5566 -79.3809c-6.32617 -90.9473 -10.7881 -87.5449 -7.2168 -49.1416c1.71875 21.3057 1.03125 28.1787 -3.09277 31.959c-4.4668 4.46777 -5.49805 3.43652 -10.3086 -7.90332
c-0.390625 -0.912109 -25.7734 -84.5713 -25.7734 -95.877c0 -13.4014 -11.3398 -35.7383 -18.2129 -35.7383c-4.12402 0 -23.0244 -18.2139 -27.835 -26.8047c-1.71875 -2.74902 -0.34375 -7.21582 3.43652 -11.3398c5.49805 -6.18555 5.49805 -6.5293 -1.71875 -6.5293
c-13.4141 0 -20.9619 -34.0938 -20.9619 -36.7695c0 -13.2305 -30.1064 -7.08301 -40.8936 -17.8701c-8.23145 -8.23145 -16.916 -1.12598 -19.5879 -8.24707c-1.03027 -2.74902 -4.4668 -4.4668 -7.90332 -3.43652c-6.87305 1.71875 -38.832 -12.3711 -40.5498 -18.2129
c-2.51855 -6.71289 62.498 -4.79297 86.2539 -14.0889l13.0586 -5.84277l-2.06152 -17.5254c-4.12402 -36.4258 -35.7393 -111.34 -60.8252 -145.018c-7.2168 -9.96484 -13.4023 -19.2432 -13.4023 -20.6182c-0.34375 -4.46777 -33.333 -25.4297 -48.7969 -30.9277
c-18.2129 -6.18555 -31.2715 -4.12402 -63.5742 9.27832c-59.1064 24.7422 -124.742 17.5254 -147.766 -16.8389c-15.9102 -23.5703 -19.293 -62.8975 -4.46777 -39.1748zM402.024 505.522c-11.7188 12.6182 17.665 25.2197 14.4326 38.1445
c-3.19922 9.59863 7.1377 10.9961 12.0273 23.7109c5.49902 14.0898 9.27832 8.24707 11.6846 -18.2129c2.06152 -23.0244 1.71777 -27.4912 -4.12402 -35.3955c-8.59082 -10.9961 -26.8047 -15.4639 -34.0205 -8.24707zM567.66 575.625
c3.78027 3.09277 4.81055 2.40625 4.81055 -3.09277c0 -12.6494 16.1631 -15.7734 12.0273 -28.1787c-1.71777 -5.49805 -0.686523 -7.90332 4.46777 -9.27832c7.90332 -1.71777 15.4639 -18.9004 12.3711 -26.8037c-2.06152 -5.1543 -10.6533 -5.8418 -23.0244 -2.74902
c-21.4209 5.35547 -19.3887 62.6152 -10.6523 70.1025z" />
</svg>
