<?xml version="1.0" standalone="no"?>
<!DOCTYPE svg PUBLIC "-//W3C//DTD SVG 1.1//EN" "http://www.w3.org/Graphics/SVG/1.1/DTD/svg11.dtd" >
<svg xmlns="http://www.w3.org/2000/svg" xmlns:xlink="http://www.w3.org/1999/xlink" version="1.1" viewBox="-10 0 1010 1000">
   <path fill="currentColor"
d="M531.645 751.073c-12.1875 0 -16.4199 -13.9336 -16.4199 -2.34473c0 5.08203 -1.56348 6.25488 -4.69238 3.51855c-7.6123 -5.43945 -45.7832 -0.868164 -52.7773 -5.86426c-9.69238 -7.27148 -24.2051 30.4482 -25.0205 -6.25586
c-0.390625 -8.20898 -1.17285 -10.9463 -2.34473 -6.64551c-3.12891 12.5098 -8.99316 16.4199 -13.293 8.60059c-8.32715 -13.5332 -17.1816 8.2666 -21.502 -4.69043c-3.8877 -9.71777 -17.2021 1.20215 -17.2021 -5.47363c0 -2.3457 -2.3457 -3.12793 -5.47266 -1.95508
c-5.86426 2.3457 -10.165 -12.5107 -9.77344 -33.6211c0 -16.4199 -3.51953 -46.5234 -6.25586 -50.8232c-4.09863 -6.15137 -9.1582 1.00488 -16.4189 -6.25586c-6.25586 -5.86426 -25.8037 -1.17188 -36.75 8.60156c-10.1641 8.99121 -17.2012 2.34473 -22.6748 -21.1104
c-10.96 -40.709 -28.7266 -33.9668 -20.3291 -64.5068c7.42871 -24.6289 14.8555 -34.7949 24.2393 -32.0576c8.60059 2.73633 10.1641 -3.90918 1.56348 -7.42871c-10.8721 -3.88281 4.25195 -13.4238 5.47266 -39.0947
c0.782227 -8.59961 2.7373 -19.9375 4.69238 -25.0195c5.77539 -15.1611 -6.75586 -7.55469 -10.5557 21.8926c-3.12793 26.9756 -19.1562 54.3418 -27.3672 47.3047c-3.90918 -3.12793 -5.47266 -14.8564 -5.47266 -40.2676c0 -30.8848 1.17285 -36.749 7.81934 -42.6133
c10.9463 -8.99121 9.77344 -15.2471 -1.95508 -12.1191c-9.38281 2.3457 -9.77344 1.56348 -9.77344 -16.4199v-19.1562l-26.584 0.391602c-55.124 1.17188 -51.6055 0.390625 -54.3418 13.291c-1.56445 8.21094 -6.25488 14.0752 -13.6836 17.9844
c-13.292 7.03711 -15.6377 5.47266 -22.2842 -13.6836c-5.47266 -17.2012 -1.17285 -88.7451 5.86426 -94.6094c2.92285 -2.50391 32.8398 -5.71582 32.8398 10.165c0 11.3379 8.20996 13.6826 50.8232 13.6826h33.6211l4.2998 -25.8018
c5.95605 -35.7275 18.9395 -38.998 15.6377 -43.3955c-3.51758 -5.47363 24.2393 -37.5312 48.0879 -56.6865c29.3203 -23.0664 37.1387 -27.7578 66.8516 -39.877c27.7568 -10.9463 48.4766 -13.292 51.9961 -5.47266c2.64648 6.1748 -1.17285 -42.3525 -1.17285 -66.0703
c-0.391602 -16.0293 -0.782227 -16.8105 -16.8105 -21.1123c-9.38379 -2.34473 -19.1572 -6.25488 -21.502 -8.20898c-6.55664 -5.32715 -4.17871 -46.0176 36.748 -30.1035c7.42871 2.7373 11.3379 2.7373 12.1191 0c1.56445 -4.69043 26.9756 -5.47266 74.6709 -1.56348
l32.4492 2.3457l-1.95508 15.6377c-2.73633 19.9385 -6.64648 23.457 -28.5391 26.1943c-17.2021 1.9541 -18.375 2.73633 -23.457 18.374c-5.0498 15.1514 -7.86426 52.5479 10.165 55.123c36.749 3.51953 85.2256 19.9385 91.0898 30.1035
c4.22461 8.44531 18.9951 8.45801 53.5605 41.0498c19.5469 18.373 24.2383 24.2373 20.3291 28.1475c-6.64648 6.64551 -5.86426 10.5557 2.3457 8.20996c12.5098 -3.12695 21.1113 16.0283 26.9756 60.2051c2.34473 19.1572 0 18.375 59.8145 26.585
c46.1318 6.25586 82.0977 12.5098 95.3906 16.4199c16.8105 4.69141 -6.25488 8.99121 -74.6709 13.6826l-70.3701 4.69141l-2.7373 41.4404c-1.17188 22.6748 -5.86426 57.8604 -9.77344 78.1895c-7.81836 37.1396 -7.81836 37.1396 0 45.3496
c17.0518 17.9482 -10.8252 39.1328 -12.1191 39.4863c-6.25586 1.56348 -7.03613 3.51758 -3.51855 7.42773c2.2832 2.56934 4.73828 5.33105 -6.64648 39.4854c-2.34473 9.38281 -21.1104 5.86328 -25.8018 -4.69141
c-5.47363 -11.7285 -7.81934 -12.1201 -17.2021 -1.56348c-11.7275 13.292 -26.9746 19.5469 -32.4482 14.0732c-6.64551 -6.64551 -12.1191 3.51855 -12.1191 23.8486c0 13.291 -1.56445 17.2012 -8.60156 19.9375c-15.2334 5.0791 4.69238 2.36133 4.69238 15.6377
c0 8.60156 -14.8564 24.6299 -19.5479 21.8936c-7.16602 -4.30176 -3.43945 18.6494 -13.293 4.69141c-5.08203 -6.25488 -5.47266 -6.25488 -7.42676 1.9541c-3.12793 11.3379 -9.38379 5.47363 -11.7285 -10.5547c-1.17285 -9.38281 -1.56445 -8.20996 -2.3457 4.69043
c-0.391602 13.293 -1.9541 16.8105 -7.42773 16.8105zM640.327 448.481c-10.1641 -8.60059 -15.6377 -9.77344 -33.6211 -8.99219c-140.986 4.86816 -50.9766 108.293 -31.2754 108.293c20.1328 0 37.8652 17.2383 60.9873 7.81836
c28.9297 -12.1191 42.6123 -53.168 28.1484 -84.835c-3.91016 -9.38281 -8.60156 -15.6387 -9.77344 -14.4648c-1.17383 1.56348 -7.81934 -1.95508 -14.4658 -7.81934zM435.08 453.955c-7.5498 0 -71.4492 -21.7256 -83.6621 -6.25488
c-12.2666 14.0166 -51.2139 16.9717 -51.2139 51.6035c0 13.6836 16.0283 52.3877 23.8477 58.6426c8.20898 6.25586 34.4033 12.9014 36.748 9.38281c0.782227 -1.56348 10.9473 -3.90918 21.8936 -5.47363c39.0947 -5.08203 50.4316 -16.0283 60.2051 -57.8594
c7.42871 -32.0586 4.69238 -50.041 -7.81836 -50.041zM527.734 593.523c-30.7139 -59.3105 -51.6045 -61.3467 -51.6045 -53.9512c0 4.03027 -57.5537 66.6152 -38.7041 88.7441c10.5557 12.9014 17.9834 13.6836 30.4941 3.12793
c12.1191 -9.77344 19.9375 -9.77344 19.9375 0.391602c0 14.8477 32.0098 17.0273 43.0049 -9.77441c4.69141 -10.9463 4.30078 -14.0742 -3.12793 -28.5381zM474.175 703.379c4.57617 3.66016 -2.41504 -7.3584 -3.12793 -6.64648
c-17.9824 7.42871 -21.8926 10.1641 -18.7646 13.6836c6.53418 6.5332 6.32129 31.1621 7.81836 10.9463c0.390625 -12.9014 8.60156 -23.0654 14.0742 -17.9834zM487.467 717.452c3.87891 -16.4912 10.001 -21.1104 5.08301 -21.1104
c-6.25488 0 -8.60156 5.08203 -8.20996 19.1562l0.390625 14.0742zM515.615 708.852c-5.19043 2.07715 -16.0293 -16.75 -16.0293 -10.1641c0 6.23926 10.2344 9.53711 15.248 26.584l3.51758 12.1201l0.391602 -14.8574
c0.390625 -7.81836 -1.17285 -14.0732 -3.12793 -13.6826zM575.039 699.078c2.3457 -0.78125 0 -1.56348 -5.47266 -1.56348c-14.8574 -0.391602 -19.9395 3.90918 -16.4199 12.9014c2.34473 6.64551 3.12695 6.64551 5.47266 -2.3457l2.3457 -9.77344l4.30078 9.77344
c3.90918 8.99121 4.30078 9.38184 4.30078 1.17285c0.390625 -4.69141 2.73535 -8.99219 5.47266 -10.165zM387.775 700.642c10.2861 -0.933594 4.04688 5.08789 -2.34473 2.3457c-3.12891 -1.17285 -1.95508 -2.3457 2.34473 -2.3457zM413.188 708.07
c4.6582 0 10.1348 -7.81934 4.69141 -7.81934c-5.27734 0 -9.76172 7.81934 -4.69141 7.81934zM440.944 703.379c0 -1.56445 -3.12793 -2.34668 -7.42773 -1.95508c-5.86426 0.390625 -6.64648 1.56348 -3.12695 7.42773c7.02344 11.415 10.5547 -5.35352 10.5547 -5.47266z
M538.681 709.243c0 -4.30078 -2.73633 -7.81934 -5.86426 -7.81934c-4.69141 0 -4.69141 1.17285 -1.17188 6.25488c2.73633 3.51855 5.47363 7.03711 5.86426 7.81934c0.78125 0.782227 1.17188 -1.95508 1.17188 -6.25488zM401.85 709.634
c0 2.94824 -7.81934 7.50098 -7.81934 2.73633c0 -2.34473 1.95508 -4.2998 3.91016 -4.2998c2.3457 0 3.90918 0.78125 3.90918 1.56348zM450.718 776.095l-2.73633 -23.457l24.6299 1.56445c13.6836 0.78125 25.8027 2.34473 26.584 3.12695
c2.28711 2.28711 -7.42773 42.2236 -7.42773 84.4443c-0.390625 26.9756 -12.5107 110.638 -16.8105 115.329c-4.85449 4.85449 -16.5957 -98.2646 -16.8105 -100.474c-2.34668 -32.0566 -4.69141 -56.2949 -7.42871 -80.5342z" />
</svg>
