<?xml version="1.0" standalone="no"?>
<!DOCTYPE svg PUBLIC "-//W3C//DTD SVG 1.1//EN" "http://www.w3.org/Graphics/SVG/1.1/DTD/svg11.dtd" >
<svg xmlns="http://www.w3.org/2000/svg" xmlns:xlink="http://www.w3.org/1999/xlink" version="1.1" viewBox="-10 0 1010 1000">
   <path fill="currentColor"
d="M124.383 463.498c0 -1.52051 14.4492 -7.98438 32.3193 -14.4482c55.5137 -20.1523 55.1338 -19.7725 55.1338 -45.6279c0 -12.167 1.14062 -27.376 2.28125 -33.46c2.28125 -11.0264 0.759766 -12.5479 -36.1221 -35.7412
c-20.9121 -13.3086 -38.4033 -25.4756 -38.4033 -26.6162s21.293 -1.52051 47.1484 -0.379883c46.3877 1.90039 47.1484 1.52051 49.8105 -6.84473c1.52051 -4.5625 8.74512 -18.6309 15.9688 -31.1787l12.9277 -22.4336l-22.4326 -34.9805
c-12.168 -19.3916 -23.5742 -37.2627 -25.0957 -39.9238c-1.52051 -2.66211 15.9697 4.5625 39.1641 15.9697l41.8252 21.292c19.2646 -14.4492 38.5293 -28.8975 57.7939 -43.3457l-2.66113 -20.9121c-2.73828 -28.2998 -9.12598 -47.458 -9.12598 -60.8369
c0 -8.74512 9.88672 1.52148 48.2891 50.5703l7.98535 10.2666l34.6006 -7.22461c19.0117 -3.80273 36.1211 -8.36523 38.0225 -10.6465c1.52148 -1.90137 7.98535 -22.0527 14.0684 -45.2471l10.6465 -41.4453l6.84473 24.335
c17.8701 61.9775 19.7715 66.54 29.6572 67.6807c12.2197 0.87207 60.6133 13.5312 62.3574 11.7871c0.586914 -0.585938 55.5137 -71.543 55.5137 -61.5967c0 4.10059 -11.4072 78.665 -11.4072 79.4678c0 2.28125 12.9277 13.6875 29.2773 25.8555l28.8975 21.6729
l41.4453 -21.293c22.4336 -11.7871 41.0645 -20.5322 41.0645 -19.0117c0 1.14062 -11.4072 19.0117 -25.0947 39.9238l-25.4756 37.6426l15.9697 26.2363c8.36523 14.0684 15.5889 28.1367 15.5889 30.418c0 2.66211 2.28125 4.5625 4.94336 4.94336
c36.6143 1.74219 90.1143 -5.25195 90.1143 -1.90137c0 1.90137 -17.1104 14.4482 -38.4033 27.7568l-38.0225 24.334l1.90039 13.6885c1.1416 7.60449 3.04199 23.5742 4.18262 35.3613l2.28125 21.293l34.9814 13.6885c19.3916 7.22363 39.1631 14.8281 44.4863 17.1104
c12.5479 4.5625 8.74609 5.70312 -44.4863 13.6875l-42.5859 6.84473l-6.46387 21.292c-3.42188 11.7871 -8.74512 26.2363 -11.7871 31.9395l-5.70312 11.0264l34.6006 34.6016c19.0117 19.0107 34.2207 34.6006 33.46 35.3604
c-0.379883 0.380859 -21.292 -4.94238 -46.3877 -11.7871l-45.627 -12.5469l-23.1943 25.0947c-22.8135 24.7148 -23.1934 25.8555 -18.6309 36.8818c12.5479 29.2783 28.8975 75.2852 27.376 76.8066c-2.62207 1.74902 -56.9482 -44.043 -70.3418 -53.6123
c-2.66113 -1.52051 -17.4902 2.28125 -34.6006 9.12598l-30.0381 12.167l-2.66211 49.0488c-1.52051 26.9971 -3.80176 49.0498 -5.32324 49.0498c-5.51367 -1.83594 -40.001 -84.9277 -53.2314 -86.6924c-6.84375 -1.14062 -7.98438 0.760742 -7.98438 14.4492
c0 12.9277 1.52051 15.9697 9.88574 19.7715c17.1104 7.98535 20.5322 20.5322 20.5322 76.0459c0 43.3457 -1.14062 52.4717 -7.22461 62.7373c-4.18262 6.46387 -11.0264 12.9277 -15.209 14.4492c-6.84375 1.90137 -7.98438 6.08301 -8.74512 33.46l-1.14062 31.1787
h-30.4189l-1.14062 -30.7988c-1.14062 -28.8975 -1.52051 -31.1787 -10.6465 -35.3613c-15.5889 -6.84375 -20.5322 -25.0947 -20.5322 -75.665c0 -52.0908 3.80273 -66.9199 19.7725 -75.2852c20.6914 -10.7598 6.74414 -34.2373 2.28125 -34.9814
c-11.3018 -2.60742 -47.5811 86.6924 -53.2324 86.6924c-1.90039 0 -3.04102 -11.7871 -3.04102 -26.2354c0 -14.0684 -1.14062 -36.502 -2.28223 -49.0498c-2.28125 -19.3916 -3.80176 -23.9541 -10.6455 -25.8555c-13.4521 -4.48242 -44.3867 -20.5322 -49.8105 -20.5322
c-6.46094 0 -73.6553 58.6641 -76.4258 55.8936c-1.14062 -0.760742 5.70312 -20.9131 14.8291 -44.8672l16.7295 -43.3457c-15.3027 -16.7627 -30.5117 -33.6191 -45.627 -50.5703l-38.4033 10.6465c-21.292 5.70312 -42.585 11.4062 -47.9082 12.9277
c-16.2861 5.42773 59.3135 -62.7451 58.1748 -70.7227c-0.379883 -2.66211 -5.32324 -17.8711 -11.0264 -34.2207c-11.4072 -32.6992 -6.08398 -29.2773 -65.0195 -37.6426c-19.3916 -2.66113 -35.3613 -6.08398 -35.3613 -7.60449zM252.14 422.054
c0 38.7832 1.52148 47.5283 11.4072 76.4258c12.167 34.2197 40.3037 80.9883 60.4561 99.2393c111.399 103.085 287.418 93.8174 378.327 -35.7412c52.8516 -75.2852 59.3154 -168.062 18.251 -253.612c-47.5547 -99.5635 -187.312 -181.795 -336.122 -109.886
c-33.46 15.9688 -82.1289 62.7373 -101.521 98.0986c-22.8135 41.8252 -31.1787 74.9043 -30.7988 125.476zM481.798 788.974v29.6572c0 26.6162 0.759766 29.2783 6.46387 26.2363c3.42188 -2.28125 11.0264 -2.28125 17.1104 -0.760742l10.6465 3.42188v-58.5547h-34.2207
zM344.915 421.673c0 -30.7979 6.46387 -60.0762 13.6885 -63.1182c3.04199 -1.14062 4.18262 -3.42188 3.04199 -5.32227c-7.39941 -12.335 85.54 -133.658 206.844 -73.0039c25.4756 12.9277 58.9355 48.2891 72.2432 76.0449
c9.12598 19.7725 10.2666 26.2363 10.2666 63.8789c0 38.0225 -1.14062 43.7256 -10.6465 63.1172c-27.7568 57.0342 -80.9883 90.875 -142.205 90.875c-53.4297 0 -90.6689 -30.418 -91.6348 -30.418c-0.472656 0 -61.5977 -42.25 -61.5977 -122.054z" />
</svg>
